ISO-10303-21;
HEADER;
/* Generated by software containing ST-Developer
 * from STEP Tools, Inc. (www.steptools.com) 
 */

FILE_DESCRIPTION(
/* description */ (''),
/* implementation_level */ '2;1');

FILE_NAME(
/* name */ '2.35mmSafetyJack.stp',
/* time_stamp */ '2025-10-02T21:56:08-07:00',
/* author */ ('incep'),
/* organization */ (''),
/* preprocessor_version */ 'ST-DEVELOPER v20.1',
/* originating_system */ 'Autodesk Inventor 2026',
/* authorisation */ '');

FILE_SCHEMA (('AUTOMOTIVE_DESIGN { 1 0 10303 214 3 1 1 }'));
ENDSEC;

DATA;
#10=MECHANICAL_DESIGN_GEOMETRIC_PRESENTATION_REPRESENTATION('',(#14,#15,
#16,#17,#18,#19,#20,#21,#22,#23,#24,#25,#26,#27,#28,#29,#30,#31,#32,#33,
#34,#35,#36,#37,#38,#39),#1286);
#11=SHAPE_REPRESENTATION_RELATIONSHIP('SRR','None',#1293,#12);
#12=ADVANCED_BREP_SHAPE_REPRESENTATION('',(#13),#1285);
#13=MANIFOLD_SOLID_BREP('Solid1',#773);
#14=STYLED_ITEM('',(#1303),#739);
#15=STYLED_ITEM('',(#1303),#740);
#16=STYLED_ITEM('',(#1303),#741);
#17=STYLED_ITEM('',(#1303),#742);
#18=STYLED_ITEM('',(#1303),#743);
#19=STYLED_ITEM('',(#1303),#744);
#20=STYLED_ITEM('',(#1303),#745);
#21=STYLED_ITEM('',(#1303),#746);
#22=STYLED_ITEM('',(#1303),#747);
#23=STYLED_ITEM('',(#1303),#748);
#24=STYLED_ITEM('',(#1303),#749);
#25=STYLED_ITEM('',(#1303),#750);
#26=STYLED_ITEM('',(#1303),#751);
#27=STYLED_ITEM('',(#1303),#752);
#28=STYLED_ITEM('',(#1303),#753);
#29=STYLED_ITEM('',(#1303),#754);
#30=STYLED_ITEM('',(#1303),#755);
#31=STYLED_ITEM('',(#1303),#756);
#32=STYLED_ITEM('',(#1303),#757);
#33=STYLED_ITEM('',(#1303),#758);
#34=STYLED_ITEM('',(#1304),#768);
#35=STYLED_ITEM('',(#1304),#769);
#36=STYLED_ITEM('',(#1304),#770);
#37=STYLED_ITEM('',(#1304),#771);
#38=STYLED_ITEM('',(#1304),#772);
#39=STYLED_ITEM('',(#1302),#13);
#40=CONICAL_SURFACE('',#805,0.4,0.785398163397449);
#41=CONICAL_SURFACE('',#812,0.4,0.78539816339745);
#42=FACE_BOUND('',#130,.T.);
#43=FACE_BOUND('',#160,.T.);
#44=FACE_BOUND('',#162,.T.);
#45=FACE_BOUND('',#164,.T.);
#46=FACE_BOUND('',#165,.T.);
#47=FACE_BOUND('',#166,.T.);
#48=FACE_BOUND('',#167,.T.);
#49=FACE_BOUND('',#174,.T.);
#50=FACE_BOUND('',#178,.T.);
#51=PLANE('',#799);
#52=PLANE('',#802);
#53=PLANE('',#811);
#54=PLANE('',#818);
#55=PLANE('',#819);
#56=PLANE('',#820);
#57=PLANE('',#821);
#58=PLANE('',#822);
#59=PLANE('',#823);
#60=PLANE('',#824);
#61=PLANE('',#825);
#62=PLANE('',#826);
#63=PLANE('',#827);
#64=PLANE('',#828);
#65=PLANE('',#829);
#66=PLANE('',#830);
#67=PLANE('',#831);
#68=PLANE('',#832);
#69=PLANE('',#833);
#70=PLANE('',#834);
#71=PLANE('',#835);
#72=PLANE('',#836);
#73=PLANE('',#837);
#74=PLANE('',#838);
#75=PLANE('',#839);
#76=PLANE('',#842);
#77=PLANE('',#845);
#78=PLANE('',#846);
#79=PLANE('',#847);
#80=PLANE('',#848);
#81=PLANE('',#853);
#82=PLANE('',#858);
#83=PLANE('',#861);
#84=FACE_OUTER_BOUND('',#128,.T.);
#85=FACE_OUTER_BOUND('',#129,.T.);
#86=FACE_OUTER_BOUND('',#131,.T.);
#87=FACE_OUTER_BOUND('',#132,.T.);
#88=FACE_OUTER_BOUND('',#133,.T.);
#89=FACE_OUTER_BOUND('',#134,.T.);
#90=FACE_OUTER_BOUND('',#135,.T.);
#91=FACE_OUTER_BOUND('',#136,.T.);
#92=FACE_OUTER_BOUND('',#137,.T.);
#93=FACE_OUTER_BOUND('',#138,.T.);
#94=FACE_OUTER_BOUND('',#139,.T.);
#95=FACE_OUTER_BOUND('',#140,.T.);
#96=FACE_OUTER_BOUND('',#141,.T.);
#97=FACE_OUTER_BOUND('',#142,.T.);
#98=FACE_OUTER_BOUND('',#143,.T.);
#99=FACE_OUTER_BOUND('',#144,.T.);
#100=FACE_OUTER_BOUND('',#145,.T.);
#101=FACE_OUTER_BOUND('',#146,.T.);
#102=FACE_OUTER_BOUND('',#147,.T.);
#103=FACE_OUTER_BOUND('',#148,.T.);
#104=FACE_OUTER_BOUND('',#149,.T.);
#105=FACE_OUTER_BOUND('',#150,.T.);
#106=FACE_OUTER_BOUND('',#151,.T.);
#107=FACE_OUTER_BOUND('',#152,.T.);
#108=FACE_OUTER_BOUND('',#153,.T.);
#109=FACE_OUTER_BOUND('',#154,.T.);
#110=FACE_OUTER_BOUND('',#155,.T.);
#111=FACE_OUTER_BOUND('',#156,.T.);
#112=FACE_OUTER_BOUND('',#157,.T.);
#113=FACE_OUTER_BOUND('',#158,.T.);
#114=FACE_OUTER_BOUND('',#159,.T.);
#115=FACE_OUTER_BOUND('',#161,.T.);
#116=FACE_OUTER_BOUND('',#163,.T.);
#117=FACE_OUTER_BOUND('',#168,.T.);
#118=FACE_OUTER_BOUND('',#169,.T.);
#119=FACE_OUTER_BOUND('',#170,.T.);
#120=FACE_OUTER_BOUND('',#171,.T.);
#121=FACE_OUTER_BOUND('',#172,.T.);
#122=FACE_OUTER_BOUND('',#173,.T.);
#123=FACE_OUTER_BOUND('',#175,.T.);
#124=FACE_OUTER_BOUND('',#176,.T.);
#125=FACE_OUTER_BOUND('',#177,.T.);
#126=FACE_OUTER_BOUND('',#179,.T.);
#127=FACE_OUTER_BOUND('',#180,.T.);
#128=EDGE_LOOP('',(#522,#523,#524,#525));
#129=EDGE_LOOP('',(#526,#527,#528,#529,#530,#531));
#130=EDGE_LOOP('',(#532));
#131=EDGE_LOOP('',(#533,#534,#535,#536));
#132=EDGE_LOOP('',(#537,#538,#539,#540));
#133=EDGE_LOOP('',(#541,#542,#543,#544,#545));
#134=EDGE_LOOP('',(#546,#547,#548,#549,#550));
#135=EDGE_LOOP('',(#551));
#136=EDGE_LOOP('',(#552,#553,#554,#555,#556));
#137=EDGE_LOOP('',(#557,#558,#559,#560,#561));
#138=EDGE_LOOP('',(#562));
#139=EDGE_LOOP('',(#563,#564,#565,#566));
#140=EDGE_LOOP('',(#567,#568,#569,#570));
#141=EDGE_LOOP('',(#571,#572,#573,#574,#575,#576));
#142=EDGE_LOOP('',(#577,#578,#579,#580));
#143=EDGE_LOOP('',(#581,#582,#583,#584));
#144=EDGE_LOOP('',(#585,#586,#587,#588));
#145=EDGE_LOOP('',(#589,#590,#591,#592));
#146=EDGE_LOOP('',(#593,#594,#595,#596,#597,#598));
#147=EDGE_LOOP('',(#599,#600,#601,#602));
#148=EDGE_LOOP('',(#603,#604,#605,#606,#607,#608));
#149=EDGE_LOOP('',(#609,#610,#611,#612));
#150=EDGE_LOOP('',(#613,#614,#615,#616));
#151=EDGE_LOOP('',(#617,#618,#619,#620));
#152=EDGE_LOOP('',(#621,#622,#623,#624,#625,#626));
#153=EDGE_LOOP('',(#627,#628,#629,#630));
#154=EDGE_LOOP('',(#631,#632,#633,#634,#635,#636));
#155=EDGE_LOOP('',(#637,#638,#639,#640));
#156=EDGE_LOOP('',(#641,#642,#643,#644));
#157=EDGE_LOOP('',(#645,#646,#647,#648));
#158=EDGE_LOOP('',(#649,#650,#651,#652));
#159=EDGE_LOOP('',(#653));
#160=EDGE_LOOP('',(#654));
#161=EDGE_LOOP('',(#655));
#162=EDGE_LOOP('',(#656));
#163=EDGE_LOOP('',(#657,#658,#659,#660,#661,#662,#663,#664));
#164=EDGE_LOOP('',(#665,#666,#667,#668));
#165=EDGE_LOOP('',(#669,#670,#671,#672));
#166=EDGE_LOOP('',(#673));
#167=EDGE_LOOP('',(#674));
#168=EDGE_LOOP('',(#675,#676,#677,#678));
#169=EDGE_LOOP('',(#679,#680,#681,#682));
#170=EDGE_LOOP('',(#683,#684,#685,#686,#687,#688,#689,#690,#691,#692,#693,
#694));
#171=EDGE_LOOP('',(#695,#696,#697,#698));
#172=EDGE_LOOP('',(#699,#700,#701,#702));
#173=EDGE_LOOP('',(#703));
#174=EDGE_LOOP('',(#704));
#175=EDGE_LOOP('',(#705,#706,#707,#708));
#176=EDGE_LOOP('',(#709,#710,#711,#712));
#177=EDGE_LOOP('',(#713));
#178=EDGE_LOOP('',(#714));
#179=EDGE_LOOP('',(#715,#716,#717,#718));
#180=EDGE_LOOP('',(#719));
#181=LINE('',#1079,#258);
#182=LINE('',#1082,#259);
#183=LINE('',#1085,#260);
#184=LINE('',#1089,#261);
#185=LINE('',#1091,#262);
#186=LINE('',#1092,#263);
#187=LINE('',#1097,#264);
#188=LINE('',#1098,#265);
#189=LINE('',#1102,#266);
#190=LINE('',#1107,#267);
#191=LINE('',#1113,#268);
#192=LINE('',#1120,#269);
#193=LINE('',#1126,#270);
#194=LINE('',#1132,#271);
#195=LINE('',#1134,#272);
#196=LINE('',#1136,#273);
#197=LINE('',#1137,#274);
#198=LINE('',#1140,#275);
#199=LINE('',#1142,#276);
#200=LINE('',#1143,#277);
#201=LINE('',#1146,#278);
#202=LINE('',#1148,#279);
#203=LINE('',#1150,#280);
#204=LINE('',#1151,#281);
#205=LINE('',#1154,#282);
#206=LINE('',#1155,#283);
#207=LINE('',#1158,#284);
#208=LINE('',#1159,#285);
#209=LINE('',#1163,#286);
#210=LINE('',#1165,#287);
#211=LINE('',#1167,#288);
#212=LINE('',#1168,#289);
#213=LINE('',#1171,#290);
#214=LINE('',#1173,#291);
#215=LINE('',#1174,#292);
#216=LINE('',#1177,#293);
#217=LINE('',#1179,#294);
#218=LINE('',#1181,#295);
#219=LINE('',#1182,#296);
#220=LINE('',#1185,#297);
#221=LINE('',#1186,#298);
#222=LINE('',#1189,#299);
#223=LINE('',#1191,#300);
#224=LINE('',#1192,#301);
#225=LINE('',#1194,#302);
#226=LINE('',#1198,#303);
#227=LINE('',#1200,#304);
#228=LINE('',#1202,#305);
#229=LINE('',#1203,#306);
#230=LINE('',#1206,#307);
#231=LINE('',#1208,#308);
#232=LINE('',#1209,#309);
#233=LINE('',#1212,#310);
#234=LINE('',#1214,#311);
#235=LINE('',#1216,#312);
#236=LINE('',#1217,#313);
#237=LINE('',#1220,#314);
#238=LINE('',#1221,#315);
#239=LINE('',#1224,#316);
#240=LINE('',#1226,#317);
#241=LINE('',#1227,#318);
#242=LINE('',#1229,#319);
#243=LINE('',#1232,#320);
#244=LINE('',#1233,#321);
#245=LINE('',#1235,#322);
#246=LINE('',#1237,#323);
#247=LINE('',#1250,#324);
#248=LINE('',#1251,#325);
#249=LINE('',#1253,#326);
#250=LINE('',#1254,#327);
#251=LINE('',#1256,#328);
#252=LINE('',#1258,#329);
#253=LINE('',#1263,#330);
#254=LINE('',#1267,#331);
#255=LINE('',#1272,#332);
#256=LINE('',#1276,#333);
#257=LINE('',#1281,#334);
#258=VECTOR('',#868,10.);
#259=VECTOR('',#871,10.);
#260=VECTOR('',#874,10.);
#261=VECTOR('',#877,10.);
#262=VECTOR('',#878,10.);
#263=VECTOR('',#879,10.);
#264=VECTOR('',#884,10.);
#265=VECTOR('',#885,10.);
#266=VECTOR('',#890,10.);
#267=VECTOR('',#895,0.4);
#268=VECTOR('',#902,0.5);
#269=VECTOR('',#911,0.4);
#270=VECTOR('',#918,0.5);
#271=VECTOR('',#925,10.);
#272=VECTOR('',#926,10.);
#273=VECTOR('',#927,10.);
#274=VECTOR('',#928,10.);
#275=VECTOR('',#931,10.);
#276=VECTOR('',#932,10.);
#277=VECTOR('',#933,10.);
#278=VECTOR('',#936,10.);
#279=VECTOR('',#937,10.);
#280=VECTOR('',#938,10.);
#281=VECTOR('',#939,10.);
#282=VECTOR('',#942,10.);
#283=VECTOR('',#943,10.);
#284=VECTOR('',#946,10.);
#285=VECTOR('',#947,10.);
#286=VECTOR('',#950,10.);
#287=VECTOR('',#951,10.);
#288=VECTOR('',#952,10.);
#289=VECTOR('',#953,10.);
#290=VECTOR('',#956,10.);
#291=VECTOR('',#957,10.);
#292=VECTOR('',#958,10.);
#293=VECTOR('',#961,10.);
#294=VECTOR('',#962,10.);
#295=VECTOR('',#963,10.);
#296=VECTOR('',#964,10.);
#297=VECTOR('',#967,10.);
#298=VECTOR('',#968,10.);
#299=VECTOR('',#971,10.);
#300=VECTOR('',#972,10.);
#301=VECTOR('',#973,10.);
#302=VECTOR('',#976,10.);
#303=VECTOR('',#979,10.);
#304=VECTOR('',#980,10.);
#305=VECTOR('',#981,10.);
#306=VECTOR('',#982,10.);
#307=VECTOR('',#985,10.);
#308=VECTOR('',#986,10.);
#309=VECTOR('',#987,10.);
#310=VECTOR('',#990,10.);
#311=VECTOR('',#991,10.);
#312=VECTOR('',#992,10.);
#313=VECTOR('',#993,10.);
#314=VECTOR('',#996,10.);
#315=VECTOR('',#997,10.);
#316=VECTOR('',#1000,10.);
#317=VECTOR('',#1001,10.);
#318=VECTOR('',#1002,10.);
#319=VECTOR('',#1005,10.);
#320=VECTOR('',#1008,10.);
#321=VECTOR('',#1009,10.);
#322=VECTOR('',#1012,10.);
#323=VECTOR('',#1015,10.);
#324=VECTOR('',#1030,10.);
#325=VECTOR('',#1031,10.);
#326=VECTOR('',#1032,10.);
#327=VECTOR('',#1033,10.);
#328=VECTOR('',#1036,10.);
#329=VECTOR('',#1039,10.);
#330=VECTOR('',#1046,1.9);
#331=VECTOR('',#1051,2.7);
#332=VECTOR('',#1058,1.3);
#333=VECTOR('',#1063,1.5);
#334=VECTOR('',#1070,0.4);
#335=CIRCLE('',#797,1.);
#336=CIRCLE('',#798,1.);
#337=CIRCLE('',#800,1.);
#338=CIRCLE('',#801,2.7);
#339=CIRCLE('',#804,1.);
#340=CIRCLE('',#806,0.3);
#341=CIRCLE('',#807,0.5);
#342=CIRCLE('',#808,0.5);
#343=CIRCLE('',#810,0.5);
#344=CIRCLE('',#813,0.3);
#345=CIRCLE('',#814,0.5);
#346=CIRCLE('',#815,0.5);
#347=CIRCLE('',#817,0.5);
#348=CIRCLE('',#840,1.9);
#349=CIRCLE('',#841,1.5);
#350=CIRCLE('',#843,1.3);
#351=CIRCLE('',#844,0.4);
#352=CIRCLE('',#850,1.9);
#353=CIRCLE('',#852,2.7);
#354=CIRCLE('',#855,1.3);
#355=CIRCLE('',#857,1.5);
#356=CIRCLE('',#860,0.4);
#357=VERTEX_POINT('',#1075);
#358=VERTEX_POINT('',#1076);
#359=VERTEX_POINT('',#1078);
#360=VERTEX_POINT('',#1080);
#361=VERTEX_POINT('',#1084);
#362=VERTEX_POINT('',#1086);
#363=VERTEX_POINT('',#1088);
#364=VERTEX_POINT('',#1090);
#365=VERTEX_POINT('',#1093);
#366=VERTEX_POINT('',#1096);
#367=VERTEX_POINT('',#1100);
#368=VERTEX_POINT('',#1104);
#369=VERTEX_POINT('',#1106);
#370=VERTEX_POINT('',#1108);
#371=VERTEX_POINT('',#1112);
#372=VERTEX_POINT('',#1117);
#373=VERTEX_POINT('',#1119);
#374=VERTEX_POINT('',#1121);
#375=VERTEX_POINT('',#1125);
#376=VERTEX_POINT('',#1130);
#377=VERTEX_POINT('',#1131);
#378=VERTEX_POINT('',#1133);
#379=VERTEX_POINT('',#1135);
#380=VERTEX_POINT('',#1139);
#381=VERTEX_POINT('',#1141);
#382=VERTEX_POINT('',#1145);
#383=VERTEX_POINT('',#1147);
#384=VERTEX_POINT('',#1149);
#385=VERTEX_POINT('',#1153);
#386=VERTEX_POINT('',#1157);
#387=VERTEX_POINT('',#1161);
#388=VERTEX_POINT('',#1162);
#389=VERTEX_POINT('',#1164);
#390=VERTEX_POINT('',#1166);
#391=VERTEX_POINT('',#1170);
#392=VERTEX_POINT('',#1172);
#393=VERTEX_POINT('',#1176);
#394=VERTEX_POINT('',#1178);
#395=VERTEX_POINT('',#1180);
#396=VERTEX_POINT('',#1184);
#397=VERTEX_POINT('',#1188);
#398=VERTEX_POINT('',#1190);
#399=VERTEX_POINT('',#1196);
#400=VERTEX_POINT('',#1197);
#401=VERTEX_POINT('',#1199);
#402=VERTEX_POINT('',#1201);
#403=VERTEX_POINT('',#1205);
#404=VERTEX_POINT('',#1207);
#405=VERTEX_POINT('',#1211);
#406=VERTEX_POINT('',#1213);
#407=VERTEX_POINT('',#1215);
#408=VERTEX_POINT('',#1219);
#409=VERTEX_POINT('',#1223);
#410=VERTEX_POINT('',#1225);
#411=VERTEX_POINT('',#1231);
#412=VERTEX_POINT('',#1239);
#413=VERTEX_POINT('',#1241);
#414=VERTEX_POINT('',#1244);
#415=VERTEX_POINT('',#1246);
#416=VERTEX_POINT('',#1249);
#417=VERTEX_POINT('',#1252);
#418=VERTEX_POINT('',#1261);
#419=VERTEX_POINT('',#1265);
#420=VERTEX_POINT('',#1270);
#421=VERTEX_POINT('',#1274);
#422=VERTEX_POINT('',#1279);
#423=EDGE_CURVE('',#357,#358,#335,.T.);
#424=EDGE_CURVE('',#358,#359,#181,.T.);
#425=EDGE_CURVE('',#359,#360,#336,.T.);
#426=EDGE_CURVE('',#360,#357,#182,.T.);
#427=EDGE_CURVE('',#359,#361,#183,.T.);
#428=EDGE_CURVE('',#362,#361,#337,.T.);
#429=EDGE_CURVE('',#362,#363,#184,.T.);
#430=EDGE_CURVE('',#363,#364,#185,.T.);
#431=EDGE_CURVE('',#364,#360,#186,.T.);
#432=EDGE_CURVE('',#365,#365,#338,.T.);
#433=EDGE_CURVE('',#366,#358,#187,.T.);
#434=EDGE_CURVE('',#361,#366,#188,.T.);
#435=EDGE_CURVE('',#366,#367,#339,.T.);
#436=EDGE_CURVE('',#367,#362,#189,.T.);
#437=EDGE_CURVE('',#368,#368,#340,.T.);
#438=EDGE_CURVE('',#368,#369,#190,.T.);
#439=EDGE_CURVE('',#369,#370,#341,.T.);
#440=EDGE_CURVE('',#370,#369,#342,.T.);
#441=EDGE_CURVE('',#370,#371,#191,.T.);
#442=EDGE_CURVE('',#371,#371,#343,.T.);
#443=EDGE_CURVE('',#372,#372,#344,.T.);
#444=EDGE_CURVE('',#372,#373,#192,.T.);
#445=EDGE_CURVE('',#373,#374,#345,.T.);
#446=EDGE_CURVE('',#374,#373,#346,.T.);
#447=EDGE_CURVE('',#374,#375,#193,.T.);
#448=EDGE_CURVE('',#375,#375,#347,.T.);
#449=EDGE_CURVE('',#376,#377,#194,.T.);
#450=EDGE_CURVE('',#377,#378,#195,.T.);
#451=EDGE_CURVE('',#378,#379,#196,.T.);
#452=EDGE_CURVE('',#379,#376,#197,.T.);
#453=EDGE_CURVE('',#377,#380,#198,.T.);
#454=EDGE_CURVE('',#381,#380,#199,.T.);
#455=EDGE_CURVE('',#381,#378,#200,.T.);
#456=EDGE_CURVE('',#382,#376,#201,.T.);
#457=EDGE_CURVE('',#383,#382,#202,.T.);
#458=EDGE_CURVE('',#383,#384,#203,.T.);
#459=EDGE_CURVE('',#380,#384,#204,.T.);
#460=EDGE_CURVE('',#385,#381,#205,.T.);
#461=EDGE_CURVE('',#384,#385,#206,.T.);
#462=EDGE_CURVE('',#386,#383,#207,.T.);
#463=EDGE_CURVE('',#386,#385,#208,.T.);
#464=EDGE_CURVE('',#387,#388,#209,.T.);
#465=EDGE_CURVE('',#388,#389,#210,.T.);
#466=EDGE_CURVE('',#389,#390,#211,.T.);
#467=EDGE_CURVE('',#390,#387,#212,.T.);
#468=EDGE_CURVE('',#388,#391,#213,.T.);
#469=EDGE_CURVE('',#392,#391,#214,.T.);
#470=EDGE_CURVE('',#392,#389,#215,.T.);
#471=EDGE_CURVE('',#393,#387,#216,.T.);
#472=EDGE_CURVE('',#394,#393,#217,.T.);
#473=EDGE_CURVE('',#394,#395,#218,.T.);
#474=EDGE_CURVE('',#391,#395,#219,.T.);
#475=EDGE_CURVE('',#396,#392,#220,.T.);
#476=EDGE_CURVE('',#395,#396,#221,.T.);
#477=EDGE_CURVE('',#397,#396,#222,.T.);
#478=EDGE_CURVE('',#398,#397,#223,.T.);
#479=EDGE_CURVE('',#398,#390,#224,.T.);
#480=EDGE_CURVE('',#397,#394,#225,.T.);
#481=EDGE_CURVE('',#399,#400,#226,.T.);
#482=EDGE_CURVE('',#400,#401,#227,.T.);
#483=EDGE_CURVE('',#401,#402,#228,.T.);
#484=EDGE_CURVE('',#402,#399,#229,.T.);
#485=EDGE_CURVE('',#400,#403,#230,.T.);
#486=EDGE_CURVE('',#404,#403,#231,.T.);
#487=EDGE_CURVE('',#404,#401,#232,.T.);
#488=EDGE_CURVE('',#405,#399,#233,.T.);
#489=EDGE_CURVE('',#406,#405,#234,.T.);
#490=EDGE_CURVE('',#406,#407,#235,.T.);
#491=EDGE_CURVE('',#403,#407,#236,.T.);
#492=EDGE_CURVE('',#408,#404,#237,.T.);
#493=EDGE_CURVE('',#407,#408,#238,.T.);
#494=EDGE_CURVE('',#409,#408,#239,.T.);
#495=EDGE_CURVE('',#410,#409,#240,.T.);
#496=EDGE_CURVE('',#410,#402,#241,.T.);
#497=EDGE_CURVE('',#409,#406,#242,.T.);
#498=EDGE_CURVE('',#411,#379,#243,.T.);
#499=EDGE_CURVE('',#382,#411,#244,.T.);
#500=EDGE_CURVE('',#393,#398,#245,.T.);
#501=EDGE_CURVE('',#405,#410,#246,.T.);
#502=EDGE_CURVE('',#412,#412,#348,.T.);
#503=EDGE_CURVE('',#413,#413,#349,.T.);
#504=EDGE_CURVE('',#414,#414,#350,.T.);
#505=EDGE_CURVE('',#415,#415,#351,.T.);
#506=EDGE_CURVE('',#416,#411,#247,.T.);
#507=EDGE_CURVE('',#364,#416,#248,.T.);
#508=EDGE_CURVE('',#363,#417,#249,.T.);
#509=EDGE_CURVE('',#386,#417,#250,.T.);
#510=EDGE_CURVE('',#357,#416,#251,.T.);
#511=EDGE_CURVE('',#417,#367,#252,.T.);
#512=EDGE_CURVE('',#418,#418,#352,.T.);
#513=EDGE_CURVE('',#418,#412,#253,.T.);
#514=EDGE_CURVE('',#419,#419,#353,.T.);
#515=EDGE_CURVE('',#419,#365,#254,.T.);
#516=EDGE_CURVE('',#420,#420,#354,.T.);
#517=EDGE_CURVE('',#420,#414,#255,.T.);
#518=EDGE_CURVE('',#421,#421,#355,.T.);
#519=EDGE_CURVE('',#421,#413,#256,.T.);
#520=EDGE_CURVE('',#422,#422,#356,.T.);
#521=EDGE_CURVE('',#422,#415,#257,.T.);
#522=ORIENTED_EDGE('',*,*,#423,.T.);
#523=ORIENTED_EDGE('',*,*,#424,.T.);
#524=ORIENTED_EDGE('',*,*,#425,.T.);
#525=ORIENTED_EDGE('',*,*,#426,.T.);
#526=ORIENTED_EDGE('',*,*,#425,.F.);
#527=ORIENTED_EDGE('',*,*,#427,.T.);
#528=ORIENTED_EDGE('',*,*,#428,.F.);
#529=ORIENTED_EDGE('',*,*,#429,.T.);
#530=ORIENTED_EDGE('',*,*,#430,.T.);
#531=ORIENTED_EDGE('',*,*,#431,.T.);
#532=ORIENTED_EDGE('',*,*,#432,.F.);
#533=ORIENTED_EDGE('',*,*,#424,.F.);
#534=ORIENTED_EDGE('',*,*,#433,.F.);
#535=ORIENTED_EDGE('',*,*,#434,.F.);
#536=ORIENTED_EDGE('',*,*,#427,.F.);
#537=ORIENTED_EDGE('',*,*,#435,.T.);
#538=ORIENTED_EDGE('',*,*,#436,.T.);
#539=ORIENTED_EDGE('',*,*,#428,.T.);
#540=ORIENTED_EDGE('',*,*,#434,.T.);
#541=ORIENTED_EDGE('',*,*,#437,.T.);
#542=ORIENTED_EDGE('',*,*,#438,.T.);
#543=ORIENTED_EDGE('',*,*,#439,.T.);
#544=ORIENTED_EDGE('',*,*,#440,.T.);
#545=ORIENTED_EDGE('',*,*,#438,.F.);
#546=ORIENTED_EDGE('',*,*,#439,.F.);
#547=ORIENTED_EDGE('',*,*,#440,.F.);
#548=ORIENTED_EDGE('',*,*,#441,.T.);
#549=ORIENTED_EDGE('',*,*,#442,.F.);
#550=ORIENTED_EDGE('',*,*,#441,.F.);
#551=ORIENTED_EDGE('',*,*,#437,.F.);
#552=ORIENTED_EDGE('',*,*,#443,.T.);
#553=ORIENTED_EDGE('',*,*,#444,.T.);
#554=ORIENTED_EDGE('',*,*,#445,.T.);
#555=ORIENTED_EDGE('',*,*,#446,.T.);
#556=ORIENTED_EDGE('',*,*,#444,.F.);
#557=ORIENTED_EDGE('',*,*,#445,.F.);
#558=ORIENTED_EDGE('',*,*,#446,.F.);
#559=ORIENTED_EDGE('',*,*,#447,.T.);
#560=ORIENTED_EDGE('',*,*,#448,.F.);
#561=ORIENTED_EDGE('',*,*,#447,.F.);
#562=ORIENTED_EDGE('',*,*,#443,.F.);
#563=ORIENTED_EDGE('',*,*,#449,.T.);
#564=ORIENTED_EDGE('',*,*,#450,.T.);
#565=ORIENTED_EDGE('',*,*,#451,.T.);
#566=ORIENTED_EDGE('',*,*,#452,.T.);
#567=ORIENTED_EDGE('',*,*,#450,.F.);
#568=ORIENTED_EDGE('',*,*,#453,.T.);
#569=ORIENTED_EDGE('',*,*,#454,.F.);
#570=ORIENTED_EDGE('',*,*,#455,.T.);
#571=ORIENTED_EDGE('',*,*,#449,.F.);
#572=ORIENTED_EDGE('',*,*,#456,.F.);
#573=ORIENTED_EDGE('',*,*,#457,.F.);
#574=ORIENTED_EDGE('',*,*,#458,.T.);
#575=ORIENTED_EDGE('',*,*,#459,.F.);
#576=ORIENTED_EDGE('',*,*,#453,.F.);
#577=ORIENTED_EDGE('',*,*,#460,.T.);
#578=ORIENTED_EDGE('',*,*,#454,.T.);
#579=ORIENTED_EDGE('',*,*,#459,.T.);
#580=ORIENTED_EDGE('',*,*,#461,.T.);
#581=ORIENTED_EDGE('',*,*,#461,.F.);
#582=ORIENTED_EDGE('',*,*,#458,.F.);
#583=ORIENTED_EDGE('',*,*,#462,.F.);
#584=ORIENTED_EDGE('',*,*,#463,.T.);
#585=ORIENTED_EDGE('',*,*,#464,.T.);
#586=ORIENTED_EDGE('',*,*,#465,.T.);
#587=ORIENTED_EDGE('',*,*,#466,.T.);
#588=ORIENTED_EDGE('',*,*,#467,.T.);
#589=ORIENTED_EDGE('',*,*,#465,.F.);
#590=ORIENTED_EDGE('',*,*,#468,.T.);
#591=ORIENTED_EDGE('',*,*,#469,.F.);
#592=ORIENTED_EDGE('',*,*,#470,.T.);
#593=ORIENTED_EDGE('',*,*,#464,.F.);
#594=ORIENTED_EDGE('',*,*,#471,.F.);
#595=ORIENTED_EDGE('',*,*,#472,.F.);
#596=ORIENTED_EDGE('',*,*,#473,.T.);
#597=ORIENTED_EDGE('',*,*,#474,.F.);
#598=ORIENTED_EDGE('',*,*,#468,.F.);
#599=ORIENTED_EDGE('',*,*,#475,.T.);
#600=ORIENTED_EDGE('',*,*,#469,.T.);
#601=ORIENTED_EDGE('',*,*,#474,.T.);
#602=ORIENTED_EDGE('',*,*,#476,.T.);
#603=ORIENTED_EDGE('',*,*,#466,.F.);
#604=ORIENTED_EDGE('',*,*,#470,.F.);
#605=ORIENTED_EDGE('',*,*,#475,.F.);
#606=ORIENTED_EDGE('',*,*,#477,.F.);
#607=ORIENTED_EDGE('',*,*,#478,.F.);
#608=ORIENTED_EDGE('',*,*,#479,.T.);
#609=ORIENTED_EDGE('',*,*,#476,.F.);
#610=ORIENTED_EDGE('',*,*,#473,.F.);
#611=ORIENTED_EDGE('',*,*,#480,.F.);
#612=ORIENTED_EDGE('',*,*,#477,.T.);
#613=ORIENTED_EDGE('',*,*,#481,.T.);
#614=ORIENTED_EDGE('',*,*,#482,.T.);
#615=ORIENTED_EDGE('',*,*,#483,.T.);
#616=ORIENTED_EDGE('',*,*,#484,.T.);
#617=ORIENTED_EDGE('',*,*,#482,.F.);
#618=ORIENTED_EDGE('',*,*,#485,.T.);
#619=ORIENTED_EDGE('',*,*,#486,.F.);
#620=ORIENTED_EDGE('',*,*,#487,.T.);
#621=ORIENTED_EDGE('',*,*,#481,.F.);
#622=ORIENTED_EDGE('',*,*,#488,.F.);
#623=ORIENTED_EDGE('',*,*,#489,.F.);
#624=ORIENTED_EDGE('',*,*,#490,.T.);
#625=ORIENTED_EDGE('',*,*,#491,.F.);
#626=ORIENTED_EDGE('',*,*,#485,.F.);
#627=ORIENTED_EDGE('',*,*,#492,.T.);
#628=ORIENTED_EDGE('',*,*,#486,.T.);
#629=ORIENTED_EDGE('',*,*,#491,.T.);
#630=ORIENTED_EDGE('',*,*,#493,.T.);
#631=ORIENTED_EDGE('',*,*,#483,.F.);
#632=ORIENTED_EDGE('',*,*,#487,.F.);
#633=ORIENTED_EDGE('',*,*,#492,.F.);
#634=ORIENTED_EDGE('',*,*,#494,.F.);
#635=ORIENTED_EDGE('',*,*,#495,.F.);
#636=ORIENTED_EDGE('',*,*,#496,.T.);
#637=ORIENTED_EDGE('',*,*,#493,.F.);
#638=ORIENTED_EDGE('',*,*,#490,.F.);
#639=ORIENTED_EDGE('',*,*,#497,.F.);
#640=ORIENTED_EDGE('',*,*,#494,.T.);
#641=ORIENTED_EDGE('',*,*,#452,.F.);
#642=ORIENTED_EDGE('',*,*,#498,.F.);
#643=ORIENTED_EDGE('',*,*,#499,.F.);
#644=ORIENTED_EDGE('',*,*,#456,.T.);
#645=ORIENTED_EDGE('',*,*,#467,.F.);
#646=ORIENTED_EDGE('',*,*,#479,.F.);
#647=ORIENTED_EDGE('',*,*,#500,.F.);
#648=ORIENTED_EDGE('',*,*,#471,.T.);
#649=ORIENTED_EDGE('',*,*,#484,.F.);
#650=ORIENTED_EDGE('',*,*,#496,.F.);
#651=ORIENTED_EDGE('',*,*,#501,.F.);
#652=ORIENTED_EDGE('',*,*,#488,.T.);
#653=ORIENTED_EDGE('',*,*,#502,.F.);
#654=ORIENTED_EDGE('',*,*,#503,.T.);
#655=ORIENTED_EDGE('',*,*,#504,.T.);
#656=ORIENTED_EDGE('',*,*,#505,.T.);
#657=ORIENTED_EDGE('',*,*,#499,.T.);
#658=ORIENTED_EDGE('',*,*,#506,.F.);
#659=ORIENTED_EDGE('',*,*,#507,.F.);
#660=ORIENTED_EDGE('',*,*,#430,.F.);
#661=ORIENTED_EDGE('',*,*,#508,.T.);
#662=ORIENTED_EDGE('',*,*,#509,.F.);
#663=ORIENTED_EDGE('',*,*,#462,.T.);
#664=ORIENTED_EDGE('',*,*,#457,.T.);
#665=ORIENTED_EDGE('',*,*,#480,.T.);
#666=ORIENTED_EDGE('',*,*,#472,.T.);
#667=ORIENTED_EDGE('',*,*,#500,.T.);
#668=ORIENTED_EDGE('',*,*,#478,.T.);
#669=ORIENTED_EDGE('',*,*,#497,.T.);
#670=ORIENTED_EDGE('',*,*,#489,.T.);
#671=ORIENTED_EDGE('',*,*,#501,.T.);
#672=ORIENTED_EDGE('',*,*,#495,.T.);
#673=ORIENTED_EDGE('',*,*,#442,.T.);
#674=ORIENTED_EDGE('',*,*,#448,.T.);
#675=ORIENTED_EDGE('',*,*,#426,.F.);
#676=ORIENTED_EDGE('',*,*,#431,.F.);
#677=ORIENTED_EDGE('',*,*,#507,.T.);
#678=ORIENTED_EDGE('',*,*,#510,.F.);
#679=ORIENTED_EDGE('',*,*,#436,.F.);
#680=ORIENTED_EDGE('',*,*,#511,.F.);
#681=ORIENTED_EDGE('',*,*,#508,.F.);
#682=ORIENTED_EDGE('',*,*,#429,.F.);
#683=ORIENTED_EDGE('',*,*,#423,.F.);
#684=ORIENTED_EDGE('',*,*,#510,.T.);
#685=ORIENTED_EDGE('',*,*,#506,.T.);
#686=ORIENTED_EDGE('',*,*,#498,.T.);
#687=ORIENTED_EDGE('',*,*,#451,.F.);
#688=ORIENTED_EDGE('',*,*,#455,.F.);
#689=ORIENTED_EDGE('',*,*,#460,.F.);
#690=ORIENTED_EDGE('',*,*,#463,.F.);
#691=ORIENTED_EDGE('',*,*,#509,.T.);
#692=ORIENTED_EDGE('',*,*,#511,.T.);
#693=ORIENTED_EDGE('',*,*,#435,.F.);
#694=ORIENTED_EDGE('',*,*,#433,.T.);
#695=ORIENTED_EDGE('',*,*,#512,.F.);
#696=ORIENTED_EDGE('',*,*,#513,.T.);
#697=ORIENTED_EDGE('',*,*,#502,.T.);
#698=ORIENTED_EDGE('',*,*,#513,.F.);
#699=ORIENTED_EDGE('',*,*,#514,.F.);
#700=ORIENTED_EDGE('',*,*,#515,.T.);
#701=ORIENTED_EDGE('',*,*,#432,.T.);
#702=ORIENTED_EDGE('',*,*,#515,.F.);
#703=ORIENTED_EDGE('',*,*,#514,.T.);
#704=ORIENTED_EDGE('',*,*,#512,.T.);
#705=ORIENTED_EDGE('',*,*,#516,.F.);
#706=ORIENTED_EDGE('',*,*,#517,.T.);
#707=ORIENTED_EDGE('',*,*,#504,.F.);
#708=ORIENTED_EDGE('',*,*,#517,.F.);
#709=ORIENTED_EDGE('',*,*,#518,.F.);
#710=ORIENTED_EDGE('',*,*,#519,.T.);
#711=ORIENTED_EDGE('',*,*,#503,.F.);
#712=ORIENTED_EDGE('',*,*,#519,.F.);
#713=ORIENTED_EDGE('',*,*,#518,.T.);
#714=ORIENTED_EDGE('',*,*,#516,.T.);
#715=ORIENTED_EDGE('',*,*,#520,.F.);
#716=ORIENTED_EDGE('',*,*,#521,.T.);
#717=ORIENTED_EDGE('',*,*,#505,.F.);
#718=ORIENTED_EDGE('',*,*,#521,.F.);
#719=ORIENTED_EDGE('',*,*,#520,.T.);
#720=CYLINDRICAL_SURFACE('',#796,1.);
#721=CYLINDRICAL_SURFACE('',#803,1.);
#722=CYLINDRICAL_SURFACE('',#809,0.5);
#723=CYLINDRICAL_SURFACE('',#816,0.5);
#724=CYLINDRICAL_SURFACE('',#849,1.9);
#725=CYLINDRICAL_SURFACE('',#851,2.7);
#726=CYLINDRICAL_SURFACE('',#854,1.3);
#727=CYLINDRICAL_SURFACE('',#856,1.5);
#728=CYLINDRICAL_SURFACE('',#859,0.4);
#729=ADVANCED_FACE('',(#84),#720,.T.);
#730=ADVANCED_FACE('',(#85,#42),#51,.T.);
#731=ADVANCED_FACE('',(#86),#52,.T.);
#732=ADVANCED_FACE('',(#87),#721,.T.);
#733=ADVANCED_FACE('',(#88),#40,.T.);
#734=ADVANCED_FACE('',(#89),#722,.T.);
#735=ADVANCED_FACE('',(#90),#53,.T.);
#736=ADVANCED_FACE('',(#91),#41,.T.);
#737=ADVANCED_FACE('',(#92),#723,.T.);
#738=ADVANCED_FACE('',(#93),#54,.T.);
#739=ADVANCED_FACE('',(#94),#55,.T.);
#740=ADVANCED_FACE('',(#95),#56,.T.);
#741=ADVANCED_FACE('',(#96),#57,.T.);
#742=ADVANCED_FACE('',(#97),#58,.T.);
#743=ADVANCED_FACE('',(#98),#59,.T.);
#744=ADVANCED_FACE('',(#99),#60,.T.);
#745=ADVANCED_FACE('',(#100),#61,.T.);
#746=ADVANCED_FACE('',(#101),#62,.T.);
#747=ADVANCED_FACE('',(#102),#63,.T.);
#748=ADVANCED_FACE('',(#103),#64,.T.);
#749=ADVANCED_FACE('',(#104),#65,.T.);
#750=ADVANCED_FACE('',(#105),#66,.T.);
#751=ADVANCED_FACE('',(#106),#67,.T.);
#752=ADVANCED_FACE('',(#107),#68,.T.);
#753=ADVANCED_FACE('',(#108),#69,.T.);
#754=ADVANCED_FACE('',(#109),#70,.T.);
#755=ADVANCED_FACE('',(#110),#71,.T.);
#756=ADVANCED_FACE('',(#111),#72,.T.);
#757=ADVANCED_FACE('',(#112),#73,.T.);
#758=ADVANCED_FACE('',(#113),#74,.T.);
#759=ADVANCED_FACE('',(#114,#43),#75,.T.);
#760=ADVANCED_FACE('',(#115,#44),#76,.T.);
#761=ADVANCED_FACE('',(#116,#45,#46,#47,#48),#77,.T.);
#762=ADVANCED_FACE('',(#117),#78,.T.);
#763=ADVANCED_FACE('',(#118),#79,.T.);
#764=ADVANCED_FACE('',(#119),#80,.F.);
#765=ADVANCED_FACE('',(#120),#724,.F.);
#766=ADVANCED_FACE('',(#121),#725,.T.);
#767=ADVANCED_FACE('',(#122,#49),#81,.T.);
#768=ADVANCED_FACE('',(#123),#726,.F.);
#769=ADVANCED_FACE('',(#124),#727,.T.);
#770=ADVANCED_FACE('',(#125,#50),#82,.T.);
#771=ADVANCED_FACE('',(#126),#728,.T.);
#772=ADVANCED_FACE('',(#127),#83,.T.);
#773=CLOSED_SHELL('',(#729,#730,#731,#732,#733,#734,#735,#736,#737,#738,
#739,#740,#741,#742,#743,#744,#745,#746,#747,#748,#749,#750,#751,#752,#753,
#754,#755,#756,#757,#758,#759,#760,#761,#762,#763,#764,#765,#766,#767,#768,
#769,#770,#771,#772));
#774=DERIVED_UNIT_ELEMENT(#777,1.);
#775=DERIVED_UNIT_ELEMENT(#1288,-3.);
#776=DIMENSIONAL_EXPONENTS(0.,1.,0.,0.,0.,0.,0.);
#777=(
CONVERSION_BASED_UNIT('gram',#779)
MASS_UNIT()
NAMED_UNIT(#776)
);
#778=(
MASS_UNIT()
NAMED_UNIT(*)
SI_UNIT(.KILO.,.GRAM.)
);
#779=MASS_MEASURE_WITH_UNIT(MASS_MEASURE(0.001),#778);
#780=DERIVED_UNIT((#774,#775));
#781=MEASURE_REPRESENTATION_ITEM('density measure',
POSITIVE_RATIO_MEASURE(1.),#780);
#782=PROPERTY_DEFINITION_REPRESENTATION(#787,#784);
#783=PROPERTY_DEFINITION_REPRESENTATION(#788,#785);
#784=REPRESENTATION('material name',(#786),#1285);
#785=REPRESENTATION('density',(#781),#1285);
#786=DESCRIPTIVE_REPRESENTATION_ITEM('Generic','Generic');
#787=PROPERTY_DEFINITION('material property','material name',#1295);
#788=PROPERTY_DEFINITION('material property','density of part',#1295);
#789=DATE_TIME_ROLE('creation_date');
#790=APPLIED_DATE_AND_TIME_ASSIGNMENT(#791,#789,(#1295));
#791=DATE_AND_TIME(#792,#793);
#792=CALENDAR_DATE(2025,2,10);
#793=LOCAL_TIME(0,0,0.,#794);
#794=COORDINATED_UNIVERSAL_TIME_OFFSET(0,0,.BEHIND.);
#795=AXIS2_PLACEMENT_3D('',#1073,#862,#863);
#796=AXIS2_PLACEMENT_3D('',#1074,#864,#865);
#797=AXIS2_PLACEMENT_3D('',#1077,#866,#867);
#798=AXIS2_PLACEMENT_3D('',#1081,#869,#870);
#799=AXIS2_PLACEMENT_3D('',#1083,#872,#873);
#800=AXIS2_PLACEMENT_3D('',#1087,#875,#876);
#801=AXIS2_PLACEMENT_3D('',#1094,#880,#881);
#802=AXIS2_PLACEMENT_3D('',#1095,#882,#883);
#803=AXIS2_PLACEMENT_3D('',#1099,#886,#887);
#804=AXIS2_PLACEMENT_3D('',#1101,#888,#889);
#805=AXIS2_PLACEMENT_3D('',#1103,#891,#892);
#806=AXIS2_PLACEMENT_3D('',#1105,#893,#894);
#807=AXIS2_PLACEMENT_3D('',#1109,#896,#897);
#808=AXIS2_PLACEMENT_3D('',#1110,#898,#899);
#809=AXIS2_PLACEMENT_3D('',#1111,#900,#901);
#810=AXIS2_PLACEMENT_3D('',#1114,#903,#904);
#811=AXIS2_PLACEMENT_3D('',#1115,#905,#906);
#812=AXIS2_PLACEMENT_3D('',#1116,#907,#908);
#813=AXIS2_PLACEMENT_3D('',#1118,#909,#910);
#814=AXIS2_PLACEMENT_3D('',#1122,#912,#913);
#815=AXIS2_PLACEMENT_3D('',#1123,#914,#915);
#816=AXIS2_PLACEMENT_3D('',#1124,#916,#917);
#817=AXIS2_PLACEMENT_3D('',#1127,#919,#920);
#818=AXIS2_PLACEMENT_3D('',#1128,#921,#922);
#819=AXIS2_PLACEMENT_3D('',#1129,#923,#924);
#820=AXIS2_PLACEMENT_3D('',#1138,#929,#930);
#821=AXIS2_PLACEMENT_3D('',#1144,#934,#935);
#822=AXIS2_PLACEMENT_3D('',#1152,#940,#941);
#823=AXIS2_PLACEMENT_3D('',#1156,#944,#945);
#824=AXIS2_PLACEMENT_3D('',#1160,#948,#949);
#825=AXIS2_PLACEMENT_3D('',#1169,#954,#955);
#826=AXIS2_PLACEMENT_3D('',#1175,#959,#960);
#827=AXIS2_PLACEMENT_3D('',#1183,#965,#966);
#828=AXIS2_PLACEMENT_3D('',#1187,#969,#970);
#829=AXIS2_PLACEMENT_3D('',#1193,#974,#975);
#830=AXIS2_PLACEMENT_3D('',#1195,#977,#978);
#831=AXIS2_PLACEMENT_3D('',#1204,#983,#984);
#832=AXIS2_PLACEMENT_3D('',#1210,#988,#989);
#833=AXIS2_PLACEMENT_3D('',#1218,#994,#995);
#834=AXIS2_PLACEMENT_3D('',#1222,#998,#999);
#835=AXIS2_PLACEMENT_3D('',#1228,#1003,#1004);
#836=AXIS2_PLACEMENT_3D('',#1230,#1006,#1007);
#837=AXIS2_PLACEMENT_3D('',#1234,#1010,#1011);
#838=AXIS2_PLACEMENT_3D('',#1236,#1013,#1014);
#839=AXIS2_PLACEMENT_3D('',#1238,#1016,#1017);
#840=AXIS2_PLACEMENT_3D('',#1240,#1018,#1019);
#841=AXIS2_PLACEMENT_3D('',#1242,#1020,#1021);
#842=AXIS2_PLACEMENT_3D('',#1243,#1022,#1023);
#843=AXIS2_PLACEMENT_3D('',#1245,#1024,#1025);
#844=AXIS2_PLACEMENT_3D('',#1247,#1026,#1027);
#845=AXIS2_PLACEMENT_3D('',#1248,#1028,#1029);
#846=AXIS2_PLACEMENT_3D('',#1255,#1034,#1035);
#847=AXIS2_PLACEMENT_3D('',#1257,#1037,#1038);
#848=AXIS2_PLACEMENT_3D('',#1259,#1040,#1041);
#849=AXIS2_PLACEMENT_3D('',#1260,#1042,#1043);
#850=AXIS2_PLACEMENT_3D('',#1262,#1044,#1045);
#851=AXIS2_PLACEMENT_3D('',#1264,#1047,#1048);
#852=AXIS2_PLACEMENT_3D('',#1266,#1049,#1050);
#853=AXIS2_PLACEMENT_3D('',#1268,#1052,#1053);
#854=AXIS2_PLACEMENT_3D('',#1269,#1054,#1055);
#855=AXIS2_PLACEMENT_3D('',#1271,#1056,#1057);
#856=AXIS2_PLACEMENT_3D('',#1273,#1059,#1060);
#857=AXIS2_PLACEMENT_3D('',#1275,#1061,#1062);
#858=AXIS2_PLACEMENT_3D('',#1277,#1064,#1065);
#859=AXIS2_PLACEMENT_3D('',#1278,#1066,#1067);
#860=AXIS2_PLACEMENT_3D('',#1280,#1068,#1069);
#861=AXIS2_PLACEMENT_3D('',#1282,#1071,#1072);
#862=DIRECTION('axis',(0.,0.,1.));
#863=DIRECTION('refdir',(1.,0.,0.));
#864=DIRECTION('center_axis',(0.,0.,-1.));
#865=DIRECTION('ref_axis',(0.707106781186548,0.707106781186548,0.));
#866=DIRECTION('center_axis',(0.,0.,1.));
#867=DIRECTION('ref_axis',(0.707106781186548,0.707106781186548,0.));
#868=DIRECTION('',(0.,0.,1.));
#869=DIRECTION('center_axis',(0.,0.,-1.));
#870=DIRECTION('ref_axis',(0.707106781186548,0.707106781186548,0.));
#871=DIRECTION('',(0.,0.,-1.));
#872=DIRECTION('center_axis',(0.,0.,1.));
#873=DIRECTION('ref_axis',(1.,0.,0.));
#874=DIRECTION('',(-1.,0.,0.));
#875=DIRECTION('center_axis',(0.,0.,-1.));
#876=DIRECTION('ref_axis',(-0.707106781186547,0.707106781186548,0.));
#877=DIRECTION('',(0.,-1.,0.));
#878=DIRECTION('',(1.,3.06161699786838E-16,0.));
#879=DIRECTION('',(0.,1.,0.));
#880=DIRECTION('center_axis',(0.,0.,1.));
#881=DIRECTION('ref_axis',(1.,0.,0.));
#882=DIRECTION('center_axis',(0.,1.,0.));
#883=DIRECTION('ref_axis',(1.,0.,0.));
#884=DIRECTION('',(1.,0.,0.));
#885=DIRECTION('',(0.,0.,-1.));
#886=DIRECTION('center_axis',(0.,0.,-1.));
#887=DIRECTION('ref_axis',(-0.707106781186547,0.707106781186548,0.));
#888=DIRECTION('center_axis',(0.,0.,1.));
#889=DIRECTION('ref_axis',(-0.707106781186547,0.707106781186548,0.));
#890=DIRECTION('',(0.,0.,1.));
#891=DIRECTION('center_axis',(0.,1.,0.));
#892=DIRECTION('ref_axis',(-1.,-2.88282985017745E-16,0.));
#893=DIRECTION('center_axis',(-3.06161699786838E-16,1.,0.));
#894=DIRECTION('ref_axis',(-1.,-3.06161699786838E-16,0.));
#895=DIRECTION('',(0.707106781186548,0.707106781186547,8.65956056235494E-17));
#896=DIRECTION('center_axis',(3.06161699786838E-16,-1.,0.));
#897=DIRECTION('ref_axis',(-1.,-2.77555756156289E-16,0.));
#898=DIRECTION('center_axis',(3.06161699786838E-16,-1.,0.));
#899=DIRECTION('ref_axis',(-1.,-2.77555756156289E-16,0.));
#900=DIRECTION('center_axis',(2.77555756156289E-16,-1.,0.));
#901=DIRECTION('ref_axis',(1.,2.77555756156289E-16,0.));
#902=DIRECTION('',(-2.77555756156289E-16,1.,0.));
#903=DIRECTION('center_axis',(-3.06161699786838E-16,1.,0.));
#904=DIRECTION('ref_axis',(1.,2.77555756156289E-16,0.));
#905=DIRECTION('center_axis',(3.06161699786838E-16,-1.,0.));
#906=DIRECTION('ref_axis',(0.,0.,-1.));
#907=DIRECTION('center_axis',(0.,1.,0.));
#908=DIRECTION('ref_axis',(-1.,-2.88282985017745E-16,0.));
#909=DIRECTION('center_axis',(-3.06161699786838E-16,1.,0.));
#910=DIRECTION('ref_axis',(-1.,-3.06161699786838E-16,0.));
#911=DIRECTION('',(0.707106781186548,0.707106781186547,8.65956056235494E-17));
#912=DIRECTION('center_axis',(3.06161699786838E-16,-1.,0.));
#913=DIRECTION('ref_axis',(-1.,-2.77555756156289E-16,0.));
#914=DIRECTION('center_axis',(3.06161699786838E-16,-1.,0.));
#915=DIRECTION('ref_axis',(-1.,-2.77555756156289E-16,0.));
#916=DIRECTION('center_axis',(2.77555756156289E-16,-1.,0.));
#917=DIRECTION('ref_axis',(1.,2.77555756156289E-16,0.));
#918=DIRECTION('',(-2.77555756156289E-16,1.,0.));
#919=DIRECTION('center_axis',(-3.06161699786838E-16,1.,0.));
#920=DIRECTION('ref_axis',(1.,2.77555756156289E-16,0.));
#921=DIRECTION('center_axis',(3.06161699786838E-16,-1.,0.));
#922=DIRECTION('ref_axis',(0.,0.,-1.));
#923=DIRECTION('center_axis',(0.707106781186548,-0.707106781186547,0.));
#924=DIRECTION('ref_axis',(0.,0.,-1.));
#925=DIRECTION('',(-0.707106781186547,-0.707106781186548,0.));
#926=DIRECTION('',(0.,0.,-1.));
#927=DIRECTION('',(0.707106781186547,0.707106781186548,0.));
#928=DIRECTION('',(0.,0.,1.));
#929=DIRECTION('center_axis',(3.26536183713281E-16,-1.,0.));
#930=DIRECTION('ref_axis',(0.,0.,-1.));
#931=DIRECTION('',(-1.,-3.06161699786838E-16,0.));
#932=DIRECTION('',(-1.11022302462516E-15,-3.62527989531715E-31,1.));
#933=DIRECTION('',(1.,3.06161699786838E-16,0.));
#934=DIRECTION('center_axis',(0.,0.,1.));
#935=DIRECTION('ref_axis',(-1.,-3.06161699786838E-16,0.));
#936=DIRECTION('',(3.26536183713281E-16,-1.,0.));
#937=DIRECTION('',(1.,3.06161699786838E-16,0.));
#938=DIRECTION('',(3.26536183713281E-16,-1.,0.));
#939=DIRECTION('',(-0.707106781186548,0.707106781186547,0.));
#940=DIRECTION('center_axis',(-0.707106781186547,-0.707106781186548,-7.85046229341887E-16));
#941=DIRECTION('ref_axis',(-1.11022302462516E-15,0.,1.));
#942=DIRECTION('',(0.707106781186548,-0.707106781186547,0.));
#943=DIRECTION('',(1.11022302462516E-15,3.62527989531715E-31,-1.));
#944=DIRECTION('center_axis',(-1.,-3.26536183713281E-16,-1.11022302462516E-15));
#945=DIRECTION('ref_axis',(1.11022302462516E-15,3.39907768361722E-31,-1.));
#946=DIRECTION('',(-1.11022302462516E-15,-3.39907768361722E-31,1.));
#947=DIRECTION('',(3.26536183713281E-16,-1.,0.));
#948=DIRECTION('center_axis',(0.707106781186548,-0.707106781186547,0.));
#949=DIRECTION('ref_axis',(0.,0.,-1.));
#950=DIRECTION('',(-0.707106781186547,-0.707106781186548,0.));
#951=DIRECTION('',(0.,0.,-1.));
#952=DIRECTION('',(0.707106781186547,0.707106781186548,0.));
#953=DIRECTION('',(0.,0.,1.));
#954=DIRECTION('center_axis',(3.26536183713281E-16,-1.,0.));
#955=DIRECTION('ref_axis',(0.,0.,-1.));
#956=DIRECTION('',(-1.,-3.06161699786838E-16,0.));
#957=DIRECTION('',(1.11022302462516E-15,3.62527989531715E-31,1.));
#958=DIRECTION('',(1.,3.06161699786838E-16,0.));
#959=DIRECTION('center_axis',(0.,0.,1.));
#960=DIRECTION('ref_axis',(-1.,-3.06161699786838E-16,0.));
#961=DIRECTION('',(3.26536183713281E-16,-1.,0.));
#962=DIRECTION('',(1.,3.06161699786838E-16,0.));
#963=DIRECTION('',(3.26536183713281E-16,-1.,0.));
#964=DIRECTION('',(-0.707106781186548,0.707106781186547,0.));
#965=DIRECTION('center_axis',(-0.707106781186547,-0.707106781186548,7.85046229341887E-16));
#966=DIRECTION('ref_axis',(1.11022302462516E-15,0.,1.));
#967=DIRECTION('',(0.707106781186548,-0.707106781186547,0.));
#968=DIRECTION('',(-1.11022302462516E-15,-3.62527989531715E-31,-1.));
#969=DIRECTION('center_axis',(0.,0.,-1.));
#970=DIRECTION('ref_axis',(1.,3.06161699786838E-16,0.));
#971=DIRECTION('',(3.26536183713281E-16,-1.,0.));
#972=DIRECTION('',(-1.,-3.06161699786838E-16,0.));
#973=DIRECTION('',(3.26536183713281E-16,-1.,0.));
#974=DIRECTION('center_axis',(-1.,-3.26536183713281E-16,1.11022302462516E-15));
#975=DIRECTION('ref_axis',(-1.11022302462516E-15,-3.39907768361722E-31,
-1.));
#976=DIRECTION('',(1.11022302462516E-15,3.39907768361722E-31,1.));
#977=DIRECTION('center_axis',(0.707106781186548,-0.707106781186547,0.));
#978=DIRECTION('ref_axis',(0.,0.,-1.));
#979=DIRECTION('',(-0.707106781186547,-0.707106781186548,0.));
#980=DIRECTION('',(0.,0.,-1.));
#981=DIRECTION('',(0.707106781186547,0.707106781186548,0.));
#982=DIRECTION('',(0.,0.,1.));
#983=DIRECTION('center_axis',(3.26536183713281E-16,-1.,0.));
#984=DIRECTION('ref_axis',(0.,0.,-1.));
#985=DIRECTION('',(-1.,-3.06161699786838E-16,0.));
#986=DIRECTION('',(-1.38777878078144E-16,-4.53159986914642E-32,1.));
#987=DIRECTION('',(1.,3.06161699786838E-16,0.));
#988=DIRECTION('center_axis',(0.,0.,1.));
#989=DIRECTION('ref_axis',(-1.,-3.06161699786838E-16,0.));
#990=DIRECTION('',(3.26536183713281E-16,-1.,0.));
#991=DIRECTION('',(1.,3.06161699786838E-16,0.));
#992=DIRECTION('',(3.26536183713281E-16,-1.,0.));
#993=DIRECTION('',(-0.707106781186548,0.707106781186547,0.));
#994=DIRECTION('center_axis',(-0.707106781186547,-0.707106781186548,-9.81307786677356E-17));
#995=DIRECTION('ref_axis',(-1.38777878078144E-16,0.,1.));
#996=DIRECTION('',(0.707106781186548,-0.707106781186547,0.));
#997=DIRECTION('',(1.38777878078144E-16,4.53159986914642E-32,-1.));
#998=DIRECTION('center_axis',(0.,0.,-1.));
#999=DIRECTION('ref_axis',(1.,3.06161699786838E-16,0.));
#1000=DIRECTION('',(3.26536183713281E-16,-1.,0.));
#1001=DIRECTION('',(-1.,-3.06161699786838E-16,0.));
#1002=DIRECTION('',(3.26536183713281E-16,-1.,0.));
#1003=DIRECTION('center_axis',(-1.,-3.26536183713281E-16,-1.38777878078144E-16));
#1004=DIRECTION('ref_axis',(1.38777878078144E-16,4.24884710452152E-32,-1.));
#1005=DIRECTION('',(-1.38777878078144E-16,-4.24884710452152E-32,1.));
#1006=DIRECTION('center_axis',(1.,3.26536183713281E-16,0.));
#1007=DIRECTION('ref_axis',(0.,0.,1.));
#1008=DIRECTION('',(3.26536183713281E-16,-1.,0.));
#1009=DIRECTION('',(0.,0.,-1.));
#1010=DIRECTION('center_axis',(1.,3.26536183713281E-16,0.));
#1011=DIRECTION('ref_axis',(0.,0.,1.));
#1012=DIRECTION('',(0.,0.,-1.));
#1013=DIRECTION('center_axis',(1.,3.26536183713281E-16,0.));
#1014=DIRECTION('ref_axis',(0.,0.,1.));
#1015=DIRECTION('',(0.,0.,-1.));
#1016=DIRECTION('center_axis',(0.,0.,1.));
#1017=DIRECTION('ref_axis',(1.,0.,0.));
#1018=DIRECTION('center_axis',(0.,0.,-1.));
#1019=DIRECTION('ref_axis',(-1.,0.,0.));
#1020=DIRECTION('center_axis',(0.,0.,-1.));
#1021=DIRECTION('ref_axis',(1.,0.,0.));
#1022=DIRECTION('center_axis',(0.,0.,1.));
#1023=DIRECTION('ref_axis',(1.,0.,0.));
#1024=DIRECTION('center_axis',(0.,0.,1.));
#1025=DIRECTION('ref_axis',(-1.,0.,0.));
#1026=DIRECTION('center_axis',(0.,0.,-1.));
#1027=DIRECTION('ref_axis',(1.,0.,0.));
#1028=DIRECTION('center_axis',(3.06161699786838E-16,-1.,0.));
#1029=DIRECTION('ref_axis',(-1.,-3.06161699786838E-16,0.));
#1030=DIRECTION('',(-1.,-3.06161699786838E-16,0.));
#1031=DIRECTION('',(0.,0.,-1.));
#1032=DIRECTION('',(0.,0.,-1.));
#1033=DIRECTION('',(-1.,-3.06161699786838E-16,0.));
#1034=DIRECTION('center_axis',(1.,0.,0.));
#1035=DIRECTION('ref_axis',(0.,-1.,0.));
#1036=DIRECTION('',(0.,-1.,0.));
#1037=DIRECTION('center_axis',(-1.,0.,0.));
#1038=DIRECTION('ref_axis',(0.,1.,0.));
#1039=DIRECTION('',(0.,1.,0.));
#1040=DIRECTION('center_axis',(0.,0.,1.));
#1041=DIRECTION('ref_axis',(1.,0.,0.));
#1042=DIRECTION('center_axis',(0.,0.,1.));
#1043=DIRECTION('ref_axis',(-1.,0.,0.));
#1044=DIRECTION('center_axis',(0.,0.,-1.));
#1045=DIRECTION('ref_axis',(-1.,0.,0.));
#1046=DIRECTION('',(0.,0.,-1.));
#1047=DIRECTION('center_axis',(0.,0.,1.));
#1048=DIRECTION('ref_axis',(1.,0.,0.));
#1049=DIRECTION('center_axis',(0.,0.,1.));
#1050=DIRECTION('ref_axis',(1.,0.,0.));
#1051=DIRECTION('',(0.,0.,-1.));
#1052=DIRECTION('center_axis',(0.,0.,1.));
#1053=DIRECTION('ref_axis',(1.,0.,0.));
#1054=DIRECTION('center_axis',(0.,0.,1.));
#1055=DIRECTION('ref_axis',(-1.,0.,0.));
#1056=DIRECTION('center_axis',(0.,0.,-1.));
#1057=DIRECTION('ref_axis',(-1.,0.,0.));
#1058=DIRECTION('',(0.,0.,-1.));
#1059=DIRECTION('center_axis',(0.,0.,1.));
#1060=DIRECTION('ref_axis',(1.,0.,0.));
#1061=DIRECTION('center_axis',(0.,0.,1.));
#1062=DIRECTION('ref_axis',(1.,0.,0.));
#1063=DIRECTION('',(0.,0.,-1.));
#1064=DIRECTION('center_axis',(0.,0.,1.));
#1065=DIRECTION('ref_axis',(1.,0.,0.));
#1066=DIRECTION('center_axis',(0.,0.,1.));
#1067=DIRECTION('ref_axis',(1.,0.,0.));
#1068=DIRECTION('center_axis',(0.,0.,1.));
#1069=DIRECTION('ref_axis',(1.,0.,0.));
#1070=DIRECTION('',(0.,0.,-1.));
#1071=DIRECTION('center_axis',(0.,0.,1.));
#1072=DIRECTION('ref_axis',(1.,0.,0.));
#1073=CARTESIAN_POINT('',(0.,0.,0.));
#1074=CARTESIAN_POINT('Origin',(1.75,4.7,0.));
#1075=CARTESIAN_POINT('',(2.75,4.7,-9.3));
#1076=CARTESIAN_POINT('',(1.75,5.7,-9.3));
#1077=CARTESIAN_POINT('Origin',(1.75,4.7,-9.3));
#1078=CARTESIAN_POINT('',(1.75,5.7,0.));
#1079=CARTESIAN_POINT('',(1.75,5.7,0.));
#1080=CARTESIAN_POINT('',(2.75,4.7,0.));
#1081=CARTESIAN_POINT('Origin',(1.75,4.7,0.));
#1082=CARTESIAN_POINT('',(2.75,4.7,0.));
#1083=CARTESIAN_POINT('Origin',(0.,2.85,0.));
#1084=CARTESIAN_POINT('',(-1.75,5.7,0.));
#1085=CARTESIAN_POINT('',(2.75,5.7,0.));
#1086=CARTESIAN_POINT('',(-2.75,4.7,0.));
#1087=CARTESIAN_POINT('Origin',(-1.75,4.7,0.));
#1088=CARTESIAN_POINT('',(-2.75,-3.36777869765522E-16,0.));
#1089=CARTESIAN_POINT('',(-2.75,5.7,0.));
#1090=CARTESIAN_POINT('',(2.75,1.34711147906209E-15,0.));
#1091=CARTESIAN_POINT('',(-2.75,-3.36777869765522E-16,0.));
#1092=CARTESIAN_POINT('',(2.75,1.11022302462516E-15,0.));
#1093=CARTESIAN_POINT('',(-2.7,2.85,0.));
#1094=CARTESIAN_POINT('Origin',(0.,2.85,0.));
#1095=CARTESIAN_POINT('Origin',(-2.75,5.7,0.));
#1096=CARTESIAN_POINT('',(-1.75,5.7,-9.3));
#1097=CARTESIAN_POINT('',(2.75,5.7,-9.3));
#1098=CARTESIAN_POINT('',(-1.75,5.7,0.));
#1099=CARTESIAN_POINT('Origin',(-1.75,4.7,0.));
#1100=CARTESIAN_POINT('',(-2.75,4.7,-9.3));
#1101=CARTESIAN_POINT('Origin',(-1.75,4.7,-9.3));
#1102=CARTESIAN_POINT('',(-2.75,4.7,0.));
#1103=CARTESIAN_POINT('Origin',(1.65,-1.9,-2.05));
#1104=CARTESIAN_POINT('',(1.95,-2.,-2.05));
#1105=CARTESIAN_POINT('Origin',(1.65,-2.,-2.05));
#1106=CARTESIAN_POINT('',(2.15,-1.8,-2.05));
#1107=CARTESIAN_POINT('',(2.05,-1.9,-2.05));
#1108=CARTESIAN_POINT('',(1.15,-1.8,-2.05));
#1109=CARTESIAN_POINT('Origin',(1.65,-1.8,-2.05));
#1110=CARTESIAN_POINT('Origin',(1.65,-1.8,-2.05));
#1111=CARTESIAN_POINT('Origin',(1.65,1.01033360929657E-15,-2.05));
#1112=CARTESIAN_POINT('',(1.15,9.03022269212026E-16,-2.05));
#1113=CARTESIAN_POINT('',(1.15,8.71555731218422E-16,-2.05));
#1114=CARTESIAN_POINT('Origin',(1.65,1.04180014729017E-15,-2.05));
#1115=CARTESIAN_POINT('Origin',(1.65,-2.,-2.05));
#1116=CARTESIAN_POINT('Origin',(-1.65,-1.9,-2.05));
#1117=CARTESIAN_POINT('',(-1.35,-2.,-2.05));
#1118=CARTESIAN_POINT('Origin',(-1.65,-2.,-2.05));
#1119=CARTESIAN_POINT('',(-1.15,-1.8,-2.05));
#1120=CARTESIAN_POINT('',(-1.25,-1.9,-2.05));
#1121=CARTESIAN_POINT('',(-2.15,-1.8,-2.05));
#1122=CARTESIAN_POINT('Origin',(-1.65,-1.8,-2.05));
#1123=CARTESIAN_POINT('Origin',(-1.65,-1.8,-2.05));
#1124=CARTESIAN_POINT('Origin',(-1.65,-1.23259516440783E-31,-2.05));
#1125=CARTESIAN_POINT('',(-2.15,-1.29117261037284E-17,-2.05));
#1126=CARTESIAN_POINT('',(-2.15,-1.38777878078145E-16,-2.05));
#1127=CARTESIAN_POINT('Origin',(-1.65,1.25866151974416E-16,-2.05));
#1128=CARTESIAN_POINT('Origin',(-1.65,-2.,-2.05));
#1129=CARTESIAN_POINT('Origin',(0.500000000000001,-3.15,-9.175));
#1130=CARTESIAN_POINT('',(0.750000000000001,-2.9,-8.8));
#1131=CARTESIAN_POINT('',(0.250000000000001,-3.4,-8.8));
#1132=CARTESIAN_POINT('',(1.35,-2.3,-8.8));
#1133=CARTESIAN_POINT('',(0.250000000000001,-3.4,-9.3));
#1134=CARTESIAN_POINT('',(0.250000000000001,-3.4,-9.175));
#1135=CARTESIAN_POINT('',(0.750000000000001,-2.9,-9.3));
#1136=CARTESIAN_POINT('',(1.875,-1.775,-9.3));
#1137=CARTESIAN_POINT('',(0.750000000000001,-2.9,-9.175));
#1138=CARTESIAN_POINT('Origin',(8.32667268468868E-16,-3.4,-9.05));
#1139=CARTESIAN_POINT('',(-0.249999999999999,-3.4,-8.8));
#1140=CARTESIAN_POINT('',(0.750000000000001,-3.4,-8.8));
#1141=CARTESIAN_POINT('',(-0.249999999999998,-3.4,-9.3));
#1142=CARTESIAN_POINT('',(-0.249999999999999,-3.4,-8.925));
#1143=CARTESIAN_POINT('',(-0.749999999999998,-3.4,-9.3));
#1144=CARTESIAN_POINT('Origin',(0.75,7.34788079488412E-16,-8.8));
#1145=CARTESIAN_POINT('',(0.75,7.34788079488412E-16,-8.8));
#1146=CARTESIAN_POINT('',(0.75,7.34788079488412E-16,-8.8));
#1147=CARTESIAN_POINT('',(-0.75,2.75545529808154E-16,-8.8));
#1148=CARTESIAN_POINT('',(1.75,1.04094977927525E-15,-8.8));
#1149=CARTESIAN_POINT('',(-0.749999999999999,-2.9,-8.8));
#1150=CARTESIAN_POINT('',(-0.75,2.75545529808154E-16,-8.8));
#1151=CARTESIAN_POINT('',(-0.974999999999999,-2.675,-8.8));
#1152=CARTESIAN_POINT('Origin',(-0.499999999999999,-3.15,-8.925));
#1153=CARTESIAN_POINT('',(-0.749999999999999,-2.9,-9.3));
#1154=CARTESIAN_POINT('',(-1.875,-1.775,-9.3));
#1155=CARTESIAN_POINT('',(-0.749999999999999,-2.9,-8.925));
#1156=CARTESIAN_POINT('Origin',(-0.75,2.75545529808154E-16,-8.8));
#1157=CARTESIAN_POINT('',(-0.75,2.75545529808154E-16,-9.3));
#1158=CARTESIAN_POINT('',(-0.750000000000005,2.75545529808153E-16,-4.4));
#1159=CARTESIAN_POINT('',(-0.75,2.75545529808154E-16,-9.3));
#1160=CARTESIAN_POINT('Origin',(2.2,-3.15,-6.175));
#1161=CARTESIAN_POINT('',(2.45,-2.9,-5.8));
#1162=CARTESIAN_POINT('',(1.95,-3.4,-5.8));
#1163=CARTESIAN_POINT('',(3.05,-2.3,-5.8));
#1164=CARTESIAN_POINT('',(1.95,-3.4,-6.3));
#1165=CARTESIAN_POINT('',(1.95,-3.4,-6.175));
#1166=CARTESIAN_POINT('',(2.45,-2.9,-6.3));
#1167=CARTESIAN_POINT('',(2.675,-2.675,-6.3));
#1168=CARTESIAN_POINT('',(2.45,-2.9,-6.175));
#1169=CARTESIAN_POINT('Origin',(1.7,-3.4,-6.05));
#1170=CARTESIAN_POINT('',(1.45,-3.4,-5.8));
#1171=CARTESIAN_POINT('',(2.45,-3.4,-5.8));
#1172=CARTESIAN_POINT('',(1.45,-3.4,-6.3));
#1173=CARTESIAN_POINT('',(1.45,-3.4,-5.925));
#1174=CARTESIAN_POINT('',(0.950000000000001,-3.4,-6.3));
#1175=CARTESIAN_POINT('Origin',(2.45,1.25526296912604E-15,-5.8));
#1176=CARTESIAN_POINT('',(2.45,1.25526296912604E-15,-5.8));
#1177=CARTESIAN_POINT('',(2.45,1.25526296912604E-15,-5.8));
#1178=CARTESIAN_POINT('',(0.950000000000001,7.9602041944578E-16,-5.8));
#1179=CARTESIAN_POINT('',(2.6,1.30118722409406E-15,-5.8));
#1180=CARTESIAN_POINT('',(0.950000000000002,-2.9,-5.8));
#1181=CARTESIAN_POINT('',(0.950000000000001,7.9602041944578E-16,-5.8));
#1182=CARTESIAN_POINT('',(0.725000000000001,-2.675,-5.8));
#1183=CARTESIAN_POINT('Origin',(1.2,-3.15,-5.925));
#1184=CARTESIAN_POINT('',(0.950000000000001,-2.9,-6.3));
#1185=CARTESIAN_POINT('',(0.350000000000001,-2.3,-6.3));
#1186=CARTESIAN_POINT('',(0.950000000000002,-2.9,-5.925));
#1187=CARTESIAN_POINT('Origin',(0.95,7.9602041944578E-16,-6.3));
#1188=CARTESIAN_POINT('',(0.95,7.9602041944578E-16,-6.3));
#1189=CARTESIAN_POINT('',(0.95,7.9602041944578E-16,-6.3));
#1190=CARTESIAN_POINT('',(2.45,1.25526296912604E-15,-6.3));
#1191=CARTESIAN_POINT('',(1.85,1.07156594925393E-15,-6.3));
#1192=CARTESIAN_POINT('',(2.45,1.25526296912604E-15,-6.3));
#1193=CARTESIAN_POINT('Origin',(0.950000000000001,7.9602041944578E-16,-5.8));
#1194=CARTESIAN_POINT('',(0.950000000000004,7.96020419445781E-16,-2.9));
#1195=CARTESIAN_POINT('Origin',(-1.2,-3.15,-6.175));
#1196=CARTESIAN_POINT('',(-0.949999999999999,-2.9,-5.8));
#1197=CARTESIAN_POINT('',(-1.45,-3.4,-5.8));
#1198=CARTESIAN_POINT('',(-0.349999999999999,-2.3,-5.8));
#1199=CARTESIAN_POINT('',(-1.45,-3.4,-6.3));
#1200=CARTESIAN_POINT('',(-1.45,-3.4,-6.175));
#1201=CARTESIAN_POINT('',(-0.949999999999999,-2.9,-6.3));
#1202=CARTESIAN_POINT('',(-0.724999999999999,-2.675,-6.3));
#1203=CARTESIAN_POINT('',(-0.949999999999999,-2.9,-6.175));
#1204=CARTESIAN_POINT('Origin',(-1.7,-3.4,-6.05));
#1205=CARTESIAN_POINT('',(-1.95,-3.4,-5.8));
#1206=CARTESIAN_POINT('',(-0.949999999999999,-3.4,-5.8));
#1207=CARTESIAN_POINT('',(-1.95,-3.4,-6.3));
#1208=CARTESIAN_POINT('',(-1.95,-3.4,-5.925));
#1209=CARTESIAN_POINT('',(-2.45,-3.4,-6.3));
#1210=CARTESIAN_POINT('Origin',(-0.95,2.14313189850787E-16,-5.8));
#1211=CARTESIAN_POINT('',(-0.95,2.14313189850787E-16,-5.8));
#1212=CARTESIAN_POINT('',(-0.95,2.14313189850787E-16,-5.8));
#1213=CARTESIAN_POINT('',(-2.45,-2.44929359829471E-16,-5.8));
#1214=CARTESIAN_POINT('',(0.9,7.80712334456437E-16,-5.8));
#1215=CARTESIAN_POINT('',(-2.45,-2.9,-5.8));
#1216=CARTESIAN_POINT('',(-2.45,-2.44929359829471E-16,-5.8));
#1217=CARTESIAN_POINT('',(-2.675,-2.675,-5.8));
#1218=CARTESIAN_POINT('Origin',(-2.2,-3.15,-5.925));
#1219=CARTESIAN_POINT('',(-2.45,-2.9,-6.3));
#1220=CARTESIAN_POINT('',(-3.05,-2.3,-6.3));
#1221=CARTESIAN_POINT('',(-2.45,-2.9,-5.925));
#1222=CARTESIAN_POINT('Origin',(-2.45,-2.44929359829471E-16,-6.3));
#1223=CARTESIAN_POINT('',(-2.45,-2.44929359829471E-16,-6.3));
#1224=CARTESIAN_POINT('',(-2.45,-2.44929359829471E-16,-6.3));
#1225=CARTESIAN_POINT('',(-0.95,2.14313189850787E-16,-6.3));
#1226=CARTESIAN_POINT('',(0.15,5.51091059616309E-16,-6.3));
#1227=CARTESIAN_POINT('',(-0.95,2.14313189850787E-16,-6.3));
#1228=CARTESIAN_POINT('Origin',(-2.45,-2.44929359829471E-16,-5.8));
#1229=CARTESIAN_POINT('',(-2.45,-2.44929359829471E-16,-2.9));
#1230=CARTESIAN_POINT('Origin',(0.75,7.34788079488412E-16,-9.3));
#1231=CARTESIAN_POINT('',(0.75,7.34788079488412E-16,-9.3));
#1232=CARTESIAN_POINT('',(0.75,7.34788079488412E-16,-9.3));
#1233=CARTESIAN_POINT('',(0.75,7.34788079488411E-16,-4.65));
#1234=CARTESIAN_POINT('Origin',(2.45,1.25526296912604E-15,-6.3));
#1235=CARTESIAN_POINT('',(2.45,1.25526296912604E-15,-3.15));
#1236=CARTESIAN_POINT('Origin',(-0.95,2.14313189850787E-16,-6.3));
#1237=CARTESIAN_POINT('',(-0.95,2.14313189850787E-16,-3.15));
#1238=CARTESIAN_POINT('Origin',(0.,2.85,-3.));
#1239=CARTESIAN_POINT('',(1.9,2.85,-3.));
#1240=CARTESIAN_POINT('Origin',(0.,2.85,-3.));
#1241=CARTESIAN_POINT('',(-1.5,2.85,-3.));
#1242=CARTESIAN_POINT('Origin',(0.,2.85,-3.));
#1243=CARTESIAN_POINT('Origin',(0.,2.85,-3.));
#1244=CARTESIAN_POINT('',(1.3,2.85,-3.));
#1245=CARTESIAN_POINT('Origin',(0.,2.85,-3.));
#1246=CARTESIAN_POINT('',(-0.4,2.85,-3.));
#1247=CARTESIAN_POINT('Origin',(0.,2.85,-3.));
#1248=CARTESIAN_POINT('Origin',(2.75,1.34711147906209E-15,0.));
#1249=CARTESIAN_POINT('',(2.75,1.34711147906209E-15,-9.3));
#1250=CARTESIAN_POINT('',(-2.75,-3.36777869765522E-16,-9.3));
#1251=CARTESIAN_POINT('',(2.75,1.34711147906209E-15,0.));
#1252=CARTESIAN_POINT('',(-2.75,-3.36777869765522E-16,-9.3));
#1253=CARTESIAN_POINT('',(-2.75,-3.36777869765522E-16,0.));
#1254=CARTESIAN_POINT('',(-2.75,-3.36777869765522E-16,-9.3));
#1255=CARTESIAN_POINT('Origin',(2.75,5.7,0.));
#1256=CARTESIAN_POINT('',(2.75,1.11022302462516E-15,-9.3));
#1257=CARTESIAN_POINT('Origin',(-2.75,0.,0.));
#1258=CARTESIAN_POINT('',(-2.75,5.7,-9.3));
#1259=CARTESIAN_POINT('Origin',(0.,2.85,-9.3));
#1260=CARTESIAN_POINT('Origin',(0.,2.85,0.));
#1261=CARTESIAN_POINT('',(1.9,2.85,3.15));
#1262=CARTESIAN_POINT('Origin',(0.,2.85,3.15));
#1263=CARTESIAN_POINT('',(1.9,2.85,0.));
#1264=CARTESIAN_POINT('Origin',(0.,2.85,0.));
#1265=CARTESIAN_POINT('',(-2.7,2.85,3.15));
#1266=CARTESIAN_POINT('Origin',(0.,2.85,3.15));
#1267=CARTESIAN_POINT('',(-2.7,2.85,0.));
#1268=CARTESIAN_POINT('Origin',(0.,2.85,3.15));
#1269=CARTESIAN_POINT('Origin',(0.,2.85,0.));
#1270=CARTESIAN_POINT('',(1.3,2.85,1.5));
#1271=CARTESIAN_POINT('Origin',(0.,2.85,1.5));
#1272=CARTESIAN_POINT('',(1.3,2.85,0.));
#1273=CARTESIAN_POINT('Origin',(0.,2.85,0.));
#1274=CARTESIAN_POINT('',(-1.5,2.85,1.5));
#1275=CARTESIAN_POINT('Origin',(0.,2.85,1.5));
#1276=CARTESIAN_POINT('',(-1.5,2.85,0.));
#1277=CARTESIAN_POINT('Origin',(0.,2.85,1.5));
#1278=CARTESIAN_POINT('Origin',(0.,2.85,0.));
#1279=CARTESIAN_POINT('',(-0.4,2.85,1.5));
#1280=CARTESIAN_POINT('Origin',(0.,2.85,1.5));
#1281=CARTESIAN_POINT('',(-0.4,2.85,0.));
#1282=CARTESIAN_POINT('Origin',(0.,2.85,1.5));
#1283=UNCERTAINTY_MEASURE_WITH_UNIT(LENGTH_MEASURE(0.01),#1287,
'DISTANCE_ACCURACY_VALUE',
'Maximum model space distance between geometric entities at asserted c
onnectivities');
#1284=UNCERTAINTY_MEASURE_WITH_UNIT(LENGTH_MEASURE(0.01),#1287,
'DISTANCE_ACCURACY_VALUE',
'Maximum model space distance between geometric entities at asserted c
onnectivities');
#1285=(
GEOMETRIC_REPRESENTATION_CONTEXT(3)
GLOBAL_UNCERTAINTY_ASSIGNED_CONTEXT((#1283))
GLOBAL_UNIT_ASSIGNED_CONTEXT((#1287,#1289,#1290))
REPRESENTATION_CONTEXT('','3D')
);
#1286=(
GEOMETRIC_REPRESENTATION_CONTEXT(3)
GLOBAL_UNCERTAINTY_ASSIGNED_CONTEXT((#1284))
GLOBAL_UNIT_ASSIGNED_CONTEXT((#1287,#1289,#1290))
REPRESENTATION_CONTEXT('','3D')
);
#1287=(
LENGTH_UNIT()
NAMED_UNIT(*)
SI_UNIT(.MILLI.,.METRE.)
);
#1288=(
LENGTH_UNIT()
NAMED_UNIT(*)
SI_UNIT(.CENTI.,.METRE.)
);
#1289=(
NAMED_UNIT(*)
PLANE_ANGLE_UNIT()
SI_UNIT($,.RADIAN.)
);
#1290=(
NAMED_UNIT(*)
SI_UNIT($,.STERADIAN.)
SOLID_ANGLE_UNIT()
);
#1291=SHAPE_DEFINITION_REPRESENTATION(#1292,#1293);
#1292=PRODUCT_DEFINITION_SHAPE('',$,#1295);
#1293=SHAPE_REPRESENTATION('',(#795),#1285);
#1294=PRODUCT_DEFINITION_CONTEXT('part definition',#1299,'design');
#1295=PRODUCT_DEFINITION('2.35mmSafetyJack','2.35mmSafetyJack',#1296,#1294);
#1296=PRODUCT_DEFINITION_FORMATION('',$,#1301);
#1297=PRODUCT_RELATED_PRODUCT_CATEGORY('2.35mmSafetyJack',
'2.35mmSafetyJack',(#1301));
#1298=APPLICATION_PROTOCOL_DEFINITION('international standard',
'automotive_design',2009,#1299);
#1299=APPLICATION_CONTEXT(
'Core Data for Automotive Mechanical Design Process');
#1300=PRODUCT_CONTEXT('part definition',#1299,'mechanical');
#1301=PRODUCT('2.35mmSafetyJack','2.35mmSafetyJack',$,(#1300));
#1302=PRESENTATION_STYLE_ASSIGNMENT((#1305));
#1303=PRESENTATION_STYLE_ASSIGNMENT((#1306));
#1304=PRESENTATION_STYLE_ASSIGNMENT((#1307));
#1305=SURFACE_STYLE_USAGE(.BOTH.,#1314);
#1306=SURFACE_STYLE_USAGE(.BOTH.,#1315);
#1307=SURFACE_STYLE_USAGE(.BOTH.,#1316);
#1308=SURFACE_STYLE_RENDERING_WITH_PROPERTIES($,#1326,(#1311));
#1309=SURFACE_STYLE_RENDERING_WITH_PROPERTIES($,#1327,(#1312));
#1310=SURFACE_STYLE_RENDERING_WITH_PROPERTIES($,#1328,(#1313));
#1311=SURFACE_STYLE_TRANSPARENT(0.);
#1312=SURFACE_STYLE_TRANSPARENT(0.);
#1313=SURFACE_STYLE_TRANSPARENT(0.);
#1314=SURFACE_SIDE_STYLE('',(#1317,#1308));
#1315=SURFACE_SIDE_STYLE('',(#1318,#1309));
#1316=SURFACE_SIDE_STYLE('',(#1319,#1310));
#1317=SURFACE_STYLE_FILL_AREA(#1320);
#1318=SURFACE_STYLE_FILL_AREA(#1321);
#1319=SURFACE_STYLE_FILL_AREA(#1322);
#1320=FILL_AREA_STYLE('',(#1323));
#1321=FILL_AREA_STYLE('',(#1324));
#1322=FILL_AREA_STYLE('',(#1325));
#1323=FILL_AREA_STYLE_COLOUR('',#1326);
#1324=FILL_AREA_STYLE_COLOUR('',#1327);
#1325=FILL_AREA_STYLE_COLOUR('',#1328);
#1326=COLOUR_RGB('',0.749019607843137,0.749019607843137,0.749019607843137);
#1327=COLOUR_RGB('',0.968627450980392,0.933333333333333,0.792156862745098);
#1328=COLOUR_RGB('',0.996078431372549,0.835294117647059,0.);
ENDSEC;
END-ISO-10303-21;
