ISO-10303-21;
HEADER;
/* Generated by software containing ST-Developer
 * from STEP Tools, Inc. (www.steptools.com) 
 */

FILE_DESCRIPTION(
/* description */ (''),
/* implementation_level */ '2;1');

FILE_NAME(
/* name */ 'SMC10H04.stp',
/* time_stamp */ '2025-07-31T16:22:20-04:00',
/* author */ ('user'),
/* organization */ (''),
/* preprocessor_version */ 'ST-DEVELOPER v20.1',
/* originating_system */ 'Autodesk Inventor 2026',
/* authorisation */ '');

FILE_SCHEMA (('AUTOMOTIVE_DESIGN { 1 0 10303 214 3 1 1 }'));
ENDSEC;

DATA;
#10=MECHANICAL_DESIGN_GEOMETRIC_PRESENTATION_REPRESENTATION('',(#31,#32,
#33,#34,#35,#36,#37,#38,#39,#40),#1356);
#11=SHAPE_REPRESENTATION_RELATIONSHIP('SRR','None',#1363,#12);
#12=ADVANCED_BREP_SHAPE_REPRESENTATION('',(#13,#14),#1355);
#13=MANIFOLD_SOLID_BREP('Solid1',#834);
#14=MANIFOLD_SOLID_BREP('Solid2',#835);
#15=FACE_BOUND('',#123,.T.);
#16=FACE_BOUND('',#127,.T.);
#17=FACE_BOUND('',#128,.T.);
#18=FACE_BOUND('',#129,.T.);
#19=CIRCLE('',#892,2.);
#20=CIRCLE('',#893,2.);
#21=CIRCLE('',#896,4.5);
#22=CIRCLE('',#897,4.5);
#23=CIRCLE('',#900,5.85);
#24=CIRCLE('',#902,5.85);
#25=CIRCLE('',#906,4.5);
#26=CIRCLE('',#907,4.5);
#27=CYLINDRICAL_SURFACE('',#891,2.);
#28=CYLINDRICAL_SURFACE('',#895,4.5);
#29=CYLINDRICAL_SURFACE('',#901,5.85);
#30=CYLINDRICAL_SURFACE('',#905,4.5);
#31=STYLED_ITEM('',(#1373),#822);
#32=STYLED_ITEM('',(#1373),#823);
#33=STYLED_ITEM('',(#1374),#824);
#34=STYLED_ITEM('',(#1374),#825);
#35=STYLED_ITEM('',(#1375),#826);
#36=STYLED_ITEM('',(#1375),#827);
#37=STYLED_ITEM('',(#1375),#828);
#38=STYLED_ITEM('',(#1375),#829);
#39=STYLED_ITEM('',(#1372),#13);
#40=STYLED_ITEM('',(#1372),#14);
#41=FACE_OUTER_BOUND('',#86,.T.);
#42=FACE_OUTER_BOUND('',#87,.T.);
#43=FACE_OUTER_BOUND('',#88,.T.);
#44=FACE_OUTER_BOUND('',#89,.T.);
#45=FACE_OUTER_BOUND('',#90,.T.);
#46=FACE_OUTER_BOUND('',#91,.T.);
#47=FACE_OUTER_BOUND('',#92,.T.);
#48=FACE_OUTER_BOUND('',#93,.T.);
#49=FACE_OUTER_BOUND('',#94,.T.);
#50=FACE_OUTER_BOUND('',#95,.T.);
#51=FACE_OUTER_BOUND('',#96,.T.);
#52=FACE_OUTER_BOUND('',#97,.T.);
#53=FACE_OUTER_BOUND('',#98,.T.);
#54=FACE_OUTER_BOUND('',#99,.T.);
#55=FACE_OUTER_BOUND('',#100,.T.);
#56=FACE_OUTER_BOUND('',#101,.T.);
#57=FACE_OUTER_BOUND('',#102,.T.);
#58=FACE_OUTER_BOUND('',#103,.T.);
#59=FACE_OUTER_BOUND('',#104,.T.);
#60=FACE_OUTER_BOUND('',#105,.T.);
#61=FACE_OUTER_BOUND('',#106,.T.);
#62=FACE_OUTER_BOUND('',#107,.T.);
#63=FACE_OUTER_BOUND('',#108,.T.);
#64=FACE_OUTER_BOUND('',#109,.T.);
#65=FACE_OUTER_BOUND('',#110,.T.);
#66=FACE_OUTER_BOUND('',#111,.T.);
#67=FACE_OUTER_BOUND('',#112,.T.);
#68=FACE_OUTER_BOUND('',#113,.T.);
#69=FACE_OUTER_BOUND('',#114,.T.);
#70=FACE_OUTER_BOUND('',#115,.T.);
#71=FACE_OUTER_BOUND('',#116,.T.);
#72=FACE_OUTER_BOUND('',#117,.T.);
#73=FACE_OUTER_BOUND('',#118,.T.);
#74=FACE_OUTER_BOUND('',#119,.T.);
#75=FACE_OUTER_BOUND('',#120,.T.);
#76=FACE_OUTER_BOUND('',#121,.T.);
#77=FACE_OUTER_BOUND('',#122,.T.);
#78=FACE_OUTER_BOUND('',#124,.T.);
#79=FACE_OUTER_BOUND('',#125,.T.);
#80=FACE_OUTER_BOUND('',#126,.T.);
#81=FACE_OUTER_BOUND('',#130,.T.);
#82=FACE_OUTER_BOUND('',#131,.T.);
#83=FACE_OUTER_BOUND('',#132,.T.);
#84=FACE_OUTER_BOUND('',#133,.T.);
#85=FACE_OUTER_BOUND('',#134,.T.);
#86=EDGE_LOOP('',(#526,#527,#528,#529));
#87=EDGE_LOOP('',(#530,#531,#532,#533));
#88=EDGE_LOOP('',(#534,#535,#536,#537,#538,#539,#540,#541,#542,#543));
#89=EDGE_LOOP('',(#544,#545,#546,#547));
#90=EDGE_LOOP('',(#548,#549,#550,#551));
#91=EDGE_LOOP('',(#552,#553,#554,#555));
#92=EDGE_LOOP('',(#556,#557,#558,#559,#560,#561,#562,#563,#564,#565));
#93=EDGE_LOOP('',(#566,#567,#568,#569));
#94=EDGE_LOOP('',(#570,#571,#572,#573));
#95=EDGE_LOOP('',(#574,#575,#576,#577));
#96=EDGE_LOOP('',(#578,#579,#580,#581,#582,#583,#584,#585,#586,#587));
#97=EDGE_LOOP('',(#588,#589,#590,#591));
#98=EDGE_LOOP('',(#592,#593,#594,#595));
#99=EDGE_LOOP('',(#596,#597,#598,#599));
#100=EDGE_LOOP('',(#600,#601,#602,#603));
#101=EDGE_LOOP('',(#604,#605,#606,#607));
#102=EDGE_LOOP('',(#608,#609,#610,#611));
#103=EDGE_LOOP('',(#612,#613,#614,#615));
#104=EDGE_LOOP('',(#616,#617,#618,#619));
#105=EDGE_LOOP('',(#620,#621,#622,#623));
#106=EDGE_LOOP('',(#624,#625,#626,#627));
#107=EDGE_LOOP('',(#628,#629,#630,#631));
#108=EDGE_LOOP('',(#632,#633,#634,#635));
#109=EDGE_LOOP('',(#636,#637,#638,#639));
#110=EDGE_LOOP('',(#640,#641,#642,#643));
#111=EDGE_LOOP('',(#644,#645,#646,#647));
#112=EDGE_LOOP('',(#648,#649,#650,#651,#652,#653,#654,#655,#656,#657));
#113=EDGE_LOOP('',(#658,#659,#660,#661));
#114=EDGE_LOOP('',(#662,#663,#664,#665));
#115=EDGE_LOOP('',(#666,#667,#668,#669,#670,#671,#672,#673,#674,#675));
#116=EDGE_LOOP('',(#676,#677,#678,#679));
#117=EDGE_LOOP('',(#680,#681,#682,#683));
#118=EDGE_LOOP('',(#684,#685,#686,#687,#688,#689,#690,#691,#692,#693));
#119=EDGE_LOOP('',(#694,#695,#696,#697));
#120=EDGE_LOOP('',(#698));
#121=EDGE_LOOP('',(#699,#700,#701,#702));
#122=EDGE_LOOP('',(#703,#704));
#123=EDGE_LOOP('',(#705));
#124=EDGE_LOOP('',(#706,#707,#708,#709));
#125=EDGE_LOOP('',(#710,#711,#712,#713));
#126=EDGE_LOOP('',(#714,#715,#716,#717,#718,#719,#720,#721));
#127=EDGE_LOOP('',(#722,#723,#724,#725));
#128=EDGE_LOOP('',(#726,#727,#728,#729));
#129=EDGE_LOOP('',(#730,#731,#732,#733));
#130=EDGE_LOOP('',(#734,#735));
#131=EDGE_LOOP('',(#736,#737,#738,#739));
#132=EDGE_LOOP('',(#740,#741,#742,#743));
#133=EDGE_LOOP('',(#744,#745));
#134=EDGE_LOOP('',(#746,#747));
#135=LINE('',#1126,#238);
#136=LINE('',#1128,#239);
#137=LINE('',#1130,#240);
#138=LINE('',#1131,#241);
#139=LINE('',#1134,#242);
#140=LINE('',#1136,#243);
#141=LINE('',#1137,#244);
#142=LINE('',#1140,#245);
#143=LINE('',#1142,#246);
#144=LINE('',#1144,#247);
#145=LINE('',#1146,#248);
#146=LINE('',#1148,#249);
#147=LINE('',#1150,#250);
#148=LINE('',#1152,#251);
#149=LINE('',#1153,#252);
#150=LINE('',#1156,#253);
#151=LINE('',#1157,#254);
#152=LINE('',#1161,#255);
#153=LINE('',#1163,#256);
#154=LINE('',#1165,#257);
#155=LINE('',#1166,#258);
#156=LINE('',#1169,#259);
#157=LINE('',#1171,#260);
#158=LINE('',#1172,#261);
#159=LINE('',#1175,#262);
#160=LINE('',#1177,#263);
#161=LINE('',#1179,#264);
#162=LINE('',#1181,#265);
#163=LINE('',#1183,#266);
#164=LINE('',#1185,#267);
#165=LINE('',#1187,#268);
#166=LINE('',#1188,#269);
#167=LINE('',#1191,#270);
#168=LINE('',#1192,#271);
#169=LINE('',#1196,#272);
#170=LINE('',#1198,#273);
#171=LINE('',#1200,#274);
#172=LINE('',#1201,#275);
#173=LINE('',#1204,#276);
#174=LINE('',#1206,#277);
#175=LINE('',#1207,#278);
#176=LINE('',#1210,#279);
#177=LINE('',#1212,#280);
#178=LINE('',#1214,#281);
#179=LINE('',#1216,#282);
#180=LINE('',#1218,#283);
#181=LINE('',#1220,#284);
#182=LINE('',#1222,#285);
#183=LINE('',#1223,#286);
#184=LINE('',#1226,#287);
#185=LINE('',#1227,#288);
#186=LINE('',#1230,#289);
#187=LINE('',#1231,#290);
#188=LINE('',#1234,#291);
#189=LINE('',#1235,#292);
#190=LINE('',#1238,#293);
#191=LINE('',#1239,#294);
#192=LINE('',#1242,#295);
#193=LINE('',#1243,#296);
#194=LINE('',#1246,#297);
#195=LINE('',#1247,#298);
#196=LINE('',#1250,#299);
#197=LINE('',#1251,#300);
#198=LINE('',#1254,#301);
#199=LINE('',#1255,#302);
#200=LINE('',#1258,#303);
#201=LINE('',#1259,#304);
#202=LINE('',#1262,#305);
#203=LINE('',#1263,#306);
#204=LINE('',#1266,#307);
#205=LINE('',#1267,#308);
#206=LINE('',#1270,#309);
#207=LINE('',#1271,#310);
#208=LINE('',#1274,#311);
#209=LINE('',#1275,#312);
#210=LINE('',#1278,#313);
#211=LINE('',#1279,#314);
#212=LINE('',#1282,#315);
#213=LINE('',#1283,#316);
#214=LINE('',#1285,#317);
#215=LINE('',#1288,#318);
#216=LINE('',#1289,#319);
#217=LINE('',#1292,#320);
#218=LINE('',#1293,#321);
#219=LINE('',#1295,#322);
#220=LINE('',#1298,#323);
#221=LINE('',#1299,#324);
#222=LINE('',#1302,#325);
#223=LINE('',#1303,#326);
#224=LINE('',#1305,#327);
#225=LINE('',#1310,#328);
#226=LINE('',#1318,#329);
#227=LINE('',#1321,#330);
#228=LINE('',#1323,#331);
#229=LINE('',#1326,#332);
#230=LINE('',#1329,#333);
#231=LINE('',#1334,#334);
#232=LINE('',#1335,#335);
#233=LINE('',#1337,#336);
#234=LINE('',#1344,#337);
#235=LINE('',#1347,#338);
#236=LINE('',#1349,#339);
#237=LINE('',#1350,#340);
#238=VECTOR('',#915,10.);
#239=VECTOR('',#916,10.);
#240=VECTOR('',#917,10.);
#241=VECTOR('',#918,10.);
#242=VECTOR('',#921,10.);
#243=VECTOR('',#922,10.);
#244=VECTOR('',#923,10.);
#245=VECTOR('',#926,10.);
#246=VECTOR('',#927,10.);
#247=VECTOR('',#928,10.);
#248=VECTOR('',#929,10.);
#249=VECTOR('',#930,10.);
#250=VECTOR('',#931,10.);
#251=VECTOR('',#932,10.);
#252=VECTOR('',#933,10.);
#253=VECTOR('',#936,10.);
#254=VECTOR('',#937,10.);
#255=VECTOR('',#940,10.);
#256=VECTOR('',#941,10.);
#257=VECTOR('',#942,10.);
#258=VECTOR('',#943,10.);
#259=VECTOR('',#946,10.);
#260=VECTOR('',#947,10.);
#261=VECTOR('',#948,10.);
#262=VECTOR('',#951,10.);
#263=VECTOR('',#952,10.);
#264=VECTOR('',#953,10.);
#265=VECTOR('',#954,10.);
#266=VECTOR('',#955,10.);
#267=VECTOR('',#956,10.);
#268=VECTOR('',#957,10.);
#269=VECTOR('',#958,10.);
#270=VECTOR('',#961,10.);
#271=VECTOR('',#962,10.);
#272=VECTOR('',#965,10.);
#273=VECTOR('',#966,10.);
#274=VECTOR('',#967,10.);
#275=VECTOR('',#968,10.);
#276=VECTOR('',#971,10.);
#277=VECTOR('',#972,10.);
#278=VECTOR('',#973,10.);
#279=VECTOR('',#976,10.);
#280=VECTOR('',#977,10.);
#281=VECTOR('',#978,10.);
#282=VECTOR('',#979,10.);
#283=VECTOR('',#980,10.);
#284=VECTOR('',#981,10.);
#285=VECTOR('',#982,10.);
#286=VECTOR('',#983,10.);
#287=VECTOR('',#986,10.);
#288=VECTOR('',#987,10.);
#289=VECTOR('',#990,10.);
#290=VECTOR('',#991,10.);
#291=VECTOR('',#994,10.);
#292=VECTOR('',#995,10.);
#293=VECTOR('',#998,10.);
#294=VECTOR('',#999,10.);
#295=VECTOR('',#1002,10.);
#296=VECTOR('',#1003,10.);
#297=VECTOR('',#1006,10.);
#298=VECTOR('',#1007,10.);
#299=VECTOR('',#1010,10.);
#300=VECTOR('',#1011,10.);
#301=VECTOR('',#1014,10.);
#302=VECTOR('',#1015,10.);
#303=VECTOR('',#1018,10.);
#304=VECTOR('',#1019,10.);
#305=VECTOR('',#1022,10.);
#306=VECTOR('',#1023,10.);
#307=VECTOR('',#1026,10.);
#308=VECTOR('',#1027,10.);
#309=VECTOR('',#1030,10.);
#310=VECTOR('',#1031,10.);
#311=VECTOR('',#1034,10.);
#312=VECTOR('',#1035,10.);
#313=VECTOR('',#1038,10.);
#314=VECTOR('',#1039,10.);
#315=VECTOR('',#1042,10.);
#316=VECTOR('',#1043,10.);
#317=VECTOR('',#1046,10.);
#318=VECTOR('',#1049,10.);
#319=VECTOR('',#1050,10.);
#320=VECTOR('',#1053,10.);
#321=VECTOR('',#1054,10.);
#322=VECTOR('',#1057,10.);
#323=VECTOR('',#1060,10.);
#324=VECTOR('',#1061,10.);
#325=VECTOR('',#1064,10.);
#326=VECTOR('',#1065,10.);
#327=VECTOR('',#1068,10.);
#328=VECTOR('',#1073,2.);
#329=VECTOR('',#1082,10.);
#330=VECTOR('',#1085,10.);
#331=VECTOR('',#1088,10.);
#332=VECTOR('',#1091,10.);
#333=VECTOR('',#1094,10.);
#334=VECTOR('',#1099,10.);
#335=VECTOR('',#1100,10.);
#336=VECTOR('',#1103,10.);
#337=VECTOR('',#1110,10.);
#338=VECTOR('',#1113,10.);
#339=VECTOR('',#1116,10.);
#340=VECTOR('',#1117,10.);
#341=VERTEX_POINT('',#1124);
#342=VERTEX_POINT('',#1125);
#343=VERTEX_POINT('',#1127);
#344=VERTEX_POINT('',#1129);
#345=VERTEX_POINT('',#1133);
#346=VERTEX_POINT('',#1135);
#347=VERTEX_POINT('',#1139);
#348=VERTEX_POINT('',#1141);
#349=VERTEX_POINT('',#1143);
#350=VERTEX_POINT('',#1145);
#351=VERTEX_POINT('',#1147);
#352=VERTEX_POINT('',#1149);
#353=VERTEX_POINT('',#1151);
#354=VERTEX_POINT('',#1155);
#355=VERTEX_POINT('',#1159);
#356=VERTEX_POINT('',#1160);
#357=VERTEX_POINT('',#1162);
#358=VERTEX_POINT('',#1164);
#359=VERTEX_POINT('',#1168);
#360=VERTEX_POINT('',#1170);
#361=VERTEX_POINT('',#1174);
#362=VERTEX_POINT('',#1176);
#363=VERTEX_POINT('',#1178);
#364=VERTEX_POINT('',#1180);
#365=VERTEX_POINT('',#1182);
#366=VERTEX_POINT('',#1184);
#367=VERTEX_POINT('',#1186);
#368=VERTEX_POINT('',#1190);
#369=VERTEX_POINT('',#1194);
#370=VERTEX_POINT('',#1195);
#371=VERTEX_POINT('',#1197);
#372=VERTEX_POINT('',#1199);
#373=VERTEX_POINT('',#1203);
#374=VERTEX_POINT('',#1205);
#375=VERTEX_POINT('',#1209);
#376=VERTEX_POINT('',#1211);
#377=VERTEX_POINT('',#1213);
#378=VERTEX_POINT('',#1215);
#379=VERTEX_POINT('',#1217);
#380=VERTEX_POINT('',#1219);
#381=VERTEX_POINT('',#1221);
#382=VERTEX_POINT('',#1225);
#383=VERTEX_POINT('',#1229);
#384=VERTEX_POINT('',#1233);
#385=VERTEX_POINT('',#1237);
#386=VERTEX_POINT('',#1241);
#387=VERTEX_POINT('',#1245);
#388=VERTEX_POINT('',#1249);
#389=VERTEX_POINT('',#1253);
#390=VERTEX_POINT('',#1257);
#391=VERTEX_POINT('',#1261);
#392=VERTEX_POINT('',#1265);
#393=VERTEX_POINT('',#1269);
#394=VERTEX_POINT('',#1273);
#395=VERTEX_POINT('',#1277);
#396=VERTEX_POINT('',#1281);
#397=VERTEX_POINT('',#1287);
#398=VERTEX_POINT('',#1291);
#399=VERTEX_POINT('',#1297);
#400=VERTEX_POINT('',#1301);
#401=VERTEX_POINT('',#1307);
#402=VERTEX_POINT('',#1309);
#403=VERTEX_POINT('',#1314);
#404=VERTEX_POINT('',#1315);
#405=VERTEX_POINT('',#1317);
#406=VERTEX_POINT('',#1319);
#407=VERTEX_POINT('',#1325);
#408=VERTEX_POINT('',#1327);
#409=VERTEX_POINT('',#1331);
#410=VERTEX_POINT('',#1332);
#411=VERTEX_POINT('',#1340);
#412=VERTEX_POINT('',#1341);
#413=VERTEX_POINT('',#1343);
#414=VERTEX_POINT('',#1345);
#415=EDGE_CURVE('',#341,#342,#135,.T.);
#416=EDGE_CURVE('',#342,#343,#136,.T.);
#417=EDGE_CURVE('',#343,#344,#137,.T.);
#418=EDGE_CURVE('',#344,#341,#138,.T.);
#419=EDGE_CURVE('',#342,#345,#139,.T.);
#420=EDGE_CURVE('',#346,#345,#140,.T.);
#421=EDGE_CURVE('',#346,#343,#141,.T.);
#422=EDGE_CURVE('',#347,#341,#142,.T.);
#423=EDGE_CURVE('',#348,#347,#143,.T.);
#424=EDGE_CURVE('',#349,#348,#144,.T.);
#425=EDGE_CURVE('',#350,#349,#145,.T.);
#426=EDGE_CURVE('',#350,#351,#146,.T.);
#427=EDGE_CURVE('',#352,#351,#147,.T.);
#428=EDGE_CURVE('',#352,#353,#148,.T.);
#429=EDGE_CURVE('',#345,#353,#149,.T.);
#430=EDGE_CURVE('',#354,#346,#150,.T.);
#431=EDGE_CURVE('',#353,#354,#151,.T.);
#432=EDGE_CURVE('',#355,#356,#152,.T.);
#433=EDGE_CURVE('',#356,#357,#153,.T.);
#434=EDGE_CURVE('',#357,#358,#154,.T.);
#435=EDGE_CURVE('',#358,#355,#155,.T.);
#436=EDGE_CURVE('',#356,#359,#156,.T.);
#437=EDGE_CURVE('',#360,#359,#157,.T.);
#438=EDGE_CURVE('',#360,#357,#158,.T.);
#439=EDGE_CURVE('',#361,#355,#159,.T.);
#440=EDGE_CURVE('',#362,#361,#160,.T.);
#441=EDGE_CURVE('',#363,#362,#161,.T.);
#442=EDGE_CURVE('',#364,#363,#162,.T.);
#443=EDGE_CURVE('',#364,#365,#163,.T.);
#444=EDGE_CURVE('',#366,#365,#164,.T.);
#445=EDGE_CURVE('',#366,#367,#165,.T.);
#446=EDGE_CURVE('',#359,#367,#166,.T.);
#447=EDGE_CURVE('',#368,#360,#167,.T.);
#448=EDGE_CURVE('',#367,#368,#168,.T.);
#449=EDGE_CURVE('',#369,#370,#169,.T.);
#450=EDGE_CURVE('',#370,#371,#170,.T.);
#451=EDGE_CURVE('',#371,#372,#171,.T.);
#452=EDGE_CURVE('',#372,#369,#172,.T.);
#453=EDGE_CURVE('',#370,#373,#173,.T.);
#454=EDGE_CURVE('',#374,#373,#174,.T.);
#455=EDGE_CURVE('',#374,#371,#175,.T.);
#456=EDGE_CURVE('',#375,#369,#176,.T.);
#457=EDGE_CURVE('',#376,#375,#177,.T.);
#458=EDGE_CURVE('',#377,#376,#178,.T.);
#459=EDGE_CURVE('',#378,#377,#179,.T.);
#460=EDGE_CURVE('',#378,#379,#180,.T.);
#461=EDGE_CURVE('',#380,#379,#181,.T.);
#462=EDGE_CURVE('',#380,#381,#182,.T.);
#463=EDGE_CURVE('',#373,#381,#183,.T.);
#464=EDGE_CURVE('',#382,#374,#184,.T.);
#465=EDGE_CURVE('',#381,#382,#185,.T.);
#466=EDGE_CURVE('',#383,#352,#186,.T.);
#467=EDGE_CURVE('',#383,#354,#187,.T.);
#468=EDGE_CURVE('',#384,#344,#188,.T.);
#469=EDGE_CURVE('',#347,#384,#189,.T.);
#470=EDGE_CURVE('',#385,#366,#190,.T.);
#471=EDGE_CURVE('',#385,#368,#191,.T.);
#472=EDGE_CURVE('',#386,#358,#192,.T.);
#473=EDGE_CURVE('',#361,#386,#193,.T.);
#474=EDGE_CURVE('',#387,#380,#194,.T.);
#475=EDGE_CURVE('',#387,#382,#195,.T.);
#476=EDGE_CURVE('',#388,#372,#196,.T.);
#477=EDGE_CURVE('',#375,#388,#197,.T.);
#478=EDGE_CURVE('',#351,#389,#198,.T.);
#479=EDGE_CURVE('',#389,#383,#199,.T.);
#480=EDGE_CURVE('',#384,#390,#200,.T.);
#481=EDGE_CURVE('',#390,#348,#201,.T.);
#482=EDGE_CURVE('',#365,#391,#202,.T.);
#483=EDGE_CURVE('',#391,#385,#203,.T.);
#484=EDGE_CURVE('',#386,#392,#204,.T.);
#485=EDGE_CURVE('',#392,#362,#205,.T.);
#486=EDGE_CURVE('',#379,#393,#206,.T.);
#487=EDGE_CURVE('',#393,#387,#207,.T.);
#488=EDGE_CURVE('',#388,#394,#208,.T.);
#489=EDGE_CURVE('',#394,#376,#209,.T.);
#490=EDGE_CURVE('',#395,#378,#210,.T.);
#491=EDGE_CURVE('',#395,#393,#211,.T.);
#492=EDGE_CURVE('',#377,#396,#212,.T.);
#493=EDGE_CURVE('',#396,#394,#213,.T.);
#494=EDGE_CURVE('',#396,#395,#214,.T.);
#495=EDGE_CURVE('',#397,#364,#215,.T.);
#496=EDGE_CURVE('',#397,#391,#216,.T.);
#497=EDGE_CURVE('',#363,#398,#217,.T.);
#498=EDGE_CURVE('',#398,#392,#218,.T.);
#499=EDGE_CURVE('',#398,#397,#219,.T.);
#500=EDGE_CURVE('',#399,#350,#220,.T.);
#501=EDGE_CURVE('',#399,#389,#221,.T.);
#502=EDGE_CURVE('',#349,#400,#222,.T.);
#503=EDGE_CURVE('',#400,#390,#223,.T.);
#504=EDGE_CURVE('',#400,#399,#224,.T.);
#505=EDGE_CURVE('',#401,#401,#19,.T.);
#506=EDGE_CURVE('',#401,#402,#225,.T.);
#507=EDGE_CURVE('',#402,#402,#20,.T.);
#508=EDGE_CURVE('',#403,#404,#21,.T.);
#509=EDGE_CURVE('',#403,#405,#226,.T.);
#510=EDGE_CURVE('',#406,#405,#22,.T.);
#511=EDGE_CURVE('',#404,#406,#227,.T.);
#512=EDGE_CURVE('',#405,#406,#228,.T.);
#513=EDGE_CURVE('',#404,#407,#229,.T.);
#514=EDGE_CURVE('',#407,#408,#23,.T.);
#515=EDGE_CURVE('',#408,#403,#230,.T.);
#516=EDGE_CURVE('',#409,#410,#24,.T.);
#517=EDGE_CURVE('',#410,#408,#231,.T.);
#518=EDGE_CURVE('',#409,#407,#232,.T.);
#519=EDGE_CURVE('',#410,#409,#233,.T.);
#520=EDGE_CURVE('',#411,#412,#25,.T.);
#521=EDGE_CURVE('',#411,#413,#234,.T.);
#522=EDGE_CURVE('',#414,#413,#26,.T.);
#523=EDGE_CURVE('',#412,#414,#235,.T.);
#524=EDGE_CURVE('',#412,#411,#236,.T.);
#525=EDGE_CURVE('',#413,#414,#237,.T.);
#526=ORIENTED_EDGE('',*,*,#415,.T.);
#527=ORIENTED_EDGE('',*,*,#416,.T.);
#528=ORIENTED_EDGE('',*,*,#417,.T.);
#529=ORIENTED_EDGE('',*,*,#418,.T.);
#530=ORIENTED_EDGE('',*,*,#416,.F.);
#531=ORIENTED_EDGE('',*,*,#419,.T.);
#532=ORIENTED_EDGE('',*,*,#420,.F.);
#533=ORIENTED_EDGE('',*,*,#421,.T.);
#534=ORIENTED_EDGE('',*,*,#415,.F.);
#535=ORIENTED_EDGE('',*,*,#422,.F.);
#536=ORIENTED_EDGE('',*,*,#423,.F.);
#537=ORIENTED_EDGE('',*,*,#424,.F.);
#538=ORIENTED_EDGE('',*,*,#425,.F.);
#539=ORIENTED_EDGE('',*,*,#426,.T.);
#540=ORIENTED_EDGE('',*,*,#427,.F.);
#541=ORIENTED_EDGE('',*,*,#428,.T.);
#542=ORIENTED_EDGE('',*,*,#429,.F.);
#543=ORIENTED_EDGE('',*,*,#419,.F.);
#544=ORIENTED_EDGE('',*,*,#430,.T.);
#545=ORIENTED_EDGE('',*,*,#420,.T.);
#546=ORIENTED_EDGE('',*,*,#429,.T.);
#547=ORIENTED_EDGE('',*,*,#431,.T.);
#548=ORIENTED_EDGE('',*,*,#432,.T.);
#549=ORIENTED_EDGE('',*,*,#433,.T.);
#550=ORIENTED_EDGE('',*,*,#434,.T.);
#551=ORIENTED_EDGE('',*,*,#435,.T.);
#552=ORIENTED_EDGE('',*,*,#433,.F.);
#553=ORIENTED_EDGE('',*,*,#436,.T.);
#554=ORIENTED_EDGE('',*,*,#437,.F.);
#555=ORIENTED_EDGE('',*,*,#438,.T.);
#556=ORIENTED_EDGE('',*,*,#432,.F.);
#557=ORIENTED_EDGE('',*,*,#439,.F.);
#558=ORIENTED_EDGE('',*,*,#440,.F.);
#559=ORIENTED_EDGE('',*,*,#441,.F.);
#560=ORIENTED_EDGE('',*,*,#442,.F.);
#561=ORIENTED_EDGE('',*,*,#443,.T.);
#562=ORIENTED_EDGE('',*,*,#444,.F.);
#563=ORIENTED_EDGE('',*,*,#445,.T.);
#564=ORIENTED_EDGE('',*,*,#446,.F.);
#565=ORIENTED_EDGE('',*,*,#436,.F.);
#566=ORIENTED_EDGE('',*,*,#447,.T.);
#567=ORIENTED_EDGE('',*,*,#437,.T.);
#568=ORIENTED_EDGE('',*,*,#446,.T.);
#569=ORIENTED_EDGE('',*,*,#448,.T.);
#570=ORIENTED_EDGE('',*,*,#449,.T.);
#571=ORIENTED_EDGE('',*,*,#450,.T.);
#572=ORIENTED_EDGE('',*,*,#451,.T.);
#573=ORIENTED_EDGE('',*,*,#452,.T.);
#574=ORIENTED_EDGE('',*,*,#450,.F.);
#575=ORIENTED_EDGE('',*,*,#453,.T.);
#576=ORIENTED_EDGE('',*,*,#454,.F.);
#577=ORIENTED_EDGE('',*,*,#455,.T.);
#578=ORIENTED_EDGE('',*,*,#449,.F.);
#579=ORIENTED_EDGE('',*,*,#456,.F.);
#580=ORIENTED_EDGE('',*,*,#457,.F.);
#581=ORIENTED_EDGE('',*,*,#458,.F.);
#582=ORIENTED_EDGE('',*,*,#459,.F.);
#583=ORIENTED_EDGE('',*,*,#460,.T.);
#584=ORIENTED_EDGE('',*,*,#461,.F.);
#585=ORIENTED_EDGE('',*,*,#462,.T.);
#586=ORIENTED_EDGE('',*,*,#463,.F.);
#587=ORIENTED_EDGE('',*,*,#453,.F.);
#588=ORIENTED_EDGE('',*,*,#464,.T.);
#589=ORIENTED_EDGE('',*,*,#454,.T.);
#590=ORIENTED_EDGE('',*,*,#463,.T.);
#591=ORIENTED_EDGE('',*,*,#465,.T.);
#592=ORIENTED_EDGE('',*,*,#431,.F.);
#593=ORIENTED_EDGE('',*,*,#428,.F.);
#594=ORIENTED_EDGE('',*,*,#466,.F.);
#595=ORIENTED_EDGE('',*,*,#467,.T.);
#596=ORIENTED_EDGE('',*,*,#418,.F.);
#597=ORIENTED_EDGE('',*,*,#468,.F.);
#598=ORIENTED_EDGE('',*,*,#469,.F.);
#599=ORIENTED_EDGE('',*,*,#422,.T.);
#600=ORIENTED_EDGE('',*,*,#448,.F.);
#601=ORIENTED_EDGE('',*,*,#445,.F.);
#602=ORIENTED_EDGE('',*,*,#470,.F.);
#603=ORIENTED_EDGE('',*,*,#471,.T.);
#604=ORIENTED_EDGE('',*,*,#435,.F.);
#605=ORIENTED_EDGE('',*,*,#472,.F.);
#606=ORIENTED_EDGE('',*,*,#473,.F.);
#607=ORIENTED_EDGE('',*,*,#439,.T.);
#608=ORIENTED_EDGE('',*,*,#465,.F.);
#609=ORIENTED_EDGE('',*,*,#462,.F.);
#610=ORIENTED_EDGE('',*,*,#474,.F.);
#611=ORIENTED_EDGE('',*,*,#475,.T.);
#612=ORIENTED_EDGE('',*,*,#452,.F.);
#613=ORIENTED_EDGE('',*,*,#476,.F.);
#614=ORIENTED_EDGE('',*,*,#477,.F.);
#615=ORIENTED_EDGE('',*,*,#456,.T.);
#616=ORIENTED_EDGE('',*,*,#466,.T.);
#617=ORIENTED_EDGE('',*,*,#427,.T.);
#618=ORIENTED_EDGE('',*,*,#478,.T.);
#619=ORIENTED_EDGE('',*,*,#479,.T.);
#620=ORIENTED_EDGE('',*,*,#469,.T.);
#621=ORIENTED_EDGE('',*,*,#480,.T.);
#622=ORIENTED_EDGE('',*,*,#481,.T.);
#623=ORIENTED_EDGE('',*,*,#423,.T.);
#624=ORIENTED_EDGE('',*,*,#470,.T.);
#625=ORIENTED_EDGE('',*,*,#444,.T.);
#626=ORIENTED_EDGE('',*,*,#482,.T.);
#627=ORIENTED_EDGE('',*,*,#483,.T.);
#628=ORIENTED_EDGE('',*,*,#473,.T.);
#629=ORIENTED_EDGE('',*,*,#484,.T.);
#630=ORIENTED_EDGE('',*,*,#485,.T.);
#631=ORIENTED_EDGE('',*,*,#440,.T.);
#632=ORIENTED_EDGE('',*,*,#474,.T.);
#633=ORIENTED_EDGE('',*,*,#461,.T.);
#634=ORIENTED_EDGE('',*,*,#486,.T.);
#635=ORIENTED_EDGE('',*,*,#487,.T.);
#636=ORIENTED_EDGE('',*,*,#477,.T.);
#637=ORIENTED_EDGE('',*,*,#488,.T.);
#638=ORIENTED_EDGE('',*,*,#489,.T.);
#639=ORIENTED_EDGE('',*,*,#457,.T.);
#640=ORIENTED_EDGE('',*,*,#490,.F.);
#641=ORIENTED_EDGE('',*,*,#491,.T.);
#642=ORIENTED_EDGE('',*,*,#486,.F.);
#643=ORIENTED_EDGE('',*,*,#460,.F.);
#644=ORIENTED_EDGE('',*,*,#492,.F.);
#645=ORIENTED_EDGE('',*,*,#458,.T.);
#646=ORIENTED_EDGE('',*,*,#489,.F.);
#647=ORIENTED_EDGE('',*,*,#493,.F.);
#648=ORIENTED_EDGE('',*,*,#451,.F.);
#649=ORIENTED_EDGE('',*,*,#455,.F.);
#650=ORIENTED_EDGE('',*,*,#464,.F.);
#651=ORIENTED_EDGE('',*,*,#475,.F.);
#652=ORIENTED_EDGE('',*,*,#487,.F.);
#653=ORIENTED_EDGE('',*,*,#491,.F.);
#654=ORIENTED_EDGE('',*,*,#494,.F.);
#655=ORIENTED_EDGE('',*,*,#493,.T.);
#656=ORIENTED_EDGE('',*,*,#488,.F.);
#657=ORIENTED_EDGE('',*,*,#476,.T.);
#658=ORIENTED_EDGE('',*,*,#495,.F.);
#659=ORIENTED_EDGE('',*,*,#496,.T.);
#660=ORIENTED_EDGE('',*,*,#482,.F.);
#661=ORIENTED_EDGE('',*,*,#443,.F.);
#662=ORIENTED_EDGE('',*,*,#497,.F.);
#663=ORIENTED_EDGE('',*,*,#441,.T.);
#664=ORIENTED_EDGE('',*,*,#485,.F.);
#665=ORIENTED_EDGE('',*,*,#498,.F.);
#666=ORIENTED_EDGE('',*,*,#434,.F.);
#667=ORIENTED_EDGE('',*,*,#438,.F.);
#668=ORIENTED_EDGE('',*,*,#447,.F.);
#669=ORIENTED_EDGE('',*,*,#471,.F.);
#670=ORIENTED_EDGE('',*,*,#483,.F.);
#671=ORIENTED_EDGE('',*,*,#496,.F.);
#672=ORIENTED_EDGE('',*,*,#499,.F.);
#673=ORIENTED_EDGE('',*,*,#498,.T.);
#674=ORIENTED_EDGE('',*,*,#484,.F.);
#675=ORIENTED_EDGE('',*,*,#472,.T.);
#676=ORIENTED_EDGE('',*,*,#500,.F.);
#677=ORIENTED_EDGE('',*,*,#501,.T.);
#678=ORIENTED_EDGE('',*,*,#478,.F.);
#679=ORIENTED_EDGE('',*,*,#426,.F.);
#680=ORIENTED_EDGE('',*,*,#502,.F.);
#681=ORIENTED_EDGE('',*,*,#424,.T.);
#682=ORIENTED_EDGE('',*,*,#481,.F.);
#683=ORIENTED_EDGE('',*,*,#503,.F.);
#684=ORIENTED_EDGE('',*,*,#417,.F.);
#685=ORIENTED_EDGE('',*,*,#421,.F.);
#686=ORIENTED_EDGE('',*,*,#430,.F.);
#687=ORIENTED_EDGE('',*,*,#467,.F.);
#688=ORIENTED_EDGE('',*,*,#479,.F.);
#689=ORIENTED_EDGE('',*,*,#501,.F.);
#690=ORIENTED_EDGE('',*,*,#504,.F.);
#691=ORIENTED_EDGE('',*,*,#503,.T.);
#692=ORIENTED_EDGE('',*,*,#480,.F.);
#693=ORIENTED_EDGE('',*,*,#468,.T.);
#694=ORIENTED_EDGE('',*,*,#505,.F.);
#695=ORIENTED_EDGE('',*,*,#506,.T.);
#696=ORIENTED_EDGE('',*,*,#507,.F.);
#697=ORIENTED_EDGE('',*,*,#506,.F.);
#698=ORIENTED_EDGE('',*,*,#505,.T.);
#699=ORIENTED_EDGE('',*,*,#508,.F.);
#700=ORIENTED_EDGE('',*,*,#509,.T.);
#701=ORIENTED_EDGE('',*,*,#510,.F.);
#702=ORIENTED_EDGE('',*,*,#511,.F.);
#703=ORIENTED_EDGE('',*,*,#510,.T.);
#704=ORIENTED_EDGE('',*,*,#512,.T.);
#705=ORIENTED_EDGE('',*,*,#507,.T.);
#706=ORIENTED_EDGE('',*,*,#508,.T.);
#707=ORIENTED_EDGE('',*,*,#513,.T.);
#708=ORIENTED_EDGE('',*,*,#514,.T.);
#709=ORIENTED_EDGE('',*,*,#515,.T.);
#710=ORIENTED_EDGE('',*,*,#516,.T.);
#711=ORIENTED_EDGE('',*,*,#517,.T.);
#712=ORIENTED_EDGE('',*,*,#514,.F.);
#713=ORIENTED_EDGE('',*,*,#518,.F.);
#714=ORIENTED_EDGE('',*,*,#519,.T.);
#715=ORIENTED_EDGE('',*,*,#518,.T.);
#716=ORIENTED_EDGE('',*,*,#513,.F.);
#717=ORIENTED_EDGE('',*,*,#511,.T.);
#718=ORIENTED_EDGE('',*,*,#512,.F.);
#719=ORIENTED_EDGE('',*,*,#509,.F.);
#720=ORIENTED_EDGE('',*,*,#515,.F.);
#721=ORIENTED_EDGE('',*,*,#517,.F.);
#722=ORIENTED_EDGE('',*,*,#490,.T.);
#723=ORIENTED_EDGE('',*,*,#459,.T.);
#724=ORIENTED_EDGE('',*,*,#492,.T.);
#725=ORIENTED_EDGE('',*,*,#494,.T.);
#726=ORIENTED_EDGE('',*,*,#495,.T.);
#727=ORIENTED_EDGE('',*,*,#442,.T.);
#728=ORIENTED_EDGE('',*,*,#497,.T.);
#729=ORIENTED_EDGE('',*,*,#499,.T.);
#730=ORIENTED_EDGE('',*,*,#500,.T.);
#731=ORIENTED_EDGE('',*,*,#425,.T.);
#732=ORIENTED_EDGE('',*,*,#502,.T.);
#733=ORIENTED_EDGE('',*,*,#504,.T.);
#734=ORIENTED_EDGE('',*,*,#519,.F.);
#735=ORIENTED_EDGE('',*,*,#516,.F.);
#736=ORIENTED_EDGE('',*,*,#520,.F.);
#737=ORIENTED_EDGE('',*,*,#521,.T.);
#738=ORIENTED_EDGE('',*,*,#522,.F.);
#739=ORIENTED_EDGE('',*,*,#523,.F.);
#740=ORIENTED_EDGE('',*,*,#524,.F.);
#741=ORIENTED_EDGE('',*,*,#523,.T.);
#742=ORIENTED_EDGE('',*,*,#525,.F.);
#743=ORIENTED_EDGE('',*,*,#521,.F.);
#744=ORIENTED_EDGE('',*,*,#524,.T.);
#745=ORIENTED_EDGE('',*,*,#520,.T.);
#746=ORIENTED_EDGE('',*,*,#525,.T.);
#747=ORIENTED_EDGE('',*,*,#522,.T.);
#748=PLANE('',#858);
#749=PLANE('',#859);
#750=PLANE('',#860);
#751=PLANE('',#861);
#752=PLANE('',#862);
#753=PLANE('',#863);
#754=PLANE('',#864);
#755=PLANE('',#865);
#756=PLANE('',#866);
#757=PLANE('',#867);
#758=PLANE('',#868);
#759=PLANE('',#869);
#760=PLANE('',#870);
#761=PLANE('',#871);
#762=PLANE('',#872);
#763=PLANE('',#873);
#764=PLANE('',#874);
#765=PLANE('',#875);
#766=PLANE('',#876);
#767=PLANE('',#877);
#768=PLANE('',#878);
#769=PLANE('',#879);
#770=PLANE('',#880);
#771=PLANE('',#881);
#772=PLANE('',#882);
#773=PLANE('',#883);
#774=PLANE('',#884);
#775=PLANE('',#885);
#776=PLANE('',#886);
#777=PLANE('',#887);
#778=PLANE('',#888);
#779=PLANE('',#889);
#780=PLANE('',#890);
#781=PLANE('',#894);
#782=PLANE('',#898);
#783=PLANE('',#899);
#784=PLANE('',#903);
#785=PLANE('',#904);
#786=PLANE('',#908);
#787=PLANE('',#909);
#788=PLANE('',#910);
#789=ADVANCED_FACE('',(#41),#748,.T.);
#790=ADVANCED_FACE('',(#42),#749,.T.);
#791=ADVANCED_FACE('',(#43),#750,.T.);
#792=ADVANCED_FACE('',(#44),#751,.T.);
#793=ADVANCED_FACE('',(#45),#752,.T.);
#794=ADVANCED_FACE('',(#46),#753,.T.);
#795=ADVANCED_FACE('',(#47),#754,.T.);
#796=ADVANCED_FACE('',(#48),#755,.T.);
#797=ADVANCED_FACE('',(#49),#756,.T.);
#798=ADVANCED_FACE('',(#50),#757,.T.);
#799=ADVANCED_FACE('',(#51),#758,.T.);
#800=ADVANCED_FACE('',(#52),#759,.T.);
#801=ADVANCED_FACE('',(#53),#760,.T.);
#802=ADVANCED_FACE('',(#54),#761,.T.);
#803=ADVANCED_FACE('',(#55),#762,.T.);
#804=ADVANCED_FACE('',(#56),#763,.T.);
#805=ADVANCED_FACE('',(#57),#764,.T.);
#806=ADVANCED_FACE('',(#58),#765,.T.);
#807=ADVANCED_FACE('',(#59),#766,.T.);
#808=ADVANCED_FACE('',(#60),#767,.T.);
#809=ADVANCED_FACE('',(#61),#768,.T.);
#810=ADVANCED_FACE('',(#62),#769,.T.);
#811=ADVANCED_FACE('',(#63),#770,.T.);
#812=ADVANCED_FACE('',(#64),#771,.T.);
#813=ADVANCED_FACE('',(#65),#772,.T.);
#814=ADVANCED_FACE('',(#66),#773,.T.);
#815=ADVANCED_FACE('',(#67),#774,.T.);
#816=ADVANCED_FACE('',(#68),#775,.T.);
#817=ADVANCED_FACE('',(#69),#776,.T.);
#818=ADVANCED_FACE('',(#70),#777,.T.);
#819=ADVANCED_FACE('',(#71),#778,.T.);
#820=ADVANCED_FACE('',(#72),#779,.T.);
#821=ADVANCED_FACE('',(#73),#780,.T.);
#822=ADVANCED_FACE('',(#74),#27,.T.);
#823=ADVANCED_FACE('',(#75),#781,.T.);
#824=ADVANCED_FACE('',(#76),#28,.T.);
#825=ADVANCED_FACE('',(#77,#15),#782,.T.);
#826=ADVANCED_FACE('',(#78),#783,.T.);
#827=ADVANCED_FACE('',(#79),#29,.T.);
#828=ADVANCED_FACE('',(#80,#16,#17,#18),#784,.T.);
#829=ADVANCED_FACE('',(#81),#785,.F.);
#830=ADVANCED_FACE('',(#82),#30,.T.);
#831=ADVANCED_FACE('',(#83),#786,.T.);
#832=ADVANCED_FACE('',(#84),#787,.T.);
#833=ADVANCED_FACE('',(#85),#788,.F.);
#834=CLOSED_SHELL('',(#789,#790,#791,#792,#793,#794,#795,#796,#797,#798,
#799,#800,#801,#802,#803,#804,#805,#806,#807,#808,#809,#810,#811,#812,#813,
#814,#815,#816,#817,#818,#819,#820,#821,#822,#823,#824,#825,#826,#827,#828,
#829));
#835=CLOSED_SHELL('',(#830,#831,#832,#833));
#836=DERIVED_UNIT_ELEMENT(#839,1.);
#837=DERIVED_UNIT_ELEMENT(#1358,-3.);
#838=DIMENSIONAL_EXPONENTS(0.,1.,0.,0.,0.,0.,0.);
#839=(
CONVERSION_BASED_UNIT('gram',#841)
MASS_UNIT()
NAMED_UNIT(#838)
);
#840=(
MASS_UNIT()
NAMED_UNIT(*)
SI_UNIT(.KILO.,.GRAM.)
);
#841=MASS_MEASURE_WITH_UNIT(MASS_MEASURE(0.001),#840);
#842=DERIVED_UNIT((#836,#837));
#843=MEASURE_REPRESENTATION_ITEM('density measure',
POSITIVE_RATIO_MEASURE(1.),#842);
#844=PROPERTY_DEFINITION_REPRESENTATION(#849,#846);
#845=PROPERTY_DEFINITION_REPRESENTATION(#850,#847);
#846=REPRESENTATION('material name',(#848),#1355);
#847=REPRESENTATION('density',(#843),#1355);
#848=DESCRIPTIVE_REPRESENTATION_ITEM('Generic','Generic');
#849=PROPERTY_DEFINITION('material property','material name',#1365);
#850=PROPERTY_DEFINITION('material property','density of part',#1365);
#851=DATE_TIME_ROLE('creation_date');
#852=APPLIED_DATE_AND_TIME_ASSIGNMENT(#853,#851,(#1365));
#853=DATE_AND_TIME(#854,#855);
#854=CALENDAR_DATE(2025,31,7);
#855=LOCAL_TIME(0,0,0.,#856);
#856=COORDINATED_UNIVERSAL_TIME_OFFSET(0,0,.BEHIND.);
#857=AXIS2_PLACEMENT_3D('',#1122,#911,#912);
#858=AXIS2_PLACEMENT_3D('',#1123,#913,#914);
#859=AXIS2_PLACEMENT_3D('',#1132,#919,#920);
#860=AXIS2_PLACEMENT_3D('',#1138,#924,#925);
#861=AXIS2_PLACEMENT_3D('',#1154,#934,#935);
#862=AXIS2_PLACEMENT_3D('',#1158,#938,#939);
#863=AXIS2_PLACEMENT_3D('',#1167,#944,#945);
#864=AXIS2_PLACEMENT_3D('',#1173,#949,#950);
#865=AXIS2_PLACEMENT_3D('',#1189,#959,#960);
#866=AXIS2_PLACEMENT_3D('',#1193,#963,#964);
#867=AXIS2_PLACEMENT_3D('',#1202,#969,#970);
#868=AXIS2_PLACEMENT_3D('',#1208,#974,#975);
#869=AXIS2_PLACEMENT_3D('',#1224,#984,#985);
#870=AXIS2_PLACEMENT_3D('',#1228,#988,#989);
#871=AXIS2_PLACEMENT_3D('',#1232,#992,#993);
#872=AXIS2_PLACEMENT_3D('',#1236,#996,#997);
#873=AXIS2_PLACEMENT_3D('',#1240,#1000,#1001);
#874=AXIS2_PLACEMENT_3D('',#1244,#1004,#1005);
#875=AXIS2_PLACEMENT_3D('',#1248,#1008,#1009);
#876=AXIS2_PLACEMENT_3D('',#1252,#1012,#1013);
#877=AXIS2_PLACEMENT_3D('',#1256,#1016,#1017);
#878=AXIS2_PLACEMENT_3D('',#1260,#1020,#1021);
#879=AXIS2_PLACEMENT_3D('',#1264,#1024,#1025);
#880=AXIS2_PLACEMENT_3D('',#1268,#1028,#1029);
#881=AXIS2_PLACEMENT_3D('',#1272,#1032,#1033);
#882=AXIS2_PLACEMENT_3D('',#1276,#1036,#1037);
#883=AXIS2_PLACEMENT_3D('',#1280,#1040,#1041);
#884=AXIS2_PLACEMENT_3D('',#1284,#1044,#1045);
#885=AXIS2_PLACEMENT_3D('',#1286,#1047,#1048);
#886=AXIS2_PLACEMENT_3D('',#1290,#1051,#1052);
#887=AXIS2_PLACEMENT_3D('',#1294,#1055,#1056);
#888=AXIS2_PLACEMENT_3D('',#1296,#1058,#1059);
#889=AXIS2_PLACEMENT_3D('',#1300,#1062,#1063);
#890=AXIS2_PLACEMENT_3D('',#1304,#1066,#1067);
#891=AXIS2_PLACEMENT_3D('',#1306,#1069,#1070);
#892=AXIS2_PLACEMENT_3D('',#1308,#1071,#1072);
#893=AXIS2_PLACEMENT_3D('',#1311,#1074,#1075);
#894=AXIS2_PLACEMENT_3D('',#1312,#1076,#1077);
#895=AXIS2_PLACEMENT_3D('',#1313,#1078,#1079);
#896=AXIS2_PLACEMENT_3D('',#1316,#1080,#1081);
#897=AXIS2_PLACEMENT_3D('',#1320,#1083,#1084);
#898=AXIS2_PLACEMENT_3D('',#1322,#1086,#1087);
#899=AXIS2_PLACEMENT_3D('',#1324,#1089,#1090);
#900=AXIS2_PLACEMENT_3D('',#1328,#1092,#1093);
#901=AXIS2_PLACEMENT_3D('',#1330,#1095,#1096);
#902=AXIS2_PLACEMENT_3D('',#1333,#1097,#1098);
#903=AXIS2_PLACEMENT_3D('',#1336,#1101,#1102);
#904=AXIS2_PLACEMENT_3D('',#1338,#1104,#1105);
#905=AXIS2_PLACEMENT_3D('',#1339,#1106,#1107);
#906=AXIS2_PLACEMENT_3D('',#1342,#1108,#1109);
#907=AXIS2_PLACEMENT_3D('',#1346,#1111,#1112);
#908=AXIS2_PLACEMENT_3D('',#1348,#1114,#1115);
#909=AXIS2_PLACEMENT_3D('',#1351,#1118,#1119);
#910=AXIS2_PLACEMENT_3D('',#1352,#1120,#1121);
#911=DIRECTION('axis',(0.,0.,1.));
#912=DIRECTION('refdir',(1.,0.,0.));
#913=DIRECTION('center_axis',(0.707106781186548,0.,0.707106781186547));
#914=DIRECTION('ref_axis',(0.707106781186547,0.,-0.707106781186548));
#915=DIRECTION('',(-0.707106781186547,-7.8504622934189E-16,0.707106781186548));
#916=DIRECTION('',(0.,-1.,0.));
#917=DIRECTION('',(0.707106781186547,-2.61682076447297E-16,-0.707106781186548));
#918=DIRECTION('',(0.,1.,0.));
#919=DIRECTION('center_axis',(0.,0.,1.));
#920=DIRECTION('ref_axis',(1.,0.,0.));
#921=DIRECTION('',(-1.,-1.11022302462516E-15,0.));
#922=DIRECTION('',(0.,1.,0.));
#923=DIRECTION('',(1.,0.,0.));
#924=DIRECTION('center_axis',(-1.11022302462516E-15,1.,0.));
#925=DIRECTION('ref_axis',(-1.,-1.11022302462516E-15,0.));
#926=DIRECTION('',(0.,0.,1.));
#927=DIRECTION('',(-1.,-1.11022302462516E-15,0.));
#928=DIRECTION('',(0.,0.,1.));
#929=DIRECTION('',(1.,1.11022302462516E-15,0.));
#930=DIRECTION('',(0.,0.,1.));
#931=DIRECTION('',(-1.,-1.11022302462516E-15,0.));
#932=DIRECTION('',(0.,0.,1.));
#933=DIRECTION('',(-0.707106781186547,-7.8504622934189E-16,-0.707106781186548));
#934=DIRECTION('center_axis',(-0.707106781186548,0.,0.707106781186547));
#935=DIRECTION('ref_axis',(0.707106781186547,0.,0.707106781186548));
#936=DIRECTION('',(0.707106781186547,-2.61682076447297E-16,0.707106781186548));
#937=DIRECTION('',(0.,-1.,0.));
#938=DIRECTION('center_axis',(0.707106781186548,0.,0.707106781186547));
#939=DIRECTION('ref_axis',(0.707106781186547,0.,-0.707106781186548));
#940=DIRECTION('',(-0.707106781186547,0.,0.707106781186548));
#941=DIRECTION('',(0.,-1.,0.));
#942=DIRECTION('',(0.707106781186547,0.,-0.707106781186548));
#943=DIRECTION('',(0.,1.,0.));
#944=DIRECTION('center_axis',(0.,0.,1.));
#945=DIRECTION('ref_axis',(1.,0.,0.));
#946=DIRECTION('',(-1.,0.,0.));
#947=DIRECTION('',(0.,1.,0.));
#948=DIRECTION('',(1.,1.89242561015652E-16,0.));
#949=DIRECTION('center_axis',(0.,1.,0.));
#950=DIRECTION('ref_axis',(-1.,0.,0.));
#951=DIRECTION('',(0.,0.,1.));
#952=DIRECTION('',(-1.,0.,0.));
#953=DIRECTION('',(0.,0.,1.));
#954=DIRECTION('',(1.,0.,0.));
#955=DIRECTION('',(0.,0.,1.));
#956=DIRECTION('',(-1.,0.,0.));
#957=DIRECTION('',(0.,0.,1.));
#958=DIRECTION('',(-0.707106781186547,0.,-0.707106781186548));
#959=DIRECTION('center_axis',(-0.707106781186548,0.,0.707106781186547));
#960=DIRECTION('ref_axis',(0.707106781186547,0.,0.707106781186548));
#961=DIRECTION('',(0.707106781186547,0.,0.707106781186548));
#962=DIRECTION('',(0.,-1.,0.));
#963=DIRECTION('center_axis',(0.707106781186548,0.,0.707106781186547));
#964=DIRECTION('ref_axis',(0.707106781186547,0.,-0.707106781186548));
#965=DIRECTION('',(-0.707106781186547,-1.04672830578919E-15,0.707106781186548));
#966=DIRECTION('',(0.,-1.,0.));
#967=DIRECTION('',(0.707106781186547,0.,-0.707106781186548));
#968=DIRECTION('',(0.,1.,0.));
#969=DIRECTION('center_axis',(0.,0.,1.));
#970=DIRECTION('ref_axis',(1.,0.,0.));
#971=DIRECTION('',(-1.,-1.48029736616688E-15,0.));
#972=DIRECTION('',(-2.7755575615629E-16,1.,0.));
#973=DIRECTION('',(1.,0.,0.));
#974=DIRECTION('center_axis',(-1.48029736616688E-15,1.,0.));
#975=DIRECTION('ref_axis',(-1.,-1.48029736616688E-15,0.));
#976=DIRECTION('',(0.,0.,1.));
#977=DIRECTION('',(-1.,-1.48029736616688E-15,0.));
#978=DIRECTION('',(0.,0.,1.));
#979=DIRECTION('',(1.,1.48029736616688E-15,0.));
#980=DIRECTION('',(0.,0.,1.));
#981=DIRECTION('',(-1.,-1.48029736616688E-15,0.));
#982=DIRECTION('',(0.,0.,1.));
#983=DIRECTION('',(-0.707106781186547,-1.04672830578919E-15,-0.707106781186548));
#984=DIRECTION('center_axis',(-0.707106781186548,-1.96261557335472E-16,
0.707106781186547));
#985=DIRECTION('ref_axis',(0.707106781186547,0.,0.707106781186548));
#986=DIRECTION('',(0.707106781186547,0.,0.707106781186548));
#987=DIRECTION('',(2.7755575615629E-16,-1.,0.));
#988=DIRECTION('center_axis',(-1.,0.,0.));
#989=DIRECTION('ref_axis',(0.,-1.,0.));
#990=DIRECTION('',(0.,1.,0.));
#991=DIRECTION('',(0.,0.,1.));
#992=DIRECTION('center_axis',(1.,0.,0.));
#993=DIRECTION('ref_axis',(0.,1.,0.));
#994=DIRECTION('',(0.,0.,1.));
#995=DIRECTION('',(0.,-1.,0.));
#996=DIRECTION('center_axis',(-1.,0.,0.));
#997=DIRECTION('ref_axis',(0.,-1.,0.));
#998=DIRECTION('',(0.,1.,0.));
#999=DIRECTION('',(0.,0.,1.));
#1000=DIRECTION('center_axis',(1.,0.,0.));
#1001=DIRECTION('ref_axis',(0.,1.,0.));
#1002=DIRECTION('',(0.,0.,1.));
#1003=DIRECTION('',(0.,-1.,0.));
#1004=DIRECTION('center_axis',(-1.,-2.7755575615629E-16,0.));
#1005=DIRECTION('ref_axis',(2.7755575615629E-16,-1.,0.));
#1006=DIRECTION('',(-2.7755575615629E-16,1.,0.));
#1007=DIRECTION('',(0.,0.,1.));
#1008=DIRECTION('center_axis',(1.,0.,0.));
#1009=DIRECTION('ref_axis',(0.,1.,0.));
#1010=DIRECTION('',(0.,0.,1.));
#1011=DIRECTION('',(0.,-1.,0.));
#1012=DIRECTION('center_axis',(0.,0.,1.));
#1013=DIRECTION('ref_axis',(1.,0.,0.));
#1014=DIRECTION('',(0.,-1.,0.));
#1015=DIRECTION('',(1.,-3.7007434154172E-16,0.));
#1016=DIRECTION('center_axis',(0.,0.,1.));
#1017=DIRECTION('ref_axis',(1.,0.,0.));
#1018=DIRECTION('',(1.,-3.7007434154172E-16,0.));
#1019=DIRECTION('',(0.,1.,0.));
#1020=DIRECTION('center_axis',(0.,0.,1.));
#1021=DIRECTION('ref_axis',(1.,0.,0.));
#1022=DIRECTION('',(-4.44089209850062E-15,-1.,0.));
#1023=DIRECTION('',(1.,0.,0.));
#1024=DIRECTION('center_axis',(0.,0.,1.));
#1025=DIRECTION('ref_axis',(1.,0.,0.));
#1026=DIRECTION('',(1.,0.,0.));
#1027=DIRECTION('',(-4.44089209850062E-15,1.,0.));
#1028=DIRECTION('center_axis',(0.,0.,1.));
#1029=DIRECTION('ref_axis',(1.,0.,0.));
#1030=DIRECTION('',(5.55111512312578E-16,-1.,0.));
#1031=DIRECTION('',(1.,0.,0.));
#1032=DIRECTION('center_axis',(0.,0.,1.));
#1033=DIRECTION('ref_axis',(1.,0.,0.));
#1034=DIRECTION('',(1.,0.,0.));
#1035=DIRECTION('',(0.,1.,0.));
#1036=DIRECTION('center_axis',(-1.,-5.55111512312578E-16,0.));
#1037=DIRECTION('ref_axis',(5.55111512312578E-16,-1.,0.));
#1038=DIRECTION('',(-5.55111512312578E-16,1.,0.));
#1039=DIRECTION('',(0.,0.,1.));
#1040=DIRECTION('center_axis',(1.,0.,0.));
#1041=DIRECTION('ref_axis',(0.,1.,0.));
#1042=DIRECTION('',(0.,-1.,0.));
#1043=DIRECTION('',(0.,0.,1.));
#1044=DIRECTION('center_axis',(0.,-1.,0.));
#1045=DIRECTION('ref_axis',(1.,0.,0.));
#1046=DIRECTION('',(-1.,0.,0.));
#1047=DIRECTION('center_axis',(-1.,4.44089209850062E-15,0.));
#1048=DIRECTION('ref_axis',(-4.44089209850062E-15,-1.,0.));
#1049=DIRECTION('',(4.44089209850062E-15,1.,0.));
#1050=DIRECTION('',(0.,0.,1.));
#1051=DIRECTION('center_axis',(1.,4.44089209850062E-15,0.));
#1052=DIRECTION('ref_axis',(-4.44089209850062E-15,1.,0.));
#1053=DIRECTION('',(4.44089209850062E-15,-1.,0.));
#1054=DIRECTION('',(0.,0.,1.));
#1055=DIRECTION('center_axis',(0.,-1.,0.));
#1056=DIRECTION('ref_axis',(1.,0.,0.));
#1057=DIRECTION('',(-1.,0.,0.));
#1058=DIRECTION('center_axis',(-1.,0.,0.));
#1059=DIRECTION('ref_axis',(0.,-1.,0.));
#1060=DIRECTION('',(0.,1.,0.));
#1061=DIRECTION('',(0.,0.,1.));
#1062=DIRECTION('center_axis',(1.,0.,0.));
#1063=DIRECTION('ref_axis',(0.,1.,0.));
#1064=DIRECTION('',(0.,-1.,0.));
#1065=DIRECTION('',(0.,0.,1.));
#1066=DIRECTION('center_axis',(-3.7007434154172E-16,-1.,0.));
#1067=DIRECTION('ref_axis',(1.,-3.7007434154172E-16,0.));
#1068=DIRECTION('',(-1.,3.7007434154172E-16,0.));
#1069=DIRECTION('center_axis',(0.,1.,0.));
#1070=DIRECTION('ref_axis',(1.,0.,0.));
#1071=DIRECTION('center_axis',(0.,1.,0.));
#1072=DIRECTION('ref_axis',(1.,0.,0.));
#1073=DIRECTION('',(0.,-1.,0.));
#1074=DIRECTION('center_axis',(0.,-1.,0.));
#1075=DIRECTION('ref_axis',(1.,0.,0.));
#1076=DIRECTION('center_axis',(0.,1.,0.));
#1077=DIRECTION('ref_axis',(0.,0.,1.));
#1078=DIRECTION('center_axis',(0.,1.,0.));
#1079=DIRECTION('ref_axis',(-3.82856869892695E-16,0.,-1.));
#1080=DIRECTION('center_axis',(0.,-1.,0.));
#1081=DIRECTION('ref_axis',(1.,0.,0.));
#1082=DIRECTION('',(0.,1.,0.));
#1083=DIRECTION('center_axis',(0.,1.,0.));
#1084=DIRECTION('ref_axis',(1.,0.,0.));
#1085=DIRECTION('',(0.,1.,0.));
#1086=DIRECTION('center_axis',(0.,1.,0.));
#1087=DIRECTION('ref_axis',(0.,0.,1.));
#1088=DIRECTION('',(1.,0.,-6.50198942825726E-17));
#1089=DIRECTION('center_axis',(0.,1.,0.));
#1090=DIRECTION('ref_axis',(0.,0.,1.));
#1091=DIRECTION('',(1.,0.,0.));
#1092=DIRECTION('center_axis',(0.,1.,0.));
#1093=DIRECTION('ref_axis',(-1.,0.,0.));
#1094=DIRECTION('',(1.,0.,0.));
#1095=DIRECTION('center_axis',(0.,1.,0.));
#1096=DIRECTION('ref_axis',(1.83697019872103E-16,0.,-1.));
#1097=DIRECTION('center_axis',(0.,1.,0.));
#1098=DIRECTION('ref_axis',(-1.,0.,0.));
#1099=DIRECTION('',(0.,1.,0.));
#1100=DIRECTION('',(0.,1.,0.));
#1101=DIRECTION('center_axis',(0.,0.,1.));
#1102=DIRECTION('ref_axis',(1.,0.,0.));
#1103=DIRECTION('',(1.,0.,0.));
#1104=DIRECTION('center_axis',(0.,1.,0.));
#1105=DIRECTION('ref_axis',(0.,0.,1.));
#1106=DIRECTION('center_axis',(0.,-1.,0.));
#1107=DIRECTION('ref_axis',(-4.31753398465339E-16,0.,-1.));
#1108=DIRECTION('center_axis',(0.,1.,0.));
#1109=DIRECTION('ref_axis',(0.458122847290852,0.,0.888888888888888));
#1110=DIRECTION('',(0.,-1.,0.));
#1111=DIRECTION('center_axis',(0.,-1.,0.));
#1112=DIRECTION('ref_axis',(0.458122847290852,0.,0.888888888888888));
#1113=DIRECTION('',(0.,-1.,0.));
#1114=DIRECTION('center_axis',(2.6926863520719E-16,0.,1.));
#1115=DIRECTION('ref_axis',(-1.,0.,2.6926863520719E-16));
#1116=DIRECTION('',(1.,0.,-2.6926863520719E-16));
#1117=DIRECTION('',(-1.,0.,2.6926863520719E-16));
#1118=DIRECTION('center_axis',(0.,1.,0.));
#1119=DIRECTION('ref_axis',(0.,0.,1.));
#1120=DIRECTION('center_axis',(0.,1.,0.));
#1121=DIRECTION('ref_axis',(0.,0.,1.));
#1122=CARTESIAN_POINT('',(0.,0.,0.));
#1123=CARTESIAN_POINT('Origin',(2.8,2.825,9.75));
#1124=CARTESIAN_POINT('',(3.05,3.2,9.5));
#1125=CARTESIAN_POINT('',(2.55,3.2,10.));
#1126=CARTESIAN_POINT('',(4.35,3.2,8.2));
#1127=CARTESIAN_POINT('',(2.55,2.7,10.));
#1128=CARTESIAN_POINT('',(2.55,2.825,10.));
#1129=CARTESIAN_POINT('',(3.05,2.7,9.5));
#1130=CARTESIAN_POINT('',(3.975,2.7,8.575));
#1131=CARTESIAN_POINT('',(3.05,2.825,9.5));
#1132=CARTESIAN_POINT('Origin',(2.5,2.95,10.));
#1133=CARTESIAN_POINT('',(2.45,3.2,10.));
#1134=CARTESIAN_POINT('',(3.25,3.2,10.));
#1135=CARTESIAN_POINT('',(2.45,2.7,10.));
#1136=CARTESIAN_POINT('',(2.45,3.075,10.));
#1137=CARTESIAN_POINT('',(1.95,2.7,10.));
#1138=CARTESIAN_POINT('Origin',(3.25,3.2,4.));
#1139=CARTESIAN_POINT('',(3.05,3.2,7.));
#1140=CARTESIAN_POINT('',(3.05,3.2,7.));
#1141=CARTESIAN_POINT('',(3.25,3.2,7.));
#1142=CARTESIAN_POINT('',(3.25,3.2,7.));
#1143=CARTESIAN_POINT('',(3.25,3.2,4.));
#1144=CARTESIAN_POINT('',(3.25,3.2,4.));
#1145=CARTESIAN_POINT('',(1.75,3.2,4.));
#1146=CARTESIAN_POINT('',(-0.509391013849153,3.19999999999999,4.));
#1147=CARTESIAN_POINT('',(1.75,3.2,7.));
#1148=CARTESIAN_POINT('',(1.75,3.2,4.));
#1149=CARTESIAN_POINT('',(1.95,3.2,7.));
#1150=CARTESIAN_POINT('',(3.25,3.2,7.));
#1151=CARTESIAN_POINT('',(1.95,3.2,9.5));
#1152=CARTESIAN_POINT('',(1.95,3.2,7.));
#1153=CARTESIAN_POINT('',(1.025,3.2,8.575));
#1154=CARTESIAN_POINT('Origin',(2.2,3.075,9.75));
#1155=CARTESIAN_POINT('',(1.95,2.7,9.5));
#1156=CARTESIAN_POINT('',(0.649999999999999,2.7,8.2));
#1157=CARTESIAN_POINT('',(1.95,3.075,9.5));
#1158=CARTESIAN_POINT('Origin',(0.3,0.324999999999998,9.75));
#1159=CARTESIAN_POINT('',(0.55,0.699999999999998,9.5));
#1160=CARTESIAN_POINT('',(0.0499999999999999,0.699999999999998,10.));
#1161=CARTESIAN_POINT('',(1.85,0.699999999999998,8.2));
#1162=CARTESIAN_POINT('',(0.0499999999999999,0.199999999999997,10.));
#1163=CARTESIAN_POINT('',(0.0499999999999999,0.324999999999998,10.));
#1164=CARTESIAN_POINT('',(0.55,0.199999999999998,9.5));
#1165=CARTESIAN_POINT('',(1.475,0.199999999999997,8.575));
#1166=CARTESIAN_POINT('',(0.55,0.324999999999998,9.5));
#1167=CARTESIAN_POINT('Origin',(0.,0.449999999999998,10.));
#1168=CARTESIAN_POINT('',(-0.0499999999999999,0.699999999999998,10.));
#1169=CARTESIAN_POINT('',(0.749999999999997,0.699999999999998,10.));
#1170=CARTESIAN_POINT('',(-0.0499999999999999,0.199999999999997,10.));
#1171=CARTESIAN_POINT('',(-0.0499999999999999,0.574999999999998,10.));
#1172=CARTESIAN_POINT('',(-0.55,0.199999999999997,10.));
#1173=CARTESIAN_POINT('Origin',(0.749999999999997,0.699999999999998,4.));
#1174=CARTESIAN_POINT('',(0.55,0.699999999999998,7.));
#1175=CARTESIAN_POINT('',(0.55,0.699999999999998,7.));
#1176=CARTESIAN_POINT('',(0.749999999999997,0.699999999999998,7.));
#1177=CARTESIAN_POINT('',(0.749999999999997,0.699999999999998,7.));
#1178=CARTESIAN_POINT('',(0.749999999999997,0.699999999999998,4.));
#1179=CARTESIAN_POINT('',(0.749999999999997,0.699999999999998,4.));
#1180=CARTESIAN_POINT('',(-0.749999999999997,0.699999999999998,4.));
#1181=CARTESIAN_POINT('',(-1.75939101384915,0.699999999999998,4.));
#1182=CARTESIAN_POINT('',(-0.749999999999997,0.699999999999998,7.));
#1183=CARTESIAN_POINT('',(-0.749999999999997,0.699999999999998,4.));
#1184=CARTESIAN_POINT('',(-0.55,0.699999999999998,7.));
#1185=CARTESIAN_POINT('',(0.749999999999997,0.699999999999998,7.));
#1186=CARTESIAN_POINT('',(-0.55,0.699999999999998,9.5));
#1187=CARTESIAN_POINT('',(-0.55,0.699999999999998,7.));
#1188=CARTESIAN_POINT('',(-1.475,0.699999999999998,8.575));
#1189=CARTESIAN_POINT('Origin',(-0.3,0.574999999999998,9.75));
#1190=CARTESIAN_POINT('',(-0.55,0.199999999999997,9.5));
#1191=CARTESIAN_POINT('',(-1.85,0.199999999999997,8.2));
#1192=CARTESIAN_POINT('',(-0.55,0.574999999999998,9.5));
#1193=CARTESIAN_POINT('Origin',(-2.2,2.825,9.75));
#1194=CARTESIAN_POINT('',(-1.95,3.2,9.5));
#1195=CARTESIAN_POINT('',(-2.45,3.2,10.));
#1196=CARTESIAN_POINT('',(-0.65,3.2,8.2));
#1197=CARTESIAN_POINT('',(-2.45,2.7,10.));
#1198=CARTESIAN_POINT('',(-2.45,2.825,10.));
#1199=CARTESIAN_POINT('',(-1.95,2.7,9.5));
#1200=CARTESIAN_POINT('',(-1.025,2.7,8.575));
#1201=CARTESIAN_POINT('',(-1.95,2.825,9.5));
#1202=CARTESIAN_POINT('Origin',(-2.5,2.95,10.));
#1203=CARTESIAN_POINT('',(-2.55,3.2,10.));
#1204=CARTESIAN_POINT('',(-1.75,3.2,10.));
#1205=CARTESIAN_POINT('',(-2.55,2.7,10.));
#1206=CARTESIAN_POINT('',(-2.55,3.075,10.));
#1207=CARTESIAN_POINT('',(-3.05,2.7,10.));
#1208=CARTESIAN_POINT('Origin',(-1.75,3.2,4.));
#1209=CARTESIAN_POINT('',(-1.95,3.2,7.));
#1210=CARTESIAN_POINT('',(-1.95,3.2,7.));
#1211=CARTESIAN_POINT('',(-1.75,3.2,7.));
#1212=CARTESIAN_POINT('',(-1.75,3.2,7.));
#1213=CARTESIAN_POINT('',(-1.75,3.2,4.));
#1214=CARTESIAN_POINT('',(-1.75,3.2,4.));
#1215=CARTESIAN_POINT('',(-3.25,3.2,4.));
#1216=CARTESIAN_POINT('',(-3.00939101384915,3.2,4.));
#1217=CARTESIAN_POINT('',(-3.25,3.2,7.));
#1218=CARTESIAN_POINT('',(-3.25,3.2,4.));
#1219=CARTESIAN_POINT('',(-3.05,3.2,7.));
#1220=CARTESIAN_POINT('',(-1.75,3.2,7.));
#1221=CARTESIAN_POINT('',(-3.05,3.2,9.5));
#1222=CARTESIAN_POINT('',(-3.05,3.2,7.));
#1223=CARTESIAN_POINT('',(-3.975,3.19999999999999,8.575));
#1224=CARTESIAN_POINT('Origin',(-2.8,3.075,9.75));
#1225=CARTESIAN_POINT('',(-3.05,2.7,9.5));
#1226=CARTESIAN_POINT('',(-4.35,2.7,8.2));
#1227=CARTESIAN_POINT('',(-3.05,3.075,9.5));
#1228=CARTESIAN_POINT('Origin',(1.95,3.2,7.));
#1229=CARTESIAN_POINT('',(1.95,2.7,7.));
#1230=CARTESIAN_POINT('',(1.95,3.075,7.));
#1231=CARTESIAN_POINT('',(1.95,2.7,7.));
#1232=CARTESIAN_POINT('Origin',(3.05,2.7,7.));
#1233=CARTESIAN_POINT('',(3.05,2.7,7.));
#1234=CARTESIAN_POINT('',(3.05,2.7,7.));
#1235=CARTESIAN_POINT('',(3.05,2.825,7.));
#1236=CARTESIAN_POINT('Origin',(-0.55,0.699999999999998,7.));
#1237=CARTESIAN_POINT('',(-0.55,0.199999999999997,7.));
#1238=CARTESIAN_POINT('',(-0.55,0.574999999999998,7.));
#1239=CARTESIAN_POINT('',(-0.55,0.199999999999997,7.));
#1240=CARTESIAN_POINT('Origin',(0.55,0.199999999999998,7.));
#1241=CARTESIAN_POINT('',(0.55,0.199999999999998,7.));
#1242=CARTESIAN_POINT('',(0.55,0.199999999999998,7.));
#1243=CARTESIAN_POINT('',(0.55,0.324999999999998,7.));
#1244=CARTESIAN_POINT('Origin',(-3.05,3.2,7.));
#1245=CARTESIAN_POINT('',(-3.05,2.7,7.));
#1246=CARTESIAN_POINT('',(-3.05,3.075,7.));
#1247=CARTESIAN_POINT('',(-3.05,2.7,7.));
#1248=CARTESIAN_POINT('Origin',(-1.95,2.7,7.));
#1249=CARTESIAN_POINT('',(-1.95,2.7,7.));
#1250=CARTESIAN_POINT('',(-1.95,2.7,7.));
#1251=CARTESIAN_POINT('',(-1.95,2.825,7.));
#1252=CARTESIAN_POINT('Origin',(2.5,2.95,7.));
#1253=CARTESIAN_POINT('',(1.75,2.7,7.));
#1254=CARTESIAN_POINT('',(1.75,3.2,7.));
#1255=CARTESIAN_POINT('',(1.75,2.7,7.));
#1256=CARTESIAN_POINT('Origin',(2.5,2.95,7.));
#1257=CARTESIAN_POINT('',(3.25,2.7,7.));
#1258=CARTESIAN_POINT('',(1.75,2.7,7.));
#1259=CARTESIAN_POINT('',(3.25,2.7,7.));
#1260=CARTESIAN_POINT('Origin',(0.,0.449999999999998,7.));
#1261=CARTESIAN_POINT('',(-0.75,0.199999999999997,7.));
#1262=CARTESIAN_POINT('',(-0.749999999999997,0.699999999999998,7.));
#1263=CARTESIAN_POINT('',(-0.75,0.199999999999997,7.));
#1264=CARTESIAN_POINT('Origin',(0.,0.449999999999998,7.));
#1265=CARTESIAN_POINT('',(0.75,0.199999999999997,7.));
#1266=CARTESIAN_POINT('',(-0.75,0.199999999999997,7.));
#1267=CARTESIAN_POINT('',(0.75,0.199999999999997,7.));
#1268=CARTESIAN_POINT('Origin',(-2.5,2.95,7.));
#1269=CARTESIAN_POINT('',(-3.25,2.7,7.));
#1270=CARTESIAN_POINT('',(-3.25,3.2,7.));
#1271=CARTESIAN_POINT('',(-3.25,2.7,7.));
#1272=CARTESIAN_POINT('Origin',(-2.5,2.95,7.));
#1273=CARTESIAN_POINT('',(-1.75,2.7,7.));
#1274=CARTESIAN_POINT('',(-3.25,2.7,7.));
#1275=CARTESIAN_POINT('',(-1.75,2.7,7.));
#1276=CARTESIAN_POINT('Origin',(-3.25,3.2,4.));
#1277=CARTESIAN_POINT('',(-3.25,2.7,4.));
#1278=CARTESIAN_POINT('',(-3.25,1.6,4.));
#1279=CARTESIAN_POINT('',(-3.25,2.7,4.));
#1280=CARTESIAN_POINT('Origin',(-1.75,2.7,4.));
#1281=CARTESIAN_POINT('',(-1.75,2.7,4.));
#1282=CARTESIAN_POINT('',(-1.75,1.35,4.));
#1283=CARTESIAN_POINT('',(-1.75,2.7,4.));
#1284=CARTESIAN_POINT('Origin',(-3.25,2.7,4.));
#1285=CARTESIAN_POINT('',(-3.75939101384915,2.7,4.));
#1286=CARTESIAN_POINT('Origin',(-0.749999999999997,0.699999999999998,4.));
#1287=CARTESIAN_POINT('',(-0.75,0.199999999999997,4.));
#1288=CARTESIAN_POINT('',(-0.749999999999999,0.349999999999991,4.));
#1289=CARTESIAN_POINT('',(-0.75,0.199999999999997,4.));
#1290=CARTESIAN_POINT('Origin',(0.75,0.199999999999997,4.));
#1291=CARTESIAN_POINT('',(0.75,0.199999999999997,4.));
#1292=CARTESIAN_POINT('',(0.75,0.10000000000001,4.));
#1293=CARTESIAN_POINT('',(0.75,0.199999999999997,4.));
#1294=CARTESIAN_POINT('Origin',(-0.75,0.199999999999997,4.));
#1295=CARTESIAN_POINT('',(-2.50939101384915,0.199999999999997,4.));
#1296=CARTESIAN_POINT('Origin',(1.75,3.2,4.));
#1297=CARTESIAN_POINT('',(1.75,2.7,4.));
#1298=CARTESIAN_POINT('',(1.75,1.6,4.));
#1299=CARTESIAN_POINT('',(1.75,2.7,4.));
#1300=CARTESIAN_POINT('Origin',(3.25,2.7,4.));
#1301=CARTESIAN_POINT('',(3.25,2.7,4.));
#1302=CARTESIAN_POINT('',(3.25,1.35,4.));
#1303=CARTESIAN_POINT('',(3.25,2.7,4.));
#1304=CARTESIAN_POINT('Origin',(1.75,2.7,4.));
#1305=CARTESIAN_POINT('',(-1.25939101384915,2.7,4.));
#1306=CARTESIAN_POINT('Origin',(0.,13.,0.));
#1307=CARTESIAN_POINT('',(-2.,37.5,2.44929359829471E-16));
#1308=CARTESIAN_POINT('Origin',(0.,37.5,0.));
#1309=CARTESIAN_POINT('',(-2.,13.,2.44929359829471E-16));
#1310=CARTESIAN_POINT('',(-2.,13.,2.44929359829471E-16));
#1311=CARTESIAN_POINT('Origin',(0.,13.,0.));
#1312=CARTESIAN_POINT('Origin',(0.,37.5,0.));
#1313=CARTESIAN_POINT('Origin',(0.,7.5,0.));
#1314=CARTESIAN_POINT('',(-2.06155281280883,7.5,4.));
#1315=CARTESIAN_POINT('',(2.06155281280884,7.5,4.));
#1316=CARTESIAN_POINT('Origin',(0.,7.5,0.));
#1317=CARTESIAN_POINT('',(-2.06155281280883,13.,4.));
#1318=CARTESIAN_POINT('',(-2.06155281280883,7.5,4.));
#1319=CARTESIAN_POINT('',(2.06155281280884,13.,4.));
#1320=CARTESIAN_POINT('Origin',(0.,13.,0.));
#1321=CARTESIAN_POINT('',(2.06155281280884,7.5,4.));
#1322=CARTESIAN_POINT('Origin',(0.,13.,-0.250000000000001));
#1323=CARTESIAN_POINT('',(-4.2687820276983,13.,4.));
#1324=CARTESIAN_POINT('Origin',(0.,7.5,-0.925));
#1325=CARTESIAN_POINT('',(4.2687820276983,7.5,4.));
#1326=CARTESIAN_POINT('',(-5.,7.5,4.));
#1327=CARTESIAN_POINT('',(-4.2687820276983,7.5,4.));
#1328=CARTESIAN_POINT('Origin',(0.,7.5,0.));
#1329=CARTESIAN_POINT('',(-5.,7.5,4.));
#1330=CARTESIAN_POINT('Origin',(0.,0.,0.));
#1331=CARTESIAN_POINT('',(4.2687820276983,0.,4.));
#1332=CARTESIAN_POINT('',(-4.2687820276983,0.,4.));
#1333=CARTESIAN_POINT('Origin',(0.,0.,0.));
#1334=CARTESIAN_POINT('',(-4.2687820276983,0.,4.));
#1335=CARTESIAN_POINT('',(4.2687820276983,0.,4.));
#1336=CARTESIAN_POINT('Origin',(-4.2687820276983,0.,4.));
#1337=CARTESIAN_POINT('',(-5.,0.,4.));
#1338=CARTESIAN_POINT('Origin',(0.,0.,-0.925));
#1339=CARTESIAN_POINT('Origin',(0.,13.,0.));
#1340=CARTESIAN_POINT('',(2.06155281280884,13.,4.));
#1341=CARTESIAN_POINT('',(-2.06155281280883,13.,4.));
#1342=CARTESIAN_POINT('Origin',(0.,13.,0.));
#1343=CARTESIAN_POINT('',(2.06155281280884,0.999999999999996,4.));
#1344=CARTESIAN_POINT('',(2.06155281280884,13.,4.));
#1345=CARTESIAN_POINT('',(-2.06155281280883,0.999999999999996,4.));
#1346=CARTESIAN_POINT('Origin',(0.,0.999999999999996,0.));
#1347=CARTESIAN_POINT('',(-2.06155281280883,13.,4.));
#1348=CARTESIAN_POINT('Origin',(2.06155281280884,13.,4.));
#1349=CARTESIAN_POINT('',(-2.06155281280883,13.,4.));
#1350=CARTESIAN_POINT('',(-2.06155281280883,0.999999999999996,4.));
#1351=CARTESIAN_POINT('Origin',(0.,13.,-0.250000000000001));
#1352=CARTESIAN_POINT('Origin',(0.,0.999999999999996,-0.250000000000001));
#1353=UNCERTAINTY_MEASURE_WITH_UNIT(LENGTH_MEASURE(0.01),#1357,
'DISTANCE_ACCURACY_VALUE',
'Maximum model space distance between geometric entities at asserted c
onnectivities');
#1354=UNCERTAINTY_MEASURE_WITH_UNIT(LENGTH_MEASURE(0.01),#1357,
'DISTANCE_ACCURACY_VALUE',
'Maximum model space distance between geometric entities at asserted c
onnectivities');
#1355=(
GEOMETRIC_REPRESENTATION_CONTEXT(3)
GLOBAL_UNCERTAINTY_ASSIGNED_CONTEXT((#1353))
GLOBAL_UNIT_ASSIGNED_CONTEXT((#1357,#1359,#1360))
REPRESENTATION_CONTEXT('','3D')
);
#1356=(
GEOMETRIC_REPRESENTATION_CONTEXT(3)
GLOBAL_UNCERTAINTY_ASSIGNED_CONTEXT((#1354))
GLOBAL_UNIT_ASSIGNED_CONTEXT((#1357,#1359,#1360))
REPRESENTATION_CONTEXT('','3D')
);
#1357=(
LENGTH_UNIT()
NAMED_UNIT(*)
SI_UNIT(.MILLI.,.METRE.)
);
#1358=(
LENGTH_UNIT()
NAMED_UNIT(*)
SI_UNIT(.CENTI.,.METRE.)
);
#1359=(
NAMED_UNIT(*)
PLANE_ANGLE_UNIT()
SI_UNIT($,.RADIAN.)
);
#1360=(
NAMED_UNIT(*)
SI_UNIT($,.STERADIAN.)
SOLID_ANGLE_UNIT()
);
#1361=SHAPE_DEFINITION_REPRESENTATION(#1362,#1363);
#1362=PRODUCT_DEFINITION_SHAPE('',$,#1365);
#1363=SHAPE_REPRESENTATION('',(#857),#1355);
#1364=PRODUCT_DEFINITION_CONTEXT('part definition',#1369,'design');
#1365=PRODUCT_DEFINITION('SMC10H04','SMC10H04',#1366,#1364);
#1366=PRODUCT_DEFINITION_FORMATION('',$,#1371);
#1367=PRODUCT_RELATED_PRODUCT_CATEGORY('SMC10H04','SMC10H04',(#1371));
#1368=APPLICATION_PROTOCOL_DEFINITION('international standard',
'automotive_design',2009,#1369);
#1369=APPLICATION_CONTEXT(
'Core Data for Automotive Mechanical Design Process');
#1370=PRODUCT_CONTEXT('part definition',#1369,'mechanical');
#1371=PRODUCT('SMC10H04','SMC10H04',$,(#1370));
#1372=PRESENTATION_STYLE_ASSIGNMENT((#1376));
#1373=PRESENTATION_STYLE_ASSIGNMENT((#1377));
#1374=PRESENTATION_STYLE_ASSIGNMENT((#1378));
#1375=PRESENTATION_STYLE_ASSIGNMENT((#1379));
#1376=SURFACE_STYLE_USAGE(.BOTH.,#1388);
#1377=SURFACE_STYLE_USAGE(.BOTH.,#1389);
#1378=SURFACE_STYLE_USAGE(.BOTH.,#1390);
#1379=SURFACE_STYLE_USAGE(.BOTH.,#1391);
#1380=SURFACE_STYLE_RENDERING_WITH_PROPERTIES($,#1404,(#1384));
#1381=SURFACE_STYLE_RENDERING_WITH_PROPERTIES($,#1405,(#1385));
#1382=SURFACE_STYLE_RENDERING_WITH_PROPERTIES($,#1406,(#1386));
#1383=SURFACE_STYLE_RENDERING_WITH_PROPERTIES($,#1407,(#1387));
#1384=SURFACE_STYLE_TRANSPARENT(0.);
#1385=SURFACE_STYLE_TRANSPARENT(0.);
#1386=SURFACE_STYLE_TRANSPARENT(0.);
#1387=SURFACE_STYLE_TRANSPARENT(0.449999988079071);
#1388=SURFACE_SIDE_STYLE('',(#1392,#1380));
#1389=SURFACE_SIDE_STYLE('',(#1393,#1381));
#1390=SURFACE_SIDE_STYLE('',(#1394,#1382));
#1391=SURFACE_SIDE_STYLE('',(#1395,#1383));
#1392=SURFACE_STYLE_FILL_AREA(#1396);
#1393=SURFACE_STYLE_FILL_AREA(#1397);
#1394=SURFACE_STYLE_FILL_AREA(#1398);
#1395=SURFACE_STYLE_FILL_AREA(#1399);
#1396=FILL_AREA_STYLE('',(#1400));
#1397=FILL_AREA_STYLE('',(#1401));
#1398=FILL_AREA_STYLE('',(#1402));
#1399=FILL_AREA_STYLE('',(#1403));
#1400=FILL_AREA_STYLE_COLOUR('',#1404);
#1401=FILL_AREA_STYLE_COLOUR('',#1405);
#1402=FILL_AREA_STYLE_COLOUR('',#1406);
#1403=FILL_AREA_STYLE_COLOUR('',#1407);
#1404=COLOUR_RGB('',0.749019607843137,0.749019607843137,0.749019607843137);
#1405=COLOUR_RGB('',0.250980392156863,0.250980392156863,0.250980392156863);
#1406=COLOUR_RGB('',0.96078431372549,0.96078431372549,0.96078431372549);
#1407=COLOUR_RGB('',0.450980392156863,0.27843137254902,0.0392156862745098);
ENDSEC;
END-ISO-10303-21;
