ISO-10303-21;
HEADER;
/* Generated by software containing ST-Developer
 * from STEP Tools, Inc. (www.steptools.com) 
 */

FILE_DESCRIPTION(
/* description */ (''),
/* implementation_level */ '2;1');

FILE_NAME(
/* name */ 'ZS1052_S_HT.stp',
/* time_stamp */ '2025-07-31T17:16:26-04:00',
/* author */ ('user'),
/* organization */ (''),
/* preprocessor_version */ 'ST-DEVELOPER v20.1',
/* originating_system */ 'Autodesk Inventor 2026',
/* authorisation */ '');

FILE_SCHEMA (('AUTOMOTIVE_DESIGN { 1 0 10303 214 3 1 1 }'));
ENDSEC;

DATA;
#10=MECHANICAL_DESIGN_GEOMETRIC_PRESENTATION_REPRESENTATION('',(#707,#708,
#709,#710,#711,#712,#713,#714,#715,#716,#717,#718,#719,#720,#721,#722),
#1221);
#11=SHAPE_REPRESENTATION_RELATIONSHIP('SRR','None',#1228,#12);
#12=ADVANCED_BREP_SHAPE_REPRESENTATION('',(#13),#1220);
#13=MANIFOLD_SOLID_BREP('Solid1',#762);
#14=FACE_BOUND('',#330,.T.);
#15=LINE('',#1019,#115);
#16=LINE('',#1021,#116);
#17=LINE('',#1023,#117);
#18=LINE('',#1024,#118);
#19=LINE('',#1028,#119);
#20=LINE('',#1029,#120);
#21=LINE('',#1031,#121);
#22=LINE('',#1032,#122);
#23=LINE('',#1035,#123);
#24=LINE('',#1037,#124);
#25=LINE('',#1038,#125);
#26=LINE('',#1041,#126);
#27=LINE('',#1042,#127);
#28=LINE('',#1043,#128);
#29=LINE('',#1045,#129);
#30=LINE('',#1050,#130);
#31=LINE('',#1052,#131);
#32=LINE('',#1054,#132);
#33=LINE('',#1055,#133);
#34=LINE('',#1059,#134);
#35=LINE('',#1061,#135);
#36=LINE('',#1062,#136);
#37=LINE('',#1063,#137);
#38=LINE('',#1066,#138);
#39=LINE('',#1067,#139);
#40=LINE('',#1070,#140);
#41=LINE('',#1072,#141);
#42=LINE('',#1073,#142);
#43=LINE('',#1075,#143);
#44=LINE('',#1076,#144);
#45=LINE('',#1081,#145);
#46=LINE('',#1083,#146);
#47=LINE('',#1085,#147);
#48=LINE('',#1086,#148);
#49=LINE('',#1090,#149);
#50=LINE('',#1091,#150);
#51=LINE('',#1093,#151);
#52=LINE('',#1094,#152);
#53=LINE('',#1097,#153);
#54=LINE('',#1099,#154);
#55=LINE('',#1100,#155);
#56=LINE('',#1103,#156);
#57=LINE('',#1104,#157);
#58=LINE('',#1105,#158);
#59=LINE('',#1107,#159);
#60=LINE('',#1112,#160);
#61=LINE('',#1114,#161);
#62=LINE('',#1116,#162);
#63=LINE('',#1117,#163);
#64=LINE('',#1121,#164);
#65=LINE('',#1123,#165);
#66=LINE('',#1124,#166);
#67=LINE('',#1125,#167);
#68=LINE('',#1128,#168);
#69=LINE('',#1129,#169);
#70=LINE('',#1132,#170);
#71=LINE('',#1134,#171);
#72=LINE('',#1135,#172);
#73=LINE('',#1137,#173);
#74=LINE('',#1138,#174);
#75=LINE('',#1141,#175);
#76=LINE('',#1143,#176);
#77=LINE('',#1145,#177);
#78=LINE('',#1147,#178);
#79=LINE('',#1149,#179);
#80=LINE('',#1151,#180);
#81=LINE('',#1153,#181);
#82=LINE('',#1154,#182);
#83=LINE('',#1155,#183);
#84=LINE('',#1157,#184);
#85=LINE('',#1159,#185);
#86=LINE('',#1161,#186);
#87=LINE('',#1163,#187);
#88=LINE('',#1165,#188);
#89=LINE('',#1167,#189);
#90=LINE('',#1168,#190);
#91=LINE('',#1172,#191);
#92=LINE('',#1173,#192);
#93=LINE('',#1174,#193);
#94=LINE('',#1177,#194);
#95=LINE('',#1178,#195);
#96=LINE('',#1181,#196);
#97=LINE('',#1182,#197);
#98=LINE('',#1186,#198);
#99=LINE('',#1187,#199);
#100=LINE('',#1188,#200);
#101=LINE('',#1191,#201);
#102=LINE('',#1192,#202);
#103=LINE('',#1195,#203);
#104=LINE('',#1196,#204);
#105=LINE('',#1199,#205);
#106=LINE('',#1201,#206);
#107=LINE('',#1202,#207);
#108=LINE('',#1204,#208);
#109=LINE('',#1207,#209);
#110=LINE('',#1208,#210);
#111=LINE('',#1211,#211);
#112=LINE('',#1212,#212);
#113=LINE('',#1214,#213);
#114=LINE('',#1215,#214);
#115=VECTOR('',#836,10.);
#116=VECTOR('',#837,10.);
#117=VECTOR('',#838,10.);
#118=VECTOR('',#839,10.);
#119=VECTOR('',#842,10.);
#120=VECTOR('',#843,10.);
#121=VECTOR('',#844,10.);
#122=VECTOR('',#845,10.);
#123=VECTOR('',#848,10.);
#124=VECTOR('',#849,10.);
#125=VECTOR('',#850,10.);
#126=VECTOR('',#853,10.);
#127=VECTOR('',#854,10.);
#128=VECTOR('',#855,10.);
#129=VECTOR('',#858,10.);
#130=VECTOR('',#863,10.);
#131=VECTOR('',#864,10.);
#132=VECTOR('',#865,10.);
#133=VECTOR('',#866,10.);
#134=VECTOR('',#869,10.);
#135=VECTOR('',#870,10.);
#136=VECTOR('',#871,10.);
#137=VECTOR('',#872,10.);
#138=VECTOR('',#875,10.);
#139=VECTOR('',#876,10.);
#140=VECTOR('',#879,10.);
#141=VECTOR('',#880,10.);
#142=VECTOR('',#881,10.);
#143=VECTOR('',#884,10.);
#144=VECTOR('',#885,10.);
#145=VECTOR('',#890,10.);
#146=VECTOR('',#891,10.);
#147=VECTOR('',#892,10.);
#148=VECTOR('',#893,10.);
#149=VECTOR('',#896,10.);
#150=VECTOR('',#897,10.);
#151=VECTOR('',#898,10.);
#152=VECTOR('',#899,10.);
#153=VECTOR('',#902,10.);
#154=VECTOR('',#903,10.);
#155=VECTOR('',#904,10.);
#156=VECTOR('',#907,10.);
#157=VECTOR('',#908,10.);
#158=VECTOR('',#909,10.);
#159=VECTOR('',#912,10.);
#160=VECTOR('',#917,10.);
#161=VECTOR('',#918,10.);
#162=VECTOR('',#919,10.);
#163=VECTOR('',#920,10.);
#164=VECTOR('',#923,10.);
#165=VECTOR('',#924,10.);
#166=VECTOR('',#925,10.);
#167=VECTOR('',#926,10.);
#168=VECTOR('',#929,10.);
#169=VECTOR('',#930,10.);
#170=VECTOR('',#933,10.);
#171=VECTOR('',#934,10.);
#172=VECTOR('',#935,10.);
#173=VECTOR('',#938,10.);
#174=VECTOR('',#939,10.);
#175=VECTOR('',#944,10.);
#176=VECTOR('',#945,10.);
#177=VECTOR('',#946,10.);
#178=VECTOR('',#947,10.);
#179=VECTOR('',#948,10.);
#180=VECTOR('',#949,10.);
#181=VECTOR('',#950,10.);
#182=VECTOR('',#951,10.);
#183=VECTOR('',#952,10.);
#184=VECTOR('',#953,10.);
#185=VECTOR('',#954,10.);
#186=VECTOR('',#955,10.);
#187=VECTOR('',#956,10.);
#188=VECTOR('',#957,10.);
#189=VECTOR('',#958,10.);
#190=VECTOR('',#959,10.);
#191=VECTOR('',#962,10.);
#192=VECTOR('',#963,10.);
#193=VECTOR('',#964,10.);
#194=VECTOR('',#967,10.);
#195=VECTOR('',#968,10.);
#196=VECTOR('',#971,10.);
#197=VECTOR('',#972,10.);
#198=VECTOR('',#975,10.);
#199=VECTOR('',#976,10.);
#200=VECTOR('',#977,10.);
#201=VECTOR('',#980,10.);
#202=VECTOR('',#981,10.);
#203=VECTOR('',#984,10.);
#204=VECTOR('',#985,10.);
#205=VECTOR('',#988,10.);
#206=VECTOR('',#989,10.);
#207=VECTOR('',#990,10.);
#208=VECTOR('',#993,10.);
#209=VECTOR('',#996,10.);
#210=VECTOR('',#997,10.);
#211=VECTOR('',#1000,10.);
#212=VECTOR('',#1001,10.);
#213=VECTOR('',#1004,10.);
#214=VECTOR('',#1005,10.);
#215=PLANE('',#788);
#216=PLANE('',#789);
#217=PLANE('',#790);
#218=PLANE('',#791);
#219=PLANE('',#792);
#220=PLANE('',#793);
#221=PLANE('',#794);
#222=PLANE('',#795);
#223=PLANE('',#796);
#224=PLANE('',#797);
#225=PLANE('',#798);
#226=PLANE('',#799);
#227=PLANE('',#800);
#228=PLANE('',#801);
#229=PLANE('',#802);
#230=PLANE('',#803);
#231=PLANE('',#804);
#232=PLANE('',#805);
#233=PLANE('',#806);
#234=PLANE('',#807);
#235=PLANE('',#808);
#236=PLANE('',#809);
#237=PLANE('',#810);
#238=PLANE('',#811);
#239=PLANE('',#812);
#240=PLANE('',#813);
#241=PLANE('',#814);
#242=PLANE('',#815);
#243=PLANE('',#816);
#244=PLANE('',#817);
#245=PLANE('',#818);
#246=PLANE('',#819);
#247=PLANE('',#820);
#248=PLANE('',#821);
#249=PLANE('',#822);
#250=PLANE('',#823);
#251=PLANE('',#824);
#252=PLANE('',#825);
#253=FACE_OUTER_BOUND('',#292,.T.);
#254=FACE_OUTER_BOUND('',#293,.T.);
#255=FACE_OUTER_BOUND('',#294,.T.);
#256=FACE_OUTER_BOUND('',#295,.T.);
#257=FACE_OUTER_BOUND('',#296,.T.);
#258=FACE_OUTER_BOUND('',#297,.T.);
#259=FACE_OUTER_BOUND('',#298,.T.);
#260=FACE_OUTER_BOUND('',#299,.T.);
#261=FACE_OUTER_BOUND('',#300,.T.);
#262=FACE_OUTER_BOUND('',#301,.T.);
#263=FACE_OUTER_BOUND('',#302,.T.);
#264=FACE_OUTER_BOUND('',#303,.T.);
#265=FACE_OUTER_BOUND('',#304,.T.);
#266=FACE_OUTER_BOUND('',#305,.T.);
#267=FACE_OUTER_BOUND('',#306,.T.);
#268=FACE_OUTER_BOUND('',#307,.T.);
#269=FACE_OUTER_BOUND('',#308,.T.);
#270=FACE_OUTER_BOUND('',#309,.T.);
#271=FACE_OUTER_BOUND('',#310,.T.);
#272=FACE_OUTER_BOUND('',#311,.T.);
#273=FACE_OUTER_BOUND('',#312,.T.);
#274=FACE_OUTER_BOUND('',#313,.T.);
#275=FACE_OUTER_BOUND('',#314,.T.);
#276=FACE_OUTER_BOUND('',#315,.T.);
#277=FACE_OUTER_BOUND('',#316,.T.);
#278=FACE_OUTER_BOUND('',#317,.T.);
#279=FACE_OUTER_BOUND('',#318,.T.);
#280=FACE_OUTER_BOUND('',#319,.T.);
#281=FACE_OUTER_BOUND('',#320,.T.);
#282=FACE_OUTER_BOUND('',#321,.T.);
#283=FACE_OUTER_BOUND('',#322,.T.);
#284=FACE_OUTER_BOUND('',#323,.T.);
#285=FACE_OUTER_BOUND('',#324,.T.);
#286=FACE_OUTER_BOUND('',#325,.T.);
#287=FACE_OUTER_BOUND('',#326,.T.);
#288=FACE_OUTER_BOUND('',#327,.T.);
#289=FACE_OUTER_BOUND('',#328,.T.);
#290=FACE_OUTER_BOUND('',#329,.T.);
#291=FACE_OUTER_BOUND('',#331,.T.);
#292=EDGE_LOOP('',(#502,#503,#504));
#293=EDGE_LOOP('',(#505,#506,#507,#508));
#294=EDGE_LOOP('',(#509,#510,#511,#512,#513));
#295=EDGE_LOOP('',(#514,#515,#516,#517));
#296=EDGE_LOOP('',(#518,#519,#520,#521,#522));
#297=EDGE_LOOP('',(#523,#524,#525,#526));
#298=EDGE_LOOP('',(#527,#528,#529,#530));
#299=EDGE_LOOP('',(#531,#532,#533,#534));
#300=EDGE_LOOP('',(#535,#536,#537,#538,#539));
#301=EDGE_LOOP('',(#540,#541,#542,#543));
#302=EDGE_LOOP('',(#544,#545,#546,#547,#548));
#303=EDGE_LOOP('',(#549,#550,#551,#552));
#304=EDGE_LOOP('',(#553,#554,#555,#556));
#305=EDGE_LOOP('',(#557,#558,#559,#560));
#306=EDGE_LOOP('',(#561,#562,#563,#564,#565));
#307=EDGE_LOOP('',(#566,#567,#568,#569));
#308=EDGE_LOOP('',(#570,#571,#572,#573,#574));
#309=EDGE_LOOP('',(#575,#576,#577,#578));
#310=EDGE_LOOP('',(#579,#580,#581,#582));
#311=EDGE_LOOP('',(#583,#584,#585,#586));
#312=EDGE_LOOP('',(#587,#588,#589,#590,#591));
#313=EDGE_LOOP('',(#592,#593,#594,#595));
#314=EDGE_LOOP('',(#596,#597,#598,#599,#600));
#315=EDGE_LOOP('',(#601,#602,#603,#604));
#316=EDGE_LOOP('',(#605,#606,#607,#608));
#317=EDGE_LOOP('',(#609,#610,#611,#612,#613,#614,#615,#616,#617,#618,#619,
#620,#621,#622,#623,#624,#625,#626,#627,#628,#629,#630,#631,#632,#633,#634,
#635,#636));
#318=EDGE_LOOP('',(#637,#638,#639,#640));
#319=EDGE_LOOP('',(#641,#642,#643,#644));
#320=EDGE_LOOP('',(#645,#646,#647,#648));
#321=EDGE_LOOP('',(#649,#650,#651,#652));
#322=EDGE_LOOP('',(#653,#654,#655,#656));
#323=EDGE_LOOP('',(#657,#658,#659,#660));
#324=EDGE_LOOP('',(#661,#662,#663,#664,#665,#666,#667,#668));
#325=EDGE_LOOP('',(#669,#670,#671,#672));
#326=EDGE_LOOP('',(#673,#674,#675,#676,#677,#678,#679,#680));
#327=EDGE_LOOP('',(#681,#682,#683,#684,#685,#686,#687,#688));
#328=EDGE_LOOP('',(#689,#690,#691,#692,#693,#694,#695,#696));
#329=EDGE_LOOP('',(#697,#698,#699,#700));
#330=EDGE_LOOP('',(#701));
#331=EDGE_LOOP('',(#702,#703,#704,#705));
#332=CIRCLE('',#786,0.834295743705429);
#333=CIRCLE('',#787,0.834295743705429);
#334=VERTEX_POINT('',#1012);
#335=VERTEX_POINT('',#1014);
#336=VERTEX_POINT('',#1017);
#337=VERTEX_POINT('',#1018);
#338=VERTEX_POINT('',#1020);
#339=VERTEX_POINT('',#1022);
#340=VERTEX_POINT('',#1026);
#341=VERTEX_POINT('',#1027);
#342=VERTEX_POINT('',#1030);
#343=VERTEX_POINT('',#1034);
#344=VERTEX_POINT('',#1036);
#345=VERTEX_POINT('',#1040);
#346=VERTEX_POINT('',#1048);
#347=VERTEX_POINT('',#1049);
#348=VERTEX_POINT('',#1051);
#349=VERTEX_POINT('',#1053);
#350=VERTEX_POINT('',#1057);
#351=VERTEX_POINT('',#1058);
#352=VERTEX_POINT('',#1060);
#353=VERTEX_POINT('',#1065);
#354=VERTEX_POINT('',#1069);
#355=VERTEX_POINT('',#1071);
#356=VERTEX_POINT('',#1079);
#357=VERTEX_POINT('',#1080);
#358=VERTEX_POINT('',#1082);
#359=VERTEX_POINT('',#1084);
#360=VERTEX_POINT('',#1088);
#361=VERTEX_POINT('',#1089);
#362=VERTEX_POINT('',#1092);
#363=VERTEX_POINT('',#1096);
#364=VERTEX_POINT('',#1098);
#365=VERTEX_POINT('',#1102);
#366=VERTEX_POINT('',#1110);
#367=VERTEX_POINT('',#1111);
#368=VERTEX_POINT('',#1113);
#369=VERTEX_POINT('',#1115);
#370=VERTEX_POINT('',#1119);
#371=VERTEX_POINT('',#1120);
#372=VERTEX_POINT('',#1122);
#373=VERTEX_POINT('',#1127);
#374=VERTEX_POINT('',#1131);
#375=VERTEX_POINT('',#1133);
#376=VERTEX_POINT('',#1142);
#377=VERTEX_POINT('',#1144);
#378=VERTEX_POINT('',#1146);
#379=VERTEX_POINT('',#1148);
#380=VERTEX_POINT('',#1150);
#381=VERTEX_POINT('',#1152);
#382=VERTEX_POINT('',#1156);
#383=VERTEX_POINT('',#1158);
#384=VERTEX_POINT('',#1160);
#385=VERTEX_POINT('',#1162);
#386=VERTEX_POINT('',#1164);
#387=VERTEX_POINT('',#1166);
#388=VERTEX_POINT('',#1170);
#389=VERTEX_POINT('',#1171);
#390=VERTEX_POINT('',#1176);
#391=VERTEX_POINT('',#1180);
#392=VERTEX_POINT('',#1184);
#393=VERTEX_POINT('',#1185);
#394=VERTEX_POINT('',#1190);
#395=VERTEX_POINT('',#1194);
#396=VERTEX_POINT('',#1198);
#397=VERTEX_POINT('',#1200);
#398=VERTEX_POINT('',#1206);
#399=VERTEX_POINT('',#1210);
#400=EDGE_CURVE('',#334,#334,#332,.T.);
#401=EDGE_CURVE('',#335,#334,#333,.T.);
#402=EDGE_CURVE('',#336,#337,#15,.T.);
#403=EDGE_CURVE('',#336,#338,#16,.T.);
#404=EDGE_CURVE('',#338,#339,#17,.T.);
#405=EDGE_CURVE('',#339,#337,#18,.T.);
#406=EDGE_CURVE('',#340,#341,#19,.T.);
#407=EDGE_CURVE('',#341,#338,#20,.T.);
#408=EDGE_CURVE('',#342,#336,#21,.T.);
#409=EDGE_CURVE('',#340,#342,#22,.T.);
#410=EDGE_CURVE('',#343,#340,#23,.T.);
#411=EDGE_CURVE('',#344,#342,#24,.T.);
#412=EDGE_CURVE('',#343,#344,#25,.T.);
#413=EDGE_CURVE('',#345,#343,#26,.T.);
#414=EDGE_CURVE('',#337,#344,#27,.T.);
#415=EDGE_CURVE('',#345,#339,#28,.T.);
#416=EDGE_CURVE('',#341,#345,#29,.T.);
#417=EDGE_CURVE('',#346,#347,#30,.T.);
#418=EDGE_CURVE('',#346,#348,#31,.T.);
#419=EDGE_CURVE('',#348,#349,#32,.T.);
#420=EDGE_CURVE('',#349,#347,#33,.T.);
#421=EDGE_CURVE('',#350,#351,#34,.T.);
#422=EDGE_CURVE('',#351,#352,#35,.T.);
#423=EDGE_CURVE('',#347,#352,#36,.T.);
#424=EDGE_CURVE('',#350,#349,#37,.T.);
#425=EDGE_CURVE('',#353,#350,#38,.T.);
#426=EDGE_CURVE('',#353,#348,#39,.T.);
#427=EDGE_CURVE('',#354,#353,#40,.T.);
#428=EDGE_CURVE('',#355,#346,#41,.T.);
#429=EDGE_CURVE('',#354,#355,#42,.T.);
#430=EDGE_CURVE('',#351,#354,#43,.T.);
#431=EDGE_CURVE('',#352,#355,#44,.T.);
#432=EDGE_CURVE('',#356,#357,#45,.T.);
#433=EDGE_CURVE('',#356,#358,#46,.T.);
#434=EDGE_CURVE('',#358,#359,#47,.T.);
#435=EDGE_CURVE('',#359,#357,#48,.T.);
#436=EDGE_CURVE('',#360,#361,#49,.T.);
#437=EDGE_CURVE('',#361,#358,#50,.T.);
#438=EDGE_CURVE('',#362,#356,#51,.T.);
#439=EDGE_CURVE('',#360,#362,#52,.T.);
#440=EDGE_CURVE('',#363,#360,#53,.T.);
#441=EDGE_CURVE('',#364,#362,#54,.T.);
#442=EDGE_CURVE('',#363,#364,#55,.T.);
#443=EDGE_CURVE('',#365,#363,#56,.T.);
#444=EDGE_CURVE('',#357,#364,#57,.T.);
#445=EDGE_CURVE('',#365,#359,#58,.T.);
#446=EDGE_CURVE('',#361,#365,#59,.T.);
#447=EDGE_CURVE('',#366,#367,#60,.T.);
#448=EDGE_CURVE('',#366,#368,#61,.T.);
#449=EDGE_CURVE('',#368,#369,#62,.T.);
#450=EDGE_CURVE('',#369,#367,#63,.T.);
#451=EDGE_CURVE('',#370,#371,#64,.T.);
#452=EDGE_CURVE('',#371,#372,#65,.T.);
#453=EDGE_CURVE('',#367,#372,#66,.T.);
#454=EDGE_CURVE('',#370,#369,#67,.T.);
#455=EDGE_CURVE('',#373,#370,#68,.T.);
#456=EDGE_CURVE('',#373,#368,#69,.T.);
#457=EDGE_CURVE('',#374,#373,#70,.T.);
#458=EDGE_CURVE('',#375,#366,#71,.T.);
#459=EDGE_CURVE('',#374,#375,#72,.T.);
#460=EDGE_CURVE('',#371,#374,#73,.T.);
#461=EDGE_CURVE('',#372,#375,#74,.T.);
#462=EDGE_CURVE('',#357,#336,#75,.T.);
#463=EDGE_CURVE('',#376,#356,#76,.T.);
#464=EDGE_CURVE('',#377,#376,#77,.T.);
#465=EDGE_CURVE('',#378,#377,#78,.T.);
#466=EDGE_CURVE('',#379,#378,#79,.T.);
#467=EDGE_CURVE('',#380,#379,#80,.T.);
#468=EDGE_CURVE('',#381,#380,#81,.T.);
#469=EDGE_CURVE('',#367,#381,#82,.T.);
#470=EDGE_CURVE('',#347,#366,#83,.T.);
#471=EDGE_CURVE('',#382,#346,#84,.T.);
#472=EDGE_CURVE('',#383,#382,#85,.T.);
#473=EDGE_CURVE('',#384,#383,#86,.T.);
#474=EDGE_CURVE('',#385,#384,#87,.T.);
#475=EDGE_CURVE('',#386,#385,#88,.T.);
#476=EDGE_CURVE('',#387,#386,#89,.T.);
#477=EDGE_CURVE('',#337,#387,#90,.T.);
#478=EDGE_CURVE('',#388,#389,#91,.T.);
#479=EDGE_CURVE('',#388,#384,#92,.T.);
#480=EDGE_CURVE('',#389,#383,#93,.T.);
#481=EDGE_CURVE('',#390,#388,#94,.T.);
#482=EDGE_CURVE('',#390,#385,#95,.T.);
#483=EDGE_CURVE('',#391,#390,#96,.T.);
#484=EDGE_CURVE('',#386,#391,#97,.T.);
#485=EDGE_CURVE('',#392,#393,#98,.T.);
#486=EDGE_CURVE('',#392,#378,#99,.T.);
#487=EDGE_CURVE('',#393,#377,#100,.T.);
#488=EDGE_CURVE('',#394,#392,#101,.T.);
#489=EDGE_CURVE('',#394,#379,#102,.T.);
#490=EDGE_CURVE('',#395,#394,#103,.T.);
#491=EDGE_CURVE('',#380,#395,#104,.T.);
#492=EDGE_CURVE('',#387,#396,#105,.T.);
#493=EDGE_CURVE('',#397,#396,#106,.T.);
#494=EDGE_CURVE('',#376,#397,#107,.T.);
#495=EDGE_CURVE('',#391,#389,#108,.T.);
#496=EDGE_CURVE('',#382,#398,#109,.T.);
#497=EDGE_CURVE('',#396,#398,#110,.T.);
#498=EDGE_CURVE('',#381,#399,#111,.T.);
#499=EDGE_CURVE('',#398,#399,#112,.T.);
#500=EDGE_CURVE('',#399,#397,#113,.T.);
#501=EDGE_CURVE('',#395,#393,#114,.T.);
#502=ORIENTED_EDGE('',*,*,#400,.F.);
#503=ORIENTED_EDGE('',*,*,#401,.F.);
#504=ORIENTED_EDGE('',*,*,#401,.T.);
#505=ORIENTED_EDGE('',*,*,#402,.F.);
#506=ORIENTED_EDGE('',*,*,#403,.T.);
#507=ORIENTED_EDGE('',*,*,#404,.T.);
#508=ORIENTED_EDGE('',*,*,#405,.T.);
#509=ORIENTED_EDGE('',*,*,#406,.T.);
#510=ORIENTED_EDGE('',*,*,#407,.T.);
#511=ORIENTED_EDGE('',*,*,#403,.F.);
#512=ORIENTED_EDGE('',*,*,#408,.F.);
#513=ORIENTED_EDGE('',*,*,#409,.F.);
#514=ORIENTED_EDGE('',*,*,#410,.T.);
#515=ORIENTED_EDGE('',*,*,#409,.T.);
#516=ORIENTED_EDGE('',*,*,#411,.F.);
#517=ORIENTED_EDGE('',*,*,#412,.F.);
#518=ORIENTED_EDGE('',*,*,#413,.T.);
#519=ORIENTED_EDGE('',*,*,#412,.T.);
#520=ORIENTED_EDGE('',*,*,#414,.F.);
#521=ORIENTED_EDGE('',*,*,#405,.F.);
#522=ORIENTED_EDGE('',*,*,#415,.F.);
#523=ORIENTED_EDGE('',*,*,#416,.T.);
#524=ORIENTED_EDGE('',*,*,#415,.T.);
#525=ORIENTED_EDGE('',*,*,#404,.F.);
#526=ORIENTED_EDGE('',*,*,#407,.F.);
#527=ORIENTED_EDGE('',*,*,#416,.F.);
#528=ORIENTED_EDGE('',*,*,#406,.F.);
#529=ORIENTED_EDGE('',*,*,#410,.F.);
#530=ORIENTED_EDGE('',*,*,#413,.F.);
#531=ORIENTED_EDGE('',*,*,#417,.F.);
#532=ORIENTED_EDGE('',*,*,#418,.T.);
#533=ORIENTED_EDGE('',*,*,#419,.T.);
#534=ORIENTED_EDGE('',*,*,#420,.T.);
#535=ORIENTED_EDGE('',*,*,#421,.T.);
#536=ORIENTED_EDGE('',*,*,#422,.T.);
#537=ORIENTED_EDGE('',*,*,#423,.F.);
#538=ORIENTED_EDGE('',*,*,#420,.F.);
#539=ORIENTED_EDGE('',*,*,#424,.F.);
#540=ORIENTED_EDGE('',*,*,#425,.T.);
#541=ORIENTED_EDGE('',*,*,#424,.T.);
#542=ORIENTED_EDGE('',*,*,#419,.F.);
#543=ORIENTED_EDGE('',*,*,#426,.F.);
#544=ORIENTED_EDGE('',*,*,#427,.T.);
#545=ORIENTED_EDGE('',*,*,#426,.T.);
#546=ORIENTED_EDGE('',*,*,#418,.F.);
#547=ORIENTED_EDGE('',*,*,#428,.F.);
#548=ORIENTED_EDGE('',*,*,#429,.F.);
#549=ORIENTED_EDGE('',*,*,#430,.T.);
#550=ORIENTED_EDGE('',*,*,#429,.T.);
#551=ORIENTED_EDGE('',*,*,#431,.F.);
#552=ORIENTED_EDGE('',*,*,#422,.F.);
#553=ORIENTED_EDGE('',*,*,#430,.F.);
#554=ORIENTED_EDGE('',*,*,#421,.F.);
#555=ORIENTED_EDGE('',*,*,#425,.F.);
#556=ORIENTED_EDGE('',*,*,#427,.F.);
#557=ORIENTED_EDGE('',*,*,#432,.F.);
#558=ORIENTED_EDGE('',*,*,#433,.T.);
#559=ORIENTED_EDGE('',*,*,#434,.T.);
#560=ORIENTED_EDGE('',*,*,#435,.T.);
#561=ORIENTED_EDGE('',*,*,#436,.T.);
#562=ORIENTED_EDGE('',*,*,#437,.T.);
#563=ORIENTED_EDGE('',*,*,#433,.F.);
#564=ORIENTED_EDGE('',*,*,#438,.F.);
#565=ORIENTED_EDGE('',*,*,#439,.F.);
#566=ORIENTED_EDGE('',*,*,#440,.T.);
#567=ORIENTED_EDGE('',*,*,#439,.T.);
#568=ORIENTED_EDGE('',*,*,#441,.F.);
#569=ORIENTED_EDGE('',*,*,#442,.F.);
#570=ORIENTED_EDGE('',*,*,#443,.T.);
#571=ORIENTED_EDGE('',*,*,#442,.T.);
#572=ORIENTED_EDGE('',*,*,#444,.F.);
#573=ORIENTED_EDGE('',*,*,#435,.F.);
#574=ORIENTED_EDGE('',*,*,#445,.F.);
#575=ORIENTED_EDGE('',*,*,#446,.T.);
#576=ORIENTED_EDGE('',*,*,#445,.T.);
#577=ORIENTED_EDGE('',*,*,#434,.F.);
#578=ORIENTED_EDGE('',*,*,#437,.F.);
#579=ORIENTED_EDGE('',*,*,#446,.F.);
#580=ORIENTED_EDGE('',*,*,#436,.F.);
#581=ORIENTED_EDGE('',*,*,#440,.F.);
#582=ORIENTED_EDGE('',*,*,#443,.F.);
#583=ORIENTED_EDGE('',*,*,#447,.F.);
#584=ORIENTED_EDGE('',*,*,#448,.T.);
#585=ORIENTED_EDGE('',*,*,#449,.T.);
#586=ORIENTED_EDGE('',*,*,#450,.T.);
#587=ORIENTED_EDGE('',*,*,#451,.T.);
#588=ORIENTED_EDGE('',*,*,#452,.T.);
#589=ORIENTED_EDGE('',*,*,#453,.F.);
#590=ORIENTED_EDGE('',*,*,#450,.F.);
#591=ORIENTED_EDGE('',*,*,#454,.F.);
#592=ORIENTED_EDGE('',*,*,#455,.T.);
#593=ORIENTED_EDGE('',*,*,#454,.T.);
#594=ORIENTED_EDGE('',*,*,#449,.F.);
#595=ORIENTED_EDGE('',*,*,#456,.F.);
#596=ORIENTED_EDGE('',*,*,#457,.T.);
#597=ORIENTED_EDGE('',*,*,#456,.T.);
#598=ORIENTED_EDGE('',*,*,#448,.F.);
#599=ORIENTED_EDGE('',*,*,#458,.F.);
#600=ORIENTED_EDGE('',*,*,#459,.F.);
#601=ORIENTED_EDGE('',*,*,#460,.T.);
#602=ORIENTED_EDGE('',*,*,#459,.T.);
#603=ORIENTED_EDGE('',*,*,#461,.F.);
#604=ORIENTED_EDGE('',*,*,#452,.F.);
#605=ORIENTED_EDGE('',*,*,#460,.F.);
#606=ORIENTED_EDGE('',*,*,#451,.F.);
#607=ORIENTED_EDGE('',*,*,#455,.F.);
#608=ORIENTED_EDGE('',*,*,#457,.F.);
#609=ORIENTED_EDGE('',*,*,#414,.T.);
#610=ORIENTED_EDGE('',*,*,#411,.T.);
#611=ORIENTED_EDGE('',*,*,#408,.T.);
#612=ORIENTED_EDGE('',*,*,#462,.F.);
#613=ORIENTED_EDGE('',*,*,#444,.T.);
#614=ORIENTED_EDGE('',*,*,#441,.T.);
#615=ORIENTED_EDGE('',*,*,#438,.T.);
#616=ORIENTED_EDGE('',*,*,#463,.F.);
#617=ORIENTED_EDGE('',*,*,#464,.F.);
#618=ORIENTED_EDGE('',*,*,#465,.F.);
#619=ORIENTED_EDGE('',*,*,#466,.F.);
#620=ORIENTED_EDGE('',*,*,#467,.F.);
#621=ORIENTED_EDGE('',*,*,#468,.F.);
#622=ORIENTED_EDGE('',*,*,#469,.F.);
#623=ORIENTED_EDGE('',*,*,#453,.T.);
#624=ORIENTED_EDGE('',*,*,#461,.T.);
#625=ORIENTED_EDGE('',*,*,#458,.T.);
#626=ORIENTED_EDGE('',*,*,#470,.F.);
#627=ORIENTED_EDGE('',*,*,#423,.T.);
#628=ORIENTED_EDGE('',*,*,#431,.T.);
#629=ORIENTED_EDGE('',*,*,#428,.T.);
#630=ORIENTED_EDGE('',*,*,#471,.F.);
#631=ORIENTED_EDGE('',*,*,#472,.F.);
#632=ORIENTED_EDGE('',*,*,#473,.F.);
#633=ORIENTED_EDGE('',*,*,#474,.F.);
#634=ORIENTED_EDGE('',*,*,#475,.F.);
#635=ORIENTED_EDGE('',*,*,#476,.F.);
#636=ORIENTED_EDGE('',*,*,#477,.F.);
#637=ORIENTED_EDGE('',*,*,#478,.F.);
#638=ORIENTED_EDGE('',*,*,#479,.T.);
#639=ORIENTED_EDGE('',*,*,#473,.T.);
#640=ORIENTED_EDGE('',*,*,#480,.F.);
#641=ORIENTED_EDGE('',*,*,#481,.F.);
#642=ORIENTED_EDGE('',*,*,#482,.T.);
#643=ORIENTED_EDGE('',*,*,#474,.T.);
#644=ORIENTED_EDGE('',*,*,#479,.F.);
#645=ORIENTED_EDGE('',*,*,#483,.F.);
#646=ORIENTED_EDGE('',*,*,#484,.F.);
#647=ORIENTED_EDGE('',*,*,#475,.T.);
#648=ORIENTED_EDGE('',*,*,#482,.F.);
#649=ORIENTED_EDGE('',*,*,#485,.F.);
#650=ORIENTED_EDGE('',*,*,#486,.T.);
#651=ORIENTED_EDGE('',*,*,#465,.T.);
#652=ORIENTED_EDGE('',*,*,#487,.F.);
#653=ORIENTED_EDGE('',*,*,#488,.F.);
#654=ORIENTED_EDGE('',*,*,#489,.T.);
#655=ORIENTED_EDGE('',*,*,#466,.T.);
#656=ORIENTED_EDGE('',*,*,#486,.F.);
#657=ORIENTED_EDGE('',*,*,#490,.F.);
#658=ORIENTED_EDGE('',*,*,#491,.F.);
#659=ORIENTED_EDGE('',*,*,#467,.T.);
#660=ORIENTED_EDGE('',*,*,#489,.F.);
#661=ORIENTED_EDGE('',*,*,#463,.T.);
#662=ORIENTED_EDGE('',*,*,#432,.T.);
#663=ORIENTED_EDGE('',*,*,#462,.T.);
#664=ORIENTED_EDGE('',*,*,#402,.T.);
#665=ORIENTED_EDGE('',*,*,#477,.T.);
#666=ORIENTED_EDGE('',*,*,#492,.T.);
#667=ORIENTED_EDGE('',*,*,#493,.F.);
#668=ORIENTED_EDGE('',*,*,#494,.F.);
#669=ORIENTED_EDGE('',*,*,#483,.T.);
#670=ORIENTED_EDGE('',*,*,#481,.T.);
#671=ORIENTED_EDGE('',*,*,#478,.T.);
#672=ORIENTED_EDGE('',*,*,#495,.F.);
#673=ORIENTED_EDGE('',*,*,#476,.T.);
#674=ORIENTED_EDGE('',*,*,#484,.T.);
#675=ORIENTED_EDGE('',*,*,#495,.T.);
#676=ORIENTED_EDGE('',*,*,#480,.T.);
#677=ORIENTED_EDGE('',*,*,#472,.T.);
#678=ORIENTED_EDGE('',*,*,#496,.T.);
#679=ORIENTED_EDGE('',*,*,#497,.F.);
#680=ORIENTED_EDGE('',*,*,#492,.F.);
#681=ORIENTED_EDGE('',*,*,#471,.T.);
#682=ORIENTED_EDGE('',*,*,#417,.T.);
#683=ORIENTED_EDGE('',*,*,#470,.T.);
#684=ORIENTED_EDGE('',*,*,#447,.T.);
#685=ORIENTED_EDGE('',*,*,#469,.T.);
#686=ORIENTED_EDGE('',*,*,#498,.T.);
#687=ORIENTED_EDGE('',*,*,#499,.F.);
#688=ORIENTED_EDGE('',*,*,#496,.F.);
#689=ORIENTED_EDGE('',*,*,#464,.T.);
#690=ORIENTED_EDGE('',*,*,#494,.T.);
#691=ORIENTED_EDGE('',*,*,#500,.F.);
#692=ORIENTED_EDGE('',*,*,#498,.F.);
#693=ORIENTED_EDGE('',*,*,#468,.T.);
#694=ORIENTED_EDGE('',*,*,#491,.T.);
#695=ORIENTED_EDGE('',*,*,#501,.T.);
#696=ORIENTED_EDGE('',*,*,#487,.T.);
#697=ORIENTED_EDGE('',*,*,#500,.T.);
#698=ORIENTED_EDGE('',*,*,#493,.T.);
#699=ORIENTED_EDGE('',*,*,#497,.T.);
#700=ORIENTED_EDGE('',*,*,#499,.T.);
#701=ORIENTED_EDGE('',*,*,#400,.T.);
#702=ORIENTED_EDGE('',*,*,#485,.T.);
#703=ORIENTED_EDGE('',*,*,#501,.F.);
#704=ORIENTED_EDGE('',*,*,#490,.T.);
#705=ORIENTED_EDGE('',*,*,#488,.T.);
#706=SPHERICAL_SURFACE('',#785,0.834295743705429);
#707=STYLED_ITEM('',(#1238),#723);
#708=STYLED_ITEM('',(#1238),#748);
#709=STYLED_ITEM('',(#1238),#749);
#710=STYLED_ITEM('',(#1238),#750);
#711=STYLED_ITEM('',(#1238),#751);
#712=STYLED_ITEM('',(#1238),#752);
#713=STYLED_ITEM('',(#1238),#753);
#714=STYLED_ITEM('',(#1238),#754);
#715=STYLED_ITEM('',(#1238),#755);
#716=STYLED_ITEM('',(#1238),#756);
#717=STYLED_ITEM('',(#1238),#757);
#718=STYLED_ITEM('',(#1238),#758);
#719=STYLED_ITEM('',(#1238),#759);
#720=STYLED_ITEM('',(#1238),#760);
#721=STYLED_ITEM('',(#1238),#761);
#722=STYLED_ITEM('',(#1237),#13);
#723=ADVANCED_FACE('',(#253),#706,.F.);
#724=ADVANCED_FACE('',(#254),#215,.T.);
#725=ADVANCED_FACE('',(#255),#216,.T.);
#726=ADVANCED_FACE('',(#256),#217,.T.);
#727=ADVANCED_FACE('',(#257),#218,.T.);
#728=ADVANCED_FACE('',(#258),#219,.T.);
#729=ADVANCED_FACE('',(#259),#220,.F.);
#730=ADVANCED_FACE('',(#260),#221,.T.);
#731=ADVANCED_FACE('',(#261),#222,.T.);
#732=ADVANCED_FACE('',(#262),#223,.T.);
#733=ADVANCED_FACE('',(#263),#224,.T.);
#734=ADVANCED_FACE('',(#264),#225,.T.);
#735=ADVANCED_FACE('',(#265),#226,.F.);
#736=ADVANCED_FACE('',(#266),#227,.T.);
#737=ADVANCED_FACE('',(#267),#228,.T.);
#738=ADVANCED_FACE('',(#268),#229,.T.);
#739=ADVANCED_FACE('',(#269),#230,.T.);
#740=ADVANCED_FACE('',(#270),#231,.T.);
#741=ADVANCED_FACE('',(#271),#232,.F.);
#742=ADVANCED_FACE('',(#272),#233,.T.);
#743=ADVANCED_FACE('',(#273),#234,.T.);
#744=ADVANCED_FACE('',(#274),#235,.T.);
#745=ADVANCED_FACE('',(#275),#236,.T.);
#746=ADVANCED_FACE('',(#276),#237,.T.);
#747=ADVANCED_FACE('',(#277),#238,.F.);
#748=ADVANCED_FACE('',(#278),#239,.F.);
#749=ADVANCED_FACE('',(#279),#240,.F.);
#750=ADVANCED_FACE('',(#280),#241,.F.);
#751=ADVANCED_FACE('',(#281),#242,.F.);
#752=ADVANCED_FACE('',(#282),#243,.F.);
#753=ADVANCED_FACE('',(#283),#244,.F.);
#754=ADVANCED_FACE('',(#284),#245,.F.);
#755=ADVANCED_FACE('',(#285),#246,.T.);
#756=ADVANCED_FACE('',(#286),#247,.F.);
#757=ADVANCED_FACE('',(#287),#248,.T.);
#758=ADVANCED_FACE('',(#288),#249,.T.);
#759=ADVANCED_FACE('',(#289),#250,.T.);
#760=ADVANCED_FACE('',(#290,#14),#251,.T.);
#761=ADVANCED_FACE('',(#291),#252,.F.);
#762=CLOSED_SHELL('',(#723,#724,#725,#726,#727,#728,#729,#730,#731,#732,
#733,#734,#735,#736,#737,#738,#739,#740,#741,#742,#743,#744,#745,#746,#747,
#748,#749,#750,#751,#752,#753,#754,#755,#756,#757,#758,#759,#760,#761));
#763=DERIVED_UNIT_ELEMENT(#766,1.);
#764=DERIVED_UNIT_ELEMENT(#1223,-3.);
#765=DIMENSIONAL_EXPONENTS(0.,1.,0.,0.,0.,0.,0.);
#766=(
CONVERSION_BASED_UNIT('gram',#768)
MASS_UNIT()
NAMED_UNIT(#765)
);
#767=(
MASS_UNIT()
NAMED_UNIT(*)
SI_UNIT(.KILO.,.GRAM.)
);
#768=MASS_MEASURE_WITH_UNIT(MASS_MEASURE(0.001),#767);
#769=DERIVED_UNIT((#763,#764));
#770=MEASURE_REPRESENTATION_ITEM('density measure',
POSITIVE_RATIO_MEASURE(1.),#769);
#771=PROPERTY_DEFINITION_REPRESENTATION(#776,#773);
#772=PROPERTY_DEFINITION_REPRESENTATION(#777,#774);
#773=REPRESENTATION('material name',(#775),#1220);
#774=REPRESENTATION('density',(#770),#1220);
#775=DESCRIPTIVE_REPRESENTATION_ITEM('Generic','Generic');
#776=PROPERTY_DEFINITION('material property','material name',#1230);
#777=PROPERTY_DEFINITION('material property','density of part',#1230);
#778=DATE_TIME_ROLE('creation_date');
#779=APPLIED_DATE_AND_TIME_ASSIGNMENT(#780,#778,(#1230));
#780=DATE_AND_TIME(#781,#782);
#781=CALENDAR_DATE(2025,31,7);
#782=LOCAL_TIME(0,0,0.,#783);
#783=COORDINATED_UNIVERSAL_TIME_OFFSET(0,0,.BEHIND.);
#784=AXIS2_PLACEMENT_3D('',#1010,#826,#827);
#785=AXIS2_PLACEMENT_3D('',#1011,#828,#829);
#786=AXIS2_PLACEMENT_3D('',#1013,#830,#831);
#787=AXIS2_PLACEMENT_3D('',#1015,#832,#833);
#788=AXIS2_PLACEMENT_3D('',#1016,#834,#835);
#789=AXIS2_PLACEMENT_3D('',#1025,#840,#841);
#790=AXIS2_PLACEMENT_3D('',#1033,#846,#847);
#791=AXIS2_PLACEMENT_3D('',#1039,#851,#852);
#792=AXIS2_PLACEMENT_3D('',#1044,#856,#857);
#793=AXIS2_PLACEMENT_3D('',#1046,#859,#860);
#794=AXIS2_PLACEMENT_3D('',#1047,#861,#862);
#795=AXIS2_PLACEMENT_3D('',#1056,#867,#868);
#796=AXIS2_PLACEMENT_3D('',#1064,#873,#874);
#797=AXIS2_PLACEMENT_3D('',#1068,#877,#878);
#798=AXIS2_PLACEMENT_3D('',#1074,#882,#883);
#799=AXIS2_PLACEMENT_3D('',#1077,#886,#887);
#800=AXIS2_PLACEMENT_3D('',#1078,#888,#889);
#801=AXIS2_PLACEMENT_3D('',#1087,#894,#895);
#802=AXIS2_PLACEMENT_3D('',#1095,#900,#901);
#803=AXIS2_PLACEMENT_3D('',#1101,#905,#906);
#804=AXIS2_PLACEMENT_3D('',#1106,#910,#911);
#805=AXIS2_PLACEMENT_3D('',#1108,#913,#914);
#806=AXIS2_PLACEMENT_3D('',#1109,#915,#916);
#807=AXIS2_PLACEMENT_3D('',#1118,#921,#922);
#808=AXIS2_PLACEMENT_3D('',#1126,#927,#928);
#809=AXIS2_PLACEMENT_3D('',#1130,#931,#932);
#810=AXIS2_PLACEMENT_3D('',#1136,#936,#937);
#811=AXIS2_PLACEMENT_3D('',#1139,#940,#941);
#812=AXIS2_PLACEMENT_3D('',#1140,#942,#943);
#813=AXIS2_PLACEMENT_3D('',#1169,#960,#961);
#814=AXIS2_PLACEMENT_3D('',#1175,#965,#966);
#815=AXIS2_PLACEMENT_3D('',#1179,#969,#970);
#816=AXIS2_PLACEMENT_3D('',#1183,#973,#974);
#817=AXIS2_PLACEMENT_3D('',#1189,#978,#979);
#818=AXIS2_PLACEMENT_3D('',#1193,#982,#983);
#819=AXIS2_PLACEMENT_3D('',#1197,#986,#987);
#820=AXIS2_PLACEMENT_3D('',#1203,#991,#992);
#821=AXIS2_PLACEMENT_3D('',#1205,#994,#995);
#822=AXIS2_PLACEMENT_3D('',#1209,#998,#999);
#823=AXIS2_PLACEMENT_3D('',#1213,#1002,#1003);
#824=AXIS2_PLACEMENT_3D('',#1216,#1006,#1007);
#825=AXIS2_PLACEMENT_3D('',#1217,#1008,#1009);
#826=DIRECTION('axis',(0.,0.,1.));
#827=DIRECTION('refdir',(1.,0.,0.));
#828=DIRECTION('center_axis',(0.,1.,0.));
#829=DIRECTION('ref_axis',(0.,0.,-1.));
#830=DIRECTION('center_axis',(0.,-1.,0.));
#831=DIRECTION('ref_axis',(0.,0.,-1.));
#832=DIRECTION('center_axis',(-1.,0.,0.));
#833=DIRECTION('ref_axis',(0.,0.,1.));
#834=DIRECTION('center_axis',(0.,1.,0.));
#835=DIRECTION('ref_axis',(0.,0.,1.));
#836=DIRECTION('',(2.61228946970625E-16,0.,-1.));
#837=DIRECTION('',(1.,0.,0.));
#838=DIRECTION('',(0.,0.,-1.));
#839=DIRECTION('',(-1.,0.,0.));
#840=DIRECTION('center_axis',(0.,0.,1.));
#841=DIRECTION('ref_axis',(1.,0.,0.));
#842=DIRECTION('',(1.,0.,0.));
#843=DIRECTION('',(0.,1.,0.));
#844=DIRECTION('',(1.,0.,0.));
#845=DIRECTION('',(0.,1.,0.));
#846=DIRECTION('center_axis',(-1.,0.,0.));
#847=DIRECTION('ref_axis',(0.,0.,1.));
#848=DIRECTION('',(0.,0.,1.));
#849=DIRECTION('',(0.,0.,1.));
#850=DIRECTION('',(0.,1.,0.));
#851=DIRECTION('center_axis',(0.,0.,-1.));
#852=DIRECTION('ref_axis',(-1.,0.,0.));
#853=DIRECTION('',(-1.,0.,0.));
#854=DIRECTION('',(-1.,0.,0.));
#855=DIRECTION('',(0.,1.,0.));
#856=DIRECTION('center_axis',(1.,0.,0.));
#857=DIRECTION('ref_axis',(0.,0.,-1.));
#858=DIRECTION('',(0.,0.,-1.));
#859=DIRECTION('center_axis',(0.,1.,0.));
#860=DIRECTION('ref_axis',(0.,0.,1.));
#861=DIRECTION('center_axis',(0.,1.,0.));
#862=DIRECTION('ref_axis',(0.,0.,1.));
#863=DIRECTION('',(0.,0.,1.));
#864=DIRECTION('',(-1.,0.,0.));
#865=DIRECTION('',(0.,0.,1.));
#866=DIRECTION('',(1.,0.,0.));
#867=DIRECTION('center_axis',(0.,0.,1.));
#868=DIRECTION('ref_axis',(1.,0.,0.));
#869=DIRECTION('',(1.,0.,0.));
#870=DIRECTION('',(0.,1.,0.));
#871=DIRECTION('',(1.,0.,0.));
#872=DIRECTION('',(0.,1.,0.));
#873=DIRECTION('center_axis',(-1.,0.,0.));
#874=DIRECTION('ref_axis',(0.,0.,1.));
#875=DIRECTION('',(0.,0.,1.));
#876=DIRECTION('',(0.,1.,0.));
#877=DIRECTION('center_axis',(0.,0.,-1.));
#878=DIRECTION('ref_axis',(-1.,0.,0.));
#879=DIRECTION('',(-1.,0.,0.));
#880=DIRECTION('',(-1.,0.,0.));
#881=DIRECTION('',(0.,1.,0.));
#882=DIRECTION('center_axis',(1.,0.,0.));
#883=DIRECTION('ref_axis',(0.,0.,-1.));
#884=DIRECTION('',(0.,0.,-1.));
#885=DIRECTION('',(0.,0.,-1.));
#886=DIRECTION('center_axis',(0.,1.,0.));
#887=DIRECTION('ref_axis',(0.,0.,1.));
#888=DIRECTION('center_axis',(0.,1.,0.));
#889=DIRECTION('ref_axis',(0.,0.,1.));
#890=DIRECTION('',(2.61228946970625E-16,0.,-1.));
#891=DIRECTION('',(1.,0.,0.));
#892=DIRECTION('',(2.22044604925031E-15,0.,-1.));
#893=DIRECTION('',(-1.,0.,0.));
#894=DIRECTION('center_axis',(0.,0.,1.));
#895=DIRECTION('ref_axis',(1.,0.,0.));
#896=DIRECTION('',(1.,0.,0.));
#897=DIRECTION('',(0.,1.,0.));
#898=DIRECTION('',(1.,0.,0.));
#899=DIRECTION('',(0.,1.,0.));
#900=DIRECTION('center_axis',(-1.,0.,2.22044604925031E-15));
#901=DIRECTION('ref_axis',(2.22044604925031E-15,0.,1.));
#902=DIRECTION('',(2.22044604925031E-15,0.,1.));
#903=DIRECTION('',(2.22044604925031E-15,0.,1.));
#904=DIRECTION('',(0.,1.,0.));
#905=DIRECTION('center_axis',(0.,0.,-1.));
#906=DIRECTION('ref_axis',(-1.,0.,0.));
#907=DIRECTION('',(-1.,0.,0.));
#908=DIRECTION('',(-1.,0.,0.));
#909=DIRECTION('',(0.,1.,0.));
#910=DIRECTION('center_axis',(1.,0.,2.22044604925031E-15));
#911=DIRECTION('ref_axis',(2.22044604925031E-15,0.,-1.));
#912=DIRECTION('',(2.22044604925031E-15,0.,-1.));
#913=DIRECTION('center_axis',(0.,1.,0.));
#914=DIRECTION('ref_axis',(0.,0.,1.));
#915=DIRECTION('center_axis',(0.,1.,0.));
#916=DIRECTION('ref_axis',(0.,0.,1.));
#917=DIRECTION('',(0.,0.,1.));
#918=DIRECTION('',(-1.,0.,0.));
#919=DIRECTION('',(0.,0.,1.));
#920=DIRECTION('',(1.,0.,0.));
#921=DIRECTION('center_axis',(0.,0.,1.));
#922=DIRECTION('ref_axis',(1.,0.,0.));
#923=DIRECTION('',(1.,0.,0.));
#924=DIRECTION('',(0.,1.,0.));
#925=DIRECTION('',(1.,0.,0.));
#926=DIRECTION('',(0.,1.,0.));
#927=DIRECTION('center_axis',(-1.,0.,0.));
#928=DIRECTION('ref_axis',(0.,0.,1.));
#929=DIRECTION('',(0.,0.,1.));
#930=DIRECTION('',(0.,1.,0.));
#931=DIRECTION('center_axis',(0.,0.,-1.));
#932=DIRECTION('ref_axis',(-1.,0.,0.));
#933=DIRECTION('',(-1.,0.,0.));
#934=DIRECTION('',(-1.,0.,0.));
#935=DIRECTION('',(0.,1.,0.));
#936=DIRECTION('center_axis',(1.,0.,4.44089209850063E-15));
#937=DIRECTION('ref_axis',(4.44089209850063E-15,0.,-1.));
#938=DIRECTION('',(4.44089209850063E-15,0.,-1.));
#939=DIRECTION('',(4.44089209850063E-15,0.,-1.));
#940=DIRECTION('center_axis',(0.,1.,0.));
#941=DIRECTION('ref_axis',(0.,0.,1.));
#942=DIRECTION('center_axis',(0.,1.,0.));
#943=DIRECTION('ref_axis',(0.,0.,1.));
#944=DIRECTION('',(2.61228946970625E-16,0.,-1.));
#945=DIRECTION('',(2.61228946970625E-16,0.,-1.));
#946=DIRECTION('',(1.,0.,2.17082714312181E-16));
#947=DIRECTION('',(-1.30614473485313E-16,0.,1.));
#948=DIRECTION('',(1.,0.,9.3296052489509E-17));
#949=DIRECTION('',(0.,0.,-1.));
#950=DIRECTION('',(1.,0.,2.17082714312181E-16));
#951=DIRECTION('',(0.,0.,1.));
#952=DIRECTION('',(0.,0.,1.));
#953=DIRECTION('',(0.,0.,1.));
#954=DIRECTION('',(-1.,0.,6.20236326606233E-17));
#955=DIRECTION('',(0.,0.,-1.));
#956=DIRECTION('',(-1.,0.,-1.86592104979018E-16));
#957=DIRECTION('',(-1.30614473485313E-16,0.,1.));
#958=DIRECTION('',(-1.,0.,6.20236326606233E-17));
#959=DIRECTION('',(2.61228946970625E-16,0.,-1.));
#960=DIRECTION('center_axis',(1.,0.,0.));
#961=DIRECTION('ref_axis',(0.,0.,-1.));
#962=DIRECTION('',(0.,0.,-1.));
#963=DIRECTION('',(0.,1.,0.));
#964=DIRECTION('',(0.,1.,0.));
#965=DIRECTION('center_axis',(1.86592104979018E-16,0.,-1.));
#966=DIRECTION('ref_axis',(-1.,0.,-1.86592104979018E-16));
#967=DIRECTION('',(-1.,0.,-1.86592104979018E-16));
#968=DIRECTION('',(0.,1.,0.));
#969=DIRECTION('center_axis',(-1.,0.,-1.30614473485313E-16));
#970=DIRECTION('ref_axis',(-1.30614473485313E-16,0.,1.));
#971=DIRECTION('',(-1.30614473485313E-16,0.,1.));
#972=DIRECTION('',(0.,-1.,0.));
#973=DIRECTION('center_axis',(-1.,0.,-1.30614473485313E-16));
#974=DIRECTION('ref_axis',(-1.30614473485313E-16,0.,1.));
#975=DIRECTION('',(-1.30614473485313E-16,0.,1.));
#976=DIRECTION('',(0.,1.,0.));
#977=DIRECTION('',(0.,1.,0.));
#978=DIRECTION('center_axis',(-9.3296052489509E-17,0.,1.));
#979=DIRECTION('ref_axis',(1.,0.,9.3296052489509E-17));
#980=DIRECTION('',(1.,0.,9.3296052489509E-17));
#981=DIRECTION('',(0.,1.,0.));
#982=DIRECTION('center_axis',(1.,0.,0.));
#983=DIRECTION('ref_axis',(0.,0.,-1.));
#984=DIRECTION('',(0.,0.,-1.));
#985=DIRECTION('',(0.,-1.,0.));
#986=DIRECTION('center_axis',(1.,0.,2.61228946970625E-16));
#987=DIRECTION('ref_axis',(2.61228946970625E-16,0.,-1.));
#988=DIRECTION('',(0.,1.,0.));
#989=DIRECTION('',(2.61228946970625E-16,0.,-1.));
#990=DIRECTION('',(0.,1.,0.));
#991=DIRECTION('center_axis',(0.,1.,0.));
#992=DIRECTION('ref_axis',(0.,0.,1.));
#993=DIRECTION('',(-1.,0.,6.20236326606233E-17));
#994=DIRECTION('center_axis',(-6.20236326606233E-17,0.,-1.));
#995=DIRECTION('ref_axis',(-1.,0.,6.20236326606233E-17));
#996=DIRECTION('',(0.,1.,0.));
#997=DIRECTION('',(-1.,0.,6.20236326606233E-17));
#998=DIRECTION('center_axis',(-1.,0.,0.));
#999=DIRECTION('ref_axis',(0.,0.,1.));
#1000=DIRECTION('',(0.,1.,0.));
#1001=DIRECTION('',(0.,0.,1.));
#1002=DIRECTION('center_axis',(-2.17082714312181E-16,0.,1.));
#1003=DIRECTION('ref_axis',(1.,0.,2.17082714312181E-16));
#1004=DIRECTION('',(1.,0.,2.17082714312181E-16));
#1005=DIRECTION('',(1.,0.,2.17082714312181E-16));
#1006=DIRECTION('center_axis',(0.,1.,0.));
#1007=DIRECTION('ref_axis',(0.,0.,1.));
#1008=DIRECTION('center_axis',(0.,1.,0.));
#1009=DIRECTION('ref_axis',(0.,0.,1.));
#1010=CARTESIAN_POINT('',(0.,0.,0.));
#1011=CARTESIAN_POINT('Origin',(-7.,7.9,2.5));
#1012=CARTESIAN_POINT('',(-7.,7.9,3.33429574370543));
#1013=CARTESIAN_POINT('Origin',(-7.,7.9,2.5));
#1014=CARTESIAN_POINT('',(-7.,7.06570425629457,2.5));
#1015=CARTESIAN_POINT('Origin',(-7.,7.9,2.5));
#1016=CARTESIAN_POINT('Origin',(8.6,1.,-3.05));
#1017=CARTESIAN_POINT('',(8.95,1.,-2.8));
#1018=CARTESIAN_POINT('',(8.95,1.,-3.3));
#1019=CARTESIAN_POINT('',(8.95,1.,2.125));
#1020=CARTESIAN_POINT('',(9.5,1.,-2.8));
#1021=CARTESIAN_POINT('',(7.7,1.,-2.8));
#1022=CARTESIAN_POINT('',(9.5,1.,-3.3));
#1023=CARTESIAN_POINT('',(9.5,1.,-2.8));
#1024=CARTESIAN_POINT('',(9.5,1.,-3.3));
#1025=CARTESIAN_POINT('Origin',(7.7,0.,-2.8));
#1026=CARTESIAN_POINT('',(7.7,0.,-2.8));
#1027=CARTESIAN_POINT('',(9.5,0.,-2.8));
#1028=CARTESIAN_POINT('',(7.7,0.,-2.8));
#1029=CARTESIAN_POINT('',(9.5,0.,-2.8));
#1030=CARTESIAN_POINT('',(7.7,1.,-2.8));
#1031=CARTESIAN_POINT('',(3.85,1.,-2.8));
#1032=CARTESIAN_POINT('',(7.7,0.,-2.8));
#1033=CARTESIAN_POINT('Origin',(7.7,0.,-3.3));
#1034=CARTESIAN_POINT('',(7.7,0.,-3.3));
#1035=CARTESIAN_POINT('',(7.7,0.,-3.3));
#1036=CARTESIAN_POINT('',(7.7,1.,-3.3));
#1037=CARTESIAN_POINT('',(7.7,1.,-1.65));
#1038=CARTESIAN_POINT('',(7.7,0.,-3.3));
#1039=CARTESIAN_POINT('Origin',(9.5,0.,-3.3));
#1040=CARTESIAN_POINT('',(9.5,0.,-3.3));
#1041=CARTESIAN_POINT('',(9.5,0.,-3.3));
#1042=CARTESIAN_POINT('',(4.75,1.,-3.3));
#1043=CARTESIAN_POINT('',(9.5,0.,-3.3));
#1044=CARTESIAN_POINT('Origin',(9.5,0.,-2.8));
#1045=CARTESIAN_POINT('',(9.5,0.,-2.8));
#1046=CARTESIAN_POINT('Origin',(8.6,0.,-3.05));
#1047=CARTESIAN_POINT('Origin',(-8.6,1.,-2.5));
#1048=CARTESIAN_POINT('',(-8.95,1.,-2.75));
#1049=CARTESIAN_POINT('',(-8.95,1.,-2.25));
#1050=CARTESIAN_POINT('',(-8.95,1.,-2.125));
#1051=CARTESIAN_POINT('',(-9.5,1.,-2.75));
#1052=CARTESIAN_POINT('',(-7.7,1.,-2.75));
#1053=CARTESIAN_POINT('',(-9.5,1.,-2.25));
#1054=CARTESIAN_POINT('',(-9.5,1.,-2.75));
#1055=CARTESIAN_POINT('',(-9.5,1.,-2.25));
#1056=CARTESIAN_POINT('Origin',(-9.5,0.,-2.25));
#1057=CARTESIAN_POINT('',(-9.5,0.,-2.25));
#1058=CARTESIAN_POINT('',(-7.7,0.,-2.25));
#1059=CARTESIAN_POINT('',(-9.5,0.,-2.25));
#1060=CARTESIAN_POINT('',(-7.7,1.,-2.25));
#1061=CARTESIAN_POINT('',(-7.7,0.,-2.25));
#1062=CARTESIAN_POINT('',(-4.75,1.,-2.25));
#1063=CARTESIAN_POINT('',(-9.5,0.,-2.25));
#1064=CARTESIAN_POINT('Origin',(-9.5,0.,-2.75));
#1065=CARTESIAN_POINT('',(-9.5,0.,-2.75));
#1066=CARTESIAN_POINT('',(-9.5,0.,-2.75));
#1067=CARTESIAN_POINT('',(-9.5,0.,-2.75));
#1068=CARTESIAN_POINT('Origin',(-7.7,0.,-2.75));
#1069=CARTESIAN_POINT('',(-7.7,0.,-2.75));
#1070=CARTESIAN_POINT('',(-7.7,0.,-2.75));
#1071=CARTESIAN_POINT('',(-7.7,1.,-2.75));
#1072=CARTESIAN_POINT('',(-3.85,1.,-2.75));
#1073=CARTESIAN_POINT('',(-7.7,0.,-2.75));
#1074=CARTESIAN_POINT('Origin',(-7.7,0.,-2.25));
#1075=CARTESIAN_POINT('',(-7.7,0.,-2.25));
#1076=CARTESIAN_POINT('',(-7.7,1.,-1.125));
#1077=CARTESIAN_POINT('Origin',(-8.6,0.,-2.5));
#1078=CARTESIAN_POINT('Origin',(8.6,1.,3.05));
#1079=CARTESIAN_POINT('',(8.95,1.,3.3));
#1080=CARTESIAN_POINT('',(8.95,1.,2.8));
#1081=CARTESIAN_POINT('',(8.95,1.,2.125));
#1082=CARTESIAN_POINT('',(9.5,1.,3.3));
#1083=CARTESIAN_POINT('',(7.7,1.,3.3));
#1084=CARTESIAN_POINT('',(9.5,1.,2.8));
#1085=CARTESIAN_POINT('',(9.5,1.,3.3));
#1086=CARTESIAN_POINT('',(9.5,1.,2.8));
#1087=CARTESIAN_POINT('Origin',(7.7,0.,3.3));
#1088=CARTESIAN_POINT('',(7.7,0.,3.3));
#1089=CARTESIAN_POINT('',(9.5,0.,3.3));
#1090=CARTESIAN_POINT('',(7.7,0.,3.3));
#1091=CARTESIAN_POINT('',(9.5,0.,3.3));
#1092=CARTESIAN_POINT('',(7.7,1.,3.3));
#1093=CARTESIAN_POINT('',(3.85,1.,3.3));
#1094=CARTESIAN_POINT('',(7.7,0.,3.3));
#1095=CARTESIAN_POINT('Origin',(7.7,0.,2.8));
#1096=CARTESIAN_POINT('',(7.7,0.,2.8));
#1097=CARTESIAN_POINT('',(7.7,0.,2.8));
#1098=CARTESIAN_POINT('',(7.7,1.,2.8));
#1099=CARTESIAN_POINT('',(7.7,1.,1.39999999999999));
#1100=CARTESIAN_POINT('',(7.7,0.,2.8));
#1101=CARTESIAN_POINT('Origin',(9.5,0.,2.8));
#1102=CARTESIAN_POINT('',(9.5,0.,2.8));
#1103=CARTESIAN_POINT('',(9.5,0.,2.8));
#1104=CARTESIAN_POINT('',(4.75,1.,2.8));
#1105=CARTESIAN_POINT('',(9.5,0.,2.8));
#1106=CARTESIAN_POINT('Origin',(9.5,0.,3.3));
#1107=CARTESIAN_POINT('',(9.5,0.,3.3));
#1108=CARTESIAN_POINT('Origin',(8.6,0.,3.05));
#1109=CARTESIAN_POINT('Origin',(-8.6,1.,2.5));
#1110=CARTESIAN_POINT('',(-8.95,1.,2.25));
#1111=CARTESIAN_POINT('',(-8.95,1.,2.75));
#1112=CARTESIAN_POINT('',(-8.95,1.,-2.125));
#1113=CARTESIAN_POINT('',(-9.5,1.,2.25));
#1114=CARTESIAN_POINT('',(-7.7,1.,2.25));
#1115=CARTESIAN_POINT('',(-9.5,1.,2.75));
#1116=CARTESIAN_POINT('',(-9.5,1.,2.25));
#1117=CARTESIAN_POINT('',(-9.5,1.,2.75));
#1118=CARTESIAN_POINT('Origin',(-9.5,0.,2.75));
#1119=CARTESIAN_POINT('',(-9.5,0.,2.75));
#1120=CARTESIAN_POINT('',(-7.7,0.,2.75));
#1121=CARTESIAN_POINT('',(-9.5,0.,2.75));
#1122=CARTESIAN_POINT('',(-7.7,1.,2.75));
#1123=CARTESIAN_POINT('',(-7.7,0.,2.75));
#1124=CARTESIAN_POINT('',(-4.75,1.,2.75));
#1125=CARTESIAN_POINT('',(-9.5,0.,2.75));
#1126=CARTESIAN_POINT('Origin',(-9.5,0.,2.25));
#1127=CARTESIAN_POINT('',(-9.5,0.,2.25));
#1128=CARTESIAN_POINT('',(-9.5,0.,2.25));
#1129=CARTESIAN_POINT('',(-9.5,0.,2.25));
#1130=CARTESIAN_POINT('Origin',(-7.7,0.,2.25));
#1131=CARTESIAN_POINT('',(-7.7,0.,2.25));
#1132=CARTESIAN_POINT('',(-7.7,0.,2.25));
#1133=CARTESIAN_POINT('',(-7.7,1.,2.25));
#1134=CARTESIAN_POINT('',(-3.85,1.,2.25));
#1135=CARTESIAN_POINT('',(-7.7,0.,2.25));
#1136=CARTESIAN_POINT('Origin',(-7.7,0.,2.75));
#1137=CARTESIAN_POINT('',(-7.7,0.,2.75));
#1138=CARTESIAN_POINT('',(-7.7,1.,1.37499999999999));
#1139=CARTESIAN_POINT('Origin',(-8.6,0.,2.5));
#1140=CARTESIAN_POINT('Origin',(1.11022302462516E-15,1.,2.22044604925031E-15));
#1141=CARTESIAN_POINT('',(8.95,1.,2.125));
#1142=CARTESIAN_POINT('',(8.95,1.,4.25));
#1143=CARTESIAN_POINT('',(8.95,1.,2.125));
#1144=CARTESIAN_POINT('',(5.95,1.,4.25));
#1145=CARTESIAN_POINT('',(-4.475,1.,4.25));
#1146=CARTESIAN_POINT('',(5.95,1.,3.5));
#1147=CARTESIAN_POINT('',(5.95,1.,4.25));
#1148=CARTESIAN_POINT('',(-5.95,1.,3.5));
#1149=CARTESIAN_POINT('',(5.95,1.,3.5));
#1150=CARTESIAN_POINT('',(-5.95,1.,4.25));
#1151=CARTESIAN_POINT('',(-5.95,1.,-4.25));
#1152=CARTESIAN_POINT('',(-8.95,1.,4.25));
#1153=CARTESIAN_POINT('',(-4.475,1.,4.25));
#1154=CARTESIAN_POINT('',(-8.95,1.,-2.125));
#1155=CARTESIAN_POINT('',(-8.95,1.,-2.125));
#1156=CARTESIAN_POINT('',(-8.95,1.,-4.25));
#1157=CARTESIAN_POINT('',(-8.95,1.,-2.125));
#1158=CARTESIAN_POINT('',(-5.95,1.,-4.25));
#1159=CARTESIAN_POINT('',(4.475,1.,-4.25));
#1160=CARTESIAN_POINT('',(-5.95,1.,-3.5));
#1161=CARTESIAN_POINT('',(-5.95,1.,-4.25));
#1162=CARTESIAN_POINT('',(5.95,1.,-3.5));
#1163=CARTESIAN_POINT('',(-5.95,1.,-3.5));
#1164=CARTESIAN_POINT('',(5.95,1.,-4.25));
#1165=CARTESIAN_POINT('',(5.95,1.,4.25));
#1166=CARTESIAN_POINT('',(8.95,1.,-4.25));
#1167=CARTESIAN_POINT('',(4.475,1.,-4.25));
#1168=CARTESIAN_POINT('',(8.95,1.,2.125));
#1169=CARTESIAN_POINT('Origin',(-5.95,0.,-3.5));
#1170=CARTESIAN_POINT('',(-5.95,0.,-3.5));
#1171=CARTESIAN_POINT('',(-5.95,0.,-4.25));
#1172=CARTESIAN_POINT('',(-5.95,0.,-1.75));
#1173=CARTESIAN_POINT('',(-5.95,0.,-3.5));
#1174=CARTESIAN_POINT('',(-5.95,0.,-4.25));
#1175=CARTESIAN_POINT('Origin',(5.95,0.,-3.5));
#1176=CARTESIAN_POINT('',(5.95,0.,-3.5));
#1177=CARTESIAN_POINT('',(2.975,0.,-3.5));
#1178=CARTESIAN_POINT('',(5.95,0.,-3.5));
#1179=CARTESIAN_POINT('Origin',(5.95,0.,-4.25));
#1180=CARTESIAN_POINT('',(5.95,0.,-4.25));
#1181=CARTESIAN_POINT('',(5.95,0.,-2.125));
#1182=CARTESIAN_POINT('',(5.95,0.,-4.25));
#1183=CARTESIAN_POINT('Origin',(5.95,0.,3.5));
#1184=CARTESIAN_POINT('',(5.95,0.,3.5));
#1185=CARTESIAN_POINT('',(5.95,0.,4.25));
#1186=CARTESIAN_POINT('',(5.95,0.,1.75));
#1187=CARTESIAN_POINT('',(5.95,0.,3.5));
#1188=CARTESIAN_POINT('',(5.95,0.,4.25));
#1189=CARTESIAN_POINT('Origin',(-5.95,0.,3.5));
#1190=CARTESIAN_POINT('',(-5.95,0.,3.5));
#1191=CARTESIAN_POINT('',(-2.975,0.,3.5));
#1192=CARTESIAN_POINT('',(-5.95,0.,3.5));
#1193=CARTESIAN_POINT('Origin',(-5.95,0.,4.25));
#1194=CARTESIAN_POINT('',(-5.95,0.,4.25));
#1195=CARTESIAN_POINT('',(-5.95,0.,2.125));
#1196=CARTESIAN_POINT('',(-5.95,0.,4.25));
#1197=CARTESIAN_POINT('Origin',(8.95,0.,4.25));
#1198=CARTESIAN_POINT('',(8.95,7.9,-4.25));
#1199=CARTESIAN_POINT('',(8.95,0.,-4.25));
#1200=CARTESIAN_POINT('',(8.95,7.9,4.25));
#1201=CARTESIAN_POINT('',(8.95,7.9,4.25));
#1202=CARTESIAN_POINT('',(8.95,0.,4.25));
#1203=CARTESIAN_POINT('Origin',(0.,0.,1.38777878078145E-15));
#1204=CARTESIAN_POINT('',(8.95,0.,-4.25));
#1205=CARTESIAN_POINT('Origin',(8.95,0.,-4.25));
#1206=CARTESIAN_POINT('',(-8.95,7.9,-4.25));
#1207=CARTESIAN_POINT('',(-8.95,0.,-4.25));
#1208=CARTESIAN_POINT('',(8.95,7.9,-4.25));
#1209=CARTESIAN_POINT('Origin',(-8.95,0.,-4.25));
#1210=CARTESIAN_POINT('',(-8.95,7.9,4.25));
#1211=CARTESIAN_POINT('',(-8.95,0.,4.25));
#1212=CARTESIAN_POINT('',(-8.95,7.9,-4.25));
#1213=CARTESIAN_POINT('Origin',(-8.95,0.,4.25));
#1214=CARTESIAN_POINT('',(-8.95,7.9,4.25));
#1215=CARTESIAN_POINT('',(-8.95,0.,4.25));
#1216=CARTESIAN_POINT('Origin',(0.,7.9,1.11022302462516E-15));
#1217=CARTESIAN_POINT('Origin',(0.,0.,1.38777878078145E-15));
#1218=UNCERTAINTY_MEASURE_WITH_UNIT(LENGTH_MEASURE(0.01),#1222,
'DISTANCE_ACCURACY_VALUE',
'Maximum model space distance between geometric entities at asserted c
onnectivities');
#1219=UNCERTAINTY_MEASURE_WITH_UNIT(LENGTH_MEASURE(0.01),#1222,
'DISTANCE_ACCURACY_VALUE',
'Maximum model space distance between geometric entities at asserted c
onnectivities');
#1220=(
GEOMETRIC_REPRESENTATION_CONTEXT(3)
GLOBAL_UNCERTAINTY_ASSIGNED_CONTEXT((#1218))
GLOBAL_UNIT_ASSIGNED_CONTEXT((#1222,#1224,#1225))
REPRESENTATION_CONTEXT('','3D')
);
#1221=(
GEOMETRIC_REPRESENTATION_CONTEXT(3)
GLOBAL_UNCERTAINTY_ASSIGNED_CONTEXT((#1219))
GLOBAL_UNIT_ASSIGNED_CONTEXT((#1222,#1224,#1225))
REPRESENTATION_CONTEXT('','3D')
);
#1222=(
LENGTH_UNIT()
NAMED_UNIT(*)
SI_UNIT(.MILLI.,.METRE.)
);
#1223=(
LENGTH_UNIT()
NAMED_UNIT(*)
SI_UNIT(.CENTI.,.METRE.)
);
#1224=(
NAMED_UNIT(*)
PLANE_ANGLE_UNIT()
SI_UNIT($,.RADIAN.)
);
#1225=(
NAMED_UNIT(*)
SI_UNIT($,.STERADIAN.)
SOLID_ANGLE_UNIT()
);
#1226=SHAPE_DEFINITION_REPRESENTATION(#1227,#1228);
#1227=PRODUCT_DEFINITION_SHAPE('',$,#1230);
#1228=SHAPE_REPRESENTATION('',(#784),#1220);
#1229=PRODUCT_DEFINITION_CONTEXT('part definition',#1234,'design');
#1230=PRODUCT_DEFINITION('ZS1052_S_HT','ZS1052_S_HT',#1231,#1229);
#1231=PRODUCT_DEFINITION_FORMATION('',$,#1236);
#1232=PRODUCT_RELATED_PRODUCT_CATEGORY('ZS1052_S_HT','ZS1052_S_HT',(#1236));
#1233=APPLICATION_PROTOCOL_DEFINITION('international standard',
'automotive_design',2009,#1234);
#1234=APPLICATION_CONTEXT(
'Core Data for Automotive Mechanical Design Process');
#1235=PRODUCT_CONTEXT('part definition',#1234,'mechanical');
#1236=PRODUCT('ZS1052_S_HT','ZS1052_S_HT',$,(#1235));
#1237=PRESENTATION_STYLE_ASSIGNMENT((#1239));
#1238=PRESENTATION_STYLE_ASSIGNMENT((#1240));
#1239=SURFACE_STYLE_USAGE(.BOTH.,#1245);
#1240=SURFACE_STYLE_USAGE(.BOTH.,#1246);
#1241=SURFACE_STYLE_RENDERING_WITH_PROPERTIES($,#1253,(#1243));
#1242=SURFACE_STYLE_RENDERING_WITH_PROPERTIES($,#1254,(#1244));
#1243=SURFACE_STYLE_TRANSPARENT(0.);
#1244=SURFACE_STYLE_TRANSPARENT(0.);
#1245=SURFACE_SIDE_STYLE('',(#1247,#1241));
#1246=SURFACE_SIDE_STYLE('',(#1248,#1242));
#1247=SURFACE_STYLE_FILL_AREA(#1249);
#1248=SURFACE_STYLE_FILL_AREA(#1250);
#1249=FILL_AREA_STYLE('',(#1251));
#1250=FILL_AREA_STYLE('',(#1252));
#1251=FILL_AREA_STYLE_COLOUR('',#1253);
#1252=FILL_AREA_STYLE_COLOUR('',#1254);
#1253=COLOUR_RGB('',0.749019607843137,0.749019607843137,0.749019607843137);
#1254=COLOUR_RGB('',0.250980392156863,0.250980392156863,0.250980392156863);
ENDSEC;
END-ISO-10303-21;
