M48
; DRILL file {KiCad 9.0.0} date 2025-05-26T15:17:41-0400
; FORMAT={-:-/ absolute / metric / decimal}
; #@! TF.CreationDate,2025-05-26T15:17:41-04:00
; #@! TF.GenerationSoftware,Kicad,Pcbnew,9.0.0
; #@! TF.FileFunction,Plated,1,2,PTH
FMAT,2
METRIC
; #@! TA.AperFunction,Plated,PTH,ViaDrill
T1C0.300
; #@! TA.AperFunction,Plated,PTH,ViaDrill
T2C0.600
; #@! TA.AperFunction,Plated,PTH,ComponentDrill
T3C1.000
; #@! TA.AperFunction,Plated,PTH,ComponentDrill
T4C1.300
; #@! TA.AperFunction,Plated,PTH,ComponentDrill
T5C1.500
; #@! TA.AperFunction,Plated,PTH,ComponentDrill
T6C1.700
; #@! TA.AperFunction,Plated,PTH,ComponentDrill
T7C1.850
; #@! TA.AperFunction,Plated,PTH,ComponentDrill
T8C5.300
%
G90
G05
T1
X118.1Y-114.0
X123.575Y-111.5
T2
X68.5Y-60.5
X68.5Y-92.0
X71.5Y-89.5
X77.0Y-89.5
X82.5Y-89.5
X88.0Y-89.5
X100.25Y-68.75
X103.5Y-61.75
T3
X71.5Y-102.225
X71.5Y-104.765
X77.0Y-102.225
X77.0Y-104.765
X82.5Y-102.225
X82.5Y-104.765
X88.0Y-102.225
X88.0Y-104.765
X110.735Y-82.68
X110.735Y-85.22
X110.735Y-87.76
X110.735Y-90.3
X113.275Y-82.68
X113.275Y-85.22
X113.275Y-87.76
X113.275Y-90.3
X126.132Y-78.0
X131.132Y-78.0
X140.975Y-76.75
X140.975Y-79.25
T4
X86.55Y-114.0
X86.55Y-124.0
X91.75Y-59.0
X94.25Y-61.5
X94.75Y-114.0
X94.75Y-124.0
X95.0Y-131.8
X95.0Y-140.0
X96.75Y-59.0
X105.0Y-131.8
X105.0Y-140.0
X131.25Y-89.867
X131.25Y-131.367
X139.45Y-89.867
X139.45Y-131.367
T5
X59.5Y-78.0
X59.5Y-92.0
X94.55Y-100.29
X100.0Y-100.29
X105.45Y-100.29
T6
X56.96Y-75.46
X56.96Y-80.54
X56.96Y-89.46
X56.96Y-94.54
X62.04Y-75.46
X62.04Y-80.54
X62.04Y-89.46
X62.04Y-94.54
T7
X108.96Y-57.49
X111.5Y-70.19
X111.5Y-74.0
X111.5Y-77.81
X114.04Y-57.49
T8
X61.0Y-122.0
T3
G00X120.0Y-61.25
M15
G01X120.0Y-59.75
M16
G05
G00X125.15Y-61.5
M15
G01X123.85Y-61.5
M16
G05
G00X125.5Y-67.5
M15
G01X123.5Y-67.5
M16
G05
G00X129.0Y-61.25
M15
G01X129.0Y-59.75
M16
G05
M30
