%TF.GenerationSoftware,KiCad,Pcbnew,9.0.0*%
%TF.CreationDate,2025-05-26T15:17:39-04:00*%
%TF.ProjectId,PlasmaTransformer,506c6173-6d61-4547-9261-6e73666f726d,rev?*%
%TF.SameCoordinates,Original*%
%TF.FileFunction,Soldermask,Top*%
%TF.FilePolarity,Negative*%
%FSLAX46Y46*%
G04 Gerber Fmt 4.6, Leading zero omitted, Abs format (unit mm)*
G04 Created by KiCad (PCBNEW 9.0.0) date 2025-05-26 15:17:39*
%MOMM*%
%LPD*%
G01*
G04 APERTURE LIST*
G04 Aperture macros list*
%AMRoundRect*
0 Rectangle with rounded corners*
0 $1 Rounding radius*
0 $2 $3 $4 $5 $6 $7 $8 $9 X,Y pos of 4 corners*
0 Add a 4 corners polygon primitive as box body*
4,1,4,$2,$3,$4,$5,$6,$7,$8,$9,$2,$3,0*
0 Add four circle primitives for the rounded corners*
1,1,$1+$1,$2,$3*
1,1,$1+$1,$4,$5*
1,1,$1+$1,$6,$7*
1,1,$1+$1,$8,$9*
0 Add four rect primitives between the rounded corners*
20,1,$1+$1,$2,$3,$4,$5,0*
20,1,$1+$1,$4,$5,$6,$7,0*
20,1,$1+$1,$6,$7,$8,$9,0*
20,1,$1+$1,$8,$9,$2,$3,0*%
G04 Aperture macros list end*
%ADD10RoundRect,0.250000X0.375000X0.625000X-0.375000X0.625000X-0.375000X-0.625000X0.375000X-0.625000X0*%
%ADD11O,3.800000X2.800000*%
%ADD12C,2.700000*%
%ADD13RoundRect,0.249999X-0.450001X-1.450001X0.450001X-1.450001X0.450001X1.450001X-0.450001X1.450001X0*%
%ADD14RoundRect,0.250000X0.262500X0.450000X-0.262500X0.450000X-0.262500X-0.450000X0.262500X-0.450000X0*%
%ADD15RoundRect,0.249999X1.450001X-0.450001X1.450001X0.450001X-1.450001X0.450001X-1.450001X-0.450001X0*%
%ADD16R,1.700000X1.700000*%
%ADD17O,1.700000X1.700000*%
%ADD18C,2.000000*%
%ADD19RoundRect,0.250002X-6.149998X1.499998X-6.149998X-1.499998X6.149998X-1.499998X6.149998X1.499998X0*%
%ADD20RoundRect,0.250000X0.312500X1.450000X-0.312500X1.450000X-0.312500X-1.450000X0.312500X-1.450000X0*%
%ADD21RoundRect,0.250000X1.000000X-1.400000X1.000000X1.400000X-1.000000X1.400000X-1.000000X-1.400000X0*%
%ADD22C,8.400000*%
%ADD23C,1.600000*%
%ADD24R,4.000000X2.000000*%
%ADD25O,3.300000X2.000000*%
%ADD26O,2.000000X3.500000*%
%ADD27RoundRect,0.250000X-1.450000X0.312500X-1.450000X-0.312500X1.450000X-0.312500X1.450000X0.312500X0*%
%ADD28RoundRect,0.200100X0.949900X-0.949900X0.949900X0.949900X-0.949900X0.949900X-0.949900X-0.949900X0*%
%ADD29C,2.500000*%
%ADD30RoundRect,0.250000X-0.262500X-0.450000X0.262500X-0.450000X0.262500X0.450000X-0.262500X0.450000X0*%
%ADD31C,4.500000*%
%ADD32R,2.000000X2.000000*%
%ADD33RoundRect,0.250000X-0.450000X0.262500X-0.450000X-0.262500X0.450000X-0.262500X0.450000X0.262500X0*%
%ADD34C,1.200000*%
%ADD35RoundRect,0.250000X0.750000X-0.600000X0.750000X0.600000X-0.750000X0.600000X-0.750000X-0.600000X0*%
%ADD36O,2.000000X1.700000*%
%ADD37C,1.700000*%
%ADD38R,2.800000X2.200000*%
%ADD39R,2.800000X2.800000*%
%ADD40RoundRect,0.250000X-0.250000X-0.250000X0.250000X-0.250000X0.250000X0.250000X-0.250000X0.250000X0*%
%ADD41RoundRect,0.250000X0.450000X-0.262500X0.450000X0.262500X-0.450000X0.262500X-0.450000X-0.262500X0*%
%ADD42RoundRect,0.075000X-0.925000X-0.175000X0.925000X-0.175000X0.925000X0.175000X-0.925000X0.175000X0*%
%ADD43C,10.600000*%
%ADD44C,2.200000*%
%ADD45C,3.400000*%
%ADD46C,3.600000*%
%ADD47R,2.500000X4.500000*%
%ADD48O,2.500000X4.500000*%
G04 APERTURE END LIST*
D10*
%TO.C,D3*%
X116500000Y-114000000D03*
X113700000Y-114000000D03*
%TD*%
D11*
%TO.C,SW1*%
X111500000Y-70190000D03*
X111500000Y-74000000D03*
X111500000Y-77810000D03*
D12*
X114040000Y-57490000D03*
X108960000Y-57490000D03*
%TD*%
D13*
%TO.C,C7*%
X116700000Y-80250000D03*
X120800000Y-80250000D03*
%TD*%
D14*
%TO.C,R13*%
X115912500Y-110200000D03*
X114087500Y-110200000D03*
%TD*%
D15*
%TO.C,C4*%
X77000000Y-96275000D03*
X77000000Y-92175000D03*
%TD*%
D16*
%TO.C,JP2*%
X77000000Y-102225000D03*
D17*
X77000000Y-104765000D03*
%TD*%
D18*
%TO.C,J12*%
X95000000Y-140000000D03*
X95000000Y-131800001D03*
%TD*%
D19*
%TO.C,L2*%
X135500000Y-107400000D03*
X135500000Y-122100000D03*
%TD*%
D20*
%TO.C,R10*%
X118137500Y-125250000D03*
X113862500Y-125250000D03*
%TD*%
D16*
%TO.C,JP4*%
X88000000Y-102225000D03*
D17*
X88000000Y-104765000D03*
%TD*%
D21*
%TO.C,D2*%
X96750000Y-106250000D03*
X103550000Y-106250000D03*
%TD*%
D22*
%TO.C,H2*%
X100000000Y-80500000D03*
%TD*%
D23*
%TO.C,J1*%
X124500000Y-58500000D03*
D24*
X124500000Y-67500000D03*
D25*
X124500000Y-61500000D03*
D26*
X120000000Y-60500000D03*
X129000000Y-60500000D03*
%TD*%
D27*
%TO.C,R6*%
X85250000Y-82612500D03*
X85250000Y-86887500D03*
%TD*%
D28*
%TO.C,J5*%
X59500000Y-78000000D03*
D29*
X56960000Y-80540000D03*
X62040000Y-80540000D03*
X56960000Y-75460000D03*
X62040000Y-75460000D03*
%TD*%
D13*
%TO.C,C10*%
X116700000Y-93000000D03*
X120800000Y-93000000D03*
%TD*%
D20*
%TO.C,R1*%
X125137500Y-125250000D03*
X120862500Y-125250000D03*
%TD*%
D30*
%TO.C,R2*%
X87087500Y-68750000D03*
X88912500Y-68750000D03*
%TD*%
D16*
%TO.C,J4*%
X113275000Y-90300000D03*
D17*
X110735000Y-90300000D03*
X113275000Y-87760000D03*
X110735000Y-87760000D03*
X113275000Y-85220000D03*
X110735000Y-85220000D03*
X113275000Y-82680000D03*
X110735000Y-82680000D03*
%TD*%
D31*
%TO.C,M1*%
X58750000Y-58750000D03*
X58750000Y-141250000D03*
X141250000Y-58750000D03*
X141250000Y-141250000D03*
%TD*%
D15*
%TO.C,C11*%
X103500000Y-68800000D03*
X103500000Y-64700000D03*
%TD*%
%TO.C,C3*%
X71500000Y-96275000D03*
X71500000Y-92175000D03*
%TD*%
D32*
%TO.C,C2*%
X126132323Y-78000000D03*
D18*
X131132323Y-78000000D03*
%TD*%
D33*
%TO.C,R4*%
X99000000Y-65087500D03*
X99000000Y-66912500D03*
%TD*%
D18*
%TO.C,J11*%
X105000000Y-140000000D03*
X105000000Y-131800001D03*
%TD*%
D34*
%TO.C,J2*%
X142975000Y-80850000D03*
D35*
X140975000Y-79250000D03*
D36*
X140975000Y-76750000D03*
%TD*%
D15*
%TO.C,C6*%
X88000000Y-96275000D03*
X88000000Y-92175000D03*
%TD*%
D18*
%TO.C,J9*%
X139450000Y-89866600D03*
X131250001Y-89866600D03*
%TD*%
D37*
%TO.C,J8*%
X75800000Y-61600000D03*
X75800000Y-68600000D03*
D38*
X79500000Y-62500000D03*
X72100000Y-60500000D03*
D39*
X72100000Y-69900000D03*
%TD*%
D40*
%TO.C,D1*%
X93750000Y-68750000D03*
X96250000Y-68750000D03*
%TD*%
D41*
%TO.C,R3*%
X90750000Y-66912500D03*
X90750000Y-65087500D03*
%TD*%
D18*
%TO.C,J7*%
X86550001Y-114000000D03*
X94750000Y-114000000D03*
%TD*%
D20*
%TO.C,R11*%
X111137500Y-125250000D03*
X106862500Y-125250000D03*
%TD*%
D42*
%TO.C,L1*%
X118225000Y-112000000D03*
%TD*%
D16*
%TO.C,JP1*%
X71500000Y-102225000D03*
D17*
X71500000Y-104765000D03*
%TD*%
D20*
%TO.C,R12*%
X104137500Y-125250000D03*
X99862500Y-125250000D03*
%TD*%
D13*
%TO.C,C9*%
X116700000Y-88750000D03*
X120800000Y-88750000D03*
%TD*%
D43*
%TO.C,H1*%
X61000000Y-122000000D03*
%TD*%
D33*
%TO.C,R9*%
X81250000Y-78087500D03*
X81250000Y-79912500D03*
%TD*%
D44*
%TO.C,RV1*%
X91750000Y-59000000D03*
X94250000Y-61500000D03*
X96750000Y-59000000D03*
%TD*%
D45*
%TO.C,HS1*%
X65750000Y-69500000D03*
X65750000Y-100500000D03*
X100000000Y-80400000D03*
X134250000Y-69500000D03*
X134250000Y-100500000D03*
%TD*%
D13*
%TO.C,C8*%
X116700000Y-84500000D03*
X120800000Y-84500000D03*
%TD*%
D16*
%TO.C,JP3*%
X82500000Y-102225000D03*
D17*
X82500000Y-104765000D03*
%TD*%
D33*
%TO.C,R5*%
X89000000Y-77837500D03*
X89000000Y-79662500D03*
%TD*%
D15*
%TO.C,C5*%
X82500000Y-96275000D03*
X82500000Y-92175000D03*
%TD*%
D14*
%TO.C,R8*%
X68912500Y-78080000D03*
X67087500Y-78080000D03*
%TD*%
D46*
%TO.C,Q1*%
X100000000Y-80430000D03*
D47*
X94550000Y-100290000D03*
D48*
X100000000Y-100290000D03*
X105450000Y-100290000D03*
%TD*%
D14*
%TO.C,R7*%
X67412500Y-92000000D03*
X65587500Y-92000000D03*
%TD*%
D18*
%TO.C,J10*%
X139450000Y-131366600D03*
X131250001Y-131366600D03*
%TD*%
%TO.C,J6*%
X86550001Y-124000000D03*
X94750000Y-124000000D03*
%TD*%
D28*
%TO.C,J3*%
X59500000Y-92000000D03*
D29*
X56960000Y-94540000D03*
X62040000Y-94540000D03*
X56960000Y-89460000D03*
X62040000Y-89460000D03*
%TD*%
M02*
