%TF.GenerationSoftware,KiCad,Pcbnew,9.0.0*%
%TF.CreationDate,2025-06-27T03:49:42-07:00*%
%TF.ProjectId,PlasmaTransformer,506c6173-6d61-4547-9261-6e73666f726d,rev?*%
%TF.SameCoordinates,Original*%
%TF.FileFunction,Legend,Top*%
%TF.FilePolarity,Positive*%
%FSLAX46Y46*%
G04 Gerber Fmt 4.6, Leading zero omitted, Abs format (unit mm)*
G04 Created by KiCad (PCBNEW 9.0.0) date 2025-06-27 03:49:42*
%MOMM*%
%LPD*%
G01*
G04 APERTURE LIST*
%ADD10C,0.300000*%
%ADD11C,0.200000*%
%ADD12C,0.250000*%
%ADD13C,0.150000*%
%ADD14C,0.100000*%
%ADD15C,0.120000*%
%ADD16C,0.152400*%
%ADD17C,0.508000*%
G04 APERTURE END LIST*
D10*
X118159774Y-131999171D02*
X117874060Y-131999171D01*
X117874060Y-131999171D02*
X117731203Y-131927742D01*
X117731203Y-131927742D02*
X117588346Y-131784885D01*
X117588346Y-131784885D02*
X117516917Y-131499171D01*
X117516917Y-131499171D02*
X117516917Y-130999171D01*
X117516917Y-130999171D02*
X117588346Y-130713457D01*
X117588346Y-130713457D02*
X117731203Y-130570600D01*
X117731203Y-130570600D02*
X117874060Y-130499171D01*
X117874060Y-130499171D02*
X118159774Y-130499171D01*
X118159774Y-130499171D02*
X118302632Y-130570600D01*
X118302632Y-130570600D02*
X118445489Y-130713457D01*
X118445489Y-130713457D02*
X118516917Y-130999171D01*
X118516917Y-130999171D02*
X118516917Y-131499171D01*
X118516917Y-131499171D02*
X118445489Y-131784885D01*
X118445489Y-131784885D02*
X118302632Y-131927742D01*
X118302632Y-131927742D02*
X118159774Y-131999171D01*
X116945488Y-130570600D02*
X116731203Y-130499171D01*
X116731203Y-130499171D02*
X116374060Y-130499171D01*
X116374060Y-130499171D02*
X116231203Y-130570600D01*
X116231203Y-130570600D02*
X116159774Y-130642028D01*
X116159774Y-130642028D02*
X116088345Y-130784885D01*
X116088345Y-130784885D02*
X116088345Y-130927742D01*
X116088345Y-130927742D02*
X116159774Y-131070600D01*
X116159774Y-131070600D02*
X116231203Y-131142028D01*
X116231203Y-131142028D02*
X116374060Y-131213457D01*
X116374060Y-131213457D02*
X116659774Y-131284885D01*
X116659774Y-131284885D02*
X116802631Y-131356314D01*
X116802631Y-131356314D02*
X116874060Y-131427742D01*
X116874060Y-131427742D02*
X116945488Y-131570600D01*
X116945488Y-131570600D02*
X116945488Y-131713457D01*
X116945488Y-131713457D02*
X116874060Y-131856314D01*
X116874060Y-131856314D02*
X116802631Y-131927742D01*
X116802631Y-131927742D02*
X116659774Y-131999171D01*
X116659774Y-131999171D02*
X116302631Y-131999171D01*
X116302631Y-131999171D02*
X116088345Y-131927742D01*
X114588346Y-130642028D02*
X114659774Y-130570600D01*
X114659774Y-130570600D02*
X114874060Y-130499171D01*
X114874060Y-130499171D02*
X115016917Y-130499171D01*
X115016917Y-130499171D02*
X115231203Y-130570600D01*
X115231203Y-130570600D02*
X115374060Y-130713457D01*
X115374060Y-130713457D02*
X115445489Y-130856314D01*
X115445489Y-130856314D02*
X115516917Y-131142028D01*
X115516917Y-131142028D02*
X115516917Y-131356314D01*
X115516917Y-131356314D02*
X115445489Y-131642028D01*
X115445489Y-131642028D02*
X115374060Y-131784885D01*
X115374060Y-131784885D02*
X115231203Y-131927742D01*
X115231203Y-131927742D02*
X115016917Y-131999171D01*
X115016917Y-131999171D02*
X114874060Y-131999171D01*
X114874060Y-131999171D02*
X114659774Y-131927742D01*
X114659774Y-131927742D02*
X114588346Y-131856314D01*
X124045489Y-102499171D02*
X124045489Y-103999171D01*
X122545488Y-103927742D02*
X122688346Y-103999171D01*
X122688346Y-103999171D02*
X122902631Y-103999171D01*
X122902631Y-103999171D02*
X123116917Y-103927742D01*
X123116917Y-103927742D02*
X123259774Y-103784885D01*
X123259774Y-103784885D02*
X123331203Y-103642028D01*
X123331203Y-103642028D02*
X123402631Y-103356314D01*
X123402631Y-103356314D02*
X123402631Y-103142028D01*
X123402631Y-103142028D02*
X123331203Y-102856314D01*
X123331203Y-102856314D02*
X123259774Y-102713457D01*
X123259774Y-102713457D02*
X123116917Y-102570600D01*
X123116917Y-102570600D02*
X122902631Y-102499171D01*
X122902631Y-102499171D02*
X122759774Y-102499171D01*
X122759774Y-102499171D02*
X122545488Y-102570600D01*
X122545488Y-102570600D02*
X122474060Y-102642028D01*
X122474060Y-102642028D02*
X122474060Y-103142028D01*
X122474060Y-103142028D02*
X122759774Y-103142028D01*
X121831203Y-102499171D02*
X121831203Y-103999171D01*
X121831203Y-103999171D02*
X120974060Y-102499171D01*
X120974060Y-102499171D02*
X120974060Y-103999171D01*
D11*
X71797695Y-139161094D02*
G75*
G02*
X73299780Y-142951090I-497915J-2389996D01*
G01*
X71244343Y-140832598D02*
G75*
G02*
X74699799Y-141051060I1528137J-3266192D01*
G01*
D12*
X63259336Y-85257761D02*
X63259336Y-87257761D01*
X63259336Y-87257761D02*
X62783146Y-87257761D01*
X62783146Y-87257761D02*
X62497431Y-87162523D01*
X62497431Y-87162523D02*
X62306955Y-86972047D01*
X62306955Y-86972047D02*
X62211717Y-86781571D01*
X62211717Y-86781571D02*
X62116479Y-86400619D01*
X62116479Y-86400619D02*
X62116479Y-86114904D01*
X62116479Y-86114904D02*
X62211717Y-85733952D01*
X62211717Y-85733952D02*
X62306955Y-85543476D01*
X62306955Y-85543476D02*
X62497431Y-85353000D01*
X62497431Y-85353000D02*
X62783146Y-85257761D01*
X62783146Y-85257761D02*
X63259336Y-85257761D01*
X60116479Y-85257761D02*
X60783146Y-86210142D01*
X61259336Y-85257761D02*
X61259336Y-87257761D01*
X61259336Y-87257761D02*
X60497431Y-87257761D01*
X60497431Y-87257761D02*
X60306955Y-87162523D01*
X60306955Y-87162523D02*
X60211717Y-87067285D01*
X60211717Y-87067285D02*
X60116479Y-86876809D01*
X60116479Y-86876809D02*
X60116479Y-86591095D01*
X60116479Y-86591095D02*
X60211717Y-86400619D01*
X60211717Y-86400619D02*
X60306955Y-86305380D01*
X60306955Y-86305380D02*
X60497431Y-86210142D01*
X60497431Y-86210142D02*
X61259336Y-86210142D01*
X59354574Y-85829190D02*
X58402193Y-85829190D01*
X59545050Y-85257761D02*
X58878384Y-87257761D01*
X58878384Y-87257761D02*
X58211717Y-85257761D01*
X57545050Y-85257761D02*
X57545050Y-87257761D01*
X56592669Y-85257761D02*
X56592669Y-87257761D01*
X56592669Y-87257761D02*
X55449812Y-85257761D01*
X55449812Y-85257761D02*
X55449812Y-87257761D01*
X142792669Y-84005380D02*
X143459336Y-84005380D01*
X143459336Y-82957761D02*
X143459336Y-84957761D01*
X143459336Y-84957761D02*
X142506955Y-84957761D01*
X141840288Y-83529190D02*
X140887907Y-83529190D01*
X142030764Y-82957761D02*
X141364098Y-84957761D01*
X141364098Y-84957761D02*
X140697431Y-82957761D01*
X140030764Y-82957761D02*
X140030764Y-84957761D01*
X140030764Y-84957761D02*
X138887907Y-82957761D01*
X138887907Y-82957761D02*
X138887907Y-84957761D01*
X60611717Y-72962523D02*
X60802193Y-73057761D01*
X60802193Y-73057761D02*
X61087907Y-73057761D01*
X61087907Y-73057761D02*
X61373622Y-72962523D01*
X61373622Y-72962523D02*
X61564098Y-72772047D01*
X61564098Y-72772047D02*
X61659336Y-72581571D01*
X61659336Y-72581571D02*
X61754574Y-72200619D01*
X61754574Y-72200619D02*
X61754574Y-71914904D01*
X61754574Y-71914904D02*
X61659336Y-71533952D01*
X61659336Y-71533952D02*
X61564098Y-71343476D01*
X61564098Y-71343476D02*
X61373622Y-71153000D01*
X61373622Y-71153000D02*
X61087907Y-71057761D01*
X61087907Y-71057761D02*
X60897431Y-71057761D01*
X60897431Y-71057761D02*
X60611717Y-71153000D01*
X60611717Y-71153000D02*
X60516479Y-71248238D01*
X60516479Y-71248238D02*
X60516479Y-71914904D01*
X60516479Y-71914904D02*
X60897431Y-71914904D01*
X59754574Y-71629190D02*
X58802193Y-71629190D01*
X59945050Y-71057761D02*
X59278384Y-73057761D01*
X59278384Y-73057761D02*
X58611717Y-71057761D01*
X58230764Y-73057761D02*
X57087907Y-73057761D01*
X57659336Y-71057761D02*
X57659336Y-73057761D01*
X56421240Y-72105380D02*
X55754573Y-72105380D01*
X55468859Y-71057761D02*
X56421240Y-71057761D01*
X56421240Y-71057761D02*
X56421240Y-73057761D01*
X56421240Y-73057761D02*
X55468859Y-73057761D01*
D13*
X134729887Y-143473878D02*
X135063220Y-143473878D01*
X135063220Y-142950068D02*
X135063220Y-143950068D01*
X135063220Y-143950068D02*
X134587030Y-143950068D01*
X134206077Y-143473878D02*
X133872744Y-143473878D01*
X133729887Y-142950068D02*
X134206077Y-142950068D01*
X134206077Y-142950068D02*
X134206077Y-143950068D01*
X134206077Y-143950068D02*
X133729887Y-143950068D01*
X133301315Y-143473878D02*
X132967982Y-143473878D01*
X132825125Y-142950068D02*
X133301315Y-142950068D01*
X133301315Y-142950068D02*
X133301315Y-143950068D01*
X133301315Y-143950068D02*
X132825125Y-143950068D01*
X132396553Y-142950068D02*
X132396553Y-143950068D01*
X132396553Y-143950068D02*
X132158458Y-143950068D01*
X132158458Y-143950068D02*
X132015601Y-143902449D01*
X132015601Y-143902449D02*
X131920363Y-143807211D01*
X131920363Y-143807211D02*
X131872744Y-143711973D01*
X131872744Y-143711973D02*
X131825125Y-143521497D01*
X131825125Y-143521497D02*
X131825125Y-143378640D01*
X131825125Y-143378640D02*
X131872744Y-143188164D01*
X131872744Y-143188164D02*
X131920363Y-143092926D01*
X131920363Y-143092926D02*
X132015601Y-142997688D01*
X132015601Y-142997688D02*
X132158458Y-142950068D01*
X132158458Y-142950068D02*
X132396553Y-142950068D01*
X131063220Y-143473878D02*
X130920363Y-143426259D01*
X130920363Y-143426259D02*
X130872744Y-143378640D01*
X130872744Y-143378640D02*
X130825125Y-143283402D01*
X130825125Y-143283402D02*
X130825125Y-143140545D01*
X130825125Y-143140545D02*
X130872744Y-143045307D01*
X130872744Y-143045307D02*
X130920363Y-142997688D01*
X130920363Y-142997688D02*
X131015601Y-142950068D01*
X131015601Y-142950068D02*
X131396553Y-142950068D01*
X131396553Y-142950068D02*
X131396553Y-143950068D01*
X131396553Y-143950068D02*
X131063220Y-143950068D01*
X131063220Y-143950068D02*
X130967982Y-143902449D01*
X130967982Y-143902449D02*
X130920363Y-143854830D01*
X130920363Y-143854830D02*
X130872744Y-143759592D01*
X130872744Y-143759592D02*
X130872744Y-143664354D01*
X130872744Y-143664354D02*
X130920363Y-143569116D01*
X130920363Y-143569116D02*
X130967982Y-143521497D01*
X130967982Y-143521497D02*
X131063220Y-143473878D01*
X131063220Y-143473878D02*
X131396553Y-143473878D01*
X130444172Y-143235783D02*
X129967982Y-143235783D01*
X130539410Y-142950068D02*
X130206077Y-143950068D01*
X130206077Y-143950068D02*
X129872744Y-142950068D01*
X128967982Y-143045307D02*
X129015601Y-142997688D01*
X129015601Y-142997688D02*
X129158458Y-142950068D01*
X129158458Y-142950068D02*
X129253696Y-142950068D01*
X129253696Y-142950068D02*
X129396553Y-142997688D01*
X129396553Y-142997688D02*
X129491791Y-143092926D01*
X129491791Y-143092926D02*
X129539410Y-143188164D01*
X129539410Y-143188164D02*
X129587029Y-143378640D01*
X129587029Y-143378640D02*
X129587029Y-143521497D01*
X129587029Y-143521497D02*
X129539410Y-143711973D01*
X129539410Y-143711973D02*
X129491791Y-143807211D01*
X129491791Y-143807211D02*
X129396553Y-143902449D01*
X129396553Y-143902449D02*
X129253696Y-143950068D01*
X129253696Y-143950068D02*
X129158458Y-143950068D01*
X129158458Y-143950068D02*
X129015601Y-143902449D01*
X129015601Y-143902449D02*
X128967982Y-143854830D01*
X128539410Y-142950068D02*
X128539410Y-143950068D01*
X127967982Y-142950068D02*
X128396553Y-143521497D01*
X127967982Y-143950068D02*
X128539410Y-143378640D01*
X126825124Y-142997688D02*
X126682267Y-142950068D01*
X126682267Y-142950068D02*
X126444172Y-142950068D01*
X126444172Y-142950068D02*
X126348934Y-142997688D01*
X126348934Y-142997688D02*
X126301315Y-143045307D01*
X126301315Y-143045307D02*
X126253696Y-143140545D01*
X126253696Y-143140545D02*
X126253696Y-143235783D01*
X126253696Y-143235783D02*
X126301315Y-143331021D01*
X126301315Y-143331021D02*
X126348934Y-143378640D01*
X126348934Y-143378640D02*
X126444172Y-143426259D01*
X126444172Y-143426259D02*
X126634648Y-143473878D01*
X126634648Y-143473878D02*
X126729886Y-143521497D01*
X126729886Y-143521497D02*
X126777505Y-143569116D01*
X126777505Y-143569116D02*
X126825124Y-143664354D01*
X126825124Y-143664354D02*
X126825124Y-143759592D01*
X126825124Y-143759592D02*
X126777505Y-143854830D01*
X126777505Y-143854830D02*
X126729886Y-143902449D01*
X126729886Y-143902449D02*
X126634648Y-143950068D01*
X126634648Y-143950068D02*
X126396553Y-143950068D01*
X126396553Y-143950068D02*
X126253696Y-143902449D01*
X125825124Y-143473878D02*
X125491791Y-143473878D01*
X125348934Y-142950068D02*
X125825124Y-142950068D01*
X125825124Y-142950068D02*
X125825124Y-143950068D01*
X125825124Y-143950068D02*
X125348934Y-143950068D01*
X124920362Y-142950068D02*
X124920362Y-143950068D01*
X124920362Y-143950068D02*
X124348934Y-142950068D01*
X124348934Y-142950068D02*
X124348934Y-143950068D01*
X123920362Y-142997688D02*
X123777505Y-142950068D01*
X123777505Y-142950068D02*
X123539410Y-142950068D01*
X123539410Y-142950068D02*
X123444172Y-142997688D01*
X123444172Y-142997688D02*
X123396553Y-143045307D01*
X123396553Y-143045307D02*
X123348934Y-143140545D01*
X123348934Y-143140545D02*
X123348934Y-143235783D01*
X123348934Y-143235783D02*
X123396553Y-143331021D01*
X123396553Y-143331021D02*
X123444172Y-143378640D01*
X123444172Y-143378640D02*
X123539410Y-143426259D01*
X123539410Y-143426259D02*
X123729886Y-143473878D01*
X123729886Y-143473878D02*
X123825124Y-143521497D01*
X123825124Y-143521497D02*
X123872743Y-143569116D01*
X123872743Y-143569116D02*
X123920362Y-143664354D01*
X123920362Y-143664354D02*
X123920362Y-143759592D01*
X123920362Y-143759592D02*
X123872743Y-143854830D01*
X123872743Y-143854830D02*
X123825124Y-143902449D01*
X123825124Y-143902449D02*
X123729886Y-143950068D01*
X123729886Y-143950068D02*
X123491791Y-143950068D01*
X123491791Y-143950068D02*
X123348934Y-143902449D01*
X122729886Y-143950068D02*
X122539410Y-143950068D01*
X122539410Y-143950068D02*
X122444172Y-143902449D01*
X122444172Y-143902449D02*
X122348934Y-143807211D01*
X122348934Y-143807211D02*
X122301315Y-143616735D01*
X122301315Y-143616735D02*
X122301315Y-143283402D01*
X122301315Y-143283402D02*
X122348934Y-143092926D01*
X122348934Y-143092926D02*
X122444172Y-142997688D01*
X122444172Y-142997688D02*
X122539410Y-142950068D01*
X122539410Y-142950068D02*
X122729886Y-142950068D01*
X122729886Y-142950068D02*
X122825124Y-142997688D01*
X122825124Y-142997688D02*
X122920362Y-143092926D01*
X122920362Y-143092926D02*
X122967981Y-143283402D01*
X122967981Y-143283402D02*
X122967981Y-143616735D01*
X122967981Y-143616735D02*
X122920362Y-143807211D01*
X122920362Y-143807211D02*
X122825124Y-143902449D01*
X122825124Y-143902449D02*
X122729886Y-143950068D01*
X121301315Y-142950068D02*
X121634648Y-143426259D01*
X121872743Y-142950068D02*
X121872743Y-143950068D01*
X121872743Y-143950068D02*
X121491791Y-143950068D01*
X121491791Y-143950068D02*
X121396553Y-143902449D01*
X121396553Y-143902449D02*
X121348934Y-143854830D01*
X121348934Y-143854830D02*
X121301315Y-143759592D01*
X121301315Y-143759592D02*
X121301315Y-143616735D01*
X121301315Y-143616735D02*
X121348934Y-143521497D01*
X121348934Y-143521497D02*
X121396553Y-143473878D01*
X121396553Y-143473878D02*
X121491791Y-143426259D01*
X121491791Y-143426259D02*
X121872743Y-143426259D01*
X135063220Y-141340124D02*
X135063220Y-142340124D01*
X135063220Y-142340124D02*
X134825125Y-142340124D01*
X134825125Y-142340124D02*
X134682268Y-142292505D01*
X134682268Y-142292505D02*
X134587030Y-142197267D01*
X134587030Y-142197267D02*
X134539411Y-142102029D01*
X134539411Y-142102029D02*
X134491792Y-141911553D01*
X134491792Y-141911553D02*
X134491792Y-141768696D01*
X134491792Y-141768696D02*
X134539411Y-141578220D01*
X134539411Y-141578220D02*
X134587030Y-141482982D01*
X134587030Y-141482982D02*
X134682268Y-141387744D01*
X134682268Y-141387744D02*
X134825125Y-141340124D01*
X134825125Y-141340124D02*
X135063220Y-141340124D01*
X134063220Y-141863934D02*
X133729887Y-141863934D01*
X133587030Y-141340124D02*
X134063220Y-141340124D01*
X134063220Y-141340124D02*
X134063220Y-142340124D01*
X134063220Y-142340124D02*
X133587030Y-142340124D01*
X133206077Y-141387744D02*
X133063220Y-141340124D01*
X133063220Y-141340124D02*
X132825125Y-141340124D01*
X132825125Y-141340124D02*
X132729887Y-141387744D01*
X132729887Y-141387744D02*
X132682268Y-141435363D01*
X132682268Y-141435363D02*
X132634649Y-141530601D01*
X132634649Y-141530601D02*
X132634649Y-141625839D01*
X132634649Y-141625839D02*
X132682268Y-141721077D01*
X132682268Y-141721077D02*
X132729887Y-141768696D01*
X132729887Y-141768696D02*
X132825125Y-141816315D01*
X132825125Y-141816315D02*
X133015601Y-141863934D01*
X133015601Y-141863934D02*
X133110839Y-141911553D01*
X133110839Y-141911553D02*
X133158458Y-141959172D01*
X133158458Y-141959172D02*
X133206077Y-142054410D01*
X133206077Y-142054410D02*
X133206077Y-142149648D01*
X133206077Y-142149648D02*
X133158458Y-142244886D01*
X133158458Y-142244886D02*
X133110839Y-142292505D01*
X133110839Y-142292505D02*
X133015601Y-142340124D01*
X133015601Y-142340124D02*
X132777506Y-142340124D01*
X132777506Y-142340124D02*
X132634649Y-142292505D01*
X132206077Y-141340124D02*
X132206077Y-142340124D01*
X131206078Y-142292505D02*
X131301316Y-142340124D01*
X131301316Y-142340124D02*
X131444173Y-142340124D01*
X131444173Y-142340124D02*
X131587030Y-142292505D01*
X131587030Y-142292505D02*
X131682268Y-142197267D01*
X131682268Y-142197267D02*
X131729887Y-142102029D01*
X131729887Y-142102029D02*
X131777506Y-141911553D01*
X131777506Y-141911553D02*
X131777506Y-141768696D01*
X131777506Y-141768696D02*
X131729887Y-141578220D01*
X131729887Y-141578220D02*
X131682268Y-141482982D01*
X131682268Y-141482982D02*
X131587030Y-141387744D01*
X131587030Y-141387744D02*
X131444173Y-141340124D01*
X131444173Y-141340124D02*
X131348935Y-141340124D01*
X131348935Y-141340124D02*
X131206078Y-141387744D01*
X131206078Y-141387744D02*
X131158459Y-141435363D01*
X131158459Y-141435363D02*
X131158459Y-141768696D01*
X131158459Y-141768696D02*
X131348935Y-141768696D01*
X130729887Y-141340124D02*
X130729887Y-142340124D01*
X130729887Y-142340124D02*
X130158459Y-141340124D01*
X130158459Y-141340124D02*
X130158459Y-142340124D01*
X128587030Y-141863934D02*
X128444173Y-141816315D01*
X128444173Y-141816315D02*
X128396554Y-141768696D01*
X128396554Y-141768696D02*
X128348935Y-141673458D01*
X128348935Y-141673458D02*
X128348935Y-141530601D01*
X128348935Y-141530601D02*
X128396554Y-141435363D01*
X128396554Y-141435363D02*
X128444173Y-141387744D01*
X128444173Y-141387744D02*
X128539411Y-141340124D01*
X128539411Y-141340124D02*
X128920363Y-141340124D01*
X128920363Y-141340124D02*
X128920363Y-142340124D01*
X128920363Y-142340124D02*
X128587030Y-142340124D01*
X128587030Y-142340124D02*
X128491792Y-142292505D01*
X128491792Y-142292505D02*
X128444173Y-142244886D01*
X128444173Y-142244886D02*
X128396554Y-142149648D01*
X128396554Y-142149648D02*
X128396554Y-142054410D01*
X128396554Y-142054410D02*
X128444173Y-141959172D01*
X128444173Y-141959172D02*
X128491792Y-141911553D01*
X128491792Y-141911553D02*
X128587030Y-141863934D01*
X128587030Y-141863934D02*
X128920363Y-141863934D01*
X127729887Y-141816315D02*
X127729887Y-141340124D01*
X128063220Y-142340124D02*
X127729887Y-141816315D01*
X127729887Y-141816315D02*
X127396554Y-142340124D01*
X135110839Y-139777800D02*
X134967982Y-139730180D01*
X134967982Y-139730180D02*
X134729887Y-139730180D01*
X134729887Y-139730180D02*
X134634649Y-139777800D01*
X134634649Y-139777800D02*
X134587030Y-139825419D01*
X134587030Y-139825419D02*
X134539411Y-139920657D01*
X134539411Y-139920657D02*
X134539411Y-140015895D01*
X134539411Y-140015895D02*
X134587030Y-140111133D01*
X134587030Y-140111133D02*
X134634649Y-140158752D01*
X134634649Y-140158752D02*
X134729887Y-140206371D01*
X134729887Y-140206371D02*
X134920363Y-140253990D01*
X134920363Y-140253990D02*
X135015601Y-140301609D01*
X135015601Y-140301609D02*
X135063220Y-140349228D01*
X135063220Y-140349228D02*
X135110839Y-140444466D01*
X135110839Y-140444466D02*
X135110839Y-140539704D01*
X135110839Y-140539704D02*
X135063220Y-140634942D01*
X135063220Y-140634942D02*
X135015601Y-140682561D01*
X135015601Y-140682561D02*
X134920363Y-140730180D01*
X134920363Y-140730180D02*
X134682268Y-140730180D01*
X134682268Y-140730180D02*
X134539411Y-140682561D01*
X134110839Y-139730180D02*
X134110839Y-140730180D01*
X133539411Y-139730180D02*
X133967982Y-140301609D01*
X133539411Y-140730180D02*
X134110839Y-140158752D01*
X132920363Y-140206371D02*
X132920363Y-139730180D01*
X133253696Y-140730180D02*
X132920363Y-140206371D01*
X132920363Y-140206371D02*
X132587030Y-140730180D01*
X132253696Y-140111133D02*
X131491792Y-140111133D01*
X130491792Y-140682561D02*
X130587030Y-140730180D01*
X130587030Y-140730180D02*
X130729887Y-140730180D01*
X130729887Y-140730180D02*
X130872744Y-140682561D01*
X130872744Y-140682561D02*
X130967982Y-140587323D01*
X130967982Y-140587323D02*
X131015601Y-140492085D01*
X131015601Y-140492085D02*
X131063220Y-140301609D01*
X131063220Y-140301609D02*
X131063220Y-140158752D01*
X131063220Y-140158752D02*
X131015601Y-139968276D01*
X131015601Y-139968276D02*
X130967982Y-139873038D01*
X130967982Y-139873038D02*
X130872744Y-139777800D01*
X130872744Y-139777800D02*
X130729887Y-139730180D01*
X130729887Y-139730180D02*
X130634649Y-139730180D01*
X130634649Y-139730180D02*
X130491792Y-139777800D01*
X130491792Y-139777800D02*
X130444173Y-139825419D01*
X130444173Y-139825419D02*
X130444173Y-140158752D01*
X130444173Y-140158752D02*
X130634649Y-140158752D01*
X130015601Y-140730180D02*
X130015601Y-139920657D01*
X130015601Y-139920657D02*
X129967982Y-139825419D01*
X129967982Y-139825419D02*
X129920363Y-139777800D01*
X129920363Y-139777800D02*
X129825125Y-139730180D01*
X129825125Y-139730180D02*
X129634649Y-139730180D01*
X129634649Y-139730180D02*
X129539411Y-139777800D01*
X129539411Y-139777800D02*
X129491792Y-139825419D01*
X129491792Y-139825419D02*
X129444173Y-139920657D01*
X129444173Y-139920657D02*
X129444173Y-140730180D01*
X128967982Y-139730180D02*
X128967982Y-140730180D01*
X128491792Y-139730180D02*
X128491792Y-140730180D01*
X128491792Y-140730180D02*
X128253697Y-140730180D01*
X128253697Y-140730180D02*
X128110840Y-140682561D01*
X128110840Y-140682561D02*
X128015602Y-140587323D01*
X128015602Y-140587323D02*
X127967983Y-140492085D01*
X127967983Y-140492085D02*
X127920364Y-140301609D01*
X127920364Y-140301609D02*
X127920364Y-140158752D01*
X127920364Y-140158752D02*
X127967983Y-139968276D01*
X127967983Y-139968276D02*
X128015602Y-139873038D01*
X128015602Y-139873038D02*
X128110840Y-139777800D01*
X128110840Y-139777800D02*
X128253697Y-139730180D01*
X128253697Y-139730180D02*
X128491792Y-139730180D01*
X127491792Y-140253990D02*
X127158459Y-140253990D01*
X127015602Y-139730180D02*
X127491792Y-139730180D01*
X127491792Y-139730180D02*
X127491792Y-140730180D01*
X127491792Y-140730180D02*
X127015602Y-140730180D01*
X126587030Y-139730180D02*
X126587030Y-140730180D01*
X126587030Y-140730180D02*
X126348935Y-140730180D01*
X126348935Y-140730180D02*
X126206078Y-140682561D01*
X126206078Y-140682561D02*
X126110840Y-140587323D01*
X126110840Y-140587323D02*
X126063221Y-140492085D01*
X126063221Y-140492085D02*
X126015602Y-140301609D01*
X126015602Y-140301609D02*
X126015602Y-140158752D01*
X126015602Y-140158752D02*
X126063221Y-139968276D01*
X126063221Y-139968276D02*
X126110840Y-139873038D01*
X126110840Y-139873038D02*
X126206078Y-139777800D01*
X126206078Y-139777800D02*
X126348935Y-139730180D01*
X126348935Y-139730180D02*
X126587030Y-139730180D01*
D10*
X89809524Y-134980249D02*
X89809524Y-136980249D01*
X88857143Y-134980249D02*
X88857143Y-136980249D01*
X88857143Y-136980249D02*
X87714286Y-134980249D01*
X87714286Y-134980249D02*
X87714286Y-136980249D01*
X86761905Y-134980249D02*
X86761905Y-136980249D01*
X86761905Y-136980249D02*
X86285715Y-136980249D01*
X86285715Y-136980249D02*
X86000000Y-136885011D01*
X86000000Y-136885011D02*
X85809524Y-136694535D01*
X85809524Y-136694535D02*
X85714286Y-136504059D01*
X85714286Y-136504059D02*
X85619048Y-136123107D01*
X85619048Y-136123107D02*
X85619048Y-135837392D01*
X85619048Y-135837392D02*
X85714286Y-135456440D01*
X85714286Y-135456440D02*
X85809524Y-135265964D01*
X85809524Y-135265964D02*
X86000000Y-135075488D01*
X86000000Y-135075488D02*
X86285715Y-134980249D01*
X86285715Y-134980249D02*
X86761905Y-134980249D01*
X84761905Y-136980249D02*
X84761905Y-135361202D01*
X84761905Y-135361202D02*
X84666667Y-135170726D01*
X84666667Y-135170726D02*
X84571429Y-135075488D01*
X84571429Y-135075488D02*
X84380953Y-134980249D01*
X84380953Y-134980249D02*
X84000000Y-134980249D01*
X84000000Y-134980249D02*
X83809524Y-135075488D01*
X83809524Y-135075488D02*
X83714286Y-135170726D01*
X83714286Y-135170726D02*
X83619048Y-135361202D01*
X83619048Y-135361202D02*
X83619048Y-136980249D01*
X81523810Y-135170726D02*
X81619048Y-135075488D01*
X81619048Y-135075488D02*
X81904762Y-134980249D01*
X81904762Y-134980249D02*
X82095238Y-134980249D01*
X82095238Y-134980249D02*
X82380953Y-135075488D01*
X82380953Y-135075488D02*
X82571429Y-135265964D01*
X82571429Y-135265964D02*
X82666667Y-135456440D01*
X82666667Y-135456440D02*
X82761905Y-135837392D01*
X82761905Y-135837392D02*
X82761905Y-136123107D01*
X82761905Y-136123107D02*
X82666667Y-136504059D01*
X82666667Y-136504059D02*
X82571429Y-136694535D01*
X82571429Y-136694535D02*
X82380953Y-136885011D01*
X82380953Y-136885011D02*
X82095238Y-136980249D01*
X82095238Y-136980249D02*
X81904762Y-136980249D01*
X81904762Y-136980249D02*
X81619048Y-136885011D01*
X81619048Y-136885011D02*
X81523810Y-136789773D01*
X80952381Y-136980249D02*
X79809524Y-136980249D01*
X80380953Y-134980249D02*
X80380953Y-136980249D01*
X79142857Y-134980249D02*
X79142857Y-136980249D01*
X78476190Y-136980249D02*
X77809524Y-134980249D01*
X77809524Y-134980249D02*
X77142857Y-136980249D01*
X76476190Y-136027868D02*
X75809523Y-136027868D01*
X75523809Y-134980249D02*
X76476190Y-134980249D01*
X76476190Y-134980249D02*
X76476190Y-136980249D01*
X76476190Y-136980249D02*
X75523809Y-136980249D01*
X73714285Y-134980249D02*
X74666666Y-134980249D01*
X74666666Y-134980249D02*
X74666666Y-136980249D01*
X72666666Y-135932630D02*
X72666666Y-134980249D01*
X73333332Y-136980249D02*
X72666666Y-135932630D01*
X72666666Y-135932630D02*
X71999999Y-136980249D01*
X71333332Y-135742154D02*
X69809523Y-135742154D01*
X67714285Y-135170726D02*
X67809523Y-135075488D01*
X67809523Y-135075488D02*
X68095237Y-134980249D01*
X68095237Y-134980249D02*
X68285713Y-134980249D01*
X68285713Y-134980249D02*
X68571428Y-135075488D01*
X68571428Y-135075488D02*
X68761904Y-135265964D01*
X68761904Y-135265964D02*
X68857142Y-135456440D01*
X68857142Y-135456440D02*
X68952380Y-135837392D01*
X68952380Y-135837392D02*
X68952380Y-136123107D01*
X68952380Y-136123107D02*
X68857142Y-136504059D01*
X68857142Y-136504059D02*
X68761904Y-136694535D01*
X68761904Y-136694535D02*
X68571428Y-136885011D01*
X68571428Y-136885011D02*
X68285713Y-136980249D01*
X68285713Y-136980249D02*
X68095237Y-136980249D01*
X68095237Y-136980249D02*
X67809523Y-136885011D01*
X67809523Y-136885011D02*
X67714285Y-136789773D01*
X66476190Y-136980249D02*
X66095237Y-136980249D01*
X66095237Y-136980249D02*
X65904761Y-136885011D01*
X65904761Y-136885011D02*
X65714285Y-136694535D01*
X65714285Y-136694535D02*
X65619047Y-136313583D01*
X65619047Y-136313583D02*
X65619047Y-135646916D01*
X65619047Y-135646916D02*
X65714285Y-135265964D01*
X65714285Y-135265964D02*
X65904761Y-135075488D01*
X65904761Y-135075488D02*
X66095237Y-134980249D01*
X66095237Y-134980249D02*
X66476190Y-134980249D01*
X66476190Y-134980249D02*
X66666666Y-135075488D01*
X66666666Y-135075488D02*
X66857142Y-135265964D01*
X66857142Y-135265964D02*
X66952380Y-135646916D01*
X66952380Y-135646916D02*
X66952380Y-136313583D01*
X66952380Y-136313583D02*
X66857142Y-136694535D01*
X66857142Y-136694535D02*
X66666666Y-136885011D01*
X66666666Y-136885011D02*
X66476190Y-136980249D01*
X64761904Y-136980249D02*
X64761904Y-135361202D01*
X64761904Y-135361202D02*
X64666666Y-135170726D01*
X64666666Y-135170726D02*
X64571428Y-135075488D01*
X64571428Y-135075488D02*
X64380952Y-134980249D01*
X64380952Y-134980249D02*
X63999999Y-134980249D01*
X63999999Y-134980249D02*
X63809523Y-135075488D01*
X63809523Y-135075488D02*
X63714285Y-135170726D01*
X63714285Y-135170726D02*
X63619047Y-135361202D01*
X63619047Y-135361202D02*
X63619047Y-136980249D01*
X62666666Y-134980249D02*
X62666666Y-136980249D01*
X62666666Y-136980249D02*
X61904761Y-136980249D01*
X61904761Y-136980249D02*
X61714285Y-136885011D01*
X61714285Y-136885011D02*
X61619047Y-136789773D01*
X61619047Y-136789773D02*
X61523809Y-136599297D01*
X61523809Y-136599297D02*
X61523809Y-136313583D01*
X61523809Y-136313583D02*
X61619047Y-136123107D01*
X61619047Y-136123107D02*
X61714285Y-136027868D01*
X61714285Y-136027868D02*
X61904761Y-135932630D01*
X61904761Y-135932630D02*
X62666666Y-135932630D01*
X59714285Y-134980249D02*
X60666666Y-134980249D01*
X60666666Y-134980249D02*
X60666666Y-136980249D01*
X59047618Y-136027868D02*
X58380951Y-136027868D01*
X58095237Y-134980249D02*
X59047618Y-134980249D01*
X59047618Y-134980249D02*
X59047618Y-136980249D01*
X59047618Y-136980249D02*
X58095237Y-136980249D01*
X57238094Y-134980249D02*
X57238094Y-136980249D01*
X57238094Y-136980249D02*
X56761904Y-136980249D01*
X56761904Y-136980249D02*
X56476189Y-136885011D01*
X56476189Y-136885011D02*
X56285713Y-136694535D01*
X56285713Y-136694535D02*
X56190475Y-136504059D01*
X56190475Y-136504059D02*
X56095237Y-136123107D01*
X56095237Y-136123107D02*
X56095237Y-135837392D01*
X56095237Y-135837392D02*
X56190475Y-135456440D01*
X56190475Y-135456440D02*
X56285713Y-135265964D01*
X56285713Y-135265964D02*
X56476189Y-135075488D01*
X56476189Y-135075488D02*
X56761904Y-134980249D01*
X56761904Y-134980249D02*
X57238094Y-134980249D01*
X84142857Y-131760361D02*
X84142857Y-133760361D01*
X84142857Y-133760361D02*
X83380952Y-133760361D01*
X83380952Y-133760361D02*
X83190476Y-133665123D01*
X83190476Y-133665123D02*
X83095238Y-133569885D01*
X83095238Y-133569885D02*
X83000000Y-133379409D01*
X83000000Y-133379409D02*
X83000000Y-133093695D01*
X83000000Y-133093695D02*
X83095238Y-132903219D01*
X83095238Y-132903219D02*
X83190476Y-132807980D01*
X83190476Y-132807980D02*
X83380952Y-132712742D01*
X83380952Y-132712742D02*
X84142857Y-132712742D01*
X81190476Y-131760361D02*
X82142857Y-131760361D01*
X82142857Y-131760361D02*
X82142857Y-133760361D01*
X80619047Y-132331790D02*
X79666666Y-132331790D01*
X80809523Y-131760361D02*
X80142857Y-133760361D01*
X80142857Y-133760361D02*
X79476190Y-131760361D01*
X78904761Y-131855600D02*
X78619047Y-131760361D01*
X78619047Y-131760361D02*
X78142856Y-131760361D01*
X78142856Y-131760361D02*
X77952380Y-131855600D01*
X77952380Y-131855600D02*
X77857142Y-131950838D01*
X77857142Y-131950838D02*
X77761904Y-132141314D01*
X77761904Y-132141314D02*
X77761904Y-132331790D01*
X77761904Y-132331790D02*
X77857142Y-132522266D01*
X77857142Y-132522266D02*
X77952380Y-132617504D01*
X77952380Y-132617504D02*
X78142856Y-132712742D01*
X78142856Y-132712742D02*
X78523809Y-132807980D01*
X78523809Y-132807980D02*
X78714285Y-132903219D01*
X78714285Y-132903219D02*
X78809523Y-132998457D01*
X78809523Y-132998457D02*
X78904761Y-133188933D01*
X78904761Y-133188933D02*
X78904761Y-133379409D01*
X78904761Y-133379409D02*
X78809523Y-133569885D01*
X78809523Y-133569885D02*
X78714285Y-133665123D01*
X78714285Y-133665123D02*
X78523809Y-133760361D01*
X78523809Y-133760361D02*
X78047618Y-133760361D01*
X78047618Y-133760361D02*
X77761904Y-133665123D01*
X76904761Y-131760361D02*
X76904761Y-133760361D01*
X76904761Y-133760361D02*
X76238094Y-132331790D01*
X76238094Y-132331790D02*
X75571428Y-133760361D01*
X75571428Y-133760361D02*
X75571428Y-131760361D01*
X74714285Y-132331790D02*
X73761904Y-132331790D01*
X74904761Y-131760361D02*
X74238095Y-133760361D01*
X74238095Y-133760361D02*
X73571428Y-131760361D01*
X71380951Y-131760361D02*
X71380951Y-133760361D01*
X71380951Y-133760361D02*
X70904761Y-133760361D01*
X70904761Y-133760361D02*
X70619046Y-133665123D01*
X70619046Y-133665123D02*
X70428570Y-133474647D01*
X70428570Y-133474647D02*
X70333332Y-133284171D01*
X70333332Y-133284171D02*
X70238094Y-132903219D01*
X70238094Y-132903219D02*
X70238094Y-132617504D01*
X70238094Y-132617504D02*
X70333332Y-132236552D01*
X70333332Y-132236552D02*
X70428570Y-132046076D01*
X70428570Y-132046076D02*
X70619046Y-131855600D01*
X70619046Y-131855600D02*
X70904761Y-131760361D01*
X70904761Y-131760361D02*
X71380951Y-131760361D01*
X68238094Y-131760361D02*
X68904761Y-132712742D01*
X69380951Y-131760361D02*
X69380951Y-133760361D01*
X69380951Y-133760361D02*
X68619046Y-133760361D01*
X68619046Y-133760361D02*
X68428570Y-133665123D01*
X68428570Y-133665123D02*
X68333332Y-133569885D01*
X68333332Y-133569885D02*
X68238094Y-133379409D01*
X68238094Y-133379409D02*
X68238094Y-133093695D01*
X68238094Y-133093695D02*
X68333332Y-132903219D01*
X68333332Y-132903219D02*
X68428570Y-132807980D01*
X68428570Y-132807980D02*
X68619046Y-132712742D01*
X68619046Y-132712742D02*
X69380951Y-132712742D01*
X67380951Y-131760361D02*
X67380951Y-133760361D01*
X66714284Y-133760361D02*
X66047618Y-131760361D01*
X66047618Y-131760361D02*
X65380951Y-133760361D01*
X64714284Y-132807980D02*
X64047617Y-132807980D01*
X63761903Y-131760361D02*
X64714284Y-131760361D01*
X64714284Y-131760361D02*
X64714284Y-133760361D01*
X64714284Y-133760361D02*
X63761903Y-133760361D01*
X61761903Y-131760361D02*
X62428570Y-132712742D01*
X62904760Y-131760361D02*
X62904760Y-133760361D01*
X62904760Y-133760361D02*
X62142855Y-133760361D01*
X62142855Y-133760361D02*
X61952379Y-133665123D01*
X61952379Y-133665123D02*
X61857141Y-133569885D01*
X61857141Y-133569885D02*
X61761903Y-133379409D01*
X61761903Y-133379409D02*
X61761903Y-133093695D01*
X61761903Y-133093695D02*
X61857141Y-132903219D01*
X61857141Y-132903219D02*
X61952379Y-132807980D01*
X61952379Y-132807980D02*
X62142855Y-132712742D01*
X62142855Y-132712742D02*
X62904760Y-132712742D01*
D12*
X91145050Y-112757761D02*
X90002193Y-112757761D01*
X90573622Y-110757761D02*
X90573622Y-112757761D01*
X89430764Y-111329190D02*
X88478383Y-111329190D01*
X89621240Y-110757761D02*
X88954574Y-112757761D01*
X88954574Y-112757761D02*
X88287907Y-110757761D01*
X87621240Y-110757761D02*
X87621240Y-112757761D01*
X87621240Y-112757761D02*
X86478383Y-110757761D01*
X86478383Y-110757761D02*
X86478383Y-112757761D01*
X85526002Y-110757761D02*
X85526002Y-112757761D01*
X84383145Y-110757761D02*
X85240288Y-111900619D01*
X84383145Y-112757761D02*
X85526002Y-111614904D01*
X80859335Y-110948238D02*
X80954573Y-110853000D01*
X80954573Y-110853000D02*
X81240287Y-110757761D01*
X81240287Y-110757761D02*
X81430763Y-110757761D01*
X81430763Y-110757761D02*
X81716478Y-110853000D01*
X81716478Y-110853000D02*
X81906954Y-111043476D01*
X81906954Y-111043476D02*
X82002192Y-111233952D01*
X82002192Y-111233952D02*
X82097430Y-111614904D01*
X82097430Y-111614904D02*
X82097430Y-111900619D01*
X82097430Y-111900619D02*
X82002192Y-112281571D01*
X82002192Y-112281571D02*
X81906954Y-112472047D01*
X81906954Y-112472047D02*
X81716478Y-112662523D01*
X81716478Y-112662523D02*
X81430763Y-112757761D01*
X81430763Y-112757761D02*
X81240287Y-112757761D01*
X81240287Y-112757761D02*
X80954573Y-112662523D01*
X80954573Y-112662523D02*
X80859335Y-112567285D01*
X80097430Y-111329190D02*
X79145049Y-111329190D01*
X80287906Y-110757761D02*
X79621240Y-112757761D01*
X79621240Y-112757761D02*
X78954573Y-110757761D01*
X78287906Y-110757761D02*
X78287906Y-112757761D01*
X78287906Y-112757761D02*
X77526001Y-112757761D01*
X77526001Y-112757761D02*
X77335525Y-112662523D01*
X77335525Y-112662523D02*
X77240287Y-112567285D01*
X77240287Y-112567285D02*
X77145049Y-112376809D01*
X77145049Y-112376809D02*
X77145049Y-112091095D01*
X77145049Y-112091095D02*
X77240287Y-111900619D01*
X77240287Y-111900619D02*
X77335525Y-111805380D01*
X77335525Y-111805380D02*
X77526001Y-111710142D01*
X77526001Y-111710142D02*
X78287906Y-111710142D01*
X76383144Y-111329190D02*
X75430763Y-111329190D01*
X76573620Y-110757761D02*
X75906954Y-112757761D01*
X75906954Y-112757761D02*
X75240287Y-110757761D01*
X73430763Y-110948238D02*
X73526001Y-110853000D01*
X73526001Y-110853000D02*
X73811715Y-110757761D01*
X73811715Y-110757761D02*
X74002191Y-110757761D01*
X74002191Y-110757761D02*
X74287906Y-110853000D01*
X74287906Y-110853000D02*
X74478382Y-111043476D01*
X74478382Y-111043476D02*
X74573620Y-111233952D01*
X74573620Y-111233952D02*
X74668858Y-111614904D01*
X74668858Y-111614904D02*
X74668858Y-111900619D01*
X74668858Y-111900619D02*
X74573620Y-112281571D01*
X74573620Y-112281571D02*
X74478382Y-112472047D01*
X74478382Y-112472047D02*
X74287906Y-112662523D01*
X74287906Y-112662523D02*
X74002191Y-112757761D01*
X74002191Y-112757761D02*
X73811715Y-112757761D01*
X73811715Y-112757761D02*
X73526001Y-112662523D01*
X73526001Y-112662523D02*
X73430763Y-112567285D01*
X72573620Y-110757761D02*
X72573620Y-112757761D01*
X71906953Y-112757761D02*
X70764096Y-112757761D01*
X71335525Y-110757761D02*
X71335525Y-112757761D01*
X69716477Y-112757761D02*
X69335524Y-112757761D01*
X69335524Y-112757761D02*
X69145048Y-112662523D01*
X69145048Y-112662523D02*
X68954572Y-112472047D01*
X68954572Y-112472047D02*
X68859334Y-112091095D01*
X68859334Y-112091095D02*
X68859334Y-111424428D01*
X68859334Y-111424428D02*
X68954572Y-111043476D01*
X68954572Y-111043476D02*
X69145048Y-110853000D01*
X69145048Y-110853000D02*
X69335524Y-110757761D01*
X69335524Y-110757761D02*
X69716477Y-110757761D01*
X69716477Y-110757761D02*
X69906953Y-110853000D01*
X69906953Y-110853000D02*
X70097429Y-111043476D01*
X70097429Y-111043476D02*
X70192667Y-111424428D01*
X70192667Y-111424428D02*
X70192667Y-112091095D01*
X70192667Y-112091095D02*
X70097429Y-112472047D01*
X70097429Y-112472047D02*
X69906953Y-112662523D01*
X69906953Y-112662523D02*
X69716477Y-112757761D01*
X66859334Y-110757761D02*
X67526001Y-111710142D01*
X68002191Y-110757761D02*
X68002191Y-112757761D01*
X68002191Y-112757761D02*
X67240286Y-112757761D01*
X67240286Y-112757761D02*
X67049810Y-112662523D01*
X67049810Y-112662523D02*
X66954572Y-112567285D01*
X66954572Y-112567285D02*
X66859334Y-112376809D01*
X66859334Y-112376809D02*
X66859334Y-112091095D01*
X66859334Y-112091095D02*
X66954572Y-111900619D01*
X66954572Y-111900619D02*
X67049810Y-111805380D01*
X67049810Y-111805380D02*
X67240286Y-111710142D01*
X67240286Y-111710142D02*
X68002191Y-111710142D01*
X142711717Y-66677649D02*
X143854574Y-66677649D01*
X143283146Y-66677649D02*
X143283146Y-68677649D01*
X143283146Y-68677649D02*
X143473622Y-68391935D01*
X143473622Y-68391935D02*
X143664098Y-68201459D01*
X143664098Y-68201459D02*
X143854574Y-68106221D01*
X140902193Y-68677649D02*
X141854574Y-68677649D01*
X141854574Y-68677649D02*
X141949812Y-67725268D01*
X141949812Y-67725268D02*
X141854574Y-67820507D01*
X141854574Y-67820507D02*
X141664098Y-67915745D01*
X141664098Y-67915745D02*
X141187907Y-67915745D01*
X141187907Y-67915745D02*
X140997431Y-67820507D01*
X140997431Y-67820507D02*
X140902193Y-67725268D01*
X140902193Y-67725268D02*
X140806955Y-67534792D01*
X140806955Y-67534792D02*
X140806955Y-67058602D01*
X140806955Y-67058602D02*
X140902193Y-66868126D01*
X140902193Y-66868126D02*
X140997431Y-66772888D01*
X140997431Y-66772888D02*
X141187907Y-66677649D01*
X141187907Y-66677649D02*
X141664098Y-66677649D01*
X141664098Y-66677649D02*
X141854574Y-66772888D01*
X141854574Y-66772888D02*
X141949812Y-66868126D01*
X139949812Y-67439554D02*
X138426003Y-67439554D01*
X143854574Y-65267285D02*
X143759336Y-65362523D01*
X143759336Y-65362523D02*
X143568860Y-65457761D01*
X143568860Y-65457761D02*
X143092669Y-65457761D01*
X143092669Y-65457761D02*
X142902193Y-65362523D01*
X142902193Y-65362523D02*
X142806955Y-65267285D01*
X142806955Y-65267285D02*
X142711717Y-65076809D01*
X142711717Y-65076809D02*
X142711717Y-64886333D01*
X142711717Y-64886333D02*
X142806955Y-64600619D01*
X142806955Y-64600619D02*
X143949812Y-63457761D01*
X143949812Y-63457761D02*
X142711717Y-63457761D01*
X140997431Y-64791095D02*
X140997431Y-63457761D01*
X141473622Y-65553000D02*
X141949812Y-64124428D01*
X141949812Y-64124428D02*
X140711717Y-64124428D01*
X140235526Y-65457761D02*
X139568860Y-63457761D01*
X139568860Y-63457761D02*
X138902193Y-65457761D01*
D10*
X89392856Y-129199171D02*
X89892856Y-129913457D01*
X90249999Y-129199171D02*
X90249999Y-130699171D01*
X90249999Y-130699171D02*
X89678570Y-130699171D01*
X89678570Y-130699171D02*
X89535713Y-130627742D01*
X89535713Y-130627742D02*
X89464284Y-130556314D01*
X89464284Y-130556314D02*
X89392856Y-130413457D01*
X89392856Y-130413457D02*
X89392856Y-130199171D01*
X89392856Y-130199171D02*
X89464284Y-130056314D01*
X89464284Y-130056314D02*
X89535713Y-129984885D01*
X89535713Y-129984885D02*
X89678570Y-129913457D01*
X89678570Y-129913457D02*
X90249999Y-129913457D01*
X88749999Y-129984885D02*
X88249999Y-129984885D01*
X88035713Y-129199171D02*
X88749999Y-129199171D01*
X88749999Y-129199171D02*
X88749999Y-130699171D01*
X88749999Y-130699171D02*
X88035713Y-130699171D01*
X87607141Y-130699171D02*
X87107141Y-129199171D01*
X87107141Y-129199171D02*
X86607141Y-130699171D01*
X85107142Y-130699171D02*
X84178570Y-130699171D01*
X84178570Y-130699171D02*
X84678570Y-130127742D01*
X84678570Y-130127742D02*
X84464285Y-130127742D01*
X84464285Y-130127742D02*
X84321428Y-130056314D01*
X84321428Y-130056314D02*
X84249999Y-129984885D01*
X84249999Y-129984885D02*
X84178570Y-129842028D01*
X84178570Y-129842028D02*
X84178570Y-129484885D01*
X84178570Y-129484885D02*
X84249999Y-129342028D01*
X84249999Y-129342028D02*
X84321428Y-129270600D01*
X84321428Y-129270600D02*
X84464285Y-129199171D01*
X84464285Y-129199171D02*
X84892856Y-129199171D01*
X84892856Y-129199171D02*
X85035713Y-129270600D01*
X85035713Y-129270600D02*
X85107142Y-129342028D01*
X82035714Y-128699171D02*
X82035714Y-130842028D01*
X79392857Y-130699171D02*
X79392857Y-129627742D01*
X79392857Y-129627742D02*
X79464286Y-129413457D01*
X79464286Y-129413457D02*
X79607143Y-129270600D01*
X79607143Y-129270600D02*
X79821429Y-129199171D01*
X79821429Y-129199171D02*
X79964286Y-129199171D01*
X78678572Y-130699171D02*
X78678572Y-129484885D01*
X78678572Y-129484885D02*
X78607143Y-129342028D01*
X78607143Y-129342028D02*
X78535715Y-129270600D01*
X78535715Y-129270600D02*
X78392857Y-129199171D01*
X78392857Y-129199171D02*
X78107143Y-129199171D01*
X78107143Y-129199171D02*
X77964286Y-129270600D01*
X77964286Y-129270600D02*
X77892857Y-129342028D01*
X77892857Y-129342028D02*
X77821429Y-129484885D01*
X77821429Y-129484885D02*
X77821429Y-130699171D01*
X77107143Y-129199171D02*
X77107143Y-130699171D01*
X77107143Y-130699171D02*
X76250000Y-129199171D01*
X76250000Y-129199171D02*
X76250000Y-130699171D01*
X75535714Y-129984885D02*
X75035714Y-129984885D01*
X74821428Y-129199171D02*
X75535714Y-129199171D01*
X75535714Y-129199171D02*
X75535714Y-130699171D01*
X75535714Y-130699171D02*
X74821428Y-130699171D01*
X73107142Y-130556314D02*
X73035714Y-130627742D01*
X73035714Y-130627742D02*
X72892857Y-130699171D01*
X72892857Y-130699171D02*
X72535714Y-130699171D01*
X72535714Y-130699171D02*
X72392857Y-130627742D01*
X72392857Y-130627742D02*
X72321428Y-130556314D01*
X72321428Y-130556314D02*
X72249999Y-130413457D01*
X72249999Y-130413457D02*
X72249999Y-130270600D01*
X72249999Y-130270600D02*
X72321428Y-130056314D01*
X72321428Y-130056314D02*
X73178571Y-129199171D01*
X73178571Y-129199171D02*
X72249999Y-129199171D01*
X71321428Y-130699171D02*
X71178571Y-130699171D01*
X71178571Y-130699171D02*
X71035714Y-130627742D01*
X71035714Y-130627742D02*
X70964286Y-130556314D01*
X70964286Y-130556314D02*
X70892857Y-130413457D01*
X70892857Y-130413457D02*
X70821428Y-130127742D01*
X70821428Y-130127742D02*
X70821428Y-129770600D01*
X70821428Y-129770600D02*
X70892857Y-129484885D01*
X70892857Y-129484885D02*
X70964286Y-129342028D01*
X70964286Y-129342028D02*
X71035714Y-129270600D01*
X71035714Y-129270600D02*
X71178571Y-129199171D01*
X71178571Y-129199171D02*
X71321428Y-129199171D01*
X71321428Y-129199171D02*
X71464286Y-129270600D01*
X71464286Y-129270600D02*
X71535714Y-129342028D01*
X71535714Y-129342028D02*
X71607143Y-129484885D01*
X71607143Y-129484885D02*
X71678571Y-129770600D01*
X71678571Y-129770600D02*
X71678571Y-130127742D01*
X71678571Y-130127742D02*
X71607143Y-130413457D01*
X71607143Y-130413457D02*
X71535714Y-130556314D01*
X71535714Y-130556314D02*
X71464286Y-130627742D01*
X71464286Y-130627742D02*
X71321428Y-130699171D01*
X70250000Y-130556314D02*
X70178572Y-130627742D01*
X70178572Y-130627742D02*
X70035715Y-130699171D01*
X70035715Y-130699171D02*
X69678572Y-130699171D01*
X69678572Y-130699171D02*
X69535715Y-130627742D01*
X69535715Y-130627742D02*
X69464286Y-130556314D01*
X69464286Y-130556314D02*
X69392857Y-130413457D01*
X69392857Y-130413457D02*
X69392857Y-130270600D01*
X69392857Y-130270600D02*
X69464286Y-130056314D01*
X69464286Y-130056314D02*
X70321429Y-129199171D01*
X70321429Y-129199171D02*
X69392857Y-129199171D01*
X68035715Y-130699171D02*
X68750001Y-130699171D01*
X68750001Y-130699171D02*
X68821429Y-129984885D01*
X68821429Y-129984885D02*
X68750001Y-130056314D01*
X68750001Y-130056314D02*
X68607144Y-130127742D01*
X68607144Y-130127742D02*
X68250001Y-130127742D01*
X68250001Y-130127742D02*
X68107144Y-130056314D01*
X68107144Y-130056314D02*
X68035715Y-129984885D01*
X68035715Y-129984885D02*
X67964286Y-129842028D01*
X67964286Y-129842028D02*
X67964286Y-129484885D01*
X67964286Y-129484885D02*
X68035715Y-129342028D01*
X68035715Y-129342028D02*
X68107144Y-129270600D01*
X68107144Y-129270600D02*
X68250001Y-129199171D01*
X68250001Y-129199171D02*
X68607144Y-129199171D01*
X68607144Y-129199171D02*
X68750001Y-129270600D01*
X68750001Y-129270600D02*
X68821429Y-129342028D01*
X65821430Y-128699171D02*
X65821430Y-130842028D01*
X63607145Y-129984885D02*
X63107145Y-129984885D01*
X62892859Y-129199171D02*
X63607145Y-129199171D01*
X63607145Y-129199171D02*
X63607145Y-130699171D01*
X63607145Y-130699171D02*
X62892859Y-130699171D01*
X62250002Y-129342028D02*
X62178573Y-129270600D01*
X62178573Y-129270600D02*
X62250002Y-129199171D01*
X62250002Y-129199171D02*
X62321430Y-129270600D01*
X62321430Y-129270600D02*
X62250002Y-129342028D01*
X62250002Y-129342028D02*
X62250002Y-129199171D01*
X59535716Y-129342028D02*
X59607144Y-129270600D01*
X59607144Y-129270600D02*
X59821430Y-129199171D01*
X59821430Y-129199171D02*
X59964287Y-129199171D01*
X59964287Y-129199171D02*
X60178573Y-129270600D01*
X60178573Y-129270600D02*
X60321430Y-129413457D01*
X60321430Y-129413457D02*
X60392859Y-129556314D01*
X60392859Y-129556314D02*
X60464287Y-129842028D01*
X60464287Y-129842028D02*
X60464287Y-130056314D01*
X60464287Y-130056314D02*
X60392859Y-130342028D01*
X60392859Y-130342028D02*
X60321430Y-130484885D01*
X60321430Y-130484885D02*
X60178573Y-130627742D01*
X60178573Y-130627742D02*
X59964287Y-130699171D01*
X59964287Y-130699171D02*
X59821430Y-130699171D01*
X59821430Y-130699171D02*
X59607144Y-130627742D01*
X59607144Y-130627742D02*
X59535716Y-130556314D01*
X58892859Y-129199171D02*
X58892859Y-130699171D01*
X58892859Y-129984885D02*
X58035716Y-129984885D01*
X58035716Y-129199171D02*
X58035716Y-130699171D01*
X57321430Y-129199171D02*
X57321430Y-130699171D01*
X56607144Y-130699171D02*
X56607144Y-129484885D01*
X56607144Y-129484885D02*
X56535715Y-129342028D01*
X56535715Y-129342028D02*
X56464287Y-129270600D01*
X56464287Y-129270600D02*
X56321429Y-129199171D01*
X56321429Y-129199171D02*
X56035715Y-129199171D01*
X56035715Y-129199171D02*
X55892858Y-129270600D01*
X55892858Y-129270600D02*
X55821429Y-129342028D01*
X55821429Y-129342028D02*
X55750001Y-129484885D01*
X55750001Y-129484885D02*
X55750001Y-130699171D01*
D12*
X108759336Y-125657761D02*
X108759336Y-127657761D01*
X108759336Y-127657761D02*
X107997431Y-127657761D01*
X107997431Y-127657761D02*
X107806955Y-127562523D01*
X107806955Y-127562523D02*
X107711717Y-127467285D01*
X107711717Y-127467285D02*
X107616479Y-127276809D01*
X107616479Y-127276809D02*
X107616479Y-126991095D01*
X107616479Y-126991095D02*
X107711717Y-126800619D01*
X107711717Y-126800619D02*
X107806955Y-126705380D01*
X107806955Y-126705380D02*
X107997431Y-126610142D01*
X107997431Y-126610142D02*
X108759336Y-126610142D01*
X105806955Y-125657761D02*
X106759336Y-125657761D01*
X106759336Y-125657761D02*
X106759336Y-127657761D01*
X105235526Y-126229190D02*
X104283145Y-126229190D01*
X105426002Y-125657761D02*
X104759336Y-127657761D01*
X104759336Y-127657761D02*
X104092669Y-125657761D01*
X103521240Y-125753000D02*
X103235526Y-125657761D01*
X103235526Y-125657761D02*
X102759335Y-125657761D01*
X102759335Y-125657761D02*
X102568859Y-125753000D01*
X102568859Y-125753000D02*
X102473621Y-125848238D01*
X102473621Y-125848238D02*
X102378383Y-126038714D01*
X102378383Y-126038714D02*
X102378383Y-126229190D01*
X102378383Y-126229190D02*
X102473621Y-126419666D01*
X102473621Y-126419666D02*
X102568859Y-126514904D01*
X102568859Y-126514904D02*
X102759335Y-126610142D01*
X102759335Y-126610142D02*
X103140288Y-126705380D01*
X103140288Y-126705380D02*
X103330764Y-126800619D01*
X103330764Y-126800619D02*
X103426002Y-126895857D01*
X103426002Y-126895857D02*
X103521240Y-127086333D01*
X103521240Y-127086333D02*
X103521240Y-127276809D01*
X103521240Y-127276809D02*
X103426002Y-127467285D01*
X103426002Y-127467285D02*
X103330764Y-127562523D01*
X103330764Y-127562523D02*
X103140288Y-127657761D01*
X103140288Y-127657761D02*
X102664097Y-127657761D01*
X102664097Y-127657761D02*
X102378383Y-127562523D01*
X101521240Y-125657761D02*
X101521240Y-127657761D01*
X101521240Y-127657761D02*
X100854573Y-126229190D01*
X100854573Y-126229190D02*
X100187907Y-127657761D01*
X100187907Y-127657761D02*
X100187907Y-125657761D01*
X99330764Y-126229190D02*
X98378383Y-126229190D01*
X99521240Y-125657761D02*
X98854574Y-127657761D01*
X98854574Y-127657761D02*
X98187907Y-125657761D01*
X94854573Y-125848238D02*
X94949811Y-125753000D01*
X94949811Y-125753000D02*
X95235525Y-125657761D01*
X95235525Y-125657761D02*
X95426001Y-125657761D01*
X95426001Y-125657761D02*
X95711716Y-125753000D01*
X95711716Y-125753000D02*
X95902192Y-125943476D01*
X95902192Y-125943476D02*
X95997430Y-126133952D01*
X95997430Y-126133952D02*
X96092668Y-126514904D01*
X96092668Y-126514904D02*
X96092668Y-126800619D01*
X96092668Y-126800619D02*
X95997430Y-127181571D01*
X95997430Y-127181571D02*
X95902192Y-127372047D01*
X95902192Y-127372047D02*
X95711716Y-127562523D01*
X95711716Y-127562523D02*
X95426001Y-127657761D01*
X95426001Y-127657761D02*
X95235525Y-127657761D01*
X95235525Y-127657761D02*
X94949811Y-127562523D01*
X94949811Y-127562523D02*
X94854573Y-127467285D01*
X93616478Y-127657761D02*
X93235525Y-127657761D01*
X93235525Y-127657761D02*
X93045049Y-127562523D01*
X93045049Y-127562523D02*
X92854573Y-127372047D01*
X92854573Y-127372047D02*
X92759335Y-126991095D01*
X92759335Y-126991095D02*
X92759335Y-126324428D01*
X92759335Y-126324428D02*
X92854573Y-125943476D01*
X92854573Y-125943476D02*
X93045049Y-125753000D01*
X93045049Y-125753000D02*
X93235525Y-125657761D01*
X93235525Y-125657761D02*
X93616478Y-125657761D01*
X93616478Y-125657761D02*
X93806954Y-125753000D01*
X93806954Y-125753000D02*
X93997430Y-125943476D01*
X93997430Y-125943476D02*
X94092668Y-126324428D01*
X94092668Y-126324428D02*
X94092668Y-126991095D01*
X94092668Y-126991095D02*
X93997430Y-127372047D01*
X93997430Y-127372047D02*
X93806954Y-127562523D01*
X93806954Y-127562523D02*
X93616478Y-127657761D01*
X91902192Y-125657761D02*
X91902192Y-127657761D01*
X89997430Y-125657761D02*
X90949811Y-125657761D01*
X90949811Y-125657761D02*
X90949811Y-127657761D01*
D13*
X83984819Y-80466666D02*
X83508628Y-80799999D01*
X83984819Y-81038094D02*
X82984819Y-81038094D01*
X82984819Y-81038094D02*
X82984819Y-80657142D01*
X82984819Y-80657142D02*
X83032438Y-80561904D01*
X83032438Y-80561904D02*
X83080057Y-80514285D01*
X83080057Y-80514285D02*
X83175295Y-80466666D01*
X83175295Y-80466666D02*
X83318152Y-80466666D01*
X83318152Y-80466666D02*
X83413390Y-80514285D01*
X83413390Y-80514285D02*
X83461009Y-80561904D01*
X83461009Y-80561904D02*
X83508628Y-80657142D01*
X83508628Y-80657142D02*
X83508628Y-81038094D01*
X83984819Y-79990475D02*
X83984819Y-79799999D01*
X83984819Y-79799999D02*
X83937200Y-79704761D01*
X83937200Y-79704761D02*
X83889580Y-79657142D01*
X83889580Y-79657142D02*
X83746723Y-79561904D01*
X83746723Y-79561904D02*
X83556247Y-79514285D01*
X83556247Y-79514285D02*
X83175295Y-79514285D01*
X83175295Y-79514285D02*
X83080057Y-79561904D01*
X83080057Y-79561904D02*
X83032438Y-79609523D01*
X83032438Y-79609523D02*
X82984819Y-79704761D01*
X82984819Y-79704761D02*
X82984819Y-79895237D01*
X82984819Y-79895237D02*
X83032438Y-79990475D01*
X83032438Y-79990475D02*
X83080057Y-80038094D01*
X83080057Y-80038094D02*
X83175295Y-80085713D01*
X83175295Y-80085713D02*
X83413390Y-80085713D01*
X83413390Y-80085713D02*
X83508628Y-80038094D01*
X83508628Y-80038094D02*
X83556247Y-79990475D01*
X83556247Y-79990475D02*
X83603866Y-79895237D01*
X83603866Y-79895237D02*
X83603866Y-79704761D01*
X83603866Y-79704761D02*
X83556247Y-79609523D01*
X83556247Y-79609523D02*
X83508628Y-79561904D01*
X83508628Y-79561904D02*
X83413390Y-79514285D01*
X67833333Y-80814819D02*
X67500000Y-80338628D01*
X67261905Y-80814819D02*
X67261905Y-79814819D01*
X67261905Y-79814819D02*
X67642857Y-79814819D01*
X67642857Y-79814819D02*
X67738095Y-79862438D01*
X67738095Y-79862438D02*
X67785714Y-79910057D01*
X67785714Y-79910057D02*
X67833333Y-80005295D01*
X67833333Y-80005295D02*
X67833333Y-80148152D01*
X67833333Y-80148152D02*
X67785714Y-80243390D01*
X67785714Y-80243390D02*
X67738095Y-80291009D01*
X67738095Y-80291009D02*
X67642857Y-80338628D01*
X67642857Y-80338628D02*
X67261905Y-80338628D01*
X68404762Y-80243390D02*
X68309524Y-80195771D01*
X68309524Y-80195771D02*
X68261905Y-80148152D01*
X68261905Y-80148152D02*
X68214286Y-80052914D01*
X68214286Y-80052914D02*
X68214286Y-80005295D01*
X68214286Y-80005295D02*
X68261905Y-79910057D01*
X68261905Y-79910057D02*
X68309524Y-79862438D01*
X68309524Y-79862438D02*
X68404762Y-79814819D01*
X68404762Y-79814819D02*
X68595238Y-79814819D01*
X68595238Y-79814819D02*
X68690476Y-79862438D01*
X68690476Y-79862438D02*
X68738095Y-79910057D01*
X68738095Y-79910057D02*
X68785714Y-80005295D01*
X68785714Y-80005295D02*
X68785714Y-80052914D01*
X68785714Y-80052914D02*
X68738095Y-80148152D01*
X68738095Y-80148152D02*
X68690476Y-80195771D01*
X68690476Y-80195771D02*
X68595238Y-80243390D01*
X68595238Y-80243390D02*
X68404762Y-80243390D01*
X68404762Y-80243390D02*
X68309524Y-80291009D01*
X68309524Y-80291009D02*
X68261905Y-80338628D01*
X68261905Y-80338628D02*
X68214286Y-80433866D01*
X68214286Y-80433866D02*
X68214286Y-80624342D01*
X68214286Y-80624342D02*
X68261905Y-80719580D01*
X68261905Y-80719580D02*
X68309524Y-80767200D01*
X68309524Y-80767200D02*
X68404762Y-80814819D01*
X68404762Y-80814819D02*
X68595238Y-80814819D01*
X68595238Y-80814819D02*
X68690476Y-80767200D01*
X68690476Y-80767200D02*
X68738095Y-80719580D01*
X68738095Y-80719580D02*
X68785714Y-80624342D01*
X68785714Y-80624342D02*
X68785714Y-80433866D01*
X68785714Y-80433866D02*
X68738095Y-80338628D01*
X68738095Y-80338628D02*
X68690476Y-80291009D01*
X68690476Y-80291009D02*
X68595238Y-80243390D01*
X67033333Y-88934819D02*
X66700000Y-88458628D01*
X66461905Y-88934819D02*
X66461905Y-87934819D01*
X66461905Y-87934819D02*
X66842857Y-87934819D01*
X66842857Y-87934819D02*
X66938095Y-87982438D01*
X66938095Y-87982438D02*
X66985714Y-88030057D01*
X66985714Y-88030057D02*
X67033333Y-88125295D01*
X67033333Y-88125295D02*
X67033333Y-88268152D01*
X67033333Y-88268152D02*
X66985714Y-88363390D01*
X66985714Y-88363390D02*
X66938095Y-88411009D01*
X66938095Y-88411009D02*
X66842857Y-88458628D01*
X66842857Y-88458628D02*
X66461905Y-88458628D01*
X67366667Y-87934819D02*
X68033333Y-87934819D01*
X68033333Y-87934819D02*
X67604762Y-88934819D01*
X75357142Y-78559580D02*
X75309523Y-78607200D01*
X75309523Y-78607200D02*
X75166666Y-78654819D01*
X75166666Y-78654819D02*
X75071428Y-78654819D01*
X75071428Y-78654819D02*
X74928571Y-78607200D01*
X74928571Y-78607200D02*
X74833333Y-78511961D01*
X74833333Y-78511961D02*
X74785714Y-78416723D01*
X74785714Y-78416723D02*
X74738095Y-78226247D01*
X74738095Y-78226247D02*
X74738095Y-78083390D01*
X74738095Y-78083390D02*
X74785714Y-77892914D01*
X74785714Y-77892914D02*
X74833333Y-77797676D01*
X74833333Y-77797676D02*
X74928571Y-77702438D01*
X74928571Y-77702438D02*
X75071428Y-77654819D01*
X75071428Y-77654819D02*
X75166666Y-77654819D01*
X75166666Y-77654819D02*
X75309523Y-77702438D01*
X75309523Y-77702438D02*
X75357142Y-77750057D01*
X75738095Y-77750057D02*
X75785714Y-77702438D01*
X75785714Y-77702438D02*
X75880952Y-77654819D01*
X75880952Y-77654819D02*
X76119047Y-77654819D01*
X76119047Y-77654819D02*
X76214285Y-77702438D01*
X76214285Y-77702438D02*
X76261904Y-77750057D01*
X76261904Y-77750057D02*
X76309523Y-77845295D01*
X76309523Y-77845295D02*
X76309523Y-77940533D01*
X76309523Y-77940533D02*
X76261904Y-78083390D01*
X76261904Y-78083390D02*
X75690476Y-78654819D01*
X75690476Y-78654819D02*
X76309523Y-78654819D01*
X77261904Y-78654819D02*
X76690476Y-78654819D01*
X76976190Y-78654819D02*
X76976190Y-77654819D01*
X76976190Y-77654819D02*
X76880952Y-77797676D01*
X76880952Y-77797676D02*
X76785714Y-77892914D01*
X76785714Y-77892914D02*
X76690476Y-77940533D01*
X94754819Y-108038094D02*
X93754819Y-108038094D01*
X93754819Y-108038094D02*
X93754819Y-107799999D01*
X93754819Y-107799999D02*
X93802438Y-107657142D01*
X93802438Y-107657142D02*
X93897676Y-107561904D01*
X93897676Y-107561904D02*
X93992914Y-107514285D01*
X93992914Y-107514285D02*
X94183390Y-107466666D01*
X94183390Y-107466666D02*
X94326247Y-107466666D01*
X94326247Y-107466666D02*
X94516723Y-107514285D01*
X94516723Y-107514285D02*
X94611961Y-107561904D01*
X94611961Y-107561904D02*
X94707200Y-107657142D01*
X94707200Y-107657142D02*
X94754819Y-107799999D01*
X94754819Y-107799999D02*
X94754819Y-108038094D01*
X93850057Y-107085713D02*
X93802438Y-107038094D01*
X93802438Y-107038094D02*
X93754819Y-106942856D01*
X93754819Y-106942856D02*
X93754819Y-106704761D01*
X93754819Y-106704761D02*
X93802438Y-106609523D01*
X93802438Y-106609523D02*
X93850057Y-106561904D01*
X93850057Y-106561904D02*
X93945295Y-106514285D01*
X93945295Y-106514285D02*
X94040533Y-106514285D01*
X94040533Y-106514285D02*
X94183390Y-106561904D01*
X94183390Y-106561904D02*
X94754819Y-107133332D01*
X94754819Y-107133332D02*
X94754819Y-106514285D01*
X136879819Y-78333333D02*
X137594104Y-78333333D01*
X137594104Y-78333333D02*
X137736961Y-78380952D01*
X137736961Y-78380952D02*
X137832200Y-78476190D01*
X137832200Y-78476190D02*
X137879819Y-78619047D01*
X137879819Y-78619047D02*
X137879819Y-78714285D01*
X136975057Y-77904761D02*
X136927438Y-77857142D01*
X136927438Y-77857142D02*
X136879819Y-77761904D01*
X136879819Y-77761904D02*
X136879819Y-77523809D01*
X136879819Y-77523809D02*
X136927438Y-77428571D01*
X136927438Y-77428571D02*
X136975057Y-77380952D01*
X136975057Y-77380952D02*
X137070295Y-77333333D01*
X137070295Y-77333333D02*
X137165533Y-77333333D01*
X137165533Y-77333333D02*
X137308390Y-77380952D01*
X137308390Y-77380952D02*
X137879819Y-77952380D01*
X137879819Y-77952380D02*
X137879819Y-77333333D01*
X118857142Y-98354819D02*
X118523809Y-97878628D01*
X118285714Y-98354819D02*
X118285714Y-97354819D01*
X118285714Y-97354819D02*
X118666666Y-97354819D01*
X118666666Y-97354819D02*
X118761904Y-97402438D01*
X118761904Y-97402438D02*
X118809523Y-97450057D01*
X118809523Y-97450057D02*
X118857142Y-97545295D01*
X118857142Y-97545295D02*
X118857142Y-97688152D01*
X118857142Y-97688152D02*
X118809523Y-97783390D01*
X118809523Y-97783390D02*
X118761904Y-97831009D01*
X118761904Y-97831009D02*
X118666666Y-97878628D01*
X118666666Y-97878628D02*
X118285714Y-97878628D01*
X119238095Y-97450057D02*
X119285714Y-97402438D01*
X119285714Y-97402438D02*
X119380952Y-97354819D01*
X119380952Y-97354819D02*
X119619047Y-97354819D01*
X119619047Y-97354819D02*
X119714285Y-97402438D01*
X119714285Y-97402438D02*
X119761904Y-97450057D01*
X119761904Y-97450057D02*
X119809523Y-97545295D01*
X119809523Y-97545295D02*
X119809523Y-97640533D01*
X119809523Y-97640533D02*
X119761904Y-97783390D01*
X119761904Y-97783390D02*
X119190476Y-98354819D01*
X119190476Y-98354819D02*
X119809523Y-98354819D01*
X120428571Y-97354819D02*
X120523809Y-97354819D01*
X120523809Y-97354819D02*
X120619047Y-97402438D01*
X120619047Y-97402438D02*
X120666666Y-97450057D01*
X120666666Y-97450057D02*
X120714285Y-97545295D01*
X120714285Y-97545295D02*
X120761904Y-97735771D01*
X120761904Y-97735771D02*
X120761904Y-97973866D01*
X120761904Y-97973866D02*
X120714285Y-98164342D01*
X120714285Y-98164342D02*
X120666666Y-98259580D01*
X120666666Y-98259580D02*
X120619047Y-98307200D01*
X120619047Y-98307200D02*
X120523809Y-98354819D01*
X120523809Y-98354819D02*
X120428571Y-98354819D01*
X120428571Y-98354819D02*
X120333333Y-98307200D01*
X120333333Y-98307200D02*
X120285714Y-98259580D01*
X120285714Y-98259580D02*
X120238095Y-98164342D01*
X120238095Y-98164342D02*
X120190476Y-97973866D01*
X120190476Y-97973866D02*
X120190476Y-97735771D01*
X120190476Y-97735771D02*
X120238095Y-97545295D01*
X120238095Y-97545295D02*
X120285714Y-97450057D01*
X120285714Y-97450057D02*
X120333333Y-97402438D01*
X120333333Y-97402438D02*
X120428571Y-97354819D01*
X118561905Y-100154819D02*
X118561905Y-99154819D01*
X118561905Y-99154819D02*
X118800000Y-99154819D01*
X118800000Y-99154819D02*
X118942857Y-99202438D01*
X118942857Y-99202438D02*
X119038095Y-99297676D01*
X119038095Y-99297676D02*
X119085714Y-99392914D01*
X119085714Y-99392914D02*
X119133333Y-99583390D01*
X119133333Y-99583390D02*
X119133333Y-99726247D01*
X119133333Y-99726247D02*
X119085714Y-99916723D01*
X119085714Y-99916723D02*
X119038095Y-100011961D01*
X119038095Y-100011961D02*
X118942857Y-100107200D01*
X118942857Y-100107200D02*
X118800000Y-100154819D01*
X118800000Y-100154819D02*
X118561905Y-100154819D01*
X119466667Y-99154819D02*
X120133333Y-99154819D01*
X120133333Y-99154819D02*
X119704762Y-100154819D01*
X116579761Y-125704819D02*
X116246428Y-125228628D01*
X116008333Y-125704819D02*
X116008333Y-124704819D01*
X116008333Y-124704819D02*
X116389285Y-124704819D01*
X116389285Y-124704819D02*
X116484523Y-124752438D01*
X116484523Y-124752438D02*
X116532142Y-124800057D01*
X116532142Y-124800057D02*
X116579761Y-124895295D01*
X116579761Y-124895295D02*
X116579761Y-125038152D01*
X116579761Y-125038152D02*
X116532142Y-125133390D01*
X116532142Y-125133390D02*
X116484523Y-125181009D01*
X116484523Y-125181009D02*
X116389285Y-125228628D01*
X116389285Y-125228628D02*
X116008333Y-125228628D01*
X116865476Y-124704819D02*
X117198809Y-125704819D01*
X117198809Y-125704819D02*
X117532142Y-124704819D01*
X117817857Y-124800057D02*
X117865476Y-124752438D01*
X117865476Y-124752438D02*
X117960714Y-124704819D01*
X117960714Y-124704819D02*
X118198809Y-124704819D01*
X118198809Y-124704819D02*
X118294047Y-124752438D01*
X118294047Y-124752438D02*
X118341666Y-124800057D01*
X118341666Y-124800057D02*
X118389285Y-124895295D01*
X118389285Y-124895295D02*
X118389285Y-124990533D01*
X118389285Y-124990533D02*
X118341666Y-125133390D01*
X118341666Y-125133390D02*
X117770238Y-125704819D01*
X117770238Y-125704819D02*
X118389285Y-125704819D01*
X110857142Y-107859580D02*
X110809523Y-107907200D01*
X110809523Y-107907200D02*
X110666666Y-107954819D01*
X110666666Y-107954819D02*
X110571428Y-107954819D01*
X110571428Y-107954819D02*
X110428571Y-107907200D01*
X110428571Y-107907200D02*
X110333333Y-107811961D01*
X110333333Y-107811961D02*
X110285714Y-107716723D01*
X110285714Y-107716723D02*
X110238095Y-107526247D01*
X110238095Y-107526247D02*
X110238095Y-107383390D01*
X110238095Y-107383390D02*
X110285714Y-107192914D01*
X110285714Y-107192914D02*
X110333333Y-107097676D01*
X110333333Y-107097676D02*
X110428571Y-107002438D01*
X110428571Y-107002438D02*
X110571428Y-106954819D01*
X110571428Y-106954819D02*
X110666666Y-106954819D01*
X110666666Y-106954819D02*
X110809523Y-107002438D01*
X110809523Y-107002438D02*
X110857142Y-107050057D01*
X111809523Y-107954819D02*
X111238095Y-107954819D01*
X111523809Y-107954819D02*
X111523809Y-106954819D01*
X111523809Y-106954819D02*
X111428571Y-107097676D01*
X111428571Y-107097676D02*
X111333333Y-107192914D01*
X111333333Y-107192914D02*
X111238095Y-107240533D01*
X112714285Y-106954819D02*
X112238095Y-106954819D01*
X112238095Y-106954819D02*
X112190476Y-107431009D01*
X112190476Y-107431009D02*
X112238095Y-107383390D01*
X112238095Y-107383390D02*
X112333333Y-107335771D01*
X112333333Y-107335771D02*
X112571428Y-107335771D01*
X112571428Y-107335771D02*
X112666666Y-107383390D01*
X112666666Y-107383390D02*
X112714285Y-107431009D01*
X112714285Y-107431009D02*
X112761904Y-107526247D01*
X112761904Y-107526247D02*
X112761904Y-107764342D01*
X112761904Y-107764342D02*
X112714285Y-107859580D01*
X112714285Y-107859580D02*
X112666666Y-107907200D01*
X112666666Y-107907200D02*
X112571428Y-107954819D01*
X112571428Y-107954819D02*
X112333333Y-107954819D01*
X112333333Y-107954819D02*
X112238095Y-107907200D01*
X112238095Y-107907200D02*
X112190476Y-107859580D01*
X117357142Y-115859580D02*
X117309523Y-115907200D01*
X117309523Y-115907200D02*
X117166666Y-115954819D01*
X117166666Y-115954819D02*
X117071428Y-115954819D01*
X117071428Y-115954819D02*
X116928571Y-115907200D01*
X116928571Y-115907200D02*
X116833333Y-115811961D01*
X116833333Y-115811961D02*
X116785714Y-115716723D01*
X116785714Y-115716723D02*
X116738095Y-115526247D01*
X116738095Y-115526247D02*
X116738095Y-115383390D01*
X116738095Y-115383390D02*
X116785714Y-115192914D01*
X116785714Y-115192914D02*
X116833333Y-115097676D01*
X116833333Y-115097676D02*
X116928571Y-115002438D01*
X116928571Y-115002438D02*
X117071428Y-114954819D01*
X117071428Y-114954819D02*
X117166666Y-114954819D01*
X117166666Y-114954819D02*
X117309523Y-115002438D01*
X117309523Y-115002438D02*
X117357142Y-115050057D01*
X118309523Y-115954819D02*
X117738095Y-115954819D01*
X118023809Y-115954819D02*
X118023809Y-114954819D01*
X118023809Y-114954819D02*
X117928571Y-115097676D01*
X117928571Y-115097676D02*
X117833333Y-115192914D01*
X117833333Y-115192914D02*
X117738095Y-115240533D01*
X119166666Y-115288152D02*
X119166666Y-115954819D01*
X118928571Y-114907200D02*
X118690476Y-115621485D01*
X118690476Y-115621485D02*
X119309523Y-115621485D01*
X57166666Y-97124819D02*
X57166666Y-97839104D01*
X57166666Y-97839104D02*
X57119047Y-97981961D01*
X57119047Y-97981961D02*
X57023809Y-98077200D01*
X57023809Y-98077200D02*
X56880952Y-98124819D01*
X56880952Y-98124819D02*
X56785714Y-98124819D01*
X57547619Y-97124819D02*
X58214285Y-97124819D01*
X58214285Y-97124819D02*
X57785714Y-98124819D01*
X126666666Y-97124819D02*
X126666666Y-97839104D01*
X126666666Y-97839104D02*
X126619047Y-97981961D01*
X126619047Y-97981961D02*
X126523809Y-98077200D01*
X126523809Y-98077200D02*
X126380952Y-98124819D01*
X126380952Y-98124819D02*
X126285714Y-98124819D01*
X127571428Y-97124819D02*
X127380952Y-97124819D01*
X127380952Y-97124819D02*
X127285714Y-97172438D01*
X127285714Y-97172438D02*
X127238095Y-97220057D01*
X127238095Y-97220057D02*
X127142857Y-97362914D01*
X127142857Y-97362914D02*
X127095238Y-97553390D01*
X127095238Y-97553390D02*
X127095238Y-97934342D01*
X127095238Y-97934342D02*
X127142857Y-98029580D01*
X127142857Y-98029580D02*
X127190476Y-98077200D01*
X127190476Y-98077200D02*
X127285714Y-98124819D01*
X127285714Y-98124819D02*
X127476190Y-98124819D01*
X127476190Y-98124819D02*
X127571428Y-98077200D01*
X127571428Y-98077200D02*
X127619047Y-98029580D01*
X127619047Y-98029580D02*
X127666666Y-97934342D01*
X127666666Y-97934342D02*
X127666666Y-97696247D01*
X127666666Y-97696247D02*
X127619047Y-97601009D01*
X127619047Y-97601009D02*
X127571428Y-97553390D01*
X127571428Y-97553390D02*
X127476190Y-97505771D01*
X127476190Y-97505771D02*
X127285714Y-97505771D01*
X127285714Y-97505771D02*
X127190476Y-97553390D01*
X127190476Y-97553390D02*
X127142857Y-97601009D01*
X127142857Y-97601009D02*
X127095238Y-97696247D01*
X110738095Y-109954819D02*
X110738095Y-110764342D01*
X110738095Y-110764342D02*
X110785714Y-110859580D01*
X110785714Y-110859580D02*
X110833333Y-110907200D01*
X110833333Y-110907200D02*
X110928571Y-110954819D01*
X110928571Y-110954819D02*
X111119047Y-110954819D01*
X111119047Y-110954819D02*
X111214285Y-110907200D01*
X111214285Y-110907200D02*
X111261904Y-110859580D01*
X111261904Y-110859580D02*
X111309523Y-110764342D01*
X111309523Y-110764342D02*
X111309523Y-109954819D01*
X112309523Y-110954819D02*
X111738095Y-110954819D01*
X112023809Y-110954819D02*
X112023809Y-109954819D01*
X112023809Y-109954819D02*
X111928571Y-110097676D01*
X111928571Y-110097676D02*
X111833333Y-110192914D01*
X111833333Y-110192914D02*
X111738095Y-110240533D01*
X117357142Y-117954819D02*
X117023809Y-117478628D01*
X116785714Y-117954819D02*
X116785714Y-116954819D01*
X116785714Y-116954819D02*
X117166666Y-116954819D01*
X117166666Y-116954819D02*
X117261904Y-117002438D01*
X117261904Y-117002438D02*
X117309523Y-117050057D01*
X117309523Y-117050057D02*
X117357142Y-117145295D01*
X117357142Y-117145295D02*
X117357142Y-117288152D01*
X117357142Y-117288152D02*
X117309523Y-117383390D01*
X117309523Y-117383390D02*
X117261904Y-117431009D01*
X117261904Y-117431009D02*
X117166666Y-117478628D01*
X117166666Y-117478628D02*
X116785714Y-117478628D01*
X118309523Y-117954819D02*
X117738095Y-117954819D01*
X118023809Y-117954819D02*
X118023809Y-116954819D01*
X118023809Y-116954819D02*
X117928571Y-117097676D01*
X117928571Y-117097676D02*
X117833333Y-117192914D01*
X117833333Y-117192914D02*
X117738095Y-117240533D01*
X118785714Y-117954819D02*
X118976190Y-117954819D01*
X118976190Y-117954819D02*
X119071428Y-117907200D01*
X119071428Y-117907200D02*
X119119047Y-117859580D01*
X119119047Y-117859580D02*
X119214285Y-117716723D01*
X119214285Y-117716723D02*
X119261904Y-117526247D01*
X119261904Y-117526247D02*
X119261904Y-117145295D01*
X119261904Y-117145295D02*
X119214285Y-117050057D01*
X119214285Y-117050057D02*
X119166666Y-117002438D01*
X119166666Y-117002438D02*
X119071428Y-116954819D01*
X119071428Y-116954819D02*
X118880952Y-116954819D01*
X118880952Y-116954819D02*
X118785714Y-117002438D01*
X118785714Y-117002438D02*
X118738095Y-117050057D01*
X118738095Y-117050057D02*
X118690476Y-117145295D01*
X118690476Y-117145295D02*
X118690476Y-117383390D01*
X118690476Y-117383390D02*
X118738095Y-117478628D01*
X118738095Y-117478628D02*
X118785714Y-117526247D01*
X118785714Y-117526247D02*
X118880952Y-117573866D01*
X118880952Y-117573866D02*
X119071428Y-117573866D01*
X119071428Y-117573866D02*
X119166666Y-117526247D01*
X119166666Y-117526247D02*
X119214285Y-117478628D01*
X119214285Y-117478628D02*
X119261904Y-117383390D01*
X118357142Y-106304819D02*
X118023809Y-105828628D01*
X117785714Y-106304819D02*
X117785714Y-105304819D01*
X117785714Y-105304819D02*
X118166666Y-105304819D01*
X118166666Y-105304819D02*
X118261904Y-105352438D01*
X118261904Y-105352438D02*
X118309523Y-105400057D01*
X118309523Y-105400057D02*
X118357142Y-105495295D01*
X118357142Y-105495295D02*
X118357142Y-105638152D01*
X118357142Y-105638152D02*
X118309523Y-105733390D01*
X118309523Y-105733390D02*
X118261904Y-105781009D01*
X118261904Y-105781009D02*
X118166666Y-105828628D01*
X118166666Y-105828628D02*
X117785714Y-105828628D01*
X119309523Y-106304819D02*
X118738095Y-106304819D01*
X119023809Y-106304819D02*
X119023809Y-105304819D01*
X119023809Y-105304819D02*
X118928571Y-105447676D01*
X118928571Y-105447676D02*
X118833333Y-105542914D01*
X118833333Y-105542914D02*
X118738095Y-105590533D01*
X119880952Y-105733390D02*
X119785714Y-105685771D01*
X119785714Y-105685771D02*
X119738095Y-105638152D01*
X119738095Y-105638152D02*
X119690476Y-105542914D01*
X119690476Y-105542914D02*
X119690476Y-105495295D01*
X119690476Y-105495295D02*
X119738095Y-105400057D01*
X119738095Y-105400057D02*
X119785714Y-105352438D01*
X119785714Y-105352438D02*
X119880952Y-105304819D01*
X119880952Y-105304819D02*
X120071428Y-105304819D01*
X120071428Y-105304819D02*
X120166666Y-105352438D01*
X120166666Y-105352438D02*
X120214285Y-105400057D01*
X120214285Y-105400057D02*
X120261904Y-105495295D01*
X120261904Y-105495295D02*
X120261904Y-105542914D01*
X120261904Y-105542914D02*
X120214285Y-105638152D01*
X120214285Y-105638152D02*
X120166666Y-105685771D01*
X120166666Y-105685771D02*
X120071428Y-105733390D01*
X120071428Y-105733390D02*
X119880952Y-105733390D01*
X119880952Y-105733390D02*
X119785714Y-105781009D01*
X119785714Y-105781009D02*
X119738095Y-105828628D01*
X119738095Y-105828628D02*
X119690476Y-105923866D01*
X119690476Y-105923866D02*
X119690476Y-106114342D01*
X119690476Y-106114342D02*
X119738095Y-106209580D01*
X119738095Y-106209580D02*
X119785714Y-106257200D01*
X119785714Y-106257200D02*
X119880952Y-106304819D01*
X119880952Y-106304819D02*
X120071428Y-106304819D01*
X120071428Y-106304819D02*
X120166666Y-106257200D01*
X120166666Y-106257200D02*
X120214285Y-106209580D01*
X120214285Y-106209580D02*
X120261904Y-106114342D01*
X120261904Y-106114342D02*
X120261904Y-105923866D01*
X120261904Y-105923866D02*
X120214285Y-105828628D01*
X120214285Y-105828628D02*
X120166666Y-105781009D01*
X120166666Y-105781009D02*
X120071428Y-105733390D01*
X110357142Y-126454819D02*
X110023809Y-125978628D01*
X109785714Y-126454819D02*
X109785714Y-125454819D01*
X109785714Y-125454819D02*
X110166666Y-125454819D01*
X110166666Y-125454819D02*
X110261904Y-125502438D01*
X110261904Y-125502438D02*
X110309523Y-125550057D01*
X110309523Y-125550057D02*
X110357142Y-125645295D01*
X110357142Y-125645295D02*
X110357142Y-125788152D01*
X110357142Y-125788152D02*
X110309523Y-125883390D01*
X110309523Y-125883390D02*
X110261904Y-125931009D01*
X110261904Y-125931009D02*
X110166666Y-125978628D01*
X110166666Y-125978628D02*
X109785714Y-125978628D01*
X111309523Y-126454819D02*
X110738095Y-126454819D01*
X111023809Y-126454819D02*
X111023809Y-125454819D01*
X111023809Y-125454819D02*
X110928571Y-125597676D01*
X110928571Y-125597676D02*
X110833333Y-125692914D01*
X110833333Y-125692914D02*
X110738095Y-125740533D01*
X111642857Y-125454819D02*
X112309523Y-125454819D01*
X112309523Y-125454819D02*
X111880952Y-126454819D01*
X110357142Y-124954819D02*
X110023809Y-124478628D01*
X109785714Y-124954819D02*
X109785714Y-123954819D01*
X109785714Y-123954819D02*
X110166666Y-123954819D01*
X110166666Y-123954819D02*
X110261904Y-124002438D01*
X110261904Y-124002438D02*
X110309523Y-124050057D01*
X110309523Y-124050057D02*
X110357142Y-124145295D01*
X110357142Y-124145295D02*
X110357142Y-124288152D01*
X110357142Y-124288152D02*
X110309523Y-124383390D01*
X110309523Y-124383390D02*
X110261904Y-124431009D01*
X110261904Y-124431009D02*
X110166666Y-124478628D01*
X110166666Y-124478628D02*
X109785714Y-124478628D01*
X111309523Y-124954819D02*
X110738095Y-124954819D01*
X111023809Y-124954819D02*
X111023809Y-123954819D01*
X111023809Y-123954819D02*
X110928571Y-124097676D01*
X110928571Y-124097676D02*
X110833333Y-124192914D01*
X110833333Y-124192914D02*
X110738095Y-124240533D01*
X112166666Y-123954819D02*
X111976190Y-123954819D01*
X111976190Y-123954819D02*
X111880952Y-124002438D01*
X111880952Y-124002438D02*
X111833333Y-124050057D01*
X111833333Y-124050057D02*
X111738095Y-124192914D01*
X111738095Y-124192914D02*
X111690476Y-124383390D01*
X111690476Y-124383390D02*
X111690476Y-124764342D01*
X111690476Y-124764342D02*
X111738095Y-124859580D01*
X111738095Y-124859580D02*
X111785714Y-124907200D01*
X111785714Y-124907200D02*
X111880952Y-124954819D01*
X111880952Y-124954819D02*
X112071428Y-124954819D01*
X112071428Y-124954819D02*
X112166666Y-124907200D01*
X112166666Y-124907200D02*
X112214285Y-124859580D01*
X112214285Y-124859580D02*
X112261904Y-124764342D01*
X112261904Y-124764342D02*
X112261904Y-124526247D01*
X112261904Y-124526247D02*
X112214285Y-124431009D01*
X112214285Y-124431009D02*
X112166666Y-124383390D01*
X112166666Y-124383390D02*
X112071428Y-124335771D01*
X112071428Y-124335771D02*
X111880952Y-124335771D01*
X111880952Y-124335771D02*
X111785714Y-124383390D01*
X111785714Y-124383390D02*
X111738095Y-124431009D01*
X111738095Y-124431009D02*
X111690476Y-124526247D01*
X107054819Y-112342857D02*
X106578628Y-112676190D01*
X107054819Y-112914285D02*
X106054819Y-112914285D01*
X106054819Y-112914285D02*
X106054819Y-112533333D01*
X106054819Y-112533333D02*
X106102438Y-112438095D01*
X106102438Y-112438095D02*
X106150057Y-112390476D01*
X106150057Y-112390476D02*
X106245295Y-112342857D01*
X106245295Y-112342857D02*
X106388152Y-112342857D01*
X106388152Y-112342857D02*
X106483390Y-112390476D01*
X106483390Y-112390476D02*
X106531009Y-112438095D01*
X106531009Y-112438095D02*
X106578628Y-112533333D01*
X106578628Y-112533333D02*
X106578628Y-112914285D01*
X107054819Y-111390476D02*
X107054819Y-111961904D01*
X107054819Y-111676190D02*
X106054819Y-111676190D01*
X106054819Y-111676190D02*
X106197676Y-111771428D01*
X106197676Y-111771428D02*
X106292914Y-111866666D01*
X106292914Y-111866666D02*
X106340533Y-111961904D01*
X106054819Y-110485714D02*
X106054819Y-110961904D01*
X106054819Y-110961904D02*
X106531009Y-111009523D01*
X106531009Y-111009523D02*
X106483390Y-110961904D01*
X106483390Y-110961904D02*
X106435771Y-110866666D01*
X106435771Y-110866666D02*
X106435771Y-110628571D01*
X106435771Y-110628571D02*
X106483390Y-110533333D01*
X106483390Y-110533333D02*
X106531009Y-110485714D01*
X106531009Y-110485714D02*
X106626247Y-110438095D01*
X106626247Y-110438095D02*
X106864342Y-110438095D01*
X106864342Y-110438095D02*
X106959580Y-110485714D01*
X106959580Y-110485714D02*
X107007200Y-110533333D01*
X107007200Y-110533333D02*
X107054819Y-110628571D01*
X107054819Y-110628571D02*
X107054819Y-110866666D01*
X107054819Y-110866666D02*
X107007200Y-110961904D01*
X107007200Y-110961904D02*
X106959580Y-111009523D01*
X117357142Y-113954819D02*
X117023809Y-113478628D01*
X116785714Y-113954819D02*
X116785714Y-112954819D01*
X116785714Y-112954819D02*
X117166666Y-112954819D01*
X117166666Y-112954819D02*
X117261904Y-113002438D01*
X117261904Y-113002438D02*
X117309523Y-113050057D01*
X117309523Y-113050057D02*
X117357142Y-113145295D01*
X117357142Y-113145295D02*
X117357142Y-113288152D01*
X117357142Y-113288152D02*
X117309523Y-113383390D01*
X117309523Y-113383390D02*
X117261904Y-113431009D01*
X117261904Y-113431009D02*
X117166666Y-113478628D01*
X117166666Y-113478628D02*
X116785714Y-113478628D01*
X118309523Y-113954819D02*
X117738095Y-113954819D01*
X118023809Y-113954819D02*
X118023809Y-112954819D01*
X118023809Y-112954819D02*
X117928571Y-113097676D01*
X117928571Y-113097676D02*
X117833333Y-113192914D01*
X117833333Y-113192914D02*
X117738095Y-113240533D01*
X119166666Y-113288152D02*
X119166666Y-113954819D01*
X118928571Y-112907200D02*
X118690476Y-113621485D01*
X118690476Y-113621485D02*
X119309523Y-113621485D01*
X109454819Y-106142857D02*
X108978628Y-106476190D01*
X109454819Y-106714285D02*
X108454819Y-106714285D01*
X108454819Y-106714285D02*
X108454819Y-106333333D01*
X108454819Y-106333333D02*
X108502438Y-106238095D01*
X108502438Y-106238095D02*
X108550057Y-106190476D01*
X108550057Y-106190476D02*
X108645295Y-106142857D01*
X108645295Y-106142857D02*
X108788152Y-106142857D01*
X108788152Y-106142857D02*
X108883390Y-106190476D01*
X108883390Y-106190476D02*
X108931009Y-106238095D01*
X108931009Y-106238095D02*
X108978628Y-106333333D01*
X108978628Y-106333333D02*
X108978628Y-106714285D01*
X109454819Y-105190476D02*
X109454819Y-105761904D01*
X109454819Y-105476190D02*
X108454819Y-105476190D01*
X108454819Y-105476190D02*
X108597676Y-105571428D01*
X108597676Y-105571428D02*
X108692914Y-105666666D01*
X108692914Y-105666666D02*
X108740533Y-105761904D01*
X108550057Y-104809523D02*
X108502438Y-104761904D01*
X108502438Y-104761904D02*
X108454819Y-104666666D01*
X108454819Y-104666666D02*
X108454819Y-104428571D01*
X108454819Y-104428571D02*
X108502438Y-104333333D01*
X108502438Y-104333333D02*
X108550057Y-104285714D01*
X108550057Y-104285714D02*
X108645295Y-104238095D01*
X108645295Y-104238095D02*
X108740533Y-104238095D01*
X108740533Y-104238095D02*
X108883390Y-104285714D01*
X108883390Y-104285714D02*
X109454819Y-104857142D01*
X109454819Y-104857142D02*
X109454819Y-104238095D01*
X106804819Y-118142857D02*
X106328628Y-118476190D01*
X106804819Y-118714285D02*
X105804819Y-118714285D01*
X105804819Y-118714285D02*
X105804819Y-118333333D01*
X105804819Y-118333333D02*
X105852438Y-118238095D01*
X105852438Y-118238095D02*
X105900057Y-118190476D01*
X105900057Y-118190476D02*
X105995295Y-118142857D01*
X105995295Y-118142857D02*
X106138152Y-118142857D01*
X106138152Y-118142857D02*
X106233390Y-118190476D01*
X106233390Y-118190476D02*
X106281009Y-118238095D01*
X106281009Y-118238095D02*
X106328628Y-118333333D01*
X106328628Y-118333333D02*
X106328628Y-118714285D01*
X106804819Y-117190476D02*
X106804819Y-117761904D01*
X106804819Y-117476190D02*
X105804819Y-117476190D01*
X105804819Y-117476190D02*
X105947676Y-117571428D01*
X105947676Y-117571428D02*
X106042914Y-117666666D01*
X106042914Y-117666666D02*
X106090533Y-117761904D01*
X106804819Y-116238095D02*
X106804819Y-116809523D01*
X106804819Y-116523809D02*
X105804819Y-116523809D01*
X105804819Y-116523809D02*
X105947676Y-116619047D01*
X105947676Y-116619047D02*
X106042914Y-116714285D01*
X106042914Y-116714285D02*
X106090533Y-116809523D01*
X106804819Y-122142857D02*
X106328628Y-122476190D01*
X106804819Y-122714285D02*
X105804819Y-122714285D01*
X105804819Y-122714285D02*
X105804819Y-122333333D01*
X105804819Y-122333333D02*
X105852438Y-122238095D01*
X105852438Y-122238095D02*
X105900057Y-122190476D01*
X105900057Y-122190476D02*
X105995295Y-122142857D01*
X105995295Y-122142857D02*
X106138152Y-122142857D01*
X106138152Y-122142857D02*
X106233390Y-122190476D01*
X106233390Y-122190476D02*
X106281009Y-122238095D01*
X106281009Y-122238095D02*
X106328628Y-122333333D01*
X106328628Y-122333333D02*
X106328628Y-122714285D01*
X106804819Y-121190476D02*
X106804819Y-121761904D01*
X106804819Y-121476190D02*
X105804819Y-121476190D01*
X105804819Y-121476190D02*
X105947676Y-121571428D01*
X105947676Y-121571428D02*
X106042914Y-121666666D01*
X106042914Y-121666666D02*
X106090533Y-121761904D01*
X105804819Y-120571428D02*
X105804819Y-120476190D01*
X105804819Y-120476190D02*
X105852438Y-120380952D01*
X105852438Y-120380952D02*
X105900057Y-120333333D01*
X105900057Y-120333333D02*
X105995295Y-120285714D01*
X105995295Y-120285714D02*
X106185771Y-120238095D01*
X106185771Y-120238095D02*
X106423866Y-120238095D01*
X106423866Y-120238095D02*
X106614342Y-120285714D01*
X106614342Y-120285714D02*
X106709580Y-120333333D01*
X106709580Y-120333333D02*
X106757200Y-120380952D01*
X106757200Y-120380952D02*
X106804819Y-120476190D01*
X106804819Y-120476190D02*
X106804819Y-120571428D01*
X106804819Y-120571428D02*
X106757200Y-120666666D01*
X106757200Y-120666666D02*
X106709580Y-120714285D01*
X106709580Y-120714285D02*
X106614342Y-120761904D01*
X106614342Y-120761904D02*
X106423866Y-120809523D01*
X106423866Y-120809523D02*
X106185771Y-120809523D01*
X106185771Y-120809523D02*
X105995295Y-120761904D01*
X105995295Y-120761904D02*
X105900057Y-120714285D01*
X105900057Y-120714285D02*
X105852438Y-120666666D01*
X105852438Y-120666666D02*
X105804819Y-120571428D01*
X137574819Y-61666666D02*
X137098628Y-61999999D01*
X137574819Y-62238094D02*
X136574819Y-62238094D01*
X136574819Y-62238094D02*
X136574819Y-61857142D01*
X136574819Y-61857142D02*
X136622438Y-61761904D01*
X136622438Y-61761904D02*
X136670057Y-61714285D01*
X136670057Y-61714285D02*
X136765295Y-61666666D01*
X136765295Y-61666666D02*
X136908152Y-61666666D01*
X136908152Y-61666666D02*
X137003390Y-61714285D01*
X137003390Y-61714285D02*
X137051009Y-61761904D01*
X137051009Y-61761904D02*
X137098628Y-61857142D01*
X137098628Y-61857142D02*
X137098628Y-62238094D01*
X137574819Y-60714285D02*
X137574819Y-61285713D01*
X137574819Y-60999999D02*
X136574819Y-60999999D01*
X136574819Y-60999999D02*
X136717676Y-61095237D01*
X136717676Y-61095237D02*
X136812914Y-61190475D01*
X136812914Y-61190475D02*
X136860533Y-61285713D01*
X114904761Y-98550057D02*
X114809523Y-98502438D01*
X114809523Y-98502438D02*
X114714285Y-98407200D01*
X114714285Y-98407200D02*
X114571428Y-98264342D01*
X114571428Y-98264342D02*
X114476190Y-98216723D01*
X114476190Y-98216723D02*
X114380952Y-98216723D01*
X114428571Y-98454819D02*
X114333333Y-98407200D01*
X114333333Y-98407200D02*
X114238095Y-98311961D01*
X114238095Y-98311961D02*
X114190476Y-98121485D01*
X114190476Y-98121485D02*
X114190476Y-97788152D01*
X114190476Y-97788152D02*
X114238095Y-97597676D01*
X114238095Y-97597676D02*
X114333333Y-97502438D01*
X114333333Y-97502438D02*
X114428571Y-97454819D01*
X114428571Y-97454819D02*
X114619047Y-97454819D01*
X114619047Y-97454819D02*
X114714285Y-97502438D01*
X114714285Y-97502438D02*
X114809523Y-97597676D01*
X114809523Y-97597676D02*
X114857142Y-97788152D01*
X114857142Y-97788152D02*
X114857142Y-98121485D01*
X114857142Y-98121485D02*
X114809523Y-98311961D01*
X114809523Y-98311961D02*
X114714285Y-98407200D01*
X114714285Y-98407200D02*
X114619047Y-98454819D01*
X114619047Y-98454819D02*
X114428571Y-98454819D01*
X115238095Y-97550057D02*
X115285714Y-97502438D01*
X115285714Y-97502438D02*
X115380952Y-97454819D01*
X115380952Y-97454819D02*
X115619047Y-97454819D01*
X115619047Y-97454819D02*
X115714285Y-97502438D01*
X115714285Y-97502438D02*
X115761904Y-97550057D01*
X115761904Y-97550057D02*
X115809523Y-97645295D01*
X115809523Y-97645295D02*
X115809523Y-97740533D01*
X115809523Y-97740533D02*
X115761904Y-97883390D01*
X115761904Y-97883390D02*
X115190476Y-98454819D01*
X115190476Y-98454819D02*
X115809523Y-98454819D01*
X111304819Y-113238094D02*
X110304819Y-113238094D01*
X110304819Y-113238094D02*
X110304819Y-112999999D01*
X110304819Y-112999999D02*
X110352438Y-112857142D01*
X110352438Y-112857142D02*
X110447676Y-112761904D01*
X110447676Y-112761904D02*
X110542914Y-112714285D01*
X110542914Y-112714285D02*
X110733390Y-112666666D01*
X110733390Y-112666666D02*
X110876247Y-112666666D01*
X110876247Y-112666666D02*
X111066723Y-112714285D01*
X111066723Y-112714285D02*
X111161961Y-112761904D01*
X111161961Y-112761904D02*
X111257200Y-112857142D01*
X111257200Y-112857142D02*
X111304819Y-112999999D01*
X111304819Y-112999999D02*
X111304819Y-113238094D01*
X110304819Y-111809523D02*
X110304819Y-111999999D01*
X110304819Y-111999999D02*
X110352438Y-112095237D01*
X110352438Y-112095237D02*
X110400057Y-112142856D01*
X110400057Y-112142856D02*
X110542914Y-112238094D01*
X110542914Y-112238094D02*
X110733390Y-112285713D01*
X110733390Y-112285713D02*
X111114342Y-112285713D01*
X111114342Y-112285713D02*
X111209580Y-112238094D01*
X111209580Y-112238094D02*
X111257200Y-112190475D01*
X111257200Y-112190475D02*
X111304819Y-112095237D01*
X111304819Y-112095237D02*
X111304819Y-111904761D01*
X111304819Y-111904761D02*
X111257200Y-111809523D01*
X111257200Y-111809523D02*
X111209580Y-111761904D01*
X111209580Y-111761904D02*
X111114342Y-111714285D01*
X111114342Y-111714285D02*
X110876247Y-111714285D01*
X110876247Y-111714285D02*
X110781009Y-111761904D01*
X110781009Y-111761904D02*
X110733390Y-111809523D01*
X110733390Y-111809523D02*
X110685771Y-111904761D01*
X110685771Y-111904761D02*
X110685771Y-112095237D01*
X110685771Y-112095237D02*
X110733390Y-112190475D01*
X110733390Y-112190475D02*
X110781009Y-112238094D01*
X110781009Y-112238094D02*
X110876247Y-112285713D01*
X110261905Y-114954819D02*
X110261905Y-113954819D01*
X110261905Y-113954819D02*
X110500000Y-113954819D01*
X110500000Y-113954819D02*
X110642857Y-114002438D01*
X110642857Y-114002438D02*
X110738095Y-114097676D01*
X110738095Y-114097676D02*
X110785714Y-114192914D01*
X110785714Y-114192914D02*
X110833333Y-114383390D01*
X110833333Y-114383390D02*
X110833333Y-114526247D01*
X110833333Y-114526247D02*
X110785714Y-114716723D01*
X110785714Y-114716723D02*
X110738095Y-114811961D01*
X110738095Y-114811961D02*
X110642857Y-114907200D01*
X110642857Y-114907200D02*
X110500000Y-114954819D01*
X110500000Y-114954819D02*
X110261905Y-114954819D01*
X111738095Y-113954819D02*
X111261905Y-113954819D01*
X111261905Y-113954819D02*
X111214286Y-114431009D01*
X111214286Y-114431009D02*
X111261905Y-114383390D01*
X111261905Y-114383390D02*
X111357143Y-114335771D01*
X111357143Y-114335771D02*
X111595238Y-114335771D01*
X111595238Y-114335771D02*
X111690476Y-114383390D01*
X111690476Y-114383390D02*
X111738095Y-114431009D01*
X111738095Y-114431009D02*
X111785714Y-114526247D01*
X111785714Y-114526247D02*
X111785714Y-114764342D01*
X111785714Y-114764342D02*
X111738095Y-114859580D01*
X111738095Y-114859580D02*
X111690476Y-114907200D01*
X111690476Y-114907200D02*
X111595238Y-114954819D01*
X111595238Y-114954819D02*
X111357143Y-114954819D01*
X111357143Y-114954819D02*
X111261905Y-114907200D01*
X111261905Y-114907200D02*
X111214286Y-114859580D01*
X112899405Y-136254819D02*
X112899405Y-135254819D01*
X112899405Y-135254819D02*
X113137500Y-135254819D01*
X113137500Y-135254819D02*
X113280357Y-135302438D01*
X113280357Y-135302438D02*
X113375595Y-135397676D01*
X113375595Y-135397676D02*
X113423214Y-135492914D01*
X113423214Y-135492914D02*
X113470833Y-135683390D01*
X113470833Y-135683390D02*
X113470833Y-135826247D01*
X113470833Y-135826247D02*
X113423214Y-136016723D01*
X113423214Y-136016723D02*
X113375595Y-136111961D01*
X113375595Y-136111961D02*
X113280357Y-136207200D01*
X113280357Y-136207200D02*
X113137500Y-136254819D01*
X113137500Y-136254819D02*
X112899405Y-136254819D01*
X114327976Y-135588152D02*
X114327976Y-136254819D01*
X114089881Y-135207200D02*
X113851786Y-135921485D01*
X113851786Y-135921485D02*
X114470833Y-135921485D01*
X65859580Y-126942857D02*
X65907200Y-126990476D01*
X65907200Y-126990476D02*
X65954819Y-127133333D01*
X65954819Y-127133333D02*
X65954819Y-127228571D01*
X65954819Y-127228571D02*
X65907200Y-127371428D01*
X65907200Y-127371428D02*
X65811961Y-127466666D01*
X65811961Y-127466666D02*
X65716723Y-127514285D01*
X65716723Y-127514285D02*
X65526247Y-127561904D01*
X65526247Y-127561904D02*
X65383390Y-127561904D01*
X65383390Y-127561904D02*
X65192914Y-127514285D01*
X65192914Y-127514285D02*
X65097676Y-127466666D01*
X65097676Y-127466666D02*
X65002438Y-127371428D01*
X65002438Y-127371428D02*
X64954819Y-127228571D01*
X64954819Y-127228571D02*
X64954819Y-127133333D01*
X64954819Y-127133333D02*
X65002438Y-126990476D01*
X65002438Y-126990476D02*
X65050057Y-126942857D01*
X65050057Y-126561904D02*
X65002438Y-126514285D01*
X65002438Y-126514285D02*
X64954819Y-126419047D01*
X64954819Y-126419047D02*
X64954819Y-126180952D01*
X64954819Y-126180952D02*
X65002438Y-126085714D01*
X65002438Y-126085714D02*
X65050057Y-126038095D01*
X65050057Y-126038095D02*
X65145295Y-125990476D01*
X65145295Y-125990476D02*
X65240533Y-125990476D01*
X65240533Y-125990476D02*
X65383390Y-126038095D01*
X65383390Y-126038095D02*
X65954819Y-126609523D01*
X65954819Y-126609523D02*
X65954819Y-125990476D01*
X64954819Y-125371428D02*
X64954819Y-125276190D01*
X64954819Y-125276190D02*
X65002438Y-125180952D01*
X65002438Y-125180952D02*
X65050057Y-125133333D01*
X65050057Y-125133333D02*
X65145295Y-125085714D01*
X65145295Y-125085714D02*
X65335771Y-125038095D01*
X65335771Y-125038095D02*
X65573866Y-125038095D01*
X65573866Y-125038095D02*
X65764342Y-125085714D01*
X65764342Y-125085714D02*
X65859580Y-125133333D01*
X65859580Y-125133333D02*
X65907200Y-125180952D01*
X65907200Y-125180952D02*
X65954819Y-125276190D01*
X65954819Y-125276190D02*
X65954819Y-125371428D01*
X65954819Y-125371428D02*
X65907200Y-125466666D01*
X65907200Y-125466666D02*
X65859580Y-125514285D01*
X65859580Y-125514285D02*
X65764342Y-125561904D01*
X65764342Y-125561904D02*
X65573866Y-125609523D01*
X65573866Y-125609523D02*
X65335771Y-125609523D01*
X65335771Y-125609523D02*
X65145295Y-125561904D01*
X65145295Y-125561904D02*
X65050057Y-125514285D01*
X65050057Y-125514285D02*
X65002438Y-125466666D01*
X65002438Y-125466666D02*
X64954819Y-125371428D01*
X71359580Y-126942857D02*
X71407200Y-126990476D01*
X71407200Y-126990476D02*
X71454819Y-127133333D01*
X71454819Y-127133333D02*
X71454819Y-127228571D01*
X71454819Y-127228571D02*
X71407200Y-127371428D01*
X71407200Y-127371428D02*
X71311961Y-127466666D01*
X71311961Y-127466666D02*
X71216723Y-127514285D01*
X71216723Y-127514285D02*
X71026247Y-127561904D01*
X71026247Y-127561904D02*
X70883390Y-127561904D01*
X70883390Y-127561904D02*
X70692914Y-127514285D01*
X70692914Y-127514285D02*
X70597676Y-127466666D01*
X70597676Y-127466666D02*
X70502438Y-127371428D01*
X70502438Y-127371428D02*
X70454819Y-127228571D01*
X70454819Y-127228571D02*
X70454819Y-127133333D01*
X70454819Y-127133333D02*
X70502438Y-126990476D01*
X70502438Y-126990476D02*
X70550057Y-126942857D01*
X71454819Y-125990476D02*
X71454819Y-126561904D01*
X71454819Y-126276190D02*
X70454819Y-126276190D01*
X70454819Y-126276190D02*
X70597676Y-126371428D01*
X70597676Y-126371428D02*
X70692914Y-126466666D01*
X70692914Y-126466666D02*
X70740533Y-126561904D01*
X71454819Y-125514285D02*
X71454819Y-125323809D01*
X71454819Y-125323809D02*
X71407200Y-125228571D01*
X71407200Y-125228571D02*
X71359580Y-125180952D01*
X71359580Y-125180952D02*
X71216723Y-125085714D01*
X71216723Y-125085714D02*
X71026247Y-125038095D01*
X71026247Y-125038095D02*
X70645295Y-125038095D01*
X70645295Y-125038095D02*
X70550057Y-125085714D01*
X70550057Y-125085714D02*
X70502438Y-125133333D01*
X70502438Y-125133333D02*
X70454819Y-125228571D01*
X70454819Y-125228571D02*
X70454819Y-125419047D01*
X70454819Y-125419047D02*
X70502438Y-125514285D01*
X70502438Y-125514285D02*
X70550057Y-125561904D01*
X70550057Y-125561904D02*
X70645295Y-125609523D01*
X70645295Y-125609523D02*
X70883390Y-125609523D01*
X70883390Y-125609523D02*
X70978628Y-125561904D01*
X70978628Y-125561904D02*
X71026247Y-125514285D01*
X71026247Y-125514285D02*
X71073866Y-125419047D01*
X71073866Y-125419047D02*
X71073866Y-125228571D01*
X71073866Y-125228571D02*
X71026247Y-125133333D01*
X71026247Y-125133333D02*
X70978628Y-125085714D01*
X70978628Y-125085714D02*
X70883390Y-125038095D01*
X76859580Y-126942857D02*
X76907200Y-126990476D01*
X76907200Y-126990476D02*
X76954819Y-127133333D01*
X76954819Y-127133333D02*
X76954819Y-127228571D01*
X76954819Y-127228571D02*
X76907200Y-127371428D01*
X76907200Y-127371428D02*
X76811961Y-127466666D01*
X76811961Y-127466666D02*
X76716723Y-127514285D01*
X76716723Y-127514285D02*
X76526247Y-127561904D01*
X76526247Y-127561904D02*
X76383390Y-127561904D01*
X76383390Y-127561904D02*
X76192914Y-127514285D01*
X76192914Y-127514285D02*
X76097676Y-127466666D01*
X76097676Y-127466666D02*
X76002438Y-127371428D01*
X76002438Y-127371428D02*
X75954819Y-127228571D01*
X75954819Y-127228571D02*
X75954819Y-127133333D01*
X75954819Y-127133333D02*
X76002438Y-126990476D01*
X76002438Y-126990476D02*
X76050057Y-126942857D01*
X76954819Y-125990476D02*
X76954819Y-126561904D01*
X76954819Y-126276190D02*
X75954819Y-126276190D01*
X75954819Y-126276190D02*
X76097676Y-126371428D01*
X76097676Y-126371428D02*
X76192914Y-126466666D01*
X76192914Y-126466666D02*
X76240533Y-126561904D01*
X76383390Y-125419047D02*
X76335771Y-125514285D01*
X76335771Y-125514285D02*
X76288152Y-125561904D01*
X76288152Y-125561904D02*
X76192914Y-125609523D01*
X76192914Y-125609523D02*
X76145295Y-125609523D01*
X76145295Y-125609523D02*
X76050057Y-125561904D01*
X76050057Y-125561904D02*
X76002438Y-125514285D01*
X76002438Y-125514285D02*
X75954819Y-125419047D01*
X75954819Y-125419047D02*
X75954819Y-125228571D01*
X75954819Y-125228571D02*
X76002438Y-125133333D01*
X76002438Y-125133333D02*
X76050057Y-125085714D01*
X76050057Y-125085714D02*
X76145295Y-125038095D01*
X76145295Y-125038095D02*
X76192914Y-125038095D01*
X76192914Y-125038095D02*
X76288152Y-125085714D01*
X76288152Y-125085714D02*
X76335771Y-125133333D01*
X76335771Y-125133333D02*
X76383390Y-125228571D01*
X76383390Y-125228571D02*
X76383390Y-125419047D01*
X76383390Y-125419047D02*
X76431009Y-125514285D01*
X76431009Y-125514285D02*
X76478628Y-125561904D01*
X76478628Y-125561904D02*
X76573866Y-125609523D01*
X76573866Y-125609523D02*
X76764342Y-125609523D01*
X76764342Y-125609523D02*
X76859580Y-125561904D01*
X76859580Y-125561904D02*
X76907200Y-125514285D01*
X76907200Y-125514285D02*
X76954819Y-125419047D01*
X76954819Y-125419047D02*
X76954819Y-125228571D01*
X76954819Y-125228571D02*
X76907200Y-125133333D01*
X76907200Y-125133333D02*
X76859580Y-125085714D01*
X76859580Y-125085714D02*
X76764342Y-125038095D01*
X76764342Y-125038095D02*
X76573866Y-125038095D01*
X76573866Y-125038095D02*
X76478628Y-125085714D01*
X76478628Y-125085714D02*
X76431009Y-125133333D01*
X76431009Y-125133333D02*
X76383390Y-125228571D01*
X82459580Y-126942857D02*
X82507200Y-126990476D01*
X82507200Y-126990476D02*
X82554819Y-127133333D01*
X82554819Y-127133333D02*
X82554819Y-127228571D01*
X82554819Y-127228571D02*
X82507200Y-127371428D01*
X82507200Y-127371428D02*
X82411961Y-127466666D01*
X82411961Y-127466666D02*
X82316723Y-127514285D01*
X82316723Y-127514285D02*
X82126247Y-127561904D01*
X82126247Y-127561904D02*
X81983390Y-127561904D01*
X81983390Y-127561904D02*
X81792914Y-127514285D01*
X81792914Y-127514285D02*
X81697676Y-127466666D01*
X81697676Y-127466666D02*
X81602438Y-127371428D01*
X81602438Y-127371428D02*
X81554819Y-127228571D01*
X81554819Y-127228571D02*
X81554819Y-127133333D01*
X81554819Y-127133333D02*
X81602438Y-126990476D01*
X81602438Y-126990476D02*
X81650057Y-126942857D01*
X82554819Y-125990476D02*
X82554819Y-126561904D01*
X82554819Y-126276190D02*
X81554819Y-126276190D01*
X81554819Y-126276190D02*
X81697676Y-126371428D01*
X81697676Y-126371428D02*
X81792914Y-126466666D01*
X81792914Y-126466666D02*
X81840533Y-126561904D01*
X81554819Y-125657142D02*
X81554819Y-124990476D01*
X81554819Y-124990476D02*
X82554819Y-125419047D01*
X87759580Y-126942857D02*
X87807200Y-126990476D01*
X87807200Y-126990476D02*
X87854819Y-127133333D01*
X87854819Y-127133333D02*
X87854819Y-127228571D01*
X87854819Y-127228571D02*
X87807200Y-127371428D01*
X87807200Y-127371428D02*
X87711961Y-127466666D01*
X87711961Y-127466666D02*
X87616723Y-127514285D01*
X87616723Y-127514285D02*
X87426247Y-127561904D01*
X87426247Y-127561904D02*
X87283390Y-127561904D01*
X87283390Y-127561904D02*
X87092914Y-127514285D01*
X87092914Y-127514285D02*
X86997676Y-127466666D01*
X86997676Y-127466666D02*
X86902438Y-127371428D01*
X86902438Y-127371428D02*
X86854819Y-127228571D01*
X86854819Y-127228571D02*
X86854819Y-127133333D01*
X86854819Y-127133333D02*
X86902438Y-126990476D01*
X86902438Y-126990476D02*
X86950057Y-126942857D01*
X87854819Y-125990476D02*
X87854819Y-126561904D01*
X87854819Y-126276190D02*
X86854819Y-126276190D01*
X86854819Y-126276190D02*
X86997676Y-126371428D01*
X86997676Y-126371428D02*
X87092914Y-126466666D01*
X87092914Y-126466666D02*
X87140533Y-126561904D01*
X86854819Y-125133333D02*
X86854819Y-125323809D01*
X86854819Y-125323809D02*
X86902438Y-125419047D01*
X86902438Y-125419047D02*
X86950057Y-125466666D01*
X86950057Y-125466666D02*
X87092914Y-125561904D01*
X87092914Y-125561904D02*
X87283390Y-125609523D01*
X87283390Y-125609523D02*
X87664342Y-125609523D01*
X87664342Y-125609523D02*
X87759580Y-125561904D01*
X87759580Y-125561904D02*
X87807200Y-125514285D01*
X87807200Y-125514285D02*
X87854819Y-125419047D01*
X87854819Y-125419047D02*
X87854819Y-125228571D01*
X87854819Y-125228571D02*
X87807200Y-125133333D01*
X87807200Y-125133333D02*
X87759580Y-125085714D01*
X87759580Y-125085714D02*
X87664342Y-125038095D01*
X87664342Y-125038095D02*
X87426247Y-125038095D01*
X87426247Y-125038095D02*
X87331009Y-125085714D01*
X87331009Y-125085714D02*
X87283390Y-125133333D01*
X87283390Y-125133333D02*
X87235771Y-125228571D01*
X87235771Y-125228571D02*
X87235771Y-125419047D01*
X87235771Y-125419047D02*
X87283390Y-125514285D01*
X87283390Y-125514285D02*
X87331009Y-125561904D01*
X87331009Y-125561904D02*
X87426247Y-125609523D01*
X131359580Y-85642857D02*
X131407200Y-85690476D01*
X131407200Y-85690476D02*
X131454819Y-85833333D01*
X131454819Y-85833333D02*
X131454819Y-85928571D01*
X131454819Y-85928571D02*
X131407200Y-86071428D01*
X131407200Y-86071428D02*
X131311961Y-86166666D01*
X131311961Y-86166666D02*
X131216723Y-86214285D01*
X131216723Y-86214285D02*
X131026247Y-86261904D01*
X131026247Y-86261904D02*
X130883390Y-86261904D01*
X130883390Y-86261904D02*
X130692914Y-86214285D01*
X130692914Y-86214285D02*
X130597676Y-86166666D01*
X130597676Y-86166666D02*
X130502438Y-86071428D01*
X130502438Y-86071428D02*
X130454819Y-85928571D01*
X130454819Y-85928571D02*
X130454819Y-85833333D01*
X130454819Y-85833333D02*
X130502438Y-85690476D01*
X130502438Y-85690476D02*
X130550057Y-85642857D01*
X131454819Y-84690476D02*
X131454819Y-85261904D01*
X131454819Y-84976190D02*
X130454819Y-84976190D01*
X130454819Y-84976190D02*
X130597676Y-85071428D01*
X130597676Y-85071428D02*
X130692914Y-85166666D01*
X130692914Y-85166666D02*
X130740533Y-85261904D01*
X130454819Y-84357142D02*
X130454819Y-83738095D01*
X130454819Y-83738095D02*
X130835771Y-84071428D01*
X130835771Y-84071428D02*
X130835771Y-83928571D01*
X130835771Y-83928571D02*
X130883390Y-83833333D01*
X130883390Y-83833333D02*
X130931009Y-83785714D01*
X130931009Y-83785714D02*
X131026247Y-83738095D01*
X131026247Y-83738095D02*
X131264342Y-83738095D01*
X131264342Y-83738095D02*
X131359580Y-83785714D01*
X131359580Y-83785714D02*
X131407200Y-83833333D01*
X131407200Y-83833333D02*
X131454819Y-83928571D01*
X131454819Y-83928571D02*
X131454819Y-84214285D01*
X131454819Y-84214285D02*
X131407200Y-84309523D01*
X131407200Y-84309523D02*
X131359580Y-84357142D01*
X131359580Y-90142857D02*
X131407200Y-90190476D01*
X131407200Y-90190476D02*
X131454819Y-90333333D01*
X131454819Y-90333333D02*
X131454819Y-90428571D01*
X131454819Y-90428571D02*
X131407200Y-90571428D01*
X131407200Y-90571428D02*
X131311961Y-90666666D01*
X131311961Y-90666666D02*
X131216723Y-90714285D01*
X131216723Y-90714285D02*
X131026247Y-90761904D01*
X131026247Y-90761904D02*
X130883390Y-90761904D01*
X130883390Y-90761904D02*
X130692914Y-90714285D01*
X130692914Y-90714285D02*
X130597676Y-90666666D01*
X130597676Y-90666666D02*
X130502438Y-90571428D01*
X130502438Y-90571428D02*
X130454819Y-90428571D01*
X130454819Y-90428571D02*
X130454819Y-90333333D01*
X130454819Y-90333333D02*
X130502438Y-90190476D01*
X130502438Y-90190476D02*
X130550057Y-90142857D01*
X131454819Y-89190476D02*
X131454819Y-89761904D01*
X131454819Y-89476190D02*
X130454819Y-89476190D01*
X130454819Y-89476190D02*
X130597676Y-89571428D01*
X130597676Y-89571428D02*
X130692914Y-89666666D01*
X130692914Y-89666666D02*
X130740533Y-89761904D01*
X130550057Y-88809523D02*
X130502438Y-88761904D01*
X130502438Y-88761904D02*
X130454819Y-88666666D01*
X130454819Y-88666666D02*
X130454819Y-88428571D01*
X130454819Y-88428571D02*
X130502438Y-88333333D01*
X130502438Y-88333333D02*
X130550057Y-88285714D01*
X130550057Y-88285714D02*
X130645295Y-88238095D01*
X130645295Y-88238095D02*
X130740533Y-88238095D01*
X130740533Y-88238095D02*
X130883390Y-88285714D01*
X130883390Y-88285714D02*
X131454819Y-88857142D01*
X131454819Y-88857142D02*
X131454819Y-88238095D01*
X98559580Y-122766666D02*
X98607200Y-122814285D01*
X98607200Y-122814285D02*
X98654819Y-122957142D01*
X98654819Y-122957142D02*
X98654819Y-123052380D01*
X98654819Y-123052380D02*
X98607200Y-123195237D01*
X98607200Y-123195237D02*
X98511961Y-123290475D01*
X98511961Y-123290475D02*
X98416723Y-123338094D01*
X98416723Y-123338094D02*
X98226247Y-123385713D01*
X98226247Y-123385713D02*
X98083390Y-123385713D01*
X98083390Y-123385713D02*
X97892914Y-123338094D01*
X97892914Y-123338094D02*
X97797676Y-123290475D01*
X97797676Y-123290475D02*
X97702438Y-123195237D01*
X97702438Y-123195237D02*
X97654819Y-123052380D01*
X97654819Y-123052380D02*
X97654819Y-122957142D01*
X97654819Y-122957142D02*
X97702438Y-122814285D01*
X97702438Y-122814285D02*
X97750057Y-122766666D01*
X98654819Y-121814285D02*
X98654819Y-122385713D01*
X98654819Y-122099999D02*
X97654819Y-122099999D01*
X97654819Y-122099999D02*
X97797676Y-122195237D01*
X97797676Y-122195237D02*
X97892914Y-122290475D01*
X97892914Y-122290475D02*
X97940533Y-122385713D01*
X115886905Y-140754819D02*
X115886905Y-139754819D01*
X115886905Y-139754819D02*
X116125000Y-139754819D01*
X116125000Y-139754819D02*
X116267857Y-139802438D01*
X116267857Y-139802438D02*
X116363095Y-139897676D01*
X116363095Y-139897676D02*
X116410714Y-139992914D01*
X116410714Y-139992914D02*
X116458333Y-140183390D01*
X116458333Y-140183390D02*
X116458333Y-140326247D01*
X116458333Y-140326247D02*
X116410714Y-140516723D01*
X116410714Y-140516723D02*
X116363095Y-140611961D01*
X116363095Y-140611961D02*
X116267857Y-140707200D01*
X116267857Y-140707200D02*
X116125000Y-140754819D01*
X116125000Y-140754819D02*
X115886905Y-140754819D01*
X116791667Y-139754819D02*
X117410714Y-139754819D01*
X117410714Y-139754819D02*
X117077381Y-140135771D01*
X117077381Y-140135771D02*
X117220238Y-140135771D01*
X117220238Y-140135771D02*
X117315476Y-140183390D01*
X117315476Y-140183390D02*
X117363095Y-140231009D01*
X117363095Y-140231009D02*
X117410714Y-140326247D01*
X117410714Y-140326247D02*
X117410714Y-140564342D01*
X117410714Y-140564342D02*
X117363095Y-140659580D01*
X117363095Y-140659580D02*
X117315476Y-140707200D01*
X117315476Y-140707200D02*
X117220238Y-140754819D01*
X117220238Y-140754819D02*
X116934524Y-140754819D01*
X116934524Y-140754819D02*
X116839286Y-140707200D01*
X116839286Y-140707200D02*
X116791667Y-140659580D01*
X107907200Y-71333332D02*
X107954819Y-71190475D01*
X107954819Y-71190475D02*
X107954819Y-70952380D01*
X107954819Y-70952380D02*
X107907200Y-70857142D01*
X107907200Y-70857142D02*
X107859580Y-70809523D01*
X107859580Y-70809523D02*
X107764342Y-70761904D01*
X107764342Y-70761904D02*
X107669104Y-70761904D01*
X107669104Y-70761904D02*
X107573866Y-70809523D01*
X107573866Y-70809523D02*
X107526247Y-70857142D01*
X107526247Y-70857142D02*
X107478628Y-70952380D01*
X107478628Y-70952380D02*
X107431009Y-71142856D01*
X107431009Y-71142856D02*
X107383390Y-71238094D01*
X107383390Y-71238094D02*
X107335771Y-71285713D01*
X107335771Y-71285713D02*
X107240533Y-71333332D01*
X107240533Y-71333332D02*
X107145295Y-71333332D01*
X107145295Y-71333332D02*
X107050057Y-71285713D01*
X107050057Y-71285713D02*
X107002438Y-71238094D01*
X107002438Y-71238094D02*
X106954819Y-71142856D01*
X106954819Y-71142856D02*
X106954819Y-70904761D01*
X106954819Y-70904761D02*
X107002438Y-70761904D01*
X106954819Y-70428570D02*
X107954819Y-70190475D01*
X107954819Y-70190475D02*
X107240533Y-69999999D01*
X107240533Y-69999999D02*
X107954819Y-69809523D01*
X107954819Y-69809523D02*
X106954819Y-69571428D01*
X107954819Y-68666666D02*
X107954819Y-69238094D01*
X107954819Y-68952380D02*
X106954819Y-68952380D01*
X106954819Y-68952380D02*
X107097676Y-69047618D01*
X107097676Y-69047618D02*
X107192914Y-69142856D01*
X107192914Y-69142856D02*
X107240533Y-69238094D01*
X123109580Y-80666666D02*
X123157200Y-80714285D01*
X123157200Y-80714285D02*
X123204819Y-80857142D01*
X123204819Y-80857142D02*
X123204819Y-80952380D01*
X123204819Y-80952380D02*
X123157200Y-81095237D01*
X123157200Y-81095237D02*
X123061961Y-81190475D01*
X123061961Y-81190475D02*
X122966723Y-81238094D01*
X122966723Y-81238094D02*
X122776247Y-81285713D01*
X122776247Y-81285713D02*
X122633390Y-81285713D01*
X122633390Y-81285713D02*
X122442914Y-81238094D01*
X122442914Y-81238094D02*
X122347676Y-81190475D01*
X122347676Y-81190475D02*
X122252438Y-81095237D01*
X122252438Y-81095237D02*
X122204819Y-80952380D01*
X122204819Y-80952380D02*
X122204819Y-80857142D01*
X122204819Y-80857142D02*
X122252438Y-80714285D01*
X122252438Y-80714285D02*
X122300057Y-80666666D01*
X122204819Y-80333332D02*
X122204819Y-79666666D01*
X122204819Y-79666666D02*
X123204819Y-80095237D01*
X112794642Y-133854819D02*
X112461309Y-133378628D01*
X112223214Y-133854819D02*
X112223214Y-132854819D01*
X112223214Y-132854819D02*
X112604166Y-132854819D01*
X112604166Y-132854819D02*
X112699404Y-132902438D01*
X112699404Y-132902438D02*
X112747023Y-132950057D01*
X112747023Y-132950057D02*
X112794642Y-133045295D01*
X112794642Y-133045295D02*
X112794642Y-133188152D01*
X112794642Y-133188152D02*
X112747023Y-133283390D01*
X112747023Y-133283390D02*
X112699404Y-133331009D01*
X112699404Y-133331009D02*
X112604166Y-133378628D01*
X112604166Y-133378628D02*
X112223214Y-133378628D01*
X113747023Y-133854819D02*
X113175595Y-133854819D01*
X113461309Y-133854819D02*
X113461309Y-132854819D01*
X113461309Y-132854819D02*
X113366071Y-132997676D01*
X113366071Y-132997676D02*
X113270833Y-133092914D01*
X113270833Y-133092914D02*
X113175595Y-133140533D01*
X114080357Y-132854819D02*
X114699404Y-132854819D01*
X114699404Y-132854819D02*
X114366071Y-133235771D01*
X114366071Y-133235771D02*
X114508928Y-133235771D01*
X114508928Y-133235771D02*
X114604166Y-133283390D01*
X114604166Y-133283390D02*
X114651785Y-133331009D01*
X114651785Y-133331009D02*
X114699404Y-133426247D01*
X114699404Y-133426247D02*
X114699404Y-133664342D01*
X114699404Y-133664342D02*
X114651785Y-133759580D01*
X114651785Y-133759580D02*
X114604166Y-133807200D01*
X114604166Y-133807200D02*
X114508928Y-133854819D01*
X114508928Y-133854819D02*
X114223214Y-133854819D01*
X114223214Y-133854819D02*
X114127976Y-133807200D01*
X114127976Y-133807200D02*
X114080357Y-133759580D01*
X74709580Y-94391666D02*
X74757200Y-94439285D01*
X74757200Y-94439285D02*
X74804819Y-94582142D01*
X74804819Y-94582142D02*
X74804819Y-94677380D01*
X74804819Y-94677380D02*
X74757200Y-94820237D01*
X74757200Y-94820237D02*
X74661961Y-94915475D01*
X74661961Y-94915475D02*
X74566723Y-94963094D01*
X74566723Y-94963094D02*
X74376247Y-95010713D01*
X74376247Y-95010713D02*
X74233390Y-95010713D01*
X74233390Y-95010713D02*
X74042914Y-94963094D01*
X74042914Y-94963094D02*
X73947676Y-94915475D01*
X73947676Y-94915475D02*
X73852438Y-94820237D01*
X73852438Y-94820237D02*
X73804819Y-94677380D01*
X73804819Y-94677380D02*
X73804819Y-94582142D01*
X73804819Y-94582142D02*
X73852438Y-94439285D01*
X73852438Y-94439285D02*
X73900057Y-94391666D01*
X74138152Y-93534523D02*
X74804819Y-93534523D01*
X73757200Y-93772618D02*
X74471485Y-94010713D01*
X74471485Y-94010713D02*
X74471485Y-93391666D01*
X76166666Y-99349819D02*
X76166666Y-100064104D01*
X76166666Y-100064104D02*
X76119047Y-100206961D01*
X76119047Y-100206961D02*
X76023809Y-100302200D01*
X76023809Y-100302200D02*
X75880952Y-100349819D01*
X75880952Y-100349819D02*
X75785714Y-100349819D01*
X76642857Y-100349819D02*
X76642857Y-99349819D01*
X76642857Y-99349819D02*
X77023809Y-99349819D01*
X77023809Y-99349819D02*
X77119047Y-99397438D01*
X77119047Y-99397438D02*
X77166666Y-99445057D01*
X77166666Y-99445057D02*
X77214285Y-99540295D01*
X77214285Y-99540295D02*
X77214285Y-99683152D01*
X77214285Y-99683152D02*
X77166666Y-99778390D01*
X77166666Y-99778390D02*
X77119047Y-99826009D01*
X77119047Y-99826009D02*
X77023809Y-99873628D01*
X77023809Y-99873628D02*
X76642857Y-99873628D01*
X77595238Y-99445057D02*
X77642857Y-99397438D01*
X77642857Y-99397438D02*
X77738095Y-99349819D01*
X77738095Y-99349819D02*
X77976190Y-99349819D01*
X77976190Y-99349819D02*
X78071428Y-99397438D01*
X78071428Y-99397438D02*
X78119047Y-99445057D01*
X78119047Y-99445057D02*
X78166666Y-99540295D01*
X78166666Y-99540295D02*
X78166666Y-99635533D01*
X78166666Y-99635533D02*
X78119047Y-99778390D01*
X78119047Y-99778390D02*
X77547619Y-100349819D01*
X77547619Y-100349819D02*
X78166666Y-100349819D01*
X88690476Y-143454819D02*
X88690476Y-144169104D01*
X88690476Y-144169104D02*
X88642857Y-144311961D01*
X88642857Y-144311961D02*
X88547619Y-144407200D01*
X88547619Y-144407200D02*
X88404762Y-144454819D01*
X88404762Y-144454819D02*
X88309524Y-144454819D01*
X89690476Y-144454819D02*
X89119048Y-144454819D01*
X89404762Y-144454819D02*
X89404762Y-143454819D01*
X89404762Y-143454819D02*
X89309524Y-143597676D01*
X89309524Y-143597676D02*
X89214286Y-143692914D01*
X89214286Y-143692914D02*
X89119048Y-143740533D01*
X90071429Y-143550057D02*
X90119048Y-143502438D01*
X90119048Y-143502438D02*
X90214286Y-143454819D01*
X90214286Y-143454819D02*
X90452381Y-143454819D01*
X90452381Y-143454819D02*
X90547619Y-143502438D01*
X90547619Y-143502438D02*
X90595238Y-143550057D01*
X90595238Y-143550057D02*
X90642857Y-143645295D01*
X90642857Y-143645295D02*
X90642857Y-143740533D01*
X90642857Y-143740533D02*
X90595238Y-143883390D01*
X90595238Y-143883390D02*
X90023810Y-144454819D01*
X90023810Y-144454819D02*
X90642857Y-144454819D01*
X126204819Y-121666666D02*
X126204819Y-122142856D01*
X126204819Y-122142856D02*
X125204819Y-122142856D01*
X125300057Y-121380951D02*
X125252438Y-121333332D01*
X125252438Y-121333332D02*
X125204819Y-121238094D01*
X125204819Y-121238094D02*
X125204819Y-120999999D01*
X125204819Y-120999999D02*
X125252438Y-120904761D01*
X125252438Y-120904761D02*
X125300057Y-120857142D01*
X125300057Y-120857142D02*
X125395295Y-120809523D01*
X125395295Y-120809523D02*
X125490533Y-120809523D01*
X125490533Y-120809523D02*
X125633390Y-120857142D01*
X125633390Y-120857142D02*
X126204819Y-121428570D01*
X126204819Y-121428570D02*
X126204819Y-120809523D01*
X87166666Y-99349819D02*
X87166666Y-100064104D01*
X87166666Y-100064104D02*
X87119047Y-100206961D01*
X87119047Y-100206961D02*
X87023809Y-100302200D01*
X87023809Y-100302200D02*
X86880952Y-100349819D01*
X86880952Y-100349819D02*
X86785714Y-100349819D01*
X87642857Y-100349819D02*
X87642857Y-99349819D01*
X87642857Y-99349819D02*
X88023809Y-99349819D01*
X88023809Y-99349819D02*
X88119047Y-99397438D01*
X88119047Y-99397438D02*
X88166666Y-99445057D01*
X88166666Y-99445057D02*
X88214285Y-99540295D01*
X88214285Y-99540295D02*
X88214285Y-99683152D01*
X88214285Y-99683152D02*
X88166666Y-99778390D01*
X88166666Y-99778390D02*
X88119047Y-99826009D01*
X88119047Y-99826009D02*
X88023809Y-99873628D01*
X88023809Y-99873628D02*
X87642857Y-99873628D01*
X89071428Y-99683152D02*
X89071428Y-100349819D01*
X88833333Y-99302200D02*
X88595238Y-100016485D01*
X88595238Y-100016485D02*
X89214285Y-100016485D01*
X99238095Y-71954819D02*
X99238095Y-70954819D01*
X99238095Y-71431009D02*
X99809523Y-71431009D01*
X99809523Y-71954819D02*
X99809523Y-70954819D01*
X100238095Y-71050057D02*
X100285714Y-71002438D01*
X100285714Y-71002438D02*
X100380952Y-70954819D01*
X100380952Y-70954819D02*
X100619047Y-70954819D01*
X100619047Y-70954819D02*
X100714285Y-71002438D01*
X100714285Y-71002438D02*
X100761904Y-71050057D01*
X100761904Y-71050057D02*
X100809523Y-71145295D01*
X100809523Y-71145295D02*
X100809523Y-71240533D01*
X100809523Y-71240533D02*
X100761904Y-71383390D01*
X100761904Y-71383390D02*
X100190476Y-71954819D01*
X100190476Y-71954819D02*
X100809523Y-71954819D01*
X130666666Y-63454819D02*
X130666666Y-64169104D01*
X130666666Y-64169104D02*
X130619047Y-64311961D01*
X130619047Y-64311961D02*
X130523809Y-64407200D01*
X130523809Y-64407200D02*
X130380952Y-64454819D01*
X130380952Y-64454819D02*
X130285714Y-64454819D01*
X131666666Y-64454819D02*
X131095238Y-64454819D01*
X131380952Y-64454819D02*
X131380952Y-63454819D01*
X131380952Y-63454819D02*
X131285714Y-63597676D01*
X131285714Y-63597676D02*
X131190476Y-63692914D01*
X131190476Y-63692914D02*
X131095238Y-63740533D01*
X88354819Y-84916666D02*
X87878628Y-85249999D01*
X88354819Y-85488094D02*
X87354819Y-85488094D01*
X87354819Y-85488094D02*
X87354819Y-85107142D01*
X87354819Y-85107142D02*
X87402438Y-85011904D01*
X87402438Y-85011904D02*
X87450057Y-84964285D01*
X87450057Y-84964285D02*
X87545295Y-84916666D01*
X87545295Y-84916666D02*
X87688152Y-84916666D01*
X87688152Y-84916666D02*
X87783390Y-84964285D01*
X87783390Y-84964285D02*
X87831009Y-85011904D01*
X87831009Y-85011904D02*
X87878628Y-85107142D01*
X87878628Y-85107142D02*
X87878628Y-85488094D01*
X87354819Y-84059523D02*
X87354819Y-84249999D01*
X87354819Y-84249999D02*
X87402438Y-84345237D01*
X87402438Y-84345237D02*
X87450057Y-84392856D01*
X87450057Y-84392856D02*
X87592914Y-84488094D01*
X87592914Y-84488094D02*
X87783390Y-84535713D01*
X87783390Y-84535713D02*
X88164342Y-84535713D01*
X88164342Y-84535713D02*
X88259580Y-84488094D01*
X88259580Y-84488094D02*
X88307200Y-84440475D01*
X88307200Y-84440475D02*
X88354819Y-84345237D01*
X88354819Y-84345237D02*
X88354819Y-84154761D01*
X88354819Y-84154761D02*
X88307200Y-84059523D01*
X88307200Y-84059523D02*
X88259580Y-84011904D01*
X88259580Y-84011904D02*
X88164342Y-83964285D01*
X88164342Y-83964285D02*
X87926247Y-83964285D01*
X87926247Y-83964285D02*
X87831009Y-84011904D01*
X87831009Y-84011904D02*
X87783390Y-84059523D01*
X87783390Y-84059523D02*
X87735771Y-84154761D01*
X87735771Y-84154761D02*
X87735771Y-84345237D01*
X87735771Y-84345237D02*
X87783390Y-84440475D01*
X87783390Y-84440475D02*
X87831009Y-84488094D01*
X87831009Y-84488094D02*
X87926247Y-84535713D01*
X65666666Y-74454819D02*
X65666666Y-75169104D01*
X65666666Y-75169104D02*
X65619047Y-75311961D01*
X65619047Y-75311961D02*
X65523809Y-75407200D01*
X65523809Y-75407200D02*
X65380952Y-75454819D01*
X65380952Y-75454819D02*
X65285714Y-75454819D01*
X66619047Y-74454819D02*
X66142857Y-74454819D01*
X66142857Y-74454819D02*
X66095238Y-74931009D01*
X66095238Y-74931009D02*
X66142857Y-74883390D01*
X66142857Y-74883390D02*
X66238095Y-74835771D01*
X66238095Y-74835771D02*
X66476190Y-74835771D01*
X66476190Y-74835771D02*
X66571428Y-74883390D01*
X66571428Y-74883390D02*
X66619047Y-74931009D01*
X66619047Y-74931009D02*
X66666666Y-75026247D01*
X66666666Y-75026247D02*
X66666666Y-75264342D01*
X66666666Y-75264342D02*
X66619047Y-75359580D01*
X66619047Y-75359580D02*
X66571428Y-75407200D01*
X66571428Y-75407200D02*
X66476190Y-75454819D01*
X66476190Y-75454819D02*
X66238095Y-75454819D01*
X66238095Y-75454819D02*
X66142857Y-75407200D01*
X66142857Y-75407200D02*
X66095238Y-75359580D01*
X123109580Y-93892857D02*
X123157200Y-93940476D01*
X123157200Y-93940476D02*
X123204819Y-94083333D01*
X123204819Y-94083333D02*
X123204819Y-94178571D01*
X123204819Y-94178571D02*
X123157200Y-94321428D01*
X123157200Y-94321428D02*
X123061961Y-94416666D01*
X123061961Y-94416666D02*
X122966723Y-94464285D01*
X122966723Y-94464285D02*
X122776247Y-94511904D01*
X122776247Y-94511904D02*
X122633390Y-94511904D01*
X122633390Y-94511904D02*
X122442914Y-94464285D01*
X122442914Y-94464285D02*
X122347676Y-94416666D01*
X122347676Y-94416666D02*
X122252438Y-94321428D01*
X122252438Y-94321428D02*
X122204819Y-94178571D01*
X122204819Y-94178571D02*
X122204819Y-94083333D01*
X122204819Y-94083333D02*
X122252438Y-93940476D01*
X122252438Y-93940476D02*
X122300057Y-93892857D01*
X123204819Y-92940476D02*
X123204819Y-93511904D01*
X123204819Y-93226190D02*
X122204819Y-93226190D01*
X122204819Y-93226190D02*
X122347676Y-93321428D01*
X122347676Y-93321428D02*
X122442914Y-93416666D01*
X122442914Y-93416666D02*
X122490533Y-93511904D01*
X122204819Y-92321428D02*
X122204819Y-92226190D01*
X122204819Y-92226190D02*
X122252438Y-92130952D01*
X122252438Y-92130952D02*
X122300057Y-92083333D01*
X122300057Y-92083333D02*
X122395295Y-92035714D01*
X122395295Y-92035714D02*
X122585771Y-91988095D01*
X122585771Y-91988095D02*
X122823866Y-91988095D01*
X122823866Y-91988095D02*
X123014342Y-92035714D01*
X123014342Y-92035714D02*
X123109580Y-92083333D01*
X123109580Y-92083333D02*
X123157200Y-92130952D01*
X123157200Y-92130952D02*
X123204819Y-92226190D01*
X123204819Y-92226190D02*
X123204819Y-92321428D01*
X123204819Y-92321428D02*
X123157200Y-92416666D01*
X123157200Y-92416666D02*
X123109580Y-92464285D01*
X123109580Y-92464285D02*
X123014342Y-92511904D01*
X123014342Y-92511904D02*
X122823866Y-92559523D01*
X122823866Y-92559523D02*
X122585771Y-92559523D01*
X122585771Y-92559523D02*
X122395295Y-92511904D01*
X122395295Y-92511904D02*
X122300057Y-92464285D01*
X122300057Y-92464285D02*
X122252438Y-92416666D01*
X122252438Y-92416666D02*
X122204819Y-92321428D01*
X87833333Y-70954819D02*
X87500000Y-70478628D01*
X87261905Y-70954819D02*
X87261905Y-69954819D01*
X87261905Y-69954819D02*
X87642857Y-69954819D01*
X87642857Y-69954819D02*
X87738095Y-70002438D01*
X87738095Y-70002438D02*
X87785714Y-70050057D01*
X87785714Y-70050057D02*
X87833333Y-70145295D01*
X87833333Y-70145295D02*
X87833333Y-70288152D01*
X87833333Y-70288152D02*
X87785714Y-70383390D01*
X87785714Y-70383390D02*
X87738095Y-70431009D01*
X87738095Y-70431009D02*
X87642857Y-70478628D01*
X87642857Y-70478628D02*
X87261905Y-70478628D01*
X88214286Y-70050057D02*
X88261905Y-70002438D01*
X88261905Y-70002438D02*
X88357143Y-69954819D01*
X88357143Y-69954819D02*
X88595238Y-69954819D01*
X88595238Y-69954819D02*
X88690476Y-70002438D01*
X88690476Y-70002438D02*
X88738095Y-70050057D01*
X88738095Y-70050057D02*
X88785714Y-70145295D01*
X88785714Y-70145295D02*
X88785714Y-70240533D01*
X88785714Y-70240533D02*
X88738095Y-70383390D01*
X88738095Y-70383390D02*
X88166667Y-70954819D01*
X88166667Y-70954819D02*
X88785714Y-70954819D01*
X111671666Y-92084819D02*
X111671666Y-92799104D01*
X111671666Y-92799104D02*
X111624047Y-92941961D01*
X111624047Y-92941961D02*
X111528809Y-93037200D01*
X111528809Y-93037200D02*
X111385952Y-93084819D01*
X111385952Y-93084819D02*
X111290714Y-93084819D01*
X112576428Y-92418152D02*
X112576428Y-93084819D01*
X112338333Y-92037200D02*
X112100238Y-92751485D01*
X112100238Y-92751485D02*
X112719285Y-92751485D01*
X138790476Y-73254819D02*
X138790476Y-72254819D01*
X138790476Y-72254819D02*
X139123809Y-72969104D01*
X139123809Y-72969104D02*
X139457142Y-72254819D01*
X139457142Y-72254819D02*
X139457142Y-73254819D01*
X140457142Y-73254819D02*
X139885714Y-73254819D01*
X140171428Y-73254819D02*
X140171428Y-72254819D01*
X140171428Y-72254819D02*
X140076190Y-72397676D01*
X140076190Y-72397676D02*
X139980952Y-72492914D01*
X139980952Y-72492914D02*
X139885714Y-72540533D01*
X106609580Y-67392857D02*
X106657200Y-67440476D01*
X106657200Y-67440476D02*
X106704819Y-67583333D01*
X106704819Y-67583333D02*
X106704819Y-67678571D01*
X106704819Y-67678571D02*
X106657200Y-67821428D01*
X106657200Y-67821428D02*
X106561961Y-67916666D01*
X106561961Y-67916666D02*
X106466723Y-67964285D01*
X106466723Y-67964285D02*
X106276247Y-68011904D01*
X106276247Y-68011904D02*
X106133390Y-68011904D01*
X106133390Y-68011904D02*
X105942914Y-67964285D01*
X105942914Y-67964285D02*
X105847676Y-67916666D01*
X105847676Y-67916666D02*
X105752438Y-67821428D01*
X105752438Y-67821428D02*
X105704819Y-67678571D01*
X105704819Y-67678571D02*
X105704819Y-67583333D01*
X105704819Y-67583333D02*
X105752438Y-67440476D01*
X105752438Y-67440476D02*
X105800057Y-67392857D01*
X106704819Y-66440476D02*
X106704819Y-67011904D01*
X106704819Y-66726190D02*
X105704819Y-66726190D01*
X105704819Y-66726190D02*
X105847676Y-66821428D01*
X105847676Y-66821428D02*
X105942914Y-66916666D01*
X105942914Y-66916666D02*
X105990533Y-67011904D01*
X106704819Y-65488095D02*
X106704819Y-66059523D01*
X106704819Y-65773809D02*
X105704819Y-65773809D01*
X105704819Y-65773809D02*
X105847676Y-65869047D01*
X105847676Y-65869047D02*
X105942914Y-65964285D01*
X105942914Y-65964285D02*
X105990533Y-66059523D01*
X69209580Y-94391666D02*
X69257200Y-94439285D01*
X69257200Y-94439285D02*
X69304819Y-94582142D01*
X69304819Y-94582142D02*
X69304819Y-94677380D01*
X69304819Y-94677380D02*
X69257200Y-94820237D01*
X69257200Y-94820237D02*
X69161961Y-94915475D01*
X69161961Y-94915475D02*
X69066723Y-94963094D01*
X69066723Y-94963094D02*
X68876247Y-95010713D01*
X68876247Y-95010713D02*
X68733390Y-95010713D01*
X68733390Y-95010713D02*
X68542914Y-94963094D01*
X68542914Y-94963094D02*
X68447676Y-94915475D01*
X68447676Y-94915475D02*
X68352438Y-94820237D01*
X68352438Y-94820237D02*
X68304819Y-94677380D01*
X68304819Y-94677380D02*
X68304819Y-94582142D01*
X68304819Y-94582142D02*
X68352438Y-94439285D01*
X68352438Y-94439285D02*
X68400057Y-94391666D01*
X68304819Y-94058332D02*
X68304819Y-93439285D01*
X68304819Y-93439285D02*
X68685771Y-93772618D01*
X68685771Y-93772618D02*
X68685771Y-93629761D01*
X68685771Y-93629761D02*
X68733390Y-93534523D01*
X68733390Y-93534523D02*
X68781009Y-93486904D01*
X68781009Y-93486904D02*
X68876247Y-93439285D01*
X68876247Y-93439285D02*
X69114342Y-93439285D01*
X69114342Y-93439285D02*
X69209580Y-93486904D01*
X69209580Y-93486904D02*
X69257200Y-93534523D01*
X69257200Y-93534523D02*
X69304819Y-93629761D01*
X69304819Y-93629761D02*
X69304819Y-93915475D01*
X69304819Y-93915475D02*
X69257200Y-94010713D01*
X69257200Y-94010713D02*
X69209580Y-94058332D01*
X131833333Y-71859580D02*
X131785714Y-71907200D01*
X131785714Y-71907200D02*
X131642857Y-71954819D01*
X131642857Y-71954819D02*
X131547619Y-71954819D01*
X131547619Y-71954819D02*
X131404762Y-71907200D01*
X131404762Y-71907200D02*
X131309524Y-71811961D01*
X131309524Y-71811961D02*
X131261905Y-71716723D01*
X131261905Y-71716723D02*
X131214286Y-71526247D01*
X131214286Y-71526247D02*
X131214286Y-71383390D01*
X131214286Y-71383390D02*
X131261905Y-71192914D01*
X131261905Y-71192914D02*
X131309524Y-71097676D01*
X131309524Y-71097676D02*
X131404762Y-71002438D01*
X131404762Y-71002438D02*
X131547619Y-70954819D01*
X131547619Y-70954819D02*
X131642857Y-70954819D01*
X131642857Y-70954819D02*
X131785714Y-71002438D01*
X131785714Y-71002438D02*
X131833333Y-71050057D01*
X132214286Y-71050057D02*
X132261905Y-71002438D01*
X132261905Y-71002438D02*
X132357143Y-70954819D01*
X132357143Y-70954819D02*
X132595238Y-70954819D01*
X132595238Y-70954819D02*
X132690476Y-71002438D01*
X132690476Y-71002438D02*
X132738095Y-71050057D01*
X132738095Y-71050057D02*
X132785714Y-71145295D01*
X132785714Y-71145295D02*
X132785714Y-71240533D01*
X132785714Y-71240533D02*
X132738095Y-71383390D01*
X132738095Y-71383390D02*
X132166667Y-71954819D01*
X132166667Y-71954819D02*
X132785714Y-71954819D01*
X101104819Y-66166666D02*
X100628628Y-66499999D01*
X101104819Y-66738094D02*
X100104819Y-66738094D01*
X100104819Y-66738094D02*
X100104819Y-66357142D01*
X100104819Y-66357142D02*
X100152438Y-66261904D01*
X100152438Y-66261904D02*
X100200057Y-66214285D01*
X100200057Y-66214285D02*
X100295295Y-66166666D01*
X100295295Y-66166666D02*
X100438152Y-66166666D01*
X100438152Y-66166666D02*
X100533390Y-66214285D01*
X100533390Y-66214285D02*
X100581009Y-66261904D01*
X100581009Y-66261904D02*
X100628628Y-66357142D01*
X100628628Y-66357142D02*
X100628628Y-66738094D01*
X100438152Y-65309523D02*
X101104819Y-65309523D01*
X100057200Y-65547618D02*
X100771485Y-65785713D01*
X100771485Y-65785713D02*
X100771485Y-65166666D01*
X108440476Y-143454819D02*
X108440476Y-144169104D01*
X108440476Y-144169104D02*
X108392857Y-144311961D01*
X108392857Y-144311961D02*
X108297619Y-144407200D01*
X108297619Y-144407200D02*
X108154762Y-144454819D01*
X108154762Y-144454819D02*
X108059524Y-144454819D01*
X109440476Y-144454819D02*
X108869048Y-144454819D01*
X109154762Y-144454819D02*
X109154762Y-143454819D01*
X109154762Y-143454819D02*
X109059524Y-143597676D01*
X109059524Y-143597676D02*
X108964286Y-143692914D01*
X108964286Y-143692914D02*
X108869048Y-143740533D01*
X110392857Y-144454819D02*
X109821429Y-144454819D01*
X110107143Y-144454819D02*
X110107143Y-143454819D01*
X110107143Y-143454819D02*
X110011905Y-143597676D01*
X110011905Y-143597676D02*
X109916667Y-143692914D01*
X109916667Y-143692914D02*
X109821429Y-143740533D01*
X85709580Y-94391666D02*
X85757200Y-94439285D01*
X85757200Y-94439285D02*
X85804819Y-94582142D01*
X85804819Y-94582142D02*
X85804819Y-94677380D01*
X85804819Y-94677380D02*
X85757200Y-94820237D01*
X85757200Y-94820237D02*
X85661961Y-94915475D01*
X85661961Y-94915475D02*
X85566723Y-94963094D01*
X85566723Y-94963094D02*
X85376247Y-95010713D01*
X85376247Y-95010713D02*
X85233390Y-95010713D01*
X85233390Y-95010713D02*
X85042914Y-94963094D01*
X85042914Y-94963094D02*
X84947676Y-94915475D01*
X84947676Y-94915475D02*
X84852438Y-94820237D01*
X84852438Y-94820237D02*
X84804819Y-94677380D01*
X84804819Y-94677380D02*
X84804819Y-94582142D01*
X84804819Y-94582142D02*
X84852438Y-94439285D01*
X84852438Y-94439285D02*
X84900057Y-94391666D01*
X84804819Y-93534523D02*
X84804819Y-93724999D01*
X84804819Y-93724999D02*
X84852438Y-93820237D01*
X84852438Y-93820237D02*
X84900057Y-93867856D01*
X84900057Y-93867856D02*
X85042914Y-93963094D01*
X85042914Y-93963094D02*
X85233390Y-94010713D01*
X85233390Y-94010713D02*
X85614342Y-94010713D01*
X85614342Y-94010713D02*
X85709580Y-93963094D01*
X85709580Y-93963094D02*
X85757200Y-93915475D01*
X85757200Y-93915475D02*
X85804819Y-93820237D01*
X85804819Y-93820237D02*
X85804819Y-93629761D01*
X85804819Y-93629761D02*
X85757200Y-93534523D01*
X85757200Y-93534523D02*
X85709580Y-93486904D01*
X85709580Y-93486904D02*
X85614342Y-93439285D01*
X85614342Y-93439285D02*
X85376247Y-93439285D01*
X85376247Y-93439285D02*
X85281009Y-93486904D01*
X85281009Y-93486904D02*
X85233390Y-93534523D01*
X85233390Y-93534523D02*
X85185771Y-93629761D01*
X85185771Y-93629761D02*
X85185771Y-93820237D01*
X85185771Y-93820237D02*
X85233390Y-93915475D01*
X85233390Y-93915475D02*
X85281009Y-93963094D01*
X85281009Y-93963094D02*
X85376247Y-94010713D01*
X82166666Y-55454819D02*
X82166666Y-56169104D01*
X82166666Y-56169104D02*
X82119047Y-56311961D01*
X82119047Y-56311961D02*
X82023809Y-56407200D01*
X82023809Y-56407200D02*
X81880952Y-56454819D01*
X81880952Y-56454819D02*
X81785714Y-56454819D01*
X82785714Y-55883390D02*
X82690476Y-55835771D01*
X82690476Y-55835771D02*
X82642857Y-55788152D01*
X82642857Y-55788152D02*
X82595238Y-55692914D01*
X82595238Y-55692914D02*
X82595238Y-55645295D01*
X82595238Y-55645295D02*
X82642857Y-55550057D01*
X82642857Y-55550057D02*
X82690476Y-55502438D01*
X82690476Y-55502438D02*
X82785714Y-55454819D01*
X82785714Y-55454819D02*
X82976190Y-55454819D01*
X82976190Y-55454819D02*
X83071428Y-55502438D01*
X83071428Y-55502438D02*
X83119047Y-55550057D01*
X83119047Y-55550057D02*
X83166666Y-55645295D01*
X83166666Y-55645295D02*
X83166666Y-55692914D01*
X83166666Y-55692914D02*
X83119047Y-55788152D01*
X83119047Y-55788152D02*
X83071428Y-55835771D01*
X83071428Y-55835771D02*
X82976190Y-55883390D01*
X82976190Y-55883390D02*
X82785714Y-55883390D01*
X82785714Y-55883390D02*
X82690476Y-55931009D01*
X82690476Y-55931009D02*
X82642857Y-55978628D01*
X82642857Y-55978628D02*
X82595238Y-56073866D01*
X82595238Y-56073866D02*
X82595238Y-56264342D01*
X82595238Y-56264342D02*
X82642857Y-56359580D01*
X82642857Y-56359580D02*
X82690476Y-56407200D01*
X82690476Y-56407200D02*
X82785714Y-56454819D01*
X82785714Y-56454819D02*
X82976190Y-56454819D01*
X82976190Y-56454819D02*
X83071428Y-56407200D01*
X83071428Y-56407200D02*
X83119047Y-56359580D01*
X83119047Y-56359580D02*
X83166666Y-56264342D01*
X83166666Y-56264342D02*
X83166666Y-56073866D01*
X83166666Y-56073866D02*
X83119047Y-55978628D01*
X83119047Y-55978628D02*
X83071428Y-55931009D01*
X83071428Y-55931009D02*
X82976190Y-55883390D01*
X94261905Y-71204819D02*
X94261905Y-70204819D01*
X94261905Y-70204819D02*
X94500000Y-70204819D01*
X94500000Y-70204819D02*
X94642857Y-70252438D01*
X94642857Y-70252438D02*
X94738095Y-70347676D01*
X94738095Y-70347676D02*
X94785714Y-70442914D01*
X94785714Y-70442914D02*
X94833333Y-70633390D01*
X94833333Y-70633390D02*
X94833333Y-70776247D01*
X94833333Y-70776247D02*
X94785714Y-70966723D01*
X94785714Y-70966723D02*
X94738095Y-71061961D01*
X94738095Y-71061961D02*
X94642857Y-71157200D01*
X94642857Y-71157200D02*
X94500000Y-71204819D01*
X94500000Y-71204819D02*
X94261905Y-71204819D01*
X95785714Y-71204819D02*
X95214286Y-71204819D01*
X95500000Y-71204819D02*
X95500000Y-70204819D01*
X95500000Y-70204819D02*
X95404762Y-70347676D01*
X95404762Y-70347676D02*
X95309524Y-70442914D01*
X95309524Y-70442914D02*
X95214286Y-70490533D01*
X89554819Y-66166666D02*
X89078628Y-66499999D01*
X89554819Y-66738094D02*
X88554819Y-66738094D01*
X88554819Y-66738094D02*
X88554819Y-66357142D01*
X88554819Y-66357142D02*
X88602438Y-66261904D01*
X88602438Y-66261904D02*
X88650057Y-66214285D01*
X88650057Y-66214285D02*
X88745295Y-66166666D01*
X88745295Y-66166666D02*
X88888152Y-66166666D01*
X88888152Y-66166666D02*
X88983390Y-66214285D01*
X88983390Y-66214285D02*
X89031009Y-66261904D01*
X89031009Y-66261904D02*
X89078628Y-66357142D01*
X89078628Y-66357142D02*
X89078628Y-66738094D01*
X88554819Y-65833332D02*
X88554819Y-65214285D01*
X88554819Y-65214285D02*
X88935771Y-65547618D01*
X88935771Y-65547618D02*
X88935771Y-65404761D01*
X88935771Y-65404761D02*
X88983390Y-65309523D01*
X88983390Y-65309523D02*
X89031009Y-65261904D01*
X89031009Y-65261904D02*
X89126247Y-65214285D01*
X89126247Y-65214285D02*
X89364342Y-65214285D01*
X89364342Y-65214285D02*
X89459580Y-65261904D01*
X89459580Y-65261904D02*
X89507200Y-65309523D01*
X89507200Y-65309523D02*
X89554819Y-65404761D01*
X89554819Y-65404761D02*
X89554819Y-65690475D01*
X89554819Y-65690475D02*
X89507200Y-65785713D01*
X89507200Y-65785713D02*
X89459580Y-65833332D01*
X113270833Y-138354819D02*
X112794643Y-138354819D01*
X112794643Y-138354819D02*
X112794643Y-137354819D01*
X114127976Y-138354819D02*
X113556548Y-138354819D01*
X113842262Y-138354819D02*
X113842262Y-137354819D01*
X113842262Y-137354819D02*
X113747024Y-137497676D01*
X113747024Y-137497676D02*
X113651786Y-137592914D01*
X113651786Y-137592914D02*
X113556548Y-137640533D01*
X70666666Y-99349819D02*
X70666666Y-100064104D01*
X70666666Y-100064104D02*
X70619047Y-100206961D01*
X70619047Y-100206961D02*
X70523809Y-100302200D01*
X70523809Y-100302200D02*
X70380952Y-100349819D01*
X70380952Y-100349819D02*
X70285714Y-100349819D01*
X71142857Y-100349819D02*
X71142857Y-99349819D01*
X71142857Y-99349819D02*
X71523809Y-99349819D01*
X71523809Y-99349819D02*
X71619047Y-99397438D01*
X71619047Y-99397438D02*
X71666666Y-99445057D01*
X71666666Y-99445057D02*
X71714285Y-99540295D01*
X71714285Y-99540295D02*
X71714285Y-99683152D01*
X71714285Y-99683152D02*
X71666666Y-99778390D01*
X71666666Y-99778390D02*
X71619047Y-99826009D01*
X71619047Y-99826009D02*
X71523809Y-99873628D01*
X71523809Y-99873628D02*
X71142857Y-99873628D01*
X72666666Y-100349819D02*
X72095238Y-100349819D01*
X72380952Y-100349819D02*
X72380952Y-99349819D01*
X72380952Y-99349819D02*
X72285714Y-99492676D01*
X72285714Y-99492676D02*
X72190476Y-99587914D01*
X72190476Y-99587914D02*
X72095238Y-99635533D01*
X123109580Y-88666666D02*
X123157200Y-88714285D01*
X123157200Y-88714285D02*
X123204819Y-88857142D01*
X123204819Y-88857142D02*
X123204819Y-88952380D01*
X123204819Y-88952380D02*
X123157200Y-89095237D01*
X123157200Y-89095237D02*
X123061961Y-89190475D01*
X123061961Y-89190475D02*
X122966723Y-89238094D01*
X122966723Y-89238094D02*
X122776247Y-89285713D01*
X122776247Y-89285713D02*
X122633390Y-89285713D01*
X122633390Y-89285713D02*
X122442914Y-89238094D01*
X122442914Y-89238094D02*
X122347676Y-89190475D01*
X122347676Y-89190475D02*
X122252438Y-89095237D01*
X122252438Y-89095237D02*
X122204819Y-88952380D01*
X122204819Y-88952380D02*
X122204819Y-88857142D01*
X122204819Y-88857142D02*
X122252438Y-88714285D01*
X122252438Y-88714285D02*
X122300057Y-88666666D01*
X123204819Y-88190475D02*
X123204819Y-87999999D01*
X123204819Y-87999999D02*
X123157200Y-87904761D01*
X123157200Y-87904761D02*
X123109580Y-87857142D01*
X123109580Y-87857142D02*
X122966723Y-87761904D01*
X122966723Y-87761904D02*
X122776247Y-87714285D01*
X122776247Y-87714285D02*
X122395295Y-87714285D01*
X122395295Y-87714285D02*
X122300057Y-87761904D01*
X122300057Y-87761904D02*
X122252438Y-87809523D01*
X122252438Y-87809523D02*
X122204819Y-87904761D01*
X122204819Y-87904761D02*
X122204819Y-88095237D01*
X122204819Y-88095237D02*
X122252438Y-88190475D01*
X122252438Y-88190475D02*
X122300057Y-88238094D01*
X122300057Y-88238094D02*
X122395295Y-88285713D01*
X122395295Y-88285713D02*
X122633390Y-88285713D01*
X122633390Y-88285713D02*
X122728628Y-88238094D01*
X122728628Y-88238094D02*
X122776247Y-88190475D01*
X122776247Y-88190475D02*
X122823866Y-88095237D01*
X122823866Y-88095237D02*
X122823866Y-87904761D01*
X122823866Y-87904761D02*
X122776247Y-87809523D01*
X122776247Y-87809523D02*
X122728628Y-87761904D01*
X122728628Y-87761904D02*
X122633390Y-87714285D01*
X60238095Y-108654819D02*
X60238095Y-107654819D01*
X60238095Y-108131009D02*
X60809523Y-108131009D01*
X60809523Y-108654819D02*
X60809523Y-107654819D01*
X61809523Y-108654819D02*
X61238095Y-108654819D01*
X61523809Y-108654819D02*
X61523809Y-107654819D01*
X61523809Y-107654819D02*
X61428571Y-107797676D01*
X61428571Y-107797676D02*
X61333333Y-107892914D01*
X61333333Y-107892914D02*
X61238095Y-107940533D01*
D14*
X101404761Y-56707419D02*
X101071428Y-56231228D01*
X100833333Y-56707419D02*
X100833333Y-55707419D01*
X100833333Y-55707419D02*
X101214285Y-55707419D01*
X101214285Y-55707419D02*
X101309523Y-55755038D01*
X101309523Y-55755038D02*
X101357142Y-55802657D01*
X101357142Y-55802657D02*
X101404761Y-55897895D01*
X101404761Y-55897895D02*
X101404761Y-56040752D01*
X101404761Y-56040752D02*
X101357142Y-56135990D01*
X101357142Y-56135990D02*
X101309523Y-56183609D01*
X101309523Y-56183609D02*
X101214285Y-56231228D01*
X101214285Y-56231228D02*
X100833333Y-56231228D01*
X101690476Y-55707419D02*
X102023809Y-56707419D01*
X102023809Y-56707419D02*
X102357142Y-55707419D01*
X103214285Y-56707419D02*
X102642857Y-56707419D01*
X102928571Y-56707419D02*
X102928571Y-55707419D01*
X102928571Y-55707419D02*
X102833333Y-55850276D01*
X102833333Y-55850276D02*
X102738095Y-55945514D01*
X102738095Y-55945514D02*
X102642857Y-55993133D01*
D13*
X62261905Y-105454819D02*
X62261905Y-104454819D01*
X62261905Y-104931009D02*
X62833333Y-104931009D01*
X62833333Y-105454819D02*
X62833333Y-104454819D01*
X63261905Y-105407200D02*
X63404762Y-105454819D01*
X63404762Y-105454819D02*
X63642857Y-105454819D01*
X63642857Y-105454819D02*
X63738095Y-105407200D01*
X63738095Y-105407200D02*
X63785714Y-105359580D01*
X63785714Y-105359580D02*
X63833333Y-105264342D01*
X63833333Y-105264342D02*
X63833333Y-105169104D01*
X63833333Y-105169104D02*
X63785714Y-105073866D01*
X63785714Y-105073866D02*
X63738095Y-105026247D01*
X63738095Y-105026247D02*
X63642857Y-104978628D01*
X63642857Y-104978628D02*
X63452381Y-104931009D01*
X63452381Y-104931009D02*
X63357143Y-104883390D01*
X63357143Y-104883390D02*
X63309524Y-104835771D01*
X63309524Y-104835771D02*
X63261905Y-104740533D01*
X63261905Y-104740533D02*
X63261905Y-104645295D01*
X63261905Y-104645295D02*
X63309524Y-104550057D01*
X63309524Y-104550057D02*
X63357143Y-104502438D01*
X63357143Y-104502438D02*
X63452381Y-104454819D01*
X63452381Y-104454819D02*
X63690476Y-104454819D01*
X63690476Y-104454819D02*
X63833333Y-104502438D01*
X64785714Y-105454819D02*
X64214286Y-105454819D01*
X64500000Y-105454819D02*
X64500000Y-104454819D01*
X64500000Y-104454819D02*
X64404762Y-104597676D01*
X64404762Y-104597676D02*
X64309524Y-104692914D01*
X64309524Y-104692914D02*
X64214286Y-104740533D01*
X123109580Y-84666666D02*
X123157200Y-84714285D01*
X123157200Y-84714285D02*
X123204819Y-84857142D01*
X123204819Y-84857142D02*
X123204819Y-84952380D01*
X123204819Y-84952380D02*
X123157200Y-85095237D01*
X123157200Y-85095237D02*
X123061961Y-85190475D01*
X123061961Y-85190475D02*
X122966723Y-85238094D01*
X122966723Y-85238094D02*
X122776247Y-85285713D01*
X122776247Y-85285713D02*
X122633390Y-85285713D01*
X122633390Y-85285713D02*
X122442914Y-85238094D01*
X122442914Y-85238094D02*
X122347676Y-85190475D01*
X122347676Y-85190475D02*
X122252438Y-85095237D01*
X122252438Y-85095237D02*
X122204819Y-84952380D01*
X122204819Y-84952380D02*
X122204819Y-84857142D01*
X122204819Y-84857142D02*
X122252438Y-84714285D01*
X122252438Y-84714285D02*
X122300057Y-84666666D01*
X122633390Y-84095237D02*
X122585771Y-84190475D01*
X122585771Y-84190475D02*
X122538152Y-84238094D01*
X122538152Y-84238094D02*
X122442914Y-84285713D01*
X122442914Y-84285713D02*
X122395295Y-84285713D01*
X122395295Y-84285713D02*
X122300057Y-84238094D01*
X122300057Y-84238094D02*
X122252438Y-84190475D01*
X122252438Y-84190475D02*
X122204819Y-84095237D01*
X122204819Y-84095237D02*
X122204819Y-83904761D01*
X122204819Y-83904761D02*
X122252438Y-83809523D01*
X122252438Y-83809523D02*
X122300057Y-83761904D01*
X122300057Y-83761904D02*
X122395295Y-83714285D01*
X122395295Y-83714285D02*
X122442914Y-83714285D01*
X122442914Y-83714285D02*
X122538152Y-83761904D01*
X122538152Y-83761904D02*
X122585771Y-83809523D01*
X122585771Y-83809523D02*
X122633390Y-83904761D01*
X122633390Y-83904761D02*
X122633390Y-84095237D01*
X122633390Y-84095237D02*
X122681009Y-84190475D01*
X122681009Y-84190475D02*
X122728628Y-84238094D01*
X122728628Y-84238094D02*
X122823866Y-84285713D01*
X122823866Y-84285713D02*
X123014342Y-84285713D01*
X123014342Y-84285713D02*
X123109580Y-84238094D01*
X123109580Y-84238094D02*
X123157200Y-84190475D01*
X123157200Y-84190475D02*
X123204819Y-84095237D01*
X123204819Y-84095237D02*
X123204819Y-83904761D01*
X123204819Y-83904761D02*
X123157200Y-83809523D01*
X123157200Y-83809523D02*
X123109580Y-83761904D01*
X123109580Y-83761904D02*
X123014342Y-83714285D01*
X123014342Y-83714285D02*
X122823866Y-83714285D01*
X122823866Y-83714285D02*
X122728628Y-83761904D01*
X122728628Y-83761904D02*
X122681009Y-83809523D01*
X122681009Y-83809523D02*
X122633390Y-83904761D01*
X81666666Y-99349819D02*
X81666666Y-100064104D01*
X81666666Y-100064104D02*
X81619047Y-100206961D01*
X81619047Y-100206961D02*
X81523809Y-100302200D01*
X81523809Y-100302200D02*
X81380952Y-100349819D01*
X81380952Y-100349819D02*
X81285714Y-100349819D01*
X82142857Y-100349819D02*
X82142857Y-99349819D01*
X82142857Y-99349819D02*
X82523809Y-99349819D01*
X82523809Y-99349819D02*
X82619047Y-99397438D01*
X82619047Y-99397438D02*
X82666666Y-99445057D01*
X82666666Y-99445057D02*
X82714285Y-99540295D01*
X82714285Y-99540295D02*
X82714285Y-99683152D01*
X82714285Y-99683152D02*
X82666666Y-99778390D01*
X82666666Y-99778390D02*
X82619047Y-99826009D01*
X82619047Y-99826009D02*
X82523809Y-99873628D01*
X82523809Y-99873628D02*
X82142857Y-99873628D01*
X83047619Y-99349819D02*
X83666666Y-99349819D01*
X83666666Y-99349819D02*
X83333333Y-99730771D01*
X83333333Y-99730771D02*
X83476190Y-99730771D01*
X83476190Y-99730771D02*
X83571428Y-99778390D01*
X83571428Y-99778390D02*
X83619047Y-99826009D01*
X83619047Y-99826009D02*
X83666666Y-99921247D01*
X83666666Y-99921247D02*
X83666666Y-100159342D01*
X83666666Y-100159342D02*
X83619047Y-100254580D01*
X83619047Y-100254580D02*
X83571428Y-100302200D01*
X83571428Y-100302200D02*
X83476190Y-100349819D01*
X83476190Y-100349819D02*
X83190476Y-100349819D01*
X83190476Y-100349819D02*
X83095238Y-100302200D01*
X83095238Y-100302200D02*
X83047619Y-100254580D01*
X87754819Y-78916666D02*
X87278628Y-79249999D01*
X87754819Y-79488094D02*
X86754819Y-79488094D01*
X86754819Y-79488094D02*
X86754819Y-79107142D01*
X86754819Y-79107142D02*
X86802438Y-79011904D01*
X86802438Y-79011904D02*
X86850057Y-78964285D01*
X86850057Y-78964285D02*
X86945295Y-78916666D01*
X86945295Y-78916666D02*
X87088152Y-78916666D01*
X87088152Y-78916666D02*
X87183390Y-78964285D01*
X87183390Y-78964285D02*
X87231009Y-79011904D01*
X87231009Y-79011904D02*
X87278628Y-79107142D01*
X87278628Y-79107142D02*
X87278628Y-79488094D01*
X86754819Y-78011904D02*
X86754819Y-78488094D01*
X86754819Y-78488094D02*
X87231009Y-78535713D01*
X87231009Y-78535713D02*
X87183390Y-78488094D01*
X87183390Y-78488094D02*
X87135771Y-78392856D01*
X87135771Y-78392856D02*
X87135771Y-78154761D01*
X87135771Y-78154761D02*
X87183390Y-78059523D01*
X87183390Y-78059523D02*
X87231009Y-78011904D01*
X87231009Y-78011904D02*
X87326247Y-77964285D01*
X87326247Y-77964285D02*
X87564342Y-77964285D01*
X87564342Y-77964285D02*
X87659580Y-78011904D01*
X87659580Y-78011904D02*
X87707200Y-78059523D01*
X87707200Y-78059523D02*
X87754819Y-78154761D01*
X87754819Y-78154761D02*
X87754819Y-78392856D01*
X87754819Y-78392856D02*
X87707200Y-78488094D01*
X87707200Y-78488094D02*
X87659580Y-78535713D01*
X80209580Y-94391666D02*
X80257200Y-94439285D01*
X80257200Y-94439285D02*
X80304819Y-94582142D01*
X80304819Y-94582142D02*
X80304819Y-94677380D01*
X80304819Y-94677380D02*
X80257200Y-94820237D01*
X80257200Y-94820237D02*
X80161961Y-94915475D01*
X80161961Y-94915475D02*
X80066723Y-94963094D01*
X80066723Y-94963094D02*
X79876247Y-95010713D01*
X79876247Y-95010713D02*
X79733390Y-95010713D01*
X79733390Y-95010713D02*
X79542914Y-94963094D01*
X79542914Y-94963094D02*
X79447676Y-94915475D01*
X79447676Y-94915475D02*
X79352438Y-94820237D01*
X79352438Y-94820237D02*
X79304819Y-94677380D01*
X79304819Y-94677380D02*
X79304819Y-94582142D01*
X79304819Y-94582142D02*
X79352438Y-94439285D01*
X79352438Y-94439285D02*
X79400057Y-94391666D01*
X79304819Y-93486904D02*
X79304819Y-93963094D01*
X79304819Y-93963094D02*
X79781009Y-94010713D01*
X79781009Y-94010713D02*
X79733390Y-93963094D01*
X79733390Y-93963094D02*
X79685771Y-93867856D01*
X79685771Y-93867856D02*
X79685771Y-93629761D01*
X79685771Y-93629761D02*
X79733390Y-93534523D01*
X79733390Y-93534523D02*
X79781009Y-93486904D01*
X79781009Y-93486904D02*
X79876247Y-93439285D01*
X79876247Y-93439285D02*
X80114342Y-93439285D01*
X80114342Y-93439285D02*
X80209580Y-93486904D01*
X80209580Y-93486904D02*
X80257200Y-93534523D01*
X80257200Y-93534523D02*
X80304819Y-93629761D01*
X80304819Y-93629761D02*
X80304819Y-93867856D01*
X80304819Y-93867856D02*
X80257200Y-93963094D01*
X80257200Y-93963094D02*
X80209580Y-94010713D01*
X99904761Y-73690057D02*
X99809523Y-73642438D01*
X99809523Y-73642438D02*
X99714285Y-73547200D01*
X99714285Y-73547200D02*
X99571428Y-73404342D01*
X99571428Y-73404342D02*
X99476190Y-73356723D01*
X99476190Y-73356723D02*
X99380952Y-73356723D01*
X99428571Y-73594819D02*
X99333333Y-73547200D01*
X99333333Y-73547200D02*
X99238095Y-73451961D01*
X99238095Y-73451961D02*
X99190476Y-73261485D01*
X99190476Y-73261485D02*
X99190476Y-72928152D01*
X99190476Y-72928152D02*
X99238095Y-72737676D01*
X99238095Y-72737676D02*
X99333333Y-72642438D01*
X99333333Y-72642438D02*
X99428571Y-72594819D01*
X99428571Y-72594819D02*
X99619047Y-72594819D01*
X99619047Y-72594819D02*
X99714285Y-72642438D01*
X99714285Y-72642438D02*
X99809523Y-72737676D01*
X99809523Y-72737676D02*
X99857142Y-72928152D01*
X99857142Y-72928152D02*
X99857142Y-73261485D01*
X99857142Y-73261485D02*
X99809523Y-73451961D01*
X99809523Y-73451961D02*
X99714285Y-73547200D01*
X99714285Y-73547200D02*
X99619047Y-73594819D01*
X99619047Y-73594819D02*
X99428571Y-73594819D01*
X100809523Y-73594819D02*
X100238095Y-73594819D01*
X100523809Y-73594819D02*
X100523809Y-72594819D01*
X100523809Y-72594819D02*
X100428571Y-72737676D01*
X100428571Y-72737676D02*
X100333333Y-72832914D01*
X100333333Y-72832914D02*
X100238095Y-72880533D01*
X64666666Y-88454819D02*
X64666666Y-89169104D01*
X64666666Y-89169104D02*
X64619047Y-89311961D01*
X64619047Y-89311961D02*
X64523809Y-89407200D01*
X64523809Y-89407200D02*
X64380952Y-89454819D01*
X64380952Y-89454819D02*
X64285714Y-89454819D01*
X65047619Y-88454819D02*
X65666666Y-88454819D01*
X65666666Y-88454819D02*
X65333333Y-88835771D01*
X65333333Y-88835771D02*
X65476190Y-88835771D01*
X65476190Y-88835771D02*
X65571428Y-88883390D01*
X65571428Y-88883390D02*
X65619047Y-88931009D01*
X65619047Y-88931009D02*
X65666666Y-89026247D01*
X65666666Y-89026247D02*
X65666666Y-89264342D01*
X65666666Y-89264342D02*
X65619047Y-89359580D01*
X65619047Y-89359580D02*
X65571428Y-89407200D01*
X65571428Y-89407200D02*
X65476190Y-89454819D01*
X65476190Y-89454819D02*
X65190476Y-89454819D01*
X65190476Y-89454819D02*
X65095238Y-89407200D01*
X65095238Y-89407200D02*
X65047619Y-89359580D01*
D15*
%TO.C,R9*%
X82610000Y-78772936D02*
X82610000Y-81827064D01*
X79890000Y-78772936D02*
X79890000Y-81827064D01*
%TO.C,R8*%
X69527064Y-79440000D02*
X66472936Y-79440000D01*
X69527064Y-76720000D02*
X66472936Y-76720000D01*
%TO.C,R7*%
X68727064Y-87560000D02*
X65672936Y-87560000D01*
X68727064Y-84840000D02*
X65672936Y-84840000D01*
%TO.C,C21*%
X77111252Y-77110000D02*
X74788748Y-77110000D01*
X77111252Y-73690000D02*
X74788748Y-73690000D01*
%TO.C,D2*%
X95290000Y-103350000D02*
X103800000Y-103350000D01*
X95290000Y-109850000D02*
X95290000Y-103350000D01*
X95290000Y-109850000D02*
X103800000Y-109850000D01*
%TO.C,J2*%
X138225000Y-80850000D02*
X138225000Y-82100000D01*
X138225000Y-82100000D02*
X139475000Y-82100000D01*
X138515000Y-74190000D02*
X138515000Y-81810000D01*
X138515000Y-81810000D02*
X144485000Y-81810000D01*
X138525000Y-74200000D02*
X138525000Y-76000000D01*
X138525000Y-76000000D02*
X139275000Y-76000000D01*
X138525000Y-77500000D02*
X138525000Y-78500000D01*
X138525000Y-78500000D02*
X139275000Y-78500000D01*
X138525000Y-80000000D02*
X138525000Y-81800000D01*
X138525000Y-81800000D02*
X139275000Y-81800000D01*
X139275000Y-74200000D02*
X138525000Y-74200000D01*
X139275000Y-76000000D02*
X139275000Y-74200000D01*
X139275000Y-77500000D02*
X138525000Y-77500000D01*
X139275000Y-78500000D02*
X139275000Y-77500000D01*
X139275000Y-80000000D02*
X138525000Y-80000000D01*
X139275000Y-81800000D02*
X139275000Y-80000000D01*
X140775000Y-74200000D02*
X140775000Y-74950000D01*
X140775000Y-74950000D02*
X143725000Y-74950000D01*
X140775000Y-81050000D02*
X142115000Y-81050000D01*
X140775000Y-81800000D02*
X140775000Y-81050000D01*
X143725000Y-74950000D02*
X143725000Y-78000000D01*
X143725000Y-78000000D02*
X143725000Y-79990000D01*
X144485000Y-74190000D02*
X138515000Y-74190000D01*
X144485000Y-81810000D02*
X144485000Y-74190000D01*
%TO.C,R20*%
X122772936Y-97665000D02*
X123227064Y-97665000D01*
X122772936Y-99135000D02*
X123227064Y-99135000D01*
%TO.C,D7*%
X120515000Y-99665000D02*
X120515000Y-101935000D01*
X120515000Y-101935000D02*
X124400000Y-101935000D01*
X124400000Y-99665000D02*
X120515000Y-99665000D01*
%TO.C,RV2*%
X114380000Y-119460000D02*
X114380000Y-118880000D01*
X114380000Y-121760000D02*
X114380000Y-121240000D01*
X114380000Y-124120000D02*
X114380000Y-123539000D01*
X119620000Y-118880000D02*
X114380000Y-118880000D01*
X119620000Y-120610000D02*
X119620000Y-118880000D01*
X119620000Y-124120000D02*
X114380000Y-124120000D01*
X119620000Y-124120000D02*
X119620000Y-122390000D01*
%TO.C,C15*%
X114738748Y-106765000D02*
X115261252Y-106765000D01*
X114738748Y-108235000D02*
X115261252Y-108235000D01*
%TO.C,C14*%
X114288748Y-114765000D02*
X114811252Y-114765000D01*
X114288748Y-116235000D02*
X114811252Y-116235000D01*
%TO.C,J7*%
X56170000Y-98670000D02*
X57500000Y-98670000D01*
X56170000Y-100000000D02*
X56170000Y-98670000D01*
X56170000Y-101270000D02*
X56170000Y-103870000D01*
X56170000Y-101270000D02*
X58830000Y-101270000D01*
X56170000Y-103870000D02*
X58830000Y-103870000D01*
X58830000Y-101270000D02*
X58830000Y-103870000D01*
%TO.C,J6*%
X125670000Y-98670000D02*
X127000000Y-98670000D01*
X125670000Y-100000000D02*
X125670000Y-98670000D01*
X125670000Y-101270000D02*
X125670000Y-103870000D01*
X125670000Y-101270000D02*
X128330000Y-101270000D01*
X125670000Y-103870000D02*
X128330000Y-103870000D01*
X128330000Y-101270000D02*
X128330000Y-103870000D01*
%TO.C,U1*%
X114862500Y-108940000D02*
X114062500Y-108940000D01*
X114862500Y-108940000D02*
X115662500Y-108940000D01*
X114862500Y-112060000D02*
X114062500Y-112060000D01*
X114862500Y-112060000D02*
X115662500Y-112060000D01*
X113562500Y-108990000D02*
X113322500Y-108660000D01*
X113802500Y-108660000D01*
X113562500Y-108990000D01*
G36*
X113562500Y-108990000D02*
G01*
X113322500Y-108660000D01*
X113802500Y-108660000D01*
X113562500Y-108990000D01*
G37*
%TO.C,R19*%
X114272936Y-116765000D02*
X114727064Y-116765000D01*
X114272936Y-118235000D02*
X114727064Y-118235000D01*
%TO.C,R18*%
X118772936Y-106765000D02*
X119227064Y-106765000D01*
X118772936Y-108235000D02*
X119227064Y-108235000D01*
%TO.C,R17*%
X111227064Y-123235000D02*
X110772936Y-123235000D01*
X111227064Y-121765000D02*
X110772936Y-121765000D01*
%TO.C,R16*%
X111227064Y-120735000D02*
X110772936Y-120735000D01*
X111227064Y-119265000D02*
X110772936Y-119265000D01*
%TO.C,R15*%
X107235000Y-108272936D02*
X107235000Y-108727064D01*
X105765000Y-108272936D02*
X105765000Y-108727064D01*
%TO.C,R14*%
X114272936Y-112765000D02*
X114727064Y-112765000D01*
X114272936Y-114235000D02*
X114727064Y-114235000D01*
%TO.C,R12*%
X108265000Y-108727064D02*
X108265000Y-108272936D01*
X109735000Y-108727064D02*
X109735000Y-108272936D01*
%TO.C,R11*%
X107265000Y-117727064D02*
X107265000Y-117272936D01*
X108735000Y-117727064D02*
X108735000Y-117272936D01*
%TO.C,R10*%
X107265000Y-121727064D02*
X107265000Y-121272936D01*
X108735000Y-121727064D02*
X108735000Y-121272936D01*
%TO.C,R1*%
X136210000Y-59322936D02*
X136210000Y-63677064D01*
X132790000Y-59322936D02*
X132790000Y-63677064D01*
%TO.C,Q2*%
X113150000Y-99090000D02*
X116910000Y-99090000D01*
X113150000Y-105910000D02*
X116910000Y-105910000D01*
X116910000Y-99090000D02*
X116910000Y-100350000D01*
X116910000Y-105910000D02*
X116910000Y-104650000D01*
X111870000Y-99190000D02*
X111630000Y-98860000D01*
X112110000Y-98860000D01*
X111870000Y-99190000D01*
G36*
X111870000Y-99190000D02*
G01*
X111630000Y-98860000D01*
X112110000Y-98860000D01*
X111870000Y-99190000D01*
G37*
%TO.C,D6*%
X109850000Y-110490000D02*
X108150000Y-110490000D01*
X109850000Y-110490000D02*
X109850000Y-113750000D01*
X108150000Y-110490000D02*
X108150000Y-113750000D01*
%TO.C,D5*%
X112610000Y-117350000D02*
X112610000Y-115650000D01*
X112610000Y-117350000D02*
X109950000Y-117350000D01*
X112610000Y-115650000D02*
X109950000Y-115650000D01*
%TO.C,D4*%
X114927500Y-134950000D02*
X114927500Y-136650000D01*
X114927500Y-134950000D02*
X117587500Y-134950000D01*
X114927500Y-136650000D02*
X117587500Y-136650000D01*
%TO.C,C20*%
X64380000Y-124620000D02*
X65899000Y-124620000D01*
X64380000Y-124620000D02*
X64380000Y-113380000D01*
X68101000Y-124620000D02*
X69620000Y-124620000D01*
X69620000Y-124620000D02*
X69620000Y-113380000D01*
X64380000Y-113380000D02*
X65899000Y-113380000D01*
X68101000Y-113380000D02*
X69620000Y-113380000D01*
%TO.C,C19*%
X73601000Y-113380000D02*
X75120000Y-113380000D01*
X69880000Y-113380000D02*
X71399000Y-113380000D01*
X75120000Y-124620000D02*
X75120000Y-113380000D01*
X73601000Y-124620000D02*
X75120000Y-124620000D01*
X69880000Y-124620000D02*
X69880000Y-113380000D01*
X69880000Y-124620000D02*
X71399000Y-124620000D01*
%TO.C,C18*%
X75380000Y-124620000D02*
X76899000Y-124620000D01*
X75380000Y-124620000D02*
X75380000Y-113380000D01*
X79101000Y-124620000D02*
X80620000Y-124620000D01*
X80620000Y-124620000D02*
X80620000Y-113380000D01*
X75380000Y-113380000D02*
X76899000Y-113380000D01*
X79101000Y-113380000D02*
X80620000Y-113380000D01*
%TO.C,C17*%
X80880000Y-124620000D02*
X82399000Y-124620000D01*
X80880000Y-124620000D02*
X80880000Y-113380000D01*
X84601000Y-124620000D02*
X86120000Y-124620000D01*
X86120000Y-124620000D02*
X86120000Y-113380000D01*
X80880000Y-113380000D02*
X82399000Y-113380000D01*
X84601000Y-113380000D02*
X86120000Y-113380000D01*
%TO.C,C16*%
X86380000Y-124620000D02*
X87899000Y-124620000D01*
X86380000Y-124620000D02*
X86380000Y-113380000D01*
X90101000Y-124620000D02*
X91620000Y-124620000D01*
X91620000Y-124620000D02*
X91620000Y-113380000D01*
X86380000Y-113380000D02*
X87899000Y-113380000D01*
X90101000Y-113380000D02*
X91620000Y-113380000D01*
%TO.C,C13*%
X128161252Y-86710000D02*
X125838748Y-86710000D01*
X128161252Y-83290000D02*
X125838748Y-83290000D01*
%TO.C,C12*%
X128161252Y-91210000D02*
X125838748Y-91210000D01*
X128161252Y-87790000D02*
X125838748Y-87790000D01*
%TO.C,C1*%
X95601000Y-113380000D02*
X97120000Y-113380000D01*
X91880000Y-113380000D02*
X93399000Y-113380000D01*
X97120000Y-124620000D02*
X97120000Y-113380000D01*
X95601000Y-124620000D02*
X97120000Y-124620000D01*
X91880000Y-124620000D02*
X91880000Y-113380000D01*
X91880000Y-124620000D02*
X93399000Y-124620000D01*
%TO.C,D3*%
X115025000Y-139335000D02*
X118910000Y-139335000D01*
X118910000Y-137065000D02*
X115025000Y-137065000D01*
X118910000Y-139335000D02*
X118910000Y-137065000D01*
%TO.C,SW1*%
X109100000Y-68290000D02*
X113900000Y-68290000D01*
X109100000Y-79710000D02*
X109100000Y-68290000D01*
X113900000Y-68290000D02*
X113900000Y-79710000D01*
X113900000Y-72095000D02*
X109100000Y-72095000D01*
X113900000Y-79710000D02*
X109100000Y-79710000D01*
%TO.C,C7*%
X117588748Y-78540000D02*
X119911252Y-78540000D01*
X117588748Y-81960000D02*
X119911252Y-81960000D01*
%TO.C,R13*%
X116752064Y-132665000D02*
X116297936Y-132665000D01*
X116752064Y-134135000D02*
X116297936Y-134135000D01*
%TO.C,C4*%
X75290000Y-95386252D02*
X75290000Y-93063748D01*
X78710000Y-95386252D02*
X78710000Y-93063748D01*
%TO.C,JP2*%
X75670000Y-100895000D02*
X77000000Y-100895000D01*
X75670000Y-102225000D02*
X75670000Y-100895000D01*
X75670000Y-103495000D02*
X75670000Y-106095000D01*
X75670000Y-103495000D02*
X78330000Y-103495000D01*
X75670000Y-106095000D02*
X78330000Y-106095000D01*
X78330000Y-103495000D02*
X78330000Y-106095000D01*
D16*
%TO.C,J12*%
X91199999Y-144900000D02*
X91199999Y-128200001D01*
X97699999Y-128200001D02*
X91199999Y-128200001D01*
X97699999Y-128200001D02*
X97699999Y-144900000D01*
X97699999Y-132600000D02*
X98599999Y-132600000D01*
X97699999Y-137999999D02*
X98599999Y-137999999D01*
X97699999Y-144900000D02*
X91199999Y-144900000D01*
X98599999Y-132600000D02*
X98599999Y-137999999D01*
D17*
X90819000Y-140000000D02*
G75*
G02*
X90057000Y-140000000I-381000J0D01*
G01*
X90057000Y-140000000D02*
G75*
G02*
X90819000Y-140000000I381000J0D01*
G01*
D15*
%TO.C,L2*%
X144335000Y-130485000D02*
X142160000Y-130485000D01*
X144335000Y-112515000D02*
X144335000Y-130485000D01*
X144335000Y-112515000D02*
X142160000Y-112515000D01*
X126665000Y-130485000D02*
X128840000Y-130485000D01*
X126665000Y-112515000D02*
X128840000Y-112515000D01*
X126665000Y-112515000D02*
X126665000Y-130485000D01*
%TO.C,JP4*%
X86670000Y-100895000D02*
X88000000Y-100895000D01*
X86670000Y-102225000D02*
X86670000Y-100895000D01*
X86670000Y-103495000D02*
X86670000Y-106095000D01*
X86670000Y-103495000D02*
X89330000Y-103495000D01*
X86670000Y-106095000D02*
X89330000Y-106095000D01*
X89330000Y-103495000D02*
X89330000Y-106095000D01*
%TO.C,J1*%
X129610000Y-68610000D02*
X126800000Y-68610000D01*
X129610000Y-62550000D02*
X129610000Y-68610000D01*
X129610000Y-55390000D02*
X129610000Y-58450000D01*
X125500000Y-68800000D02*
X123500000Y-68800000D01*
X122200000Y-68610000D02*
X119390000Y-68610000D01*
X119390000Y-68610000D02*
X119390000Y-62550000D01*
X119390000Y-58450000D02*
X119390000Y-55390000D01*
X119390000Y-55390000D02*
X129610000Y-55390000D01*
%TO.C,R6*%
X83540000Y-83363748D02*
X83540000Y-86136252D01*
X86960000Y-83363748D02*
X86960000Y-86136252D01*
%TO.C,J5*%
X55400000Y-73900000D02*
X63600000Y-73900000D01*
X55400000Y-82100000D02*
X55400000Y-73900000D01*
X55400000Y-82100000D02*
X63600000Y-82100000D01*
X59500000Y-81600000D02*
X59000000Y-82100000D01*
X60000000Y-82100000D02*
X59500000Y-81600000D01*
X63600000Y-82100000D02*
X63600000Y-73900000D01*
%TO.C,C10*%
X117588748Y-91290000D02*
X119911252Y-91290000D01*
X117588748Y-94710000D02*
X119911252Y-94710000D01*
%TO.C,R2*%
X87772936Y-68015000D02*
X88227064Y-68015000D01*
X87772936Y-69485000D02*
X88227064Y-69485000D01*
%TO.C,J4*%
X109405000Y-91630000D02*
X109405000Y-81350000D01*
X112005000Y-89030000D02*
X112005000Y-91630000D01*
X112005000Y-91630000D02*
X109405000Y-91630000D01*
X114605000Y-81350000D02*
X109405000Y-81350000D01*
X114605000Y-89030000D02*
X112005000Y-89030000D01*
X114605000Y-89030000D02*
X114605000Y-81350000D01*
X114605000Y-90300000D02*
X114605000Y-91630000D01*
X114605000Y-91630000D02*
X113275000Y-91630000D01*
%TO.C,C11*%
X101790000Y-67911252D02*
X101790000Y-65588748D01*
X105210000Y-67911252D02*
X105210000Y-65588748D01*
%TO.C,C3*%
X69790000Y-95386252D02*
X69790000Y-93063748D01*
X73210000Y-95386252D02*
X73210000Y-93063748D01*
%TO.C,C2*%
X121152677Y-73125000D02*
X122152677Y-73125000D01*
X121652677Y-72625000D02*
X121652677Y-73625000D01*
X126632323Y-70920000D02*
X126632323Y-81080000D01*
X126672323Y-70920000D02*
X126672323Y-81080000D01*
X126712323Y-70920000D02*
X126712323Y-81080000D01*
X126752323Y-70921000D02*
X126752323Y-81079000D01*
X126792323Y-70922000D02*
X126792323Y-81078000D01*
X126832323Y-70923000D02*
X126832323Y-81077000D01*
X126872323Y-70925000D02*
X126872323Y-81075000D01*
X126912323Y-70927000D02*
X126912323Y-81073000D01*
X126952323Y-70930000D02*
X126952323Y-81070000D01*
X126992323Y-70932000D02*
X126992323Y-81068000D01*
X127032323Y-70935000D02*
X127032323Y-81065000D01*
X127072323Y-70938000D02*
X127072323Y-81062000D01*
X127112323Y-70942000D02*
X127112323Y-81058000D01*
X127152323Y-70946000D02*
X127152323Y-81054000D01*
X127192323Y-70950000D02*
X127192323Y-81050000D01*
X127232323Y-70955000D02*
X127232323Y-81045000D01*
X127272323Y-70960000D02*
X127272323Y-81040000D01*
X127312323Y-70965000D02*
X127312323Y-81035000D01*
X127353323Y-70970000D02*
X127353323Y-81030000D01*
X127393323Y-70976000D02*
X127393323Y-81024000D01*
X127433323Y-70982000D02*
X127433323Y-81018000D01*
X127473323Y-70989000D02*
X127473323Y-81011000D01*
X127513323Y-70996000D02*
X127513323Y-81004000D01*
X127553323Y-71003000D02*
X127553323Y-80997000D01*
X127593323Y-71010000D02*
X127593323Y-80990000D01*
X127633323Y-71018000D02*
X127633323Y-80982000D01*
X127673323Y-71026000D02*
X127673323Y-80974000D01*
X127713323Y-71035000D02*
X127713323Y-80965000D01*
X127753323Y-71044000D02*
X127753323Y-80956000D01*
X127793323Y-71053000D02*
X127793323Y-80947000D01*
X127833323Y-71062000D02*
X127833323Y-80938000D01*
X127873323Y-71072000D02*
X127873323Y-80928000D01*
X127913323Y-71082000D02*
X127913323Y-74759000D01*
X127913323Y-77241000D02*
X127913323Y-80918000D01*
X127953323Y-71093000D02*
X127953323Y-74759000D01*
X127953323Y-77241000D02*
X127953323Y-80907000D01*
X127993323Y-71103000D02*
X127993323Y-74759000D01*
X127993323Y-77241000D02*
X127993323Y-80897000D01*
X128033323Y-71115000D02*
X128033323Y-74759000D01*
X128033323Y-77241000D02*
X128033323Y-80885000D01*
X128073323Y-71126000D02*
X128073323Y-74759000D01*
X128073323Y-77241000D02*
X128073323Y-80874000D01*
X128113323Y-71138000D02*
X128113323Y-74759000D01*
X128113323Y-77241000D02*
X128113323Y-80862000D01*
X128153323Y-71150000D02*
X128153323Y-74759000D01*
X128153323Y-77241000D02*
X128153323Y-80850000D01*
X128193323Y-71163000D02*
X128193323Y-74759000D01*
X128193323Y-77241000D02*
X128193323Y-80837000D01*
X128233323Y-71176000D02*
X128233323Y-74759000D01*
X128233323Y-77241000D02*
X128233323Y-80824000D01*
X128273323Y-71189000D02*
X128273323Y-74759000D01*
X128273323Y-77241000D02*
X128273323Y-80811000D01*
X128313323Y-71203000D02*
X128313323Y-74759000D01*
X128313323Y-77241000D02*
X128313323Y-80797000D01*
X128353323Y-71217000D02*
X128353323Y-74759000D01*
X128353323Y-77241000D02*
X128353323Y-80783000D01*
X128393323Y-71232000D02*
X128393323Y-74759000D01*
X128393323Y-77241000D02*
X128393323Y-80768000D01*
X128433323Y-71246000D02*
X128433323Y-74759000D01*
X128433323Y-77241000D02*
X128433323Y-80754000D01*
X128473323Y-71262000D02*
X128473323Y-74759000D01*
X128473323Y-77241000D02*
X128473323Y-80738000D01*
X128513323Y-71277000D02*
X128513323Y-74759000D01*
X128513323Y-77241000D02*
X128513323Y-80723000D01*
X128553323Y-71293000D02*
X128553323Y-74759000D01*
X128553323Y-77241000D02*
X128553323Y-80707000D01*
X128593323Y-71310000D02*
X128593323Y-74759000D01*
X128593323Y-77241000D02*
X128593323Y-80690000D01*
X128633323Y-71326000D02*
X128633323Y-74759000D01*
X128633323Y-77241000D02*
X128633323Y-80674000D01*
X128673323Y-71343000D02*
X128673323Y-74759000D01*
X128673323Y-77241000D02*
X128673323Y-80657000D01*
X128713323Y-71361000D02*
X128713323Y-74759000D01*
X128713323Y-77241000D02*
X128713323Y-80639000D01*
X128753323Y-71379000D02*
X128753323Y-74759000D01*
X128753323Y-77241000D02*
X128753323Y-80621000D01*
X128793323Y-71397000D02*
X128793323Y-74759000D01*
X128793323Y-77241000D02*
X128793323Y-80603000D01*
X128833323Y-71416000D02*
X128833323Y-74759000D01*
X128833323Y-77241000D02*
X128833323Y-80584000D01*
X128873323Y-71436000D02*
X128873323Y-74759000D01*
X128873323Y-77241000D02*
X128873323Y-80564000D01*
X128913323Y-71455000D02*
X128913323Y-74759000D01*
X128913323Y-77241000D02*
X128913323Y-80545000D01*
X128953323Y-71475000D02*
X128953323Y-74759000D01*
X128953323Y-77241000D02*
X128953323Y-80525000D01*
X128993323Y-71496000D02*
X128993323Y-74759000D01*
X128993323Y-77241000D02*
X128993323Y-80504000D01*
X129033323Y-71517000D02*
X129033323Y-74759000D01*
X129033323Y-77241000D02*
X129033323Y-80483000D01*
X129073323Y-71538000D02*
X129073323Y-74759000D01*
X129073323Y-77241000D02*
X129073323Y-80462000D01*
X129113323Y-71560000D02*
X129113323Y-74759000D01*
X129113323Y-77241000D02*
X129113323Y-80440000D01*
X129153323Y-71583000D02*
X129153323Y-74759000D01*
X129153323Y-77241000D02*
X129153323Y-80417000D01*
X129193323Y-71605000D02*
X129193323Y-74759000D01*
X129193323Y-77241000D02*
X129193323Y-80395000D01*
X129233323Y-71629000D02*
X129233323Y-74759000D01*
X129233323Y-77241000D02*
X129233323Y-80371000D01*
X129273323Y-71653000D02*
X129273323Y-74759000D01*
X129273323Y-77241000D02*
X129273323Y-80347000D01*
X129313323Y-71677000D02*
X129313323Y-74759000D01*
X129313323Y-77241000D02*
X129313323Y-80323000D01*
X129353323Y-71702000D02*
X129353323Y-74759000D01*
X129353323Y-77241000D02*
X129353323Y-80298000D01*
X129393323Y-71727000D02*
X129393323Y-74759000D01*
X129393323Y-77241000D02*
X129393323Y-80273000D01*
X129433323Y-71753000D02*
X129433323Y-74759000D01*
X129433323Y-77241000D02*
X129433323Y-80247000D01*
X129473323Y-71779000D02*
X129473323Y-74759000D01*
X129473323Y-77241000D02*
X129473323Y-80221000D01*
X129513323Y-71806000D02*
X129513323Y-74759000D01*
X129513323Y-77241000D02*
X129513323Y-80194000D01*
X129553323Y-71834000D02*
X129553323Y-74759000D01*
X129553323Y-77241000D02*
X129553323Y-80166000D01*
X129593323Y-71862000D02*
X129593323Y-74759000D01*
X129593323Y-77241000D02*
X129593323Y-80138000D01*
X129633323Y-71890000D02*
X129633323Y-74759000D01*
X129633323Y-77241000D02*
X129633323Y-80110000D01*
X129673323Y-71920000D02*
X129673323Y-74759000D01*
X129673323Y-77241000D02*
X129673323Y-80080000D01*
X129713323Y-71950000D02*
X129713323Y-74759000D01*
X129713323Y-77241000D02*
X129713323Y-80050000D01*
X129753323Y-71980000D02*
X129753323Y-74759000D01*
X129753323Y-77241000D02*
X129753323Y-80020000D01*
X129793323Y-72011000D02*
X129793323Y-74759000D01*
X129793323Y-77241000D02*
X129793323Y-79989000D01*
X129833323Y-72043000D02*
X129833323Y-74759000D01*
X129833323Y-77241000D02*
X129833323Y-79957000D01*
X129873323Y-72075000D02*
X129873323Y-74759000D01*
X129873323Y-77241000D02*
X129873323Y-79925000D01*
X129913323Y-72108000D02*
X129913323Y-74759000D01*
X129913323Y-77241000D02*
X129913323Y-79892000D01*
X129953323Y-72142000D02*
X129953323Y-74759000D01*
X129953323Y-77241000D02*
X129953323Y-79858000D01*
X129993323Y-72176000D02*
X129993323Y-74759000D01*
X129993323Y-77241000D02*
X129993323Y-79824000D01*
X130033323Y-72211000D02*
X130033323Y-74759000D01*
X130033323Y-77241000D02*
X130033323Y-79789000D01*
X130073323Y-72247000D02*
X130073323Y-74759000D01*
X130073323Y-77241000D02*
X130073323Y-79753000D01*
X130113323Y-72284000D02*
X130113323Y-74759000D01*
X130113323Y-77241000D02*
X130113323Y-79716000D01*
X130153323Y-72321000D02*
X130153323Y-74759000D01*
X130153323Y-77241000D02*
X130153323Y-79679000D01*
X130193323Y-72360000D02*
X130193323Y-74759000D01*
X130193323Y-77241000D02*
X130193323Y-79640000D01*
X130233323Y-72399000D02*
X130233323Y-74759000D01*
X130233323Y-77241000D02*
X130233323Y-79601000D01*
X130273323Y-72439000D02*
X130273323Y-74759000D01*
X130273323Y-77241000D02*
X130273323Y-79561000D01*
X130313323Y-72480000D02*
X130313323Y-74759000D01*
X130313323Y-77241000D02*
X130313323Y-79520000D01*
X130353323Y-72522000D02*
X130353323Y-74759000D01*
X130353323Y-77241000D02*
X130353323Y-79478000D01*
X130393323Y-72564000D02*
X130393323Y-79436000D01*
X130433323Y-72608000D02*
X130433323Y-79392000D01*
X130473323Y-72653000D02*
X130473323Y-79347000D01*
X130513323Y-72699000D02*
X130513323Y-79301000D01*
X130553323Y-72746000D02*
X130553323Y-79254000D01*
X130593323Y-72794000D02*
X130593323Y-79206000D01*
X130633323Y-72844000D02*
X130633323Y-79156000D01*
X130673323Y-72894000D02*
X130673323Y-79106000D01*
X130713323Y-72946000D02*
X130713323Y-79054000D01*
X130753323Y-73000000D02*
X130753323Y-79000000D01*
X130793323Y-73055000D02*
X130793323Y-78945000D01*
X130833323Y-73111000D02*
X130833323Y-78889000D01*
X130873323Y-73170000D02*
X130873323Y-78830000D01*
X130913323Y-73230000D02*
X130913323Y-78770000D01*
X130953323Y-73291000D02*
X130953323Y-78709000D01*
X130993323Y-73355000D02*
X130993323Y-78645000D01*
X131033323Y-73421000D02*
X131033323Y-78579000D01*
X131073323Y-73490000D02*
X131073323Y-78510000D01*
X131113323Y-73561000D02*
X131113323Y-78439000D01*
X131153323Y-73635000D02*
X131153323Y-78365000D01*
X131193323Y-73711000D02*
X131193323Y-78289000D01*
X131233323Y-73791000D02*
X131233323Y-78209000D01*
X131273323Y-73875000D02*
X131273323Y-78125000D01*
X131313323Y-73963000D02*
X131313323Y-78037000D01*
X131353323Y-74056000D02*
X131353323Y-77944000D01*
X131393323Y-74154000D02*
X131393323Y-77846000D01*
X131433323Y-74258000D02*
X131433323Y-77742000D01*
X131473323Y-74370000D02*
X131473323Y-77630000D01*
X131513323Y-74490000D02*
X131513323Y-77510000D01*
X131553323Y-74622000D02*
X131553323Y-77378000D01*
X131593323Y-74770000D02*
X131593323Y-77230000D01*
X131633323Y-74938000D02*
X131633323Y-77062000D01*
X131673323Y-75138000D02*
X131673323Y-76862000D01*
X131713323Y-75401000D02*
X131713323Y-76599000D01*
X131752323Y-76000000D02*
G75*
G02*
X121512323Y-76000000I-5120000J0D01*
G01*
X121512323Y-76000000D02*
G75*
G02*
X131752323Y-76000000I5120000J0D01*
G01*
%TO.C,R4*%
X98265000Y-65772936D02*
X98265000Y-66227064D01*
X99735000Y-65772936D02*
X99735000Y-66227064D01*
D16*
%TO.C,J11*%
X101199999Y-144900000D02*
X101199999Y-128200001D01*
X107699999Y-128200001D02*
X101199999Y-128200001D01*
X107699999Y-128200001D02*
X107699999Y-144900000D01*
X107699999Y-132600000D02*
X108599999Y-132600000D01*
X107699999Y-137999999D02*
X108599999Y-137999999D01*
X107699999Y-144900000D02*
X101199999Y-144900000D01*
X108599999Y-132600000D02*
X108599999Y-137999999D01*
D17*
X100819000Y-140000000D02*
G75*
G02*
X100057000Y-140000000I-381000J0D01*
G01*
X100057000Y-140000000D02*
G75*
G02*
X100819000Y-140000000I381000J0D01*
G01*
D15*
%TO.C,C6*%
X86290000Y-95386252D02*
X86290000Y-93063748D01*
X89710000Y-95386252D02*
X89710000Y-93063748D01*
%TO.C,J8*%
X72700000Y-58000000D02*
X73200000Y-58000000D01*
X72700000Y-59200000D02*
X70700000Y-59200000D01*
X72700000Y-59200000D02*
X72700000Y-58000000D01*
X72700000Y-61800000D02*
X70700000Y-61800000D01*
X72700000Y-68300000D02*
X72700000Y-61800000D01*
X72700000Y-72700000D02*
X72700000Y-71500000D01*
X73200000Y-55500000D02*
X78400000Y-55500000D01*
X73200000Y-58000000D02*
X73200000Y-55500000D01*
X78400000Y-55500000D02*
X78400000Y-58000000D01*
X78400000Y-58000000D02*
X78900000Y-58000000D01*
X78900000Y-58000000D02*
X78900000Y-61200000D01*
X78900000Y-63800000D02*
X78900000Y-72700000D01*
X78900000Y-72700000D02*
X72700000Y-72700000D01*
%TO.C,D1*%
X92990000Y-67900000D02*
X92990000Y-69600000D01*
X92990000Y-67900000D02*
X96250000Y-67900000D01*
X92990000Y-69600000D02*
X96250000Y-69600000D01*
%TO.C,R3*%
X90015000Y-66227064D02*
X90015000Y-65772936D01*
X91485000Y-66227064D02*
X91485000Y-65772936D01*
%TO.C,JP1*%
X70170000Y-100895000D02*
X71500000Y-100895000D01*
X70170000Y-102225000D02*
X70170000Y-100895000D01*
X70170000Y-103495000D02*
X70170000Y-106095000D01*
X70170000Y-103495000D02*
X72830000Y-103495000D01*
X70170000Y-106095000D02*
X72830000Y-106095000D01*
X72830000Y-103495000D02*
X72830000Y-106095000D01*
%TO.C,C9*%
X117588748Y-87040000D02*
X119911252Y-87040000D01*
X117588748Y-90460000D02*
X119911252Y-90460000D01*
D14*
%TO.C,RV1*%
X88250000Y-55250000D02*
X88250000Y-62750000D01*
X88250000Y-62750000D02*
X100250000Y-62750000D01*
X100250000Y-55250000D02*
X88250000Y-55250000D01*
X100250000Y-62750000D02*
X100250000Y-55250000D01*
D15*
%TO.C,C8*%
X117588748Y-82790000D02*
X119911252Y-82790000D01*
X117588748Y-86210000D02*
X119911252Y-86210000D01*
%TO.C,JP3*%
X81170000Y-100895000D02*
X82500000Y-100895000D01*
X81170000Y-102225000D02*
X81170000Y-100895000D01*
X81170000Y-103495000D02*
X81170000Y-106095000D01*
X81170000Y-103495000D02*
X83830000Y-103495000D01*
X81170000Y-106095000D02*
X83830000Y-106095000D01*
X83830000Y-103495000D02*
X83830000Y-106095000D01*
%TO.C,R5*%
X88265000Y-78522936D02*
X88265000Y-78977064D01*
X89735000Y-78522936D02*
X89735000Y-78977064D01*
%TO.C,C5*%
X80790000Y-95386252D02*
X80790000Y-93063748D01*
X84210000Y-95386252D02*
X84210000Y-93063748D01*
%TO.C,Q1*%
X91930000Y-74140000D02*
X91930000Y-95330000D01*
X91930000Y-74140000D02*
X108070000Y-74140000D01*
X91930000Y-95330000D02*
X108070000Y-95330000D01*
X94550000Y-95330000D02*
X94550000Y-97890000D01*
X100000000Y-95330000D02*
X100000000Y-97890000D01*
X105450000Y-95330000D02*
X105450000Y-97890000D01*
X108070000Y-74140000D02*
X108070000Y-95330000D01*
%TO.C,J3*%
X55400000Y-87900000D02*
X63600000Y-87900000D01*
X55400000Y-96100000D02*
X55400000Y-87900000D01*
X55400000Y-96100000D02*
X63600000Y-96100000D01*
X59500000Y-95600000D02*
X59000000Y-96100000D01*
X60000000Y-96100000D02*
X59500000Y-95600000D01*
X63600000Y-96100000D02*
X63600000Y-87900000D01*
%TD*%
M02*
