%TF.GenerationSoftware,KiCad,Pcbnew,9.0.0*%
%TF.CreationDate,2025-05-26T15:17:39-04:00*%
%TF.ProjectId,PlasmaTransformer,506c6173-6d61-4547-9261-6e73666f726d,rev?*%
%TF.SameCoordinates,Original*%
%TF.FileFunction,Copper,L2,Bot*%
%TF.FilePolarity,Positive*%
%FSLAX46Y46*%
G04 Gerber Fmt 4.6, Leading zero omitted, Abs format (unit mm)*
G04 Created by KiCad (PCBNEW 9.0.0) date 2025-05-26 15:17:39*
%MOMM*%
%LPD*%
G01*
G04 APERTURE LIST*
G04 Aperture macros list*
%AMRoundRect*
0 Rectangle with rounded corners*
0 $1 Rounding radius*
0 $2 $3 $4 $5 $6 $7 $8 $9 X,Y pos of 4 corners*
0 Add a 4 corners polygon primitive as box body*
4,1,4,$2,$3,$4,$5,$6,$7,$8,$9,$2,$3,0*
0 Add four circle primitives for the rounded corners*
1,1,$1+$1,$2,$3*
1,1,$1+$1,$4,$5*
1,1,$1+$1,$6,$7*
1,1,$1+$1,$8,$9*
0 Add four rect primitives between the rounded corners*
20,1,$1+$1,$2,$3,$4,$5,0*
20,1,$1+$1,$4,$5,$6,$7,0*
20,1,$1+$1,$6,$7,$8,$9,0*
20,1,$1+$1,$8,$9,$2,$3,0*%
G04 Aperture macros list end*
%TA.AperFunction,ComponentPad*%
%ADD10O,3.800000X2.800000*%
%TD*%
%TA.AperFunction,ComponentPad*%
%ADD11C,2.700000*%
%TD*%
%TA.AperFunction,ComponentPad*%
%ADD12R,1.700000X1.700000*%
%TD*%
%TA.AperFunction,ComponentPad*%
%ADD13O,1.700000X1.700000*%
%TD*%
%TA.AperFunction,ComponentPad*%
%ADD14C,2.000000*%
%TD*%
%TA.AperFunction,ComponentPad*%
%ADD15R,4.000000X2.000000*%
%TD*%
%TA.AperFunction,ComponentPad*%
%ADD16O,3.300000X2.000000*%
%TD*%
%TA.AperFunction,ComponentPad*%
%ADD17O,2.000000X3.500000*%
%TD*%
%TA.AperFunction,ComponentPad*%
%ADD18RoundRect,0.200100X0.949900X-0.949900X0.949900X0.949900X-0.949900X0.949900X-0.949900X-0.949900X0*%
%TD*%
%TA.AperFunction,ComponentPad*%
%ADD19C,2.500000*%
%TD*%
%TA.AperFunction,ComponentPad*%
%ADD20R,2.000000X2.000000*%
%TD*%
%TA.AperFunction,ComponentPad*%
%ADD21RoundRect,0.250000X0.750000X-0.600000X0.750000X0.600000X-0.750000X0.600000X-0.750000X-0.600000X0*%
%TD*%
%TA.AperFunction,ComponentPad*%
%ADD22O,2.000000X1.700000*%
%TD*%
%TA.AperFunction,ComponentPad*%
%ADD23C,10.600000*%
%TD*%
%TA.AperFunction,ComponentPad*%
%ADD24C,2.200000*%
%TD*%
%TA.AperFunction,ComponentPad*%
%ADD25R,2.500000X4.500000*%
%TD*%
%TA.AperFunction,ComponentPad*%
%ADD26O,2.500000X4.500000*%
%TD*%
%TA.AperFunction,ViaPad*%
%ADD27C,1.000000*%
%TD*%
%TA.AperFunction,ViaPad*%
%ADD28C,0.600000*%
%TD*%
%TA.AperFunction,Conductor*%
%ADD29C,3.000000*%
%TD*%
%TA.AperFunction,Conductor*%
%ADD30C,1.000000*%
%TD*%
%TA.AperFunction,Conductor*%
%ADD31C,0.250000*%
%TD*%
%TA.AperFunction,Conductor*%
%ADD32C,2.500000*%
%TD*%
%TA.AperFunction,Conductor*%
%ADD33C,2.000000*%
%TD*%
%TA.AperFunction,Conductor*%
%ADD34C,0.200000*%
%TD*%
G04 APERTURE END LIST*
D10*
%TO.P,SW1,1,A*%
%TO.N,Net-(SW1-A)*%
X111500000Y-70190000D03*
%TO.P,SW1,2,B*%
%TO.N,Net-(J2-Pin_1)*%
X111500000Y-74000000D03*
%TO.P,SW1,3,C*%
%TO.N,unconnected-(SW1-C-Pad3)*%
X111500000Y-77810000D03*
D11*
%TO.P,SW1,M1*%
%TO.N,N/C*%
X114040000Y-57490000D03*
%TO.P,SW1,M2*%
X108960000Y-57490000D03*
%TD*%
D12*
%TO.P,JP2,1,A*%
%TO.N,Net-(JP2-A)*%
X77000000Y-102225000D03*
D13*
%TO.P,JP2,2,B*%
%TO.N,Net-(J7-Pin_1)*%
X77000000Y-104765000D03*
%TD*%
D14*
%TO.P,J12,1,Pin_1*%
%TO.N,Net-(J12-Pin_1)*%
X95000000Y-140000000D03*
X95000000Y-131800001D03*
%TD*%
D12*
%TO.P,JP4,1,A*%
%TO.N,Net-(JP4-A)*%
X88000000Y-102225000D03*
D13*
%TO.P,JP4,2,B*%
%TO.N,Net-(J7-Pin_1)*%
X88000000Y-104765000D03*
%TD*%
D15*
%TO.P,J1,1*%
%TO.N,Net-(SW1-A)*%
X124500000Y-67500000D03*
D16*
%TO.P,J1,2*%
%TO.N,GND*%
X124500000Y-61500000D03*
D17*
%TO.P,J1,MP1*%
%TO.N,N/C*%
X120000000Y-60500000D03*
%TO.P,J1,MP2*%
X129000000Y-60500000D03*
%TD*%
D18*
%TO.P,J5,1,In*%
%TO.N,Net-(J5-In)*%
X59500000Y-78000000D03*
D19*
%TO.P,J5,2,Ext*%
%TO.N,GND*%
X56960000Y-80540000D03*
X62040000Y-80540000D03*
X56960000Y-75460000D03*
X62040000Y-75460000D03*
%TD*%
D12*
%TO.P,J4,1,Pin_1*%
%TO.N,Net-(J4-Pin_1)*%
X113275000Y-90300000D03*
D13*
%TO.P,J4,2,Pin_2*%
%TO.N,Net-(D2-K)*%
X110735000Y-90300000D03*
%TO.P,J4,3,Pin_3*%
%TO.N,Net-(J4-Pin_3)*%
X113275000Y-87760000D03*
%TO.P,J4,4,Pin_4*%
%TO.N,Net-(D2-K)*%
X110735000Y-87760000D03*
%TO.P,J4,5,Pin_5*%
%TO.N,Net-(J4-Pin_5)*%
X113275000Y-85220000D03*
%TO.P,J4,6,Pin_6*%
%TO.N,Net-(D2-K)*%
X110735000Y-85220000D03*
%TO.P,J4,7,Pin_7*%
%TO.N,Net-(J4-Pin_7)*%
X113275000Y-82680000D03*
%TO.P,J4,8,Pin_8*%
%TO.N,Net-(D2-K)*%
X110735000Y-82680000D03*
%TD*%
D20*
%TO.P,C2,1*%
%TO.N,Net-(J2-Pin_1)*%
X126132323Y-78000000D03*
D14*
%TO.P,C2,2*%
%TO.N,GND*%
X131132323Y-78000000D03*
%TD*%
%TO.P,J11,1,Pin_1*%
%TO.N,Net-(J10-Pin_1)*%
X105000000Y-140000000D03*
X105000000Y-131800001D03*
%TD*%
D21*
%TO.P,J2,1,Pin_1*%
%TO.N,Net-(J2-Pin_1)*%
X140975000Y-79250000D03*
D22*
%TO.P,J2,2,Pin_2*%
%TO.N,GND*%
X140975000Y-76750000D03*
%TD*%
D14*
%TO.P,J9,1,Pin_1*%
%TO.N,Net-(J2-Pin_1)*%
X139450000Y-89866600D03*
X131250001Y-89866600D03*
%TD*%
%TO.P,J7,1,Pin_1*%
%TO.N,Net-(J7-Pin_1)*%
X86550001Y-114000000D03*
X94750000Y-114000000D03*
%TD*%
D12*
%TO.P,JP1,1,A*%
%TO.N,Net-(JP1-A)*%
X71500000Y-102225000D03*
D13*
%TO.P,JP1,2,B*%
%TO.N,Net-(J7-Pin_1)*%
X71500000Y-104765000D03*
%TD*%
D23*
%TO.P,H1,1,1*%
%TO.N,Net-(J7-Pin_1)*%
X61000000Y-122000000D03*
%TD*%
D24*
%TO.P,RV1,1,1*%
%TO.N,Net-(R3-Pad2)*%
X91750000Y-59000000D03*
%TO.P,RV1,2,2*%
%TO.N,Net-(C11-Pad2)*%
X94250000Y-61500000D03*
%TO.P,RV1,3,3*%
%TO.N,Net-(R4-Pad1)*%
X96750000Y-59000000D03*
%TD*%
D12*
%TO.P,JP3,1,A*%
%TO.N,Net-(JP3-A)*%
X82500000Y-102225000D03*
D13*
%TO.P,JP3,2,B*%
%TO.N,Net-(J7-Pin_1)*%
X82500000Y-104765000D03*
%TD*%
D25*
%TO.P,Q1,1,G*%
%TO.N,Net-(D2-K)*%
X94550000Y-100290000D03*
D26*
%TO.P,Q1,2,D*%
%TO.N,Net-(J10-Pin_1)*%
X100000000Y-100290000D03*
%TO.P,Q1,3,S*%
%TO.N,GND*%
X105450000Y-100290000D03*
%TD*%
D14*
%TO.P,J10,1,Pin_1*%
%TO.N,Net-(J10-Pin_1)*%
X139450000Y-131366600D03*
X131250001Y-131366600D03*
%TD*%
%TO.P,J6,1,Pin_1*%
%TO.N,Net-(J12-Pin_1)*%
X86550001Y-124000000D03*
X94750000Y-124000000D03*
%TD*%
D18*
%TO.P,J3,1,In*%
%TO.N,Net-(J3-In)*%
X59500000Y-92000000D03*
D19*
%TO.P,J3,2,Ext*%
%TO.N,GND*%
X56960000Y-94540000D03*
X62040000Y-94540000D03*
X56960000Y-89460000D03*
X62040000Y-89460000D03*
%TD*%
D27*
%TO.N,GND*%
X68500000Y-60500000D03*
X88000000Y-89500000D03*
X77000000Y-89500000D03*
X100250000Y-68750000D03*
X71500000Y-89500000D03*
X82500000Y-89500000D03*
%TO.N,Net-(J10-Pin_1)*%
X68500000Y-92000000D03*
D28*
%TO.N,Net-(D3-K)*%
X118100000Y-114000000D03*
X123575000Y-111500000D03*
D27*
%TO.N,Net-(C11-Pad2)*%
X103500000Y-61750000D03*
%TD*%
D29*
%TO.N,GND*%
X131049000Y-74200000D02*
X131049000Y-76500000D01*
X131049000Y-72500000D02*
X131049000Y-74200000D01*
X131000000Y-78132323D02*
X131132323Y-78000000D01*
X105450000Y-85550000D02*
X105500000Y-85500000D01*
D30*
X105200000Y-85800000D02*
X105450000Y-85550000D01*
D29*
X131049000Y-81351000D02*
X131000000Y-81400000D01*
X105450000Y-100290000D02*
X115210000Y-100290000D01*
D31*
X100250000Y-68750000D02*
X106300000Y-74800000D01*
D30*
X56960000Y-80540000D02*
X62040000Y-80540000D01*
D31*
X106300000Y-74800000D02*
X106300000Y-86150000D01*
D29*
X129250000Y-66250000D02*
X129250000Y-70701000D01*
D31*
X86900000Y-65700000D02*
X95500000Y-74300000D01*
D29*
X124500000Y-61500000D02*
X129250000Y-66250000D01*
X105450000Y-89500000D02*
X105450000Y-87000000D01*
D30*
X62040000Y-89460000D02*
X67540000Y-89460000D01*
D31*
X105100000Y-77600000D02*
X105100000Y-85200000D01*
D30*
X56960000Y-75460000D02*
X56960000Y-80540000D01*
D29*
X131049000Y-74200000D02*
X131049000Y-81351000D01*
X115210000Y-100290000D02*
X131000000Y-84500000D01*
D30*
X56960000Y-75460000D02*
X62040000Y-75460000D01*
D32*
X131049000Y-76500000D02*
X131049000Y-77916677D01*
D33*
X71500000Y-89500000D02*
X88000000Y-89500000D01*
D30*
X56960000Y-89460000D02*
X62040000Y-89460000D01*
X56960000Y-94540000D02*
X62040000Y-94540000D01*
X56960000Y-89460000D02*
X56960000Y-94540000D01*
D29*
X129250000Y-70701000D02*
X131049000Y-72500000D01*
D30*
X62040000Y-80540000D02*
X65040000Y-80540000D01*
X65040000Y-80540000D02*
X70300000Y-85800000D01*
D29*
X131000000Y-81400000D02*
X131000000Y-78132323D01*
D31*
X106300000Y-86150000D02*
X105450000Y-87000000D01*
D30*
X131299000Y-76750000D02*
X131049000Y-76500000D01*
X70300000Y-85800000D02*
X105200000Y-85800000D01*
D31*
X95500000Y-74300000D02*
X101800000Y-74300000D01*
X68500000Y-60500000D02*
X73700000Y-65700000D01*
D29*
X105450000Y-87000000D02*
X105450000Y-85550000D01*
D33*
X88000000Y-89500000D02*
X105450000Y-89500000D01*
D31*
X105100000Y-85200000D02*
X105450000Y-85550000D01*
D29*
X105450000Y-100290000D02*
X105450000Y-89500000D01*
D30*
X140975000Y-76750000D02*
X131299000Y-76750000D01*
X67540000Y-89460000D02*
X69700000Y-87300000D01*
D32*
X131049000Y-77916677D02*
X131132323Y-78000000D01*
D30*
X105150000Y-87300000D02*
X105450000Y-87000000D01*
D31*
X101800000Y-74300000D02*
X105100000Y-77600000D01*
D29*
X131000000Y-84500000D02*
X131000000Y-81400000D01*
D30*
X69700000Y-87300000D02*
X105150000Y-87300000D01*
D31*
X73700000Y-65700000D02*
X86900000Y-65700000D01*
%TO.N,Net-(J10-Pin_1)*%
X68500000Y-92000000D02*
X98000000Y-92000000D01*
X98000000Y-92000000D02*
X100000000Y-94000000D01*
D29*
X105000000Y-112500000D02*
X100000000Y-107500000D01*
X105000000Y-134300001D02*
X105000000Y-112500000D01*
D31*
X100000000Y-94000000D02*
X100000000Y-100290000D01*
D29*
X100000000Y-107500000D02*
X100000000Y-100290000D01*
D34*
%TO.N,Net-(D3-K)*%
X118100000Y-114000000D02*
X122800000Y-114000000D01*
X122800000Y-114000000D02*
X123575000Y-113225000D01*
X123575000Y-113225000D02*
X123575000Y-111500000D01*
D30*
%TO.N,Net-(C11-Pad2)*%
X94500000Y-61750000D02*
X94250000Y-61500000D01*
X103500000Y-61750000D02*
X94500000Y-61750000D01*
%TD*%
M02*
