%TF.GenerationSoftware,KiCad,Pcbnew,9.0.0*%
%TF.CreationDate,2025-04-30T01:59:44-07:00*%
%TF.ProjectId,PlasmaTransformer,506c6173-6d61-4547-9261-6e73666f726d,rev?*%
%TF.SameCoordinates,Original*%
%TF.FileFunction,Soldermask,Top*%
%TF.FilePolarity,Negative*%
%FSLAX46Y46*%
G04 Gerber Fmt 4.6, Leading zero omitted, Abs format (unit mm)*
G04 Created by KiCad (PCBNEW 9.0.0) date 2025-04-30 01:59:44*
%MOMM*%
%LPD*%
G01*
G04 APERTURE LIST*
G04 Aperture macros list*
%AMRoundRect*
0 Rectangle with rounded corners*
0 $1 Rounding radius*
0 $2 $3 $4 $5 $6 $7 $8 $9 X,Y pos of 4 corners*
0 Add a 4 corners polygon primitive as box body*
4,1,4,$2,$3,$4,$5,$6,$7,$8,$9,$2,$3,0*
0 Add four circle primitives for the rounded corners*
1,1,$1+$1,$2,$3*
1,1,$1+$1,$4,$5*
1,1,$1+$1,$6,$7*
1,1,$1+$1,$8,$9*
0 Add four rect primitives between the rounded corners*
20,1,$1+$1,$2,$3,$4,$5,0*
20,1,$1+$1,$4,$5,$6,$7,0*
20,1,$1+$1,$6,$7,$8,$9,0*
20,1,$1+$1,$8,$9,$2,$3,0*%
G04 Aperture macros list end*
%ADD10RoundRect,0.075000X-0.925000X-0.175000X0.925000X-0.175000X0.925000X0.175000X-0.925000X0.175000X0*%
%ADD11RoundRect,0.250000X0.262500X0.450000X-0.262500X0.450000X-0.262500X-0.450000X0.262500X-0.450000X0*%
%ADD12RoundRect,0.250000X0.375000X0.625000X-0.375000X0.625000X-0.375000X-0.625000X0.375000X-0.625000X0*%
%ADD13C,1.850000*%
%ADD14O,3.800000X2.800000*%
%ADD15RoundRect,0.249999X0.450001X1.450001X-0.450001X1.450001X-0.450001X-1.450001X0.450001X-1.450001X0*%
%ADD16RoundRect,0.249999X1.450001X-0.450001X1.450001X0.450001X-1.450001X0.450001X-1.450001X-0.450001X0*%
%ADD17R,1.700000X1.700000*%
%ADD18O,1.700000X1.700000*%
%ADD19C,2.000000*%
%ADD20RoundRect,0.250000X0.312500X1.450000X-0.312500X1.450000X-0.312500X-1.450000X0.312500X-1.450000X0*%
%ADD21RoundRect,0.250000X1.000000X0.650000X-1.000000X0.650000X-1.000000X-0.650000X1.000000X-0.650000X0*%
%ADD22C,8.400000*%
%ADD23C,1.600000*%
%ADD24R,4.000000X2.000000*%
%ADD25O,3.300000X2.000000*%
%ADD26O,2.000000X3.500000*%
%ADD27RoundRect,0.250000X-0.450000X0.262500X-0.450000X-0.262500X0.450000X-0.262500X0.450000X0.262500X0*%
%ADD28RoundRect,0.200100X0.949900X-0.949900X0.949900X0.949900X-0.949900X0.949900X-0.949900X-0.949900X0*%
%ADD29C,2.500000*%
%ADD30RoundRect,0.250000X-0.262500X-0.450000X0.262500X-0.450000X0.262500X0.450000X-0.262500X0.450000X0*%
%ADD31C,4.500000*%
%ADD32R,2.000000X2.000000*%
%ADD33C,1.200000*%
%ADD34RoundRect,0.250000X0.750000X-0.600000X0.750000X0.600000X-0.750000X0.600000X-0.750000X-0.600000X0*%
%ADD35O,2.000000X1.700000*%
%ADD36C,1.700000*%
%ADD37R,2.800000X2.200000*%
%ADD38R,2.800000X2.800000*%
%ADD39RoundRect,0.250000X-0.250000X-0.250000X0.250000X-0.250000X0.250000X0.250000X-0.250000X0.250000X0*%
%ADD40RoundRect,0.250000X0.450000X-0.262500X0.450000X0.262500X-0.450000X0.262500X-0.450000X-0.262500X0*%
%ADD41C,10.600000*%
%ADD42RoundRect,0.250000X0.470000X-0.470000X0.470000X0.470000X-0.470000X0.470000X-0.470000X-0.470000X0*%
%ADD43C,1.440000*%
%ADD44C,3.400000*%
%ADD45C,3.600000*%
%ADD46R,2.500000X4.500000*%
%ADD47O,2.500000X4.500000*%
G04 APERTURE END LIST*
D10*
%TO.C,L1*%
X118225000Y-112000000D03*
%TD*%
D11*
%TO.C,R13*%
X115912500Y-110200000D03*
X114087500Y-110200000D03*
%TD*%
D12*
%TO.C,D3*%
X116500000Y-114000000D03*
X113700000Y-114000000D03*
%TD*%
D13*
%TO.C,SW1*%
X114040000Y-57490000D03*
X108960000Y-57490000D03*
D14*
X111500000Y-70190000D03*
X111500000Y-74000000D03*
X111500000Y-77810000D03*
%TD*%
D15*
%TO.C,C7*%
X99050000Y-91500000D03*
X94950000Y-91500000D03*
%TD*%
D16*
%TO.C,C4*%
X77000000Y-96275000D03*
X77000000Y-92175000D03*
%TD*%
D17*
%TO.C,JP2*%
X77000000Y-102225000D03*
D18*
X77000000Y-104765000D03*
%TD*%
D19*
%TO.C,J12*%
X95000000Y-142500000D03*
X95000000Y-134300001D03*
%TD*%
D20*
%TO.C,R10*%
X120137500Y-124500000D03*
X115862500Y-124500000D03*
%TD*%
D17*
%TO.C,JP4*%
X88000000Y-102225000D03*
D18*
X88000000Y-104765000D03*
%TD*%
D21*
%TO.C,D2*%
X102000000Y-106500000D03*
X98000000Y-106500000D03*
%TD*%
D22*
%TO.C,H2*%
X100000000Y-80500000D03*
%TD*%
D23*
%TO.C,J1*%
X124500000Y-58500000D03*
D24*
X124500000Y-67500000D03*
D25*
X124500000Y-61500000D03*
D26*
X120000000Y-60500000D03*
X129000000Y-60500000D03*
%TD*%
D27*
%TO.C,R6*%
X84500000Y-82287500D03*
X84500000Y-84112500D03*
%TD*%
D28*
%TO.C,J5*%
X59500000Y-78000000D03*
D29*
X56960000Y-80540000D03*
X62040000Y-80540000D03*
X56960000Y-75460000D03*
X62040000Y-75460000D03*
%TD*%
D20*
%TO.C,R1*%
X127137500Y-124500000D03*
X122862500Y-124500000D03*
%TD*%
D30*
%TO.C,R2*%
X93087500Y-67000000D03*
X94912500Y-67000000D03*
%TD*%
D31*
%TO.C,M1*%
X58750000Y-58750000D03*
X58750000Y-141250000D03*
X141250000Y-58750000D03*
X141250000Y-141250000D03*
%TD*%
D16*
%TO.C,C3*%
X71500000Y-96275000D03*
X71500000Y-92175000D03*
%TD*%
D32*
%TO.C,C2*%
X126132323Y-78000000D03*
D19*
X131132323Y-78000000D03*
%TD*%
D27*
%TO.C,R4*%
X101500000Y-62587500D03*
X101500000Y-64412500D03*
%TD*%
D19*
%TO.C,J11*%
X105000000Y-142500000D03*
X105000000Y-134300001D03*
%TD*%
D33*
%TO.C,J2*%
X142975000Y-80850000D03*
D34*
X140975000Y-79250000D03*
D35*
X140975000Y-76750000D03*
%TD*%
D16*
%TO.C,C6*%
X88000000Y-96275000D03*
X88000000Y-92175000D03*
%TD*%
D19*
%TO.C,J9*%
X139450000Y-89866600D03*
X131250001Y-89866600D03*
%TD*%
D36*
%TO.C,J8*%
X75800000Y-61600000D03*
X75800000Y-68600000D03*
D37*
X79500000Y-62500000D03*
X72100000Y-60500000D03*
D38*
X72100000Y-69900000D03*
%TD*%
D39*
%TO.C,D1*%
X97750000Y-67000000D03*
X100250000Y-67000000D03*
%TD*%
D40*
%TO.C,R3*%
X96500000Y-64412500D03*
X96500000Y-62587500D03*
%TD*%
D19*
%TO.C,J7*%
X86550001Y-114500000D03*
X94750000Y-114500000D03*
%TD*%
D20*
%TO.C,R11*%
X113137500Y-124500000D03*
X108862500Y-124500000D03*
%TD*%
D17*
%TO.C,JP1*%
X71500000Y-102225000D03*
D18*
X71500000Y-104765000D03*
%TD*%
D20*
%TO.C,R12*%
X106137500Y-124500000D03*
X101862500Y-124500000D03*
%TD*%
D41*
%TO.C,H1*%
X61000000Y-122000000D03*
%TD*%
D27*
%TO.C,R9*%
X81000000Y-80500000D03*
X81000000Y-82325000D03*
%TD*%
D42*
%TO.C,RV1*%
X96460000Y-58000000D03*
D43*
X99000000Y-58000000D03*
X101540000Y-58000000D03*
%TD*%
D44*
%TO.C,HS1*%
X65750000Y-69500000D03*
X65750000Y-100500000D03*
X100000000Y-80400000D03*
X134250000Y-69500000D03*
X134250000Y-100500000D03*
%TD*%
D17*
%TO.C,JP3*%
X82500000Y-102225000D03*
D18*
X82500000Y-104765000D03*
%TD*%
D27*
%TO.C,R5*%
X88000000Y-80500000D03*
X88000000Y-82325000D03*
%TD*%
D16*
%TO.C,C5*%
X82500000Y-96275000D03*
X82500000Y-92175000D03*
%TD*%
D11*
%TO.C,R8*%
X68912500Y-78080000D03*
X67087500Y-78080000D03*
%TD*%
D45*
%TO.C,Q1*%
X100000000Y-80430000D03*
D46*
X94550000Y-100290000D03*
D47*
X100000000Y-100290000D03*
X105450000Y-100290000D03*
%TD*%
D11*
%TO.C,R7*%
X67412500Y-92000000D03*
X65587500Y-92000000D03*
%TD*%
D19*
%TO.C,J10*%
X139450000Y-131366600D03*
X131250001Y-131366600D03*
%TD*%
%TO.C,J6*%
X86550001Y-124500000D03*
X94750000Y-124500000D03*
%TD*%
D28*
%TO.C,J3*%
X59500000Y-92000000D03*
D29*
X56960000Y-94540000D03*
X62040000Y-94540000D03*
X56960000Y-89460000D03*
X62040000Y-89460000D03*
%TD*%
M02*
