%TF.GenerationSoftware,KiCad,Pcbnew,9.0.0*%
%TF.CreationDate,2025-04-30T01:59:44-07:00*%
%TF.ProjectId,PlasmaTransformer,506c6173-6d61-4547-9261-6e73666f726d,rev?*%
%TF.SameCoordinates,Original*%
%TF.FileFunction,Paste,Top*%
%TF.FilePolarity,Positive*%
%FSLAX46Y46*%
G04 Gerber Fmt 4.6, Leading zero omitted, Abs format (unit mm)*
G04 Created by KiCad (PCBNEW 9.0.0) date 2025-04-30 01:59:44*
%MOMM*%
%LPD*%
G01*
G04 APERTURE LIST*
G04 Aperture macros list*
%AMRoundRect*
0 Rectangle with rounded corners*
0 $1 Rounding radius*
0 $2 $3 $4 $5 $6 $7 $8 $9 X,Y pos of 4 corners*
0 Add a 4 corners polygon primitive as box body*
4,1,4,$2,$3,$4,$5,$6,$7,$8,$9,$2,$3,0*
0 Add four circle primitives for the rounded corners*
1,1,$1+$1,$2,$3*
1,1,$1+$1,$4,$5*
1,1,$1+$1,$6,$7*
1,1,$1+$1,$8,$9*
0 Add four rect primitives between the rounded corners*
20,1,$1+$1,$2,$3,$4,$5,0*
20,1,$1+$1,$4,$5,$6,$7,0*
20,1,$1+$1,$6,$7,$8,$9,0*
20,1,$1+$1,$8,$9,$2,$3,0*%
G04 Aperture macros list end*
%ADD10RoundRect,0.075000X-0.925000X-0.175000X0.925000X-0.175000X0.925000X0.175000X-0.925000X0.175000X0*%
%ADD11RoundRect,0.250000X0.262500X0.450000X-0.262500X0.450000X-0.262500X-0.450000X0.262500X-0.450000X0*%
%ADD12RoundRect,0.250000X0.375000X0.625000X-0.375000X0.625000X-0.375000X-0.625000X0.375000X-0.625000X0*%
%ADD13RoundRect,0.249999X0.450001X1.450001X-0.450001X1.450001X-0.450001X-1.450001X0.450001X-1.450001X0*%
%ADD14RoundRect,0.249999X1.450001X-0.450001X1.450001X0.450001X-1.450001X0.450001X-1.450001X-0.450001X0*%
%ADD15RoundRect,0.250000X0.312500X1.450000X-0.312500X1.450000X-0.312500X-1.450000X0.312500X-1.450000X0*%
%ADD16RoundRect,0.250000X1.000000X0.650000X-1.000000X0.650000X-1.000000X-0.650000X1.000000X-0.650000X0*%
%ADD17RoundRect,0.250000X-0.450000X0.262500X-0.450000X-0.262500X0.450000X-0.262500X0.450000X0.262500X0*%
%ADD18RoundRect,0.250000X-0.262500X-0.450000X0.262500X-0.450000X0.262500X0.450000X-0.262500X0.450000X0*%
%ADD19R,2.800000X2.200000*%
%ADD20R,2.800000X2.800000*%
%ADD21RoundRect,0.250000X-0.250000X-0.250000X0.250000X-0.250000X0.250000X0.250000X-0.250000X0.250000X0*%
%ADD22RoundRect,0.250000X0.450000X-0.262500X0.450000X0.262500X-0.450000X0.262500X-0.450000X-0.262500X0*%
G04 APERTURE END LIST*
D10*
%TO.C,L1*%
X118225000Y-112000000D03*
%TD*%
D11*
%TO.C,R13*%
X115912500Y-110200000D03*
X114087500Y-110200000D03*
%TD*%
D12*
%TO.C,D3*%
X116500000Y-114000000D03*
X113700000Y-114000000D03*
%TD*%
D13*
%TO.C,C7*%
X99050000Y-91500000D03*
X94950000Y-91500000D03*
%TD*%
D14*
%TO.C,C4*%
X77000000Y-96275000D03*
X77000000Y-92175000D03*
%TD*%
D15*
%TO.C,R10*%
X120137500Y-124500000D03*
X115862500Y-124500000D03*
%TD*%
D16*
%TO.C,D2*%
X102000000Y-106500000D03*
X98000000Y-106500000D03*
%TD*%
D17*
%TO.C,R6*%
X84500000Y-82287500D03*
X84500000Y-84112500D03*
%TD*%
D15*
%TO.C,R1*%
X127137500Y-124500000D03*
X122862500Y-124500000D03*
%TD*%
D18*
%TO.C,R2*%
X93087500Y-67000000D03*
X94912500Y-67000000D03*
%TD*%
D14*
%TO.C,C3*%
X71500000Y-96275000D03*
X71500000Y-92175000D03*
%TD*%
D17*
%TO.C,R4*%
X101500000Y-62587500D03*
X101500000Y-64412500D03*
%TD*%
D14*
%TO.C,C6*%
X88000000Y-96275000D03*
X88000000Y-92175000D03*
%TD*%
D19*
%TO.C,J8*%
X79500000Y-62500000D03*
X72100000Y-60500000D03*
D20*
X72100000Y-69900000D03*
%TD*%
D21*
%TO.C,D1*%
X97750000Y-67000000D03*
X100250000Y-67000000D03*
%TD*%
D22*
%TO.C,R3*%
X96500000Y-64412500D03*
X96500000Y-62587500D03*
%TD*%
D15*
%TO.C,R11*%
X113137500Y-124500000D03*
X108862500Y-124500000D03*
%TD*%
%TO.C,R12*%
X106137500Y-124500000D03*
X101862500Y-124500000D03*
%TD*%
D17*
%TO.C,R9*%
X81000000Y-80500000D03*
X81000000Y-82325000D03*
%TD*%
%TO.C,R5*%
X88000000Y-80500000D03*
X88000000Y-82325000D03*
%TD*%
D14*
%TO.C,C5*%
X82500000Y-96275000D03*
X82500000Y-92175000D03*
%TD*%
D11*
%TO.C,R8*%
X68912500Y-78080000D03*
X67087500Y-78080000D03*
%TD*%
%TO.C,R7*%
X67412500Y-92000000D03*
X65587500Y-92000000D03*
%TD*%
M02*
