%TF.GenerationSoftware,KiCad,Pcbnew,9.0.0*%
%TF.CreationDate,2025-06-27T03:49:42-07:00*%
%TF.ProjectId,PlasmaTransformer,506c6173-6d61-4547-9261-6e73666f726d,rev?*%
%TF.SameCoordinates,Original*%
%TF.FileFunction,Paste,Top*%
%TF.FilePolarity,Positive*%
%FSLAX46Y46*%
G04 Gerber Fmt 4.6, Leading zero omitted, Abs format (unit mm)*
G04 Created by KiCad (PCBNEW 9.0.0) date 2025-06-27 03:49:42*
%MOMM*%
%LPD*%
G01*
G04 APERTURE LIST*
G04 Aperture macros list*
%AMRoundRect*
0 Rectangle with rounded corners*
0 $1 Rounding radius*
0 $2 $3 $4 $5 $6 $7 $8 $9 X,Y pos of 4 corners*
0 Add a 4 corners polygon primitive as box body*
4,1,4,$2,$3,$4,$5,$6,$7,$8,$9,$2,$3,0*
0 Add four circle primitives for the rounded corners*
1,1,$1+$1,$2,$3*
1,1,$1+$1,$4,$5*
1,1,$1+$1,$6,$7*
1,1,$1+$1,$8,$9*
0 Add four rect primitives between the rounded corners*
20,1,$1+$1,$2,$3,$4,$5,0*
20,1,$1+$1,$4,$5,$6,$7,0*
20,1,$1+$1,$6,$7,$8,$9,0*
20,1,$1+$1,$8,$9,$2,$3,0*%
G04 Aperture macros list end*
%ADD10RoundRect,0.250000X-1.075000X0.362500X-1.075000X-0.362500X1.075000X-0.362500X1.075000X0.362500X0*%
%ADD11RoundRect,0.250000X0.362500X1.075000X-0.362500X1.075000X-0.362500X-1.075000X0.362500X-1.075000X0*%
%ADD12RoundRect,0.249999X0.450001X1.450001X-0.450001X1.450001X-0.450001X-1.450001X0.450001X-1.450001X0*%
%ADD13RoundRect,0.250000X1.000000X-1.400000X1.000000X1.400000X-1.000000X1.400000X-1.000000X-1.400000X0*%
%ADD14RoundRect,0.250000X-0.262500X-0.450000X0.262500X-0.450000X0.262500X0.450000X-0.262500X0.450000X0*%
%ADD15RoundRect,0.250000X-0.375000X-0.625000X0.375000X-0.625000X0.375000X0.625000X-0.375000X0.625000X0*%
%ADD16R,1.300000X1.300000*%
%ADD17R,2.000000X1.300000*%
%ADD18RoundRect,0.250000X-0.250000X-0.475000X0.250000X-0.475000X0.250000X0.475000X-0.250000X0.475000X0*%
%ADD19RoundRect,0.150000X-0.512500X-0.150000X0.512500X-0.150000X0.512500X0.150000X-0.512500X0.150000X0*%
%ADD20RoundRect,0.250000X0.262500X0.450000X-0.262500X0.450000X-0.262500X-0.450000X0.262500X-0.450000X0*%
%ADD21RoundRect,0.250000X-0.450000X0.262500X-0.450000X-0.262500X0.450000X-0.262500X0.450000X0.262500X0*%
%ADD22RoundRect,0.250000X0.450000X-0.262500X0.450000X0.262500X-0.450000X0.262500X-0.450000X-0.262500X0*%
%ADD23RoundRect,0.250000X-1.425000X0.362500X-1.425000X-0.362500X1.425000X-0.362500X1.425000X0.362500X0*%
%ADD24RoundRect,0.375000X-0.625000X-0.375000X0.625000X-0.375000X0.625000X0.375000X-0.625000X0.375000X0*%
%ADD25RoundRect,0.500000X-0.500000X-1.400000X0.500000X-1.400000X0.500000X1.400000X-0.500000X1.400000X0*%
%ADD26RoundRect,0.250000X-0.250000X0.250000X-0.250000X-0.250000X0.250000X-0.250000X0.250000X0.250000X0*%
%ADD27RoundRect,0.112500X0.187500X0.112500X-0.187500X0.112500X-0.187500X-0.112500X0.187500X-0.112500X0*%
%ADD28RoundRect,0.112500X-0.187500X-0.112500X0.187500X-0.112500X0.187500X0.112500X-0.187500X0.112500X0*%
%ADD29RoundRect,0.250000X0.375000X0.625000X-0.375000X0.625000X-0.375000X-0.625000X0.375000X-0.625000X0*%
%ADD30RoundRect,0.249999X-0.450001X-1.450001X0.450001X-1.450001X0.450001X1.450001X-0.450001X1.450001X0*%
%ADD31RoundRect,0.249999X1.450001X-0.450001X1.450001X0.450001X-1.450001X0.450001X-1.450001X-0.450001X0*%
%ADD32RoundRect,0.250002X-6.149998X1.499998X-6.149998X-1.499998X6.149998X-1.499998X6.149998X1.499998X0*%
%ADD33RoundRect,0.250000X-1.450000X0.312500X-1.450000X-0.312500X1.450000X-0.312500X1.450000X0.312500X0*%
%ADD34R,2.800000X2.200000*%
%ADD35R,2.800000X2.800000*%
%ADD36RoundRect,0.250000X-0.250000X-0.250000X0.250000X-0.250000X0.250000X0.250000X-0.250000X0.250000X0*%
%ADD37RoundRect,0.075000X-0.925000X-0.175000X0.925000X-0.175000X0.925000X0.175000X-0.925000X0.175000X0*%
G04 APERTURE END LIST*
D10*
%TO.C,R9*%
X81250000Y-77987500D03*
X81250000Y-82612500D03*
%TD*%
D11*
%TO.C,R8*%
X70312500Y-78080000D03*
X65687500Y-78080000D03*
%TD*%
%TO.C,R7*%
X69512500Y-86200000D03*
X64887500Y-86200000D03*
%TD*%
D12*
%TO.C,C21*%
X78000000Y-75400000D03*
X73900000Y-75400000D03*
%TD*%
D13*
%TO.C,D2*%
X96800000Y-106600000D03*
X103600000Y-106600000D03*
%TD*%
D14*
%TO.C,R20*%
X122087500Y-98400000D03*
X123912500Y-98400000D03*
%TD*%
D15*
%TO.C,D7*%
X121400000Y-100800000D03*
X124200000Y-100800000D03*
%TD*%
D16*
%TO.C,RV2*%
X114250000Y-120350000D03*
D17*
X119750000Y-121500000D03*
D16*
X114250000Y-122650000D03*
%TD*%
D18*
%TO.C,C15*%
X114050000Y-107500000D03*
X115950000Y-107500000D03*
%TD*%
%TO.C,C14*%
X113600000Y-115500000D03*
X115500000Y-115500000D03*
%TD*%
D19*
%TO.C,U1*%
X113725000Y-109550000D03*
X113725000Y-110500000D03*
X113725000Y-111450000D03*
X116000000Y-111450000D03*
X116000000Y-109550000D03*
%TD*%
D14*
%TO.C,R19*%
X113587500Y-117500000D03*
X115412500Y-117500000D03*
%TD*%
%TO.C,R18*%
X118087500Y-107500000D03*
X119912500Y-107500000D03*
%TD*%
D20*
%TO.C,R17*%
X111912500Y-122500000D03*
X110087500Y-122500000D03*
%TD*%
%TO.C,R16*%
X111912500Y-120000000D03*
X110087500Y-120000000D03*
%TD*%
D21*
%TO.C,R15*%
X106500000Y-107587500D03*
X106500000Y-109412500D03*
%TD*%
D14*
%TO.C,R14*%
X113587500Y-113500000D03*
X115412500Y-113500000D03*
%TD*%
D22*
%TO.C,R12*%
X109000000Y-109412500D03*
X109000000Y-107587500D03*
%TD*%
%TO.C,R11*%
X108000000Y-118412500D03*
X108000000Y-116587500D03*
%TD*%
%TO.C,R10*%
X108000000Y-122412500D03*
X108000000Y-120587500D03*
%TD*%
D23*
%TO.C,R1*%
X134500000Y-58537500D03*
X134500000Y-64462500D03*
%TD*%
D24*
%TO.C,Q2*%
X111850000Y-100200000D03*
X111850000Y-102500000D03*
D25*
X118150000Y-102500000D03*
D24*
X111850000Y-104800000D03*
%TD*%
D26*
%TO.C,D6*%
X109000000Y-111250000D03*
X109000000Y-113750000D03*
%TD*%
D27*
%TO.C,D5*%
X112050000Y-116500000D03*
X109950000Y-116500000D03*
%TD*%
D28*
%TO.C,D4*%
X115487500Y-135800000D03*
X117587500Y-135800000D03*
%TD*%
D12*
%TO.C,C13*%
X129050000Y-85000000D03*
X124950000Y-85000000D03*
%TD*%
%TO.C,C12*%
X129050000Y-89500000D03*
X124950000Y-89500000D03*
%TD*%
D29*
%TO.C,D3*%
X118025000Y-138200000D03*
X115225000Y-138200000D03*
%TD*%
D30*
%TO.C,C7*%
X116700000Y-80250000D03*
X120800000Y-80250000D03*
%TD*%
D20*
%TO.C,R13*%
X117437500Y-133400000D03*
X115612500Y-133400000D03*
%TD*%
D31*
%TO.C,C4*%
X77000000Y-96275000D03*
X77000000Y-92175000D03*
%TD*%
D32*
%TO.C,L2*%
X135500000Y-128850000D03*
X135500000Y-114150000D03*
%TD*%
D33*
%TO.C,R6*%
X85250000Y-82612500D03*
X85250000Y-86887500D03*
%TD*%
D30*
%TO.C,C10*%
X116700000Y-93000000D03*
X120800000Y-93000000D03*
%TD*%
D14*
%TO.C,R2*%
X87087500Y-68750000D03*
X88912500Y-68750000D03*
%TD*%
D31*
%TO.C,C11*%
X103500000Y-68800000D03*
X103500000Y-64700000D03*
%TD*%
%TO.C,C3*%
X71500000Y-96275000D03*
X71500000Y-92175000D03*
%TD*%
D21*
%TO.C,R4*%
X99000000Y-65087500D03*
X99000000Y-66912500D03*
%TD*%
D31*
%TO.C,C6*%
X88000000Y-96275000D03*
X88000000Y-92175000D03*
%TD*%
D34*
%TO.C,J8*%
X79500000Y-62500000D03*
X72100000Y-60500000D03*
D35*
X72100000Y-69900000D03*
%TD*%
D36*
%TO.C,D1*%
X93750000Y-68750000D03*
X96250000Y-68750000D03*
%TD*%
D22*
%TO.C,R3*%
X90750000Y-66912500D03*
X90750000Y-65087500D03*
%TD*%
D37*
%TO.C,L1*%
X119750000Y-136200000D03*
%TD*%
D30*
%TO.C,C9*%
X116700000Y-88750000D03*
X120800000Y-88750000D03*
%TD*%
%TO.C,C8*%
X116700000Y-84500000D03*
X120800000Y-84500000D03*
%TD*%
D21*
%TO.C,R5*%
X89000000Y-77837500D03*
X89000000Y-79662500D03*
%TD*%
D31*
%TO.C,C5*%
X82500000Y-96275000D03*
X82500000Y-92175000D03*
%TD*%
M02*
