%TF.GenerationSoftware,KiCad,Pcbnew,9.0.0*%
%TF.CreationDate,2025-06-27T03:49:42-07:00*%
%TF.ProjectId,PlasmaTransformer,506c6173-6d61-4547-9261-6e73666f726d,rev?*%
%TF.SameCoordinates,Original*%
%TF.FileFunction,Soldermask,Top*%
%TF.FilePolarity,Negative*%
%FSLAX46Y46*%
G04 Gerber Fmt 4.6, Leading zero omitted, Abs format (unit mm)*
G04 Created by KiCad (PCBNEW 9.0.0) date 2025-06-27 03:49:42*
%MOMM*%
%LPD*%
G01*
G04 APERTURE LIST*
G04 Aperture macros list*
%AMRoundRect*
0 Rectangle with rounded corners*
0 $1 Rounding radius*
0 $2 $3 $4 $5 $6 $7 $8 $9 X,Y pos of 4 corners*
0 Add a 4 corners polygon primitive as box body*
4,1,4,$2,$3,$4,$5,$6,$7,$8,$9,$2,$3,0*
0 Add four circle primitives for the rounded corners*
1,1,$1+$1,$2,$3*
1,1,$1+$1,$4,$5*
1,1,$1+$1,$6,$7*
1,1,$1+$1,$8,$9*
0 Add four rect primitives between the rounded corners*
20,1,$1+$1,$2,$3,$4,$5,0*
20,1,$1+$1,$4,$5,$6,$7,0*
20,1,$1+$1,$6,$7,$8,$9,0*
20,1,$1+$1,$8,$9,$2,$3,0*%
G04 Aperture macros list end*
%ADD10RoundRect,0.250000X-1.075000X0.362500X-1.075000X-0.362500X1.075000X-0.362500X1.075000X0.362500X0*%
%ADD11RoundRect,0.250000X0.362500X1.075000X-0.362500X1.075000X-0.362500X-1.075000X0.362500X-1.075000X0*%
%ADD12RoundRect,0.249999X0.450001X1.450001X-0.450001X1.450001X-0.450001X-1.450001X0.450001X-1.450001X0*%
%ADD13RoundRect,0.250000X1.000000X-1.400000X1.000000X1.400000X-1.000000X1.400000X-1.000000X-1.400000X0*%
%ADD14RoundRect,0.250000X0.750000X-0.600000X0.750000X0.600000X-0.750000X0.600000X-0.750000X-0.600000X0*%
%ADD15O,2.000000X1.700000*%
%ADD16RoundRect,0.250000X-0.262500X-0.450000X0.262500X-0.450000X0.262500X0.450000X-0.262500X0.450000X0*%
%ADD17RoundRect,0.250000X-0.375000X-0.625000X0.375000X-0.625000X0.375000X0.625000X-0.375000X0.625000X0*%
%ADD18R,1.300000X1.300000*%
%ADD19R,2.000000X1.300000*%
%ADD20RoundRect,0.250000X-0.250000X-0.475000X0.250000X-0.475000X0.250000X0.475000X-0.250000X0.475000X0*%
%ADD21R,1.700000X1.700000*%
%ADD22O,1.700000X1.700000*%
%ADD23RoundRect,0.150000X-0.512500X-0.150000X0.512500X-0.150000X0.512500X0.150000X-0.512500X0.150000X0*%
%ADD24RoundRect,0.250000X0.262500X0.450000X-0.262500X0.450000X-0.262500X-0.450000X0.262500X-0.450000X0*%
%ADD25RoundRect,0.250000X-0.450000X0.262500X-0.450000X-0.262500X0.450000X-0.262500X0.450000X0.262500X0*%
%ADD26RoundRect,0.250000X0.450000X-0.262500X0.450000X0.262500X-0.450000X0.262500X-0.450000X-0.262500X0*%
%ADD27RoundRect,0.250000X-1.425000X0.362500X-1.425000X-0.362500X1.425000X-0.362500X1.425000X0.362500X0*%
%ADD28RoundRect,0.375000X-0.625000X-0.375000X0.625000X-0.375000X0.625000X0.375000X-0.625000X0.375000X0*%
%ADD29RoundRect,0.500000X-0.500000X-1.400000X0.500000X-1.400000X0.500000X1.400000X-0.500000X1.400000X0*%
%ADD30RoundRect,0.250000X-0.250000X0.250000X-0.250000X-0.250000X0.250000X-0.250000X0.250000X0.250000X0*%
%ADD31RoundRect,0.112500X0.187500X0.112500X-0.187500X0.112500X-0.187500X-0.112500X0.187500X-0.112500X0*%
%ADD32RoundRect,0.112500X-0.187500X-0.112500X0.187500X-0.112500X0.187500X0.112500X-0.187500X0.112500X0*%
%ADD33C,2.000000*%
%ADD34RoundRect,0.250000X0.375000X0.625000X-0.375000X0.625000X-0.375000X-0.625000X0.375000X-0.625000X0*%
%ADD35O,3.800000X2.800000*%
%ADD36C,2.700000*%
%ADD37RoundRect,0.249999X-0.450001X-1.450001X0.450001X-1.450001X0.450001X1.450001X-0.450001X1.450001X0*%
%ADD38RoundRect,0.249999X1.450001X-0.450001X1.450001X0.450001X-1.450001X0.450001X-1.450001X-0.450001X0*%
%ADD39RoundRect,0.250002X-6.149998X1.499998X-6.149998X-1.499998X6.149998X-1.499998X6.149998X1.499998X0*%
%ADD40C,8.400000*%
%ADD41O,2.000000X3.500000*%
%ADD42O,3.300000X2.000000*%
%ADD43R,4.000000X2.000000*%
%ADD44C,1.600000*%
%ADD45RoundRect,0.250000X-1.450000X0.312500X-1.450000X-0.312500X1.450000X-0.312500X1.450000X0.312500X0*%
%ADD46RoundRect,0.200100X0.949900X-0.949900X0.949900X0.949900X-0.949900X0.949900X-0.949900X-0.949900X0*%
%ADD47C,2.500000*%
%ADD48C,4.500000*%
%ADD49R,2.000000X2.000000*%
%ADD50C,1.700000*%
%ADD51R,2.800000X2.200000*%
%ADD52R,2.800000X2.800000*%
%ADD53RoundRect,0.250000X-0.250000X-0.250000X0.250000X-0.250000X0.250000X0.250000X-0.250000X0.250000X0*%
%ADD54RoundRect,0.075000X-0.925000X-0.175000X0.925000X-0.175000X0.925000X0.175000X-0.925000X0.175000X0*%
%ADD55C,10.600000*%
%ADD56C,2.200000*%
%ADD57C,3.400000*%
%ADD58C,3.600000*%
%ADD59R,2.500000X4.500000*%
%ADD60O,2.500000X4.500000*%
G04 APERTURE END LIST*
D10*
%TO.C,R9*%
X81250000Y-77987500D03*
X81250000Y-82612500D03*
%TD*%
D11*
%TO.C,R8*%
X70312500Y-78080000D03*
X65687500Y-78080000D03*
%TD*%
%TO.C,R7*%
X69512500Y-86200000D03*
X64887500Y-86200000D03*
%TD*%
D12*
%TO.C,C21*%
X78000000Y-75400000D03*
X73900000Y-75400000D03*
%TD*%
D13*
%TO.C,D2*%
X96800000Y-106600000D03*
X103600000Y-106600000D03*
%TD*%
D14*
%TO.C,J2*%
X140975000Y-79250000D03*
D15*
X140975000Y-76750000D03*
%TD*%
D16*
%TO.C,R20*%
X122087500Y-98400000D03*
X123912500Y-98400000D03*
%TD*%
D17*
%TO.C,D7*%
X121400000Y-100800000D03*
X124200000Y-100800000D03*
%TD*%
D18*
%TO.C,RV2*%
X114250000Y-120350000D03*
D19*
X119750000Y-121500000D03*
D18*
X114250000Y-122650000D03*
%TD*%
D20*
%TO.C,C15*%
X114050000Y-107500000D03*
X115950000Y-107500000D03*
%TD*%
%TO.C,C14*%
X113600000Y-115500000D03*
X115500000Y-115500000D03*
%TD*%
D21*
%TO.C,J7*%
X57500000Y-100000000D03*
D22*
X57500000Y-102540000D03*
%TD*%
D21*
%TO.C,J6*%
X127000000Y-100000000D03*
D22*
X127000000Y-102540000D03*
%TD*%
D23*
%TO.C,U1*%
X113725000Y-109550000D03*
X113725000Y-110500000D03*
X113725000Y-111450000D03*
X116000000Y-111450000D03*
X116000000Y-109550000D03*
%TD*%
D16*
%TO.C,R19*%
X113587500Y-117500000D03*
X115412500Y-117500000D03*
%TD*%
%TO.C,R18*%
X118087500Y-107500000D03*
X119912500Y-107500000D03*
%TD*%
D24*
%TO.C,R17*%
X111912500Y-122500000D03*
X110087500Y-122500000D03*
%TD*%
%TO.C,R16*%
X111912500Y-120000000D03*
X110087500Y-120000000D03*
%TD*%
D25*
%TO.C,R15*%
X106500000Y-107587500D03*
X106500000Y-109412500D03*
%TD*%
D16*
%TO.C,R14*%
X113587500Y-113500000D03*
X115412500Y-113500000D03*
%TD*%
D26*
%TO.C,R12*%
X109000000Y-109412500D03*
X109000000Y-107587500D03*
%TD*%
%TO.C,R11*%
X108000000Y-118412500D03*
X108000000Y-116587500D03*
%TD*%
%TO.C,R10*%
X108000000Y-122412500D03*
X108000000Y-120587500D03*
%TD*%
D27*
%TO.C,R1*%
X134500000Y-58537500D03*
X134500000Y-64462500D03*
%TD*%
D28*
%TO.C,Q2*%
X111850000Y-100200000D03*
X111850000Y-102500000D03*
D29*
X118150000Y-102500000D03*
D28*
X111850000Y-104800000D03*
%TD*%
D30*
%TO.C,D6*%
X109000000Y-111250000D03*
X109000000Y-113750000D03*
%TD*%
D31*
%TO.C,D5*%
X112050000Y-116500000D03*
X109950000Y-116500000D03*
%TD*%
D32*
%TO.C,D4*%
X115487500Y-135800000D03*
X117587500Y-135800000D03*
%TD*%
D33*
%TO.C,C20*%
X67000000Y-124000000D03*
X67000000Y-114000000D03*
%TD*%
%TO.C,C19*%
X72500000Y-114000000D03*
X72500000Y-124000000D03*
%TD*%
%TO.C,C18*%
X78000000Y-124000000D03*
X78000000Y-114000000D03*
%TD*%
%TO.C,C17*%
X83500000Y-124000000D03*
X83500000Y-114000000D03*
%TD*%
%TO.C,C16*%
X89000000Y-124000000D03*
X89000000Y-114000000D03*
%TD*%
D12*
%TO.C,C13*%
X129050000Y-85000000D03*
X124950000Y-85000000D03*
%TD*%
%TO.C,C12*%
X129050000Y-89500000D03*
X124950000Y-89500000D03*
%TD*%
D33*
%TO.C,C1*%
X94500000Y-114000000D03*
X94500000Y-124000000D03*
%TD*%
D34*
%TO.C,D3*%
X118025000Y-138200000D03*
X115225000Y-138200000D03*
%TD*%
D35*
%TO.C,SW1*%
X111500000Y-70190000D03*
X111500000Y-74000000D03*
X111500000Y-77810000D03*
D36*
X114040000Y-57490000D03*
X108960000Y-57490000D03*
%TD*%
D37*
%TO.C,C7*%
X116700000Y-80250000D03*
X120800000Y-80250000D03*
%TD*%
D24*
%TO.C,R13*%
X117437500Y-133400000D03*
X115612500Y-133400000D03*
%TD*%
D38*
%TO.C,C4*%
X77000000Y-96275000D03*
X77000000Y-92175000D03*
%TD*%
D21*
%TO.C,JP2*%
X77000000Y-102225000D03*
D22*
X77000000Y-104765000D03*
%TD*%
D33*
%TO.C,J12*%
X95000000Y-140000000D03*
X95000000Y-131800001D03*
%TD*%
D39*
%TO.C,L2*%
X135500000Y-128850000D03*
X135500000Y-114150000D03*
%TD*%
D21*
%TO.C,JP4*%
X88000000Y-102225000D03*
D22*
X88000000Y-104765000D03*
%TD*%
D40*
%TO.C,H2*%
X100000000Y-80500000D03*
%TD*%
D41*
%TO.C,J1*%
X129000000Y-60500000D03*
X120000000Y-60500000D03*
D42*
X124500000Y-61500000D03*
D43*
X124500000Y-67500000D03*
D44*
X124500000Y-58500000D03*
%TD*%
D45*
%TO.C,R6*%
X85250000Y-82612500D03*
X85250000Y-86887500D03*
%TD*%
D46*
%TO.C,J5*%
X59500000Y-78000000D03*
D47*
X56960000Y-80540000D03*
X62040000Y-80540000D03*
X56960000Y-75460000D03*
X62040000Y-75460000D03*
%TD*%
D37*
%TO.C,C10*%
X116700000Y-93000000D03*
X120800000Y-93000000D03*
%TD*%
D16*
%TO.C,R2*%
X87087500Y-68750000D03*
X88912500Y-68750000D03*
%TD*%
D21*
%TO.C,J4*%
X113275000Y-90300000D03*
D22*
X110735000Y-90300000D03*
X113275000Y-87760000D03*
X110735000Y-87760000D03*
X113275000Y-85220000D03*
X110735000Y-85220000D03*
X113275000Y-82680000D03*
X110735000Y-82680000D03*
%TD*%
D48*
%TO.C,M1*%
X58750000Y-58750000D03*
X58750000Y-141250000D03*
X141250000Y-58750000D03*
X141250000Y-141250000D03*
%TD*%
D38*
%TO.C,C11*%
X103500000Y-68800000D03*
X103500000Y-64700000D03*
%TD*%
%TO.C,C3*%
X71500000Y-96275000D03*
X71500000Y-92175000D03*
%TD*%
D49*
%TO.C,C2*%
X124132323Y-76000000D03*
D33*
X129132323Y-76000000D03*
%TD*%
D25*
%TO.C,R4*%
X99000000Y-65087500D03*
X99000000Y-66912500D03*
%TD*%
D33*
%TO.C,J11*%
X105000000Y-140000000D03*
X105000000Y-131800001D03*
%TD*%
D38*
%TO.C,C6*%
X88000000Y-96275000D03*
X88000000Y-92175000D03*
%TD*%
D50*
%TO.C,J8*%
X75800000Y-61600000D03*
X75800000Y-68600000D03*
D51*
X79500000Y-62500000D03*
X72100000Y-60500000D03*
D52*
X72100000Y-69900000D03*
%TD*%
D53*
%TO.C,D1*%
X93750000Y-68750000D03*
X96250000Y-68750000D03*
%TD*%
D26*
%TO.C,R3*%
X90750000Y-66912500D03*
X90750000Y-65087500D03*
%TD*%
D54*
%TO.C,L1*%
X119750000Y-136200000D03*
%TD*%
D21*
%TO.C,JP1*%
X71500000Y-102225000D03*
D22*
X71500000Y-104765000D03*
%TD*%
D37*
%TO.C,C9*%
X116700000Y-88750000D03*
X120800000Y-88750000D03*
%TD*%
D55*
%TO.C,H1*%
X61000000Y-114500000D03*
%TD*%
D56*
%TO.C,RV1*%
X91750000Y-59000000D03*
X94250000Y-61500000D03*
X96750000Y-59000000D03*
%TD*%
D57*
%TO.C,HS1*%
X65750000Y-69500000D03*
X65750000Y-100500000D03*
X100000000Y-80400000D03*
X134250000Y-69500000D03*
X134250000Y-100500000D03*
%TD*%
D37*
%TO.C,C8*%
X116700000Y-84500000D03*
X120800000Y-84500000D03*
%TD*%
D21*
%TO.C,JP3*%
X82500000Y-102225000D03*
D22*
X82500000Y-104765000D03*
%TD*%
D25*
%TO.C,R5*%
X89000000Y-77837500D03*
X89000000Y-79662500D03*
%TD*%
D38*
%TO.C,C5*%
X82500000Y-96275000D03*
X82500000Y-92175000D03*
%TD*%
D58*
%TO.C,Q1*%
X100000000Y-80430000D03*
D59*
X94550000Y-100290000D03*
D60*
X100000000Y-100290000D03*
X105450000Y-100290000D03*
%TD*%
D46*
%TO.C,J3*%
X59500000Y-92000000D03*
D47*
X56960000Y-94540000D03*
X62040000Y-94540000D03*
X56960000Y-89460000D03*
X62040000Y-89460000D03*
%TD*%
G36*
X141943039Y-112269685D02*
G01*
X141988794Y-112322489D01*
X142000000Y-112374000D01*
X142000000Y-116126000D01*
X141980315Y-116193039D01*
X141927511Y-116238794D01*
X141876000Y-116250000D01*
X122624000Y-116250000D01*
X122556961Y-116230315D01*
X122511206Y-116177511D01*
X122500000Y-116126000D01*
X122500000Y-112374000D01*
X122519685Y-112306961D01*
X122572489Y-112261206D01*
X122624000Y-112250000D01*
X141876000Y-112250000D01*
X141943039Y-112269685D01*
G37*
G36*
X141943039Y-126769685D02*
G01*
X141988794Y-126822489D01*
X142000000Y-126874000D01*
X142000000Y-130626000D01*
X141980315Y-130693039D01*
X141927511Y-130738794D01*
X141876000Y-130750000D01*
X122624000Y-130750000D01*
X122556961Y-130730315D01*
X122511206Y-130677511D01*
X122500000Y-130626000D01*
X122500000Y-126874000D01*
X122519685Y-126806961D01*
X122572489Y-126761206D01*
X122624000Y-126750000D01*
X141876000Y-126750000D01*
X141943039Y-126769685D01*
G37*
M02*
