%TF.GenerationSoftware,KiCad,Pcbnew,9.0.0*%
%TF.CreationDate,2025-07-31T17:57:17-04:00*%
%TF.ProjectId,PlasmaTransformer,506c6173-6d61-4547-9261-6e73666f726d,4*%
%TF.SameCoordinates,Original*%
%TF.FileFunction,Copper,L1,Top*%
%TF.FilePolarity,Positive*%
%FSLAX46Y46*%
G04 Gerber Fmt 4.6, Leading zero omitted, Abs format (unit mm)*
G04 Created by KiCad (PCBNEW 9.0.0) date 2025-07-31 17:57:17*
%MOMM*%
%LPD*%
G01*
G04 APERTURE LIST*
G04 Aperture macros list*
%AMRoundRect*
0 Rectangle with rounded corners*
0 $1 Rounding radius*
0 $2 $3 $4 $5 $6 $7 $8 $9 X,Y pos of 4 corners*
0 Add a 4 corners polygon primitive as box body*
4,1,4,$2,$3,$4,$5,$6,$7,$8,$9,$2,$3,0*
0 Add four circle primitives for the rounded corners*
1,1,$1+$1,$2,$3*
1,1,$1+$1,$4,$5*
1,1,$1+$1,$6,$7*
1,1,$1+$1,$8,$9*
0 Add four rect primitives between the rounded corners*
20,1,$1+$1,$2,$3,$4,$5,0*
20,1,$1+$1,$4,$5,$6,$7,0*
20,1,$1+$1,$6,$7,$8,$9,0*
20,1,$1+$1,$8,$9,$2,$3,0*%
G04 Aperture macros list end*
%TA.AperFunction,EtchedComponent*%
%ADD10C,0.250000*%
%TD*%
%TA.AperFunction,ComponentPad*%
%ADD11C,2.050000*%
%TD*%
%TA.AperFunction,ComponentPad*%
%ADD12C,2.250000*%
%TD*%
%TA.AperFunction,SMDPad,CuDef*%
%ADD13RoundRect,0.400000X1.100000X0.100000X-1.100000X0.100000X-1.100000X-0.100000X1.100000X-0.100000X0*%
%TD*%
%TA.AperFunction,ComponentPad*%
%ADD14C,2.000000*%
%TD*%
%TA.AperFunction,ComponentPad*%
%ADD15C,2.200000*%
%TD*%
%TA.AperFunction,SMDPad,CuDef*%
%ADD16R,2.800000X2.200000*%
%TD*%
%TA.AperFunction,SMDPad,CuDef*%
%ADD17R,2.800000X2.800000*%
%TD*%
%TA.AperFunction,ComponentPad*%
%ADD18O,3.800000X2.800000*%
%TD*%
%TA.AperFunction,ComponentPad*%
%ADD19C,2.700000*%
%TD*%
%TA.AperFunction,SMDPad,CuDef*%
%ADD20RoundRect,0.250000X-0.312500X-1.450000X0.312500X-1.450000X0.312500X1.450000X-0.312500X1.450000X0*%
%TD*%
%TA.AperFunction,SMDPad,CuDef*%
%ADD21RoundRect,0.250000X0.375000X0.625000X-0.375000X0.625000X-0.375000X-0.625000X0.375000X-0.625000X0*%
%TD*%
%TA.AperFunction,SMDPad,CuDef*%
%ADD22RoundRect,0.112500X-0.187500X-0.112500X0.187500X-0.112500X0.187500X0.112500X-0.187500X0.112500X0*%
%TD*%
%TA.AperFunction,SMDPad,CuDef*%
%ADD23RoundRect,0.249999X-0.450001X-1.450001X0.450001X-1.450001X0.450001X1.450001X-0.450001X1.450001X0*%
%TD*%
%TA.AperFunction,SMDPad,CuDef*%
%ADD24RoundRect,0.250000X0.262500X0.450000X-0.262500X0.450000X-0.262500X-0.450000X0.262500X-0.450000X0*%
%TD*%
%TA.AperFunction,SMDPad,CuDef*%
%ADD25RoundRect,0.249999X1.450001X-0.450001X1.450001X0.450001X-1.450001X0.450001X-1.450001X-0.450001X0*%
%TD*%
%TA.AperFunction,SMDPad,CuDef*%
%ADD26RoundRect,0.250000X1.000000X0.900000X-1.000000X0.900000X-1.000000X-0.900000X1.000000X-0.900000X0*%
%TD*%
%TA.AperFunction,SMDPad,CuDef*%
%ADD27R,4.495800X4.394200*%
%TD*%
%TA.AperFunction,ComponentPad*%
%ADD28RoundRect,0.249999X-1.025001X-1.025001X1.025001X-1.025001X1.025001X1.025001X-1.025001X1.025001X0*%
%TD*%
%TA.AperFunction,SMDPad,CuDef*%
%ADD29RoundRect,0.250000X-1.000000X-0.900000X1.000000X-0.900000X1.000000X0.900000X-1.000000X0.900000X0*%
%TD*%
%TA.AperFunction,SMDPad,CuDef*%
%ADD30RoundRect,0.250000X1.000000X-1.400000X1.000000X1.400000X-1.000000X1.400000X-1.000000X-1.400000X0*%
%TD*%
%TA.AperFunction,ComponentPad*%
%ADD31R,4.000000X2.000000*%
%TD*%
%TA.AperFunction,ComponentPad*%
%ADD32O,3.300000X2.000000*%
%TD*%
%TA.AperFunction,ComponentPad*%
%ADD33O,2.000000X3.500000*%
%TD*%
%TA.AperFunction,SMDPad,CuDef*%
%ADD34RoundRect,0.250000X-1.450000X0.312500X-1.450000X-0.312500X1.450000X-0.312500X1.450000X0.312500X0*%
%TD*%
%TA.AperFunction,ComponentPad*%
%ADD35R,1.700000X1.700000*%
%TD*%
%TA.AperFunction,ComponentPad*%
%ADD36O,1.700000X1.700000*%
%TD*%
%TA.AperFunction,SMDPad,CuDef*%
%ADD37RoundRect,0.250000X-0.262500X-0.450000X0.262500X-0.450000X0.262500X0.450000X-0.262500X0.450000X0*%
%TD*%
%TA.AperFunction,SMDPad,CuDef*%
%ADD38RoundRect,0.250000X-1.100000X0.325000X-1.100000X-0.325000X1.100000X-0.325000X1.100000X0.325000X0*%
%TD*%
%TA.AperFunction,ComponentPad*%
%ADD39RoundRect,0.250000X-1.125000X-1.125000X1.125000X-1.125000X1.125000X1.125000X-1.125000X1.125000X0*%
%TD*%
%TA.AperFunction,ComponentPad*%
%ADD40R,2.000000X2.000000*%
%TD*%
%TA.AperFunction,SMDPad,CuDef*%
%ADD41RoundRect,0.250000X-0.450000X0.262500X-0.450000X-0.262500X0.450000X-0.262500X0.450000X0.262500X0*%
%TD*%
%TA.AperFunction,SMDPad,CuDef*%
%ADD42RoundRect,0.249999X0.450001X1.450001X-0.450001X1.450001X-0.450001X-1.450001X0.450001X-1.450001X0*%
%TD*%
%TA.AperFunction,ComponentPad*%
%ADD43RoundRect,0.250000X0.750000X-0.600000X0.750000X0.600000X-0.750000X0.600000X-0.750000X-0.600000X0*%
%TD*%
%TA.AperFunction,ComponentPad*%
%ADD44O,2.000000X1.700000*%
%TD*%
%TA.AperFunction,SMDPad,CuDef*%
%ADD45RoundRect,0.250000X0.325000X0.650000X-0.325000X0.650000X-0.325000X-0.650000X0.325000X-0.650000X0*%
%TD*%
%TA.AperFunction,SMDPad,CuDef*%
%ADD46RoundRect,0.250000X-0.250000X-0.250000X0.250000X-0.250000X0.250000X0.250000X-0.250000X0.250000X0*%
%TD*%
%TA.AperFunction,SMDPad,CuDef*%
%ADD47RoundRect,0.250000X0.450000X-0.262500X0.450000X0.262500X-0.450000X0.262500X-0.450000X-0.262500X0*%
%TD*%
%TA.AperFunction,SMDPad,CuDef*%
%ADD48RoundRect,0.062500X-0.937500X-0.062500X0.937500X-0.062500X0.937500X0.062500X-0.937500X0.062500X0*%
%TD*%
%TA.AperFunction,SMDPad,CuDef*%
%ADD49RoundRect,0.075000X-0.925000X-0.175000X0.925000X-0.175000X0.925000X0.175000X-0.925000X0.175000X0*%
%TD*%
%TA.AperFunction,ComponentPad*%
%ADD50C,10.600000*%
%TD*%
%TA.AperFunction,SMDPad,CuDef*%
%ADD51RoundRect,0.250000X-1.075000X0.362500X-1.075000X-0.362500X1.075000X-0.362500X1.075000X0.362500X0*%
%TD*%
%TA.AperFunction,SMDPad,CuDef*%
%ADD52RoundRect,0.250000X0.362500X1.075000X-0.362500X1.075000X-0.362500X-1.075000X0.362500X-1.075000X0*%
%TD*%
%TA.AperFunction,SMDPad,CuDef*%
%ADD53RoundRect,0.150000X-0.450000X-0.350000X0.450000X-0.350000X0.450000X0.350000X-0.450000X0.350000X0*%
%TD*%
%TA.AperFunction,SMDPad,CuDef*%
%ADD54RoundRect,0.165000X-0.385000X-0.685000X0.385000X-0.685000X0.385000X0.685000X-0.385000X0.685000X0*%
%TD*%
%TA.AperFunction,ComponentPad*%
%ADD55R,2.500000X4.500000*%
%TD*%
%TA.AperFunction,ComponentPad*%
%ADD56O,2.500000X4.500000*%
%TD*%
%TA.AperFunction,ViaPad*%
%ADD57C,1.000000*%
%TD*%
%TA.AperFunction,ViaPad*%
%ADD58C,0.600000*%
%TD*%
%TA.AperFunction,ViaPad*%
%ADD59C,0.500000*%
%TD*%
%TA.AperFunction,Conductor*%
%ADD60C,2.000000*%
%TD*%
%TA.AperFunction,Conductor*%
%ADD61C,1.000000*%
%TD*%
%TA.AperFunction,Conductor*%
%ADD62C,3.000000*%
%TD*%
%TA.AperFunction,Conductor*%
%ADD63C,0.250000*%
%TD*%
%TA.AperFunction,Conductor*%
%ADD64C,0.500000*%
%TD*%
%TA.AperFunction,Conductor*%
%ADD65C,0.200000*%
%TD*%
%TA.AperFunction,Conductor*%
%ADD66C,2.500000*%
%TD*%
G04 APERTURE END LIST*
D10*
%TO.C,L1*%
X118050000Y-115100000D02*
X118550000Y-115100000D01*
X118050000Y-115600000D02*
X118050000Y-115100000D01*
X103050000Y-115600000D02*
G75*
G02*
X117550000Y-115600000I7250000J0D01*
G01*
X103550000Y-115600000D02*
G75*
G02*
X117050000Y-115600000I6750000J0D01*
G01*
X104050000Y-115600000D02*
G75*
G02*
X116550000Y-115600000I6250000J0D01*
G01*
X104550000Y-115600000D02*
G75*
G02*
X116050000Y-115600000I5750000J0D01*
G01*
X105050000Y-115600000D02*
G75*
G02*
X115550000Y-115600000I5250000J0D01*
G01*
X105550000Y-115600000D02*
G75*
G02*
X114450000Y-115600000I4450000J10112D01*
G01*
X115550000Y-115600000D02*
G75*
G02*
X105550000Y-115600000I-5000000J-25000D01*
G01*
X116050000Y-115600000D02*
G75*
G02*
X105050000Y-115600000I-5500000J0D01*
G01*
X116550000Y-115600000D02*
G75*
G02*
X104550000Y-115600000I-6000000J0D01*
G01*
X117050000Y-115600000D02*
G75*
G02*
X104050000Y-115600000I-6500000J0D01*
G01*
X117550000Y-115600000D02*
G75*
G02*
X103550000Y-115600000I-7000000J0D01*
G01*
X118050000Y-115600000D02*
G75*
G02*
X103050000Y-115600000I-7500000J0D01*
G01*
%TD*%
D11*
%TO.P,J5,1,In*%
%TO.N,Net-(J5-In)*%
X59500000Y-78000000D03*
D12*
%TO.P,J5,2,Ext*%
%TO.N,GND*%
X56960000Y-80540000D03*
X62040000Y-80540000D03*
X56960000Y-75460000D03*
X62040000Y-75460000D03*
%TD*%
D11*
%TO.P,J3,1,In*%
%TO.N,Net-(J3-In)*%
X59500000Y-92000000D03*
D12*
%TO.P,J3,2,Ext*%
%TO.N,GND*%
X56960000Y-94540000D03*
X62040000Y-94540000D03*
X56960000Y-89460000D03*
X62040000Y-89460000D03*
%TD*%
D13*
%TO.P,T2,1,AB*%
%TO.N,Net-(D6-A)*%
X110800000Y-138600000D03*
%TO.P,T2,2,AA*%
%TO.N,Net-(T1-Primary)*%
X110800000Y-133600000D03*
%TO.P,T2,3,nc*%
%TO.N,unconnected-(T2-nc-Pad3)*%
X130800000Y-133050000D03*
%TO.P,T2,4,SB*%
%TO.N,Net-(T1-Secondary)*%
X130800000Y-139150000D03*
%TD*%
D14*
%TO.P,J12,1,Pin_1*%
%TO.N,Net-(J12-Pin_1)*%
X95000000Y-129250000D03*
X95000000Y-137449999D03*
%TD*%
%TO.P,J11,1,Pin_1*%
%TO.N,/DRAIN*%
X105000000Y-129250000D03*
X105000000Y-137449999D03*
%TD*%
D15*
%TO.P,RV1,1,1*%
%TO.N,Net-(R3-Pad2)*%
X91750000Y-59000000D03*
%TO.P,RV1,2,2*%
%TO.N,Net-(C11-Pad2)*%
X94250000Y-61500000D03*
%TO.P,RV1,3,3*%
%TO.N,Net-(R4-Pad1)*%
X96750000Y-59000000D03*
%TD*%
D16*
%TO.P,J8,R*%
%TO.N,unconnected-(J8-PadR)*%
X79500000Y-62500000D03*
%TO.P,J8,S*%
%TO.N,GND*%
X72100000Y-60500000D03*
D17*
%TO.P,J8,T*%
%TO.N,Net-(C21-Pad2)*%
X72100000Y-69900000D03*
%TD*%
D18*
%TO.P,SW1,1,A*%
%TO.N,Net-(SW1-A)*%
X111500000Y-70190000D03*
%TO.P,SW1,2,B*%
%TO.N,Net-(J2-Pin_1)*%
X111500000Y-74000000D03*
%TO.P,SW1,3,C*%
%TO.N,unconnected-(SW1-C-Pad3)*%
X111500000Y-77810000D03*
D19*
%TO.P,SW1,M1*%
%TO.N,N/C*%
X114040000Y-57490000D03*
%TO.P,SW1,M2*%
X108960000Y-57490000D03*
%TD*%
D20*
%TO.P,GD1,1*%
%TO.N,Net-(D5-K)*%
X116462500Y-142800000D03*
%TO.P,GD1,2*%
%TO.N,Net-(T1-Primary)*%
X120737500Y-142800000D03*
%TD*%
D21*
%TO.P,D3,1,K*%
%TO.N,Net-(D3-K)*%
X111825000Y-117600000D03*
%TO.P,D3,2,A*%
%TO.N,Net-(D3-A)*%
X109025000Y-117600000D03*
%TD*%
D22*
%TO.P,D4,1,K*%
%TO.N,Net-(D3-A)*%
X109287500Y-115200000D03*
%TO.P,D4,2,A*%
%TO.N,Net-(D3-K)*%
X111387500Y-115200000D03*
%TD*%
D23*
%TO.P,C7,1*%
%TO.N,Net-(J4-Pin_7)*%
X116700000Y-80250000D03*
%TO.P,C7,2*%
%TO.N,/DRAIN*%
X120800000Y-80250000D03*
%TD*%
D24*
%TO.P,R13,1*%
%TO.N,Net-(L1-Pad2)*%
X111237500Y-112800000D03*
%TO.P,R13,2*%
%TO.N,Net-(D3-A)*%
X109412500Y-112800000D03*
%TD*%
D25*
%TO.P,C4,1*%
%TO.N,Net-(J6-Pin_4)*%
X76500000Y-96275000D03*
%TO.P,C4,2*%
%TO.N,GND*%
X76500000Y-92175000D03*
%TD*%
D26*
%TO.P,D5,1,K*%
%TO.N,Net-(D5-K)*%
X83650000Y-136500000D03*
%TO.P,D5,2,A*%
%TO.N,Net-(D5-A)*%
X79350000Y-136500000D03*
%TD*%
D27*
%TO.P,L2,1,1*%
%TO.N,Net-(J2-Pin_1)*%
X128149998Y-116200036D03*
%TO.P,L2,2,2*%
%TO.N,/DRAIN*%
X128149998Y-126799964D03*
%TO.P,L2,3*%
%TO.N,N/C*%
X141850002Y-121500000D03*
%TD*%
D28*
%TO.P,TP1,1,1*%
%TO.N,Net-(T1-Secondary)*%
X130900000Y-142900000D03*
%TD*%
D29*
%TO.P,D6,1,K*%
%TO.N,Net-(D6-K)*%
X79350000Y-142250000D03*
%TO.P,D6,2,A*%
%TO.N,Net-(D6-A)*%
X83650000Y-142250000D03*
%TD*%
D30*
%TO.P,D2,1,A1*%
%TO.N,/GATE*%
X96800000Y-106600000D03*
%TO.P,D2,2,A2*%
%TO.N,GND*%
X103600000Y-106600000D03*
%TD*%
D31*
%TO.P,J1,1*%
%TO.N,Net-(SW1-A)*%
X124500000Y-67500000D03*
D32*
%TO.P,J1,2*%
%TO.N,GND*%
X124500000Y-61500000D03*
D33*
%TO.P,J1,MP1*%
%TO.N,N/C*%
X120000000Y-60500000D03*
%TO.P,J1,MP2*%
X129000000Y-60500000D03*
%TD*%
D34*
%TO.P,R6,1*%
%TO.N,/GATE*%
X88500000Y-100362500D03*
%TO.P,R6,2*%
%TO.N,Net-(D6-K)*%
X88500000Y-104637500D03*
%TD*%
D23*
%TO.P,C10,1*%
%TO.N,Net-(J4-Pin_1)*%
X116700000Y-93000000D03*
%TO.P,C10,2*%
%TO.N,/DRAIN*%
X120800000Y-93000000D03*
%TD*%
D35*
%TO.P,J6,1,Pin_1*%
%TO.N,Net-(D6-K)*%
X73700000Y-104675000D03*
D36*
%TO.P,J6,2,Pin_2*%
%TO.N,Net-(J6-Pin_2)*%
X73700000Y-102135000D03*
%TO.P,J6,3,Pin_3*%
%TO.N,Net-(D6-K)*%
X76240000Y-104675000D03*
%TO.P,J6,4,Pin_4*%
%TO.N,Net-(J6-Pin_4)*%
X76240000Y-102135000D03*
%TO.P,J6,5,Pin_5*%
%TO.N,Net-(D6-K)*%
X78780000Y-104675000D03*
%TO.P,J6,6,Pin_6*%
%TO.N,Net-(J6-Pin_6)*%
X78780000Y-102135000D03*
%TO.P,J6,7,Pin_7*%
%TO.N,Net-(D6-K)*%
X81320000Y-104675000D03*
%TO.P,J6,8,Pin_8*%
%TO.N,Net-(J6-Pin_8)*%
X81320000Y-102135000D03*
%TD*%
D37*
%TO.P,R2,1*%
%TO.N,Net-(J2-Pin_1)*%
X87087500Y-68750000D03*
%TO.P,R2,2*%
%TO.N,Net-(D1-K)*%
X88912500Y-68750000D03*
%TD*%
D35*
%TO.P,J4,1,Pin_1*%
%TO.N,Net-(J4-Pin_1)*%
X113275000Y-90300000D03*
D36*
%TO.P,J4,2,Pin_2*%
%TO.N,/GATE*%
X110735000Y-90300000D03*
%TO.P,J4,3,Pin_3*%
%TO.N,Net-(J4-Pin_3)*%
X113275000Y-87760000D03*
%TO.P,J4,4,Pin_4*%
%TO.N,/GATE*%
X110735000Y-87760000D03*
%TO.P,J4,5,Pin_5*%
%TO.N,Net-(J4-Pin_5)*%
X113275000Y-85220000D03*
%TO.P,J4,6,Pin_6*%
%TO.N,/GATE*%
X110735000Y-85220000D03*
%TO.P,J4,7,Pin_7*%
%TO.N,Net-(J4-Pin_7)*%
X113275000Y-82680000D03*
%TO.P,J4,8,Pin_8*%
%TO.N,/GATE*%
X110735000Y-82680000D03*
%TD*%
D25*
%TO.P,C11,1*%
%TO.N,GND*%
X103500000Y-68800000D03*
%TO.P,C11,2*%
%TO.N,Net-(C11-Pad2)*%
X103500000Y-64700000D03*
%TD*%
D38*
%TO.P,C14,1*%
%TO.N,Net-(J12-Pin_1)*%
X62500000Y-124725000D03*
%TO.P,C14,2*%
%TO.N,Net-(C14-Pad2)*%
X62500000Y-127675000D03*
%TD*%
D14*
%TO.P,C18,1*%
%TO.N,Net-(J12-Pin_1)*%
X78000000Y-121450000D03*
%TO.P,C18,2*%
%TO.N,Net-(D6-K)*%
X78000000Y-111450000D03*
%TD*%
D39*
%TO.P,TP2,1,1*%
%TO.N,Net-(J2-Pin_1)*%
X142500000Y-95000000D03*
%TD*%
D25*
%TO.P,C3,1*%
%TO.N,Net-(J6-Pin_2)*%
X71000000Y-96275000D03*
%TO.P,C3,2*%
%TO.N,GND*%
X71000000Y-92175000D03*
%TD*%
D40*
%TO.P,C2,1*%
%TO.N,Net-(J2-Pin_1)*%
X124132323Y-76000000D03*
D14*
%TO.P,C2,2*%
%TO.N,GND*%
X129132323Y-76000000D03*
%TD*%
D41*
%TO.P,R4,1*%
%TO.N,Net-(R4-Pad1)*%
X99000000Y-65087500D03*
%TO.P,R4,2*%
%TO.N,GND*%
X99000000Y-66912500D03*
%TD*%
D42*
%TO.P,C21,1*%
%TO.N,Net-(C21-Pad1)*%
X78000000Y-75400000D03*
%TO.P,C21,2*%
%TO.N,Net-(C21-Pad2)*%
X73900000Y-75400000D03*
%TD*%
D14*
%TO.P,C16,1*%
%TO.N,Net-(J12-Pin_1)*%
X89000000Y-121450000D03*
%TO.P,C16,2*%
%TO.N,Net-(D6-K)*%
X89000000Y-111450000D03*
%TD*%
%TO.P,C1,1*%
%TO.N,Net-(J12-Pin_1)*%
X94500000Y-121450000D03*
%TO.P,C1,2*%
%TO.N,Net-(D6-K)*%
X94500000Y-111450000D03*
%TD*%
D26*
%TO.P,D8,1,K*%
%TO.N,Net-(D5-K)*%
X76150000Y-139250000D03*
%TO.P,D8,2,A*%
%TO.N,Net-(D6-K)*%
X71850000Y-139250000D03*
%TD*%
D14*
%TO.P,C17,1*%
%TO.N,Net-(J12-Pin_1)*%
X83500000Y-121450000D03*
%TO.P,C17,2*%
%TO.N,Net-(D6-K)*%
X83500000Y-111450000D03*
%TD*%
D43*
%TO.P,J2,1,Pin_1*%
%TO.N,Net-(J2-Pin_1)*%
X140975000Y-79250000D03*
D44*
%TO.P,J2,2,Pin_2*%
%TO.N,GND*%
X140975000Y-76750000D03*
%TD*%
D25*
%TO.P,C6,1*%
%TO.N,Net-(J6-Pin_8)*%
X87500000Y-96275000D03*
%TO.P,C6,2*%
%TO.N,GND*%
X87500000Y-92175000D03*
%TD*%
D45*
%TO.P,C24,1*%
%TO.N,Net-(D5-K)*%
X114575000Y-142200000D03*
%TO.P,C24,2*%
%TO.N,Net-(D6-A)*%
X111625000Y-142200000D03*
%TD*%
D46*
%TO.P,D1,1,K*%
%TO.N,Net-(D1-K)*%
X93750000Y-68750000D03*
%TO.P,D1,2,A*%
%TO.N,GND*%
X96250000Y-68750000D03*
%TD*%
D47*
%TO.P,R3,1*%
%TO.N,Net-(D1-K)*%
X90750000Y-66912500D03*
%TO.P,R3,2*%
%TO.N,Net-(R3-Pad2)*%
X90750000Y-65087500D03*
%TD*%
D48*
%TO.P,L1,1,1*%
%TO.N,Net-(D3-K)*%
X118900000Y-115100000D03*
D49*
%TO.P,L1,2,2*%
%TO.N,Net-(L1-Pad2)*%
X113550000Y-115600000D03*
%TD*%
D38*
%TO.P,C15,1*%
%TO.N,Net-(C14-Pad2)*%
X62500000Y-129725000D03*
%TO.P,C15,2*%
%TO.N,Net-(C15-Pad2)*%
X62500000Y-132675000D03*
%TD*%
D23*
%TO.P,C9,1*%
%TO.N,Net-(J4-Pin_3)*%
X116700000Y-88750000D03*
%TO.P,C9,2*%
%TO.N,/DRAIN*%
X120800000Y-88750000D03*
%TD*%
D14*
%TO.P,C19,1*%
%TO.N,Net-(J12-Pin_1)*%
X72500000Y-121450000D03*
%TO.P,C19,2*%
%TO.N,Net-(D6-K)*%
X72500000Y-111450000D03*
%TD*%
D50*
%TO.P,H1,1,1*%
%TO.N,Net-(D6-K)*%
X61000000Y-111950000D03*
%TD*%
D42*
%TO.P,C13,1*%
%TO.N,GND*%
X129050000Y-85000000D03*
%TO.P,C13,2*%
%TO.N,Net-(J2-Pin_1)*%
X124950000Y-85000000D03*
%TD*%
D14*
%TO.P,C20,1*%
%TO.N,Net-(J12-Pin_1)*%
X67000000Y-121450000D03*
%TO.P,C20,2*%
%TO.N,Net-(D6-K)*%
X67000000Y-111450000D03*
%TD*%
D51*
%TO.P,R9,1*%
%TO.N,Net-(C21-Pad1)*%
X81250000Y-77987500D03*
%TO.P,R9,2*%
%TO.N,/GATE*%
X81250000Y-82612500D03*
%TD*%
D23*
%TO.P,C8,1*%
%TO.N,Net-(J4-Pin_5)*%
X116700000Y-84500000D03*
%TO.P,C8,2*%
%TO.N,/DRAIN*%
X120800000Y-84500000D03*
%TD*%
D39*
%TO.P,TP3,1,1*%
%TO.N,/DRAIN*%
X142500000Y-133000000D03*
%TD*%
D41*
%TO.P,R5,1*%
%TO.N,Net-(C11-Pad2)*%
X89000000Y-77837500D03*
%TO.P,R5,2*%
%TO.N,/GATE*%
X89000000Y-79662500D03*
%TD*%
D25*
%TO.P,C5,1*%
%TO.N,Net-(J6-Pin_6)*%
X82000000Y-96275000D03*
%TO.P,C5,2*%
%TO.N,GND*%
X82000000Y-92175000D03*
%TD*%
D52*
%TO.P,R8,1*%
%TO.N,/GATE*%
X70312500Y-78080000D03*
%TO.P,R8,2*%
%TO.N,Net-(J5-In)*%
X65687500Y-78080000D03*
%TD*%
D38*
%TO.P,C23,1*%
%TO.N,Net-(D5-A)*%
X66000000Y-137675000D03*
%TO.P,C23,2*%
%TO.N,Net-(D6-K)*%
X66000000Y-140625000D03*
%TD*%
D53*
%TO.P,T1,1,Primary*%
%TO.N,Net-(T1-Primary)*%
X123525000Y-137750000D03*
%TO.P,T1,2,AB*%
%TO.N,Net-(D6-A)*%
X123525000Y-135850000D03*
D54*
%TO.P,T1,3,Secondary*%
%TO.N,Net-(T1-Secondary)*%
X130875000Y-136800000D03*
%TD*%
D55*
%TO.P,Q1,1,G*%
%TO.N,/GATE*%
X94550000Y-100290000D03*
D56*
%TO.P,Q1,2,D*%
%TO.N,/DRAIN*%
X100000000Y-100290000D03*
%TO.P,Q1,3,S*%
%TO.N,GND*%
X105450000Y-100290000D03*
%TD*%
D52*
%TO.P,R7,1*%
%TO.N,/DRAIN*%
X69512500Y-86200000D03*
%TO.P,R7,2*%
%TO.N,Net-(J3-In)*%
X64887500Y-86200000D03*
%TD*%
D29*
%TO.P,D7,1,K*%
%TO.N,Net-(D5-A)*%
X71850000Y-133750000D03*
%TO.P,D7,2,A*%
%TO.N,Net-(D6-A)*%
X76150000Y-133750000D03*
%TD*%
D38*
%TO.P,C22,1*%
%TO.N,Net-(C15-Pad2)*%
X66000000Y-132675000D03*
%TO.P,C22,2*%
%TO.N,Net-(D5-A)*%
X66000000Y-135625000D03*
%TD*%
D42*
%TO.P,C12,1*%
%TO.N,GND*%
X129050000Y-89500000D03*
%TO.P,C12,2*%
%TO.N,Net-(J2-Pin_1)*%
X124950000Y-89500000D03*
%TD*%
D57*
%TO.N,GND*%
X68500000Y-60500000D03*
D58*
X131000000Y-85000000D03*
D57*
X87500000Y-89500000D03*
X76500000Y-89500000D03*
X100250000Y-68750000D03*
X71000000Y-89500000D03*
D58*
X131000000Y-89500000D03*
D57*
X82000000Y-89500000D03*
D59*
%TO.N,Net-(D6-K)*%
X65900000Y-143100000D03*
D58*
%TO.N,Net-(D3-K)*%
X113425000Y-117600000D03*
X118900000Y-115100000D03*
D57*
%TO.N,Net-(C11-Pad2)*%
X103500000Y-61750000D03*
D58*
%TO.N,Net-(D5-K)*%
X114500000Y-144200000D03*
X86050000Y-136500000D03*
%TO.N,Net-(D6-A)*%
X120200000Y-135900000D03*
X110600000Y-140300000D03*
D57*
%TO.N,/DRAIN*%
X66700000Y-92000000D03*
%TD*%
D60*
%TO.N,Net-(J6-Pin_2)*%
X71500000Y-96775000D02*
X71500000Y-99935000D01*
X71000000Y-96275000D02*
X71500000Y-96775000D01*
X71500000Y-99935000D02*
X73700000Y-102135000D01*
%TO.N,Net-(J6-Pin_8)*%
X81640000Y-102135000D02*
X87500000Y-96275000D01*
X81320000Y-102135000D02*
X81640000Y-102135000D01*
%TO.N,Net-(J6-Pin_6)*%
X78780000Y-100720000D02*
X78780000Y-102135000D01*
X82000000Y-97500000D02*
X78780000Y-100720000D01*
X82000000Y-96275000D02*
X82000000Y-97500000D01*
%TO.N,Net-(J6-Pin_4)*%
X76240000Y-99240000D02*
X76240000Y-102135000D01*
X76500000Y-96275000D02*
X76500000Y-98980000D01*
X76500000Y-98980000D02*
X76240000Y-99240000D01*
D61*
%TO.N,Net-(C21-Pad2)*%
X72100000Y-74600000D02*
X72900000Y-75400000D01*
X72900000Y-75400000D02*
X73900000Y-75400000D01*
X72100000Y-69900000D02*
X72100000Y-74600000D01*
D60*
%TO.N,GND*%
X76500000Y-92175000D02*
X76500000Y-89500000D01*
X71000000Y-92175000D02*
X71000000Y-89500000D01*
D61*
X99000000Y-68750000D02*
X100250000Y-68750000D01*
D60*
X129050000Y-89500000D02*
X131000000Y-89500000D01*
D61*
X100300000Y-68800000D02*
X100250000Y-68750000D01*
X96250000Y-68750000D02*
X99000000Y-68750000D01*
D60*
X87500000Y-92175000D02*
X87500000Y-89500000D01*
D62*
X105450000Y-104350000D02*
X103550000Y-106250000D01*
D60*
X129050000Y-85000000D02*
X131000000Y-85000000D01*
D61*
X72100000Y-60500000D02*
X68500000Y-60500000D01*
X103500000Y-68800000D02*
X100300000Y-68800000D01*
X99000000Y-66912500D02*
X99000000Y-68750000D01*
D62*
X105450000Y-100290000D02*
X105450000Y-104350000D01*
D60*
X82000000Y-92175000D02*
X82000000Y-89500000D01*
D62*
%TO.N,Net-(J2-Pin_1)*%
X124132323Y-76000000D02*
X124132323Y-79500000D01*
X127600000Y-95000000D02*
X129700000Y-95000000D01*
D63*
X93087500Y-70587500D02*
X96500000Y-74000000D01*
D61*
X127000000Y-95600000D02*
X127600000Y-95000000D01*
X124382323Y-79250000D02*
X124132323Y-79500000D01*
D62*
X142500000Y-95000000D02*
X142500000Y-101000000D01*
X129700000Y-95000000D02*
X135500000Y-95000000D01*
X135500000Y-95000000D02*
X142500000Y-95000000D01*
X124132323Y-93132323D02*
X126000000Y-95000000D01*
X126000000Y-95000000D02*
X127600000Y-95000000D01*
X124132323Y-79500000D02*
X124132323Y-93132323D01*
X135500000Y-95000000D02*
X139500000Y-95000000D01*
D63*
X87087500Y-70087500D02*
X87587500Y-70587500D01*
D62*
X142500000Y-114150000D02*
X135500000Y-114150000D01*
X124132323Y-76000000D02*
X122132323Y-74000000D01*
D63*
X96500000Y-74000000D02*
X111500000Y-74000000D01*
D61*
X140975000Y-79250000D02*
X124382323Y-79250000D01*
D63*
X87587500Y-70587500D02*
X93087500Y-70587500D01*
D62*
X142500000Y-98000000D02*
X142500000Y-101000000D01*
D63*
X87087500Y-68750000D02*
X87087500Y-70087500D01*
D62*
X142500000Y-101000000D02*
X142500000Y-114150000D01*
X122132323Y-74000000D02*
X111500000Y-74000000D01*
D61*
%TO.N,Net-(D1-K)*%
X90750000Y-68750000D02*
X88912500Y-68750000D01*
D63*
X90750000Y-66912500D02*
X90750000Y-68750000D01*
D61*
X93750000Y-68750000D02*
X90750000Y-68750000D01*
D64*
%TO.N,Net-(D6-K)*%
X70475000Y-140625000D02*
X71850000Y-139250000D01*
X71850000Y-139250000D02*
X72000000Y-139400000D01*
X66000000Y-140625000D02*
X70475000Y-140625000D01*
X65900000Y-140725000D02*
X66000000Y-140625000D01*
D60*
X80000000Y-111850000D02*
X79900000Y-111950000D01*
D62*
X61000000Y-111950000D02*
X61500000Y-111450000D01*
D60*
X78000000Y-111450000D02*
X78000000Y-104775000D01*
D64*
X72000000Y-141750000D02*
X72500000Y-142250000D01*
X65900000Y-143100000D02*
X65900000Y-140725000D01*
D60*
X77900000Y-104675000D02*
X88462500Y-104675000D01*
D64*
X72000000Y-139400000D02*
X72000000Y-141750000D01*
D62*
X61500000Y-111450000D02*
X90500000Y-111450000D01*
D60*
X88462500Y-104675000D02*
X88500000Y-104637500D01*
X73700000Y-104675000D02*
X77900000Y-104675000D01*
X78000000Y-104775000D02*
X77900000Y-104675000D01*
X88500000Y-110950000D02*
X89000000Y-111450000D01*
D62*
X90500000Y-111450000D02*
X94750000Y-111450000D01*
D64*
X72500000Y-142250000D02*
X79350000Y-142250000D01*
D61*
%TO.N,Net-(J3-In)*%
X63600000Y-92100000D02*
X63500000Y-92000000D01*
X64887500Y-86200000D02*
X64887500Y-90812500D01*
X64887500Y-90812500D02*
X63600000Y-92100000D01*
X63500000Y-92000000D02*
X59500000Y-92000000D01*
%TO.N,Net-(J5-In)*%
X59500000Y-78000000D02*
X65607500Y-78000000D01*
X65607500Y-78000000D02*
X65687500Y-78080000D01*
D63*
%TO.N,Net-(R3-Pad2)*%
X91750000Y-59000000D02*
X91750000Y-62750000D01*
X91750000Y-62750000D02*
X90750000Y-63750000D01*
X90750000Y-63750000D02*
X90750000Y-65087500D01*
%TO.N,Net-(R4-Pad1)*%
X96750000Y-59000000D02*
X99000000Y-61250000D01*
X99000000Y-61250000D02*
X99000000Y-65087500D01*
D62*
%TO.N,Net-(SW1-A)*%
X120500000Y-67500000D02*
X124500000Y-67500000D01*
X111500000Y-70190000D02*
X117810000Y-70190000D01*
X117810000Y-70190000D02*
X120500000Y-67500000D01*
%TO.N,Net-(J12-Pin_1)*%
X95000000Y-137450000D02*
X95000000Y-121950000D01*
D64*
X63950000Y-121450000D02*
X67000000Y-121450000D01*
X63000000Y-124725000D02*
X63000000Y-122400000D01*
D62*
X95000000Y-121950000D02*
X94500000Y-121450000D01*
D64*
X66775000Y-121225000D02*
X67000000Y-121450000D01*
X63000000Y-122400000D02*
X63950000Y-121450000D01*
D62*
X67000000Y-121450000D02*
X94750000Y-121450000D01*
D64*
%TO.N,Net-(C14-Pad2)*%
X62500000Y-127675000D02*
X62500000Y-129725000D01*
%TO.N,Net-(D5-A)*%
X66275000Y-136775000D02*
X66000000Y-136500000D01*
X71325000Y-133225000D02*
X71850000Y-133750000D01*
X79075000Y-136775000D02*
X79350000Y-136500000D01*
X66000000Y-135625000D02*
X66000000Y-136500000D01*
X71850000Y-133750000D02*
X71850000Y-136625000D01*
X72000000Y-136775000D02*
X79075000Y-136775000D01*
X71850000Y-136625000D02*
X72000000Y-136775000D01*
X72000000Y-136775000D02*
X66275000Y-136775000D01*
X66000000Y-136500000D02*
X66000000Y-137675000D01*
D63*
%TO.N,Net-(D3-A)*%
X109025000Y-115462500D02*
X109287500Y-115200000D01*
X109412500Y-115075000D02*
X109287500Y-115200000D01*
X109412500Y-112800000D02*
X109412500Y-115075000D01*
X109025000Y-117600000D02*
X109025000Y-115462500D01*
D65*
%TO.N,Net-(D3-K)*%
X111825000Y-117600000D02*
X113425000Y-117600000D01*
D63*
X111387500Y-115200000D02*
X111387500Y-117162500D01*
X111387500Y-117162500D02*
X111825000Y-117600000D01*
%TO.N,Net-(L1-Pad2)*%
X113550000Y-114812500D02*
X113550000Y-115600000D01*
X112037500Y-112800000D02*
X113037500Y-113800000D01*
X113037500Y-114300000D02*
X113550000Y-114812500D01*
X113037500Y-113800000D02*
X113037500Y-114300000D01*
X111237500Y-112800000D02*
X112037500Y-112800000D01*
D61*
%TO.N,Net-(J4-Pin_7)*%
X115705000Y-80250000D02*
X116700000Y-80250000D01*
X113275000Y-82680000D02*
X115705000Y-80250000D01*
%TO.N,Net-(J4-Pin_5)*%
X113275000Y-85220000D02*
X115980000Y-85220000D01*
%TO.N,Net-(J4-Pin_3)*%
X116700000Y-87800000D02*
X116740000Y-87760000D01*
X116740000Y-87760000D02*
X113275000Y-87760000D01*
X116700000Y-88750000D02*
X116700000Y-87800000D01*
%TO.N,Net-(J4-Pin_1)*%
X116700000Y-93000000D02*
X114000000Y-93000000D01*
X113275000Y-92275000D02*
X113275000Y-90300000D01*
X114000000Y-93000000D02*
X113275000Y-92275000D01*
%TO.N,Net-(C11-Pad2)*%
X88000000Y-56250000D02*
X83750000Y-60500000D01*
X85500000Y-74750000D02*
X87500000Y-74750000D01*
X103500000Y-64700000D02*
X103500000Y-61750000D01*
X94250000Y-61500000D02*
X94250000Y-57000000D01*
X83750000Y-60500000D02*
X83750000Y-73000000D01*
X93500000Y-56250000D02*
X88000000Y-56250000D01*
X83750000Y-73000000D02*
X85500000Y-74750000D01*
X87500000Y-74750000D02*
X89000000Y-76250000D01*
X89000000Y-76250000D02*
X89000000Y-77837500D01*
X94250000Y-57000000D02*
X93500000Y-56250000D01*
D64*
%TO.N,Net-(D5-K)*%
X76150000Y-139250000D02*
X82750000Y-139250000D01*
D60*
X115862500Y-142200000D02*
X116462500Y-142800000D01*
D64*
X83650000Y-136500000D02*
X86050000Y-136500000D01*
X114500000Y-144200000D02*
X114500000Y-142275000D01*
X114500000Y-142275000D02*
X114575000Y-142200000D01*
X82750000Y-139250000D02*
X83650000Y-138350000D01*
D60*
X114575000Y-142200000D02*
X115862500Y-142200000D01*
D64*
X83650000Y-138350000D02*
X83650000Y-136500000D01*
%TO.N,Net-(C15-Pad2)*%
X62500000Y-132675000D02*
X66000000Y-132675000D01*
%TO.N,Net-(D6-A)*%
X86500000Y-144249000D02*
X111300000Y-144249000D01*
D61*
X123525000Y-135850000D02*
X120250000Y-135850000D01*
D64*
X76150000Y-133750000D02*
X86000000Y-133750000D01*
X87750000Y-135500000D02*
X87750000Y-138150000D01*
X87750000Y-138150000D02*
X83650000Y-142250000D01*
D60*
X110800000Y-141375000D02*
X111625000Y-142200000D01*
D64*
X85649000Y-144249000D02*
X86500000Y-144249000D01*
X111625000Y-143875000D02*
X111625000Y-142200000D01*
D60*
X110800000Y-138600000D02*
X110800000Y-141375000D01*
D64*
X83650000Y-142250000D02*
X83650000Y-142300000D01*
D61*
X120250000Y-135850000D02*
X120200000Y-135900000D01*
D64*
X111300000Y-144200000D02*
X111625000Y-143875000D01*
X111300000Y-144249000D02*
X111300000Y-144200000D01*
X83650000Y-142250000D02*
X85649000Y-144249000D01*
X86000000Y-133750000D02*
X87750000Y-135500000D01*
D61*
%TO.N,Net-(T1-Primary)*%
X121725000Y-137750000D02*
X123525000Y-137750000D01*
D60*
X112300000Y-133600000D02*
X110800000Y-133600000D01*
X119100000Y-139200000D02*
X117900000Y-139200000D01*
X120737500Y-142800000D02*
X120737500Y-140837500D01*
X120737500Y-140837500D02*
X119100000Y-139200000D01*
D61*
X119100000Y-139200000D02*
X120275000Y-139200000D01*
D60*
X117900000Y-139200000D02*
X112300000Y-133600000D01*
D61*
X120275000Y-139200000D02*
X121725000Y-137750000D01*
D60*
%TO.N,Net-(T1-Secondary)*%
X130875000Y-138925000D02*
X130850000Y-138950000D01*
X130850000Y-138950000D02*
X130850000Y-142850000D01*
D61*
X130875000Y-136800000D02*
X130875000Y-138925000D01*
D62*
%TO.N,/DRAIN*%
X105000000Y-137450000D02*
X105000000Y-129250001D01*
X142500000Y-133000000D02*
X142500000Y-129000000D01*
D61*
X69512500Y-86687500D02*
X69512500Y-86200000D01*
D62*
X142500000Y-129000000D02*
X135650000Y-129000000D01*
D61*
X120800000Y-80250000D02*
X120800000Y-95450000D01*
X100000000Y-97000000D02*
X100000000Y-100290000D01*
D62*
X105000000Y-128500000D02*
X105000000Y-129250001D01*
X107000000Y-126500000D02*
X105000000Y-128500000D01*
D61*
X120000000Y-96250000D02*
X100750000Y-96250000D01*
X66700000Y-92000000D02*
X66700000Y-89500000D01*
D62*
X135500000Y-128850000D02*
X123850000Y-128850000D01*
X135650000Y-129000000D02*
X135500000Y-128850000D01*
D61*
X66700000Y-89500000D02*
X69512500Y-86687500D01*
D62*
X121500000Y-126500000D02*
X107000000Y-126500000D01*
D61*
X100750000Y-96250000D02*
X100000000Y-97000000D01*
D62*
X123850000Y-128850000D02*
X121500000Y-126500000D01*
D61*
X120800000Y-95450000D02*
X120000000Y-96250000D01*
%TO.N,/GATE*%
X72712500Y-82612500D02*
X85250000Y-82612500D01*
X89000000Y-82612500D02*
X89000000Y-85750000D01*
X95750000Y-92500000D02*
X94550000Y-93700000D01*
X85250000Y-82612500D02*
X89000000Y-82612500D01*
X89000000Y-85750000D02*
X95750000Y-92500000D01*
D60*
X94477500Y-100362500D02*
X94550000Y-100290000D01*
X88500000Y-100362500D02*
X94477500Y-100362500D01*
D61*
X108535000Y-92500000D02*
X97500000Y-92500000D01*
X70312500Y-78080000D02*
X70312500Y-80212500D01*
X94550000Y-93700000D02*
X94550000Y-100290000D01*
X89000000Y-79662500D02*
X89000000Y-82612500D01*
D66*
X94550000Y-104050000D02*
X96750000Y-106250000D01*
D61*
X97500000Y-92500000D02*
X95750000Y-92500000D01*
X110735000Y-90300000D02*
X108535000Y-92500000D01*
D66*
X94550000Y-100290000D02*
X94550000Y-104050000D01*
D61*
X110735000Y-82680000D02*
X110735000Y-90300000D01*
X70312500Y-80212500D02*
X72712500Y-82612500D01*
%TO.N,Net-(C21-Pad1)*%
X81250000Y-76350000D02*
X81250000Y-77987500D01*
X80300000Y-75400000D02*
X81250000Y-76350000D01*
X78000000Y-75400000D02*
X80300000Y-75400000D01*
%TD*%
%TA.AperFunction,Conductor*%
%TO.N,Net-(J2-Pin_1)*%
G36*
X141943039Y-112769685D02*
G01*
X141988794Y-112822489D01*
X142000000Y-112874000D01*
X142000000Y-116626000D01*
X141980315Y-116693039D01*
X141927511Y-116738794D01*
X141876000Y-116750000D01*
X122624000Y-116750000D01*
X122556961Y-116730315D01*
X122511206Y-116677511D01*
X122500000Y-116626000D01*
X122500000Y-112874000D01*
X122519685Y-112806961D01*
X122572489Y-112761206D01*
X122624000Y-112750000D01*
X141876000Y-112750000D01*
X141943039Y-112769685D01*
G37*
%TD.AperFunction*%
%TD*%
%TA.AperFunction,Conductor*%
%TO.N,/DRAIN*%
G36*
X141943039Y-126519685D02*
G01*
X141988794Y-126572489D01*
X142000000Y-126624000D01*
X142000000Y-130376000D01*
X141980315Y-130443039D01*
X141927511Y-130488794D01*
X141876000Y-130500000D01*
X122624000Y-130500000D01*
X122556961Y-130480315D01*
X122511206Y-130427511D01*
X122500000Y-130376000D01*
X122500000Y-126624000D01*
X122519685Y-126556961D01*
X122572489Y-126511206D01*
X122624000Y-126500000D01*
X141876000Y-126500000D01*
X141943039Y-126519685D01*
G37*
%TD.AperFunction*%
%TD*%
M02*
