%TF.GenerationSoftware,KiCad,Pcbnew,9.0.0*%
%TF.CreationDate,2025-07-31T17:57:17-04:00*%
%TF.ProjectId,PlasmaTransformer,506c6173-6d61-4547-9261-6e73666f726d,4*%
%TF.SameCoordinates,Original*%
%TF.FileFunction,Soldermask,Bot*%
%TF.FilePolarity,Negative*%
%FSLAX46Y46*%
G04 Gerber Fmt 4.6, Leading zero omitted, Abs format (unit mm)*
G04 Created by KiCad (PCBNEW 9.0.0) date 2025-07-31 17:57:17*
%MOMM*%
%LPD*%
G01*
G04 APERTURE LIST*
G04 Aperture macros list*
%AMRoundRect*
0 Rectangle with rounded corners*
0 $1 Rounding radius*
0 $2 $3 $4 $5 $6 $7 $8 $9 X,Y pos of 4 corners*
0 Add a 4 corners polygon primitive as box body*
4,1,4,$2,$3,$4,$5,$6,$7,$8,$9,$2,$3,0*
0 Add four circle primitives for the rounded corners*
1,1,$1+$1,$2,$3*
1,1,$1+$1,$4,$5*
1,1,$1+$1,$6,$7*
1,1,$1+$1,$8,$9*
0 Add four rect primitives between the rounded corners*
20,1,$1+$1,$2,$3,$4,$5,0*
20,1,$1+$1,$4,$5,$6,$7,0*
20,1,$1+$1,$6,$7,$8,$9,0*
20,1,$1+$1,$8,$9,$2,$3,0*%
G04 Aperture macros list end*
%ADD10C,2.050000*%
%ADD11C,2.250000*%
%ADD12C,2.000000*%
%ADD13C,2.200000*%
%ADD14C,1.700000*%
%ADD15O,3.800000X2.800000*%
%ADD16C,2.700000*%
%ADD17RoundRect,0.249999X-1.025001X-1.025001X1.025001X-1.025001X1.025001X1.025001X-1.025001X1.025001X0*%
%ADD18C,8.400000*%
%ADD19C,1.600000*%
%ADD20R,4.000000X2.000000*%
%ADD21O,3.300000X2.000000*%
%ADD22O,2.000000X3.500000*%
%ADD23R,1.700000X1.700000*%
%ADD24O,1.700000X1.700000*%
%ADD25C,4.500000*%
%ADD26RoundRect,0.250000X-1.125000X-1.125000X1.125000X-1.125000X1.125000X1.125000X-1.125000X1.125000X0*%
%ADD27R,2.000000X2.000000*%
%ADD28RoundRect,0.250000X0.750000X-0.600000X0.750000X0.600000X-0.750000X0.600000X-0.750000X-0.600000X0*%
%ADD29O,2.000000X1.700000*%
%ADD30C,10.600000*%
%ADD31C,3.400000*%
%ADD32C,3.600000*%
%ADD33R,2.500000X4.500000*%
%ADD34O,2.500000X4.500000*%
G04 APERTURE END LIST*
D10*
%TO.C,J5*%
X59500000Y-78000000D03*
D11*
X56960000Y-80540000D03*
X62040000Y-80540000D03*
X56960000Y-75460000D03*
X62040000Y-75460000D03*
%TD*%
D10*
%TO.C,J3*%
X59500000Y-92000000D03*
D11*
X56960000Y-94540000D03*
X62040000Y-94540000D03*
X56960000Y-89460000D03*
X62040000Y-89460000D03*
%TD*%
D12*
%TO.C,J12*%
X95000000Y-129250000D03*
X95000000Y-137449999D03*
%TD*%
%TO.C,J11*%
X105000000Y-129250000D03*
X105000000Y-137449999D03*
%TD*%
D13*
%TO.C,RV1*%
X91750000Y-59000000D03*
X94250000Y-61500000D03*
X96750000Y-59000000D03*
%TD*%
D14*
%TO.C,J8*%
X75800000Y-61600000D03*
X75800000Y-68600000D03*
%TD*%
D15*
%TO.C,SW1*%
X111500000Y-70190000D03*
X111500000Y-74000000D03*
X111500000Y-77810000D03*
D16*
X114040000Y-57490000D03*
X108960000Y-57490000D03*
%TD*%
D17*
%TO.C,TP1*%
X130900000Y-142900000D03*
%TD*%
D18*
%TO.C,H2*%
X100000000Y-80500000D03*
%TD*%
D19*
%TO.C,J1*%
X124500000Y-58500000D03*
D20*
X124500000Y-67500000D03*
D21*
X124500000Y-61500000D03*
D22*
X120000000Y-60500000D03*
X129000000Y-60500000D03*
%TD*%
D23*
%TO.C,J6*%
X73700000Y-104675000D03*
D24*
X73700000Y-102135000D03*
X76240000Y-104675000D03*
X76240000Y-102135000D03*
X78780000Y-104675000D03*
X78780000Y-102135000D03*
X81320000Y-104675000D03*
X81320000Y-102135000D03*
%TD*%
D23*
%TO.C,J4*%
X113275000Y-90300000D03*
D24*
X110735000Y-90300000D03*
X113275000Y-87760000D03*
X110735000Y-87760000D03*
X113275000Y-85220000D03*
X110735000Y-85220000D03*
X113275000Y-82680000D03*
X110735000Y-82680000D03*
%TD*%
D25*
%TO.C,M1*%
X58750000Y-58750000D03*
X58750000Y-141250000D03*
X141250000Y-58750000D03*
X141250000Y-141250000D03*
%TD*%
D12*
%TO.C,C18*%
X78000000Y-121450000D03*
X78000000Y-111450000D03*
%TD*%
D26*
%TO.C,TP2*%
X142500000Y-95000000D03*
%TD*%
D27*
%TO.C,C2*%
X124132323Y-76000000D03*
D12*
X129132323Y-76000000D03*
%TD*%
%TO.C,C16*%
X89000000Y-121450000D03*
X89000000Y-111450000D03*
%TD*%
%TO.C,C1*%
X94500000Y-121450000D03*
X94500000Y-111450000D03*
%TD*%
%TO.C,C17*%
X83500000Y-121450000D03*
X83500000Y-111450000D03*
%TD*%
D28*
%TO.C,J2*%
X140975000Y-79250000D03*
D29*
X140975000Y-76750000D03*
%TD*%
D12*
%TO.C,C19*%
X72500000Y-121450000D03*
X72500000Y-111450000D03*
%TD*%
D30*
%TO.C,H1*%
X61000000Y-111950000D03*
%TD*%
D12*
%TO.C,C20*%
X67000000Y-121450000D03*
X67000000Y-111450000D03*
%TD*%
D31*
%TO.C,HS1*%
X65750000Y-69500000D03*
X65750000Y-100500000D03*
X100000000Y-80400000D03*
X134250000Y-69500000D03*
X134250000Y-100500000D03*
%TD*%
D26*
%TO.C,TP3*%
X142500000Y-133000000D03*
%TD*%
D32*
%TO.C,Q1*%
X100000000Y-80430000D03*
D33*
X94550000Y-100290000D03*
D34*
X100000000Y-100290000D03*
X105450000Y-100290000D03*
%TD*%
M02*
