%TF.GenerationSoftware,KiCad,Pcbnew,9.0.0*%
%TF.CreationDate,2025-07-31T17:57:17-04:00*%
%TF.ProjectId,PlasmaTransformer,506c6173-6d61-4547-9261-6e73666f726d,4*%
%TF.SameCoordinates,Original*%
%TF.FileFunction,Soldermask,Top*%
%TF.FilePolarity,Negative*%
%FSLAX46Y46*%
G04 Gerber Fmt 4.6, Leading zero omitted, Abs format (unit mm)*
G04 Created by KiCad (PCBNEW 9.0.0) date 2025-07-31 17:57:17*
%MOMM*%
%LPD*%
G01*
G04 APERTURE LIST*
G04 Aperture macros list*
%AMRoundRect*
0 Rectangle with rounded corners*
0 $1 Rounding radius*
0 $2 $3 $4 $5 $6 $7 $8 $9 X,Y pos of 4 corners*
0 Add a 4 corners polygon primitive as box body*
4,1,4,$2,$3,$4,$5,$6,$7,$8,$9,$2,$3,0*
0 Add four circle primitives for the rounded corners*
1,1,$1+$1,$2,$3*
1,1,$1+$1,$4,$5*
1,1,$1+$1,$6,$7*
1,1,$1+$1,$8,$9*
0 Add four rect primitives between the rounded corners*
20,1,$1+$1,$2,$3,$4,$5,0*
20,1,$1+$1,$4,$5,$6,$7,0*
20,1,$1+$1,$6,$7,$8,$9,0*
20,1,$1+$1,$8,$9,$2,$3,0*%
G04 Aperture macros list end*
%ADD10C,2.050000*%
%ADD11C,2.250000*%
%ADD12RoundRect,0.400000X1.100000X0.100000X-1.100000X0.100000X-1.100000X-0.100000X1.100000X-0.100000X0*%
%ADD13C,2.000000*%
%ADD14C,2.200000*%
%ADD15C,1.700000*%
%ADD16R,2.800000X2.200000*%
%ADD17R,2.800000X2.800000*%
%ADD18O,3.800000X2.800000*%
%ADD19C,2.700000*%
%ADD20RoundRect,0.250000X-0.312500X-1.450000X0.312500X-1.450000X0.312500X1.450000X-0.312500X1.450000X0*%
%ADD21RoundRect,0.250000X0.375000X0.625000X-0.375000X0.625000X-0.375000X-0.625000X0.375000X-0.625000X0*%
%ADD22RoundRect,0.112500X-0.187500X-0.112500X0.187500X-0.112500X0.187500X0.112500X-0.187500X0.112500X0*%
%ADD23RoundRect,0.249999X-0.450001X-1.450001X0.450001X-1.450001X0.450001X1.450001X-0.450001X1.450001X0*%
%ADD24RoundRect,0.250000X0.262500X0.450000X-0.262500X0.450000X-0.262500X-0.450000X0.262500X-0.450000X0*%
%ADD25RoundRect,0.249999X1.450001X-0.450001X1.450001X0.450001X-1.450001X0.450001X-1.450001X-0.450001X0*%
%ADD26RoundRect,0.250000X1.000000X0.900000X-1.000000X0.900000X-1.000000X-0.900000X1.000000X-0.900000X0*%
%ADD27R,4.495800X4.394200*%
%ADD28RoundRect,0.249999X-1.025001X-1.025001X1.025001X-1.025001X1.025001X1.025001X-1.025001X1.025001X0*%
%ADD29RoundRect,0.250000X-1.000000X-0.900000X1.000000X-0.900000X1.000000X0.900000X-1.000000X0.900000X0*%
%ADD30RoundRect,0.250000X1.000000X-1.400000X1.000000X1.400000X-1.000000X1.400000X-1.000000X-1.400000X0*%
%ADD31C,8.400000*%
%ADD32C,1.600000*%
%ADD33R,4.000000X2.000000*%
%ADD34O,3.300000X2.000000*%
%ADD35O,2.000000X3.500000*%
%ADD36RoundRect,0.250000X-1.450000X0.312500X-1.450000X-0.312500X1.450000X-0.312500X1.450000X0.312500X0*%
%ADD37R,1.700000X1.700000*%
%ADD38O,1.700000X1.700000*%
%ADD39RoundRect,0.250000X-0.262500X-0.450000X0.262500X-0.450000X0.262500X0.450000X-0.262500X0.450000X0*%
%ADD40C,4.500000*%
%ADD41RoundRect,0.250000X-1.100000X0.325000X-1.100000X-0.325000X1.100000X-0.325000X1.100000X0.325000X0*%
%ADD42RoundRect,0.250000X-1.125000X-1.125000X1.125000X-1.125000X1.125000X1.125000X-1.125000X1.125000X0*%
%ADD43R,2.000000X2.000000*%
%ADD44RoundRect,0.250000X-0.450000X0.262500X-0.450000X-0.262500X0.450000X-0.262500X0.450000X0.262500X0*%
%ADD45RoundRect,0.249999X0.450001X1.450001X-0.450001X1.450001X-0.450001X-1.450001X0.450001X-1.450001X0*%
%ADD46RoundRect,0.250000X0.750000X-0.600000X0.750000X0.600000X-0.750000X0.600000X-0.750000X-0.600000X0*%
%ADD47O,2.000000X1.700000*%
%ADD48RoundRect,0.250000X0.325000X0.650000X-0.325000X0.650000X-0.325000X-0.650000X0.325000X-0.650000X0*%
%ADD49RoundRect,0.250000X-0.250000X-0.250000X0.250000X-0.250000X0.250000X0.250000X-0.250000X0.250000X0*%
%ADD50RoundRect,0.250000X0.450000X-0.262500X0.450000X0.262500X-0.450000X0.262500X-0.450000X-0.262500X0*%
%ADD51RoundRect,0.075000X-0.925000X-0.175000X0.925000X-0.175000X0.925000X0.175000X-0.925000X0.175000X0*%
%ADD52C,10.600000*%
%ADD53RoundRect,0.250000X-1.075000X0.362500X-1.075000X-0.362500X1.075000X-0.362500X1.075000X0.362500X0*%
%ADD54C,3.400000*%
%ADD55RoundRect,0.250000X0.362500X1.075000X-0.362500X1.075000X-0.362500X-1.075000X0.362500X-1.075000X0*%
%ADD56RoundRect,0.150000X-0.450000X-0.350000X0.450000X-0.350000X0.450000X0.350000X-0.450000X0.350000X0*%
%ADD57RoundRect,0.165000X-0.385000X-0.685000X0.385000X-0.685000X0.385000X0.685000X-0.385000X0.685000X0*%
%ADD58C,3.600000*%
%ADD59R,2.500000X4.500000*%
%ADD60O,2.500000X4.500000*%
G04 APERTURE END LIST*
D10*
%TO.C,J5*%
X59500000Y-78000000D03*
D11*
X56960000Y-80540000D03*
X62040000Y-80540000D03*
X56960000Y-75460000D03*
X62040000Y-75460000D03*
%TD*%
D10*
%TO.C,J3*%
X59500000Y-92000000D03*
D11*
X56960000Y-94540000D03*
X62040000Y-94540000D03*
X56960000Y-89460000D03*
X62040000Y-89460000D03*
%TD*%
D12*
%TO.C,T2*%
X110800000Y-138600000D03*
X110800000Y-133600000D03*
X130800000Y-133050000D03*
X130800000Y-139150000D03*
%TD*%
D13*
%TO.C,J12*%
X95000000Y-129250000D03*
X95000000Y-137449999D03*
%TD*%
%TO.C,J11*%
X105000000Y-129250000D03*
X105000000Y-137449999D03*
%TD*%
D14*
%TO.C,RV1*%
X91750000Y-59000000D03*
X94250000Y-61500000D03*
X96750000Y-59000000D03*
%TD*%
D15*
%TO.C,J8*%
X75800000Y-61600000D03*
X75800000Y-68600000D03*
D16*
X79500000Y-62500000D03*
X72100000Y-60500000D03*
D17*
X72100000Y-69900000D03*
%TD*%
D18*
%TO.C,SW1*%
X111500000Y-70190000D03*
X111500000Y-74000000D03*
X111500000Y-77810000D03*
D19*
X114040000Y-57490000D03*
X108960000Y-57490000D03*
%TD*%
D20*
%TO.C,GD1*%
X116462500Y-142800000D03*
X120737500Y-142800000D03*
%TD*%
D21*
%TO.C,D3*%
X111825000Y-117600000D03*
X109025000Y-117600000D03*
%TD*%
D22*
%TO.C,D4*%
X109287500Y-115200000D03*
X111387500Y-115200000D03*
%TD*%
D23*
%TO.C,C7*%
X116700000Y-80250000D03*
X120800000Y-80250000D03*
%TD*%
D24*
%TO.C,R13*%
X111237500Y-112800000D03*
X109412500Y-112800000D03*
%TD*%
D25*
%TO.C,C4*%
X76500000Y-96275000D03*
X76500000Y-92175000D03*
%TD*%
D26*
%TO.C,D5*%
X83650000Y-136500000D03*
X79350000Y-136500000D03*
%TD*%
D27*
%TO.C,L2*%
X128149998Y-116200036D03*
X128149998Y-126799964D03*
X141850002Y-121500000D03*
%TD*%
D28*
%TO.C,TP1*%
X130900000Y-142900000D03*
%TD*%
D29*
%TO.C,D6*%
X79350000Y-142250000D03*
X83650000Y-142250000D03*
%TD*%
D30*
%TO.C,D2*%
X96800000Y-106600000D03*
X103600000Y-106600000D03*
%TD*%
D31*
%TO.C,H2*%
X100000000Y-80500000D03*
%TD*%
D32*
%TO.C,J1*%
X124500000Y-58500000D03*
D33*
X124500000Y-67500000D03*
D34*
X124500000Y-61500000D03*
D35*
X120000000Y-60500000D03*
X129000000Y-60500000D03*
%TD*%
D36*
%TO.C,R6*%
X88500000Y-100362500D03*
X88500000Y-104637500D03*
%TD*%
D23*
%TO.C,C10*%
X116700000Y-93000000D03*
X120800000Y-93000000D03*
%TD*%
D37*
%TO.C,J6*%
X73700000Y-104675000D03*
D38*
X73700000Y-102135000D03*
X76240000Y-104675000D03*
X76240000Y-102135000D03*
X78780000Y-104675000D03*
X78780000Y-102135000D03*
X81320000Y-104675000D03*
X81320000Y-102135000D03*
%TD*%
D39*
%TO.C,R2*%
X87087500Y-68750000D03*
X88912500Y-68750000D03*
%TD*%
D37*
%TO.C,J4*%
X113275000Y-90300000D03*
D38*
X110735000Y-90300000D03*
X113275000Y-87760000D03*
X110735000Y-87760000D03*
X113275000Y-85220000D03*
X110735000Y-85220000D03*
X113275000Y-82680000D03*
X110735000Y-82680000D03*
%TD*%
D40*
%TO.C,M1*%
X58750000Y-58750000D03*
X58750000Y-141250000D03*
X141250000Y-58750000D03*
X141250000Y-141250000D03*
%TD*%
D25*
%TO.C,C11*%
X103500000Y-68800000D03*
X103500000Y-64700000D03*
%TD*%
D41*
%TO.C,C14*%
X62500000Y-124725000D03*
X62500000Y-127675000D03*
%TD*%
D13*
%TO.C,C18*%
X78000000Y-121450000D03*
X78000000Y-111450000D03*
%TD*%
D42*
%TO.C,TP2*%
X142500000Y-95000000D03*
%TD*%
D25*
%TO.C,C3*%
X71000000Y-96275000D03*
X71000000Y-92175000D03*
%TD*%
D43*
%TO.C,C2*%
X124132323Y-76000000D03*
D13*
X129132323Y-76000000D03*
%TD*%
D44*
%TO.C,R4*%
X99000000Y-65087500D03*
X99000000Y-66912500D03*
%TD*%
D45*
%TO.C,C21*%
X78000000Y-75400000D03*
X73900000Y-75400000D03*
%TD*%
D13*
%TO.C,C16*%
X89000000Y-121450000D03*
X89000000Y-111450000D03*
%TD*%
%TO.C,C1*%
X94500000Y-121450000D03*
X94500000Y-111450000D03*
%TD*%
D26*
%TO.C,D8*%
X76150000Y-139250000D03*
X71850000Y-139250000D03*
%TD*%
D13*
%TO.C,C17*%
X83500000Y-121450000D03*
X83500000Y-111450000D03*
%TD*%
D46*
%TO.C,J2*%
X140975000Y-79250000D03*
D47*
X140975000Y-76750000D03*
%TD*%
D25*
%TO.C,C6*%
X87500000Y-96275000D03*
X87500000Y-92175000D03*
%TD*%
D48*
%TO.C,C24*%
X114575000Y-142200000D03*
X111625000Y-142200000D03*
%TD*%
D49*
%TO.C,D1*%
X93750000Y-68750000D03*
X96250000Y-68750000D03*
%TD*%
D50*
%TO.C,R3*%
X90750000Y-66912500D03*
X90750000Y-65087500D03*
%TD*%
D51*
%TO.C,L1*%
X113550000Y-115600000D03*
%TD*%
D41*
%TO.C,C15*%
X62500000Y-129725000D03*
X62500000Y-132675000D03*
%TD*%
D23*
%TO.C,C9*%
X116700000Y-88750000D03*
X120800000Y-88750000D03*
%TD*%
D13*
%TO.C,C19*%
X72500000Y-121450000D03*
X72500000Y-111450000D03*
%TD*%
D52*
%TO.C,H1*%
X61000000Y-111950000D03*
%TD*%
D45*
%TO.C,C13*%
X129050000Y-85000000D03*
X124950000Y-85000000D03*
%TD*%
D13*
%TO.C,C20*%
X67000000Y-121450000D03*
X67000000Y-111450000D03*
%TD*%
D53*
%TO.C,R9*%
X81250000Y-77987500D03*
X81250000Y-82612500D03*
%TD*%
D54*
%TO.C,HS1*%
X65750000Y-69500000D03*
X65750000Y-100500000D03*
X100000000Y-80400000D03*
X134250000Y-69500000D03*
X134250000Y-100500000D03*
%TD*%
D23*
%TO.C,C8*%
X116700000Y-84500000D03*
X120800000Y-84500000D03*
%TD*%
D42*
%TO.C,TP3*%
X142500000Y-133000000D03*
%TD*%
D44*
%TO.C,R5*%
X89000000Y-77837500D03*
X89000000Y-79662500D03*
%TD*%
D25*
%TO.C,C5*%
X82000000Y-96275000D03*
X82000000Y-92175000D03*
%TD*%
D55*
%TO.C,R8*%
X70312500Y-78080000D03*
X65687500Y-78080000D03*
%TD*%
D41*
%TO.C,C23*%
X66000000Y-137675000D03*
X66000000Y-140625000D03*
%TD*%
D56*
%TO.C,T1*%
X123525000Y-137750000D03*
X123525000Y-135850000D03*
D57*
X130875000Y-136800000D03*
%TD*%
D58*
%TO.C,Q1*%
X100000000Y-80430000D03*
D59*
X94550000Y-100290000D03*
D60*
X100000000Y-100290000D03*
X105450000Y-100290000D03*
%TD*%
D55*
%TO.C,R7*%
X69512500Y-86200000D03*
X64887500Y-86200000D03*
%TD*%
D29*
%TO.C,D7*%
X71850000Y-133750000D03*
X76150000Y-133750000D03*
%TD*%
D41*
%TO.C,C22*%
X66000000Y-132675000D03*
X66000000Y-135625000D03*
%TD*%
D45*
%TO.C,C12*%
X129050000Y-89500000D03*
X124950000Y-89500000D03*
%TD*%
G36*
X141943039Y-112269685D02*
G01*
X141988794Y-112322489D01*
X142000000Y-112374000D01*
X142000000Y-116126000D01*
X141980315Y-116193039D01*
X141927511Y-116238794D01*
X141876000Y-116250000D01*
X122624000Y-116250000D01*
X122556961Y-116230315D01*
X122511206Y-116177511D01*
X122500000Y-116126000D01*
X122500000Y-112374000D01*
X122519685Y-112306961D01*
X122572489Y-112261206D01*
X122624000Y-112250000D01*
X141876000Y-112250000D01*
X141943039Y-112269685D01*
G37*
G36*
X141943039Y-126769685D02*
G01*
X141988794Y-126822489D01*
X142000000Y-126874000D01*
X142000000Y-130626000D01*
X141980315Y-130693039D01*
X141927511Y-130738794D01*
X141876000Y-130750000D01*
X122624000Y-130750000D01*
X122556961Y-130730315D01*
X122511206Y-130677511D01*
X122500000Y-130626000D01*
X122500000Y-126874000D01*
X122519685Y-126806961D01*
X122572489Y-126761206D01*
X122624000Y-126750000D01*
X141876000Y-126750000D01*
X141943039Y-126769685D01*
G37*
M02*
