M48
; DRILL file {KiCad 9.0.0} date 2025-07-31T03:03:29-0400
; FORMAT={-:-/ absolute / metric / decimal}
; #@! TF.CreationDate,2025-07-31T03:03:29-04:00
; #@! TF.GenerationSoftware,Kicad,Pcbnew,9.0.0
; #@! TF.FileFunction,Plated,1,2,PTH
FMAT,2
METRIC
; #@! TA.AperFunction,Plated,PTH,ViaDrill
T1C0.300
; #@! TA.AperFunction,Plated,PTH,ViaDrill
T2C0.600
; #@! TA.AperFunction,Plated,PTH,ComponentDrill
T3C1.000
; #@! TA.AperFunction,Plated,PTH,ComponentDrill
T4C1.300
; #@! TA.AperFunction,Plated,PTH,ComponentDrill
T5C1.500
; #@! TA.AperFunction,Plated,PTH,ComponentDrill
T6C1.550
; #@! TA.AperFunction,Plated,PTH,ComponentDrill
T7C1.700
; #@! TA.AperFunction,Plated,PTH,ComponentDrill
T8C1.750
; #@! TA.AperFunction,Plated,PTH,ComponentDrill
T9C1.850
; #@! TA.AperFunction,Plated,PTH,ComponentDrill
T10C5.300
%
G90
G05
T1
X65.9Y-143.1
X86.05Y-136.5
X110.6Y-140.3
X113.425Y-117.6
X114.5Y-144.2
X118.9Y-115.1
X120.2Y-135.9
X131.0Y-85.0
X131.0Y-89.5
T2
X66.7Y-92.0
X68.5Y-60.5
X69.5Y-89.5
X75.0Y-89.5
X80.5Y-89.5
X86.0Y-89.5
X100.25Y-68.75
X103.5Y-61.75
T3
X67.0Y-111.45
X67.0Y-121.45
X72.5Y-111.45
X72.5Y-121.45
X73.7Y-102.135
X73.7Y-104.675
X76.24Y-102.135
X76.24Y-104.675
X78.0Y-111.45
X78.0Y-121.45
X78.78Y-102.135
X78.78Y-104.675
X81.32Y-102.135
X81.32Y-104.675
X83.5Y-111.45
X83.5Y-121.45
X89.0Y-111.45
X89.0Y-121.45
X94.5Y-111.45
X94.5Y-121.45
X110.735Y-82.68
X110.735Y-85.22
X110.735Y-87.76
X110.735Y-90.3
X113.275Y-82.68
X113.275Y-85.22
X113.275Y-87.76
X113.275Y-90.3
X124.132Y-76.0
X129.132Y-76.0
X140.975Y-76.75
X140.975Y-79.25
T4
X91.75Y-59.0
X94.25Y-61.5
X95.0Y-129.25
X95.0Y-137.45
X96.75Y-59.0
X105.0Y-129.25
X105.0Y-137.45
T5
X59.5Y-78.0
X59.5Y-92.0
X94.55Y-100.29
X100.0Y-100.29
X105.45Y-100.29
T6
X130.9Y-142.9
T7
X56.96Y-75.46
X56.96Y-80.54
X56.96Y-89.46
X56.96Y-94.54
X62.04Y-75.46
X62.04Y-80.54
X62.04Y-89.46
X62.04Y-94.54
T8
X142.5Y-95.0
X142.5Y-133.0
T9
X108.96Y-57.49
X111.5Y-70.19
X111.5Y-74.0
X111.5Y-77.81
X114.04Y-57.49
T10
X61.0Y-111.95
T3
G00X120.0Y-61.25
M15
G01X120.0Y-59.75
M16
G05
G00X125.15Y-61.5
M15
G01X123.85Y-61.5
M16
G05
G00X125.5Y-67.5
M15
G01X123.5Y-67.5
M16
G05
G00X129.0Y-61.25
M15
G01X129.0Y-59.75
M16
G05
M30
