%TF.GenerationSoftware,KiCad,Pcbnew,9.0.0*%
%TF.CreationDate,2025-07-31T17:57:17-04:00*%
%TF.ProjectId,PlasmaTransformer,506c6173-6d61-4547-9261-6e73666f726d,4*%
%TF.SameCoordinates,Original*%
%TF.FileFunction,Copper,L2,Bot*%
%TF.FilePolarity,Positive*%
%FSLAX46Y46*%
G04 Gerber Fmt 4.6, Leading zero omitted, Abs format (unit mm)*
G04 Created by KiCad (PCBNEW 9.0.0) date 2025-07-31 17:57:17*
%MOMM*%
%LPD*%
G01*
G04 APERTURE LIST*
G04 Aperture macros list*
%AMRoundRect*
0 Rectangle with rounded corners*
0 $1 Rounding radius*
0 $2 $3 $4 $5 $6 $7 $8 $9 X,Y pos of 4 corners*
0 Add a 4 corners polygon primitive as box body*
4,1,4,$2,$3,$4,$5,$6,$7,$8,$9,$2,$3,0*
0 Add four circle primitives for the rounded corners*
1,1,$1+$1,$2,$3*
1,1,$1+$1,$4,$5*
1,1,$1+$1,$6,$7*
1,1,$1+$1,$8,$9*
0 Add four rect primitives between the rounded corners*
20,1,$1+$1,$2,$3,$4,$5,0*
20,1,$1+$1,$4,$5,$6,$7,0*
20,1,$1+$1,$6,$7,$8,$9,0*
20,1,$1+$1,$8,$9,$2,$3,0*%
G04 Aperture macros list end*
%TA.AperFunction,ComponentPad*%
%ADD10C,2.050000*%
%TD*%
%TA.AperFunction,ComponentPad*%
%ADD11C,2.250000*%
%TD*%
%TA.AperFunction,ComponentPad*%
%ADD12C,2.000000*%
%TD*%
%TA.AperFunction,ComponentPad*%
%ADD13C,2.200000*%
%TD*%
%TA.AperFunction,ComponentPad*%
%ADD14O,3.800000X2.800000*%
%TD*%
%TA.AperFunction,ComponentPad*%
%ADD15C,2.700000*%
%TD*%
%TA.AperFunction,ComponentPad*%
%ADD16RoundRect,0.249999X-1.025001X-1.025001X1.025001X-1.025001X1.025001X1.025001X-1.025001X1.025001X0*%
%TD*%
%TA.AperFunction,ComponentPad*%
%ADD17R,4.000000X2.000000*%
%TD*%
%TA.AperFunction,ComponentPad*%
%ADD18O,3.300000X2.000000*%
%TD*%
%TA.AperFunction,ComponentPad*%
%ADD19O,2.000000X3.500000*%
%TD*%
%TA.AperFunction,ComponentPad*%
%ADD20R,1.700000X1.700000*%
%TD*%
%TA.AperFunction,ComponentPad*%
%ADD21O,1.700000X1.700000*%
%TD*%
%TA.AperFunction,ComponentPad*%
%ADD22RoundRect,0.250000X-1.125000X-1.125000X1.125000X-1.125000X1.125000X1.125000X-1.125000X1.125000X0*%
%TD*%
%TA.AperFunction,ComponentPad*%
%ADD23R,2.000000X2.000000*%
%TD*%
%TA.AperFunction,ComponentPad*%
%ADD24RoundRect,0.250000X0.750000X-0.600000X0.750000X0.600000X-0.750000X0.600000X-0.750000X-0.600000X0*%
%TD*%
%TA.AperFunction,ComponentPad*%
%ADD25O,2.000000X1.700000*%
%TD*%
%TA.AperFunction,ComponentPad*%
%ADD26C,10.600000*%
%TD*%
%TA.AperFunction,ComponentPad*%
%ADD27R,2.500000X4.500000*%
%TD*%
%TA.AperFunction,ComponentPad*%
%ADD28O,2.500000X4.500000*%
%TD*%
%TA.AperFunction,ViaPad*%
%ADD29C,1.000000*%
%TD*%
%TA.AperFunction,ViaPad*%
%ADD30C,0.600000*%
%TD*%
%TA.AperFunction,ViaPad*%
%ADD31C,0.500000*%
%TD*%
%TA.AperFunction,Conductor*%
%ADD32C,3.000000*%
%TD*%
%TA.AperFunction,Conductor*%
%ADD33C,1.000000*%
%TD*%
%TA.AperFunction,Conductor*%
%ADD34C,0.250000*%
%TD*%
%TA.AperFunction,Conductor*%
%ADD35C,2.000000*%
%TD*%
%TA.AperFunction,Conductor*%
%ADD36C,0.500000*%
%TD*%
%TA.AperFunction,Conductor*%
%ADD37C,0.200000*%
%TD*%
G04 APERTURE END LIST*
D10*
%TO.P,J5,1,In*%
%TO.N,Net-(J5-In)*%
X59500000Y-78000000D03*
D11*
%TO.P,J5,2,Ext*%
%TO.N,GND*%
X56960000Y-80540000D03*
X62040000Y-80540000D03*
X56960000Y-75460000D03*
X62040000Y-75460000D03*
%TD*%
D10*
%TO.P,J3,1,In*%
%TO.N,Net-(J3-In)*%
X59500000Y-92000000D03*
D11*
%TO.P,J3,2,Ext*%
%TO.N,GND*%
X56960000Y-94540000D03*
X62040000Y-94540000D03*
X56960000Y-89460000D03*
X62040000Y-89460000D03*
%TD*%
D12*
%TO.P,J12,1,Pin_1*%
%TO.N,Net-(J12-Pin_1)*%
X95000000Y-129250000D03*
X95000000Y-137449999D03*
%TD*%
%TO.P,J11,1,Pin_1*%
%TO.N,/DRAIN*%
X105000000Y-129250000D03*
X105000000Y-137449999D03*
%TD*%
D13*
%TO.P,RV1,1,1*%
%TO.N,Net-(R3-Pad2)*%
X91750000Y-59000000D03*
%TO.P,RV1,2,2*%
%TO.N,Net-(C11-Pad2)*%
X94250000Y-61500000D03*
%TO.P,RV1,3,3*%
%TO.N,Net-(R4-Pad1)*%
X96750000Y-59000000D03*
%TD*%
D14*
%TO.P,SW1,1,A*%
%TO.N,Net-(SW1-A)*%
X111500000Y-70190000D03*
%TO.P,SW1,2,B*%
%TO.N,Net-(J2-Pin_1)*%
X111500000Y-74000000D03*
%TO.P,SW1,3,C*%
%TO.N,unconnected-(SW1-C-Pad3)*%
X111500000Y-77810000D03*
D15*
%TO.P,SW1,M1*%
%TO.N,N/C*%
X114040000Y-57490000D03*
%TO.P,SW1,M2*%
X108960000Y-57490000D03*
%TD*%
D16*
%TO.P,TP1,1,1*%
%TO.N,Net-(T1-Secondary)*%
X130900000Y-142900000D03*
%TD*%
D17*
%TO.P,J1,1*%
%TO.N,Net-(SW1-A)*%
X124500000Y-67500000D03*
D18*
%TO.P,J1,2*%
%TO.N,GND*%
X124500000Y-61500000D03*
D19*
%TO.P,J1,MP1*%
%TO.N,N/C*%
X120000000Y-60500000D03*
%TO.P,J1,MP2*%
X129000000Y-60500000D03*
%TD*%
D20*
%TO.P,J6,1,Pin_1*%
%TO.N,Net-(D6-K)*%
X73700000Y-104675000D03*
D21*
%TO.P,J6,2,Pin_2*%
%TO.N,Net-(J6-Pin_2)*%
X73700000Y-102135000D03*
%TO.P,J6,3,Pin_3*%
%TO.N,Net-(D6-K)*%
X76240000Y-104675000D03*
%TO.P,J6,4,Pin_4*%
%TO.N,Net-(J6-Pin_4)*%
X76240000Y-102135000D03*
%TO.P,J6,5,Pin_5*%
%TO.N,Net-(D6-K)*%
X78780000Y-104675000D03*
%TO.P,J6,6,Pin_6*%
%TO.N,Net-(J6-Pin_6)*%
X78780000Y-102135000D03*
%TO.P,J6,7,Pin_7*%
%TO.N,Net-(D6-K)*%
X81320000Y-104675000D03*
%TO.P,J6,8,Pin_8*%
%TO.N,Net-(J6-Pin_8)*%
X81320000Y-102135000D03*
%TD*%
D20*
%TO.P,J4,1,Pin_1*%
%TO.N,Net-(J4-Pin_1)*%
X113275000Y-90300000D03*
D21*
%TO.P,J4,2,Pin_2*%
%TO.N,/GATE*%
X110735000Y-90300000D03*
%TO.P,J4,3,Pin_3*%
%TO.N,Net-(J4-Pin_3)*%
X113275000Y-87760000D03*
%TO.P,J4,4,Pin_4*%
%TO.N,/GATE*%
X110735000Y-87760000D03*
%TO.P,J4,5,Pin_5*%
%TO.N,Net-(J4-Pin_5)*%
X113275000Y-85220000D03*
%TO.P,J4,6,Pin_6*%
%TO.N,/GATE*%
X110735000Y-85220000D03*
%TO.P,J4,7,Pin_7*%
%TO.N,Net-(J4-Pin_7)*%
X113275000Y-82680000D03*
%TO.P,J4,8,Pin_8*%
%TO.N,/GATE*%
X110735000Y-82680000D03*
%TD*%
D12*
%TO.P,C18,1*%
%TO.N,Net-(J12-Pin_1)*%
X78000000Y-121450000D03*
%TO.P,C18,2*%
%TO.N,Net-(D6-K)*%
X78000000Y-111450000D03*
%TD*%
D22*
%TO.P,TP2,1,1*%
%TO.N,Net-(J2-Pin_1)*%
X142500000Y-95000000D03*
%TD*%
D23*
%TO.P,C2,1*%
%TO.N,Net-(J2-Pin_1)*%
X124132323Y-76000000D03*
D12*
%TO.P,C2,2*%
%TO.N,GND*%
X129132323Y-76000000D03*
%TD*%
%TO.P,C16,1*%
%TO.N,Net-(J12-Pin_1)*%
X89000000Y-121450000D03*
%TO.P,C16,2*%
%TO.N,Net-(D6-K)*%
X89000000Y-111450000D03*
%TD*%
%TO.P,C1,1*%
%TO.N,Net-(J12-Pin_1)*%
X94500000Y-121450000D03*
%TO.P,C1,2*%
%TO.N,Net-(D6-K)*%
X94500000Y-111450000D03*
%TD*%
%TO.P,C17,1*%
%TO.N,Net-(J12-Pin_1)*%
X83500000Y-121450000D03*
%TO.P,C17,2*%
%TO.N,Net-(D6-K)*%
X83500000Y-111450000D03*
%TD*%
D24*
%TO.P,J2,1,Pin_1*%
%TO.N,Net-(J2-Pin_1)*%
X140975000Y-79250000D03*
D25*
%TO.P,J2,2,Pin_2*%
%TO.N,GND*%
X140975000Y-76750000D03*
%TD*%
D12*
%TO.P,C19,1*%
%TO.N,Net-(J12-Pin_1)*%
X72500000Y-121450000D03*
%TO.P,C19,2*%
%TO.N,Net-(D6-K)*%
X72500000Y-111450000D03*
%TD*%
D26*
%TO.P,H1,1,1*%
%TO.N,Net-(D6-K)*%
X61000000Y-111950000D03*
%TD*%
D12*
%TO.P,C20,1*%
%TO.N,Net-(J12-Pin_1)*%
X67000000Y-121450000D03*
%TO.P,C20,2*%
%TO.N,Net-(D6-K)*%
X67000000Y-111450000D03*
%TD*%
D22*
%TO.P,TP3,1,1*%
%TO.N,/DRAIN*%
X142500000Y-133000000D03*
%TD*%
D27*
%TO.P,Q1,1,G*%
%TO.N,/GATE*%
X94550000Y-100290000D03*
D28*
%TO.P,Q1,2,D*%
%TO.N,/DRAIN*%
X100000000Y-100290000D03*
%TO.P,Q1,3,S*%
%TO.N,GND*%
X105450000Y-100290000D03*
%TD*%
D29*
%TO.N,GND*%
X68500000Y-60500000D03*
D30*
X131000000Y-85000000D03*
D29*
X87500000Y-89500000D03*
X76500000Y-89500000D03*
X100250000Y-68750000D03*
X71000000Y-89500000D03*
D30*
X131000000Y-89500000D03*
D29*
X82000000Y-89500000D03*
D31*
%TO.N,Net-(D6-K)*%
X65900000Y-143100000D03*
D30*
%TO.N,Net-(D3-K)*%
X113425000Y-117600000D03*
X118900000Y-115100000D03*
D29*
%TO.N,Net-(C11-Pad2)*%
X103500000Y-61750000D03*
D30*
%TO.N,Net-(D5-K)*%
X114500000Y-144200000D03*
X86050000Y-136500000D03*
%TO.N,Net-(D6-A)*%
X120200000Y-135900000D03*
X110600000Y-140300000D03*
D29*
%TO.N,/DRAIN*%
X66700000Y-92000000D03*
%TD*%
D32*
%TO.N,GND*%
X105450000Y-85550000D02*
X105500000Y-85500000D01*
D33*
X105200000Y-85800000D02*
X105450000Y-85550000D01*
D34*
X100250000Y-68750000D02*
X106300000Y-74800000D01*
D32*
X129250000Y-85000000D02*
X129250000Y-89500000D01*
D33*
X56960000Y-80540000D02*
X62040000Y-80540000D01*
D34*
X106300000Y-74800000D02*
X106300000Y-86150000D01*
X86900000Y-65700000D02*
X95500000Y-74300000D01*
D33*
X66640000Y-89460000D02*
X68800000Y-87300000D01*
X140725000Y-76500000D02*
X129750000Y-76500000D01*
D35*
X131000000Y-85000000D02*
X129250000Y-85000000D01*
D32*
X105450000Y-89500000D02*
X105450000Y-87000000D01*
D34*
X105100000Y-77600000D02*
X105100000Y-85200000D01*
D33*
X56960000Y-75460000D02*
X56960000Y-80540000D01*
X56960000Y-75460000D02*
X62040000Y-75460000D01*
D32*
X121000000Y-94500000D02*
X115210000Y-100290000D01*
D33*
X129750000Y-76500000D02*
X129250000Y-77000000D01*
D32*
X129250000Y-93250000D02*
X128000000Y-94500000D01*
D35*
X69500000Y-89500000D02*
X86000000Y-89500000D01*
D33*
X56960000Y-89460000D02*
X62040000Y-89460000D01*
X56960000Y-94540000D02*
X62040000Y-94540000D01*
X56960000Y-89460000D02*
X56960000Y-94540000D01*
X62040000Y-80540000D02*
X65040000Y-80540000D01*
X65040000Y-80540000D02*
X70300000Y-85800000D01*
D34*
X106300000Y-86150000D02*
X105450000Y-87000000D01*
D33*
X68800000Y-87300000D02*
X105150000Y-87300000D01*
X70300000Y-85800000D02*
X105200000Y-85800000D01*
D34*
X95500000Y-74300000D02*
X101800000Y-74300000D01*
D33*
X62040000Y-89460000D02*
X66640000Y-89460000D01*
D35*
X86000000Y-89500000D02*
X105450000Y-89500000D01*
D34*
X68500000Y-60500000D02*
X73700000Y-65700000D01*
D32*
X105450000Y-87000000D02*
X105450000Y-85550000D01*
X128000000Y-94500000D02*
X121000000Y-94500000D01*
D34*
X105100000Y-85200000D02*
X105450000Y-85550000D01*
D32*
X105450000Y-100290000D02*
X105450000Y-89500000D01*
X129250000Y-66250000D02*
X124500000Y-61500000D01*
D34*
X101800000Y-74300000D02*
X105100000Y-77600000D01*
D32*
X115210000Y-100290000D02*
X105450000Y-100290000D01*
X129250000Y-66250000D02*
X129250000Y-85000000D01*
D33*
X105150000Y-87300000D02*
X105450000Y-87000000D01*
D35*
X131000000Y-89500000D02*
X129250000Y-89500000D01*
D33*
X140975000Y-76750000D02*
X140725000Y-76500000D01*
D34*
X73700000Y-65700000D02*
X86900000Y-65700000D01*
D32*
X129250000Y-89500000D02*
X129250000Y-93250000D01*
D35*
%TO.N,Net-(D6-K)*%
X78000000Y-111450000D02*
X78000000Y-104675000D01*
X78000000Y-104675000D02*
X81320000Y-104675000D01*
D36*
X56300000Y-135400000D02*
X61000000Y-135400000D01*
D32*
X80500000Y-111450000D02*
X61500000Y-111450000D01*
D35*
X73700000Y-104675000D02*
X78000000Y-104675000D01*
D36*
X64400000Y-142700000D02*
X64800000Y-143100000D01*
X61000000Y-111950000D02*
X60650000Y-111950000D01*
X64800000Y-143100000D02*
X65900000Y-143100000D01*
X61000000Y-135400000D02*
X64400000Y-138800000D01*
X55751000Y-116849000D02*
X55751000Y-134851000D01*
D32*
X94500000Y-111450000D02*
X80500000Y-111450000D01*
D36*
X60650000Y-111950000D02*
X55751000Y-116849000D01*
X55751000Y-134851000D02*
X56300000Y-135400000D01*
X64400000Y-138800000D02*
X64400000Y-142700000D01*
D32*
X61500000Y-111450000D02*
X61000000Y-111950000D01*
%TO.N,Net-(J12-Pin_1)*%
X94500000Y-121450000D02*
X67000000Y-121450000D01*
D37*
%TO.N,Net-(D3-K)*%
X113425000Y-117600000D02*
X118125000Y-117600000D01*
X118125000Y-117600000D02*
X118900000Y-116825000D01*
X118900000Y-116825000D02*
X118900000Y-115100000D01*
D33*
%TO.N,Net-(C11-Pad2)*%
X94500000Y-61750000D02*
X94250000Y-61500000D01*
X103500000Y-61750000D02*
X94500000Y-61750000D01*
D36*
%TO.N,Net-(D5-K)*%
X86050000Y-136500000D02*
X86050000Y-139500000D01*
X86050000Y-139500000D02*
X86050000Y-141100000D01*
X86050000Y-139500000D02*
X86050000Y-140300000D01*
X89150000Y-144200000D02*
X114500000Y-144200000D01*
X86050000Y-141100000D02*
X89150000Y-144200000D01*
D33*
%TO.N,Net-(D6-A)*%
X120200000Y-135900000D02*
X115000000Y-135900000D01*
X115000000Y-135900000D02*
X110600000Y-140300000D01*
%TO.N,/DRAIN*%
X66700000Y-92000000D02*
X91710000Y-92000000D01*
D32*
X105000000Y-112500000D02*
X105000000Y-137450000D01*
X105000000Y-112500000D02*
X100000000Y-107500000D01*
X100000000Y-107500000D02*
X100000000Y-100290000D01*
D33*
X91710000Y-92000000D02*
X100000000Y-100290000D01*
%TD*%
M02*
