M48
; DRILL file {KiCad 9.0.0} date 2025-06-27T03:49:49-0700
; FORMAT={-:-/ absolute / metric / decimal}
; #@! TF.CreationDate,2025-06-27T03:49:49-07:00
; #@! TF.GenerationSoftware,Kicad,Pcbnew,9.0.0
; #@! TF.FileFunction,Plated,1,2,PTH
FMAT,2
METRIC
; #@! TA.AperFunction,Plated,PTH,ViaDrill
T1C0.300
; #@! TA.AperFunction,Plated,PTH,ViaDrill
T2C0.600
; #@! TA.AperFunction,Plated,PTH,ComponentDrill
T3C1.000
; #@! TA.AperFunction,Plated,PTH,ComponentDrill
T4C1.300
; #@! TA.AperFunction,Plated,PTH,ComponentDrill
T5C1.500
; #@! TA.AperFunction,Plated,PTH,ComponentDrill
T6C1.700
; #@! TA.AperFunction,Plated,PTH,ComponentDrill
T7C1.850
; #@! TA.AperFunction,Plated,PTH,ComponentDrill
T8C5.300
%
G90
G05
T1
X108.0Y-110.5
X109.0Y-105.0
X110.0Y-118.5
X110.0Y-124.0
X111.5Y-107.5
X111.5Y-113.5
X112.5Y-109.5
X117.5Y-113.0
X117.6Y-117.9
X118.7Y-109.3
X119.625Y-138.2
X121.5Y-105.6
X121.5Y-111.5
X125.1Y-135.7
X131.0Y-85.0
X131.0Y-89.5
X131.0Y-97.9
X137.5Y-64.462
X139.0Y-64.462
X140.963Y-64.462
X143.5Y-64.5
T2
X68.5Y-60.5
X68.5Y-92.0
X71.5Y-89.5
X77.0Y-89.5
X82.5Y-89.5
X88.0Y-89.5
X100.25Y-68.75
X103.5Y-61.75
T3
X57.5Y-100.0
X57.5Y-102.54
X67.0Y-114.0
X67.0Y-124.0
X71.5Y-102.225
X71.5Y-104.765
X72.5Y-114.0
X72.5Y-124.0
X77.0Y-102.225
X77.0Y-104.765
X78.0Y-114.0
X78.0Y-124.0
X82.5Y-102.225
X82.5Y-104.765
X83.5Y-114.0
X83.5Y-124.0
X88.0Y-102.225
X88.0Y-104.765
X89.0Y-114.0
X89.0Y-124.0
X94.5Y-114.0
X94.5Y-124.0
X110.735Y-82.68
X110.735Y-85.22
X110.735Y-87.76
X110.735Y-90.3
X113.275Y-82.68
X113.275Y-85.22
X113.275Y-87.76
X113.275Y-90.3
X124.132Y-76.0
X127.0Y-100.0
X127.0Y-102.54
X129.132Y-76.0
X140.975Y-76.75
X140.975Y-79.25
T4
X91.75Y-59.0
X94.25Y-61.5
X95.0Y-131.8
X95.0Y-140.0
X96.75Y-59.0
X105.0Y-131.8
X105.0Y-140.0
T5
X59.5Y-78.0
X59.5Y-92.0
X94.55Y-100.29
X100.0Y-100.29
X105.45Y-100.29
T6
X56.96Y-75.46
X56.96Y-80.54
X56.96Y-89.46
X56.96Y-94.54
X62.04Y-75.46
X62.04Y-80.54
X62.04Y-89.46
X62.04Y-94.54
T7
X108.96Y-57.49
X111.5Y-70.19
X111.5Y-74.0
X111.5Y-77.81
X114.04Y-57.49
T8
X61.0Y-114.5
T3
G00X120.0Y-61.25
M15
G01X120.0Y-59.75
M16
G05
G00X125.15Y-61.5
M15
G01X123.85Y-61.5
M16
G05
G00X125.5Y-67.5
M15
G01X123.5Y-67.5
M16
G05
G00X129.0Y-61.25
M15
G01X129.0Y-59.75
M16
G05
M30
