%TF.GenerationSoftware,KiCad,Pcbnew,9.0.0*%
%TF.CreationDate,2025-07-31T17:57:17-04:00*%
%TF.ProjectId,PlasmaTransformer,506c6173-6d61-4547-9261-6e73666f726d,4*%
%TF.SameCoordinates,Original*%
%TF.FileFunction,Legend,Top*%
%TF.FilePolarity,Positive*%
%FSLAX46Y46*%
G04 Gerber Fmt 4.6, Leading zero omitted, Abs format (unit mm)*
G04 Created by KiCad (PCBNEW 9.0.0) date 2025-07-31 17:57:17*
%MOMM*%
%LPD*%
G01*
G04 APERTURE LIST*
%ADD10C,0.150000*%
%ADD11C,0.250000*%
%ADD12C,0.200000*%
%ADD13C,0.300000*%
%ADD14C,0.100000*%
%ADD15C,0.120000*%
%ADD16C,0.560000*%
%ADD17C,0.152400*%
%ADD18C,0.508000*%
G04 APERTURE END LIST*
D10*
X72163220Y-66073878D02*
X71829887Y-66073878D01*
X71687030Y-65550068D02*
X72163220Y-65550068D01*
X72163220Y-65550068D02*
X72163220Y-66550068D01*
X72163220Y-66550068D02*
X71687030Y-66550068D01*
X71353696Y-66550068D02*
X70687030Y-65550068D01*
X70687030Y-66550068D02*
X71353696Y-65550068D01*
X70306077Y-65550068D02*
X70306077Y-66550068D01*
X70306077Y-66550068D02*
X69925125Y-66550068D01*
X69925125Y-66550068D02*
X69829887Y-66502449D01*
X69829887Y-66502449D02*
X69782268Y-66454830D01*
X69782268Y-66454830D02*
X69734649Y-66359592D01*
X69734649Y-66359592D02*
X69734649Y-66216735D01*
X69734649Y-66216735D02*
X69782268Y-66121497D01*
X69782268Y-66121497D02*
X69829887Y-66073878D01*
X69829887Y-66073878D02*
X69925125Y-66026259D01*
X69925125Y-66026259D02*
X70306077Y-66026259D01*
X69306077Y-66073878D02*
X68972744Y-66073878D01*
X68829887Y-65550068D02*
X69306077Y-65550068D01*
X69306077Y-65550068D02*
X69306077Y-66550068D01*
X69306077Y-66550068D02*
X68829887Y-66550068D01*
X67829887Y-65550068D02*
X68163220Y-66026259D01*
X68401315Y-65550068D02*
X68401315Y-66550068D01*
X68401315Y-66550068D02*
X68020363Y-66550068D01*
X68020363Y-66550068D02*
X67925125Y-66502449D01*
X67925125Y-66502449D02*
X67877506Y-66454830D01*
X67877506Y-66454830D02*
X67829887Y-66359592D01*
X67829887Y-66359592D02*
X67829887Y-66216735D01*
X67829887Y-66216735D02*
X67877506Y-66121497D01*
X67877506Y-66121497D02*
X67925125Y-66073878D01*
X67925125Y-66073878D02*
X68020363Y-66026259D01*
X68020363Y-66026259D02*
X68401315Y-66026259D01*
X67401315Y-65550068D02*
X67401315Y-66550068D01*
X66925125Y-65550068D02*
X66925125Y-66550068D01*
X66925125Y-66550068D02*
X66591792Y-65835783D01*
X66591792Y-65835783D02*
X66258459Y-66550068D01*
X66258459Y-66550068D02*
X66258459Y-65550068D01*
X65782268Y-66073878D02*
X65448935Y-66073878D01*
X65306078Y-65550068D02*
X65782268Y-65550068D01*
X65782268Y-65550068D02*
X65782268Y-66550068D01*
X65782268Y-66550068D02*
X65306078Y-66550068D01*
X64877506Y-65550068D02*
X64877506Y-66550068D01*
X64877506Y-66550068D02*
X64306078Y-65550068D01*
X64306078Y-65550068D02*
X64306078Y-66550068D01*
X63972744Y-66550068D02*
X63401316Y-66550068D01*
X63687030Y-65550068D02*
X63687030Y-66550068D01*
X63115601Y-65835783D02*
X62639411Y-65835783D01*
X63210839Y-65550068D02*
X62877506Y-66550068D01*
X62877506Y-66550068D02*
X62544173Y-65550068D01*
X61734649Y-65550068D02*
X62210839Y-65550068D01*
X62210839Y-65550068D02*
X62210839Y-66550068D01*
X61401315Y-65645307D02*
X61353696Y-65597688D01*
X61353696Y-65597688D02*
X61401315Y-65550068D01*
X61401315Y-65550068D02*
X61448934Y-65597688D01*
X61448934Y-65597688D02*
X61401315Y-65645307D01*
X61401315Y-65645307D02*
X61401315Y-65550068D01*
X61401315Y-65931021D02*
X61448934Y-66502449D01*
X61448934Y-66502449D02*
X61401315Y-66550068D01*
X61401315Y-66550068D02*
X61353696Y-66502449D01*
X61353696Y-66502449D02*
X61401315Y-65931021D01*
X61401315Y-65931021D02*
X61401315Y-66550068D01*
X72163220Y-63940124D02*
X72163220Y-64940124D01*
X71734649Y-63987744D02*
X71591792Y-63940124D01*
X71591792Y-63940124D02*
X71353697Y-63940124D01*
X71353697Y-63940124D02*
X71258459Y-63987744D01*
X71258459Y-63987744D02*
X71210840Y-64035363D01*
X71210840Y-64035363D02*
X71163221Y-64130601D01*
X71163221Y-64130601D02*
X71163221Y-64225839D01*
X71163221Y-64225839D02*
X71210840Y-64321077D01*
X71210840Y-64321077D02*
X71258459Y-64368696D01*
X71258459Y-64368696D02*
X71353697Y-64416315D01*
X71353697Y-64416315D02*
X71544173Y-64463934D01*
X71544173Y-64463934D02*
X71639411Y-64511553D01*
X71639411Y-64511553D02*
X71687030Y-64559172D01*
X71687030Y-64559172D02*
X71734649Y-64654410D01*
X71734649Y-64654410D02*
X71734649Y-64749648D01*
X71734649Y-64749648D02*
X71687030Y-64844886D01*
X71687030Y-64844886D02*
X71639411Y-64892505D01*
X71639411Y-64892505D02*
X71544173Y-64940124D01*
X71544173Y-64940124D02*
X71306078Y-64940124D01*
X71306078Y-64940124D02*
X71163221Y-64892505D01*
X70544173Y-64940124D02*
X70353697Y-64940124D01*
X70353697Y-64940124D02*
X70258459Y-64892505D01*
X70258459Y-64892505D02*
X70163221Y-64797267D01*
X70163221Y-64797267D02*
X70115602Y-64606791D01*
X70115602Y-64606791D02*
X70115602Y-64273458D01*
X70115602Y-64273458D02*
X70163221Y-64082982D01*
X70163221Y-64082982D02*
X70258459Y-63987744D01*
X70258459Y-63987744D02*
X70353697Y-63940124D01*
X70353697Y-63940124D02*
X70544173Y-63940124D01*
X70544173Y-63940124D02*
X70639411Y-63987744D01*
X70639411Y-63987744D02*
X70734649Y-64082982D01*
X70734649Y-64082982D02*
X70782268Y-64273458D01*
X70782268Y-64273458D02*
X70782268Y-64606791D01*
X70782268Y-64606791D02*
X70734649Y-64797267D01*
X70734649Y-64797267D02*
X70639411Y-64892505D01*
X70639411Y-64892505D02*
X70544173Y-64940124D01*
X69210840Y-63940124D02*
X69687030Y-63940124D01*
X69687030Y-63940124D02*
X69687030Y-64940124D01*
X68925125Y-64225839D02*
X68448935Y-64225839D01*
X69020363Y-63940124D02*
X68687030Y-64940124D01*
X68687030Y-64940124D02*
X68353697Y-63940124D01*
X68163220Y-64940124D02*
X67591792Y-64940124D01*
X67877506Y-63940124D02*
X67877506Y-64940124D01*
X67258458Y-63940124D02*
X67258458Y-64940124D01*
X66591792Y-64940124D02*
X66401316Y-64940124D01*
X66401316Y-64940124D02*
X66306078Y-64892505D01*
X66306078Y-64892505D02*
X66210840Y-64797267D01*
X66210840Y-64797267D02*
X66163221Y-64606791D01*
X66163221Y-64606791D02*
X66163221Y-64273458D01*
X66163221Y-64273458D02*
X66210840Y-64082982D01*
X66210840Y-64082982D02*
X66306078Y-63987744D01*
X66306078Y-63987744D02*
X66401316Y-63940124D01*
X66401316Y-63940124D02*
X66591792Y-63940124D01*
X66591792Y-63940124D02*
X66687030Y-63987744D01*
X66687030Y-63987744D02*
X66782268Y-64082982D01*
X66782268Y-64082982D02*
X66829887Y-64273458D01*
X66829887Y-64273458D02*
X66829887Y-64606791D01*
X66829887Y-64606791D02*
X66782268Y-64797267D01*
X66782268Y-64797267D02*
X66687030Y-64892505D01*
X66687030Y-64892505D02*
X66591792Y-64940124D01*
X65734649Y-63940124D02*
X65734649Y-64940124D01*
X65734649Y-64940124D02*
X65163221Y-63940124D01*
X65163221Y-63940124D02*
X65163221Y-64940124D01*
X63353697Y-63940124D02*
X63687030Y-64416315D01*
X63925125Y-63940124D02*
X63925125Y-64940124D01*
X63925125Y-64940124D02*
X63544173Y-64940124D01*
X63544173Y-64940124D02*
X63448935Y-64892505D01*
X63448935Y-64892505D02*
X63401316Y-64844886D01*
X63401316Y-64844886D02*
X63353697Y-64749648D01*
X63353697Y-64749648D02*
X63353697Y-64606791D01*
X63353697Y-64606791D02*
X63401316Y-64511553D01*
X63401316Y-64511553D02*
X63448935Y-64463934D01*
X63448935Y-64463934D02*
X63544173Y-64416315D01*
X63544173Y-64416315D02*
X63925125Y-64416315D01*
X62925125Y-64463934D02*
X62591792Y-64463934D01*
X62448935Y-63940124D02*
X62925125Y-63940124D01*
X62925125Y-63940124D02*
X62925125Y-64940124D01*
X62925125Y-64940124D02*
X62448935Y-64940124D01*
X61353697Y-63844886D02*
X61448935Y-63892505D01*
X61448935Y-63892505D02*
X61544173Y-63987744D01*
X61544173Y-63987744D02*
X61687030Y-64130601D01*
X61687030Y-64130601D02*
X61782268Y-64178220D01*
X61782268Y-64178220D02*
X61877506Y-64178220D01*
X61829887Y-63940124D02*
X61925125Y-63987744D01*
X61925125Y-63987744D02*
X62020363Y-64082982D01*
X62020363Y-64082982D02*
X62067982Y-64273458D01*
X62067982Y-64273458D02*
X62067982Y-64606791D01*
X62067982Y-64606791D02*
X62020363Y-64797267D01*
X62020363Y-64797267D02*
X61925125Y-64892505D01*
X61925125Y-64892505D02*
X61829887Y-64940124D01*
X61829887Y-64940124D02*
X61639411Y-64940124D01*
X61639411Y-64940124D02*
X61544173Y-64892505D01*
X61544173Y-64892505D02*
X61448935Y-64797267D01*
X61448935Y-64797267D02*
X61401316Y-64606791D01*
X61401316Y-64606791D02*
X61401316Y-64273458D01*
X61401316Y-64273458D02*
X61448935Y-64082982D01*
X61448935Y-64082982D02*
X61544173Y-63987744D01*
X61544173Y-63987744D02*
X61639411Y-63940124D01*
X61639411Y-63940124D02*
X61829887Y-63940124D01*
X60925125Y-64940124D02*
X61020363Y-64749648D01*
X60496554Y-63940124D02*
X60496554Y-64940124D01*
X60496554Y-64940124D02*
X60258459Y-64940124D01*
X60258459Y-64940124D02*
X60115602Y-64892505D01*
X60115602Y-64892505D02*
X60020364Y-64797267D01*
X60020364Y-64797267D02*
X59972745Y-64702029D01*
X59972745Y-64702029D02*
X59925126Y-64511553D01*
X59925126Y-64511553D02*
X59925126Y-64368696D01*
X59925126Y-64368696D02*
X59972745Y-64178220D01*
X59972745Y-64178220D02*
X60020364Y-64082982D01*
X60020364Y-64082982D02*
X60115602Y-63987744D01*
X60115602Y-63987744D02*
X60258459Y-63940124D01*
X60258459Y-63940124D02*
X60496554Y-63940124D01*
X59496554Y-64035363D02*
X59448935Y-63987744D01*
X59448935Y-63987744D02*
X59496554Y-63940124D01*
X59496554Y-63940124D02*
X59544173Y-63987744D01*
X59544173Y-63987744D02*
X59496554Y-64035363D01*
X59496554Y-64035363D02*
X59496554Y-63940124D01*
X59496554Y-64321077D02*
X59544173Y-64892505D01*
X59544173Y-64892505D02*
X59496554Y-64940124D01*
X59496554Y-64940124D02*
X59448935Y-64892505D01*
X59448935Y-64892505D02*
X59496554Y-64321077D01*
X59496554Y-64321077D02*
X59496554Y-64940124D01*
X72163220Y-62330180D02*
X72163220Y-63330180D01*
X72163220Y-63330180D02*
X71591792Y-62330180D01*
X71591792Y-62330180D02*
X71591792Y-63330180D01*
X70925125Y-63330180D02*
X70734649Y-63330180D01*
X70734649Y-63330180D02*
X70639411Y-63282561D01*
X70639411Y-63282561D02*
X70544173Y-63187323D01*
X70544173Y-63187323D02*
X70496554Y-62996847D01*
X70496554Y-62996847D02*
X70496554Y-62663514D01*
X70496554Y-62663514D02*
X70544173Y-62473038D01*
X70544173Y-62473038D02*
X70639411Y-62377800D01*
X70639411Y-62377800D02*
X70734649Y-62330180D01*
X70734649Y-62330180D02*
X70925125Y-62330180D01*
X70925125Y-62330180D02*
X71020363Y-62377800D01*
X71020363Y-62377800D02*
X71115601Y-62473038D01*
X71115601Y-62473038D02*
X71163220Y-62663514D01*
X71163220Y-62663514D02*
X71163220Y-62996847D01*
X71163220Y-62996847D02*
X71115601Y-63187323D01*
X71115601Y-63187323D02*
X71020363Y-63282561D01*
X71020363Y-63282561D02*
X70925125Y-63330180D01*
X70210839Y-63330180D02*
X69639411Y-63330180D01*
X69925125Y-62330180D02*
X69925125Y-63330180D01*
X68591791Y-62615895D02*
X68115601Y-62615895D01*
X68687029Y-62330180D02*
X68353696Y-63330180D01*
X68353696Y-63330180D02*
X68020363Y-62330180D01*
X67687029Y-63330180D02*
X67687029Y-62520657D01*
X67687029Y-62520657D02*
X67639410Y-62425419D01*
X67639410Y-62425419D02*
X67591791Y-62377800D01*
X67591791Y-62377800D02*
X67496553Y-62330180D01*
X67496553Y-62330180D02*
X67306077Y-62330180D01*
X67306077Y-62330180D02*
X67210839Y-62377800D01*
X67210839Y-62377800D02*
X67163220Y-62425419D01*
X67163220Y-62425419D02*
X67115601Y-62520657D01*
X67115601Y-62520657D02*
X67115601Y-63330180D01*
X66639410Y-62330180D02*
X66639410Y-63330180D01*
X66639410Y-63330180D02*
X66401315Y-63330180D01*
X66401315Y-63330180D02*
X66258458Y-63282561D01*
X66258458Y-63282561D02*
X66163220Y-63187323D01*
X66163220Y-63187323D02*
X66115601Y-63092085D01*
X66115601Y-63092085D02*
X66067982Y-62901609D01*
X66067982Y-62901609D02*
X66067982Y-62758752D01*
X66067982Y-62758752D02*
X66115601Y-62568276D01*
X66115601Y-62568276D02*
X66163220Y-62473038D01*
X66163220Y-62473038D02*
X66258458Y-62377800D01*
X66258458Y-62377800D02*
X66401315Y-62330180D01*
X66401315Y-62330180D02*
X66639410Y-62330180D01*
X65639410Y-62330180D02*
X65639410Y-63330180D01*
X64972744Y-63330180D02*
X64782268Y-63330180D01*
X64782268Y-63330180D02*
X64687030Y-63282561D01*
X64687030Y-63282561D02*
X64591792Y-63187323D01*
X64591792Y-63187323D02*
X64544173Y-62996847D01*
X64544173Y-62996847D02*
X64544173Y-62663514D01*
X64544173Y-62663514D02*
X64591792Y-62473038D01*
X64591792Y-62473038D02*
X64687030Y-62377800D01*
X64687030Y-62377800D02*
X64782268Y-62330180D01*
X64782268Y-62330180D02*
X64972744Y-62330180D01*
X64972744Y-62330180D02*
X65067982Y-62377800D01*
X65067982Y-62377800D02*
X65163220Y-62473038D01*
X65163220Y-62473038D02*
X65210839Y-62663514D01*
X65210839Y-62663514D02*
X65210839Y-62996847D01*
X65210839Y-62996847D02*
X65163220Y-63187323D01*
X65163220Y-63187323D02*
X65067982Y-63282561D01*
X65067982Y-63282561D02*
X64972744Y-63330180D01*
X63353696Y-62330180D02*
X63353696Y-63330180D01*
X62877506Y-62330180D02*
X62877506Y-63330180D01*
X62877506Y-63330180D02*
X62306078Y-62330180D01*
X62306078Y-62330180D02*
X62306078Y-63330180D01*
X61829887Y-62425419D02*
X61782268Y-62377800D01*
X61782268Y-62377800D02*
X61829887Y-62330180D01*
X61829887Y-62330180D02*
X61877506Y-62377800D01*
X61877506Y-62377800D02*
X61829887Y-62425419D01*
X61829887Y-62425419D02*
X61829887Y-62330180D01*
X61829887Y-62711133D02*
X61877506Y-63282561D01*
X61877506Y-63282561D02*
X61829887Y-63330180D01*
X61829887Y-63330180D02*
X61782268Y-63282561D01*
X61782268Y-63282561D02*
X61829887Y-62711133D01*
X61829887Y-62711133D02*
X61829887Y-63330180D01*
D11*
X89090476Y-90182411D02*
X89280952Y-90277649D01*
X89280952Y-90277649D02*
X89566666Y-90277649D01*
X89566666Y-90277649D02*
X89852381Y-90182411D01*
X89852381Y-90182411D02*
X90042857Y-89991935D01*
X90042857Y-89991935D02*
X90138095Y-89801459D01*
X90138095Y-89801459D02*
X90233333Y-89420507D01*
X90233333Y-89420507D02*
X90233333Y-89134792D01*
X90233333Y-89134792D02*
X90138095Y-88753840D01*
X90138095Y-88753840D02*
X90042857Y-88563364D01*
X90042857Y-88563364D02*
X89852381Y-88372888D01*
X89852381Y-88372888D02*
X89566666Y-88277649D01*
X89566666Y-88277649D02*
X89376190Y-88277649D01*
X89376190Y-88277649D02*
X89090476Y-88372888D01*
X89090476Y-88372888D02*
X88995238Y-88468126D01*
X88995238Y-88468126D02*
X88995238Y-89134792D01*
X88995238Y-89134792D02*
X89376190Y-89134792D01*
X88233333Y-88849078D02*
X87280952Y-88849078D01*
X88423809Y-88277649D02*
X87757143Y-90277649D01*
X87757143Y-90277649D02*
X87090476Y-88277649D01*
X86709523Y-90277649D02*
X85566666Y-90277649D01*
X86138095Y-88277649D02*
X86138095Y-90277649D01*
X84899999Y-89325268D02*
X84233332Y-89325268D01*
X83947618Y-88277649D02*
X84899999Y-88277649D01*
X84899999Y-88277649D02*
X84899999Y-90277649D01*
X84899999Y-90277649D02*
X83947618Y-90277649D01*
X83090475Y-89039554D02*
X81566666Y-89039554D01*
X80709523Y-88372888D02*
X80423809Y-88277649D01*
X80423809Y-88277649D02*
X79947618Y-88277649D01*
X79947618Y-88277649D02*
X79757142Y-88372888D01*
X79757142Y-88372888D02*
X79661904Y-88468126D01*
X79661904Y-88468126D02*
X79566666Y-88658602D01*
X79566666Y-88658602D02*
X79566666Y-88849078D01*
X79566666Y-88849078D02*
X79661904Y-89039554D01*
X79661904Y-89039554D02*
X79757142Y-89134792D01*
X79757142Y-89134792D02*
X79947618Y-89230030D01*
X79947618Y-89230030D02*
X80328571Y-89325268D01*
X80328571Y-89325268D02*
X80519047Y-89420507D01*
X80519047Y-89420507D02*
X80614285Y-89515745D01*
X80614285Y-89515745D02*
X80709523Y-89706221D01*
X80709523Y-89706221D02*
X80709523Y-89896697D01*
X80709523Y-89896697D02*
X80614285Y-90087173D01*
X80614285Y-90087173D02*
X80519047Y-90182411D01*
X80519047Y-90182411D02*
X80328571Y-90277649D01*
X80328571Y-90277649D02*
X79852380Y-90277649D01*
X79852380Y-90277649D02*
X79566666Y-90182411D01*
X78328571Y-90277649D02*
X77947618Y-90277649D01*
X77947618Y-90277649D02*
X77757142Y-90182411D01*
X77757142Y-90182411D02*
X77566666Y-89991935D01*
X77566666Y-89991935D02*
X77471428Y-89610983D01*
X77471428Y-89610983D02*
X77471428Y-88944316D01*
X77471428Y-88944316D02*
X77566666Y-88563364D01*
X77566666Y-88563364D02*
X77757142Y-88372888D01*
X77757142Y-88372888D02*
X77947618Y-88277649D01*
X77947618Y-88277649D02*
X78328571Y-88277649D01*
X78328571Y-88277649D02*
X78519047Y-88372888D01*
X78519047Y-88372888D02*
X78709523Y-88563364D01*
X78709523Y-88563364D02*
X78804761Y-88944316D01*
X78804761Y-88944316D02*
X78804761Y-89610983D01*
X78804761Y-89610983D02*
X78709523Y-89991935D01*
X78709523Y-89991935D02*
X78519047Y-90182411D01*
X78519047Y-90182411D02*
X78328571Y-90277649D01*
X76614285Y-90277649D02*
X76614285Y-88658602D01*
X76614285Y-88658602D02*
X76519047Y-88468126D01*
X76519047Y-88468126D02*
X76423809Y-88372888D01*
X76423809Y-88372888D02*
X76233333Y-88277649D01*
X76233333Y-88277649D02*
X75852380Y-88277649D01*
X75852380Y-88277649D02*
X75661904Y-88372888D01*
X75661904Y-88372888D02*
X75566666Y-88468126D01*
X75566666Y-88468126D02*
X75471428Y-88658602D01*
X75471428Y-88658602D02*
X75471428Y-90277649D01*
X73376190Y-88277649D02*
X74042857Y-89230030D01*
X74519047Y-88277649D02*
X74519047Y-90277649D01*
X74519047Y-90277649D02*
X73757142Y-90277649D01*
X73757142Y-90277649D02*
X73566666Y-90182411D01*
X73566666Y-90182411D02*
X73471428Y-90087173D01*
X73471428Y-90087173D02*
X73376190Y-89896697D01*
X73376190Y-89896697D02*
X73376190Y-89610983D01*
X73376190Y-89610983D02*
X73471428Y-89420507D01*
X73471428Y-89420507D02*
X73566666Y-89325268D01*
X73566666Y-89325268D02*
X73757142Y-89230030D01*
X73757142Y-89230030D02*
X74519047Y-89230030D01*
X71376190Y-88468126D02*
X71471428Y-88372888D01*
X71471428Y-88372888D02*
X71757142Y-88277649D01*
X71757142Y-88277649D02*
X71947618Y-88277649D01*
X71947618Y-88277649D02*
X72233333Y-88372888D01*
X72233333Y-88372888D02*
X72423809Y-88563364D01*
X72423809Y-88563364D02*
X72519047Y-88753840D01*
X72519047Y-88753840D02*
X72614285Y-89134792D01*
X72614285Y-89134792D02*
X72614285Y-89420507D01*
X72614285Y-89420507D02*
X72519047Y-89801459D01*
X72519047Y-89801459D02*
X72423809Y-89991935D01*
X72423809Y-89991935D02*
X72233333Y-90182411D01*
X72233333Y-90182411D02*
X71947618Y-90277649D01*
X71947618Y-90277649D02*
X71757142Y-90277649D01*
X71757142Y-90277649D02*
X71471428Y-90182411D01*
X71471428Y-90182411D02*
X71376190Y-90087173D01*
X70519047Y-89325268D02*
X69852380Y-89325268D01*
X69566666Y-88277649D02*
X70519047Y-88277649D01*
X70519047Y-88277649D02*
X70519047Y-90277649D01*
X70519047Y-90277649D02*
X69566666Y-90277649D01*
X81138095Y-85248238D02*
X81233333Y-85153000D01*
X81233333Y-85153000D02*
X81519047Y-85057761D01*
X81519047Y-85057761D02*
X81709523Y-85057761D01*
X81709523Y-85057761D02*
X81995238Y-85153000D01*
X81995238Y-85153000D02*
X82185714Y-85343476D01*
X82185714Y-85343476D02*
X82280952Y-85533952D01*
X82280952Y-85533952D02*
X82376190Y-85914904D01*
X82376190Y-85914904D02*
X82376190Y-86200619D01*
X82376190Y-86200619D02*
X82280952Y-86581571D01*
X82280952Y-86581571D02*
X82185714Y-86772047D01*
X82185714Y-86772047D02*
X81995238Y-86962523D01*
X81995238Y-86962523D02*
X81709523Y-87057761D01*
X81709523Y-87057761D02*
X81519047Y-87057761D01*
X81519047Y-87057761D02*
X81233333Y-86962523D01*
X81233333Y-86962523D02*
X81138095Y-86867285D01*
X80376190Y-85629190D02*
X79423809Y-85629190D01*
X80566666Y-85057761D02*
X79900000Y-87057761D01*
X79900000Y-87057761D02*
X79233333Y-85057761D01*
X78566666Y-85057761D02*
X78566666Y-87057761D01*
X78566666Y-87057761D02*
X77804761Y-87057761D01*
X77804761Y-87057761D02*
X77614285Y-86962523D01*
X77614285Y-86962523D02*
X77519047Y-86867285D01*
X77519047Y-86867285D02*
X77423809Y-86676809D01*
X77423809Y-86676809D02*
X77423809Y-86391095D01*
X77423809Y-86391095D02*
X77519047Y-86200619D01*
X77519047Y-86200619D02*
X77614285Y-86105380D01*
X77614285Y-86105380D02*
X77804761Y-86010142D01*
X77804761Y-86010142D02*
X78566666Y-86010142D01*
X85645050Y-125457761D02*
X84502193Y-125457761D01*
X85073622Y-123457761D02*
X85073622Y-125457761D01*
X83930764Y-124029190D02*
X82978383Y-124029190D01*
X84121240Y-123457761D02*
X83454574Y-125457761D01*
X83454574Y-125457761D02*
X82787907Y-123457761D01*
X82121240Y-123457761D02*
X82121240Y-125457761D01*
X82121240Y-125457761D02*
X80978383Y-123457761D01*
X80978383Y-123457761D02*
X80978383Y-125457761D01*
X80026002Y-123457761D02*
X80026002Y-125457761D01*
X78883145Y-123457761D02*
X79740288Y-124600619D01*
X78883145Y-125457761D02*
X80026002Y-124314904D01*
X75359335Y-123648238D02*
X75454573Y-123553000D01*
X75454573Y-123553000D02*
X75740287Y-123457761D01*
X75740287Y-123457761D02*
X75930763Y-123457761D01*
X75930763Y-123457761D02*
X76216478Y-123553000D01*
X76216478Y-123553000D02*
X76406954Y-123743476D01*
X76406954Y-123743476D02*
X76502192Y-123933952D01*
X76502192Y-123933952D02*
X76597430Y-124314904D01*
X76597430Y-124314904D02*
X76597430Y-124600619D01*
X76597430Y-124600619D02*
X76502192Y-124981571D01*
X76502192Y-124981571D02*
X76406954Y-125172047D01*
X76406954Y-125172047D02*
X76216478Y-125362523D01*
X76216478Y-125362523D02*
X75930763Y-125457761D01*
X75930763Y-125457761D02*
X75740287Y-125457761D01*
X75740287Y-125457761D02*
X75454573Y-125362523D01*
X75454573Y-125362523D02*
X75359335Y-125267285D01*
X74597430Y-124029190D02*
X73645049Y-124029190D01*
X74787906Y-123457761D02*
X74121240Y-125457761D01*
X74121240Y-125457761D02*
X73454573Y-123457761D01*
X72787906Y-123457761D02*
X72787906Y-125457761D01*
X72787906Y-125457761D02*
X72026001Y-125457761D01*
X72026001Y-125457761D02*
X71835525Y-125362523D01*
X71835525Y-125362523D02*
X71740287Y-125267285D01*
X71740287Y-125267285D02*
X71645049Y-125076809D01*
X71645049Y-125076809D02*
X71645049Y-124791095D01*
X71645049Y-124791095D02*
X71740287Y-124600619D01*
X71740287Y-124600619D02*
X71835525Y-124505380D01*
X71835525Y-124505380D02*
X72026001Y-124410142D01*
X72026001Y-124410142D02*
X72787906Y-124410142D01*
X143551761Y-107716479D02*
X143647000Y-107811717D01*
X143647000Y-107811717D02*
X143742238Y-108097431D01*
X143742238Y-108097431D02*
X143742238Y-108287907D01*
X143742238Y-108287907D02*
X143647000Y-108573622D01*
X143647000Y-108573622D02*
X143456523Y-108764098D01*
X143456523Y-108764098D02*
X143266047Y-108859336D01*
X143266047Y-108859336D02*
X142885095Y-108954574D01*
X142885095Y-108954574D02*
X142599380Y-108954574D01*
X142599380Y-108954574D02*
X142218428Y-108859336D01*
X142218428Y-108859336D02*
X142027952Y-108764098D01*
X142027952Y-108764098D02*
X141837476Y-108573622D01*
X141837476Y-108573622D02*
X141742238Y-108287907D01*
X141742238Y-108287907D02*
X141742238Y-108097431D01*
X141742238Y-108097431D02*
X141837476Y-107811717D01*
X141837476Y-107811717D02*
X141932714Y-107716479D01*
X143742238Y-106859336D02*
X141742238Y-106859336D01*
X142694619Y-106859336D02*
X142694619Y-105716479D01*
X143742238Y-105716479D02*
X141742238Y-105716479D01*
X141742238Y-104383146D02*
X141742238Y-104002193D01*
X141742238Y-104002193D02*
X141837476Y-103811717D01*
X141837476Y-103811717D02*
X142027952Y-103621241D01*
X142027952Y-103621241D02*
X142408904Y-103526003D01*
X142408904Y-103526003D02*
X143075571Y-103526003D01*
X143075571Y-103526003D02*
X143456523Y-103621241D01*
X143456523Y-103621241D02*
X143647000Y-103811717D01*
X143647000Y-103811717D02*
X143742238Y-104002193D01*
X143742238Y-104002193D02*
X143742238Y-104383146D01*
X143742238Y-104383146D02*
X143647000Y-104573622D01*
X143647000Y-104573622D02*
X143456523Y-104764098D01*
X143456523Y-104764098D02*
X143075571Y-104859336D01*
X143075571Y-104859336D02*
X142408904Y-104859336D01*
X142408904Y-104859336D02*
X142027952Y-104764098D01*
X142027952Y-104764098D02*
X141837476Y-104573622D01*
X141837476Y-104573622D02*
X141742238Y-104383146D01*
X143742238Y-102668860D02*
X141742238Y-102668860D01*
X143742238Y-101526003D02*
X142599380Y-102383146D01*
X141742238Y-101526003D02*
X142885095Y-102668860D01*
X142694619Y-100668860D02*
X142694619Y-100002193D01*
X143742238Y-99716479D02*
X143742238Y-100668860D01*
X143742238Y-100668860D02*
X141742238Y-100668860D01*
X141742238Y-100668860D02*
X141742238Y-99716479D01*
D12*
X125797695Y-98661094D02*
G75*
G02*
X127299803Y-102451106I-497895J-2390006D01*
G01*
X125244343Y-100332598D02*
G75*
G02*
X128699758Y-100551125I1528057J-3266202D01*
G01*
D11*
X63259336Y-85257761D02*
X63259336Y-87257761D01*
X63259336Y-87257761D02*
X62783146Y-87257761D01*
X62783146Y-87257761D02*
X62497431Y-87162523D01*
X62497431Y-87162523D02*
X62306955Y-86972047D01*
X62306955Y-86972047D02*
X62211717Y-86781571D01*
X62211717Y-86781571D02*
X62116479Y-86400619D01*
X62116479Y-86400619D02*
X62116479Y-86114904D01*
X62116479Y-86114904D02*
X62211717Y-85733952D01*
X62211717Y-85733952D02*
X62306955Y-85543476D01*
X62306955Y-85543476D02*
X62497431Y-85353000D01*
X62497431Y-85353000D02*
X62783146Y-85257761D01*
X62783146Y-85257761D02*
X63259336Y-85257761D01*
X60116479Y-85257761D02*
X60783146Y-86210142D01*
X61259336Y-85257761D02*
X61259336Y-87257761D01*
X61259336Y-87257761D02*
X60497431Y-87257761D01*
X60497431Y-87257761D02*
X60306955Y-87162523D01*
X60306955Y-87162523D02*
X60211717Y-87067285D01*
X60211717Y-87067285D02*
X60116479Y-86876809D01*
X60116479Y-86876809D02*
X60116479Y-86591095D01*
X60116479Y-86591095D02*
X60211717Y-86400619D01*
X60211717Y-86400619D02*
X60306955Y-86305380D01*
X60306955Y-86305380D02*
X60497431Y-86210142D01*
X60497431Y-86210142D02*
X61259336Y-86210142D01*
X59354574Y-85829190D02*
X58402193Y-85829190D01*
X59545050Y-85257761D02*
X58878384Y-87257761D01*
X58878384Y-87257761D02*
X58211717Y-85257761D01*
X57545050Y-85257761D02*
X57545050Y-87257761D01*
X56592669Y-85257761D02*
X56592669Y-87257761D01*
X56592669Y-87257761D02*
X55449812Y-85257761D01*
X55449812Y-85257761D02*
X55449812Y-87257761D01*
X136305380Y-76307330D02*
X136305380Y-75640663D01*
X135257761Y-75640663D02*
X137257761Y-75640663D01*
X137257761Y-75640663D02*
X137257761Y-76593044D01*
X135829190Y-77259711D02*
X135829190Y-78212092D01*
X135257761Y-77069235D02*
X137257761Y-77735901D01*
X137257761Y-77735901D02*
X135257761Y-78402568D01*
X135257761Y-79069235D02*
X137257761Y-79069235D01*
X137257761Y-79069235D02*
X135257761Y-80212092D01*
X135257761Y-80212092D02*
X137257761Y-80212092D01*
X60611717Y-72962523D02*
X60802193Y-73057761D01*
X60802193Y-73057761D02*
X61087907Y-73057761D01*
X61087907Y-73057761D02*
X61373622Y-72962523D01*
X61373622Y-72962523D02*
X61564098Y-72772047D01*
X61564098Y-72772047D02*
X61659336Y-72581571D01*
X61659336Y-72581571D02*
X61754574Y-72200619D01*
X61754574Y-72200619D02*
X61754574Y-71914904D01*
X61754574Y-71914904D02*
X61659336Y-71533952D01*
X61659336Y-71533952D02*
X61564098Y-71343476D01*
X61564098Y-71343476D02*
X61373622Y-71153000D01*
X61373622Y-71153000D02*
X61087907Y-71057761D01*
X61087907Y-71057761D02*
X60897431Y-71057761D01*
X60897431Y-71057761D02*
X60611717Y-71153000D01*
X60611717Y-71153000D02*
X60516479Y-71248238D01*
X60516479Y-71248238D02*
X60516479Y-71914904D01*
X60516479Y-71914904D02*
X60897431Y-71914904D01*
X59754574Y-71629190D02*
X58802193Y-71629190D01*
X59945050Y-71057761D02*
X59278384Y-73057761D01*
X59278384Y-73057761D02*
X58611717Y-71057761D01*
X58230764Y-73057761D02*
X57087907Y-73057761D01*
X57659336Y-71057761D02*
X57659336Y-73057761D01*
X56421240Y-72105380D02*
X55754573Y-72105380D01*
X55468859Y-71057761D02*
X56421240Y-71057761D01*
X56421240Y-71057761D02*
X56421240Y-73057761D01*
X56421240Y-73057761D02*
X55468859Y-73057761D01*
D10*
X123329887Y-121873878D02*
X123663220Y-121873878D01*
X123663220Y-121350068D02*
X123663220Y-122350068D01*
X123663220Y-122350068D02*
X123187030Y-122350068D01*
X122806077Y-121873878D02*
X122472744Y-121873878D01*
X122329887Y-121350068D02*
X122806077Y-121350068D01*
X122806077Y-121350068D02*
X122806077Y-122350068D01*
X122806077Y-122350068D02*
X122329887Y-122350068D01*
X121901315Y-121873878D02*
X121567982Y-121873878D01*
X121425125Y-121350068D02*
X121901315Y-121350068D01*
X121901315Y-121350068D02*
X121901315Y-122350068D01*
X121901315Y-122350068D02*
X121425125Y-122350068D01*
X120996553Y-121350068D02*
X120996553Y-122350068D01*
X120996553Y-122350068D02*
X120758458Y-122350068D01*
X120758458Y-122350068D02*
X120615601Y-122302449D01*
X120615601Y-122302449D02*
X120520363Y-122207211D01*
X120520363Y-122207211D02*
X120472744Y-122111973D01*
X120472744Y-122111973D02*
X120425125Y-121921497D01*
X120425125Y-121921497D02*
X120425125Y-121778640D01*
X120425125Y-121778640D02*
X120472744Y-121588164D01*
X120472744Y-121588164D02*
X120520363Y-121492926D01*
X120520363Y-121492926D02*
X120615601Y-121397688D01*
X120615601Y-121397688D02*
X120758458Y-121350068D01*
X120758458Y-121350068D02*
X120996553Y-121350068D01*
X119663220Y-121873878D02*
X119520363Y-121826259D01*
X119520363Y-121826259D02*
X119472744Y-121778640D01*
X119472744Y-121778640D02*
X119425125Y-121683402D01*
X119425125Y-121683402D02*
X119425125Y-121540545D01*
X119425125Y-121540545D02*
X119472744Y-121445307D01*
X119472744Y-121445307D02*
X119520363Y-121397688D01*
X119520363Y-121397688D02*
X119615601Y-121350068D01*
X119615601Y-121350068D02*
X119996553Y-121350068D01*
X119996553Y-121350068D02*
X119996553Y-122350068D01*
X119996553Y-122350068D02*
X119663220Y-122350068D01*
X119663220Y-122350068D02*
X119567982Y-122302449D01*
X119567982Y-122302449D02*
X119520363Y-122254830D01*
X119520363Y-122254830D02*
X119472744Y-122159592D01*
X119472744Y-122159592D02*
X119472744Y-122064354D01*
X119472744Y-122064354D02*
X119520363Y-121969116D01*
X119520363Y-121969116D02*
X119567982Y-121921497D01*
X119567982Y-121921497D02*
X119663220Y-121873878D01*
X119663220Y-121873878D02*
X119996553Y-121873878D01*
X119044172Y-121635783D02*
X118567982Y-121635783D01*
X119139410Y-121350068D02*
X118806077Y-122350068D01*
X118806077Y-122350068D02*
X118472744Y-121350068D01*
X117567982Y-121445307D02*
X117615601Y-121397688D01*
X117615601Y-121397688D02*
X117758458Y-121350068D01*
X117758458Y-121350068D02*
X117853696Y-121350068D01*
X117853696Y-121350068D02*
X117996553Y-121397688D01*
X117996553Y-121397688D02*
X118091791Y-121492926D01*
X118091791Y-121492926D02*
X118139410Y-121588164D01*
X118139410Y-121588164D02*
X118187029Y-121778640D01*
X118187029Y-121778640D02*
X118187029Y-121921497D01*
X118187029Y-121921497D02*
X118139410Y-122111973D01*
X118139410Y-122111973D02*
X118091791Y-122207211D01*
X118091791Y-122207211D02*
X117996553Y-122302449D01*
X117996553Y-122302449D02*
X117853696Y-122350068D01*
X117853696Y-122350068D02*
X117758458Y-122350068D01*
X117758458Y-122350068D02*
X117615601Y-122302449D01*
X117615601Y-122302449D02*
X117567982Y-122254830D01*
X117139410Y-121350068D02*
X117139410Y-122350068D01*
X116567982Y-121350068D02*
X116996553Y-121921497D01*
X116567982Y-122350068D02*
X117139410Y-121778640D01*
X115425124Y-121397688D02*
X115282267Y-121350068D01*
X115282267Y-121350068D02*
X115044172Y-121350068D01*
X115044172Y-121350068D02*
X114948934Y-121397688D01*
X114948934Y-121397688D02*
X114901315Y-121445307D01*
X114901315Y-121445307D02*
X114853696Y-121540545D01*
X114853696Y-121540545D02*
X114853696Y-121635783D01*
X114853696Y-121635783D02*
X114901315Y-121731021D01*
X114901315Y-121731021D02*
X114948934Y-121778640D01*
X114948934Y-121778640D02*
X115044172Y-121826259D01*
X115044172Y-121826259D02*
X115234648Y-121873878D01*
X115234648Y-121873878D02*
X115329886Y-121921497D01*
X115329886Y-121921497D02*
X115377505Y-121969116D01*
X115377505Y-121969116D02*
X115425124Y-122064354D01*
X115425124Y-122064354D02*
X115425124Y-122159592D01*
X115425124Y-122159592D02*
X115377505Y-122254830D01*
X115377505Y-122254830D02*
X115329886Y-122302449D01*
X115329886Y-122302449D02*
X115234648Y-122350068D01*
X115234648Y-122350068D02*
X114996553Y-122350068D01*
X114996553Y-122350068D02*
X114853696Y-122302449D01*
X114425124Y-121873878D02*
X114091791Y-121873878D01*
X113948934Y-121350068D02*
X114425124Y-121350068D01*
X114425124Y-121350068D02*
X114425124Y-122350068D01*
X114425124Y-122350068D02*
X113948934Y-122350068D01*
X113520362Y-121350068D02*
X113520362Y-122350068D01*
X113520362Y-122350068D02*
X112948934Y-121350068D01*
X112948934Y-121350068D02*
X112948934Y-122350068D01*
X112520362Y-121397688D02*
X112377505Y-121350068D01*
X112377505Y-121350068D02*
X112139410Y-121350068D01*
X112139410Y-121350068D02*
X112044172Y-121397688D01*
X112044172Y-121397688D02*
X111996553Y-121445307D01*
X111996553Y-121445307D02*
X111948934Y-121540545D01*
X111948934Y-121540545D02*
X111948934Y-121635783D01*
X111948934Y-121635783D02*
X111996553Y-121731021D01*
X111996553Y-121731021D02*
X112044172Y-121778640D01*
X112044172Y-121778640D02*
X112139410Y-121826259D01*
X112139410Y-121826259D02*
X112329886Y-121873878D01*
X112329886Y-121873878D02*
X112425124Y-121921497D01*
X112425124Y-121921497D02*
X112472743Y-121969116D01*
X112472743Y-121969116D02*
X112520362Y-122064354D01*
X112520362Y-122064354D02*
X112520362Y-122159592D01*
X112520362Y-122159592D02*
X112472743Y-122254830D01*
X112472743Y-122254830D02*
X112425124Y-122302449D01*
X112425124Y-122302449D02*
X112329886Y-122350068D01*
X112329886Y-122350068D02*
X112091791Y-122350068D01*
X112091791Y-122350068D02*
X111948934Y-122302449D01*
X111329886Y-122350068D02*
X111139410Y-122350068D01*
X111139410Y-122350068D02*
X111044172Y-122302449D01*
X111044172Y-122302449D02*
X110948934Y-122207211D01*
X110948934Y-122207211D02*
X110901315Y-122016735D01*
X110901315Y-122016735D02*
X110901315Y-121683402D01*
X110901315Y-121683402D02*
X110948934Y-121492926D01*
X110948934Y-121492926D02*
X111044172Y-121397688D01*
X111044172Y-121397688D02*
X111139410Y-121350068D01*
X111139410Y-121350068D02*
X111329886Y-121350068D01*
X111329886Y-121350068D02*
X111425124Y-121397688D01*
X111425124Y-121397688D02*
X111520362Y-121492926D01*
X111520362Y-121492926D02*
X111567981Y-121683402D01*
X111567981Y-121683402D02*
X111567981Y-122016735D01*
X111567981Y-122016735D02*
X111520362Y-122207211D01*
X111520362Y-122207211D02*
X111425124Y-122302449D01*
X111425124Y-122302449D02*
X111329886Y-122350068D01*
X109901315Y-121350068D02*
X110234648Y-121826259D01*
X110472743Y-121350068D02*
X110472743Y-122350068D01*
X110472743Y-122350068D02*
X110091791Y-122350068D01*
X110091791Y-122350068D02*
X109996553Y-122302449D01*
X109996553Y-122302449D02*
X109948934Y-122254830D01*
X109948934Y-122254830D02*
X109901315Y-122159592D01*
X109901315Y-122159592D02*
X109901315Y-122016735D01*
X109901315Y-122016735D02*
X109948934Y-121921497D01*
X109948934Y-121921497D02*
X109996553Y-121873878D01*
X109996553Y-121873878D02*
X110091791Y-121826259D01*
X110091791Y-121826259D02*
X110472743Y-121826259D01*
X123663220Y-119740124D02*
X123663220Y-120740124D01*
X123663220Y-120740124D02*
X123425125Y-120740124D01*
X123425125Y-120740124D02*
X123282268Y-120692505D01*
X123282268Y-120692505D02*
X123187030Y-120597267D01*
X123187030Y-120597267D02*
X123139411Y-120502029D01*
X123139411Y-120502029D02*
X123091792Y-120311553D01*
X123091792Y-120311553D02*
X123091792Y-120168696D01*
X123091792Y-120168696D02*
X123139411Y-119978220D01*
X123139411Y-119978220D02*
X123187030Y-119882982D01*
X123187030Y-119882982D02*
X123282268Y-119787744D01*
X123282268Y-119787744D02*
X123425125Y-119740124D01*
X123425125Y-119740124D02*
X123663220Y-119740124D01*
X122663220Y-120263934D02*
X122329887Y-120263934D01*
X122187030Y-119740124D02*
X122663220Y-119740124D01*
X122663220Y-119740124D02*
X122663220Y-120740124D01*
X122663220Y-120740124D02*
X122187030Y-120740124D01*
X121806077Y-119787744D02*
X121663220Y-119740124D01*
X121663220Y-119740124D02*
X121425125Y-119740124D01*
X121425125Y-119740124D02*
X121329887Y-119787744D01*
X121329887Y-119787744D02*
X121282268Y-119835363D01*
X121282268Y-119835363D02*
X121234649Y-119930601D01*
X121234649Y-119930601D02*
X121234649Y-120025839D01*
X121234649Y-120025839D02*
X121282268Y-120121077D01*
X121282268Y-120121077D02*
X121329887Y-120168696D01*
X121329887Y-120168696D02*
X121425125Y-120216315D01*
X121425125Y-120216315D02*
X121615601Y-120263934D01*
X121615601Y-120263934D02*
X121710839Y-120311553D01*
X121710839Y-120311553D02*
X121758458Y-120359172D01*
X121758458Y-120359172D02*
X121806077Y-120454410D01*
X121806077Y-120454410D02*
X121806077Y-120549648D01*
X121806077Y-120549648D02*
X121758458Y-120644886D01*
X121758458Y-120644886D02*
X121710839Y-120692505D01*
X121710839Y-120692505D02*
X121615601Y-120740124D01*
X121615601Y-120740124D02*
X121377506Y-120740124D01*
X121377506Y-120740124D02*
X121234649Y-120692505D01*
X120806077Y-119740124D02*
X120806077Y-120740124D01*
X119806078Y-120692505D02*
X119901316Y-120740124D01*
X119901316Y-120740124D02*
X120044173Y-120740124D01*
X120044173Y-120740124D02*
X120187030Y-120692505D01*
X120187030Y-120692505D02*
X120282268Y-120597267D01*
X120282268Y-120597267D02*
X120329887Y-120502029D01*
X120329887Y-120502029D02*
X120377506Y-120311553D01*
X120377506Y-120311553D02*
X120377506Y-120168696D01*
X120377506Y-120168696D02*
X120329887Y-119978220D01*
X120329887Y-119978220D02*
X120282268Y-119882982D01*
X120282268Y-119882982D02*
X120187030Y-119787744D01*
X120187030Y-119787744D02*
X120044173Y-119740124D01*
X120044173Y-119740124D02*
X119948935Y-119740124D01*
X119948935Y-119740124D02*
X119806078Y-119787744D01*
X119806078Y-119787744D02*
X119758459Y-119835363D01*
X119758459Y-119835363D02*
X119758459Y-120168696D01*
X119758459Y-120168696D02*
X119948935Y-120168696D01*
X119329887Y-119740124D02*
X119329887Y-120740124D01*
X119329887Y-120740124D02*
X118758459Y-119740124D01*
X118758459Y-119740124D02*
X118758459Y-120740124D01*
X117187030Y-120263934D02*
X117044173Y-120216315D01*
X117044173Y-120216315D02*
X116996554Y-120168696D01*
X116996554Y-120168696D02*
X116948935Y-120073458D01*
X116948935Y-120073458D02*
X116948935Y-119930601D01*
X116948935Y-119930601D02*
X116996554Y-119835363D01*
X116996554Y-119835363D02*
X117044173Y-119787744D01*
X117044173Y-119787744D02*
X117139411Y-119740124D01*
X117139411Y-119740124D02*
X117520363Y-119740124D01*
X117520363Y-119740124D02*
X117520363Y-120740124D01*
X117520363Y-120740124D02*
X117187030Y-120740124D01*
X117187030Y-120740124D02*
X117091792Y-120692505D01*
X117091792Y-120692505D02*
X117044173Y-120644886D01*
X117044173Y-120644886D02*
X116996554Y-120549648D01*
X116996554Y-120549648D02*
X116996554Y-120454410D01*
X116996554Y-120454410D02*
X117044173Y-120359172D01*
X117044173Y-120359172D02*
X117091792Y-120311553D01*
X117091792Y-120311553D02*
X117187030Y-120263934D01*
X117187030Y-120263934D02*
X117520363Y-120263934D01*
X116329887Y-120216315D02*
X116329887Y-119740124D01*
X116663220Y-120740124D02*
X116329887Y-120216315D01*
X116329887Y-120216315D02*
X115996554Y-120740124D01*
X123710839Y-118177800D02*
X123567982Y-118130180D01*
X123567982Y-118130180D02*
X123329887Y-118130180D01*
X123329887Y-118130180D02*
X123234649Y-118177800D01*
X123234649Y-118177800D02*
X123187030Y-118225419D01*
X123187030Y-118225419D02*
X123139411Y-118320657D01*
X123139411Y-118320657D02*
X123139411Y-118415895D01*
X123139411Y-118415895D02*
X123187030Y-118511133D01*
X123187030Y-118511133D02*
X123234649Y-118558752D01*
X123234649Y-118558752D02*
X123329887Y-118606371D01*
X123329887Y-118606371D02*
X123520363Y-118653990D01*
X123520363Y-118653990D02*
X123615601Y-118701609D01*
X123615601Y-118701609D02*
X123663220Y-118749228D01*
X123663220Y-118749228D02*
X123710839Y-118844466D01*
X123710839Y-118844466D02*
X123710839Y-118939704D01*
X123710839Y-118939704D02*
X123663220Y-119034942D01*
X123663220Y-119034942D02*
X123615601Y-119082561D01*
X123615601Y-119082561D02*
X123520363Y-119130180D01*
X123520363Y-119130180D02*
X123282268Y-119130180D01*
X123282268Y-119130180D02*
X123139411Y-119082561D01*
X122710839Y-118130180D02*
X122710839Y-119130180D01*
X122139411Y-118130180D02*
X122567982Y-118701609D01*
X122139411Y-119130180D02*
X122710839Y-118558752D01*
X121520363Y-118606371D02*
X121520363Y-118130180D01*
X121853696Y-119130180D02*
X121520363Y-118606371D01*
X121520363Y-118606371D02*
X121187030Y-119130180D01*
X120853696Y-118511133D02*
X120091792Y-118511133D01*
X119091792Y-119082561D02*
X119187030Y-119130180D01*
X119187030Y-119130180D02*
X119329887Y-119130180D01*
X119329887Y-119130180D02*
X119472744Y-119082561D01*
X119472744Y-119082561D02*
X119567982Y-118987323D01*
X119567982Y-118987323D02*
X119615601Y-118892085D01*
X119615601Y-118892085D02*
X119663220Y-118701609D01*
X119663220Y-118701609D02*
X119663220Y-118558752D01*
X119663220Y-118558752D02*
X119615601Y-118368276D01*
X119615601Y-118368276D02*
X119567982Y-118273038D01*
X119567982Y-118273038D02*
X119472744Y-118177800D01*
X119472744Y-118177800D02*
X119329887Y-118130180D01*
X119329887Y-118130180D02*
X119234649Y-118130180D01*
X119234649Y-118130180D02*
X119091792Y-118177800D01*
X119091792Y-118177800D02*
X119044173Y-118225419D01*
X119044173Y-118225419D02*
X119044173Y-118558752D01*
X119044173Y-118558752D02*
X119234649Y-118558752D01*
X118615601Y-119130180D02*
X118615601Y-118320657D01*
X118615601Y-118320657D02*
X118567982Y-118225419D01*
X118567982Y-118225419D02*
X118520363Y-118177800D01*
X118520363Y-118177800D02*
X118425125Y-118130180D01*
X118425125Y-118130180D02*
X118234649Y-118130180D01*
X118234649Y-118130180D02*
X118139411Y-118177800D01*
X118139411Y-118177800D02*
X118091792Y-118225419D01*
X118091792Y-118225419D02*
X118044173Y-118320657D01*
X118044173Y-118320657D02*
X118044173Y-119130180D01*
X117567982Y-118130180D02*
X117567982Y-119130180D01*
X117091792Y-118130180D02*
X117091792Y-119130180D01*
X117091792Y-119130180D02*
X116853697Y-119130180D01*
X116853697Y-119130180D02*
X116710840Y-119082561D01*
X116710840Y-119082561D02*
X116615602Y-118987323D01*
X116615602Y-118987323D02*
X116567983Y-118892085D01*
X116567983Y-118892085D02*
X116520364Y-118701609D01*
X116520364Y-118701609D02*
X116520364Y-118558752D01*
X116520364Y-118558752D02*
X116567983Y-118368276D01*
X116567983Y-118368276D02*
X116615602Y-118273038D01*
X116615602Y-118273038D02*
X116710840Y-118177800D01*
X116710840Y-118177800D02*
X116853697Y-118130180D01*
X116853697Y-118130180D02*
X117091792Y-118130180D01*
X116091792Y-118653990D02*
X115758459Y-118653990D01*
X115615602Y-118130180D02*
X116091792Y-118130180D01*
X116091792Y-118130180D02*
X116091792Y-119130180D01*
X116091792Y-119130180D02*
X115615602Y-119130180D01*
X115187030Y-118130180D02*
X115187030Y-119130180D01*
X115187030Y-119130180D02*
X114948935Y-119130180D01*
X114948935Y-119130180D02*
X114806078Y-119082561D01*
X114806078Y-119082561D02*
X114710840Y-118987323D01*
X114710840Y-118987323D02*
X114663221Y-118892085D01*
X114663221Y-118892085D02*
X114615602Y-118701609D01*
X114615602Y-118701609D02*
X114615602Y-118558752D01*
X114615602Y-118558752D02*
X114663221Y-118368276D01*
X114663221Y-118368276D02*
X114710840Y-118273038D01*
X114710840Y-118273038D02*
X114806078Y-118177800D01*
X114806078Y-118177800D02*
X114948935Y-118130180D01*
X114948935Y-118130180D02*
X115187030Y-118130180D01*
D13*
X139809524Y-108480249D02*
X139809524Y-110480249D01*
X138857143Y-108480249D02*
X138857143Y-110480249D01*
X138857143Y-110480249D02*
X137714286Y-108480249D01*
X137714286Y-108480249D02*
X137714286Y-110480249D01*
X136761905Y-108480249D02*
X136761905Y-110480249D01*
X136761905Y-110480249D02*
X136285715Y-110480249D01*
X136285715Y-110480249D02*
X136000000Y-110385011D01*
X136000000Y-110385011D02*
X135809524Y-110194535D01*
X135809524Y-110194535D02*
X135714286Y-110004059D01*
X135714286Y-110004059D02*
X135619048Y-109623107D01*
X135619048Y-109623107D02*
X135619048Y-109337392D01*
X135619048Y-109337392D02*
X135714286Y-108956440D01*
X135714286Y-108956440D02*
X135809524Y-108765964D01*
X135809524Y-108765964D02*
X136000000Y-108575488D01*
X136000000Y-108575488D02*
X136285715Y-108480249D01*
X136285715Y-108480249D02*
X136761905Y-108480249D01*
X134761905Y-110480249D02*
X134761905Y-108861202D01*
X134761905Y-108861202D02*
X134666667Y-108670726D01*
X134666667Y-108670726D02*
X134571429Y-108575488D01*
X134571429Y-108575488D02*
X134380953Y-108480249D01*
X134380953Y-108480249D02*
X134000000Y-108480249D01*
X134000000Y-108480249D02*
X133809524Y-108575488D01*
X133809524Y-108575488D02*
X133714286Y-108670726D01*
X133714286Y-108670726D02*
X133619048Y-108861202D01*
X133619048Y-108861202D02*
X133619048Y-110480249D01*
X131523810Y-108670726D02*
X131619048Y-108575488D01*
X131619048Y-108575488D02*
X131904762Y-108480249D01*
X131904762Y-108480249D02*
X132095238Y-108480249D01*
X132095238Y-108480249D02*
X132380953Y-108575488D01*
X132380953Y-108575488D02*
X132571429Y-108765964D01*
X132571429Y-108765964D02*
X132666667Y-108956440D01*
X132666667Y-108956440D02*
X132761905Y-109337392D01*
X132761905Y-109337392D02*
X132761905Y-109623107D01*
X132761905Y-109623107D02*
X132666667Y-110004059D01*
X132666667Y-110004059D02*
X132571429Y-110194535D01*
X132571429Y-110194535D02*
X132380953Y-110385011D01*
X132380953Y-110385011D02*
X132095238Y-110480249D01*
X132095238Y-110480249D02*
X131904762Y-110480249D01*
X131904762Y-110480249D02*
X131619048Y-110385011D01*
X131619048Y-110385011D02*
X131523810Y-110289773D01*
X130952381Y-110480249D02*
X129809524Y-110480249D01*
X130380953Y-108480249D02*
X130380953Y-110480249D01*
X129142857Y-108480249D02*
X129142857Y-110480249D01*
X128476190Y-110480249D02*
X127809524Y-108480249D01*
X127809524Y-108480249D02*
X127142857Y-110480249D01*
X126476190Y-109527868D02*
X125809523Y-109527868D01*
X125523809Y-108480249D02*
X126476190Y-108480249D01*
X126476190Y-108480249D02*
X126476190Y-110480249D01*
X126476190Y-110480249D02*
X125523809Y-110480249D01*
X123714285Y-108480249D02*
X124666666Y-108480249D01*
X124666666Y-108480249D02*
X124666666Y-110480249D01*
X122666666Y-109432630D02*
X122666666Y-108480249D01*
X123333332Y-110480249D02*
X122666666Y-109432630D01*
X122666666Y-109432630D02*
X121999999Y-110480249D01*
X121333332Y-109242154D02*
X119809523Y-109242154D01*
X117714285Y-108670726D02*
X117809523Y-108575488D01*
X117809523Y-108575488D02*
X118095237Y-108480249D01*
X118095237Y-108480249D02*
X118285713Y-108480249D01*
X118285713Y-108480249D02*
X118571428Y-108575488D01*
X118571428Y-108575488D02*
X118761904Y-108765964D01*
X118761904Y-108765964D02*
X118857142Y-108956440D01*
X118857142Y-108956440D02*
X118952380Y-109337392D01*
X118952380Y-109337392D02*
X118952380Y-109623107D01*
X118952380Y-109623107D02*
X118857142Y-110004059D01*
X118857142Y-110004059D02*
X118761904Y-110194535D01*
X118761904Y-110194535D02*
X118571428Y-110385011D01*
X118571428Y-110385011D02*
X118285713Y-110480249D01*
X118285713Y-110480249D02*
X118095237Y-110480249D01*
X118095237Y-110480249D02*
X117809523Y-110385011D01*
X117809523Y-110385011D02*
X117714285Y-110289773D01*
X116476190Y-110480249D02*
X116095237Y-110480249D01*
X116095237Y-110480249D02*
X115904761Y-110385011D01*
X115904761Y-110385011D02*
X115714285Y-110194535D01*
X115714285Y-110194535D02*
X115619047Y-109813583D01*
X115619047Y-109813583D02*
X115619047Y-109146916D01*
X115619047Y-109146916D02*
X115714285Y-108765964D01*
X115714285Y-108765964D02*
X115904761Y-108575488D01*
X115904761Y-108575488D02*
X116095237Y-108480249D01*
X116095237Y-108480249D02*
X116476190Y-108480249D01*
X116476190Y-108480249D02*
X116666666Y-108575488D01*
X116666666Y-108575488D02*
X116857142Y-108765964D01*
X116857142Y-108765964D02*
X116952380Y-109146916D01*
X116952380Y-109146916D02*
X116952380Y-109813583D01*
X116952380Y-109813583D02*
X116857142Y-110194535D01*
X116857142Y-110194535D02*
X116666666Y-110385011D01*
X116666666Y-110385011D02*
X116476190Y-110480249D01*
X114761904Y-110480249D02*
X114761904Y-108861202D01*
X114761904Y-108861202D02*
X114666666Y-108670726D01*
X114666666Y-108670726D02*
X114571428Y-108575488D01*
X114571428Y-108575488D02*
X114380952Y-108480249D01*
X114380952Y-108480249D02*
X113999999Y-108480249D01*
X113999999Y-108480249D02*
X113809523Y-108575488D01*
X113809523Y-108575488D02*
X113714285Y-108670726D01*
X113714285Y-108670726D02*
X113619047Y-108861202D01*
X113619047Y-108861202D02*
X113619047Y-110480249D01*
X112666666Y-108480249D02*
X112666666Y-110480249D01*
X112666666Y-110480249D02*
X111904761Y-110480249D01*
X111904761Y-110480249D02*
X111714285Y-110385011D01*
X111714285Y-110385011D02*
X111619047Y-110289773D01*
X111619047Y-110289773D02*
X111523809Y-110099297D01*
X111523809Y-110099297D02*
X111523809Y-109813583D01*
X111523809Y-109813583D02*
X111619047Y-109623107D01*
X111619047Y-109623107D02*
X111714285Y-109527868D01*
X111714285Y-109527868D02*
X111904761Y-109432630D01*
X111904761Y-109432630D02*
X112666666Y-109432630D01*
X109714285Y-108480249D02*
X110666666Y-108480249D01*
X110666666Y-108480249D02*
X110666666Y-110480249D01*
X109047618Y-109527868D02*
X108380951Y-109527868D01*
X108095237Y-108480249D02*
X109047618Y-108480249D01*
X109047618Y-108480249D02*
X109047618Y-110480249D01*
X109047618Y-110480249D02*
X108095237Y-110480249D01*
X107238094Y-108480249D02*
X107238094Y-110480249D01*
X107238094Y-110480249D02*
X106761904Y-110480249D01*
X106761904Y-110480249D02*
X106476189Y-110385011D01*
X106476189Y-110385011D02*
X106285713Y-110194535D01*
X106285713Y-110194535D02*
X106190475Y-110004059D01*
X106190475Y-110004059D02*
X106095237Y-109623107D01*
X106095237Y-109623107D02*
X106095237Y-109337392D01*
X106095237Y-109337392D02*
X106190475Y-108956440D01*
X106190475Y-108956440D02*
X106285713Y-108765964D01*
X106285713Y-108765964D02*
X106476189Y-108575488D01*
X106476189Y-108575488D02*
X106761904Y-108480249D01*
X106761904Y-108480249D02*
X107238094Y-108480249D01*
X134142857Y-105260361D02*
X134142857Y-107260361D01*
X134142857Y-107260361D02*
X133380952Y-107260361D01*
X133380952Y-107260361D02*
X133190476Y-107165123D01*
X133190476Y-107165123D02*
X133095238Y-107069885D01*
X133095238Y-107069885D02*
X133000000Y-106879409D01*
X133000000Y-106879409D02*
X133000000Y-106593695D01*
X133000000Y-106593695D02*
X133095238Y-106403219D01*
X133095238Y-106403219D02*
X133190476Y-106307980D01*
X133190476Y-106307980D02*
X133380952Y-106212742D01*
X133380952Y-106212742D02*
X134142857Y-106212742D01*
X131190476Y-105260361D02*
X132142857Y-105260361D01*
X132142857Y-105260361D02*
X132142857Y-107260361D01*
X130619047Y-105831790D02*
X129666666Y-105831790D01*
X130809523Y-105260361D02*
X130142857Y-107260361D01*
X130142857Y-107260361D02*
X129476190Y-105260361D01*
X128904761Y-105355600D02*
X128619047Y-105260361D01*
X128619047Y-105260361D02*
X128142856Y-105260361D01*
X128142856Y-105260361D02*
X127952380Y-105355600D01*
X127952380Y-105355600D02*
X127857142Y-105450838D01*
X127857142Y-105450838D02*
X127761904Y-105641314D01*
X127761904Y-105641314D02*
X127761904Y-105831790D01*
X127761904Y-105831790D02*
X127857142Y-106022266D01*
X127857142Y-106022266D02*
X127952380Y-106117504D01*
X127952380Y-106117504D02*
X128142856Y-106212742D01*
X128142856Y-106212742D02*
X128523809Y-106307980D01*
X128523809Y-106307980D02*
X128714285Y-106403219D01*
X128714285Y-106403219D02*
X128809523Y-106498457D01*
X128809523Y-106498457D02*
X128904761Y-106688933D01*
X128904761Y-106688933D02*
X128904761Y-106879409D01*
X128904761Y-106879409D02*
X128809523Y-107069885D01*
X128809523Y-107069885D02*
X128714285Y-107165123D01*
X128714285Y-107165123D02*
X128523809Y-107260361D01*
X128523809Y-107260361D02*
X128047618Y-107260361D01*
X128047618Y-107260361D02*
X127761904Y-107165123D01*
X126904761Y-105260361D02*
X126904761Y-107260361D01*
X126904761Y-107260361D02*
X126238094Y-105831790D01*
X126238094Y-105831790D02*
X125571428Y-107260361D01*
X125571428Y-107260361D02*
X125571428Y-105260361D01*
X124714285Y-105831790D02*
X123761904Y-105831790D01*
X124904761Y-105260361D02*
X124238095Y-107260361D01*
X124238095Y-107260361D02*
X123571428Y-105260361D01*
X121380951Y-105260361D02*
X121380951Y-107260361D01*
X121380951Y-107260361D02*
X120904761Y-107260361D01*
X120904761Y-107260361D02*
X120619046Y-107165123D01*
X120619046Y-107165123D02*
X120428570Y-106974647D01*
X120428570Y-106974647D02*
X120333332Y-106784171D01*
X120333332Y-106784171D02*
X120238094Y-106403219D01*
X120238094Y-106403219D02*
X120238094Y-106117504D01*
X120238094Y-106117504D02*
X120333332Y-105736552D01*
X120333332Y-105736552D02*
X120428570Y-105546076D01*
X120428570Y-105546076D02*
X120619046Y-105355600D01*
X120619046Y-105355600D02*
X120904761Y-105260361D01*
X120904761Y-105260361D02*
X121380951Y-105260361D01*
X118238094Y-105260361D02*
X118904761Y-106212742D01*
X119380951Y-105260361D02*
X119380951Y-107260361D01*
X119380951Y-107260361D02*
X118619046Y-107260361D01*
X118619046Y-107260361D02*
X118428570Y-107165123D01*
X118428570Y-107165123D02*
X118333332Y-107069885D01*
X118333332Y-107069885D02*
X118238094Y-106879409D01*
X118238094Y-106879409D02*
X118238094Y-106593695D01*
X118238094Y-106593695D02*
X118333332Y-106403219D01*
X118333332Y-106403219D02*
X118428570Y-106307980D01*
X118428570Y-106307980D02*
X118619046Y-106212742D01*
X118619046Y-106212742D02*
X119380951Y-106212742D01*
X117380951Y-105260361D02*
X117380951Y-107260361D01*
X116714284Y-107260361D02*
X116047618Y-105260361D01*
X116047618Y-105260361D02*
X115380951Y-107260361D01*
X114714284Y-106307980D02*
X114047617Y-106307980D01*
X113761903Y-105260361D02*
X114714284Y-105260361D01*
X114714284Y-105260361D02*
X114714284Y-107260361D01*
X114714284Y-107260361D02*
X113761903Y-107260361D01*
X111761903Y-105260361D02*
X112428570Y-106212742D01*
X112904760Y-105260361D02*
X112904760Y-107260361D01*
X112904760Y-107260361D02*
X112142855Y-107260361D01*
X112142855Y-107260361D02*
X111952379Y-107165123D01*
X111952379Y-107165123D02*
X111857141Y-107069885D01*
X111857141Y-107069885D02*
X111761903Y-106879409D01*
X111761903Y-106879409D02*
X111761903Y-106593695D01*
X111761903Y-106593695D02*
X111857141Y-106403219D01*
X111857141Y-106403219D02*
X111952379Y-106307980D01*
X111952379Y-106307980D02*
X112142855Y-106212742D01*
X112142855Y-106212742D02*
X112904760Y-106212742D01*
D11*
X133353000Y-132545425D02*
X133257761Y-132831139D01*
X133257761Y-132831139D02*
X133257761Y-133307330D01*
X133257761Y-133307330D02*
X133353000Y-133497806D01*
X133353000Y-133497806D02*
X133448238Y-133593044D01*
X133448238Y-133593044D02*
X133638714Y-133688282D01*
X133638714Y-133688282D02*
X133829190Y-133688282D01*
X133829190Y-133688282D02*
X134019666Y-133593044D01*
X134019666Y-133593044D02*
X134114904Y-133497806D01*
X134114904Y-133497806D02*
X134210142Y-133307330D01*
X134210142Y-133307330D02*
X134305380Y-132926377D01*
X134305380Y-132926377D02*
X134400619Y-132735901D01*
X134400619Y-132735901D02*
X134495857Y-132640663D01*
X134495857Y-132640663D02*
X134686333Y-132545425D01*
X134686333Y-132545425D02*
X134876809Y-132545425D01*
X134876809Y-132545425D02*
X135067285Y-132640663D01*
X135067285Y-132640663D02*
X135162523Y-132735901D01*
X135162523Y-132735901D02*
X135257761Y-132926377D01*
X135257761Y-132926377D02*
X135257761Y-133402568D01*
X135257761Y-133402568D02*
X135162523Y-133688282D01*
X135257761Y-134259711D02*
X135257761Y-135402568D01*
X133257761Y-134831139D02*
X135257761Y-134831139D01*
X133257761Y-137212092D02*
X134210142Y-136545425D01*
X133257761Y-136069235D02*
X135257761Y-136069235D01*
X135257761Y-136069235D02*
X135257761Y-136831140D01*
X135257761Y-136831140D02*
X135162523Y-137021616D01*
X135162523Y-137021616D02*
X135067285Y-137116854D01*
X135067285Y-137116854D02*
X134876809Y-137212092D01*
X134876809Y-137212092D02*
X134591095Y-137212092D01*
X134591095Y-137212092D02*
X134400619Y-137116854D01*
X134400619Y-137116854D02*
X134305380Y-137021616D01*
X134305380Y-137021616D02*
X134210142Y-136831140D01*
X134210142Y-136831140D02*
X134210142Y-136069235D01*
X133257761Y-138069235D02*
X135257761Y-138069235D01*
X133257761Y-139021616D02*
X135257761Y-139021616D01*
X133257761Y-140164473D02*
X134400619Y-139307330D01*
X135257761Y-140164473D02*
X134114904Y-139021616D01*
X134305380Y-141021616D02*
X134305380Y-141688283D01*
X133257761Y-141973997D02*
X133257761Y-141021616D01*
X133257761Y-141021616D02*
X135257761Y-141021616D01*
X135257761Y-141021616D02*
X135257761Y-141973997D01*
X133257761Y-143973997D02*
X134210142Y-143307330D01*
X133257761Y-142831140D02*
X135257761Y-142831140D01*
X135257761Y-142831140D02*
X135257761Y-143593045D01*
X135257761Y-143593045D02*
X135162523Y-143783521D01*
X135162523Y-143783521D02*
X135067285Y-143878759D01*
X135067285Y-143878759D02*
X134876809Y-143973997D01*
X134876809Y-143973997D02*
X134591095Y-143973997D01*
X134591095Y-143973997D02*
X134400619Y-143878759D01*
X134400619Y-143878759D02*
X134305380Y-143783521D01*
X134305380Y-143783521D02*
X134210142Y-143593045D01*
X134210142Y-143593045D02*
X134210142Y-142831140D01*
D13*
X116359774Y-114299171D02*
X116074060Y-114299171D01*
X116074060Y-114299171D02*
X115931203Y-114227742D01*
X115931203Y-114227742D02*
X115788346Y-114084885D01*
X115788346Y-114084885D02*
X115716917Y-113799171D01*
X115716917Y-113799171D02*
X115716917Y-113299171D01*
X115716917Y-113299171D02*
X115788346Y-113013457D01*
X115788346Y-113013457D02*
X115931203Y-112870600D01*
X115931203Y-112870600D02*
X116074060Y-112799171D01*
X116074060Y-112799171D02*
X116359774Y-112799171D01*
X116359774Y-112799171D02*
X116502632Y-112870600D01*
X116502632Y-112870600D02*
X116645489Y-113013457D01*
X116645489Y-113013457D02*
X116716917Y-113299171D01*
X116716917Y-113299171D02*
X116716917Y-113799171D01*
X116716917Y-113799171D02*
X116645489Y-114084885D01*
X116645489Y-114084885D02*
X116502632Y-114227742D01*
X116502632Y-114227742D02*
X116359774Y-114299171D01*
X115145488Y-112870600D02*
X114931203Y-112799171D01*
X114931203Y-112799171D02*
X114574060Y-112799171D01*
X114574060Y-112799171D02*
X114431203Y-112870600D01*
X114431203Y-112870600D02*
X114359774Y-112942028D01*
X114359774Y-112942028D02*
X114288345Y-113084885D01*
X114288345Y-113084885D02*
X114288345Y-113227742D01*
X114288345Y-113227742D02*
X114359774Y-113370600D01*
X114359774Y-113370600D02*
X114431203Y-113442028D01*
X114431203Y-113442028D02*
X114574060Y-113513457D01*
X114574060Y-113513457D02*
X114859774Y-113584885D01*
X114859774Y-113584885D02*
X115002631Y-113656314D01*
X115002631Y-113656314D02*
X115074060Y-113727742D01*
X115074060Y-113727742D02*
X115145488Y-113870600D01*
X115145488Y-113870600D02*
X115145488Y-114013457D01*
X115145488Y-114013457D02*
X115074060Y-114156314D01*
X115074060Y-114156314D02*
X115002631Y-114227742D01*
X115002631Y-114227742D02*
X114859774Y-114299171D01*
X114859774Y-114299171D02*
X114502631Y-114299171D01*
X114502631Y-114299171D02*
X114288345Y-114227742D01*
X112788346Y-112942028D02*
X112859774Y-112870600D01*
X112859774Y-112870600D02*
X113074060Y-112799171D01*
X113074060Y-112799171D02*
X113216917Y-112799171D01*
X113216917Y-112799171D02*
X113431203Y-112870600D01*
X113431203Y-112870600D02*
X113574060Y-113013457D01*
X113574060Y-113013457D02*
X113645489Y-113156314D01*
X113645489Y-113156314D02*
X113716917Y-113442028D01*
X113716917Y-113442028D02*
X113716917Y-113656314D01*
X113716917Y-113656314D02*
X113645489Y-113942028D01*
X113645489Y-113942028D02*
X113574060Y-114084885D01*
X113574060Y-114084885D02*
X113431203Y-114227742D01*
X113431203Y-114227742D02*
X113216917Y-114299171D01*
X113216917Y-114299171D02*
X113074060Y-114299171D01*
X113074060Y-114299171D02*
X112859774Y-114227742D01*
X112859774Y-114227742D02*
X112788346Y-114156314D01*
D11*
X135119047Y-63397537D02*
X136261904Y-63397537D01*
X135690476Y-63397537D02*
X135690476Y-65397537D01*
X135690476Y-65397537D02*
X135880952Y-65111823D01*
X135880952Y-65111823D02*
X136071428Y-64921347D01*
X136071428Y-64921347D02*
X136261904Y-64826109D01*
X133309523Y-65397537D02*
X134261904Y-65397537D01*
X134261904Y-65397537D02*
X134357142Y-64445156D01*
X134357142Y-64445156D02*
X134261904Y-64540395D01*
X134261904Y-64540395D02*
X134071428Y-64635633D01*
X134071428Y-64635633D02*
X133595237Y-64635633D01*
X133595237Y-64635633D02*
X133404761Y-64540395D01*
X133404761Y-64540395D02*
X133309523Y-64445156D01*
X133309523Y-64445156D02*
X133214285Y-64254680D01*
X133214285Y-64254680D02*
X133214285Y-63778490D01*
X133214285Y-63778490D02*
X133309523Y-63588014D01*
X133309523Y-63588014D02*
X133404761Y-63492776D01*
X133404761Y-63492776D02*
X133595237Y-63397537D01*
X133595237Y-63397537D02*
X134071428Y-63397537D01*
X134071428Y-63397537D02*
X134261904Y-63492776D01*
X134261904Y-63492776D02*
X134357142Y-63588014D01*
X132357142Y-64159442D02*
X130833333Y-64159442D01*
X135880952Y-61987173D02*
X135785714Y-62082411D01*
X135785714Y-62082411D02*
X135595238Y-62177649D01*
X135595238Y-62177649D02*
X135119047Y-62177649D01*
X135119047Y-62177649D02*
X134928571Y-62082411D01*
X134928571Y-62082411D02*
X134833333Y-61987173D01*
X134833333Y-61987173D02*
X134738095Y-61796697D01*
X134738095Y-61796697D02*
X134738095Y-61606221D01*
X134738095Y-61606221D02*
X134833333Y-61320507D01*
X134833333Y-61320507D02*
X135976190Y-60177649D01*
X135976190Y-60177649D02*
X134738095Y-60177649D01*
X133023809Y-61510983D02*
X133023809Y-60177649D01*
X133500000Y-62272888D02*
X133976190Y-60844316D01*
X133976190Y-60844316D02*
X132738095Y-60844316D01*
X132261904Y-62177649D02*
X131595238Y-60177649D01*
X131595238Y-60177649D02*
X130928571Y-62177649D01*
X134547618Y-56957761D02*
X134547618Y-58957761D01*
X133595237Y-56957761D02*
X133595237Y-58957761D01*
X133595237Y-58957761D02*
X132452380Y-56957761D01*
X132452380Y-56957761D02*
X132452380Y-58957761D01*
D13*
X119142856Y-102029003D02*
X119642856Y-102743289D01*
X119999999Y-102029003D02*
X119999999Y-103529003D01*
X119999999Y-103529003D02*
X119428570Y-103529003D01*
X119428570Y-103529003D02*
X119285713Y-103457574D01*
X119285713Y-103457574D02*
X119214284Y-103386146D01*
X119214284Y-103386146D02*
X119142856Y-103243289D01*
X119142856Y-103243289D02*
X119142856Y-103029003D01*
X119142856Y-103029003D02*
X119214284Y-102886146D01*
X119214284Y-102886146D02*
X119285713Y-102814717D01*
X119285713Y-102814717D02*
X119428570Y-102743289D01*
X119428570Y-102743289D02*
X119999999Y-102743289D01*
X118499999Y-102814717D02*
X117999999Y-102814717D01*
X117785713Y-102029003D02*
X118499999Y-102029003D01*
X118499999Y-102029003D02*
X118499999Y-103529003D01*
X118499999Y-103529003D02*
X117785713Y-103529003D01*
X117357141Y-103529003D02*
X116857141Y-102029003D01*
X116857141Y-102029003D02*
X116357141Y-103529003D01*
X114071428Y-103029003D02*
X114071428Y-102029003D01*
X114428570Y-103600432D02*
X114785713Y-102529003D01*
X114785713Y-102529003D02*
X113857142Y-102529003D01*
X122249998Y-101114087D02*
X122249998Y-100042658D01*
X122249998Y-100042658D02*
X122321427Y-99828373D01*
X122321427Y-99828373D02*
X122464284Y-99685516D01*
X122464284Y-99685516D02*
X122678570Y-99614087D01*
X122678570Y-99614087D02*
X122821427Y-99614087D01*
X121535713Y-101114087D02*
X121535713Y-99899801D01*
X121535713Y-99899801D02*
X121464284Y-99756944D01*
X121464284Y-99756944D02*
X121392856Y-99685516D01*
X121392856Y-99685516D02*
X121249998Y-99614087D01*
X121249998Y-99614087D02*
X120964284Y-99614087D01*
X120964284Y-99614087D02*
X120821427Y-99685516D01*
X120821427Y-99685516D02*
X120749998Y-99756944D01*
X120749998Y-99756944D02*
X120678570Y-99899801D01*
X120678570Y-99899801D02*
X120678570Y-101114087D01*
X119249998Y-99614087D02*
X119964284Y-99614087D01*
X119964284Y-99614087D02*
X119964284Y-101114087D01*
X118464283Y-100328373D02*
X118464283Y-99614087D01*
X118964283Y-101114087D02*
X118464283Y-100328373D01*
X118464283Y-100328373D02*
X117964283Y-101114087D01*
X116392855Y-100971230D02*
X116321427Y-101042658D01*
X116321427Y-101042658D02*
X116178570Y-101114087D01*
X116178570Y-101114087D02*
X115821427Y-101114087D01*
X115821427Y-101114087D02*
X115678570Y-101042658D01*
X115678570Y-101042658D02*
X115607141Y-100971230D01*
X115607141Y-100971230D02*
X115535712Y-100828373D01*
X115535712Y-100828373D02*
X115535712Y-100685516D01*
X115535712Y-100685516D02*
X115607141Y-100471230D01*
X115607141Y-100471230D02*
X116464284Y-99614087D01*
X116464284Y-99614087D02*
X115535712Y-99614087D01*
X114607141Y-101114087D02*
X114464284Y-101114087D01*
X114464284Y-101114087D02*
X114321427Y-101042658D01*
X114321427Y-101042658D02*
X114249999Y-100971230D01*
X114249999Y-100971230D02*
X114178570Y-100828373D01*
X114178570Y-100828373D02*
X114107141Y-100542658D01*
X114107141Y-100542658D02*
X114107141Y-100185516D01*
X114107141Y-100185516D02*
X114178570Y-99899801D01*
X114178570Y-99899801D02*
X114249999Y-99756944D01*
X114249999Y-99756944D02*
X114321427Y-99685516D01*
X114321427Y-99685516D02*
X114464284Y-99614087D01*
X114464284Y-99614087D02*
X114607141Y-99614087D01*
X114607141Y-99614087D02*
X114749999Y-99685516D01*
X114749999Y-99685516D02*
X114821427Y-99756944D01*
X114821427Y-99756944D02*
X114892856Y-99899801D01*
X114892856Y-99899801D02*
X114964284Y-100185516D01*
X114964284Y-100185516D02*
X114964284Y-100542658D01*
X114964284Y-100542658D02*
X114892856Y-100828373D01*
X114892856Y-100828373D02*
X114821427Y-100971230D01*
X114821427Y-100971230D02*
X114749999Y-101042658D01*
X114749999Y-101042658D02*
X114607141Y-101114087D01*
X113535713Y-100971230D02*
X113464285Y-101042658D01*
X113464285Y-101042658D02*
X113321428Y-101114087D01*
X113321428Y-101114087D02*
X112964285Y-101114087D01*
X112964285Y-101114087D02*
X112821428Y-101042658D01*
X112821428Y-101042658D02*
X112749999Y-100971230D01*
X112749999Y-100971230D02*
X112678570Y-100828373D01*
X112678570Y-100828373D02*
X112678570Y-100685516D01*
X112678570Y-100685516D02*
X112749999Y-100471230D01*
X112749999Y-100471230D02*
X113607142Y-99614087D01*
X113607142Y-99614087D02*
X112678570Y-99614087D01*
X111321428Y-101114087D02*
X112035714Y-101114087D01*
X112035714Y-101114087D02*
X112107142Y-100399801D01*
X112107142Y-100399801D02*
X112035714Y-100471230D01*
X112035714Y-100471230D02*
X111892857Y-100542658D01*
X111892857Y-100542658D02*
X111535714Y-100542658D01*
X111535714Y-100542658D02*
X111392857Y-100471230D01*
X111392857Y-100471230D02*
X111321428Y-100399801D01*
X111321428Y-100399801D02*
X111249999Y-100256944D01*
X111249999Y-100256944D02*
X111249999Y-99899801D01*
X111249999Y-99899801D02*
X111321428Y-99756944D01*
X111321428Y-99756944D02*
X111392857Y-99685516D01*
X111392857Y-99685516D02*
X111535714Y-99614087D01*
X111535714Y-99614087D02*
X111892857Y-99614087D01*
X111892857Y-99614087D02*
X112035714Y-99685516D01*
X112035714Y-99685516D02*
X112107142Y-99756944D01*
X120928572Y-97984885D02*
X120428572Y-97984885D01*
X120214286Y-97199171D02*
X120928572Y-97199171D01*
X120928572Y-97199171D02*
X120928572Y-98699171D01*
X120928572Y-98699171D02*
X120214286Y-98699171D01*
X119571429Y-97342028D02*
X119500000Y-97270600D01*
X119500000Y-97270600D02*
X119571429Y-97199171D01*
X119571429Y-97199171D02*
X119642857Y-97270600D01*
X119642857Y-97270600D02*
X119571429Y-97342028D01*
X119571429Y-97342028D02*
X119571429Y-97199171D01*
X116857143Y-97342028D02*
X116928571Y-97270600D01*
X116928571Y-97270600D02*
X117142857Y-97199171D01*
X117142857Y-97199171D02*
X117285714Y-97199171D01*
X117285714Y-97199171D02*
X117500000Y-97270600D01*
X117500000Y-97270600D02*
X117642857Y-97413457D01*
X117642857Y-97413457D02*
X117714286Y-97556314D01*
X117714286Y-97556314D02*
X117785714Y-97842028D01*
X117785714Y-97842028D02*
X117785714Y-98056314D01*
X117785714Y-98056314D02*
X117714286Y-98342028D01*
X117714286Y-98342028D02*
X117642857Y-98484885D01*
X117642857Y-98484885D02*
X117500000Y-98627742D01*
X117500000Y-98627742D02*
X117285714Y-98699171D01*
X117285714Y-98699171D02*
X117142857Y-98699171D01*
X117142857Y-98699171D02*
X116928571Y-98627742D01*
X116928571Y-98627742D02*
X116857143Y-98556314D01*
X116214286Y-97199171D02*
X116214286Y-98699171D01*
X116214286Y-97984885D02*
X115357143Y-97984885D01*
X115357143Y-97199171D02*
X115357143Y-98699171D01*
X114642857Y-97199171D02*
X114642857Y-98699171D01*
X113928571Y-98699171D02*
X113928571Y-97484885D01*
X113928571Y-97484885D02*
X113857142Y-97342028D01*
X113857142Y-97342028D02*
X113785714Y-97270600D01*
X113785714Y-97270600D02*
X113642856Y-97199171D01*
X113642856Y-97199171D02*
X113357142Y-97199171D01*
X113357142Y-97199171D02*
X113214285Y-97270600D01*
X113214285Y-97270600D02*
X113142856Y-97342028D01*
X113142856Y-97342028D02*
X113071428Y-97484885D01*
X113071428Y-97484885D02*
X113071428Y-98699171D01*
D10*
X118263220Y-129450068D02*
X118263220Y-130450068D01*
X117263221Y-130402449D02*
X117358459Y-130450068D01*
X117358459Y-130450068D02*
X117501316Y-130450068D01*
X117501316Y-130450068D02*
X117644173Y-130402449D01*
X117644173Y-130402449D02*
X117739411Y-130307211D01*
X117739411Y-130307211D02*
X117787030Y-130211973D01*
X117787030Y-130211973D02*
X117834649Y-130021497D01*
X117834649Y-130021497D02*
X117834649Y-129878640D01*
X117834649Y-129878640D02*
X117787030Y-129688164D01*
X117787030Y-129688164D02*
X117739411Y-129592926D01*
X117739411Y-129592926D02*
X117644173Y-129497688D01*
X117644173Y-129497688D02*
X117501316Y-129450068D01*
X117501316Y-129450068D02*
X117406078Y-129450068D01*
X117406078Y-129450068D02*
X117263221Y-129497688D01*
X117263221Y-129497688D02*
X117215602Y-129545307D01*
X117215602Y-129545307D02*
X117215602Y-129878640D01*
X117215602Y-129878640D02*
X117406078Y-129878640D01*
X116787030Y-129450068D02*
X116787030Y-130450068D01*
X116787030Y-130450068D02*
X116215602Y-129450068D01*
X116215602Y-129450068D02*
X116215602Y-130450068D01*
X115739411Y-129450068D02*
X115739411Y-130450068D01*
X115406078Y-130450068D02*
X114834650Y-130450068D01*
X115120364Y-129450068D02*
X115120364Y-130450068D01*
X114501316Y-129973878D02*
X114167983Y-129973878D01*
X114025126Y-129450068D02*
X114501316Y-129450068D01*
X114501316Y-129450068D02*
X114501316Y-130450068D01*
X114501316Y-130450068D02*
X114025126Y-130450068D01*
X113025126Y-129450068D02*
X113358459Y-129926259D01*
X113596554Y-129450068D02*
X113596554Y-130450068D01*
X113596554Y-130450068D02*
X113215602Y-130450068D01*
X113215602Y-130450068D02*
X113120364Y-130402449D01*
X113120364Y-130402449D02*
X113072745Y-130354830D01*
X113072745Y-130354830D02*
X113025126Y-130259592D01*
X113025126Y-130259592D02*
X113025126Y-130116735D01*
X113025126Y-130116735D02*
X113072745Y-130021497D01*
X113072745Y-130021497D02*
X113120364Y-129973878D01*
X113120364Y-129973878D02*
X113215602Y-129926259D01*
X113215602Y-129926259D02*
X113596554Y-129926259D01*
X118263220Y-127840124D02*
X118263220Y-128840124D01*
X118263220Y-128840124D02*
X118025125Y-128840124D01*
X118025125Y-128840124D02*
X117882268Y-128792505D01*
X117882268Y-128792505D02*
X117787030Y-128697267D01*
X117787030Y-128697267D02*
X117739411Y-128602029D01*
X117739411Y-128602029D02*
X117691792Y-128411553D01*
X117691792Y-128411553D02*
X117691792Y-128268696D01*
X117691792Y-128268696D02*
X117739411Y-128078220D01*
X117739411Y-128078220D02*
X117787030Y-127982982D01*
X117787030Y-127982982D02*
X117882268Y-127887744D01*
X117882268Y-127887744D02*
X118025125Y-127840124D01*
X118025125Y-127840124D02*
X118263220Y-127840124D01*
X117263220Y-128363934D02*
X116929887Y-128363934D01*
X116787030Y-127840124D02*
X117263220Y-127840124D01*
X117263220Y-127840124D02*
X117263220Y-128840124D01*
X117263220Y-128840124D02*
X116787030Y-128840124D01*
X116406077Y-127887744D02*
X116263220Y-127840124D01*
X116263220Y-127840124D02*
X116025125Y-127840124D01*
X116025125Y-127840124D02*
X115929887Y-127887744D01*
X115929887Y-127887744D02*
X115882268Y-127935363D01*
X115882268Y-127935363D02*
X115834649Y-128030601D01*
X115834649Y-128030601D02*
X115834649Y-128125839D01*
X115834649Y-128125839D02*
X115882268Y-128221077D01*
X115882268Y-128221077D02*
X115929887Y-128268696D01*
X115929887Y-128268696D02*
X116025125Y-128316315D01*
X116025125Y-128316315D02*
X116215601Y-128363934D01*
X116215601Y-128363934D02*
X116310839Y-128411553D01*
X116310839Y-128411553D02*
X116358458Y-128459172D01*
X116358458Y-128459172D02*
X116406077Y-128554410D01*
X116406077Y-128554410D02*
X116406077Y-128649648D01*
X116406077Y-128649648D02*
X116358458Y-128744886D01*
X116358458Y-128744886D02*
X116310839Y-128792505D01*
X116310839Y-128792505D02*
X116215601Y-128840124D01*
X116215601Y-128840124D02*
X115977506Y-128840124D01*
X115977506Y-128840124D02*
X115834649Y-128792505D01*
X115406077Y-127840124D02*
X115406077Y-128840124D01*
X114406078Y-128792505D02*
X114501316Y-128840124D01*
X114501316Y-128840124D02*
X114644173Y-128840124D01*
X114644173Y-128840124D02*
X114787030Y-128792505D01*
X114787030Y-128792505D02*
X114882268Y-128697267D01*
X114882268Y-128697267D02*
X114929887Y-128602029D01*
X114929887Y-128602029D02*
X114977506Y-128411553D01*
X114977506Y-128411553D02*
X114977506Y-128268696D01*
X114977506Y-128268696D02*
X114929887Y-128078220D01*
X114929887Y-128078220D02*
X114882268Y-127982982D01*
X114882268Y-127982982D02*
X114787030Y-127887744D01*
X114787030Y-127887744D02*
X114644173Y-127840124D01*
X114644173Y-127840124D02*
X114548935Y-127840124D01*
X114548935Y-127840124D02*
X114406078Y-127887744D01*
X114406078Y-127887744D02*
X114358459Y-127935363D01*
X114358459Y-127935363D02*
X114358459Y-128268696D01*
X114358459Y-128268696D02*
X114548935Y-128268696D01*
X113929887Y-127840124D02*
X113929887Y-128840124D01*
X113929887Y-128840124D02*
X113358459Y-127840124D01*
X113358459Y-127840124D02*
X113358459Y-128840124D01*
X111787030Y-128363934D02*
X111644173Y-128316315D01*
X111644173Y-128316315D02*
X111596554Y-128268696D01*
X111596554Y-128268696D02*
X111548935Y-128173458D01*
X111548935Y-128173458D02*
X111548935Y-128030601D01*
X111548935Y-128030601D02*
X111596554Y-127935363D01*
X111596554Y-127935363D02*
X111644173Y-127887744D01*
X111644173Y-127887744D02*
X111739411Y-127840124D01*
X111739411Y-127840124D02*
X112120363Y-127840124D01*
X112120363Y-127840124D02*
X112120363Y-128840124D01*
X112120363Y-128840124D02*
X111787030Y-128840124D01*
X111787030Y-128840124D02*
X111691792Y-128792505D01*
X111691792Y-128792505D02*
X111644173Y-128744886D01*
X111644173Y-128744886D02*
X111596554Y-128649648D01*
X111596554Y-128649648D02*
X111596554Y-128554410D01*
X111596554Y-128554410D02*
X111644173Y-128459172D01*
X111644173Y-128459172D02*
X111691792Y-128411553D01*
X111691792Y-128411553D02*
X111787030Y-128363934D01*
X111787030Y-128363934D02*
X112120363Y-128363934D01*
X110929887Y-128316315D02*
X110929887Y-127840124D01*
X111263220Y-128840124D02*
X110929887Y-128316315D01*
X110929887Y-128316315D02*
X110596554Y-128840124D01*
X117644173Y-126706371D02*
X117691792Y-126753990D01*
X117691792Y-126753990D02*
X117787030Y-126801609D01*
X117787030Y-126801609D02*
X117882268Y-126801609D01*
X117882268Y-126801609D02*
X117977506Y-126753990D01*
X117977506Y-126753990D02*
X118025125Y-126706371D01*
X118025125Y-126706371D02*
X118072744Y-126611133D01*
X118072744Y-126611133D02*
X118072744Y-126515895D01*
X118072744Y-126515895D02*
X118025125Y-126420657D01*
X118025125Y-126420657D02*
X117977506Y-126373038D01*
X117977506Y-126373038D02*
X117882268Y-126325419D01*
X117882268Y-126325419D02*
X117787030Y-126325419D01*
X117787030Y-126325419D02*
X117691792Y-126373038D01*
X117691792Y-126373038D02*
X117644173Y-126420657D01*
X117644173Y-126801609D02*
X117644173Y-126420657D01*
X117644173Y-126420657D02*
X117596554Y-126373038D01*
X117596554Y-126373038D02*
X117548935Y-126373038D01*
X117548935Y-126373038D02*
X117453696Y-126420657D01*
X117453696Y-126420657D02*
X117406077Y-126515895D01*
X117406077Y-126515895D02*
X117406077Y-126753990D01*
X117406077Y-126753990D02*
X117501316Y-126896847D01*
X117501316Y-126896847D02*
X117644173Y-126992085D01*
X117644173Y-126992085D02*
X117834649Y-127039704D01*
X117834649Y-127039704D02*
X118025125Y-126992085D01*
X118025125Y-126992085D02*
X118167982Y-126896847D01*
X118167982Y-126896847D02*
X118263220Y-126753990D01*
X118263220Y-126753990D02*
X118310839Y-126563514D01*
X118310839Y-126563514D02*
X118263220Y-126373038D01*
X118263220Y-126373038D02*
X118167982Y-126230180D01*
X118167982Y-126230180D02*
X118025125Y-126134942D01*
X118025125Y-126134942D02*
X117834649Y-126087323D01*
X117834649Y-126087323D02*
X117644173Y-126134942D01*
X117644173Y-126134942D02*
X117501316Y-126230180D01*
X116501316Y-126230180D02*
X116977506Y-126230180D01*
X116977506Y-126230180D02*
X116977506Y-127230180D01*
X116310839Y-127230180D02*
X115739411Y-127230180D01*
X116025125Y-126230180D02*
X116025125Y-127230180D01*
X115501315Y-127230180D02*
X115263220Y-126230180D01*
X115263220Y-126230180D02*
X115072744Y-126944466D01*
X115072744Y-126944466D02*
X114882268Y-126230180D01*
X114882268Y-126230180D02*
X114644173Y-127230180D01*
X114263220Y-126230180D02*
X114263220Y-127230180D01*
X113787030Y-126230180D02*
X113787030Y-127230180D01*
X113787030Y-127230180D02*
X113215602Y-126230180D01*
X113215602Y-126230180D02*
X113215602Y-127230180D01*
X112596554Y-126801609D02*
X112691792Y-126849228D01*
X112691792Y-126849228D02*
X112739411Y-126896847D01*
X112739411Y-126896847D02*
X112787030Y-126992085D01*
X112787030Y-126992085D02*
X112787030Y-127039704D01*
X112787030Y-127039704D02*
X112739411Y-127134942D01*
X112739411Y-127134942D02*
X112691792Y-127182561D01*
X112691792Y-127182561D02*
X112596554Y-127230180D01*
X112596554Y-127230180D02*
X112406078Y-127230180D01*
X112406078Y-127230180D02*
X112310840Y-127182561D01*
X112310840Y-127182561D02*
X112263221Y-127134942D01*
X112263221Y-127134942D02*
X112215602Y-127039704D01*
X112215602Y-127039704D02*
X112215602Y-126992085D01*
X112215602Y-126992085D02*
X112263221Y-126896847D01*
X112263221Y-126896847D02*
X112310840Y-126849228D01*
X112310840Y-126849228D02*
X112406078Y-126801609D01*
X112406078Y-126801609D02*
X112596554Y-126801609D01*
X112596554Y-126801609D02*
X112691792Y-126753990D01*
X112691792Y-126753990D02*
X112739411Y-126706371D01*
X112739411Y-126706371D02*
X112787030Y-126611133D01*
X112787030Y-126611133D02*
X112787030Y-126420657D01*
X112787030Y-126420657D02*
X112739411Y-126325419D01*
X112739411Y-126325419D02*
X112691792Y-126277800D01*
X112691792Y-126277800D02*
X112596554Y-126230180D01*
X112596554Y-126230180D02*
X112406078Y-126230180D01*
X112406078Y-126230180D02*
X112310840Y-126277800D01*
X112310840Y-126277800D02*
X112263221Y-126325419D01*
X112263221Y-126325419D02*
X112215602Y-126420657D01*
X112215602Y-126420657D02*
X112215602Y-126611133D01*
X112215602Y-126611133D02*
X112263221Y-126706371D01*
X112263221Y-126706371D02*
X112310840Y-126753990D01*
X112310840Y-126753990D02*
X112406078Y-126801609D01*
D11*
X108142857Y-121377649D02*
X108142857Y-123377649D01*
X108142857Y-123377649D02*
X107380952Y-123377649D01*
X107380952Y-123377649D02*
X107190476Y-123282411D01*
X107190476Y-123282411D02*
X107095238Y-123187173D01*
X107095238Y-123187173D02*
X107000000Y-122996697D01*
X107000000Y-122996697D02*
X107000000Y-122710983D01*
X107000000Y-122710983D02*
X107095238Y-122520507D01*
X107095238Y-122520507D02*
X107190476Y-122425268D01*
X107190476Y-122425268D02*
X107380952Y-122330030D01*
X107380952Y-122330030D02*
X108142857Y-122330030D01*
X105190476Y-121377649D02*
X106142857Y-121377649D01*
X106142857Y-121377649D02*
X106142857Y-123377649D01*
X104619047Y-121949078D02*
X103666666Y-121949078D01*
X104809523Y-121377649D02*
X104142857Y-123377649D01*
X104142857Y-123377649D02*
X103476190Y-121377649D01*
X102904761Y-121472888D02*
X102619047Y-121377649D01*
X102619047Y-121377649D02*
X102142856Y-121377649D01*
X102142856Y-121377649D02*
X101952380Y-121472888D01*
X101952380Y-121472888D02*
X101857142Y-121568126D01*
X101857142Y-121568126D02*
X101761904Y-121758602D01*
X101761904Y-121758602D02*
X101761904Y-121949078D01*
X101761904Y-121949078D02*
X101857142Y-122139554D01*
X101857142Y-122139554D02*
X101952380Y-122234792D01*
X101952380Y-122234792D02*
X102142856Y-122330030D01*
X102142856Y-122330030D02*
X102523809Y-122425268D01*
X102523809Y-122425268D02*
X102714285Y-122520507D01*
X102714285Y-122520507D02*
X102809523Y-122615745D01*
X102809523Y-122615745D02*
X102904761Y-122806221D01*
X102904761Y-122806221D02*
X102904761Y-122996697D01*
X102904761Y-122996697D02*
X102809523Y-123187173D01*
X102809523Y-123187173D02*
X102714285Y-123282411D01*
X102714285Y-123282411D02*
X102523809Y-123377649D01*
X102523809Y-123377649D02*
X102047618Y-123377649D01*
X102047618Y-123377649D02*
X101761904Y-123282411D01*
X100904761Y-121377649D02*
X100904761Y-123377649D01*
X100904761Y-123377649D02*
X100238094Y-121949078D01*
X100238094Y-121949078D02*
X99571428Y-123377649D01*
X99571428Y-123377649D02*
X99571428Y-121377649D01*
X98714285Y-121949078D02*
X97761904Y-121949078D01*
X98904761Y-121377649D02*
X98238095Y-123377649D01*
X98238095Y-123377649D02*
X97571428Y-121377649D01*
X104714285Y-118348238D02*
X104809523Y-118253000D01*
X104809523Y-118253000D02*
X105095237Y-118157761D01*
X105095237Y-118157761D02*
X105285713Y-118157761D01*
X105285713Y-118157761D02*
X105571428Y-118253000D01*
X105571428Y-118253000D02*
X105761904Y-118443476D01*
X105761904Y-118443476D02*
X105857142Y-118633952D01*
X105857142Y-118633952D02*
X105952380Y-119014904D01*
X105952380Y-119014904D02*
X105952380Y-119300619D01*
X105952380Y-119300619D02*
X105857142Y-119681571D01*
X105857142Y-119681571D02*
X105761904Y-119872047D01*
X105761904Y-119872047D02*
X105571428Y-120062523D01*
X105571428Y-120062523D02*
X105285713Y-120157761D01*
X105285713Y-120157761D02*
X105095237Y-120157761D01*
X105095237Y-120157761D02*
X104809523Y-120062523D01*
X104809523Y-120062523D02*
X104714285Y-119967285D01*
X103476190Y-120157761D02*
X103095237Y-120157761D01*
X103095237Y-120157761D02*
X102904761Y-120062523D01*
X102904761Y-120062523D02*
X102714285Y-119872047D01*
X102714285Y-119872047D02*
X102619047Y-119491095D01*
X102619047Y-119491095D02*
X102619047Y-118824428D01*
X102619047Y-118824428D02*
X102714285Y-118443476D01*
X102714285Y-118443476D02*
X102904761Y-118253000D01*
X102904761Y-118253000D02*
X103095237Y-118157761D01*
X103095237Y-118157761D02*
X103476190Y-118157761D01*
X103476190Y-118157761D02*
X103666666Y-118253000D01*
X103666666Y-118253000D02*
X103857142Y-118443476D01*
X103857142Y-118443476D02*
X103952380Y-118824428D01*
X103952380Y-118824428D02*
X103952380Y-119491095D01*
X103952380Y-119491095D02*
X103857142Y-119872047D01*
X103857142Y-119872047D02*
X103666666Y-120062523D01*
X103666666Y-120062523D02*
X103476190Y-120157761D01*
X101761904Y-118157761D02*
X101761904Y-120157761D01*
X99857142Y-118157761D02*
X100809523Y-118157761D01*
X100809523Y-118157761D02*
X100809523Y-120157761D01*
D10*
X59933333Y-83445180D02*
X59933333Y-82730895D01*
X59933333Y-82730895D02*
X59980952Y-82588038D01*
X59980952Y-82588038D02*
X60076190Y-82492800D01*
X60076190Y-82492800D02*
X60219047Y-82445180D01*
X60219047Y-82445180D02*
X60314285Y-82445180D01*
X58980952Y-83445180D02*
X59457142Y-83445180D01*
X59457142Y-83445180D02*
X59504761Y-82968990D01*
X59504761Y-82968990D02*
X59457142Y-83016609D01*
X59457142Y-83016609D02*
X59361904Y-83064228D01*
X59361904Y-83064228D02*
X59123809Y-83064228D01*
X59123809Y-83064228D02*
X59028571Y-83016609D01*
X59028571Y-83016609D02*
X58980952Y-82968990D01*
X58980952Y-82968990D02*
X58933333Y-82873752D01*
X58933333Y-82873752D02*
X58933333Y-82635657D01*
X58933333Y-82635657D02*
X58980952Y-82540419D01*
X58980952Y-82540419D02*
X59028571Y-82492800D01*
X59028571Y-82492800D02*
X59123809Y-82445180D01*
X59123809Y-82445180D02*
X59361904Y-82445180D01*
X59361904Y-82445180D02*
X59457142Y-82492800D01*
X59457142Y-82492800D02*
X59504761Y-82540419D01*
X59933333Y-97445180D02*
X59933333Y-96730895D01*
X59933333Y-96730895D02*
X59980952Y-96588038D01*
X59980952Y-96588038D02*
X60076190Y-96492800D01*
X60076190Y-96492800D02*
X60219047Y-96445180D01*
X60219047Y-96445180D02*
X60314285Y-96445180D01*
X59552380Y-97445180D02*
X58933333Y-97445180D01*
X58933333Y-97445180D02*
X59266666Y-97064228D01*
X59266666Y-97064228D02*
X59123809Y-97064228D01*
X59123809Y-97064228D02*
X59028571Y-97016609D01*
X59028571Y-97016609D02*
X58980952Y-96968990D01*
X58980952Y-96968990D02*
X58933333Y-96873752D01*
X58933333Y-96873752D02*
X58933333Y-96635657D01*
X58933333Y-96635657D02*
X58980952Y-96540419D01*
X58980952Y-96540419D02*
X59028571Y-96492800D01*
X59028571Y-96492800D02*
X59123809Y-96445180D01*
X59123809Y-96445180D02*
X59409523Y-96445180D01*
X59409523Y-96445180D02*
X59504761Y-96492800D01*
X59504761Y-96492800D02*
X59552380Y-96540419D01*
X125961904Y-142345180D02*
X125390476Y-142345180D01*
X125676190Y-141345180D02*
X125676190Y-142345180D01*
X125104761Y-142249942D02*
X125057142Y-142297561D01*
X125057142Y-142297561D02*
X124961904Y-142345180D01*
X124961904Y-142345180D02*
X124723809Y-142345180D01*
X124723809Y-142345180D02*
X124628571Y-142297561D01*
X124628571Y-142297561D02*
X124580952Y-142249942D01*
X124580952Y-142249942D02*
X124533333Y-142154704D01*
X124533333Y-142154704D02*
X124533333Y-142059466D01*
X124533333Y-142059466D02*
X124580952Y-141916609D01*
X124580952Y-141916609D02*
X125152380Y-141345180D01*
X125152380Y-141345180D02*
X124533333Y-141345180D01*
X95909523Y-142945180D02*
X95909523Y-142230895D01*
X95909523Y-142230895D02*
X95957142Y-142088038D01*
X95957142Y-142088038D02*
X96052380Y-141992800D01*
X96052380Y-141992800D02*
X96195237Y-141945180D01*
X96195237Y-141945180D02*
X96290475Y-141945180D01*
X94909523Y-141945180D02*
X95480951Y-141945180D01*
X95195237Y-141945180D02*
X95195237Y-142945180D01*
X95195237Y-142945180D02*
X95290475Y-142802323D01*
X95290475Y-142802323D02*
X95385713Y-142707085D01*
X95385713Y-142707085D02*
X95480951Y-142659466D01*
X94528570Y-142849942D02*
X94480951Y-142897561D01*
X94480951Y-142897561D02*
X94385713Y-142945180D01*
X94385713Y-142945180D02*
X94147618Y-142945180D01*
X94147618Y-142945180D02*
X94052380Y-142897561D01*
X94052380Y-142897561D02*
X94004761Y-142849942D01*
X94004761Y-142849942D02*
X93957142Y-142754704D01*
X93957142Y-142754704D02*
X93957142Y-142659466D01*
X93957142Y-142659466D02*
X94004761Y-142516609D01*
X94004761Y-142516609D02*
X94576189Y-141945180D01*
X94576189Y-141945180D02*
X93957142Y-141945180D01*
X105909523Y-142745180D02*
X105909523Y-142030895D01*
X105909523Y-142030895D02*
X105957142Y-141888038D01*
X105957142Y-141888038D02*
X106052380Y-141792800D01*
X106052380Y-141792800D02*
X106195237Y-141745180D01*
X106195237Y-141745180D02*
X106290475Y-141745180D01*
X104909523Y-141745180D02*
X105480951Y-141745180D01*
X105195237Y-141745180D02*
X105195237Y-142745180D01*
X105195237Y-142745180D02*
X105290475Y-142602323D01*
X105290475Y-142602323D02*
X105385713Y-142507085D01*
X105385713Y-142507085D02*
X105480951Y-142459466D01*
X103957142Y-141745180D02*
X104528570Y-141745180D01*
X104242856Y-141745180D02*
X104242856Y-142745180D01*
X104242856Y-142745180D02*
X104338094Y-142602323D01*
X104338094Y-142602323D02*
X104433332Y-142507085D01*
X104433332Y-142507085D02*
X104528570Y-142459466D01*
X94695238Y-63245180D02*
X95028571Y-63721371D01*
X95266666Y-63245180D02*
X95266666Y-64245180D01*
X95266666Y-64245180D02*
X94885714Y-64245180D01*
X94885714Y-64245180D02*
X94790476Y-64197561D01*
X94790476Y-64197561D02*
X94742857Y-64149942D01*
X94742857Y-64149942D02*
X94695238Y-64054704D01*
X94695238Y-64054704D02*
X94695238Y-63911847D01*
X94695238Y-63911847D02*
X94742857Y-63816609D01*
X94742857Y-63816609D02*
X94790476Y-63768990D01*
X94790476Y-63768990D02*
X94885714Y-63721371D01*
X94885714Y-63721371D02*
X95266666Y-63721371D01*
X94409523Y-64245180D02*
X94076190Y-63245180D01*
X94076190Y-63245180D02*
X93742857Y-64245180D01*
X92885714Y-63245180D02*
X93457142Y-63245180D01*
X93171428Y-63245180D02*
X93171428Y-64245180D01*
X93171428Y-64245180D02*
X93266666Y-64102323D01*
X93266666Y-64102323D02*
X93361904Y-64007085D01*
X93361904Y-64007085D02*
X93457142Y-63959466D01*
X69433333Y-57945180D02*
X69433333Y-57230895D01*
X69433333Y-57230895D02*
X69480952Y-57088038D01*
X69480952Y-57088038D02*
X69576190Y-56992800D01*
X69576190Y-56992800D02*
X69719047Y-56945180D01*
X69719047Y-56945180D02*
X69814285Y-56945180D01*
X68814285Y-57516609D02*
X68909523Y-57564228D01*
X68909523Y-57564228D02*
X68957142Y-57611847D01*
X68957142Y-57611847D02*
X69004761Y-57707085D01*
X69004761Y-57707085D02*
X69004761Y-57754704D01*
X69004761Y-57754704D02*
X68957142Y-57849942D01*
X68957142Y-57849942D02*
X68909523Y-57897561D01*
X68909523Y-57897561D02*
X68814285Y-57945180D01*
X68814285Y-57945180D02*
X68623809Y-57945180D01*
X68623809Y-57945180D02*
X68528571Y-57897561D01*
X68528571Y-57897561D02*
X68480952Y-57849942D01*
X68480952Y-57849942D02*
X68433333Y-57754704D01*
X68433333Y-57754704D02*
X68433333Y-57707085D01*
X68433333Y-57707085D02*
X68480952Y-57611847D01*
X68480952Y-57611847D02*
X68528571Y-57564228D01*
X68528571Y-57564228D02*
X68623809Y-57516609D01*
X68623809Y-57516609D02*
X68814285Y-57516609D01*
X68814285Y-57516609D02*
X68909523Y-57468990D01*
X68909523Y-57468990D02*
X68957142Y-57421371D01*
X68957142Y-57421371D02*
X69004761Y-57326133D01*
X69004761Y-57326133D02*
X69004761Y-57135657D01*
X69004761Y-57135657D02*
X68957142Y-57040419D01*
X68957142Y-57040419D02*
X68909523Y-56992800D01*
X68909523Y-56992800D02*
X68814285Y-56945180D01*
X68814285Y-56945180D02*
X68623809Y-56945180D01*
X68623809Y-56945180D02*
X68528571Y-56992800D01*
X68528571Y-56992800D02*
X68480952Y-57040419D01*
X68480952Y-57040419D02*
X68433333Y-57135657D01*
X68433333Y-57135657D02*
X68433333Y-57326133D01*
X68433333Y-57326133D02*
X68480952Y-57421371D01*
X68480952Y-57421371D02*
X68528571Y-57468990D01*
X68528571Y-57468990D02*
X68623809Y-57516609D01*
X107492800Y-69966667D02*
X107445180Y-70109524D01*
X107445180Y-70109524D02*
X107445180Y-70347619D01*
X107445180Y-70347619D02*
X107492800Y-70442857D01*
X107492800Y-70442857D02*
X107540419Y-70490476D01*
X107540419Y-70490476D02*
X107635657Y-70538095D01*
X107635657Y-70538095D02*
X107730895Y-70538095D01*
X107730895Y-70538095D02*
X107826133Y-70490476D01*
X107826133Y-70490476D02*
X107873752Y-70442857D01*
X107873752Y-70442857D02*
X107921371Y-70347619D01*
X107921371Y-70347619D02*
X107968990Y-70157143D01*
X107968990Y-70157143D02*
X108016609Y-70061905D01*
X108016609Y-70061905D02*
X108064228Y-70014286D01*
X108064228Y-70014286D02*
X108159466Y-69966667D01*
X108159466Y-69966667D02*
X108254704Y-69966667D01*
X108254704Y-69966667D02*
X108349942Y-70014286D01*
X108349942Y-70014286D02*
X108397561Y-70061905D01*
X108397561Y-70061905D02*
X108445180Y-70157143D01*
X108445180Y-70157143D02*
X108445180Y-70395238D01*
X108445180Y-70395238D02*
X108397561Y-70538095D01*
X108445180Y-70871429D02*
X107445180Y-71109524D01*
X107445180Y-71109524D02*
X108159466Y-71300000D01*
X108159466Y-71300000D02*
X107445180Y-71490476D01*
X107445180Y-71490476D02*
X108445180Y-71728572D01*
X107445180Y-72633333D02*
X107445180Y-72061905D01*
X107445180Y-72347619D02*
X108445180Y-72347619D01*
X108445180Y-72347619D02*
X108302323Y-72252381D01*
X108302323Y-72252381D02*
X108207085Y-72157143D01*
X108207085Y-72157143D02*
X108159466Y-72061905D01*
X123197561Y-142185714D02*
X123245180Y-142090476D01*
X123245180Y-142090476D02*
X123245180Y-141947619D01*
X123245180Y-141947619D02*
X123197561Y-141804762D01*
X123197561Y-141804762D02*
X123102323Y-141709524D01*
X123102323Y-141709524D02*
X123007085Y-141661905D01*
X123007085Y-141661905D02*
X122816609Y-141614286D01*
X122816609Y-141614286D02*
X122673752Y-141614286D01*
X122673752Y-141614286D02*
X122483276Y-141661905D01*
X122483276Y-141661905D02*
X122388038Y-141709524D01*
X122388038Y-141709524D02*
X122292800Y-141804762D01*
X122292800Y-141804762D02*
X122245180Y-141947619D01*
X122245180Y-141947619D02*
X122245180Y-142042857D01*
X122245180Y-142042857D02*
X122292800Y-142185714D01*
X122292800Y-142185714D02*
X122340419Y-142233333D01*
X122340419Y-142233333D02*
X122673752Y-142233333D01*
X122673752Y-142233333D02*
X122673752Y-142042857D01*
X122245180Y-142661905D02*
X123245180Y-142661905D01*
X123245180Y-142661905D02*
X123245180Y-142900000D01*
X123245180Y-142900000D02*
X123197561Y-143042857D01*
X123197561Y-143042857D02*
X123102323Y-143138095D01*
X123102323Y-143138095D02*
X123007085Y-143185714D01*
X123007085Y-143185714D02*
X122816609Y-143233333D01*
X122816609Y-143233333D02*
X122673752Y-143233333D01*
X122673752Y-143233333D02*
X122483276Y-143185714D01*
X122483276Y-143185714D02*
X122388038Y-143138095D01*
X122388038Y-143138095D02*
X122292800Y-143042857D01*
X122292800Y-143042857D02*
X122245180Y-142900000D01*
X122245180Y-142900000D02*
X122245180Y-142661905D01*
X122245180Y-144185714D02*
X122245180Y-143614286D01*
X122245180Y-143900000D02*
X123245180Y-143900000D01*
X123245180Y-143900000D02*
X123102323Y-143804762D01*
X123102323Y-143804762D02*
X123007085Y-143709524D01*
X123007085Y-143709524D02*
X122959466Y-143614286D01*
X109686905Y-120154819D02*
X109686905Y-119154819D01*
X109686905Y-119154819D02*
X109925000Y-119154819D01*
X109925000Y-119154819D02*
X110067857Y-119202438D01*
X110067857Y-119202438D02*
X110163095Y-119297676D01*
X110163095Y-119297676D02*
X110210714Y-119392914D01*
X110210714Y-119392914D02*
X110258333Y-119583390D01*
X110258333Y-119583390D02*
X110258333Y-119726247D01*
X110258333Y-119726247D02*
X110210714Y-119916723D01*
X110210714Y-119916723D02*
X110163095Y-120011961D01*
X110163095Y-120011961D02*
X110067857Y-120107200D01*
X110067857Y-120107200D02*
X109925000Y-120154819D01*
X109925000Y-120154819D02*
X109686905Y-120154819D01*
X110591667Y-119154819D02*
X111210714Y-119154819D01*
X111210714Y-119154819D02*
X110877381Y-119535771D01*
X110877381Y-119535771D02*
X111020238Y-119535771D01*
X111020238Y-119535771D02*
X111115476Y-119583390D01*
X111115476Y-119583390D02*
X111163095Y-119631009D01*
X111163095Y-119631009D02*
X111210714Y-119726247D01*
X111210714Y-119726247D02*
X111210714Y-119964342D01*
X111210714Y-119964342D02*
X111163095Y-120059580D01*
X111163095Y-120059580D02*
X111115476Y-120107200D01*
X111115476Y-120107200D02*
X111020238Y-120154819D01*
X111020238Y-120154819D02*
X110734524Y-120154819D01*
X110734524Y-120154819D02*
X110639286Y-120107200D01*
X110639286Y-120107200D02*
X110591667Y-120059580D01*
X108138094Y-114745180D02*
X108138094Y-115745180D01*
X108138094Y-115745180D02*
X107899999Y-115745180D01*
X107899999Y-115745180D02*
X107757142Y-115697561D01*
X107757142Y-115697561D02*
X107661904Y-115602323D01*
X107661904Y-115602323D02*
X107614285Y-115507085D01*
X107614285Y-115507085D02*
X107566666Y-115316609D01*
X107566666Y-115316609D02*
X107566666Y-115173752D01*
X107566666Y-115173752D02*
X107614285Y-114983276D01*
X107614285Y-114983276D02*
X107661904Y-114888038D01*
X107661904Y-114888038D02*
X107757142Y-114792800D01*
X107757142Y-114792800D02*
X107899999Y-114745180D01*
X107899999Y-114745180D02*
X108138094Y-114745180D01*
X106709523Y-115411847D02*
X106709523Y-114745180D01*
X106947618Y-115792800D02*
X107185713Y-115078514D01*
X107185713Y-115078514D02*
X106566666Y-115078514D01*
X122390419Y-80333333D02*
X122342800Y-80285714D01*
X122342800Y-80285714D02*
X122295180Y-80142857D01*
X122295180Y-80142857D02*
X122295180Y-80047619D01*
X122295180Y-80047619D02*
X122342800Y-79904762D01*
X122342800Y-79904762D02*
X122438038Y-79809524D01*
X122438038Y-79809524D02*
X122533276Y-79761905D01*
X122533276Y-79761905D02*
X122723752Y-79714286D01*
X122723752Y-79714286D02*
X122866609Y-79714286D01*
X122866609Y-79714286D02*
X123057085Y-79761905D01*
X123057085Y-79761905D02*
X123152323Y-79809524D01*
X123152323Y-79809524D02*
X123247561Y-79904762D01*
X123247561Y-79904762D02*
X123295180Y-80047619D01*
X123295180Y-80047619D02*
X123295180Y-80142857D01*
X123295180Y-80142857D02*
X123247561Y-80285714D01*
X123247561Y-80285714D02*
X123199942Y-80333333D01*
X123295180Y-80666667D02*
X123295180Y-81333333D01*
X123295180Y-81333333D02*
X122295180Y-80904762D01*
X107742857Y-112345180D02*
X108076190Y-112821371D01*
X108314285Y-112345180D02*
X108314285Y-113345180D01*
X108314285Y-113345180D02*
X107933333Y-113345180D01*
X107933333Y-113345180D02*
X107838095Y-113297561D01*
X107838095Y-113297561D02*
X107790476Y-113249942D01*
X107790476Y-113249942D02*
X107742857Y-113154704D01*
X107742857Y-113154704D02*
X107742857Y-113011847D01*
X107742857Y-113011847D02*
X107790476Y-112916609D01*
X107790476Y-112916609D02*
X107838095Y-112868990D01*
X107838095Y-112868990D02*
X107933333Y-112821371D01*
X107933333Y-112821371D02*
X108314285Y-112821371D01*
X106790476Y-112345180D02*
X107361904Y-112345180D01*
X107076190Y-112345180D02*
X107076190Y-113345180D01*
X107076190Y-113345180D02*
X107171428Y-113202323D01*
X107171428Y-113202323D02*
X107266666Y-113107085D01*
X107266666Y-113107085D02*
X107361904Y-113059466D01*
X106457142Y-113345180D02*
X105838095Y-113345180D01*
X105838095Y-113345180D02*
X106171428Y-112964228D01*
X106171428Y-112964228D02*
X106028571Y-112964228D01*
X106028571Y-112964228D02*
X105933333Y-112916609D01*
X105933333Y-112916609D02*
X105885714Y-112868990D01*
X105885714Y-112868990D02*
X105838095Y-112773752D01*
X105838095Y-112773752D02*
X105838095Y-112535657D01*
X105838095Y-112535657D02*
X105885714Y-112440419D01*
X105885714Y-112440419D02*
X105933333Y-112392800D01*
X105933333Y-112392800D02*
X106028571Y-112345180D01*
X106028571Y-112345180D02*
X106314285Y-112345180D01*
X106314285Y-112345180D02*
X106409523Y-112392800D01*
X106409523Y-112392800D02*
X106457142Y-112440419D01*
X73490419Y-94058333D02*
X73442800Y-94010714D01*
X73442800Y-94010714D02*
X73395180Y-93867857D01*
X73395180Y-93867857D02*
X73395180Y-93772619D01*
X73395180Y-93772619D02*
X73442800Y-93629762D01*
X73442800Y-93629762D02*
X73538038Y-93534524D01*
X73538038Y-93534524D02*
X73633276Y-93486905D01*
X73633276Y-93486905D02*
X73823752Y-93439286D01*
X73823752Y-93439286D02*
X73966609Y-93439286D01*
X73966609Y-93439286D02*
X74157085Y-93486905D01*
X74157085Y-93486905D02*
X74252323Y-93534524D01*
X74252323Y-93534524D02*
X74347561Y-93629762D01*
X74347561Y-93629762D02*
X74395180Y-93772619D01*
X74395180Y-93772619D02*
X74395180Y-93867857D01*
X74395180Y-93867857D02*
X74347561Y-94010714D01*
X74347561Y-94010714D02*
X74299942Y-94058333D01*
X74061847Y-94915476D02*
X73395180Y-94915476D01*
X74442800Y-94677381D02*
X73728514Y-94439286D01*
X73728514Y-94439286D02*
X73728514Y-95058333D01*
X87138094Y-135945180D02*
X87138094Y-136945180D01*
X87138094Y-136945180D02*
X86899999Y-136945180D01*
X86899999Y-136945180D02*
X86757142Y-136897561D01*
X86757142Y-136897561D02*
X86661904Y-136802323D01*
X86661904Y-136802323D02*
X86614285Y-136707085D01*
X86614285Y-136707085D02*
X86566666Y-136516609D01*
X86566666Y-136516609D02*
X86566666Y-136373752D01*
X86566666Y-136373752D02*
X86614285Y-136183276D01*
X86614285Y-136183276D02*
X86661904Y-136088038D01*
X86661904Y-136088038D02*
X86757142Y-135992800D01*
X86757142Y-135992800D02*
X86899999Y-135945180D01*
X86899999Y-135945180D02*
X87138094Y-135945180D01*
X85661904Y-136945180D02*
X86138094Y-136945180D01*
X86138094Y-136945180D02*
X86185713Y-136468990D01*
X86185713Y-136468990D02*
X86138094Y-136516609D01*
X86138094Y-136516609D02*
X86042856Y-136564228D01*
X86042856Y-136564228D02*
X85804761Y-136564228D01*
X85804761Y-136564228D02*
X85709523Y-136516609D01*
X85709523Y-136516609D02*
X85661904Y-136468990D01*
X85661904Y-136468990D02*
X85614285Y-136373752D01*
X85614285Y-136373752D02*
X85614285Y-136135657D01*
X85614285Y-136135657D02*
X85661904Y-136040419D01*
X85661904Y-136040419D02*
X85709523Y-135992800D01*
X85709523Y-135992800D02*
X85804761Y-135945180D01*
X85804761Y-135945180D02*
X86042856Y-135945180D01*
X86042856Y-135945180D02*
X86138094Y-135992800D01*
X86138094Y-135992800D02*
X86185713Y-136040419D01*
X124166666Y-124945180D02*
X124642856Y-124945180D01*
X124642856Y-124945180D02*
X124642856Y-125945180D01*
X123880951Y-125849942D02*
X123833332Y-125897561D01*
X123833332Y-125897561D02*
X123738094Y-125945180D01*
X123738094Y-125945180D02*
X123499999Y-125945180D01*
X123499999Y-125945180D02*
X123404761Y-125897561D01*
X123404761Y-125897561D02*
X123357142Y-125849942D01*
X123357142Y-125849942D02*
X123309523Y-125754704D01*
X123309523Y-125754704D02*
X123309523Y-125659466D01*
X123309523Y-125659466D02*
X123357142Y-125516609D01*
X123357142Y-125516609D02*
X123928570Y-124945180D01*
X123928570Y-124945180D02*
X123309523Y-124945180D01*
X128561904Y-144345180D02*
X127990476Y-144345180D01*
X128276190Y-143345180D02*
X128276190Y-144345180D01*
X127657142Y-143345180D02*
X127657142Y-144345180D01*
X127657142Y-144345180D02*
X127276190Y-144345180D01*
X127276190Y-144345180D02*
X127180952Y-144297561D01*
X127180952Y-144297561D02*
X127133333Y-144249942D01*
X127133333Y-144249942D02*
X127085714Y-144154704D01*
X127085714Y-144154704D02*
X127085714Y-144011847D01*
X127085714Y-144011847D02*
X127133333Y-143916609D01*
X127133333Y-143916609D02*
X127180952Y-143868990D01*
X127180952Y-143868990D02*
X127276190Y-143821371D01*
X127276190Y-143821371D02*
X127657142Y-143821371D01*
X126133333Y-143345180D02*
X126704761Y-143345180D01*
X126419047Y-143345180D02*
X126419047Y-144345180D01*
X126419047Y-144345180D02*
X126514285Y-144202323D01*
X126514285Y-144202323D02*
X126609523Y-144107085D01*
X126609523Y-144107085D02*
X126704761Y-144059466D01*
X87038094Y-141745180D02*
X87038094Y-142745180D01*
X87038094Y-142745180D02*
X86799999Y-142745180D01*
X86799999Y-142745180D02*
X86657142Y-142697561D01*
X86657142Y-142697561D02*
X86561904Y-142602323D01*
X86561904Y-142602323D02*
X86514285Y-142507085D01*
X86514285Y-142507085D02*
X86466666Y-142316609D01*
X86466666Y-142316609D02*
X86466666Y-142173752D01*
X86466666Y-142173752D02*
X86514285Y-141983276D01*
X86514285Y-141983276D02*
X86561904Y-141888038D01*
X86561904Y-141888038D02*
X86657142Y-141792800D01*
X86657142Y-141792800D02*
X86799999Y-141745180D01*
X86799999Y-141745180D02*
X87038094Y-141745180D01*
X85609523Y-142745180D02*
X85799999Y-142745180D01*
X85799999Y-142745180D02*
X85895237Y-142697561D01*
X85895237Y-142697561D02*
X85942856Y-142649942D01*
X85942856Y-142649942D02*
X86038094Y-142507085D01*
X86038094Y-142507085D02*
X86085713Y-142316609D01*
X86085713Y-142316609D02*
X86085713Y-141935657D01*
X86085713Y-141935657D02*
X86038094Y-141840419D01*
X86038094Y-141840419D02*
X85990475Y-141792800D01*
X85990475Y-141792800D02*
X85895237Y-141745180D01*
X85895237Y-141745180D02*
X85704761Y-141745180D01*
X85704761Y-141745180D02*
X85609523Y-141792800D01*
X85609523Y-141792800D02*
X85561904Y-141840419D01*
X85561904Y-141840419D02*
X85514285Y-141935657D01*
X85514285Y-141935657D02*
X85514285Y-142173752D01*
X85514285Y-142173752D02*
X85561904Y-142268990D01*
X85561904Y-142268990D02*
X85609523Y-142316609D01*
X85609523Y-142316609D02*
X85704761Y-142364228D01*
X85704761Y-142364228D02*
X85895237Y-142364228D01*
X85895237Y-142364228D02*
X85990475Y-142316609D01*
X85990475Y-142316609D02*
X86038094Y-142268990D01*
X86038094Y-142268990D02*
X86085713Y-142173752D01*
X100538094Y-110345180D02*
X100538094Y-111345180D01*
X100538094Y-111345180D02*
X100299999Y-111345180D01*
X100299999Y-111345180D02*
X100157142Y-111297561D01*
X100157142Y-111297561D02*
X100061904Y-111202323D01*
X100061904Y-111202323D02*
X100014285Y-111107085D01*
X100014285Y-111107085D02*
X99966666Y-110916609D01*
X99966666Y-110916609D02*
X99966666Y-110773752D01*
X99966666Y-110773752D02*
X100014285Y-110583276D01*
X100014285Y-110583276D02*
X100061904Y-110488038D01*
X100061904Y-110488038D02*
X100157142Y-110392800D01*
X100157142Y-110392800D02*
X100299999Y-110345180D01*
X100299999Y-110345180D02*
X100538094Y-110345180D01*
X99585713Y-111249942D02*
X99538094Y-111297561D01*
X99538094Y-111297561D02*
X99442856Y-111345180D01*
X99442856Y-111345180D02*
X99204761Y-111345180D01*
X99204761Y-111345180D02*
X99109523Y-111297561D01*
X99109523Y-111297561D02*
X99061904Y-111249942D01*
X99061904Y-111249942D02*
X99014285Y-111154704D01*
X99014285Y-111154704D02*
X99014285Y-111059466D01*
X99014285Y-111059466D02*
X99061904Y-110916609D01*
X99061904Y-110916609D02*
X99633332Y-110345180D01*
X99633332Y-110345180D02*
X99014285Y-110345180D01*
X100861904Y-70545180D02*
X100861904Y-71545180D01*
X100861904Y-71068990D02*
X100290476Y-71068990D01*
X100290476Y-70545180D02*
X100290476Y-71545180D01*
X99861904Y-71449942D02*
X99814285Y-71497561D01*
X99814285Y-71497561D02*
X99719047Y-71545180D01*
X99719047Y-71545180D02*
X99480952Y-71545180D01*
X99480952Y-71545180D02*
X99385714Y-71497561D01*
X99385714Y-71497561D02*
X99338095Y-71449942D01*
X99338095Y-71449942D02*
X99290476Y-71354704D01*
X99290476Y-71354704D02*
X99290476Y-71259466D01*
X99290476Y-71259466D02*
X99338095Y-71116609D01*
X99338095Y-71116609D02*
X99909523Y-70545180D01*
X99909523Y-70545180D02*
X99290476Y-70545180D01*
X122533333Y-70545180D02*
X122533333Y-69830895D01*
X122533333Y-69830895D02*
X122580952Y-69688038D01*
X122580952Y-69688038D02*
X122676190Y-69592800D01*
X122676190Y-69592800D02*
X122819047Y-69545180D01*
X122819047Y-69545180D02*
X122914285Y-69545180D01*
X121533333Y-69545180D02*
X122104761Y-69545180D01*
X121819047Y-69545180D02*
X121819047Y-70545180D01*
X121819047Y-70545180D02*
X121914285Y-70402323D01*
X121914285Y-70402323D02*
X122009523Y-70307085D01*
X122009523Y-70307085D02*
X122104761Y-70259466D01*
X90745180Y-102333333D02*
X91221371Y-102000000D01*
X90745180Y-101761905D02*
X91745180Y-101761905D01*
X91745180Y-101761905D02*
X91745180Y-102142857D01*
X91745180Y-102142857D02*
X91697561Y-102238095D01*
X91697561Y-102238095D02*
X91649942Y-102285714D01*
X91649942Y-102285714D02*
X91554704Y-102333333D01*
X91554704Y-102333333D02*
X91411847Y-102333333D01*
X91411847Y-102333333D02*
X91316609Y-102285714D01*
X91316609Y-102285714D02*
X91268990Y-102238095D01*
X91268990Y-102238095D02*
X91221371Y-102142857D01*
X91221371Y-102142857D02*
X91221371Y-101761905D01*
X91745180Y-103190476D02*
X91745180Y-103000000D01*
X91745180Y-103000000D02*
X91697561Y-102904762D01*
X91697561Y-102904762D02*
X91649942Y-102857143D01*
X91649942Y-102857143D02*
X91507085Y-102761905D01*
X91507085Y-102761905D02*
X91316609Y-102714286D01*
X91316609Y-102714286D02*
X90935657Y-102714286D01*
X90935657Y-102714286D02*
X90840419Y-102761905D01*
X90840419Y-102761905D02*
X90792800Y-102809524D01*
X90792800Y-102809524D02*
X90745180Y-102904762D01*
X90745180Y-102904762D02*
X90745180Y-103095238D01*
X90745180Y-103095238D02*
X90792800Y-103190476D01*
X90792800Y-103190476D02*
X90840419Y-103238095D01*
X90840419Y-103238095D02*
X90935657Y-103285714D01*
X90935657Y-103285714D02*
X91173752Y-103285714D01*
X91173752Y-103285714D02*
X91268990Y-103238095D01*
X91268990Y-103238095D02*
X91316609Y-103190476D01*
X91316609Y-103190476D02*
X91364228Y-103095238D01*
X91364228Y-103095238D02*
X91364228Y-102904762D01*
X91364228Y-102904762D02*
X91316609Y-102809524D01*
X91316609Y-102809524D02*
X91268990Y-102761905D01*
X91268990Y-102761905D02*
X91173752Y-102714286D01*
X122390419Y-92607142D02*
X122342800Y-92559523D01*
X122342800Y-92559523D02*
X122295180Y-92416666D01*
X122295180Y-92416666D02*
X122295180Y-92321428D01*
X122295180Y-92321428D02*
X122342800Y-92178571D01*
X122342800Y-92178571D02*
X122438038Y-92083333D01*
X122438038Y-92083333D02*
X122533276Y-92035714D01*
X122533276Y-92035714D02*
X122723752Y-91988095D01*
X122723752Y-91988095D02*
X122866609Y-91988095D01*
X122866609Y-91988095D02*
X123057085Y-92035714D01*
X123057085Y-92035714D02*
X123152323Y-92083333D01*
X123152323Y-92083333D02*
X123247561Y-92178571D01*
X123247561Y-92178571D02*
X123295180Y-92321428D01*
X123295180Y-92321428D02*
X123295180Y-92416666D01*
X123295180Y-92416666D02*
X123247561Y-92559523D01*
X123247561Y-92559523D02*
X123199942Y-92607142D01*
X122295180Y-93559523D02*
X122295180Y-92988095D01*
X122295180Y-93273809D02*
X123295180Y-93273809D01*
X123295180Y-93273809D02*
X123152323Y-93178571D01*
X123152323Y-93178571D02*
X123057085Y-93083333D01*
X123057085Y-93083333D02*
X123009466Y-92988095D01*
X123295180Y-94178571D02*
X123295180Y-94273809D01*
X123295180Y-94273809D02*
X123247561Y-94369047D01*
X123247561Y-94369047D02*
X123199942Y-94416666D01*
X123199942Y-94416666D02*
X123104704Y-94464285D01*
X123104704Y-94464285D02*
X122914228Y-94511904D01*
X122914228Y-94511904D02*
X122676133Y-94511904D01*
X122676133Y-94511904D02*
X122485657Y-94464285D01*
X122485657Y-94464285D02*
X122390419Y-94416666D01*
X122390419Y-94416666D02*
X122342800Y-94369047D01*
X122342800Y-94369047D02*
X122295180Y-94273809D01*
X122295180Y-94273809D02*
X122295180Y-94178571D01*
X122295180Y-94178571D02*
X122342800Y-94083333D01*
X122342800Y-94083333D02*
X122390419Y-94035714D01*
X122390419Y-94035714D02*
X122485657Y-93988095D01*
X122485657Y-93988095D02*
X122676133Y-93940476D01*
X122676133Y-93940476D02*
X122914228Y-93940476D01*
X122914228Y-93940476D02*
X123104704Y-93988095D01*
X123104704Y-93988095D02*
X123199942Y-94035714D01*
X123199942Y-94035714D02*
X123247561Y-94083333D01*
X123247561Y-94083333D02*
X123295180Y-94178571D01*
X70824819Y-103738333D02*
X71539104Y-103738333D01*
X71539104Y-103738333D02*
X71681961Y-103785952D01*
X71681961Y-103785952D02*
X71777200Y-103881190D01*
X71777200Y-103881190D02*
X71824819Y-104024047D01*
X71824819Y-104024047D02*
X71824819Y-104119285D01*
X70824819Y-102833571D02*
X70824819Y-103024047D01*
X70824819Y-103024047D02*
X70872438Y-103119285D01*
X70872438Y-103119285D02*
X70920057Y-103166904D01*
X70920057Y-103166904D02*
X71062914Y-103262142D01*
X71062914Y-103262142D02*
X71253390Y-103309761D01*
X71253390Y-103309761D02*
X71634342Y-103309761D01*
X71634342Y-103309761D02*
X71729580Y-103262142D01*
X71729580Y-103262142D02*
X71777200Y-103214523D01*
X71777200Y-103214523D02*
X71824819Y-103119285D01*
X71824819Y-103119285D02*
X71824819Y-102928809D01*
X71824819Y-102928809D02*
X71777200Y-102833571D01*
X71777200Y-102833571D02*
X71729580Y-102785952D01*
X71729580Y-102785952D02*
X71634342Y-102738333D01*
X71634342Y-102738333D02*
X71396247Y-102738333D01*
X71396247Y-102738333D02*
X71301009Y-102785952D01*
X71301009Y-102785952D02*
X71253390Y-102833571D01*
X71253390Y-102833571D02*
X71205771Y-102928809D01*
X71205771Y-102928809D02*
X71205771Y-103119285D01*
X71205771Y-103119285D02*
X71253390Y-103214523D01*
X71253390Y-103214523D02*
X71301009Y-103262142D01*
X71301009Y-103262142D02*
X71396247Y-103309761D01*
X88166666Y-70045180D02*
X88499999Y-70521371D01*
X88738094Y-70045180D02*
X88738094Y-71045180D01*
X88738094Y-71045180D02*
X88357142Y-71045180D01*
X88357142Y-71045180D02*
X88261904Y-70997561D01*
X88261904Y-70997561D02*
X88214285Y-70949942D01*
X88214285Y-70949942D02*
X88166666Y-70854704D01*
X88166666Y-70854704D02*
X88166666Y-70711847D01*
X88166666Y-70711847D02*
X88214285Y-70616609D01*
X88214285Y-70616609D02*
X88261904Y-70568990D01*
X88261904Y-70568990D02*
X88357142Y-70521371D01*
X88357142Y-70521371D02*
X88738094Y-70521371D01*
X87785713Y-70949942D02*
X87738094Y-70997561D01*
X87738094Y-70997561D02*
X87642856Y-71045180D01*
X87642856Y-71045180D02*
X87404761Y-71045180D01*
X87404761Y-71045180D02*
X87309523Y-70997561D01*
X87309523Y-70997561D02*
X87261904Y-70949942D01*
X87261904Y-70949942D02*
X87214285Y-70854704D01*
X87214285Y-70854704D02*
X87214285Y-70759466D01*
X87214285Y-70759466D02*
X87261904Y-70616609D01*
X87261904Y-70616609D02*
X87833332Y-70045180D01*
X87833332Y-70045180D02*
X87214285Y-70045180D01*
X111671666Y-92084819D02*
X111671666Y-92799104D01*
X111671666Y-92799104D02*
X111624047Y-92941961D01*
X111624047Y-92941961D02*
X111528809Y-93037200D01*
X111528809Y-93037200D02*
X111385952Y-93084819D01*
X111385952Y-93084819D02*
X111290714Y-93084819D01*
X112576428Y-92418152D02*
X112576428Y-93084819D01*
X112338333Y-92037200D02*
X112100238Y-92751485D01*
X112100238Y-92751485D02*
X112719285Y-92751485D01*
X138790476Y-73254819D02*
X138790476Y-72254819D01*
X138790476Y-72254819D02*
X139123809Y-72969104D01*
X139123809Y-72969104D02*
X139457142Y-72254819D01*
X139457142Y-72254819D02*
X139457142Y-73254819D01*
X140457142Y-73254819D02*
X139885714Y-73254819D01*
X140171428Y-73254819D02*
X140171428Y-72254819D01*
X140171428Y-72254819D02*
X140076190Y-72397676D01*
X140076190Y-72397676D02*
X139980952Y-72492914D01*
X139980952Y-72492914D02*
X139885714Y-72540533D01*
X106040419Y-66057142D02*
X105992800Y-66009523D01*
X105992800Y-66009523D02*
X105945180Y-65866666D01*
X105945180Y-65866666D02*
X105945180Y-65771428D01*
X105945180Y-65771428D02*
X105992800Y-65628571D01*
X105992800Y-65628571D02*
X106088038Y-65533333D01*
X106088038Y-65533333D02*
X106183276Y-65485714D01*
X106183276Y-65485714D02*
X106373752Y-65438095D01*
X106373752Y-65438095D02*
X106516609Y-65438095D01*
X106516609Y-65438095D02*
X106707085Y-65485714D01*
X106707085Y-65485714D02*
X106802323Y-65533333D01*
X106802323Y-65533333D02*
X106897561Y-65628571D01*
X106897561Y-65628571D02*
X106945180Y-65771428D01*
X106945180Y-65771428D02*
X106945180Y-65866666D01*
X106945180Y-65866666D02*
X106897561Y-66009523D01*
X106897561Y-66009523D02*
X106849942Y-66057142D01*
X105945180Y-67009523D02*
X105945180Y-66438095D01*
X105945180Y-66723809D02*
X106945180Y-66723809D01*
X106945180Y-66723809D02*
X106802323Y-66628571D01*
X106802323Y-66628571D02*
X106707085Y-66533333D01*
X106707085Y-66533333D02*
X106659466Y-66438095D01*
X105945180Y-67961904D02*
X105945180Y-67390476D01*
X105945180Y-67676190D02*
X106945180Y-67676190D01*
X106945180Y-67676190D02*
X106802323Y-67580952D01*
X106802323Y-67580952D02*
X106707085Y-67485714D01*
X106707085Y-67485714D02*
X106659466Y-67390476D01*
X59640419Y-125557142D02*
X59592800Y-125509523D01*
X59592800Y-125509523D02*
X59545180Y-125366666D01*
X59545180Y-125366666D02*
X59545180Y-125271428D01*
X59545180Y-125271428D02*
X59592800Y-125128571D01*
X59592800Y-125128571D02*
X59688038Y-125033333D01*
X59688038Y-125033333D02*
X59783276Y-124985714D01*
X59783276Y-124985714D02*
X59973752Y-124938095D01*
X59973752Y-124938095D02*
X60116609Y-124938095D01*
X60116609Y-124938095D02*
X60307085Y-124985714D01*
X60307085Y-124985714D02*
X60402323Y-125033333D01*
X60402323Y-125033333D02*
X60497561Y-125128571D01*
X60497561Y-125128571D02*
X60545180Y-125271428D01*
X60545180Y-125271428D02*
X60545180Y-125366666D01*
X60545180Y-125366666D02*
X60497561Y-125509523D01*
X60497561Y-125509523D02*
X60449942Y-125557142D01*
X59545180Y-126509523D02*
X59545180Y-125938095D01*
X59545180Y-126223809D02*
X60545180Y-126223809D01*
X60545180Y-126223809D02*
X60402323Y-126128571D01*
X60402323Y-126128571D02*
X60307085Y-126033333D01*
X60307085Y-126033333D02*
X60259466Y-125938095D01*
X60211847Y-127366666D02*
X59545180Y-127366666D01*
X60592800Y-127128571D02*
X59878514Y-126890476D01*
X59878514Y-126890476D02*
X59878514Y-127509523D01*
X77740419Y-108057142D02*
X77692800Y-108009523D01*
X77692800Y-108009523D02*
X77645180Y-107866666D01*
X77645180Y-107866666D02*
X77645180Y-107771428D01*
X77645180Y-107771428D02*
X77692800Y-107628571D01*
X77692800Y-107628571D02*
X77788038Y-107533333D01*
X77788038Y-107533333D02*
X77883276Y-107485714D01*
X77883276Y-107485714D02*
X78073752Y-107438095D01*
X78073752Y-107438095D02*
X78216609Y-107438095D01*
X78216609Y-107438095D02*
X78407085Y-107485714D01*
X78407085Y-107485714D02*
X78502323Y-107533333D01*
X78502323Y-107533333D02*
X78597561Y-107628571D01*
X78597561Y-107628571D02*
X78645180Y-107771428D01*
X78645180Y-107771428D02*
X78645180Y-107866666D01*
X78645180Y-107866666D02*
X78597561Y-108009523D01*
X78597561Y-108009523D02*
X78549942Y-108057142D01*
X77645180Y-109009523D02*
X77645180Y-108438095D01*
X77645180Y-108723809D02*
X78645180Y-108723809D01*
X78645180Y-108723809D02*
X78502323Y-108628571D01*
X78502323Y-108628571D02*
X78407085Y-108533333D01*
X78407085Y-108533333D02*
X78359466Y-108438095D01*
X78216609Y-109580952D02*
X78264228Y-109485714D01*
X78264228Y-109485714D02*
X78311847Y-109438095D01*
X78311847Y-109438095D02*
X78407085Y-109390476D01*
X78407085Y-109390476D02*
X78454704Y-109390476D01*
X78454704Y-109390476D02*
X78549942Y-109438095D01*
X78549942Y-109438095D02*
X78597561Y-109485714D01*
X78597561Y-109485714D02*
X78645180Y-109580952D01*
X78645180Y-109580952D02*
X78645180Y-109771428D01*
X78645180Y-109771428D02*
X78597561Y-109866666D01*
X78597561Y-109866666D02*
X78549942Y-109914285D01*
X78549942Y-109914285D02*
X78454704Y-109961904D01*
X78454704Y-109961904D02*
X78407085Y-109961904D01*
X78407085Y-109961904D02*
X78311847Y-109914285D01*
X78311847Y-109914285D02*
X78264228Y-109866666D01*
X78264228Y-109866666D02*
X78216609Y-109771428D01*
X78216609Y-109771428D02*
X78216609Y-109580952D01*
X78216609Y-109580952D02*
X78168990Y-109485714D01*
X78168990Y-109485714D02*
X78121371Y-109438095D01*
X78121371Y-109438095D02*
X78026133Y-109390476D01*
X78026133Y-109390476D02*
X77835657Y-109390476D01*
X77835657Y-109390476D02*
X77740419Y-109438095D01*
X77740419Y-109438095D02*
X77692800Y-109485714D01*
X77692800Y-109485714D02*
X77645180Y-109580952D01*
X77645180Y-109580952D02*
X77645180Y-109771428D01*
X77645180Y-109771428D02*
X77692800Y-109866666D01*
X77692800Y-109866666D02*
X77740419Y-109914285D01*
X77740419Y-109914285D02*
X77835657Y-109961904D01*
X77835657Y-109961904D02*
X78026133Y-109961904D01*
X78026133Y-109961904D02*
X78121371Y-109914285D01*
X78121371Y-109914285D02*
X78168990Y-109866666D01*
X78168990Y-109866666D02*
X78216609Y-109771428D01*
X139961904Y-95545180D02*
X139390476Y-95545180D01*
X139676190Y-94545180D02*
X139676190Y-95545180D01*
X139057142Y-94545180D02*
X139057142Y-95545180D01*
X139057142Y-95545180D02*
X138676190Y-95545180D01*
X138676190Y-95545180D02*
X138580952Y-95497561D01*
X138580952Y-95497561D02*
X138533333Y-95449942D01*
X138533333Y-95449942D02*
X138485714Y-95354704D01*
X138485714Y-95354704D02*
X138485714Y-95211847D01*
X138485714Y-95211847D02*
X138533333Y-95116609D01*
X138533333Y-95116609D02*
X138580952Y-95068990D01*
X138580952Y-95068990D02*
X138676190Y-95021371D01*
X138676190Y-95021371D02*
X139057142Y-95021371D01*
X138104761Y-95449942D02*
X138057142Y-95497561D01*
X138057142Y-95497561D02*
X137961904Y-95545180D01*
X137961904Y-95545180D02*
X137723809Y-95545180D01*
X137723809Y-95545180D02*
X137628571Y-95497561D01*
X137628571Y-95497561D02*
X137580952Y-95449942D01*
X137580952Y-95449942D02*
X137533333Y-95354704D01*
X137533333Y-95354704D02*
X137533333Y-95259466D01*
X137533333Y-95259466D02*
X137580952Y-95116609D01*
X137580952Y-95116609D02*
X138152380Y-94545180D01*
X138152380Y-94545180D02*
X137533333Y-94545180D01*
X67940419Y-94058333D02*
X67892800Y-94010714D01*
X67892800Y-94010714D02*
X67845180Y-93867857D01*
X67845180Y-93867857D02*
X67845180Y-93772619D01*
X67845180Y-93772619D02*
X67892800Y-93629762D01*
X67892800Y-93629762D02*
X67988038Y-93534524D01*
X67988038Y-93534524D02*
X68083276Y-93486905D01*
X68083276Y-93486905D02*
X68273752Y-93439286D01*
X68273752Y-93439286D02*
X68416609Y-93439286D01*
X68416609Y-93439286D02*
X68607085Y-93486905D01*
X68607085Y-93486905D02*
X68702323Y-93534524D01*
X68702323Y-93534524D02*
X68797561Y-93629762D01*
X68797561Y-93629762D02*
X68845180Y-93772619D01*
X68845180Y-93772619D02*
X68845180Y-93867857D01*
X68845180Y-93867857D02*
X68797561Y-94010714D01*
X68797561Y-94010714D02*
X68749942Y-94058333D01*
X68845180Y-94391667D02*
X68845180Y-95010714D01*
X68845180Y-95010714D02*
X68464228Y-94677381D01*
X68464228Y-94677381D02*
X68464228Y-94820238D01*
X68464228Y-94820238D02*
X68416609Y-94915476D01*
X68416609Y-94915476D02*
X68368990Y-94963095D01*
X68368990Y-94963095D02*
X68273752Y-95010714D01*
X68273752Y-95010714D02*
X68035657Y-95010714D01*
X68035657Y-95010714D02*
X67940419Y-94963095D01*
X67940419Y-94963095D02*
X67892800Y-94915476D01*
X67892800Y-94915476D02*
X67845180Y-94820238D01*
X67845180Y-94820238D02*
X67845180Y-94534524D01*
X67845180Y-94534524D02*
X67892800Y-94439286D01*
X67892800Y-94439286D02*
X67940419Y-94391667D01*
X120266666Y-76240419D02*
X120314285Y-76192800D01*
X120314285Y-76192800D02*
X120457142Y-76145180D01*
X120457142Y-76145180D02*
X120552380Y-76145180D01*
X120552380Y-76145180D02*
X120695237Y-76192800D01*
X120695237Y-76192800D02*
X120790475Y-76288038D01*
X120790475Y-76288038D02*
X120838094Y-76383276D01*
X120838094Y-76383276D02*
X120885713Y-76573752D01*
X120885713Y-76573752D02*
X120885713Y-76716609D01*
X120885713Y-76716609D02*
X120838094Y-76907085D01*
X120838094Y-76907085D02*
X120790475Y-77002323D01*
X120790475Y-77002323D02*
X120695237Y-77097561D01*
X120695237Y-77097561D02*
X120552380Y-77145180D01*
X120552380Y-77145180D02*
X120457142Y-77145180D01*
X120457142Y-77145180D02*
X120314285Y-77097561D01*
X120314285Y-77097561D02*
X120266666Y-77049942D01*
X119885713Y-77049942D02*
X119838094Y-77097561D01*
X119838094Y-77097561D02*
X119742856Y-77145180D01*
X119742856Y-77145180D02*
X119504761Y-77145180D01*
X119504761Y-77145180D02*
X119409523Y-77097561D01*
X119409523Y-77097561D02*
X119361904Y-77049942D01*
X119361904Y-77049942D02*
X119314285Y-76954704D01*
X119314285Y-76954704D02*
X119314285Y-76859466D01*
X119314285Y-76859466D02*
X119361904Y-76716609D01*
X119361904Y-76716609D02*
X119933332Y-76145180D01*
X119933332Y-76145180D02*
X119314285Y-76145180D01*
X96645180Y-65606269D02*
X97121371Y-65272936D01*
X96645180Y-65034841D02*
X97645180Y-65034841D01*
X97645180Y-65034841D02*
X97645180Y-65415793D01*
X97645180Y-65415793D02*
X97597561Y-65511031D01*
X97597561Y-65511031D02*
X97549942Y-65558650D01*
X97549942Y-65558650D02*
X97454704Y-65606269D01*
X97454704Y-65606269D02*
X97311847Y-65606269D01*
X97311847Y-65606269D02*
X97216609Y-65558650D01*
X97216609Y-65558650D02*
X97168990Y-65511031D01*
X97168990Y-65511031D02*
X97121371Y-65415793D01*
X97121371Y-65415793D02*
X97121371Y-65034841D01*
X97311847Y-66463412D02*
X96645180Y-66463412D01*
X97692800Y-66225317D02*
X96978514Y-65987222D01*
X96978514Y-65987222D02*
X96978514Y-66606269D01*
X76642857Y-77740419D02*
X76690476Y-77692800D01*
X76690476Y-77692800D02*
X76833333Y-77645180D01*
X76833333Y-77645180D02*
X76928571Y-77645180D01*
X76928571Y-77645180D02*
X77071428Y-77692800D01*
X77071428Y-77692800D02*
X77166666Y-77788038D01*
X77166666Y-77788038D02*
X77214285Y-77883276D01*
X77214285Y-77883276D02*
X77261904Y-78073752D01*
X77261904Y-78073752D02*
X77261904Y-78216609D01*
X77261904Y-78216609D02*
X77214285Y-78407085D01*
X77214285Y-78407085D02*
X77166666Y-78502323D01*
X77166666Y-78502323D02*
X77071428Y-78597561D01*
X77071428Y-78597561D02*
X76928571Y-78645180D01*
X76928571Y-78645180D02*
X76833333Y-78645180D01*
X76833333Y-78645180D02*
X76690476Y-78597561D01*
X76690476Y-78597561D02*
X76642857Y-78549942D01*
X76261904Y-78549942D02*
X76214285Y-78597561D01*
X76214285Y-78597561D02*
X76119047Y-78645180D01*
X76119047Y-78645180D02*
X75880952Y-78645180D01*
X75880952Y-78645180D02*
X75785714Y-78597561D01*
X75785714Y-78597561D02*
X75738095Y-78549942D01*
X75738095Y-78549942D02*
X75690476Y-78454704D01*
X75690476Y-78454704D02*
X75690476Y-78359466D01*
X75690476Y-78359466D02*
X75738095Y-78216609D01*
X75738095Y-78216609D02*
X76309523Y-77645180D01*
X76309523Y-77645180D02*
X75690476Y-77645180D01*
X74738095Y-77645180D02*
X75309523Y-77645180D01*
X75023809Y-77645180D02*
X75023809Y-78645180D01*
X75023809Y-78645180D02*
X75119047Y-78502323D01*
X75119047Y-78502323D02*
X75214285Y-78407085D01*
X75214285Y-78407085D02*
X75309523Y-78359466D01*
X88740419Y-108257142D02*
X88692800Y-108209523D01*
X88692800Y-108209523D02*
X88645180Y-108066666D01*
X88645180Y-108066666D02*
X88645180Y-107971428D01*
X88645180Y-107971428D02*
X88692800Y-107828571D01*
X88692800Y-107828571D02*
X88788038Y-107733333D01*
X88788038Y-107733333D02*
X88883276Y-107685714D01*
X88883276Y-107685714D02*
X89073752Y-107638095D01*
X89073752Y-107638095D02*
X89216609Y-107638095D01*
X89216609Y-107638095D02*
X89407085Y-107685714D01*
X89407085Y-107685714D02*
X89502323Y-107733333D01*
X89502323Y-107733333D02*
X89597561Y-107828571D01*
X89597561Y-107828571D02*
X89645180Y-107971428D01*
X89645180Y-107971428D02*
X89645180Y-108066666D01*
X89645180Y-108066666D02*
X89597561Y-108209523D01*
X89597561Y-108209523D02*
X89549942Y-108257142D01*
X88645180Y-109209523D02*
X88645180Y-108638095D01*
X88645180Y-108923809D02*
X89645180Y-108923809D01*
X89645180Y-108923809D02*
X89502323Y-108828571D01*
X89502323Y-108828571D02*
X89407085Y-108733333D01*
X89407085Y-108733333D02*
X89359466Y-108638095D01*
X89645180Y-110066666D02*
X89645180Y-109876190D01*
X89645180Y-109876190D02*
X89597561Y-109780952D01*
X89597561Y-109780952D02*
X89549942Y-109733333D01*
X89549942Y-109733333D02*
X89407085Y-109638095D01*
X89407085Y-109638095D02*
X89216609Y-109590476D01*
X89216609Y-109590476D02*
X88835657Y-109590476D01*
X88835657Y-109590476D02*
X88740419Y-109638095D01*
X88740419Y-109638095D02*
X88692800Y-109685714D01*
X88692800Y-109685714D02*
X88645180Y-109780952D01*
X88645180Y-109780952D02*
X88645180Y-109971428D01*
X88645180Y-109971428D02*
X88692800Y-110066666D01*
X88692800Y-110066666D02*
X88740419Y-110114285D01*
X88740419Y-110114285D02*
X88835657Y-110161904D01*
X88835657Y-110161904D02*
X89073752Y-110161904D01*
X89073752Y-110161904D02*
X89168990Y-110114285D01*
X89168990Y-110114285D02*
X89216609Y-110066666D01*
X89216609Y-110066666D02*
X89264228Y-109971428D01*
X89264228Y-109971428D02*
X89264228Y-109780952D01*
X89264228Y-109780952D02*
X89216609Y-109685714D01*
X89216609Y-109685714D02*
X89168990Y-109638095D01*
X89168990Y-109638095D02*
X89073752Y-109590476D01*
X93940419Y-108733333D02*
X93892800Y-108685714D01*
X93892800Y-108685714D02*
X93845180Y-108542857D01*
X93845180Y-108542857D02*
X93845180Y-108447619D01*
X93845180Y-108447619D02*
X93892800Y-108304762D01*
X93892800Y-108304762D02*
X93988038Y-108209524D01*
X93988038Y-108209524D02*
X94083276Y-108161905D01*
X94083276Y-108161905D02*
X94273752Y-108114286D01*
X94273752Y-108114286D02*
X94416609Y-108114286D01*
X94416609Y-108114286D02*
X94607085Y-108161905D01*
X94607085Y-108161905D02*
X94702323Y-108209524D01*
X94702323Y-108209524D02*
X94797561Y-108304762D01*
X94797561Y-108304762D02*
X94845180Y-108447619D01*
X94845180Y-108447619D02*
X94845180Y-108542857D01*
X94845180Y-108542857D02*
X94797561Y-108685714D01*
X94797561Y-108685714D02*
X94749942Y-108733333D01*
X93845180Y-109685714D02*
X93845180Y-109114286D01*
X93845180Y-109400000D02*
X94845180Y-109400000D01*
X94845180Y-109400000D02*
X94702323Y-109304762D01*
X94702323Y-109304762D02*
X94607085Y-109209524D01*
X94607085Y-109209524D02*
X94559466Y-109114286D01*
X74738094Y-141745180D02*
X74738094Y-142745180D01*
X74738094Y-142745180D02*
X74499999Y-142745180D01*
X74499999Y-142745180D02*
X74357142Y-142697561D01*
X74357142Y-142697561D02*
X74261904Y-142602323D01*
X74261904Y-142602323D02*
X74214285Y-142507085D01*
X74214285Y-142507085D02*
X74166666Y-142316609D01*
X74166666Y-142316609D02*
X74166666Y-142173752D01*
X74166666Y-142173752D02*
X74214285Y-141983276D01*
X74214285Y-141983276D02*
X74261904Y-141888038D01*
X74261904Y-141888038D02*
X74357142Y-141792800D01*
X74357142Y-141792800D02*
X74499999Y-141745180D01*
X74499999Y-141745180D02*
X74738094Y-141745180D01*
X73595237Y-142316609D02*
X73690475Y-142364228D01*
X73690475Y-142364228D02*
X73738094Y-142411847D01*
X73738094Y-142411847D02*
X73785713Y-142507085D01*
X73785713Y-142507085D02*
X73785713Y-142554704D01*
X73785713Y-142554704D02*
X73738094Y-142649942D01*
X73738094Y-142649942D02*
X73690475Y-142697561D01*
X73690475Y-142697561D02*
X73595237Y-142745180D01*
X73595237Y-142745180D02*
X73404761Y-142745180D01*
X73404761Y-142745180D02*
X73309523Y-142697561D01*
X73309523Y-142697561D02*
X73261904Y-142649942D01*
X73261904Y-142649942D02*
X73214285Y-142554704D01*
X73214285Y-142554704D02*
X73214285Y-142507085D01*
X73214285Y-142507085D02*
X73261904Y-142411847D01*
X73261904Y-142411847D02*
X73309523Y-142364228D01*
X73309523Y-142364228D02*
X73404761Y-142316609D01*
X73404761Y-142316609D02*
X73595237Y-142316609D01*
X73595237Y-142316609D02*
X73690475Y-142268990D01*
X73690475Y-142268990D02*
X73738094Y-142221371D01*
X73738094Y-142221371D02*
X73785713Y-142126133D01*
X73785713Y-142126133D02*
X73785713Y-141935657D01*
X73785713Y-141935657D02*
X73738094Y-141840419D01*
X73738094Y-141840419D02*
X73690475Y-141792800D01*
X73690475Y-141792800D02*
X73595237Y-141745180D01*
X73595237Y-141745180D02*
X73404761Y-141745180D01*
X73404761Y-141745180D02*
X73309523Y-141792800D01*
X73309523Y-141792800D02*
X73261904Y-141840419D01*
X73261904Y-141840419D02*
X73214285Y-141935657D01*
X73214285Y-141935657D02*
X73214285Y-142126133D01*
X73214285Y-142126133D02*
X73261904Y-142221371D01*
X73261904Y-142221371D02*
X73309523Y-142268990D01*
X73309523Y-142268990D02*
X73404761Y-142316609D01*
X83040419Y-108157142D02*
X82992800Y-108109523D01*
X82992800Y-108109523D02*
X82945180Y-107966666D01*
X82945180Y-107966666D02*
X82945180Y-107871428D01*
X82945180Y-107871428D02*
X82992800Y-107728571D01*
X82992800Y-107728571D02*
X83088038Y-107633333D01*
X83088038Y-107633333D02*
X83183276Y-107585714D01*
X83183276Y-107585714D02*
X83373752Y-107538095D01*
X83373752Y-107538095D02*
X83516609Y-107538095D01*
X83516609Y-107538095D02*
X83707085Y-107585714D01*
X83707085Y-107585714D02*
X83802323Y-107633333D01*
X83802323Y-107633333D02*
X83897561Y-107728571D01*
X83897561Y-107728571D02*
X83945180Y-107871428D01*
X83945180Y-107871428D02*
X83945180Y-107966666D01*
X83945180Y-107966666D02*
X83897561Y-108109523D01*
X83897561Y-108109523D02*
X83849942Y-108157142D01*
X82945180Y-109109523D02*
X82945180Y-108538095D01*
X82945180Y-108823809D02*
X83945180Y-108823809D01*
X83945180Y-108823809D02*
X83802323Y-108728571D01*
X83802323Y-108728571D02*
X83707085Y-108633333D01*
X83707085Y-108633333D02*
X83659466Y-108538095D01*
X83945180Y-109442857D02*
X83945180Y-110109523D01*
X83945180Y-110109523D02*
X82945180Y-109680952D01*
X141233333Y-83645180D02*
X141233333Y-82930895D01*
X141233333Y-82930895D02*
X141280952Y-82788038D01*
X141280952Y-82788038D02*
X141376190Y-82692800D01*
X141376190Y-82692800D02*
X141519047Y-82645180D01*
X141519047Y-82645180D02*
X141614285Y-82645180D01*
X140804761Y-83549942D02*
X140757142Y-83597561D01*
X140757142Y-83597561D02*
X140661904Y-83645180D01*
X140661904Y-83645180D02*
X140423809Y-83645180D01*
X140423809Y-83645180D02*
X140328571Y-83597561D01*
X140328571Y-83597561D02*
X140280952Y-83549942D01*
X140280952Y-83549942D02*
X140233333Y-83454704D01*
X140233333Y-83454704D02*
X140233333Y-83359466D01*
X140233333Y-83359466D02*
X140280952Y-83216609D01*
X140280952Y-83216609D02*
X140852380Y-82645180D01*
X140852380Y-82645180D02*
X140233333Y-82645180D01*
X84440419Y-93833333D02*
X84392800Y-93785714D01*
X84392800Y-93785714D02*
X84345180Y-93642857D01*
X84345180Y-93642857D02*
X84345180Y-93547619D01*
X84345180Y-93547619D02*
X84392800Y-93404762D01*
X84392800Y-93404762D02*
X84488038Y-93309524D01*
X84488038Y-93309524D02*
X84583276Y-93261905D01*
X84583276Y-93261905D02*
X84773752Y-93214286D01*
X84773752Y-93214286D02*
X84916609Y-93214286D01*
X84916609Y-93214286D02*
X85107085Y-93261905D01*
X85107085Y-93261905D02*
X85202323Y-93309524D01*
X85202323Y-93309524D02*
X85297561Y-93404762D01*
X85297561Y-93404762D02*
X85345180Y-93547619D01*
X85345180Y-93547619D02*
X85345180Y-93642857D01*
X85345180Y-93642857D02*
X85297561Y-93785714D01*
X85297561Y-93785714D02*
X85249942Y-93833333D01*
X85345180Y-94690476D02*
X85345180Y-94500000D01*
X85345180Y-94500000D02*
X85297561Y-94404762D01*
X85297561Y-94404762D02*
X85249942Y-94357143D01*
X85249942Y-94357143D02*
X85107085Y-94261905D01*
X85107085Y-94261905D02*
X84916609Y-94214286D01*
X84916609Y-94214286D02*
X84535657Y-94214286D01*
X84535657Y-94214286D02*
X84440419Y-94261905D01*
X84440419Y-94261905D02*
X84392800Y-94309524D01*
X84392800Y-94309524D02*
X84345180Y-94404762D01*
X84345180Y-94404762D02*
X84345180Y-94595238D01*
X84345180Y-94595238D02*
X84392800Y-94690476D01*
X84392800Y-94690476D02*
X84440419Y-94738095D01*
X84440419Y-94738095D02*
X84535657Y-94785714D01*
X84535657Y-94785714D02*
X84773752Y-94785714D01*
X84773752Y-94785714D02*
X84868990Y-94738095D01*
X84868990Y-94738095D02*
X84916609Y-94690476D01*
X84916609Y-94690476D02*
X84964228Y-94595238D01*
X84964228Y-94595238D02*
X84964228Y-94404762D01*
X84964228Y-94404762D02*
X84916609Y-94309524D01*
X84916609Y-94309524D02*
X84868990Y-94261905D01*
X84868990Y-94261905D02*
X84773752Y-94214286D01*
X113942857Y-143740419D02*
X113990476Y-143692800D01*
X113990476Y-143692800D02*
X114133333Y-143645180D01*
X114133333Y-143645180D02*
X114228571Y-143645180D01*
X114228571Y-143645180D02*
X114371428Y-143692800D01*
X114371428Y-143692800D02*
X114466666Y-143788038D01*
X114466666Y-143788038D02*
X114514285Y-143883276D01*
X114514285Y-143883276D02*
X114561904Y-144073752D01*
X114561904Y-144073752D02*
X114561904Y-144216609D01*
X114561904Y-144216609D02*
X114514285Y-144407085D01*
X114514285Y-144407085D02*
X114466666Y-144502323D01*
X114466666Y-144502323D02*
X114371428Y-144597561D01*
X114371428Y-144597561D02*
X114228571Y-144645180D01*
X114228571Y-144645180D02*
X114133333Y-144645180D01*
X114133333Y-144645180D02*
X113990476Y-144597561D01*
X113990476Y-144597561D02*
X113942857Y-144549942D01*
X113561904Y-144549942D02*
X113514285Y-144597561D01*
X113514285Y-144597561D02*
X113419047Y-144645180D01*
X113419047Y-144645180D02*
X113180952Y-144645180D01*
X113180952Y-144645180D02*
X113085714Y-144597561D01*
X113085714Y-144597561D02*
X113038095Y-144549942D01*
X113038095Y-144549942D02*
X112990476Y-144454704D01*
X112990476Y-144454704D02*
X112990476Y-144359466D01*
X112990476Y-144359466D02*
X113038095Y-144216609D01*
X113038095Y-144216609D02*
X113609523Y-143645180D01*
X113609523Y-143645180D02*
X112990476Y-143645180D01*
X112133333Y-144311847D02*
X112133333Y-143645180D01*
X112371428Y-144692800D02*
X112609523Y-143978514D01*
X112609523Y-143978514D02*
X111990476Y-143978514D01*
X95538094Y-70045180D02*
X95538094Y-71045180D01*
X95538094Y-71045180D02*
X95299999Y-71045180D01*
X95299999Y-71045180D02*
X95157142Y-70997561D01*
X95157142Y-70997561D02*
X95061904Y-70902323D01*
X95061904Y-70902323D02*
X95014285Y-70807085D01*
X95014285Y-70807085D02*
X94966666Y-70616609D01*
X94966666Y-70616609D02*
X94966666Y-70473752D01*
X94966666Y-70473752D02*
X95014285Y-70283276D01*
X95014285Y-70283276D02*
X95061904Y-70188038D01*
X95061904Y-70188038D02*
X95157142Y-70092800D01*
X95157142Y-70092800D02*
X95299999Y-70045180D01*
X95299999Y-70045180D02*
X95538094Y-70045180D01*
X94014285Y-70045180D02*
X94585713Y-70045180D01*
X94299999Y-70045180D02*
X94299999Y-71045180D01*
X94299999Y-71045180D02*
X94395237Y-70902323D01*
X94395237Y-70902323D02*
X94490475Y-70807085D01*
X94490475Y-70807085D02*
X94585713Y-70759466D01*
X88545180Y-65733333D02*
X89021371Y-65400000D01*
X88545180Y-65161905D02*
X89545180Y-65161905D01*
X89545180Y-65161905D02*
X89545180Y-65542857D01*
X89545180Y-65542857D02*
X89497561Y-65638095D01*
X89497561Y-65638095D02*
X89449942Y-65685714D01*
X89449942Y-65685714D02*
X89354704Y-65733333D01*
X89354704Y-65733333D02*
X89211847Y-65733333D01*
X89211847Y-65733333D02*
X89116609Y-65685714D01*
X89116609Y-65685714D02*
X89068990Y-65638095D01*
X89068990Y-65638095D02*
X89021371Y-65542857D01*
X89021371Y-65542857D02*
X89021371Y-65161905D01*
X89545180Y-66066667D02*
X89545180Y-66685714D01*
X89545180Y-66685714D02*
X89164228Y-66352381D01*
X89164228Y-66352381D02*
X89164228Y-66495238D01*
X89164228Y-66495238D02*
X89116609Y-66590476D01*
X89116609Y-66590476D02*
X89068990Y-66638095D01*
X89068990Y-66638095D02*
X88973752Y-66685714D01*
X88973752Y-66685714D02*
X88735657Y-66685714D01*
X88735657Y-66685714D02*
X88640419Y-66638095D01*
X88640419Y-66638095D02*
X88592800Y-66590476D01*
X88592800Y-66590476D02*
X88545180Y-66495238D01*
X88545180Y-66495238D02*
X88545180Y-66209524D01*
X88545180Y-66209524D02*
X88592800Y-66114286D01*
X88592800Y-66114286D02*
X88640419Y-66066667D01*
X107166666Y-117045180D02*
X107642856Y-117045180D01*
X107642856Y-117045180D02*
X107642856Y-118045180D01*
X106309523Y-117045180D02*
X106880951Y-117045180D01*
X106595237Y-117045180D02*
X106595237Y-118045180D01*
X106595237Y-118045180D02*
X106690475Y-117902323D01*
X106690475Y-117902323D02*
X106785713Y-117807085D01*
X106785713Y-117807085D02*
X106880951Y-117759466D01*
X59640419Y-130557142D02*
X59592800Y-130509523D01*
X59592800Y-130509523D02*
X59545180Y-130366666D01*
X59545180Y-130366666D02*
X59545180Y-130271428D01*
X59545180Y-130271428D02*
X59592800Y-130128571D01*
X59592800Y-130128571D02*
X59688038Y-130033333D01*
X59688038Y-130033333D02*
X59783276Y-129985714D01*
X59783276Y-129985714D02*
X59973752Y-129938095D01*
X59973752Y-129938095D02*
X60116609Y-129938095D01*
X60116609Y-129938095D02*
X60307085Y-129985714D01*
X60307085Y-129985714D02*
X60402323Y-130033333D01*
X60402323Y-130033333D02*
X60497561Y-130128571D01*
X60497561Y-130128571D02*
X60545180Y-130271428D01*
X60545180Y-130271428D02*
X60545180Y-130366666D01*
X60545180Y-130366666D02*
X60497561Y-130509523D01*
X60497561Y-130509523D02*
X60449942Y-130557142D01*
X59545180Y-131509523D02*
X59545180Y-130938095D01*
X59545180Y-131223809D02*
X60545180Y-131223809D01*
X60545180Y-131223809D02*
X60402323Y-131128571D01*
X60402323Y-131128571D02*
X60307085Y-131033333D01*
X60307085Y-131033333D02*
X60259466Y-130938095D01*
X60545180Y-132414285D02*
X60545180Y-131938095D01*
X60545180Y-131938095D02*
X60068990Y-131890476D01*
X60068990Y-131890476D02*
X60116609Y-131938095D01*
X60116609Y-131938095D02*
X60164228Y-132033333D01*
X60164228Y-132033333D02*
X60164228Y-132271428D01*
X60164228Y-132271428D02*
X60116609Y-132366666D01*
X60116609Y-132366666D02*
X60068990Y-132414285D01*
X60068990Y-132414285D02*
X59973752Y-132461904D01*
X59973752Y-132461904D02*
X59735657Y-132461904D01*
X59735657Y-132461904D02*
X59640419Y-132414285D01*
X59640419Y-132414285D02*
X59592800Y-132366666D01*
X59592800Y-132366666D02*
X59545180Y-132271428D01*
X59545180Y-132271428D02*
X59545180Y-132033333D01*
X59545180Y-132033333D02*
X59592800Y-131938095D01*
X59592800Y-131938095D02*
X59640419Y-131890476D01*
X122390419Y-88333333D02*
X122342800Y-88285714D01*
X122342800Y-88285714D02*
X122295180Y-88142857D01*
X122295180Y-88142857D02*
X122295180Y-88047619D01*
X122295180Y-88047619D02*
X122342800Y-87904762D01*
X122342800Y-87904762D02*
X122438038Y-87809524D01*
X122438038Y-87809524D02*
X122533276Y-87761905D01*
X122533276Y-87761905D02*
X122723752Y-87714286D01*
X122723752Y-87714286D02*
X122866609Y-87714286D01*
X122866609Y-87714286D02*
X123057085Y-87761905D01*
X123057085Y-87761905D02*
X123152323Y-87809524D01*
X123152323Y-87809524D02*
X123247561Y-87904762D01*
X123247561Y-87904762D02*
X123295180Y-88047619D01*
X123295180Y-88047619D02*
X123295180Y-88142857D01*
X123295180Y-88142857D02*
X123247561Y-88285714D01*
X123247561Y-88285714D02*
X123199942Y-88333333D01*
X122295180Y-88809524D02*
X122295180Y-89000000D01*
X122295180Y-89000000D02*
X122342800Y-89095238D01*
X122342800Y-89095238D02*
X122390419Y-89142857D01*
X122390419Y-89142857D02*
X122533276Y-89238095D01*
X122533276Y-89238095D02*
X122723752Y-89285714D01*
X122723752Y-89285714D02*
X123104704Y-89285714D01*
X123104704Y-89285714D02*
X123199942Y-89238095D01*
X123199942Y-89238095D02*
X123247561Y-89190476D01*
X123247561Y-89190476D02*
X123295180Y-89095238D01*
X123295180Y-89095238D02*
X123295180Y-88904762D01*
X123295180Y-88904762D02*
X123247561Y-88809524D01*
X123247561Y-88809524D02*
X123199942Y-88761905D01*
X123199942Y-88761905D02*
X123104704Y-88714286D01*
X123104704Y-88714286D02*
X122866609Y-88714286D01*
X122866609Y-88714286D02*
X122771371Y-88761905D01*
X122771371Y-88761905D02*
X122723752Y-88809524D01*
X122723752Y-88809524D02*
X122676133Y-88904762D01*
X122676133Y-88904762D02*
X122676133Y-89095238D01*
X122676133Y-89095238D02*
X122723752Y-89190476D01*
X122723752Y-89190476D02*
X122771371Y-89238095D01*
X122771371Y-89238095D02*
X122866609Y-89285714D01*
X72140419Y-108157142D02*
X72092800Y-108109523D01*
X72092800Y-108109523D02*
X72045180Y-107966666D01*
X72045180Y-107966666D02*
X72045180Y-107871428D01*
X72045180Y-107871428D02*
X72092800Y-107728571D01*
X72092800Y-107728571D02*
X72188038Y-107633333D01*
X72188038Y-107633333D02*
X72283276Y-107585714D01*
X72283276Y-107585714D02*
X72473752Y-107538095D01*
X72473752Y-107538095D02*
X72616609Y-107538095D01*
X72616609Y-107538095D02*
X72807085Y-107585714D01*
X72807085Y-107585714D02*
X72902323Y-107633333D01*
X72902323Y-107633333D02*
X72997561Y-107728571D01*
X72997561Y-107728571D02*
X73045180Y-107871428D01*
X73045180Y-107871428D02*
X73045180Y-107966666D01*
X73045180Y-107966666D02*
X72997561Y-108109523D01*
X72997561Y-108109523D02*
X72949942Y-108157142D01*
X72045180Y-109109523D02*
X72045180Y-108538095D01*
X72045180Y-108823809D02*
X73045180Y-108823809D01*
X73045180Y-108823809D02*
X72902323Y-108728571D01*
X72902323Y-108728571D02*
X72807085Y-108633333D01*
X72807085Y-108633333D02*
X72759466Y-108538095D01*
X72045180Y-109585714D02*
X72045180Y-109776190D01*
X72045180Y-109776190D02*
X72092800Y-109871428D01*
X72092800Y-109871428D02*
X72140419Y-109919047D01*
X72140419Y-109919047D02*
X72283276Y-110014285D01*
X72283276Y-110014285D02*
X72473752Y-110061904D01*
X72473752Y-110061904D02*
X72854704Y-110061904D01*
X72854704Y-110061904D02*
X72949942Y-110014285D01*
X72949942Y-110014285D02*
X72997561Y-109966666D01*
X72997561Y-109966666D02*
X73045180Y-109871428D01*
X73045180Y-109871428D02*
X73045180Y-109680952D01*
X73045180Y-109680952D02*
X72997561Y-109585714D01*
X72997561Y-109585714D02*
X72949942Y-109538095D01*
X72949942Y-109538095D02*
X72854704Y-109490476D01*
X72854704Y-109490476D02*
X72616609Y-109490476D01*
X72616609Y-109490476D02*
X72521371Y-109538095D01*
X72521371Y-109538095D02*
X72473752Y-109585714D01*
X72473752Y-109585714D02*
X72426133Y-109680952D01*
X72426133Y-109680952D02*
X72426133Y-109871428D01*
X72426133Y-109871428D02*
X72473752Y-109966666D01*
X72473752Y-109966666D02*
X72521371Y-110014285D01*
X72521371Y-110014285D02*
X72616609Y-110061904D01*
X60238095Y-106104819D02*
X60238095Y-105104819D01*
X60238095Y-105581009D02*
X60809523Y-105581009D01*
X60809523Y-106104819D02*
X60809523Y-105104819D01*
X61809523Y-106104819D02*
X61238095Y-106104819D01*
X61523809Y-106104819D02*
X61523809Y-105104819D01*
X61523809Y-105104819D02*
X61428571Y-105247676D01*
X61428571Y-105247676D02*
X61333333Y-105342914D01*
X61333333Y-105342914D02*
X61238095Y-105390533D01*
X130640419Y-84357142D02*
X130592800Y-84309523D01*
X130592800Y-84309523D02*
X130545180Y-84166666D01*
X130545180Y-84166666D02*
X130545180Y-84071428D01*
X130545180Y-84071428D02*
X130592800Y-83928571D01*
X130592800Y-83928571D02*
X130688038Y-83833333D01*
X130688038Y-83833333D02*
X130783276Y-83785714D01*
X130783276Y-83785714D02*
X130973752Y-83738095D01*
X130973752Y-83738095D02*
X131116609Y-83738095D01*
X131116609Y-83738095D02*
X131307085Y-83785714D01*
X131307085Y-83785714D02*
X131402323Y-83833333D01*
X131402323Y-83833333D02*
X131497561Y-83928571D01*
X131497561Y-83928571D02*
X131545180Y-84071428D01*
X131545180Y-84071428D02*
X131545180Y-84166666D01*
X131545180Y-84166666D02*
X131497561Y-84309523D01*
X131497561Y-84309523D02*
X131449942Y-84357142D01*
X130545180Y-85309523D02*
X130545180Y-84738095D01*
X130545180Y-85023809D02*
X131545180Y-85023809D01*
X131545180Y-85023809D02*
X131402323Y-84928571D01*
X131402323Y-84928571D02*
X131307085Y-84833333D01*
X131307085Y-84833333D02*
X131259466Y-84738095D01*
X131545180Y-85642857D02*
X131545180Y-86261904D01*
X131545180Y-86261904D02*
X131164228Y-85928571D01*
X131164228Y-85928571D02*
X131164228Y-86071428D01*
X131164228Y-86071428D02*
X131116609Y-86166666D01*
X131116609Y-86166666D02*
X131068990Y-86214285D01*
X131068990Y-86214285D02*
X130973752Y-86261904D01*
X130973752Y-86261904D02*
X130735657Y-86261904D01*
X130735657Y-86261904D02*
X130640419Y-86214285D01*
X130640419Y-86214285D02*
X130592800Y-86166666D01*
X130592800Y-86166666D02*
X130545180Y-86071428D01*
X130545180Y-86071428D02*
X130545180Y-85785714D01*
X130545180Y-85785714D02*
X130592800Y-85690476D01*
X130592800Y-85690476D02*
X130640419Y-85642857D01*
X66840419Y-107757142D02*
X66792800Y-107709523D01*
X66792800Y-107709523D02*
X66745180Y-107566666D01*
X66745180Y-107566666D02*
X66745180Y-107471428D01*
X66745180Y-107471428D02*
X66792800Y-107328571D01*
X66792800Y-107328571D02*
X66888038Y-107233333D01*
X66888038Y-107233333D02*
X66983276Y-107185714D01*
X66983276Y-107185714D02*
X67173752Y-107138095D01*
X67173752Y-107138095D02*
X67316609Y-107138095D01*
X67316609Y-107138095D02*
X67507085Y-107185714D01*
X67507085Y-107185714D02*
X67602323Y-107233333D01*
X67602323Y-107233333D02*
X67697561Y-107328571D01*
X67697561Y-107328571D02*
X67745180Y-107471428D01*
X67745180Y-107471428D02*
X67745180Y-107566666D01*
X67745180Y-107566666D02*
X67697561Y-107709523D01*
X67697561Y-107709523D02*
X67649942Y-107757142D01*
X67649942Y-108138095D02*
X67697561Y-108185714D01*
X67697561Y-108185714D02*
X67745180Y-108280952D01*
X67745180Y-108280952D02*
X67745180Y-108519047D01*
X67745180Y-108519047D02*
X67697561Y-108614285D01*
X67697561Y-108614285D02*
X67649942Y-108661904D01*
X67649942Y-108661904D02*
X67554704Y-108709523D01*
X67554704Y-108709523D02*
X67459466Y-108709523D01*
X67459466Y-108709523D02*
X67316609Y-108661904D01*
X67316609Y-108661904D02*
X66745180Y-108090476D01*
X66745180Y-108090476D02*
X66745180Y-108709523D01*
X67745180Y-109328571D02*
X67745180Y-109423809D01*
X67745180Y-109423809D02*
X67697561Y-109519047D01*
X67697561Y-109519047D02*
X67649942Y-109566666D01*
X67649942Y-109566666D02*
X67554704Y-109614285D01*
X67554704Y-109614285D02*
X67364228Y-109661904D01*
X67364228Y-109661904D02*
X67126133Y-109661904D01*
X67126133Y-109661904D02*
X66935657Y-109614285D01*
X66935657Y-109614285D02*
X66840419Y-109566666D01*
X66840419Y-109566666D02*
X66792800Y-109519047D01*
X66792800Y-109519047D02*
X66745180Y-109423809D01*
X66745180Y-109423809D02*
X66745180Y-109328571D01*
X66745180Y-109328571D02*
X66792800Y-109233333D01*
X66792800Y-109233333D02*
X66840419Y-109185714D01*
X66840419Y-109185714D02*
X66935657Y-109138095D01*
X66935657Y-109138095D02*
X67126133Y-109090476D01*
X67126133Y-109090476D02*
X67364228Y-109090476D01*
X67364228Y-109090476D02*
X67554704Y-109138095D01*
X67554704Y-109138095D02*
X67649942Y-109185714D01*
X67649942Y-109185714D02*
X67697561Y-109233333D01*
X67697561Y-109233333D02*
X67745180Y-109328571D01*
X83075180Y-80133333D02*
X83551371Y-79800000D01*
X83075180Y-79561905D02*
X84075180Y-79561905D01*
X84075180Y-79561905D02*
X84075180Y-79942857D01*
X84075180Y-79942857D02*
X84027561Y-80038095D01*
X84027561Y-80038095D02*
X83979942Y-80085714D01*
X83979942Y-80085714D02*
X83884704Y-80133333D01*
X83884704Y-80133333D02*
X83741847Y-80133333D01*
X83741847Y-80133333D02*
X83646609Y-80085714D01*
X83646609Y-80085714D02*
X83598990Y-80038095D01*
X83598990Y-80038095D02*
X83551371Y-79942857D01*
X83551371Y-79942857D02*
X83551371Y-79561905D01*
X83075180Y-80609524D02*
X83075180Y-80800000D01*
X83075180Y-80800000D02*
X83122800Y-80895238D01*
X83122800Y-80895238D02*
X83170419Y-80942857D01*
X83170419Y-80942857D02*
X83313276Y-81038095D01*
X83313276Y-81038095D02*
X83503752Y-81085714D01*
X83503752Y-81085714D02*
X83884704Y-81085714D01*
X83884704Y-81085714D02*
X83979942Y-81038095D01*
X83979942Y-81038095D02*
X84027561Y-80990476D01*
X84027561Y-80990476D02*
X84075180Y-80895238D01*
X84075180Y-80895238D02*
X84075180Y-80704762D01*
X84075180Y-80704762D02*
X84027561Y-80609524D01*
X84027561Y-80609524D02*
X83979942Y-80561905D01*
X83979942Y-80561905D02*
X83884704Y-80514286D01*
X83884704Y-80514286D02*
X83646609Y-80514286D01*
X83646609Y-80514286D02*
X83551371Y-80561905D01*
X83551371Y-80561905D02*
X83503752Y-80609524D01*
X83503752Y-80609524D02*
X83456133Y-80704762D01*
X83456133Y-80704762D02*
X83456133Y-80895238D01*
X83456133Y-80895238D02*
X83503752Y-80990476D01*
X83503752Y-80990476D02*
X83551371Y-81038095D01*
X83551371Y-81038095D02*
X83646609Y-81085714D01*
X62261905Y-105454819D02*
X62261905Y-104454819D01*
X62261905Y-104931009D02*
X62833333Y-104931009D01*
X62833333Y-105454819D02*
X62833333Y-104454819D01*
X63261905Y-105407200D02*
X63404762Y-105454819D01*
X63404762Y-105454819D02*
X63642857Y-105454819D01*
X63642857Y-105454819D02*
X63738095Y-105407200D01*
X63738095Y-105407200D02*
X63785714Y-105359580D01*
X63785714Y-105359580D02*
X63833333Y-105264342D01*
X63833333Y-105264342D02*
X63833333Y-105169104D01*
X63833333Y-105169104D02*
X63785714Y-105073866D01*
X63785714Y-105073866D02*
X63738095Y-105026247D01*
X63738095Y-105026247D02*
X63642857Y-104978628D01*
X63642857Y-104978628D02*
X63452381Y-104931009D01*
X63452381Y-104931009D02*
X63357143Y-104883390D01*
X63357143Y-104883390D02*
X63309524Y-104835771D01*
X63309524Y-104835771D02*
X63261905Y-104740533D01*
X63261905Y-104740533D02*
X63261905Y-104645295D01*
X63261905Y-104645295D02*
X63309524Y-104550057D01*
X63309524Y-104550057D02*
X63357143Y-104502438D01*
X63357143Y-104502438D02*
X63452381Y-104454819D01*
X63452381Y-104454819D02*
X63690476Y-104454819D01*
X63690476Y-104454819D02*
X63833333Y-104502438D01*
X64785714Y-105454819D02*
X64214286Y-105454819D01*
X64500000Y-105454819D02*
X64500000Y-104454819D01*
X64500000Y-104454819D02*
X64404762Y-104597676D01*
X64404762Y-104597676D02*
X64309524Y-104692914D01*
X64309524Y-104692914D02*
X64214286Y-104740533D01*
X122390419Y-84333333D02*
X122342800Y-84285714D01*
X122342800Y-84285714D02*
X122295180Y-84142857D01*
X122295180Y-84142857D02*
X122295180Y-84047619D01*
X122295180Y-84047619D02*
X122342800Y-83904762D01*
X122342800Y-83904762D02*
X122438038Y-83809524D01*
X122438038Y-83809524D02*
X122533276Y-83761905D01*
X122533276Y-83761905D02*
X122723752Y-83714286D01*
X122723752Y-83714286D02*
X122866609Y-83714286D01*
X122866609Y-83714286D02*
X123057085Y-83761905D01*
X123057085Y-83761905D02*
X123152323Y-83809524D01*
X123152323Y-83809524D02*
X123247561Y-83904762D01*
X123247561Y-83904762D02*
X123295180Y-84047619D01*
X123295180Y-84047619D02*
X123295180Y-84142857D01*
X123295180Y-84142857D02*
X123247561Y-84285714D01*
X123247561Y-84285714D02*
X123199942Y-84333333D01*
X122866609Y-84904762D02*
X122914228Y-84809524D01*
X122914228Y-84809524D02*
X122961847Y-84761905D01*
X122961847Y-84761905D02*
X123057085Y-84714286D01*
X123057085Y-84714286D02*
X123104704Y-84714286D01*
X123104704Y-84714286D02*
X123199942Y-84761905D01*
X123199942Y-84761905D02*
X123247561Y-84809524D01*
X123247561Y-84809524D02*
X123295180Y-84904762D01*
X123295180Y-84904762D02*
X123295180Y-85095238D01*
X123295180Y-85095238D02*
X123247561Y-85190476D01*
X123247561Y-85190476D02*
X123199942Y-85238095D01*
X123199942Y-85238095D02*
X123104704Y-85285714D01*
X123104704Y-85285714D02*
X123057085Y-85285714D01*
X123057085Y-85285714D02*
X122961847Y-85238095D01*
X122961847Y-85238095D02*
X122914228Y-85190476D01*
X122914228Y-85190476D02*
X122866609Y-85095238D01*
X122866609Y-85095238D02*
X122866609Y-84904762D01*
X122866609Y-84904762D02*
X122818990Y-84809524D01*
X122818990Y-84809524D02*
X122771371Y-84761905D01*
X122771371Y-84761905D02*
X122676133Y-84714286D01*
X122676133Y-84714286D02*
X122485657Y-84714286D01*
X122485657Y-84714286D02*
X122390419Y-84761905D01*
X122390419Y-84761905D02*
X122342800Y-84809524D01*
X122342800Y-84809524D02*
X122295180Y-84904762D01*
X122295180Y-84904762D02*
X122295180Y-85095238D01*
X122295180Y-85095238D02*
X122342800Y-85190476D01*
X122342800Y-85190476D02*
X122390419Y-85238095D01*
X122390419Y-85238095D02*
X122485657Y-85285714D01*
X122485657Y-85285714D02*
X122676133Y-85285714D01*
X122676133Y-85285714D02*
X122771371Y-85238095D01*
X122771371Y-85238095D02*
X122818990Y-85190476D01*
X122818990Y-85190476D02*
X122866609Y-85095238D01*
X139661904Y-134045180D02*
X139090476Y-134045180D01*
X139376190Y-133045180D02*
X139376190Y-134045180D01*
X138757142Y-133045180D02*
X138757142Y-134045180D01*
X138757142Y-134045180D02*
X138376190Y-134045180D01*
X138376190Y-134045180D02*
X138280952Y-133997561D01*
X138280952Y-133997561D02*
X138233333Y-133949942D01*
X138233333Y-133949942D02*
X138185714Y-133854704D01*
X138185714Y-133854704D02*
X138185714Y-133711847D01*
X138185714Y-133711847D02*
X138233333Y-133616609D01*
X138233333Y-133616609D02*
X138280952Y-133568990D01*
X138280952Y-133568990D02*
X138376190Y-133521371D01*
X138376190Y-133521371D02*
X138757142Y-133521371D01*
X137852380Y-134045180D02*
X137233333Y-134045180D01*
X137233333Y-134045180D02*
X137566666Y-133664228D01*
X137566666Y-133664228D02*
X137423809Y-133664228D01*
X137423809Y-133664228D02*
X137328571Y-133616609D01*
X137328571Y-133616609D02*
X137280952Y-133568990D01*
X137280952Y-133568990D02*
X137233333Y-133473752D01*
X137233333Y-133473752D02*
X137233333Y-133235657D01*
X137233333Y-133235657D02*
X137280952Y-133140419D01*
X137280952Y-133140419D02*
X137328571Y-133092800D01*
X137328571Y-133092800D02*
X137423809Y-133045180D01*
X137423809Y-133045180D02*
X137709523Y-133045180D01*
X137709523Y-133045180D02*
X137804761Y-133092800D01*
X137804761Y-133092800D02*
X137852380Y-133140419D01*
X86645180Y-78583333D02*
X87121371Y-78250000D01*
X86645180Y-78011905D02*
X87645180Y-78011905D01*
X87645180Y-78011905D02*
X87645180Y-78392857D01*
X87645180Y-78392857D02*
X87597561Y-78488095D01*
X87597561Y-78488095D02*
X87549942Y-78535714D01*
X87549942Y-78535714D02*
X87454704Y-78583333D01*
X87454704Y-78583333D02*
X87311847Y-78583333D01*
X87311847Y-78583333D02*
X87216609Y-78535714D01*
X87216609Y-78535714D02*
X87168990Y-78488095D01*
X87168990Y-78488095D02*
X87121371Y-78392857D01*
X87121371Y-78392857D02*
X87121371Y-78011905D01*
X87645180Y-79488095D02*
X87645180Y-79011905D01*
X87645180Y-79011905D02*
X87168990Y-78964286D01*
X87168990Y-78964286D02*
X87216609Y-79011905D01*
X87216609Y-79011905D02*
X87264228Y-79107143D01*
X87264228Y-79107143D02*
X87264228Y-79345238D01*
X87264228Y-79345238D02*
X87216609Y-79440476D01*
X87216609Y-79440476D02*
X87168990Y-79488095D01*
X87168990Y-79488095D02*
X87073752Y-79535714D01*
X87073752Y-79535714D02*
X86835657Y-79535714D01*
X86835657Y-79535714D02*
X86740419Y-79488095D01*
X86740419Y-79488095D02*
X86692800Y-79440476D01*
X86692800Y-79440476D02*
X86645180Y-79345238D01*
X86645180Y-79345238D02*
X86645180Y-79107143D01*
X86645180Y-79107143D02*
X86692800Y-79011905D01*
X86692800Y-79011905D02*
X86740419Y-78964286D01*
X78940419Y-93933333D02*
X78892800Y-93885714D01*
X78892800Y-93885714D02*
X78845180Y-93742857D01*
X78845180Y-93742857D02*
X78845180Y-93647619D01*
X78845180Y-93647619D02*
X78892800Y-93504762D01*
X78892800Y-93504762D02*
X78988038Y-93409524D01*
X78988038Y-93409524D02*
X79083276Y-93361905D01*
X79083276Y-93361905D02*
X79273752Y-93314286D01*
X79273752Y-93314286D02*
X79416609Y-93314286D01*
X79416609Y-93314286D02*
X79607085Y-93361905D01*
X79607085Y-93361905D02*
X79702323Y-93409524D01*
X79702323Y-93409524D02*
X79797561Y-93504762D01*
X79797561Y-93504762D02*
X79845180Y-93647619D01*
X79845180Y-93647619D02*
X79845180Y-93742857D01*
X79845180Y-93742857D02*
X79797561Y-93885714D01*
X79797561Y-93885714D02*
X79749942Y-93933333D01*
X79845180Y-94838095D02*
X79845180Y-94361905D01*
X79845180Y-94361905D02*
X79368990Y-94314286D01*
X79368990Y-94314286D02*
X79416609Y-94361905D01*
X79416609Y-94361905D02*
X79464228Y-94457143D01*
X79464228Y-94457143D02*
X79464228Y-94695238D01*
X79464228Y-94695238D02*
X79416609Y-94790476D01*
X79416609Y-94790476D02*
X79368990Y-94838095D01*
X79368990Y-94838095D02*
X79273752Y-94885714D01*
X79273752Y-94885714D02*
X79035657Y-94885714D01*
X79035657Y-94885714D02*
X78940419Y-94838095D01*
X78940419Y-94838095D02*
X78892800Y-94790476D01*
X78892800Y-94790476D02*
X78845180Y-94695238D01*
X78845180Y-94695238D02*
X78845180Y-94457143D01*
X78845180Y-94457143D02*
X78892800Y-94361905D01*
X78892800Y-94361905D02*
X78940419Y-94314286D01*
X67833333Y-80954819D02*
X67500000Y-80478628D01*
X67261905Y-80954819D02*
X67261905Y-79954819D01*
X67261905Y-79954819D02*
X67642857Y-79954819D01*
X67642857Y-79954819D02*
X67738095Y-80002438D01*
X67738095Y-80002438D02*
X67785714Y-80050057D01*
X67785714Y-80050057D02*
X67833333Y-80145295D01*
X67833333Y-80145295D02*
X67833333Y-80288152D01*
X67833333Y-80288152D02*
X67785714Y-80383390D01*
X67785714Y-80383390D02*
X67738095Y-80431009D01*
X67738095Y-80431009D02*
X67642857Y-80478628D01*
X67642857Y-80478628D02*
X67261905Y-80478628D01*
X68404762Y-80383390D02*
X68309524Y-80335771D01*
X68309524Y-80335771D02*
X68261905Y-80288152D01*
X68261905Y-80288152D02*
X68214286Y-80192914D01*
X68214286Y-80192914D02*
X68214286Y-80145295D01*
X68214286Y-80145295D02*
X68261905Y-80050057D01*
X68261905Y-80050057D02*
X68309524Y-80002438D01*
X68309524Y-80002438D02*
X68404762Y-79954819D01*
X68404762Y-79954819D02*
X68595238Y-79954819D01*
X68595238Y-79954819D02*
X68690476Y-80002438D01*
X68690476Y-80002438D02*
X68738095Y-80050057D01*
X68738095Y-80050057D02*
X68785714Y-80145295D01*
X68785714Y-80145295D02*
X68785714Y-80192914D01*
X68785714Y-80192914D02*
X68738095Y-80288152D01*
X68738095Y-80288152D02*
X68690476Y-80335771D01*
X68690476Y-80335771D02*
X68595238Y-80383390D01*
X68595238Y-80383390D02*
X68404762Y-80383390D01*
X68404762Y-80383390D02*
X68309524Y-80431009D01*
X68309524Y-80431009D02*
X68261905Y-80478628D01*
X68261905Y-80478628D02*
X68214286Y-80573866D01*
X68214286Y-80573866D02*
X68214286Y-80764342D01*
X68214286Y-80764342D02*
X68261905Y-80859580D01*
X68261905Y-80859580D02*
X68309524Y-80907200D01*
X68309524Y-80907200D02*
X68404762Y-80954819D01*
X68404762Y-80954819D02*
X68595238Y-80954819D01*
X68595238Y-80954819D02*
X68690476Y-80907200D01*
X68690476Y-80907200D02*
X68738095Y-80859580D01*
X68738095Y-80859580D02*
X68785714Y-80764342D01*
X68785714Y-80764342D02*
X68785714Y-80573866D01*
X68785714Y-80573866D02*
X68738095Y-80478628D01*
X68738095Y-80478628D02*
X68690476Y-80431009D01*
X68690476Y-80431009D02*
X68595238Y-80383390D01*
X63140419Y-138157142D02*
X63092800Y-138109523D01*
X63092800Y-138109523D02*
X63045180Y-137966666D01*
X63045180Y-137966666D02*
X63045180Y-137871428D01*
X63045180Y-137871428D02*
X63092800Y-137728571D01*
X63092800Y-137728571D02*
X63188038Y-137633333D01*
X63188038Y-137633333D02*
X63283276Y-137585714D01*
X63283276Y-137585714D02*
X63473752Y-137538095D01*
X63473752Y-137538095D02*
X63616609Y-137538095D01*
X63616609Y-137538095D02*
X63807085Y-137585714D01*
X63807085Y-137585714D02*
X63902323Y-137633333D01*
X63902323Y-137633333D02*
X63997561Y-137728571D01*
X63997561Y-137728571D02*
X64045180Y-137871428D01*
X64045180Y-137871428D02*
X64045180Y-137966666D01*
X64045180Y-137966666D02*
X63997561Y-138109523D01*
X63997561Y-138109523D02*
X63949942Y-138157142D01*
X63949942Y-138538095D02*
X63997561Y-138585714D01*
X63997561Y-138585714D02*
X64045180Y-138680952D01*
X64045180Y-138680952D02*
X64045180Y-138919047D01*
X64045180Y-138919047D02*
X63997561Y-139014285D01*
X63997561Y-139014285D02*
X63949942Y-139061904D01*
X63949942Y-139061904D02*
X63854704Y-139109523D01*
X63854704Y-139109523D02*
X63759466Y-139109523D01*
X63759466Y-139109523D02*
X63616609Y-139061904D01*
X63616609Y-139061904D02*
X63045180Y-138490476D01*
X63045180Y-138490476D02*
X63045180Y-139109523D01*
X64045180Y-139442857D02*
X64045180Y-140061904D01*
X64045180Y-140061904D02*
X63664228Y-139728571D01*
X63664228Y-139728571D02*
X63664228Y-139871428D01*
X63664228Y-139871428D02*
X63616609Y-139966666D01*
X63616609Y-139966666D02*
X63568990Y-140014285D01*
X63568990Y-140014285D02*
X63473752Y-140061904D01*
X63473752Y-140061904D02*
X63235657Y-140061904D01*
X63235657Y-140061904D02*
X63140419Y-140014285D01*
X63140419Y-140014285D02*
X63092800Y-139966666D01*
X63092800Y-139966666D02*
X63045180Y-139871428D01*
X63045180Y-139871428D02*
X63045180Y-139585714D01*
X63045180Y-139585714D02*
X63092800Y-139490476D01*
X63092800Y-139490476D02*
X63140419Y-139442857D01*
D14*
X127861904Y-134842580D02*
X127290476Y-134842580D01*
X127576190Y-133842580D02*
X127576190Y-134842580D01*
X126433333Y-133842580D02*
X127004761Y-133842580D01*
X126719047Y-133842580D02*
X126719047Y-134842580D01*
X126719047Y-134842580D02*
X126814285Y-134699723D01*
X126814285Y-134699723D02*
X126909523Y-134604485D01*
X126909523Y-134604485D02*
X127004761Y-134556866D01*
D10*
X100095238Y-72549942D02*
X100190476Y-72597561D01*
X100190476Y-72597561D02*
X100285714Y-72692800D01*
X100285714Y-72692800D02*
X100428571Y-72835657D01*
X100428571Y-72835657D02*
X100523809Y-72883276D01*
X100523809Y-72883276D02*
X100619047Y-72883276D01*
X100571428Y-72645180D02*
X100666666Y-72692800D01*
X100666666Y-72692800D02*
X100761904Y-72788038D01*
X100761904Y-72788038D02*
X100809523Y-72978514D01*
X100809523Y-72978514D02*
X100809523Y-73311847D01*
X100809523Y-73311847D02*
X100761904Y-73502323D01*
X100761904Y-73502323D02*
X100666666Y-73597561D01*
X100666666Y-73597561D02*
X100571428Y-73645180D01*
X100571428Y-73645180D02*
X100380952Y-73645180D01*
X100380952Y-73645180D02*
X100285714Y-73597561D01*
X100285714Y-73597561D02*
X100190476Y-73502323D01*
X100190476Y-73502323D02*
X100142857Y-73311847D01*
X100142857Y-73311847D02*
X100142857Y-72978514D01*
X100142857Y-72978514D02*
X100190476Y-72788038D01*
X100190476Y-72788038D02*
X100285714Y-72692800D01*
X100285714Y-72692800D02*
X100380952Y-72645180D01*
X100380952Y-72645180D02*
X100571428Y-72645180D01*
X99190476Y-72645180D02*
X99761904Y-72645180D01*
X99476190Y-72645180D02*
X99476190Y-73645180D01*
X99476190Y-73645180D02*
X99571428Y-73502323D01*
X99571428Y-73502323D02*
X99666666Y-73407085D01*
X99666666Y-73407085D02*
X99761904Y-73359466D01*
X67033333Y-88934819D02*
X66700000Y-88458628D01*
X66461905Y-88934819D02*
X66461905Y-87934819D01*
X66461905Y-87934819D02*
X66842857Y-87934819D01*
X66842857Y-87934819D02*
X66938095Y-87982438D01*
X66938095Y-87982438D02*
X66985714Y-88030057D01*
X66985714Y-88030057D02*
X67033333Y-88125295D01*
X67033333Y-88125295D02*
X67033333Y-88268152D01*
X67033333Y-88268152D02*
X66985714Y-88363390D01*
X66985714Y-88363390D02*
X66938095Y-88411009D01*
X66938095Y-88411009D02*
X66842857Y-88458628D01*
X66842857Y-88458628D02*
X66461905Y-88458628D01*
X67366667Y-87934819D02*
X68033333Y-87934819D01*
X68033333Y-87934819D02*
X67604762Y-88934819D01*
X74738094Y-130045180D02*
X74738094Y-131045180D01*
X74738094Y-131045180D02*
X74499999Y-131045180D01*
X74499999Y-131045180D02*
X74357142Y-130997561D01*
X74357142Y-130997561D02*
X74261904Y-130902323D01*
X74261904Y-130902323D02*
X74214285Y-130807085D01*
X74214285Y-130807085D02*
X74166666Y-130616609D01*
X74166666Y-130616609D02*
X74166666Y-130473752D01*
X74166666Y-130473752D02*
X74214285Y-130283276D01*
X74214285Y-130283276D02*
X74261904Y-130188038D01*
X74261904Y-130188038D02*
X74357142Y-130092800D01*
X74357142Y-130092800D02*
X74499999Y-130045180D01*
X74499999Y-130045180D02*
X74738094Y-130045180D01*
X73833332Y-131045180D02*
X73166666Y-131045180D01*
X73166666Y-131045180D02*
X73595237Y-130045180D01*
X63140419Y-134557142D02*
X63092800Y-134509523D01*
X63092800Y-134509523D02*
X63045180Y-134366666D01*
X63045180Y-134366666D02*
X63045180Y-134271428D01*
X63045180Y-134271428D02*
X63092800Y-134128571D01*
X63092800Y-134128571D02*
X63188038Y-134033333D01*
X63188038Y-134033333D02*
X63283276Y-133985714D01*
X63283276Y-133985714D02*
X63473752Y-133938095D01*
X63473752Y-133938095D02*
X63616609Y-133938095D01*
X63616609Y-133938095D02*
X63807085Y-133985714D01*
X63807085Y-133985714D02*
X63902323Y-134033333D01*
X63902323Y-134033333D02*
X63997561Y-134128571D01*
X63997561Y-134128571D02*
X64045180Y-134271428D01*
X64045180Y-134271428D02*
X64045180Y-134366666D01*
X64045180Y-134366666D02*
X63997561Y-134509523D01*
X63997561Y-134509523D02*
X63949942Y-134557142D01*
X63949942Y-134938095D02*
X63997561Y-134985714D01*
X63997561Y-134985714D02*
X64045180Y-135080952D01*
X64045180Y-135080952D02*
X64045180Y-135319047D01*
X64045180Y-135319047D02*
X63997561Y-135414285D01*
X63997561Y-135414285D02*
X63949942Y-135461904D01*
X63949942Y-135461904D02*
X63854704Y-135509523D01*
X63854704Y-135509523D02*
X63759466Y-135509523D01*
X63759466Y-135509523D02*
X63616609Y-135461904D01*
X63616609Y-135461904D02*
X63045180Y-134890476D01*
X63045180Y-134890476D02*
X63045180Y-135509523D01*
X63949942Y-135890476D02*
X63997561Y-135938095D01*
X63997561Y-135938095D02*
X64045180Y-136033333D01*
X64045180Y-136033333D02*
X64045180Y-136271428D01*
X64045180Y-136271428D02*
X63997561Y-136366666D01*
X63997561Y-136366666D02*
X63949942Y-136414285D01*
X63949942Y-136414285D02*
X63854704Y-136461904D01*
X63854704Y-136461904D02*
X63759466Y-136461904D01*
X63759466Y-136461904D02*
X63616609Y-136414285D01*
X63616609Y-136414285D02*
X63045180Y-135842857D01*
X63045180Y-135842857D02*
X63045180Y-136461904D01*
X130640419Y-88857142D02*
X130592800Y-88809523D01*
X130592800Y-88809523D02*
X130545180Y-88666666D01*
X130545180Y-88666666D02*
X130545180Y-88571428D01*
X130545180Y-88571428D02*
X130592800Y-88428571D01*
X130592800Y-88428571D02*
X130688038Y-88333333D01*
X130688038Y-88333333D02*
X130783276Y-88285714D01*
X130783276Y-88285714D02*
X130973752Y-88238095D01*
X130973752Y-88238095D02*
X131116609Y-88238095D01*
X131116609Y-88238095D02*
X131307085Y-88285714D01*
X131307085Y-88285714D02*
X131402323Y-88333333D01*
X131402323Y-88333333D02*
X131497561Y-88428571D01*
X131497561Y-88428571D02*
X131545180Y-88571428D01*
X131545180Y-88571428D02*
X131545180Y-88666666D01*
X131545180Y-88666666D02*
X131497561Y-88809523D01*
X131497561Y-88809523D02*
X131449942Y-88857142D01*
X130545180Y-89809523D02*
X130545180Y-89238095D01*
X130545180Y-89523809D02*
X131545180Y-89523809D01*
X131545180Y-89523809D02*
X131402323Y-89428571D01*
X131402323Y-89428571D02*
X131307085Y-89333333D01*
X131307085Y-89333333D02*
X131259466Y-89238095D01*
X131449942Y-90190476D02*
X131497561Y-90238095D01*
X131497561Y-90238095D02*
X131545180Y-90333333D01*
X131545180Y-90333333D02*
X131545180Y-90571428D01*
X131545180Y-90571428D02*
X131497561Y-90666666D01*
X131497561Y-90666666D02*
X131449942Y-90714285D01*
X131449942Y-90714285D02*
X131354704Y-90761904D01*
X131354704Y-90761904D02*
X131259466Y-90761904D01*
X131259466Y-90761904D02*
X131116609Y-90714285D01*
X131116609Y-90714285D02*
X130545180Y-90142857D01*
X130545180Y-90142857D02*
X130545180Y-90761904D01*
D15*
%TO.C,J5*%
X58050000Y-81355000D02*
X60950000Y-81355000D01*
X56145000Y-79450000D02*
X56145000Y-76550000D01*
X62855000Y-79450000D02*
X62855000Y-76550000D01*
X58050000Y-74645000D02*
X60950000Y-74645000D01*
%TO.C,J3*%
X58050000Y-95355000D02*
X60950000Y-95355000D01*
X56145000Y-93450000D02*
X56145000Y-90550000D01*
X62855000Y-93450000D02*
X62855000Y-90550000D01*
X58050000Y-88645000D02*
X60950000Y-88645000D01*
D12*
%TO.C,T2*%
X111800000Y-131800000D02*
X129800000Y-131800000D01*
X111800000Y-132300000D02*
X111800000Y-131800000D01*
X111800000Y-140100000D02*
X111800000Y-140400000D01*
X111800000Y-140400000D02*
X129800000Y-140400000D01*
X129800000Y-134400000D02*
X129800000Y-137800000D01*
D16*
X112080000Y-136100000D02*
G75*
G02*
X111520000Y-136100000I-280000J0D01*
G01*
X111520000Y-136100000D02*
G75*
G02*
X112080000Y-136100000I280000J0D01*
G01*
D17*
%TO.C,J12*%
X91400001Y-136650000D02*
X91400001Y-131250001D01*
X92300001Y-124350000D02*
X98800001Y-124350000D01*
X92300001Y-131250001D02*
X91400001Y-131250001D01*
X92300001Y-136650000D02*
X91400001Y-136650000D01*
X92300001Y-141049999D02*
X92300001Y-124350000D01*
X92300001Y-141049999D02*
X98800001Y-141049999D01*
X98800001Y-124350000D02*
X98800001Y-141049999D01*
D18*
X99943000Y-129250000D02*
G75*
G02*
X99181000Y-129250000I-381000J0D01*
G01*
X99181000Y-129250000D02*
G75*
G02*
X99943000Y-129250000I381000J0D01*
G01*
D17*
%TO.C,J11*%
X101400001Y-136650000D02*
X101400001Y-131250001D01*
X102300001Y-124350000D02*
X108800001Y-124350000D01*
X102300001Y-131250001D02*
X101400001Y-131250001D01*
X102300001Y-136650000D02*
X101400001Y-136650000D01*
X102300001Y-141049999D02*
X102300001Y-124350000D01*
X102300001Y-141049999D02*
X108800001Y-141049999D01*
X108800001Y-124350000D02*
X108800001Y-141049999D01*
D18*
X109943000Y-129250000D02*
G75*
G02*
X109181000Y-129250000I-381000J0D01*
G01*
X109181000Y-129250000D02*
G75*
G02*
X109943000Y-129250000I381000J0D01*
G01*
D14*
%TO.C,RV1*%
X88250000Y-55250000D02*
X88250000Y-62750000D01*
X88250000Y-62750000D02*
X100250000Y-62750000D01*
X100250000Y-55250000D02*
X88250000Y-55250000D01*
X100250000Y-62750000D02*
X100250000Y-55250000D01*
D15*
%TO.C,J8*%
X72700000Y-58000000D02*
X73200000Y-58000000D01*
X72700000Y-59200000D02*
X70700000Y-59200000D01*
X72700000Y-59200000D02*
X72700000Y-58000000D01*
X72700000Y-61800000D02*
X70700000Y-61800000D01*
X72700000Y-68300000D02*
X72700000Y-61800000D01*
X72700000Y-72700000D02*
X72700000Y-71500000D01*
X73200000Y-55500000D02*
X78400000Y-55500000D01*
X73200000Y-58000000D02*
X73200000Y-55500000D01*
X78400000Y-55500000D02*
X78400000Y-58000000D01*
X78400000Y-58000000D02*
X78900000Y-58000000D01*
X78900000Y-58000000D02*
X78900000Y-61200000D01*
X78900000Y-63800000D02*
X78900000Y-72700000D01*
X78900000Y-72700000D02*
X72700000Y-72700000D01*
%TO.C,SW1*%
X113900000Y-68290000D02*
X113900000Y-79710000D01*
X109100000Y-68290000D02*
X113900000Y-68290000D01*
X113900000Y-72095000D02*
X109100000Y-72095000D01*
X113900000Y-79710000D02*
X109100000Y-79710000D01*
X109100000Y-79710000D02*
X109100000Y-68290000D01*
%TO.C,GD1*%
X117213748Y-141090000D02*
X119986252Y-141090000D01*
X117213748Y-144510000D02*
X119986252Y-144510000D01*
%TO.C,D3*%
X108825000Y-118735000D02*
X112710000Y-118735000D01*
X112710000Y-116465000D02*
X108825000Y-116465000D01*
X112710000Y-118735000D02*
X112710000Y-116465000D01*
%TO.C,D4*%
X108727500Y-114350000D02*
X108727500Y-116050000D01*
X108727500Y-114350000D02*
X111387500Y-114350000D01*
X108727500Y-116050000D02*
X111387500Y-116050000D01*
%TO.C,C7*%
X117588748Y-78540000D02*
X119911252Y-78540000D01*
X117588748Y-81960000D02*
X119911252Y-81960000D01*
%TO.C,R13*%
X110552064Y-112065000D02*
X110097936Y-112065000D01*
X110552064Y-113535000D02*
X110097936Y-113535000D01*
%TO.C,C4*%
X74790000Y-95386252D02*
X74790000Y-93063748D01*
X78210000Y-95386252D02*
X78210000Y-93063748D01*
%TO.C,D5*%
X85160000Y-134350000D02*
X79350000Y-134350000D01*
X85160000Y-138650000D02*
X79350000Y-138650000D01*
X85160000Y-138650000D02*
X85160000Y-134350000D01*
D17*
%TO.C,L2*%
X126618000Y-112724300D02*
X143382000Y-112724300D01*
X126618000Y-113670196D02*
X126618000Y-112724300D01*
X126618000Y-124270124D02*
X126618000Y-118729876D01*
X126618000Y-130275700D02*
X126618000Y-129329804D01*
X143382000Y-112724300D02*
X143382000Y-118970160D01*
X143382000Y-124029840D02*
X143382000Y-130275700D01*
X143382000Y-130275700D02*
X126618000Y-130275700D01*
X125776200Y-112900000D02*
G75*
G02*
X125623800Y-112900000I-76200J0D01*
G01*
X125623800Y-112900000D02*
G75*
G02*
X125776200Y-112900000I76200J0D01*
G01*
D15*
%TO.C,D6*%
X77840000Y-140100000D02*
X77840000Y-144400000D01*
X77840000Y-140100000D02*
X83650000Y-140100000D01*
X77840000Y-144400000D02*
X83650000Y-144400000D01*
%TO.C,D2*%
X95290000Y-103350000D02*
X103800000Y-103350000D01*
X95290000Y-109850000D02*
X95290000Y-103350000D01*
X95290000Y-109850000D02*
X103800000Y-109850000D01*
%TO.C,J1*%
X119390000Y-55390000D02*
X129610000Y-55390000D01*
X119390000Y-58450000D02*
X119390000Y-55390000D01*
X119390000Y-68610000D02*
X119390000Y-62550000D01*
X122200000Y-68610000D02*
X119390000Y-68610000D01*
X125500000Y-68800000D02*
X123500000Y-68800000D01*
X129610000Y-55390000D02*
X129610000Y-58450000D01*
X129610000Y-62550000D02*
X129610000Y-68610000D01*
X129610000Y-68610000D02*
X126800000Y-68610000D01*
%TO.C,R6*%
X86790000Y-101113748D02*
X86790000Y-103886252D01*
X90210000Y-101113748D02*
X90210000Y-103886252D01*
%TO.C,C10*%
X117588748Y-91290000D02*
X119911252Y-91290000D01*
X117588748Y-94710000D02*
X119911252Y-94710000D01*
%TO.C,J6*%
X72370000Y-100805000D02*
X82650000Y-100805000D01*
X72370000Y-103405000D02*
X72370000Y-100805000D01*
X72370000Y-106005000D02*
X72370000Y-104675000D01*
X73700000Y-106005000D02*
X72370000Y-106005000D01*
X74970000Y-103405000D02*
X72370000Y-103405000D01*
X74970000Y-106005000D02*
X74970000Y-103405000D01*
X74970000Y-106005000D02*
X82650000Y-106005000D01*
X82650000Y-106005000D02*
X82650000Y-100805000D01*
%TO.C,R2*%
X87772936Y-68015000D02*
X88227064Y-68015000D01*
X87772936Y-69485000D02*
X88227064Y-69485000D01*
%TO.C,J4*%
X109405000Y-91630000D02*
X109405000Y-81350000D01*
X112005000Y-89030000D02*
X112005000Y-91630000D01*
X112005000Y-91630000D02*
X109405000Y-91630000D01*
X114605000Y-81350000D02*
X109405000Y-81350000D01*
X114605000Y-89030000D02*
X112005000Y-89030000D01*
X114605000Y-89030000D02*
X114605000Y-81350000D01*
X114605000Y-90300000D02*
X114605000Y-91630000D01*
X114605000Y-91630000D02*
X113275000Y-91630000D01*
%TO.C,C11*%
X101790000Y-67911252D02*
X101790000Y-65588748D01*
X105210000Y-67911252D02*
X105210000Y-65588748D01*
%TO.C,C14*%
X61140000Y-125488748D02*
X61140000Y-126911252D01*
X63860000Y-125488748D02*
X63860000Y-126911252D01*
%TO.C,C18*%
X75380000Y-110830000D02*
X76899000Y-110830000D01*
X75380000Y-122070000D02*
X75380000Y-110830000D01*
X75380000Y-122070000D02*
X76899000Y-122070000D01*
X79101000Y-110830000D02*
X80620000Y-110830000D01*
X79101000Y-122070000D02*
X80620000Y-122070000D01*
X80620000Y-122070000D02*
X80620000Y-110830000D01*
%TO.C,C3*%
X69290000Y-95386252D02*
X69290000Y-93063748D01*
X72710000Y-95386252D02*
X72710000Y-93063748D01*
%TO.C,C2*%
X121152677Y-73125000D02*
X122152677Y-73125000D01*
X121652677Y-72625000D02*
X121652677Y-73625000D01*
X126632323Y-70920000D02*
X126632323Y-81080000D01*
X126672323Y-70920000D02*
X126672323Y-81080000D01*
X126712323Y-70920000D02*
X126712323Y-81080000D01*
X126752323Y-70921000D02*
X126752323Y-81079000D01*
X126792323Y-70922000D02*
X126792323Y-81078000D01*
X126832323Y-70923000D02*
X126832323Y-81077000D01*
X126872323Y-70925000D02*
X126872323Y-81075000D01*
X126912323Y-70927000D02*
X126912323Y-81073000D01*
X126952323Y-70930000D02*
X126952323Y-81070000D01*
X126992323Y-70932000D02*
X126992323Y-81068000D01*
X127032323Y-70935000D02*
X127032323Y-81065000D01*
X127072323Y-70938000D02*
X127072323Y-81062000D01*
X127112323Y-70942000D02*
X127112323Y-81058000D01*
X127152323Y-70946000D02*
X127152323Y-81054000D01*
X127192323Y-70950000D02*
X127192323Y-81050000D01*
X127232323Y-70955000D02*
X127232323Y-81045000D01*
X127272323Y-70960000D02*
X127272323Y-81040000D01*
X127312323Y-70965000D02*
X127312323Y-81035000D01*
X127353323Y-70970000D02*
X127353323Y-81030000D01*
X127393323Y-70976000D02*
X127393323Y-81024000D01*
X127433323Y-70982000D02*
X127433323Y-81018000D01*
X127473323Y-70989000D02*
X127473323Y-81011000D01*
X127513323Y-70996000D02*
X127513323Y-81004000D01*
X127553323Y-71003000D02*
X127553323Y-80997000D01*
X127593323Y-71010000D02*
X127593323Y-80990000D01*
X127633323Y-71018000D02*
X127633323Y-80982000D01*
X127673323Y-71026000D02*
X127673323Y-80974000D01*
X127713323Y-71035000D02*
X127713323Y-80965000D01*
X127753323Y-71044000D02*
X127753323Y-80956000D01*
X127793323Y-71053000D02*
X127793323Y-80947000D01*
X127833323Y-71062000D02*
X127833323Y-80938000D01*
X127873323Y-71072000D02*
X127873323Y-80928000D01*
X127913323Y-71082000D02*
X127913323Y-74759000D01*
X127913323Y-77241000D02*
X127913323Y-80918000D01*
X127953323Y-71093000D02*
X127953323Y-74759000D01*
X127953323Y-77241000D02*
X127953323Y-80907000D01*
X127993323Y-71103000D02*
X127993323Y-74759000D01*
X127993323Y-77241000D02*
X127993323Y-80897000D01*
X128033323Y-71115000D02*
X128033323Y-74759000D01*
X128033323Y-77241000D02*
X128033323Y-80885000D01*
X128073323Y-71126000D02*
X128073323Y-74759000D01*
X128073323Y-77241000D02*
X128073323Y-80874000D01*
X128113323Y-71138000D02*
X128113323Y-74759000D01*
X128113323Y-77241000D02*
X128113323Y-80862000D01*
X128153323Y-71150000D02*
X128153323Y-74759000D01*
X128153323Y-77241000D02*
X128153323Y-80850000D01*
X128193323Y-71163000D02*
X128193323Y-74759000D01*
X128193323Y-77241000D02*
X128193323Y-80837000D01*
X128233323Y-71176000D02*
X128233323Y-74759000D01*
X128233323Y-77241000D02*
X128233323Y-80824000D01*
X128273323Y-71189000D02*
X128273323Y-74759000D01*
X128273323Y-77241000D02*
X128273323Y-80811000D01*
X128313323Y-71203000D02*
X128313323Y-74759000D01*
X128313323Y-77241000D02*
X128313323Y-80797000D01*
X128353323Y-71217000D02*
X128353323Y-74759000D01*
X128353323Y-77241000D02*
X128353323Y-80783000D01*
X128393323Y-71232000D02*
X128393323Y-74759000D01*
X128393323Y-77241000D02*
X128393323Y-80768000D01*
X128433323Y-71246000D02*
X128433323Y-74759000D01*
X128433323Y-77241000D02*
X128433323Y-80754000D01*
X128473323Y-71262000D02*
X128473323Y-74759000D01*
X128473323Y-77241000D02*
X128473323Y-80738000D01*
X128513323Y-71277000D02*
X128513323Y-74759000D01*
X128513323Y-77241000D02*
X128513323Y-80723000D01*
X128553323Y-71293000D02*
X128553323Y-74759000D01*
X128553323Y-77241000D02*
X128553323Y-80707000D01*
X128593323Y-71310000D02*
X128593323Y-74759000D01*
X128593323Y-77241000D02*
X128593323Y-80690000D01*
X128633323Y-71326000D02*
X128633323Y-74759000D01*
X128633323Y-77241000D02*
X128633323Y-80674000D01*
X128673323Y-71343000D02*
X128673323Y-74759000D01*
X128673323Y-77241000D02*
X128673323Y-80657000D01*
X128713323Y-71361000D02*
X128713323Y-74759000D01*
X128713323Y-77241000D02*
X128713323Y-80639000D01*
X128753323Y-71379000D02*
X128753323Y-74759000D01*
X128753323Y-77241000D02*
X128753323Y-80621000D01*
X128793323Y-71397000D02*
X128793323Y-74759000D01*
X128793323Y-77241000D02*
X128793323Y-80603000D01*
X128833323Y-71416000D02*
X128833323Y-74759000D01*
X128833323Y-77241000D02*
X128833323Y-80584000D01*
X128873323Y-71436000D02*
X128873323Y-74759000D01*
X128873323Y-77241000D02*
X128873323Y-80564000D01*
X128913323Y-71455000D02*
X128913323Y-74759000D01*
X128913323Y-77241000D02*
X128913323Y-80545000D01*
X128953323Y-71475000D02*
X128953323Y-74759000D01*
X128953323Y-77241000D02*
X128953323Y-80525000D01*
X128993323Y-71496000D02*
X128993323Y-74759000D01*
X128993323Y-77241000D02*
X128993323Y-80504000D01*
X129033323Y-71517000D02*
X129033323Y-74759000D01*
X129033323Y-77241000D02*
X129033323Y-80483000D01*
X129073323Y-71538000D02*
X129073323Y-74759000D01*
X129073323Y-77241000D02*
X129073323Y-80462000D01*
X129113323Y-71560000D02*
X129113323Y-74759000D01*
X129113323Y-77241000D02*
X129113323Y-80440000D01*
X129153323Y-71583000D02*
X129153323Y-74759000D01*
X129153323Y-77241000D02*
X129153323Y-80417000D01*
X129193323Y-71605000D02*
X129193323Y-74759000D01*
X129193323Y-77241000D02*
X129193323Y-80395000D01*
X129233323Y-71629000D02*
X129233323Y-74759000D01*
X129233323Y-77241000D02*
X129233323Y-80371000D01*
X129273323Y-71653000D02*
X129273323Y-74759000D01*
X129273323Y-77241000D02*
X129273323Y-80347000D01*
X129313323Y-71677000D02*
X129313323Y-74759000D01*
X129313323Y-77241000D02*
X129313323Y-80323000D01*
X129353323Y-71702000D02*
X129353323Y-74759000D01*
X129353323Y-77241000D02*
X129353323Y-80298000D01*
X129393323Y-71727000D02*
X129393323Y-74759000D01*
X129393323Y-77241000D02*
X129393323Y-80273000D01*
X129433323Y-71753000D02*
X129433323Y-74759000D01*
X129433323Y-77241000D02*
X129433323Y-80247000D01*
X129473323Y-71779000D02*
X129473323Y-74759000D01*
X129473323Y-77241000D02*
X129473323Y-80221000D01*
X129513323Y-71806000D02*
X129513323Y-74759000D01*
X129513323Y-77241000D02*
X129513323Y-80194000D01*
X129553323Y-71834000D02*
X129553323Y-74759000D01*
X129553323Y-77241000D02*
X129553323Y-80166000D01*
X129593323Y-71862000D02*
X129593323Y-74759000D01*
X129593323Y-77241000D02*
X129593323Y-80138000D01*
X129633323Y-71890000D02*
X129633323Y-74759000D01*
X129633323Y-77241000D02*
X129633323Y-80110000D01*
X129673323Y-71920000D02*
X129673323Y-74759000D01*
X129673323Y-77241000D02*
X129673323Y-80080000D01*
X129713323Y-71950000D02*
X129713323Y-74759000D01*
X129713323Y-77241000D02*
X129713323Y-80050000D01*
X129753323Y-71980000D02*
X129753323Y-74759000D01*
X129753323Y-77241000D02*
X129753323Y-80020000D01*
X129793323Y-72011000D02*
X129793323Y-74759000D01*
X129793323Y-77241000D02*
X129793323Y-79989000D01*
X129833323Y-72043000D02*
X129833323Y-74759000D01*
X129833323Y-77241000D02*
X129833323Y-79957000D01*
X129873323Y-72075000D02*
X129873323Y-74759000D01*
X129873323Y-77241000D02*
X129873323Y-79925000D01*
X129913323Y-72108000D02*
X129913323Y-74759000D01*
X129913323Y-77241000D02*
X129913323Y-79892000D01*
X129953323Y-72142000D02*
X129953323Y-74759000D01*
X129953323Y-77241000D02*
X129953323Y-79858000D01*
X129993323Y-72176000D02*
X129993323Y-74759000D01*
X129993323Y-77241000D02*
X129993323Y-79824000D01*
X130033323Y-72211000D02*
X130033323Y-74759000D01*
X130033323Y-77241000D02*
X130033323Y-79789000D01*
X130073323Y-72247000D02*
X130073323Y-74759000D01*
X130073323Y-77241000D02*
X130073323Y-79753000D01*
X130113323Y-72284000D02*
X130113323Y-74759000D01*
X130113323Y-77241000D02*
X130113323Y-79716000D01*
X130153323Y-72321000D02*
X130153323Y-74759000D01*
X130153323Y-77241000D02*
X130153323Y-79679000D01*
X130193323Y-72360000D02*
X130193323Y-74759000D01*
X130193323Y-77241000D02*
X130193323Y-79640000D01*
X130233323Y-72399000D02*
X130233323Y-74759000D01*
X130233323Y-77241000D02*
X130233323Y-79601000D01*
X130273323Y-72439000D02*
X130273323Y-74759000D01*
X130273323Y-77241000D02*
X130273323Y-79561000D01*
X130313323Y-72480000D02*
X130313323Y-74759000D01*
X130313323Y-77241000D02*
X130313323Y-79520000D01*
X130353323Y-72522000D02*
X130353323Y-74759000D01*
X130353323Y-77241000D02*
X130353323Y-79478000D01*
X130393323Y-72564000D02*
X130393323Y-79436000D01*
X130433323Y-72608000D02*
X130433323Y-79392000D01*
X130473323Y-72653000D02*
X130473323Y-79347000D01*
X130513323Y-72699000D02*
X130513323Y-79301000D01*
X130553323Y-72746000D02*
X130553323Y-79254000D01*
X130593323Y-72794000D02*
X130593323Y-79206000D01*
X130633323Y-72844000D02*
X130633323Y-79156000D01*
X130673323Y-72894000D02*
X130673323Y-79106000D01*
X130713323Y-72946000D02*
X130713323Y-79054000D01*
X130753323Y-73000000D02*
X130753323Y-79000000D01*
X130793323Y-73055000D02*
X130793323Y-78945000D01*
X130833323Y-73111000D02*
X130833323Y-78889000D01*
X130873323Y-73170000D02*
X130873323Y-78830000D01*
X130913323Y-73230000D02*
X130913323Y-78770000D01*
X130953323Y-73291000D02*
X130953323Y-78709000D01*
X130993323Y-73355000D02*
X130993323Y-78645000D01*
X131033323Y-73421000D02*
X131033323Y-78579000D01*
X131073323Y-73490000D02*
X131073323Y-78510000D01*
X131113323Y-73561000D02*
X131113323Y-78439000D01*
X131153323Y-73635000D02*
X131153323Y-78365000D01*
X131193323Y-73711000D02*
X131193323Y-78289000D01*
X131233323Y-73791000D02*
X131233323Y-78209000D01*
X131273323Y-73875000D02*
X131273323Y-78125000D01*
X131313323Y-73963000D02*
X131313323Y-78037000D01*
X131353323Y-74056000D02*
X131353323Y-77944000D01*
X131393323Y-74154000D02*
X131393323Y-77846000D01*
X131433323Y-74258000D02*
X131433323Y-77742000D01*
X131473323Y-74370000D02*
X131473323Y-77630000D01*
X131513323Y-74490000D02*
X131513323Y-77510000D01*
X131553323Y-74622000D02*
X131553323Y-77378000D01*
X131593323Y-74770000D02*
X131593323Y-77230000D01*
X131633323Y-74938000D02*
X131633323Y-77062000D01*
X131673323Y-75138000D02*
X131673323Y-76862000D01*
X131713323Y-75401000D02*
X131713323Y-76599000D01*
X131752323Y-76000000D02*
G75*
G02*
X121512323Y-76000000I-5120000J0D01*
G01*
X121512323Y-76000000D02*
G75*
G02*
X131752323Y-76000000I5120000J0D01*
G01*
%TO.C,R4*%
X98265000Y-65772936D02*
X98265000Y-66227064D01*
X99735000Y-65772936D02*
X99735000Y-66227064D01*
%TO.C,C21*%
X77111252Y-73690000D02*
X74788748Y-73690000D01*
X77111252Y-77110000D02*
X74788748Y-77110000D01*
%TO.C,C16*%
X86380000Y-110830000D02*
X87899000Y-110830000D01*
X86380000Y-122070000D02*
X86380000Y-110830000D01*
X86380000Y-122070000D02*
X87899000Y-122070000D01*
X90101000Y-110830000D02*
X91620000Y-110830000D01*
X90101000Y-122070000D02*
X91620000Y-122070000D01*
X91620000Y-122070000D02*
X91620000Y-110830000D01*
%TO.C,C1*%
X91880000Y-110830000D02*
X93399000Y-110830000D01*
X91880000Y-122070000D02*
X91880000Y-110830000D01*
X91880000Y-122070000D02*
X93399000Y-122070000D01*
X95601000Y-110830000D02*
X97120000Y-110830000D01*
X95601000Y-122070000D02*
X97120000Y-122070000D01*
X97120000Y-122070000D02*
X97120000Y-110830000D01*
%TO.C,D8*%
X77660000Y-137100000D02*
X71850000Y-137100000D01*
X77660000Y-141400000D02*
X71850000Y-141400000D01*
X77660000Y-141400000D02*
X77660000Y-137100000D01*
%TO.C,C17*%
X80880000Y-110830000D02*
X82399000Y-110830000D01*
X80880000Y-122070000D02*
X80880000Y-110830000D01*
X80880000Y-122070000D02*
X82399000Y-122070000D01*
X84601000Y-110830000D02*
X86120000Y-110830000D01*
X84601000Y-122070000D02*
X86120000Y-122070000D01*
X86120000Y-122070000D02*
X86120000Y-110830000D01*
%TO.C,J2*%
X138225000Y-80850000D02*
X138225000Y-82100000D01*
X138225000Y-82100000D02*
X139475000Y-82100000D01*
X138515000Y-74190000D02*
X138515000Y-81810000D01*
X138515000Y-81810000D02*
X144485000Y-81810000D01*
X138525000Y-74200000D02*
X138525000Y-76000000D01*
X138525000Y-76000000D02*
X139275000Y-76000000D01*
X138525000Y-77500000D02*
X138525000Y-78500000D01*
X138525000Y-78500000D02*
X139275000Y-78500000D01*
X138525000Y-80000000D02*
X138525000Y-81800000D01*
X138525000Y-81800000D02*
X139275000Y-81800000D01*
X139275000Y-74200000D02*
X138525000Y-74200000D01*
X139275000Y-76000000D02*
X139275000Y-74200000D01*
X139275000Y-77500000D02*
X138525000Y-77500000D01*
X139275000Y-78500000D02*
X139275000Y-77500000D01*
X139275000Y-80000000D02*
X138525000Y-80000000D01*
X139275000Y-81800000D02*
X139275000Y-80000000D01*
X140775000Y-74200000D02*
X140775000Y-74950000D01*
X140775000Y-74950000D02*
X143725000Y-74950000D01*
X140775000Y-81050000D02*
X142115000Y-81050000D01*
X140775000Y-81800000D02*
X140775000Y-81050000D01*
X143725000Y-74950000D02*
X143725000Y-78000000D01*
X143725000Y-78000000D02*
X143725000Y-79990000D01*
X144485000Y-74190000D02*
X138515000Y-74190000D01*
X144485000Y-81810000D02*
X144485000Y-74190000D01*
%TO.C,C6*%
X85790000Y-95386252D02*
X85790000Y-93063748D01*
X89210000Y-95386252D02*
X89210000Y-93063748D01*
%TO.C,C24*%
X113811252Y-141290000D02*
X112388748Y-141290000D01*
X113811252Y-143110000D02*
X112388748Y-143110000D01*
%TO.C,D1*%
X92990000Y-67900000D02*
X92990000Y-69600000D01*
X92990000Y-67900000D02*
X96250000Y-67900000D01*
X92990000Y-69600000D02*
X96250000Y-69600000D01*
%TO.C,R3*%
X90015000Y-66227064D02*
X90015000Y-65772936D01*
X91485000Y-66227064D02*
X91485000Y-65772936D01*
%TO.C,C15*%
X61140000Y-130488748D02*
X61140000Y-131911252D01*
X63860000Y-130488748D02*
X63860000Y-131911252D01*
%TO.C,C9*%
X117588748Y-87040000D02*
X119911252Y-87040000D01*
X117588748Y-90460000D02*
X119911252Y-90460000D01*
%TO.C,C19*%
X69880000Y-110830000D02*
X71399000Y-110830000D01*
X69880000Y-122070000D02*
X69880000Y-110830000D01*
X69880000Y-122070000D02*
X71399000Y-122070000D01*
X73601000Y-110830000D02*
X75120000Y-110830000D01*
X73601000Y-122070000D02*
X75120000Y-122070000D01*
X75120000Y-122070000D02*
X75120000Y-110830000D01*
%TO.C,C13*%
X128161252Y-83290000D02*
X125838748Y-83290000D01*
X128161252Y-86710000D02*
X125838748Y-86710000D01*
%TO.C,C20*%
X64380000Y-110830000D02*
X65899000Y-110830000D01*
X64380000Y-122070000D02*
X64380000Y-110830000D01*
X64380000Y-122070000D02*
X65899000Y-122070000D01*
X68101000Y-110830000D02*
X69620000Y-110830000D01*
X68101000Y-122070000D02*
X69620000Y-122070000D01*
X69620000Y-122070000D02*
X69620000Y-110830000D01*
%TO.C,R9*%
X79890000Y-78772936D02*
X79890000Y-81827064D01*
X82610000Y-78772936D02*
X82610000Y-81827064D01*
%TO.C,C8*%
X117588748Y-82790000D02*
X119911252Y-82790000D01*
X117588748Y-86210000D02*
X119911252Y-86210000D01*
%TO.C,R5*%
X88265000Y-78522936D02*
X88265000Y-78977064D01*
X89735000Y-78522936D02*
X89735000Y-78977064D01*
%TO.C,C5*%
X80290000Y-95386252D02*
X80290000Y-93063748D01*
X83710000Y-95386252D02*
X83710000Y-93063748D01*
%TO.C,R8*%
X69527064Y-76720000D02*
X66472936Y-76720000D01*
X69527064Y-79440000D02*
X66472936Y-79440000D01*
%TO.C,C23*%
X64640000Y-138438748D02*
X64640000Y-139861252D01*
X67360000Y-138438748D02*
X67360000Y-139861252D01*
%TO.C,T1*%
D14*
X124450000Y-135550000D02*
X129950000Y-135550000D01*
X129950000Y-138050000D01*
X124450000Y-138050000D01*
X124450000Y-135550000D01*
D15*
%TO.C,Q1*%
X91930000Y-74140000D02*
X91930000Y-95330000D01*
X91930000Y-74140000D02*
X108070000Y-74140000D01*
X91930000Y-95330000D02*
X108070000Y-95330000D01*
X94550000Y-95330000D02*
X94550000Y-97890000D01*
X100000000Y-95330000D02*
X100000000Y-97890000D01*
X105450000Y-95330000D02*
X105450000Y-97890000D01*
X108070000Y-74140000D02*
X108070000Y-95330000D01*
%TO.C,R7*%
X68727064Y-84840000D02*
X65672936Y-84840000D01*
X68727064Y-87560000D02*
X65672936Y-87560000D01*
%TO.C,D7*%
X70340000Y-131600000D02*
X70340000Y-135900000D01*
X70340000Y-131600000D02*
X76150000Y-131600000D01*
X70340000Y-135900000D02*
X76150000Y-135900000D01*
%TO.C,C22*%
X64640000Y-133438748D02*
X64640000Y-134861252D01*
X67360000Y-133438748D02*
X67360000Y-134861252D01*
%TO.C,C12*%
X128161252Y-87790000D02*
X125838748Y-87790000D01*
X128161252Y-91210000D02*
X125838748Y-91210000D01*
%TD*%
M02*
