%TF.GenerationSoftware,KiCad,Pcbnew,9.0.0*%
%TF.CreationDate,2025-07-31T03:03:26-04:00*%
%TF.ProjectId,PlasmaTransformer,506c6173-6d61-4547-9261-6e73666f726d,4*%
%TF.SameCoordinates,Original*%
%TF.FileFunction,Legend,Top*%
%TF.FilePolarity,Positive*%
%FSLAX46Y46*%
G04 Gerber Fmt 4.6, Leading zero omitted, Abs format (unit mm)*
G04 Created by KiCad (PCBNEW 9.0.0) date 2025-07-31 03:03:26*
%MOMM*%
%LPD*%
G01*
G04 APERTURE LIST*
%ADD10C,0.250000*%
%ADD11C,0.200000*%
%ADD12C,0.150000*%
%ADD13C,0.300000*%
%ADD14C,0.100000*%
%ADD15C,0.120000*%
%ADD16C,0.152400*%
%ADD17C,0.508000*%
%ADD18C,0.560000*%
G04 APERTURE END LIST*
D10*
X143551761Y-107716479D02*
X143647000Y-107811717D01*
X143647000Y-107811717D02*
X143742238Y-108097431D01*
X143742238Y-108097431D02*
X143742238Y-108287907D01*
X143742238Y-108287907D02*
X143647000Y-108573622D01*
X143647000Y-108573622D02*
X143456523Y-108764098D01*
X143456523Y-108764098D02*
X143266047Y-108859336D01*
X143266047Y-108859336D02*
X142885095Y-108954574D01*
X142885095Y-108954574D02*
X142599380Y-108954574D01*
X142599380Y-108954574D02*
X142218428Y-108859336D01*
X142218428Y-108859336D02*
X142027952Y-108764098D01*
X142027952Y-108764098D02*
X141837476Y-108573622D01*
X141837476Y-108573622D02*
X141742238Y-108287907D01*
X141742238Y-108287907D02*
X141742238Y-108097431D01*
X141742238Y-108097431D02*
X141837476Y-107811717D01*
X141837476Y-107811717D02*
X141932714Y-107716479D01*
X143742238Y-106859336D02*
X141742238Y-106859336D01*
X142694619Y-106859336D02*
X142694619Y-105716479D01*
X143742238Y-105716479D02*
X141742238Y-105716479D01*
X141742238Y-104383146D02*
X141742238Y-104002193D01*
X141742238Y-104002193D02*
X141837476Y-103811717D01*
X141837476Y-103811717D02*
X142027952Y-103621241D01*
X142027952Y-103621241D02*
X142408904Y-103526003D01*
X142408904Y-103526003D02*
X143075571Y-103526003D01*
X143075571Y-103526003D02*
X143456523Y-103621241D01*
X143456523Y-103621241D02*
X143647000Y-103811717D01*
X143647000Y-103811717D02*
X143742238Y-104002193D01*
X143742238Y-104002193D02*
X143742238Y-104383146D01*
X143742238Y-104383146D02*
X143647000Y-104573622D01*
X143647000Y-104573622D02*
X143456523Y-104764098D01*
X143456523Y-104764098D02*
X143075571Y-104859336D01*
X143075571Y-104859336D02*
X142408904Y-104859336D01*
X142408904Y-104859336D02*
X142027952Y-104764098D01*
X142027952Y-104764098D02*
X141837476Y-104573622D01*
X141837476Y-104573622D02*
X141742238Y-104383146D01*
X143742238Y-102668860D02*
X141742238Y-102668860D01*
X143742238Y-101526003D02*
X142599380Y-102383146D01*
X141742238Y-101526003D02*
X142885095Y-102668860D01*
X142694619Y-100668860D02*
X142694619Y-100002193D01*
X143742238Y-99716479D02*
X143742238Y-100668860D01*
X143742238Y-100668860D02*
X141742238Y-100668860D01*
X141742238Y-100668860D02*
X141742238Y-99716479D01*
D11*
X125797695Y-98661094D02*
G75*
G02*
X127299803Y-102451106I-497895J-2390006D01*
G01*
X125244343Y-100332598D02*
G75*
G02*
X128699758Y-100551125I1528057J-3266202D01*
G01*
D10*
X63259336Y-85257761D02*
X63259336Y-87257761D01*
X63259336Y-87257761D02*
X62783146Y-87257761D01*
X62783146Y-87257761D02*
X62497431Y-87162523D01*
X62497431Y-87162523D02*
X62306955Y-86972047D01*
X62306955Y-86972047D02*
X62211717Y-86781571D01*
X62211717Y-86781571D02*
X62116479Y-86400619D01*
X62116479Y-86400619D02*
X62116479Y-86114904D01*
X62116479Y-86114904D02*
X62211717Y-85733952D01*
X62211717Y-85733952D02*
X62306955Y-85543476D01*
X62306955Y-85543476D02*
X62497431Y-85353000D01*
X62497431Y-85353000D02*
X62783146Y-85257761D01*
X62783146Y-85257761D02*
X63259336Y-85257761D01*
X60116479Y-85257761D02*
X60783146Y-86210142D01*
X61259336Y-85257761D02*
X61259336Y-87257761D01*
X61259336Y-87257761D02*
X60497431Y-87257761D01*
X60497431Y-87257761D02*
X60306955Y-87162523D01*
X60306955Y-87162523D02*
X60211717Y-87067285D01*
X60211717Y-87067285D02*
X60116479Y-86876809D01*
X60116479Y-86876809D02*
X60116479Y-86591095D01*
X60116479Y-86591095D02*
X60211717Y-86400619D01*
X60211717Y-86400619D02*
X60306955Y-86305380D01*
X60306955Y-86305380D02*
X60497431Y-86210142D01*
X60497431Y-86210142D02*
X61259336Y-86210142D01*
X59354574Y-85829190D02*
X58402193Y-85829190D01*
X59545050Y-85257761D02*
X58878384Y-87257761D01*
X58878384Y-87257761D02*
X58211717Y-85257761D01*
X57545050Y-85257761D02*
X57545050Y-87257761D01*
X56592669Y-85257761D02*
X56592669Y-87257761D01*
X56592669Y-87257761D02*
X55449812Y-85257761D01*
X55449812Y-85257761D02*
X55449812Y-87257761D01*
X136305380Y-76307330D02*
X136305380Y-75640663D01*
X135257761Y-75640663D02*
X137257761Y-75640663D01*
X137257761Y-75640663D02*
X137257761Y-76593044D01*
X135829190Y-77259711D02*
X135829190Y-78212092D01*
X135257761Y-77069235D02*
X137257761Y-77735901D01*
X137257761Y-77735901D02*
X135257761Y-78402568D01*
X135257761Y-79069235D02*
X137257761Y-79069235D01*
X137257761Y-79069235D02*
X135257761Y-80212092D01*
X135257761Y-80212092D02*
X137257761Y-80212092D01*
X60611717Y-72962523D02*
X60802193Y-73057761D01*
X60802193Y-73057761D02*
X61087907Y-73057761D01*
X61087907Y-73057761D02*
X61373622Y-72962523D01*
X61373622Y-72962523D02*
X61564098Y-72772047D01*
X61564098Y-72772047D02*
X61659336Y-72581571D01*
X61659336Y-72581571D02*
X61754574Y-72200619D01*
X61754574Y-72200619D02*
X61754574Y-71914904D01*
X61754574Y-71914904D02*
X61659336Y-71533952D01*
X61659336Y-71533952D02*
X61564098Y-71343476D01*
X61564098Y-71343476D02*
X61373622Y-71153000D01*
X61373622Y-71153000D02*
X61087907Y-71057761D01*
X61087907Y-71057761D02*
X60897431Y-71057761D01*
X60897431Y-71057761D02*
X60611717Y-71153000D01*
X60611717Y-71153000D02*
X60516479Y-71248238D01*
X60516479Y-71248238D02*
X60516479Y-71914904D01*
X60516479Y-71914904D02*
X60897431Y-71914904D01*
X59754574Y-71629190D02*
X58802193Y-71629190D01*
X59945050Y-71057761D02*
X59278384Y-73057761D01*
X59278384Y-73057761D02*
X58611717Y-71057761D01*
X58230764Y-73057761D02*
X57087907Y-73057761D01*
X57659336Y-71057761D02*
X57659336Y-73057761D01*
X56421240Y-72105380D02*
X55754573Y-72105380D01*
X55468859Y-71057761D02*
X56421240Y-71057761D01*
X56421240Y-71057761D02*
X56421240Y-73057761D01*
X56421240Y-73057761D02*
X55468859Y-73057761D01*
D12*
X122229887Y-121873878D02*
X122563220Y-121873878D01*
X122563220Y-121350068D02*
X122563220Y-122350068D01*
X122563220Y-122350068D02*
X122087030Y-122350068D01*
X121706077Y-121873878D02*
X121372744Y-121873878D01*
X121229887Y-121350068D02*
X121706077Y-121350068D01*
X121706077Y-121350068D02*
X121706077Y-122350068D01*
X121706077Y-122350068D02*
X121229887Y-122350068D01*
X120801315Y-121873878D02*
X120467982Y-121873878D01*
X120325125Y-121350068D02*
X120801315Y-121350068D01*
X120801315Y-121350068D02*
X120801315Y-122350068D01*
X120801315Y-122350068D02*
X120325125Y-122350068D01*
X119896553Y-121350068D02*
X119896553Y-122350068D01*
X119896553Y-122350068D02*
X119658458Y-122350068D01*
X119658458Y-122350068D02*
X119515601Y-122302449D01*
X119515601Y-122302449D02*
X119420363Y-122207211D01*
X119420363Y-122207211D02*
X119372744Y-122111973D01*
X119372744Y-122111973D02*
X119325125Y-121921497D01*
X119325125Y-121921497D02*
X119325125Y-121778640D01*
X119325125Y-121778640D02*
X119372744Y-121588164D01*
X119372744Y-121588164D02*
X119420363Y-121492926D01*
X119420363Y-121492926D02*
X119515601Y-121397688D01*
X119515601Y-121397688D02*
X119658458Y-121350068D01*
X119658458Y-121350068D02*
X119896553Y-121350068D01*
X118563220Y-121873878D02*
X118420363Y-121826259D01*
X118420363Y-121826259D02*
X118372744Y-121778640D01*
X118372744Y-121778640D02*
X118325125Y-121683402D01*
X118325125Y-121683402D02*
X118325125Y-121540545D01*
X118325125Y-121540545D02*
X118372744Y-121445307D01*
X118372744Y-121445307D02*
X118420363Y-121397688D01*
X118420363Y-121397688D02*
X118515601Y-121350068D01*
X118515601Y-121350068D02*
X118896553Y-121350068D01*
X118896553Y-121350068D02*
X118896553Y-122350068D01*
X118896553Y-122350068D02*
X118563220Y-122350068D01*
X118563220Y-122350068D02*
X118467982Y-122302449D01*
X118467982Y-122302449D02*
X118420363Y-122254830D01*
X118420363Y-122254830D02*
X118372744Y-122159592D01*
X118372744Y-122159592D02*
X118372744Y-122064354D01*
X118372744Y-122064354D02*
X118420363Y-121969116D01*
X118420363Y-121969116D02*
X118467982Y-121921497D01*
X118467982Y-121921497D02*
X118563220Y-121873878D01*
X118563220Y-121873878D02*
X118896553Y-121873878D01*
X117944172Y-121635783D02*
X117467982Y-121635783D01*
X118039410Y-121350068D02*
X117706077Y-122350068D01*
X117706077Y-122350068D02*
X117372744Y-121350068D01*
X116467982Y-121445307D02*
X116515601Y-121397688D01*
X116515601Y-121397688D02*
X116658458Y-121350068D01*
X116658458Y-121350068D02*
X116753696Y-121350068D01*
X116753696Y-121350068D02*
X116896553Y-121397688D01*
X116896553Y-121397688D02*
X116991791Y-121492926D01*
X116991791Y-121492926D02*
X117039410Y-121588164D01*
X117039410Y-121588164D02*
X117087029Y-121778640D01*
X117087029Y-121778640D02*
X117087029Y-121921497D01*
X117087029Y-121921497D02*
X117039410Y-122111973D01*
X117039410Y-122111973D02*
X116991791Y-122207211D01*
X116991791Y-122207211D02*
X116896553Y-122302449D01*
X116896553Y-122302449D02*
X116753696Y-122350068D01*
X116753696Y-122350068D02*
X116658458Y-122350068D01*
X116658458Y-122350068D02*
X116515601Y-122302449D01*
X116515601Y-122302449D02*
X116467982Y-122254830D01*
X116039410Y-121350068D02*
X116039410Y-122350068D01*
X115467982Y-121350068D02*
X115896553Y-121921497D01*
X115467982Y-122350068D02*
X116039410Y-121778640D01*
X114325124Y-121397688D02*
X114182267Y-121350068D01*
X114182267Y-121350068D02*
X113944172Y-121350068D01*
X113944172Y-121350068D02*
X113848934Y-121397688D01*
X113848934Y-121397688D02*
X113801315Y-121445307D01*
X113801315Y-121445307D02*
X113753696Y-121540545D01*
X113753696Y-121540545D02*
X113753696Y-121635783D01*
X113753696Y-121635783D02*
X113801315Y-121731021D01*
X113801315Y-121731021D02*
X113848934Y-121778640D01*
X113848934Y-121778640D02*
X113944172Y-121826259D01*
X113944172Y-121826259D02*
X114134648Y-121873878D01*
X114134648Y-121873878D02*
X114229886Y-121921497D01*
X114229886Y-121921497D02*
X114277505Y-121969116D01*
X114277505Y-121969116D02*
X114325124Y-122064354D01*
X114325124Y-122064354D02*
X114325124Y-122159592D01*
X114325124Y-122159592D02*
X114277505Y-122254830D01*
X114277505Y-122254830D02*
X114229886Y-122302449D01*
X114229886Y-122302449D02*
X114134648Y-122350068D01*
X114134648Y-122350068D02*
X113896553Y-122350068D01*
X113896553Y-122350068D02*
X113753696Y-122302449D01*
X113325124Y-121873878D02*
X112991791Y-121873878D01*
X112848934Y-121350068D02*
X113325124Y-121350068D01*
X113325124Y-121350068D02*
X113325124Y-122350068D01*
X113325124Y-122350068D02*
X112848934Y-122350068D01*
X112420362Y-121350068D02*
X112420362Y-122350068D01*
X112420362Y-122350068D02*
X111848934Y-121350068D01*
X111848934Y-121350068D02*
X111848934Y-122350068D01*
X111420362Y-121397688D02*
X111277505Y-121350068D01*
X111277505Y-121350068D02*
X111039410Y-121350068D01*
X111039410Y-121350068D02*
X110944172Y-121397688D01*
X110944172Y-121397688D02*
X110896553Y-121445307D01*
X110896553Y-121445307D02*
X110848934Y-121540545D01*
X110848934Y-121540545D02*
X110848934Y-121635783D01*
X110848934Y-121635783D02*
X110896553Y-121731021D01*
X110896553Y-121731021D02*
X110944172Y-121778640D01*
X110944172Y-121778640D02*
X111039410Y-121826259D01*
X111039410Y-121826259D02*
X111229886Y-121873878D01*
X111229886Y-121873878D02*
X111325124Y-121921497D01*
X111325124Y-121921497D02*
X111372743Y-121969116D01*
X111372743Y-121969116D02*
X111420362Y-122064354D01*
X111420362Y-122064354D02*
X111420362Y-122159592D01*
X111420362Y-122159592D02*
X111372743Y-122254830D01*
X111372743Y-122254830D02*
X111325124Y-122302449D01*
X111325124Y-122302449D02*
X111229886Y-122350068D01*
X111229886Y-122350068D02*
X110991791Y-122350068D01*
X110991791Y-122350068D02*
X110848934Y-122302449D01*
X110229886Y-122350068D02*
X110039410Y-122350068D01*
X110039410Y-122350068D02*
X109944172Y-122302449D01*
X109944172Y-122302449D02*
X109848934Y-122207211D01*
X109848934Y-122207211D02*
X109801315Y-122016735D01*
X109801315Y-122016735D02*
X109801315Y-121683402D01*
X109801315Y-121683402D02*
X109848934Y-121492926D01*
X109848934Y-121492926D02*
X109944172Y-121397688D01*
X109944172Y-121397688D02*
X110039410Y-121350068D01*
X110039410Y-121350068D02*
X110229886Y-121350068D01*
X110229886Y-121350068D02*
X110325124Y-121397688D01*
X110325124Y-121397688D02*
X110420362Y-121492926D01*
X110420362Y-121492926D02*
X110467981Y-121683402D01*
X110467981Y-121683402D02*
X110467981Y-122016735D01*
X110467981Y-122016735D02*
X110420362Y-122207211D01*
X110420362Y-122207211D02*
X110325124Y-122302449D01*
X110325124Y-122302449D02*
X110229886Y-122350068D01*
X108801315Y-121350068D02*
X109134648Y-121826259D01*
X109372743Y-121350068D02*
X109372743Y-122350068D01*
X109372743Y-122350068D02*
X108991791Y-122350068D01*
X108991791Y-122350068D02*
X108896553Y-122302449D01*
X108896553Y-122302449D02*
X108848934Y-122254830D01*
X108848934Y-122254830D02*
X108801315Y-122159592D01*
X108801315Y-122159592D02*
X108801315Y-122016735D01*
X108801315Y-122016735D02*
X108848934Y-121921497D01*
X108848934Y-121921497D02*
X108896553Y-121873878D01*
X108896553Y-121873878D02*
X108991791Y-121826259D01*
X108991791Y-121826259D02*
X109372743Y-121826259D01*
X122563220Y-119740124D02*
X122563220Y-120740124D01*
X122563220Y-120740124D02*
X122325125Y-120740124D01*
X122325125Y-120740124D02*
X122182268Y-120692505D01*
X122182268Y-120692505D02*
X122087030Y-120597267D01*
X122087030Y-120597267D02*
X122039411Y-120502029D01*
X122039411Y-120502029D02*
X121991792Y-120311553D01*
X121991792Y-120311553D02*
X121991792Y-120168696D01*
X121991792Y-120168696D02*
X122039411Y-119978220D01*
X122039411Y-119978220D02*
X122087030Y-119882982D01*
X122087030Y-119882982D02*
X122182268Y-119787744D01*
X122182268Y-119787744D02*
X122325125Y-119740124D01*
X122325125Y-119740124D02*
X122563220Y-119740124D01*
X121563220Y-120263934D02*
X121229887Y-120263934D01*
X121087030Y-119740124D02*
X121563220Y-119740124D01*
X121563220Y-119740124D02*
X121563220Y-120740124D01*
X121563220Y-120740124D02*
X121087030Y-120740124D01*
X120706077Y-119787744D02*
X120563220Y-119740124D01*
X120563220Y-119740124D02*
X120325125Y-119740124D01*
X120325125Y-119740124D02*
X120229887Y-119787744D01*
X120229887Y-119787744D02*
X120182268Y-119835363D01*
X120182268Y-119835363D02*
X120134649Y-119930601D01*
X120134649Y-119930601D02*
X120134649Y-120025839D01*
X120134649Y-120025839D02*
X120182268Y-120121077D01*
X120182268Y-120121077D02*
X120229887Y-120168696D01*
X120229887Y-120168696D02*
X120325125Y-120216315D01*
X120325125Y-120216315D02*
X120515601Y-120263934D01*
X120515601Y-120263934D02*
X120610839Y-120311553D01*
X120610839Y-120311553D02*
X120658458Y-120359172D01*
X120658458Y-120359172D02*
X120706077Y-120454410D01*
X120706077Y-120454410D02*
X120706077Y-120549648D01*
X120706077Y-120549648D02*
X120658458Y-120644886D01*
X120658458Y-120644886D02*
X120610839Y-120692505D01*
X120610839Y-120692505D02*
X120515601Y-120740124D01*
X120515601Y-120740124D02*
X120277506Y-120740124D01*
X120277506Y-120740124D02*
X120134649Y-120692505D01*
X119706077Y-119740124D02*
X119706077Y-120740124D01*
X118706078Y-120692505D02*
X118801316Y-120740124D01*
X118801316Y-120740124D02*
X118944173Y-120740124D01*
X118944173Y-120740124D02*
X119087030Y-120692505D01*
X119087030Y-120692505D02*
X119182268Y-120597267D01*
X119182268Y-120597267D02*
X119229887Y-120502029D01*
X119229887Y-120502029D02*
X119277506Y-120311553D01*
X119277506Y-120311553D02*
X119277506Y-120168696D01*
X119277506Y-120168696D02*
X119229887Y-119978220D01*
X119229887Y-119978220D02*
X119182268Y-119882982D01*
X119182268Y-119882982D02*
X119087030Y-119787744D01*
X119087030Y-119787744D02*
X118944173Y-119740124D01*
X118944173Y-119740124D02*
X118848935Y-119740124D01*
X118848935Y-119740124D02*
X118706078Y-119787744D01*
X118706078Y-119787744D02*
X118658459Y-119835363D01*
X118658459Y-119835363D02*
X118658459Y-120168696D01*
X118658459Y-120168696D02*
X118848935Y-120168696D01*
X118229887Y-119740124D02*
X118229887Y-120740124D01*
X118229887Y-120740124D02*
X117658459Y-119740124D01*
X117658459Y-119740124D02*
X117658459Y-120740124D01*
X116087030Y-120263934D02*
X115944173Y-120216315D01*
X115944173Y-120216315D02*
X115896554Y-120168696D01*
X115896554Y-120168696D02*
X115848935Y-120073458D01*
X115848935Y-120073458D02*
X115848935Y-119930601D01*
X115848935Y-119930601D02*
X115896554Y-119835363D01*
X115896554Y-119835363D02*
X115944173Y-119787744D01*
X115944173Y-119787744D02*
X116039411Y-119740124D01*
X116039411Y-119740124D02*
X116420363Y-119740124D01*
X116420363Y-119740124D02*
X116420363Y-120740124D01*
X116420363Y-120740124D02*
X116087030Y-120740124D01*
X116087030Y-120740124D02*
X115991792Y-120692505D01*
X115991792Y-120692505D02*
X115944173Y-120644886D01*
X115944173Y-120644886D02*
X115896554Y-120549648D01*
X115896554Y-120549648D02*
X115896554Y-120454410D01*
X115896554Y-120454410D02*
X115944173Y-120359172D01*
X115944173Y-120359172D02*
X115991792Y-120311553D01*
X115991792Y-120311553D02*
X116087030Y-120263934D01*
X116087030Y-120263934D02*
X116420363Y-120263934D01*
X115229887Y-120216315D02*
X115229887Y-119740124D01*
X115563220Y-120740124D02*
X115229887Y-120216315D01*
X115229887Y-120216315D02*
X114896554Y-120740124D01*
X122610839Y-118177800D02*
X122467982Y-118130180D01*
X122467982Y-118130180D02*
X122229887Y-118130180D01*
X122229887Y-118130180D02*
X122134649Y-118177800D01*
X122134649Y-118177800D02*
X122087030Y-118225419D01*
X122087030Y-118225419D02*
X122039411Y-118320657D01*
X122039411Y-118320657D02*
X122039411Y-118415895D01*
X122039411Y-118415895D02*
X122087030Y-118511133D01*
X122087030Y-118511133D02*
X122134649Y-118558752D01*
X122134649Y-118558752D02*
X122229887Y-118606371D01*
X122229887Y-118606371D02*
X122420363Y-118653990D01*
X122420363Y-118653990D02*
X122515601Y-118701609D01*
X122515601Y-118701609D02*
X122563220Y-118749228D01*
X122563220Y-118749228D02*
X122610839Y-118844466D01*
X122610839Y-118844466D02*
X122610839Y-118939704D01*
X122610839Y-118939704D02*
X122563220Y-119034942D01*
X122563220Y-119034942D02*
X122515601Y-119082561D01*
X122515601Y-119082561D02*
X122420363Y-119130180D01*
X122420363Y-119130180D02*
X122182268Y-119130180D01*
X122182268Y-119130180D02*
X122039411Y-119082561D01*
X121610839Y-118130180D02*
X121610839Y-119130180D01*
X121039411Y-118130180D02*
X121467982Y-118701609D01*
X121039411Y-119130180D02*
X121610839Y-118558752D01*
X120420363Y-118606371D02*
X120420363Y-118130180D01*
X120753696Y-119130180D02*
X120420363Y-118606371D01*
X120420363Y-118606371D02*
X120087030Y-119130180D01*
X119753696Y-118511133D02*
X118991792Y-118511133D01*
X117991792Y-119082561D02*
X118087030Y-119130180D01*
X118087030Y-119130180D02*
X118229887Y-119130180D01*
X118229887Y-119130180D02*
X118372744Y-119082561D01*
X118372744Y-119082561D02*
X118467982Y-118987323D01*
X118467982Y-118987323D02*
X118515601Y-118892085D01*
X118515601Y-118892085D02*
X118563220Y-118701609D01*
X118563220Y-118701609D02*
X118563220Y-118558752D01*
X118563220Y-118558752D02*
X118515601Y-118368276D01*
X118515601Y-118368276D02*
X118467982Y-118273038D01*
X118467982Y-118273038D02*
X118372744Y-118177800D01*
X118372744Y-118177800D02*
X118229887Y-118130180D01*
X118229887Y-118130180D02*
X118134649Y-118130180D01*
X118134649Y-118130180D02*
X117991792Y-118177800D01*
X117991792Y-118177800D02*
X117944173Y-118225419D01*
X117944173Y-118225419D02*
X117944173Y-118558752D01*
X117944173Y-118558752D02*
X118134649Y-118558752D01*
X117515601Y-119130180D02*
X117515601Y-118320657D01*
X117515601Y-118320657D02*
X117467982Y-118225419D01*
X117467982Y-118225419D02*
X117420363Y-118177800D01*
X117420363Y-118177800D02*
X117325125Y-118130180D01*
X117325125Y-118130180D02*
X117134649Y-118130180D01*
X117134649Y-118130180D02*
X117039411Y-118177800D01*
X117039411Y-118177800D02*
X116991792Y-118225419D01*
X116991792Y-118225419D02*
X116944173Y-118320657D01*
X116944173Y-118320657D02*
X116944173Y-119130180D01*
X116467982Y-118130180D02*
X116467982Y-119130180D01*
X115991792Y-118130180D02*
X115991792Y-119130180D01*
X115991792Y-119130180D02*
X115753697Y-119130180D01*
X115753697Y-119130180D02*
X115610840Y-119082561D01*
X115610840Y-119082561D02*
X115515602Y-118987323D01*
X115515602Y-118987323D02*
X115467983Y-118892085D01*
X115467983Y-118892085D02*
X115420364Y-118701609D01*
X115420364Y-118701609D02*
X115420364Y-118558752D01*
X115420364Y-118558752D02*
X115467983Y-118368276D01*
X115467983Y-118368276D02*
X115515602Y-118273038D01*
X115515602Y-118273038D02*
X115610840Y-118177800D01*
X115610840Y-118177800D02*
X115753697Y-118130180D01*
X115753697Y-118130180D02*
X115991792Y-118130180D01*
X114991792Y-118653990D02*
X114658459Y-118653990D01*
X114515602Y-118130180D02*
X114991792Y-118130180D01*
X114991792Y-118130180D02*
X114991792Y-119130180D01*
X114991792Y-119130180D02*
X114515602Y-119130180D01*
X114087030Y-118130180D02*
X114087030Y-119130180D01*
X114087030Y-119130180D02*
X113848935Y-119130180D01*
X113848935Y-119130180D02*
X113706078Y-119082561D01*
X113706078Y-119082561D02*
X113610840Y-118987323D01*
X113610840Y-118987323D02*
X113563221Y-118892085D01*
X113563221Y-118892085D02*
X113515602Y-118701609D01*
X113515602Y-118701609D02*
X113515602Y-118558752D01*
X113515602Y-118558752D02*
X113563221Y-118368276D01*
X113563221Y-118368276D02*
X113610840Y-118273038D01*
X113610840Y-118273038D02*
X113706078Y-118177800D01*
X113706078Y-118177800D02*
X113848935Y-118130180D01*
X113848935Y-118130180D02*
X114087030Y-118130180D01*
D13*
X139809524Y-108480249D02*
X139809524Y-110480249D01*
X138857143Y-108480249D02*
X138857143Y-110480249D01*
X138857143Y-110480249D02*
X137714286Y-108480249D01*
X137714286Y-108480249D02*
X137714286Y-110480249D01*
X136761905Y-108480249D02*
X136761905Y-110480249D01*
X136761905Y-110480249D02*
X136285715Y-110480249D01*
X136285715Y-110480249D02*
X136000000Y-110385011D01*
X136000000Y-110385011D02*
X135809524Y-110194535D01*
X135809524Y-110194535D02*
X135714286Y-110004059D01*
X135714286Y-110004059D02*
X135619048Y-109623107D01*
X135619048Y-109623107D02*
X135619048Y-109337392D01*
X135619048Y-109337392D02*
X135714286Y-108956440D01*
X135714286Y-108956440D02*
X135809524Y-108765964D01*
X135809524Y-108765964D02*
X136000000Y-108575488D01*
X136000000Y-108575488D02*
X136285715Y-108480249D01*
X136285715Y-108480249D02*
X136761905Y-108480249D01*
X134761905Y-110480249D02*
X134761905Y-108861202D01*
X134761905Y-108861202D02*
X134666667Y-108670726D01*
X134666667Y-108670726D02*
X134571429Y-108575488D01*
X134571429Y-108575488D02*
X134380953Y-108480249D01*
X134380953Y-108480249D02*
X134000000Y-108480249D01*
X134000000Y-108480249D02*
X133809524Y-108575488D01*
X133809524Y-108575488D02*
X133714286Y-108670726D01*
X133714286Y-108670726D02*
X133619048Y-108861202D01*
X133619048Y-108861202D02*
X133619048Y-110480249D01*
X131523810Y-108670726D02*
X131619048Y-108575488D01*
X131619048Y-108575488D02*
X131904762Y-108480249D01*
X131904762Y-108480249D02*
X132095238Y-108480249D01*
X132095238Y-108480249D02*
X132380953Y-108575488D01*
X132380953Y-108575488D02*
X132571429Y-108765964D01*
X132571429Y-108765964D02*
X132666667Y-108956440D01*
X132666667Y-108956440D02*
X132761905Y-109337392D01*
X132761905Y-109337392D02*
X132761905Y-109623107D01*
X132761905Y-109623107D02*
X132666667Y-110004059D01*
X132666667Y-110004059D02*
X132571429Y-110194535D01*
X132571429Y-110194535D02*
X132380953Y-110385011D01*
X132380953Y-110385011D02*
X132095238Y-110480249D01*
X132095238Y-110480249D02*
X131904762Y-110480249D01*
X131904762Y-110480249D02*
X131619048Y-110385011D01*
X131619048Y-110385011D02*
X131523810Y-110289773D01*
X130952381Y-110480249D02*
X129809524Y-110480249D01*
X130380953Y-108480249D02*
X130380953Y-110480249D01*
X129142857Y-108480249D02*
X129142857Y-110480249D01*
X128476190Y-110480249D02*
X127809524Y-108480249D01*
X127809524Y-108480249D02*
X127142857Y-110480249D01*
X126476190Y-109527868D02*
X125809523Y-109527868D01*
X125523809Y-108480249D02*
X126476190Y-108480249D01*
X126476190Y-108480249D02*
X126476190Y-110480249D01*
X126476190Y-110480249D02*
X125523809Y-110480249D01*
X123714285Y-108480249D02*
X124666666Y-108480249D01*
X124666666Y-108480249D02*
X124666666Y-110480249D01*
X122666666Y-109432630D02*
X122666666Y-108480249D01*
X123333332Y-110480249D02*
X122666666Y-109432630D01*
X122666666Y-109432630D02*
X121999999Y-110480249D01*
X121333332Y-109242154D02*
X119809523Y-109242154D01*
X117714285Y-108670726D02*
X117809523Y-108575488D01*
X117809523Y-108575488D02*
X118095237Y-108480249D01*
X118095237Y-108480249D02*
X118285713Y-108480249D01*
X118285713Y-108480249D02*
X118571428Y-108575488D01*
X118571428Y-108575488D02*
X118761904Y-108765964D01*
X118761904Y-108765964D02*
X118857142Y-108956440D01*
X118857142Y-108956440D02*
X118952380Y-109337392D01*
X118952380Y-109337392D02*
X118952380Y-109623107D01*
X118952380Y-109623107D02*
X118857142Y-110004059D01*
X118857142Y-110004059D02*
X118761904Y-110194535D01*
X118761904Y-110194535D02*
X118571428Y-110385011D01*
X118571428Y-110385011D02*
X118285713Y-110480249D01*
X118285713Y-110480249D02*
X118095237Y-110480249D01*
X118095237Y-110480249D02*
X117809523Y-110385011D01*
X117809523Y-110385011D02*
X117714285Y-110289773D01*
X116476190Y-110480249D02*
X116095237Y-110480249D01*
X116095237Y-110480249D02*
X115904761Y-110385011D01*
X115904761Y-110385011D02*
X115714285Y-110194535D01*
X115714285Y-110194535D02*
X115619047Y-109813583D01*
X115619047Y-109813583D02*
X115619047Y-109146916D01*
X115619047Y-109146916D02*
X115714285Y-108765964D01*
X115714285Y-108765964D02*
X115904761Y-108575488D01*
X115904761Y-108575488D02*
X116095237Y-108480249D01*
X116095237Y-108480249D02*
X116476190Y-108480249D01*
X116476190Y-108480249D02*
X116666666Y-108575488D01*
X116666666Y-108575488D02*
X116857142Y-108765964D01*
X116857142Y-108765964D02*
X116952380Y-109146916D01*
X116952380Y-109146916D02*
X116952380Y-109813583D01*
X116952380Y-109813583D02*
X116857142Y-110194535D01*
X116857142Y-110194535D02*
X116666666Y-110385011D01*
X116666666Y-110385011D02*
X116476190Y-110480249D01*
X114761904Y-110480249D02*
X114761904Y-108861202D01*
X114761904Y-108861202D02*
X114666666Y-108670726D01*
X114666666Y-108670726D02*
X114571428Y-108575488D01*
X114571428Y-108575488D02*
X114380952Y-108480249D01*
X114380952Y-108480249D02*
X113999999Y-108480249D01*
X113999999Y-108480249D02*
X113809523Y-108575488D01*
X113809523Y-108575488D02*
X113714285Y-108670726D01*
X113714285Y-108670726D02*
X113619047Y-108861202D01*
X113619047Y-108861202D02*
X113619047Y-110480249D01*
X112666666Y-108480249D02*
X112666666Y-110480249D01*
X112666666Y-110480249D02*
X111904761Y-110480249D01*
X111904761Y-110480249D02*
X111714285Y-110385011D01*
X111714285Y-110385011D02*
X111619047Y-110289773D01*
X111619047Y-110289773D02*
X111523809Y-110099297D01*
X111523809Y-110099297D02*
X111523809Y-109813583D01*
X111523809Y-109813583D02*
X111619047Y-109623107D01*
X111619047Y-109623107D02*
X111714285Y-109527868D01*
X111714285Y-109527868D02*
X111904761Y-109432630D01*
X111904761Y-109432630D02*
X112666666Y-109432630D01*
X109714285Y-108480249D02*
X110666666Y-108480249D01*
X110666666Y-108480249D02*
X110666666Y-110480249D01*
X109047618Y-109527868D02*
X108380951Y-109527868D01*
X108095237Y-108480249D02*
X109047618Y-108480249D01*
X109047618Y-108480249D02*
X109047618Y-110480249D01*
X109047618Y-110480249D02*
X108095237Y-110480249D01*
X107238094Y-108480249D02*
X107238094Y-110480249D01*
X107238094Y-110480249D02*
X106761904Y-110480249D01*
X106761904Y-110480249D02*
X106476189Y-110385011D01*
X106476189Y-110385011D02*
X106285713Y-110194535D01*
X106285713Y-110194535D02*
X106190475Y-110004059D01*
X106190475Y-110004059D02*
X106095237Y-109623107D01*
X106095237Y-109623107D02*
X106095237Y-109337392D01*
X106095237Y-109337392D02*
X106190475Y-108956440D01*
X106190475Y-108956440D02*
X106285713Y-108765964D01*
X106285713Y-108765964D02*
X106476189Y-108575488D01*
X106476189Y-108575488D02*
X106761904Y-108480249D01*
X106761904Y-108480249D02*
X107238094Y-108480249D01*
X134142857Y-105260361D02*
X134142857Y-107260361D01*
X134142857Y-107260361D02*
X133380952Y-107260361D01*
X133380952Y-107260361D02*
X133190476Y-107165123D01*
X133190476Y-107165123D02*
X133095238Y-107069885D01*
X133095238Y-107069885D02*
X133000000Y-106879409D01*
X133000000Y-106879409D02*
X133000000Y-106593695D01*
X133000000Y-106593695D02*
X133095238Y-106403219D01*
X133095238Y-106403219D02*
X133190476Y-106307980D01*
X133190476Y-106307980D02*
X133380952Y-106212742D01*
X133380952Y-106212742D02*
X134142857Y-106212742D01*
X131190476Y-105260361D02*
X132142857Y-105260361D01*
X132142857Y-105260361D02*
X132142857Y-107260361D01*
X130619047Y-105831790D02*
X129666666Y-105831790D01*
X130809523Y-105260361D02*
X130142857Y-107260361D01*
X130142857Y-107260361D02*
X129476190Y-105260361D01*
X128904761Y-105355600D02*
X128619047Y-105260361D01*
X128619047Y-105260361D02*
X128142856Y-105260361D01*
X128142856Y-105260361D02*
X127952380Y-105355600D01*
X127952380Y-105355600D02*
X127857142Y-105450838D01*
X127857142Y-105450838D02*
X127761904Y-105641314D01*
X127761904Y-105641314D02*
X127761904Y-105831790D01*
X127761904Y-105831790D02*
X127857142Y-106022266D01*
X127857142Y-106022266D02*
X127952380Y-106117504D01*
X127952380Y-106117504D02*
X128142856Y-106212742D01*
X128142856Y-106212742D02*
X128523809Y-106307980D01*
X128523809Y-106307980D02*
X128714285Y-106403219D01*
X128714285Y-106403219D02*
X128809523Y-106498457D01*
X128809523Y-106498457D02*
X128904761Y-106688933D01*
X128904761Y-106688933D02*
X128904761Y-106879409D01*
X128904761Y-106879409D02*
X128809523Y-107069885D01*
X128809523Y-107069885D02*
X128714285Y-107165123D01*
X128714285Y-107165123D02*
X128523809Y-107260361D01*
X128523809Y-107260361D02*
X128047618Y-107260361D01*
X128047618Y-107260361D02*
X127761904Y-107165123D01*
X126904761Y-105260361D02*
X126904761Y-107260361D01*
X126904761Y-107260361D02*
X126238094Y-105831790D01*
X126238094Y-105831790D02*
X125571428Y-107260361D01*
X125571428Y-107260361D02*
X125571428Y-105260361D01*
X124714285Y-105831790D02*
X123761904Y-105831790D01*
X124904761Y-105260361D02*
X124238095Y-107260361D01*
X124238095Y-107260361D02*
X123571428Y-105260361D01*
X121380951Y-105260361D02*
X121380951Y-107260361D01*
X121380951Y-107260361D02*
X120904761Y-107260361D01*
X120904761Y-107260361D02*
X120619046Y-107165123D01*
X120619046Y-107165123D02*
X120428570Y-106974647D01*
X120428570Y-106974647D02*
X120333332Y-106784171D01*
X120333332Y-106784171D02*
X120238094Y-106403219D01*
X120238094Y-106403219D02*
X120238094Y-106117504D01*
X120238094Y-106117504D02*
X120333332Y-105736552D01*
X120333332Y-105736552D02*
X120428570Y-105546076D01*
X120428570Y-105546076D02*
X120619046Y-105355600D01*
X120619046Y-105355600D02*
X120904761Y-105260361D01*
X120904761Y-105260361D02*
X121380951Y-105260361D01*
X118238094Y-105260361D02*
X118904761Y-106212742D01*
X119380951Y-105260361D02*
X119380951Y-107260361D01*
X119380951Y-107260361D02*
X118619046Y-107260361D01*
X118619046Y-107260361D02*
X118428570Y-107165123D01*
X118428570Y-107165123D02*
X118333332Y-107069885D01*
X118333332Y-107069885D02*
X118238094Y-106879409D01*
X118238094Y-106879409D02*
X118238094Y-106593695D01*
X118238094Y-106593695D02*
X118333332Y-106403219D01*
X118333332Y-106403219D02*
X118428570Y-106307980D01*
X118428570Y-106307980D02*
X118619046Y-106212742D01*
X118619046Y-106212742D02*
X119380951Y-106212742D01*
X117380951Y-105260361D02*
X117380951Y-107260361D01*
X116714284Y-107260361D02*
X116047618Y-105260361D01*
X116047618Y-105260361D02*
X115380951Y-107260361D01*
X114714284Y-106307980D02*
X114047617Y-106307980D01*
X113761903Y-105260361D02*
X114714284Y-105260361D01*
X114714284Y-105260361D02*
X114714284Y-107260361D01*
X114714284Y-107260361D02*
X113761903Y-107260361D01*
X111761903Y-105260361D02*
X112428570Y-106212742D01*
X112904760Y-105260361D02*
X112904760Y-107260361D01*
X112904760Y-107260361D02*
X112142855Y-107260361D01*
X112142855Y-107260361D02*
X111952379Y-107165123D01*
X111952379Y-107165123D02*
X111857141Y-107069885D01*
X111857141Y-107069885D02*
X111761903Y-106879409D01*
X111761903Y-106879409D02*
X111761903Y-106593695D01*
X111761903Y-106593695D02*
X111857141Y-106403219D01*
X111857141Y-106403219D02*
X111952379Y-106307980D01*
X111952379Y-106307980D02*
X112142855Y-106212742D01*
X112142855Y-106212742D02*
X112904760Y-106212742D01*
D10*
X85645050Y-125457761D02*
X84502193Y-125457761D01*
X85073622Y-123457761D02*
X85073622Y-125457761D01*
X83930764Y-124029190D02*
X82978383Y-124029190D01*
X84121240Y-123457761D02*
X83454574Y-125457761D01*
X83454574Y-125457761D02*
X82787907Y-123457761D01*
X82121240Y-123457761D02*
X82121240Y-125457761D01*
X82121240Y-125457761D02*
X80978383Y-123457761D01*
X80978383Y-123457761D02*
X80978383Y-125457761D01*
X80026002Y-123457761D02*
X80026002Y-125457761D01*
X78883145Y-123457761D02*
X79740288Y-124600619D01*
X78883145Y-125457761D02*
X80026002Y-124314904D01*
X75359335Y-123648238D02*
X75454573Y-123553000D01*
X75454573Y-123553000D02*
X75740287Y-123457761D01*
X75740287Y-123457761D02*
X75930763Y-123457761D01*
X75930763Y-123457761D02*
X76216478Y-123553000D01*
X76216478Y-123553000D02*
X76406954Y-123743476D01*
X76406954Y-123743476D02*
X76502192Y-123933952D01*
X76502192Y-123933952D02*
X76597430Y-124314904D01*
X76597430Y-124314904D02*
X76597430Y-124600619D01*
X76597430Y-124600619D02*
X76502192Y-124981571D01*
X76502192Y-124981571D02*
X76406954Y-125172047D01*
X76406954Y-125172047D02*
X76216478Y-125362523D01*
X76216478Y-125362523D02*
X75930763Y-125457761D01*
X75930763Y-125457761D02*
X75740287Y-125457761D01*
X75740287Y-125457761D02*
X75454573Y-125362523D01*
X75454573Y-125362523D02*
X75359335Y-125267285D01*
X74597430Y-124029190D02*
X73645049Y-124029190D01*
X74787906Y-123457761D02*
X74121240Y-125457761D01*
X74121240Y-125457761D02*
X73454573Y-123457761D01*
X72787906Y-123457761D02*
X72787906Y-125457761D01*
X72787906Y-125457761D02*
X72026001Y-125457761D01*
X72026001Y-125457761D02*
X71835525Y-125362523D01*
X71835525Y-125362523D02*
X71740287Y-125267285D01*
X71740287Y-125267285D02*
X71645049Y-125076809D01*
X71645049Y-125076809D02*
X71645049Y-124791095D01*
X71645049Y-124791095D02*
X71740287Y-124600619D01*
X71740287Y-124600619D02*
X71835525Y-124505380D01*
X71835525Y-124505380D02*
X72026001Y-124410142D01*
X72026001Y-124410142D02*
X72787906Y-124410142D01*
X133353000Y-132545425D02*
X133257761Y-132831139D01*
X133257761Y-132831139D02*
X133257761Y-133307330D01*
X133257761Y-133307330D02*
X133353000Y-133497806D01*
X133353000Y-133497806D02*
X133448238Y-133593044D01*
X133448238Y-133593044D02*
X133638714Y-133688282D01*
X133638714Y-133688282D02*
X133829190Y-133688282D01*
X133829190Y-133688282D02*
X134019666Y-133593044D01*
X134019666Y-133593044D02*
X134114904Y-133497806D01*
X134114904Y-133497806D02*
X134210142Y-133307330D01*
X134210142Y-133307330D02*
X134305380Y-132926377D01*
X134305380Y-132926377D02*
X134400619Y-132735901D01*
X134400619Y-132735901D02*
X134495857Y-132640663D01*
X134495857Y-132640663D02*
X134686333Y-132545425D01*
X134686333Y-132545425D02*
X134876809Y-132545425D01*
X134876809Y-132545425D02*
X135067285Y-132640663D01*
X135067285Y-132640663D02*
X135162523Y-132735901D01*
X135162523Y-132735901D02*
X135257761Y-132926377D01*
X135257761Y-132926377D02*
X135257761Y-133402568D01*
X135257761Y-133402568D02*
X135162523Y-133688282D01*
X135257761Y-134259711D02*
X135257761Y-135402568D01*
X133257761Y-134831139D02*
X135257761Y-134831139D01*
X133257761Y-137212092D02*
X134210142Y-136545425D01*
X133257761Y-136069235D02*
X135257761Y-136069235D01*
X135257761Y-136069235D02*
X135257761Y-136831140D01*
X135257761Y-136831140D02*
X135162523Y-137021616D01*
X135162523Y-137021616D02*
X135067285Y-137116854D01*
X135067285Y-137116854D02*
X134876809Y-137212092D01*
X134876809Y-137212092D02*
X134591095Y-137212092D01*
X134591095Y-137212092D02*
X134400619Y-137116854D01*
X134400619Y-137116854D02*
X134305380Y-137021616D01*
X134305380Y-137021616D02*
X134210142Y-136831140D01*
X134210142Y-136831140D02*
X134210142Y-136069235D01*
X133257761Y-138069235D02*
X135257761Y-138069235D01*
X133257761Y-139021616D02*
X135257761Y-139021616D01*
X133257761Y-140164473D02*
X134400619Y-139307330D01*
X135257761Y-140164473D02*
X134114904Y-139021616D01*
X134305380Y-141021616D02*
X134305380Y-141688283D01*
X133257761Y-141973997D02*
X133257761Y-141021616D01*
X133257761Y-141021616D02*
X135257761Y-141021616D01*
X135257761Y-141021616D02*
X135257761Y-141973997D01*
X133257761Y-143973997D02*
X134210142Y-143307330D01*
X133257761Y-142831140D02*
X135257761Y-142831140D01*
X135257761Y-142831140D02*
X135257761Y-143593045D01*
X135257761Y-143593045D02*
X135162523Y-143783521D01*
X135162523Y-143783521D02*
X135067285Y-143878759D01*
X135067285Y-143878759D02*
X134876809Y-143973997D01*
X134876809Y-143973997D02*
X134591095Y-143973997D01*
X134591095Y-143973997D02*
X134400619Y-143878759D01*
X134400619Y-143878759D02*
X134305380Y-143783521D01*
X134305380Y-143783521D02*
X134210142Y-143593045D01*
X134210142Y-143593045D02*
X134210142Y-142831140D01*
D13*
X116359774Y-114299171D02*
X116074060Y-114299171D01*
X116074060Y-114299171D02*
X115931203Y-114227742D01*
X115931203Y-114227742D02*
X115788346Y-114084885D01*
X115788346Y-114084885D02*
X115716917Y-113799171D01*
X115716917Y-113799171D02*
X115716917Y-113299171D01*
X115716917Y-113299171D02*
X115788346Y-113013457D01*
X115788346Y-113013457D02*
X115931203Y-112870600D01*
X115931203Y-112870600D02*
X116074060Y-112799171D01*
X116074060Y-112799171D02*
X116359774Y-112799171D01*
X116359774Y-112799171D02*
X116502632Y-112870600D01*
X116502632Y-112870600D02*
X116645489Y-113013457D01*
X116645489Y-113013457D02*
X116716917Y-113299171D01*
X116716917Y-113299171D02*
X116716917Y-113799171D01*
X116716917Y-113799171D02*
X116645489Y-114084885D01*
X116645489Y-114084885D02*
X116502632Y-114227742D01*
X116502632Y-114227742D02*
X116359774Y-114299171D01*
X115145488Y-112870600D02*
X114931203Y-112799171D01*
X114931203Y-112799171D02*
X114574060Y-112799171D01*
X114574060Y-112799171D02*
X114431203Y-112870600D01*
X114431203Y-112870600D02*
X114359774Y-112942028D01*
X114359774Y-112942028D02*
X114288345Y-113084885D01*
X114288345Y-113084885D02*
X114288345Y-113227742D01*
X114288345Y-113227742D02*
X114359774Y-113370600D01*
X114359774Y-113370600D02*
X114431203Y-113442028D01*
X114431203Y-113442028D02*
X114574060Y-113513457D01*
X114574060Y-113513457D02*
X114859774Y-113584885D01*
X114859774Y-113584885D02*
X115002631Y-113656314D01*
X115002631Y-113656314D02*
X115074060Y-113727742D01*
X115074060Y-113727742D02*
X115145488Y-113870600D01*
X115145488Y-113870600D02*
X115145488Y-114013457D01*
X115145488Y-114013457D02*
X115074060Y-114156314D01*
X115074060Y-114156314D02*
X115002631Y-114227742D01*
X115002631Y-114227742D02*
X114859774Y-114299171D01*
X114859774Y-114299171D02*
X114502631Y-114299171D01*
X114502631Y-114299171D02*
X114288345Y-114227742D01*
X112788346Y-112942028D02*
X112859774Y-112870600D01*
X112859774Y-112870600D02*
X113074060Y-112799171D01*
X113074060Y-112799171D02*
X113216917Y-112799171D01*
X113216917Y-112799171D02*
X113431203Y-112870600D01*
X113431203Y-112870600D02*
X113574060Y-113013457D01*
X113574060Y-113013457D02*
X113645489Y-113156314D01*
X113645489Y-113156314D02*
X113716917Y-113442028D01*
X113716917Y-113442028D02*
X113716917Y-113656314D01*
X113716917Y-113656314D02*
X113645489Y-113942028D01*
X113645489Y-113942028D02*
X113574060Y-114084885D01*
X113574060Y-114084885D02*
X113431203Y-114227742D01*
X113431203Y-114227742D02*
X113216917Y-114299171D01*
X113216917Y-114299171D02*
X113074060Y-114299171D01*
X113074060Y-114299171D02*
X112859774Y-114227742D01*
X112859774Y-114227742D02*
X112788346Y-114156314D01*
D10*
X142711717Y-66677649D02*
X143854574Y-66677649D01*
X143283146Y-66677649D02*
X143283146Y-68677649D01*
X143283146Y-68677649D02*
X143473622Y-68391935D01*
X143473622Y-68391935D02*
X143664098Y-68201459D01*
X143664098Y-68201459D02*
X143854574Y-68106221D01*
X140902193Y-68677649D02*
X141854574Y-68677649D01*
X141854574Y-68677649D02*
X141949812Y-67725268D01*
X141949812Y-67725268D02*
X141854574Y-67820507D01*
X141854574Y-67820507D02*
X141664098Y-67915745D01*
X141664098Y-67915745D02*
X141187907Y-67915745D01*
X141187907Y-67915745D02*
X140997431Y-67820507D01*
X140997431Y-67820507D02*
X140902193Y-67725268D01*
X140902193Y-67725268D02*
X140806955Y-67534792D01*
X140806955Y-67534792D02*
X140806955Y-67058602D01*
X140806955Y-67058602D02*
X140902193Y-66868126D01*
X140902193Y-66868126D02*
X140997431Y-66772888D01*
X140997431Y-66772888D02*
X141187907Y-66677649D01*
X141187907Y-66677649D02*
X141664098Y-66677649D01*
X141664098Y-66677649D02*
X141854574Y-66772888D01*
X141854574Y-66772888D02*
X141949812Y-66868126D01*
X139949812Y-67439554D02*
X138426003Y-67439554D01*
X143854574Y-65267285D02*
X143759336Y-65362523D01*
X143759336Y-65362523D02*
X143568860Y-65457761D01*
X143568860Y-65457761D02*
X143092669Y-65457761D01*
X143092669Y-65457761D02*
X142902193Y-65362523D01*
X142902193Y-65362523D02*
X142806955Y-65267285D01*
X142806955Y-65267285D02*
X142711717Y-65076809D01*
X142711717Y-65076809D02*
X142711717Y-64886333D01*
X142711717Y-64886333D02*
X142806955Y-64600619D01*
X142806955Y-64600619D02*
X143949812Y-63457761D01*
X143949812Y-63457761D02*
X142711717Y-63457761D01*
X140997431Y-64791095D02*
X140997431Y-63457761D01*
X141473622Y-65553000D02*
X141949812Y-64124428D01*
X141949812Y-64124428D02*
X140711717Y-64124428D01*
X140235526Y-65457761D02*
X139568860Y-63457761D01*
X139568860Y-63457761D02*
X138902193Y-65457761D01*
D13*
X119142856Y-102029003D02*
X119642856Y-102743289D01*
X119999999Y-102029003D02*
X119999999Y-103529003D01*
X119999999Y-103529003D02*
X119428570Y-103529003D01*
X119428570Y-103529003D02*
X119285713Y-103457574D01*
X119285713Y-103457574D02*
X119214284Y-103386146D01*
X119214284Y-103386146D02*
X119142856Y-103243289D01*
X119142856Y-103243289D02*
X119142856Y-103029003D01*
X119142856Y-103029003D02*
X119214284Y-102886146D01*
X119214284Y-102886146D02*
X119285713Y-102814717D01*
X119285713Y-102814717D02*
X119428570Y-102743289D01*
X119428570Y-102743289D02*
X119999999Y-102743289D01*
X118499999Y-102814717D02*
X117999999Y-102814717D01*
X117785713Y-102029003D02*
X118499999Y-102029003D01*
X118499999Y-102029003D02*
X118499999Y-103529003D01*
X118499999Y-103529003D02*
X117785713Y-103529003D01*
X117357141Y-103529003D02*
X116857141Y-102029003D01*
X116857141Y-102029003D02*
X116357141Y-103529003D01*
X114071428Y-103029003D02*
X114071428Y-102029003D01*
X114428570Y-103600432D02*
X114785713Y-102529003D01*
X114785713Y-102529003D02*
X113857142Y-102529003D01*
X122249998Y-101114087D02*
X122249998Y-100042658D01*
X122249998Y-100042658D02*
X122321427Y-99828373D01*
X122321427Y-99828373D02*
X122464284Y-99685516D01*
X122464284Y-99685516D02*
X122678570Y-99614087D01*
X122678570Y-99614087D02*
X122821427Y-99614087D01*
X121535713Y-101114087D02*
X121535713Y-99899801D01*
X121535713Y-99899801D02*
X121464284Y-99756944D01*
X121464284Y-99756944D02*
X121392856Y-99685516D01*
X121392856Y-99685516D02*
X121249998Y-99614087D01*
X121249998Y-99614087D02*
X120964284Y-99614087D01*
X120964284Y-99614087D02*
X120821427Y-99685516D01*
X120821427Y-99685516D02*
X120749998Y-99756944D01*
X120749998Y-99756944D02*
X120678570Y-99899801D01*
X120678570Y-99899801D02*
X120678570Y-101114087D01*
X119249998Y-99614087D02*
X119964284Y-99614087D01*
X119964284Y-99614087D02*
X119964284Y-101114087D01*
X118464283Y-100328373D02*
X118464283Y-99614087D01*
X118964283Y-101114087D02*
X118464283Y-100328373D01*
X118464283Y-100328373D02*
X117964283Y-101114087D01*
X116392855Y-100971230D02*
X116321427Y-101042658D01*
X116321427Y-101042658D02*
X116178570Y-101114087D01*
X116178570Y-101114087D02*
X115821427Y-101114087D01*
X115821427Y-101114087D02*
X115678570Y-101042658D01*
X115678570Y-101042658D02*
X115607141Y-100971230D01*
X115607141Y-100971230D02*
X115535712Y-100828373D01*
X115535712Y-100828373D02*
X115535712Y-100685516D01*
X115535712Y-100685516D02*
X115607141Y-100471230D01*
X115607141Y-100471230D02*
X116464284Y-99614087D01*
X116464284Y-99614087D02*
X115535712Y-99614087D01*
X114607141Y-101114087D02*
X114464284Y-101114087D01*
X114464284Y-101114087D02*
X114321427Y-101042658D01*
X114321427Y-101042658D02*
X114249999Y-100971230D01*
X114249999Y-100971230D02*
X114178570Y-100828373D01*
X114178570Y-100828373D02*
X114107141Y-100542658D01*
X114107141Y-100542658D02*
X114107141Y-100185516D01*
X114107141Y-100185516D02*
X114178570Y-99899801D01*
X114178570Y-99899801D02*
X114249999Y-99756944D01*
X114249999Y-99756944D02*
X114321427Y-99685516D01*
X114321427Y-99685516D02*
X114464284Y-99614087D01*
X114464284Y-99614087D02*
X114607141Y-99614087D01*
X114607141Y-99614087D02*
X114749999Y-99685516D01*
X114749999Y-99685516D02*
X114821427Y-99756944D01*
X114821427Y-99756944D02*
X114892856Y-99899801D01*
X114892856Y-99899801D02*
X114964284Y-100185516D01*
X114964284Y-100185516D02*
X114964284Y-100542658D01*
X114964284Y-100542658D02*
X114892856Y-100828373D01*
X114892856Y-100828373D02*
X114821427Y-100971230D01*
X114821427Y-100971230D02*
X114749999Y-101042658D01*
X114749999Y-101042658D02*
X114607141Y-101114087D01*
X113535713Y-100971230D02*
X113464285Y-101042658D01*
X113464285Y-101042658D02*
X113321428Y-101114087D01*
X113321428Y-101114087D02*
X112964285Y-101114087D01*
X112964285Y-101114087D02*
X112821428Y-101042658D01*
X112821428Y-101042658D02*
X112749999Y-100971230D01*
X112749999Y-100971230D02*
X112678570Y-100828373D01*
X112678570Y-100828373D02*
X112678570Y-100685516D01*
X112678570Y-100685516D02*
X112749999Y-100471230D01*
X112749999Y-100471230D02*
X113607142Y-99614087D01*
X113607142Y-99614087D02*
X112678570Y-99614087D01*
X111321428Y-101114087D02*
X112035714Y-101114087D01*
X112035714Y-101114087D02*
X112107142Y-100399801D01*
X112107142Y-100399801D02*
X112035714Y-100471230D01*
X112035714Y-100471230D02*
X111892857Y-100542658D01*
X111892857Y-100542658D02*
X111535714Y-100542658D01*
X111535714Y-100542658D02*
X111392857Y-100471230D01*
X111392857Y-100471230D02*
X111321428Y-100399801D01*
X111321428Y-100399801D02*
X111249999Y-100256944D01*
X111249999Y-100256944D02*
X111249999Y-99899801D01*
X111249999Y-99899801D02*
X111321428Y-99756944D01*
X111321428Y-99756944D02*
X111392857Y-99685516D01*
X111392857Y-99685516D02*
X111535714Y-99614087D01*
X111535714Y-99614087D02*
X111892857Y-99614087D01*
X111892857Y-99614087D02*
X112035714Y-99685516D01*
X112035714Y-99685516D02*
X112107142Y-99756944D01*
X120928572Y-97984885D02*
X120428572Y-97984885D01*
X120214286Y-97199171D02*
X120928572Y-97199171D01*
X120928572Y-97199171D02*
X120928572Y-98699171D01*
X120928572Y-98699171D02*
X120214286Y-98699171D01*
X119571429Y-97342028D02*
X119500000Y-97270600D01*
X119500000Y-97270600D02*
X119571429Y-97199171D01*
X119571429Y-97199171D02*
X119642857Y-97270600D01*
X119642857Y-97270600D02*
X119571429Y-97342028D01*
X119571429Y-97342028D02*
X119571429Y-97199171D01*
X116857143Y-97342028D02*
X116928571Y-97270600D01*
X116928571Y-97270600D02*
X117142857Y-97199171D01*
X117142857Y-97199171D02*
X117285714Y-97199171D01*
X117285714Y-97199171D02*
X117500000Y-97270600D01*
X117500000Y-97270600D02*
X117642857Y-97413457D01*
X117642857Y-97413457D02*
X117714286Y-97556314D01*
X117714286Y-97556314D02*
X117785714Y-97842028D01*
X117785714Y-97842028D02*
X117785714Y-98056314D01*
X117785714Y-98056314D02*
X117714286Y-98342028D01*
X117714286Y-98342028D02*
X117642857Y-98484885D01*
X117642857Y-98484885D02*
X117500000Y-98627742D01*
X117500000Y-98627742D02*
X117285714Y-98699171D01*
X117285714Y-98699171D02*
X117142857Y-98699171D01*
X117142857Y-98699171D02*
X116928571Y-98627742D01*
X116928571Y-98627742D02*
X116857143Y-98556314D01*
X116214286Y-97199171D02*
X116214286Y-98699171D01*
X116214286Y-97984885D02*
X115357143Y-97984885D01*
X115357143Y-97199171D02*
X115357143Y-98699171D01*
X114642857Y-97199171D02*
X114642857Y-98699171D01*
X113928571Y-98699171D02*
X113928571Y-97484885D01*
X113928571Y-97484885D02*
X113857142Y-97342028D01*
X113857142Y-97342028D02*
X113785714Y-97270600D01*
X113785714Y-97270600D02*
X113642856Y-97199171D01*
X113642856Y-97199171D02*
X113357142Y-97199171D01*
X113357142Y-97199171D02*
X113214285Y-97270600D01*
X113214285Y-97270600D02*
X113142856Y-97342028D01*
X113142856Y-97342028D02*
X113071428Y-97484885D01*
X113071428Y-97484885D02*
X113071428Y-98699171D01*
D12*
X118263220Y-129450068D02*
X118263220Y-130450068D01*
X117263221Y-130402449D02*
X117358459Y-130450068D01*
X117358459Y-130450068D02*
X117501316Y-130450068D01*
X117501316Y-130450068D02*
X117644173Y-130402449D01*
X117644173Y-130402449D02*
X117739411Y-130307211D01*
X117739411Y-130307211D02*
X117787030Y-130211973D01*
X117787030Y-130211973D02*
X117834649Y-130021497D01*
X117834649Y-130021497D02*
X117834649Y-129878640D01*
X117834649Y-129878640D02*
X117787030Y-129688164D01*
X117787030Y-129688164D02*
X117739411Y-129592926D01*
X117739411Y-129592926D02*
X117644173Y-129497688D01*
X117644173Y-129497688D02*
X117501316Y-129450068D01*
X117501316Y-129450068D02*
X117406078Y-129450068D01*
X117406078Y-129450068D02*
X117263221Y-129497688D01*
X117263221Y-129497688D02*
X117215602Y-129545307D01*
X117215602Y-129545307D02*
X117215602Y-129878640D01*
X117215602Y-129878640D02*
X117406078Y-129878640D01*
X116787030Y-129450068D02*
X116787030Y-130450068D01*
X116787030Y-130450068D02*
X116215602Y-129450068D01*
X116215602Y-129450068D02*
X116215602Y-130450068D01*
X115739411Y-129450068D02*
X115739411Y-130450068D01*
X115406078Y-130450068D02*
X114834650Y-130450068D01*
X115120364Y-129450068D02*
X115120364Y-130450068D01*
X114501316Y-129973878D02*
X114167983Y-129973878D01*
X114025126Y-129450068D02*
X114501316Y-129450068D01*
X114501316Y-129450068D02*
X114501316Y-130450068D01*
X114501316Y-130450068D02*
X114025126Y-130450068D01*
X113025126Y-129450068D02*
X113358459Y-129926259D01*
X113596554Y-129450068D02*
X113596554Y-130450068D01*
X113596554Y-130450068D02*
X113215602Y-130450068D01*
X113215602Y-130450068D02*
X113120364Y-130402449D01*
X113120364Y-130402449D02*
X113072745Y-130354830D01*
X113072745Y-130354830D02*
X113025126Y-130259592D01*
X113025126Y-130259592D02*
X113025126Y-130116735D01*
X113025126Y-130116735D02*
X113072745Y-130021497D01*
X113072745Y-130021497D02*
X113120364Y-129973878D01*
X113120364Y-129973878D02*
X113215602Y-129926259D01*
X113215602Y-129926259D02*
X113596554Y-129926259D01*
X118263220Y-127840124D02*
X118263220Y-128840124D01*
X118263220Y-128840124D02*
X118025125Y-128840124D01*
X118025125Y-128840124D02*
X117882268Y-128792505D01*
X117882268Y-128792505D02*
X117787030Y-128697267D01*
X117787030Y-128697267D02*
X117739411Y-128602029D01*
X117739411Y-128602029D02*
X117691792Y-128411553D01*
X117691792Y-128411553D02*
X117691792Y-128268696D01*
X117691792Y-128268696D02*
X117739411Y-128078220D01*
X117739411Y-128078220D02*
X117787030Y-127982982D01*
X117787030Y-127982982D02*
X117882268Y-127887744D01*
X117882268Y-127887744D02*
X118025125Y-127840124D01*
X118025125Y-127840124D02*
X118263220Y-127840124D01*
X117263220Y-128363934D02*
X116929887Y-128363934D01*
X116787030Y-127840124D02*
X117263220Y-127840124D01*
X117263220Y-127840124D02*
X117263220Y-128840124D01*
X117263220Y-128840124D02*
X116787030Y-128840124D01*
X116406077Y-127887744D02*
X116263220Y-127840124D01*
X116263220Y-127840124D02*
X116025125Y-127840124D01*
X116025125Y-127840124D02*
X115929887Y-127887744D01*
X115929887Y-127887744D02*
X115882268Y-127935363D01*
X115882268Y-127935363D02*
X115834649Y-128030601D01*
X115834649Y-128030601D02*
X115834649Y-128125839D01*
X115834649Y-128125839D02*
X115882268Y-128221077D01*
X115882268Y-128221077D02*
X115929887Y-128268696D01*
X115929887Y-128268696D02*
X116025125Y-128316315D01*
X116025125Y-128316315D02*
X116215601Y-128363934D01*
X116215601Y-128363934D02*
X116310839Y-128411553D01*
X116310839Y-128411553D02*
X116358458Y-128459172D01*
X116358458Y-128459172D02*
X116406077Y-128554410D01*
X116406077Y-128554410D02*
X116406077Y-128649648D01*
X116406077Y-128649648D02*
X116358458Y-128744886D01*
X116358458Y-128744886D02*
X116310839Y-128792505D01*
X116310839Y-128792505D02*
X116215601Y-128840124D01*
X116215601Y-128840124D02*
X115977506Y-128840124D01*
X115977506Y-128840124D02*
X115834649Y-128792505D01*
X115406077Y-127840124D02*
X115406077Y-128840124D01*
X114406078Y-128792505D02*
X114501316Y-128840124D01*
X114501316Y-128840124D02*
X114644173Y-128840124D01*
X114644173Y-128840124D02*
X114787030Y-128792505D01*
X114787030Y-128792505D02*
X114882268Y-128697267D01*
X114882268Y-128697267D02*
X114929887Y-128602029D01*
X114929887Y-128602029D02*
X114977506Y-128411553D01*
X114977506Y-128411553D02*
X114977506Y-128268696D01*
X114977506Y-128268696D02*
X114929887Y-128078220D01*
X114929887Y-128078220D02*
X114882268Y-127982982D01*
X114882268Y-127982982D02*
X114787030Y-127887744D01*
X114787030Y-127887744D02*
X114644173Y-127840124D01*
X114644173Y-127840124D02*
X114548935Y-127840124D01*
X114548935Y-127840124D02*
X114406078Y-127887744D01*
X114406078Y-127887744D02*
X114358459Y-127935363D01*
X114358459Y-127935363D02*
X114358459Y-128268696D01*
X114358459Y-128268696D02*
X114548935Y-128268696D01*
X113929887Y-127840124D02*
X113929887Y-128840124D01*
X113929887Y-128840124D02*
X113358459Y-127840124D01*
X113358459Y-127840124D02*
X113358459Y-128840124D01*
X111787030Y-128363934D02*
X111644173Y-128316315D01*
X111644173Y-128316315D02*
X111596554Y-128268696D01*
X111596554Y-128268696D02*
X111548935Y-128173458D01*
X111548935Y-128173458D02*
X111548935Y-128030601D01*
X111548935Y-128030601D02*
X111596554Y-127935363D01*
X111596554Y-127935363D02*
X111644173Y-127887744D01*
X111644173Y-127887744D02*
X111739411Y-127840124D01*
X111739411Y-127840124D02*
X112120363Y-127840124D01*
X112120363Y-127840124D02*
X112120363Y-128840124D01*
X112120363Y-128840124D02*
X111787030Y-128840124D01*
X111787030Y-128840124D02*
X111691792Y-128792505D01*
X111691792Y-128792505D02*
X111644173Y-128744886D01*
X111644173Y-128744886D02*
X111596554Y-128649648D01*
X111596554Y-128649648D02*
X111596554Y-128554410D01*
X111596554Y-128554410D02*
X111644173Y-128459172D01*
X111644173Y-128459172D02*
X111691792Y-128411553D01*
X111691792Y-128411553D02*
X111787030Y-128363934D01*
X111787030Y-128363934D02*
X112120363Y-128363934D01*
X110929887Y-128316315D02*
X110929887Y-127840124D01*
X111263220Y-128840124D02*
X110929887Y-128316315D01*
X110929887Y-128316315D02*
X110596554Y-128840124D01*
X117644173Y-126706371D02*
X117691792Y-126753990D01*
X117691792Y-126753990D02*
X117787030Y-126801609D01*
X117787030Y-126801609D02*
X117882268Y-126801609D01*
X117882268Y-126801609D02*
X117977506Y-126753990D01*
X117977506Y-126753990D02*
X118025125Y-126706371D01*
X118025125Y-126706371D02*
X118072744Y-126611133D01*
X118072744Y-126611133D02*
X118072744Y-126515895D01*
X118072744Y-126515895D02*
X118025125Y-126420657D01*
X118025125Y-126420657D02*
X117977506Y-126373038D01*
X117977506Y-126373038D02*
X117882268Y-126325419D01*
X117882268Y-126325419D02*
X117787030Y-126325419D01*
X117787030Y-126325419D02*
X117691792Y-126373038D01*
X117691792Y-126373038D02*
X117644173Y-126420657D01*
X117644173Y-126801609D02*
X117644173Y-126420657D01*
X117644173Y-126420657D02*
X117596554Y-126373038D01*
X117596554Y-126373038D02*
X117548935Y-126373038D01*
X117548935Y-126373038D02*
X117453696Y-126420657D01*
X117453696Y-126420657D02*
X117406077Y-126515895D01*
X117406077Y-126515895D02*
X117406077Y-126753990D01*
X117406077Y-126753990D02*
X117501316Y-126896847D01*
X117501316Y-126896847D02*
X117644173Y-126992085D01*
X117644173Y-126992085D02*
X117834649Y-127039704D01*
X117834649Y-127039704D02*
X118025125Y-126992085D01*
X118025125Y-126992085D02*
X118167982Y-126896847D01*
X118167982Y-126896847D02*
X118263220Y-126753990D01*
X118263220Y-126753990D02*
X118310839Y-126563514D01*
X118310839Y-126563514D02*
X118263220Y-126373038D01*
X118263220Y-126373038D02*
X118167982Y-126230180D01*
X118167982Y-126230180D02*
X118025125Y-126134942D01*
X118025125Y-126134942D02*
X117834649Y-126087323D01*
X117834649Y-126087323D02*
X117644173Y-126134942D01*
X117644173Y-126134942D02*
X117501316Y-126230180D01*
X116501316Y-126230180D02*
X116977506Y-126230180D01*
X116977506Y-126230180D02*
X116977506Y-127230180D01*
X116310839Y-127230180D02*
X115739411Y-127230180D01*
X116025125Y-126230180D02*
X116025125Y-127230180D01*
X115501315Y-127230180D02*
X115263220Y-126230180D01*
X115263220Y-126230180D02*
X115072744Y-126944466D01*
X115072744Y-126944466D02*
X114882268Y-126230180D01*
X114882268Y-126230180D02*
X114644173Y-127230180D01*
X114263220Y-126230180D02*
X114263220Y-127230180D01*
X113787030Y-126230180D02*
X113787030Y-127230180D01*
X113787030Y-127230180D02*
X113215602Y-126230180D01*
X113215602Y-126230180D02*
X113215602Y-127230180D01*
X112596554Y-126801609D02*
X112691792Y-126849228D01*
X112691792Y-126849228D02*
X112739411Y-126896847D01*
X112739411Y-126896847D02*
X112787030Y-126992085D01*
X112787030Y-126992085D02*
X112787030Y-127039704D01*
X112787030Y-127039704D02*
X112739411Y-127134942D01*
X112739411Y-127134942D02*
X112691792Y-127182561D01*
X112691792Y-127182561D02*
X112596554Y-127230180D01*
X112596554Y-127230180D02*
X112406078Y-127230180D01*
X112406078Y-127230180D02*
X112310840Y-127182561D01*
X112310840Y-127182561D02*
X112263221Y-127134942D01*
X112263221Y-127134942D02*
X112215602Y-127039704D01*
X112215602Y-127039704D02*
X112215602Y-126992085D01*
X112215602Y-126992085D02*
X112263221Y-126896847D01*
X112263221Y-126896847D02*
X112310840Y-126849228D01*
X112310840Y-126849228D02*
X112406078Y-126801609D01*
X112406078Y-126801609D02*
X112596554Y-126801609D01*
X112596554Y-126801609D02*
X112691792Y-126753990D01*
X112691792Y-126753990D02*
X112739411Y-126706371D01*
X112739411Y-126706371D02*
X112787030Y-126611133D01*
X112787030Y-126611133D02*
X112787030Y-126420657D01*
X112787030Y-126420657D02*
X112739411Y-126325419D01*
X112739411Y-126325419D02*
X112691792Y-126277800D01*
X112691792Y-126277800D02*
X112596554Y-126230180D01*
X112596554Y-126230180D02*
X112406078Y-126230180D01*
X112406078Y-126230180D02*
X112310840Y-126277800D01*
X112310840Y-126277800D02*
X112263221Y-126325419D01*
X112263221Y-126325419D02*
X112215602Y-126420657D01*
X112215602Y-126420657D02*
X112215602Y-126611133D01*
X112215602Y-126611133D02*
X112263221Y-126706371D01*
X112263221Y-126706371D02*
X112310840Y-126753990D01*
X112310840Y-126753990D02*
X112406078Y-126801609D01*
D10*
X100916479Y-123048238D02*
X101011717Y-122953000D01*
X101011717Y-122953000D02*
X101297431Y-122857761D01*
X101297431Y-122857761D02*
X101487907Y-122857761D01*
X101487907Y-122857761D02*
X101773622Y-122953000D01*
X101773622Y-122953000D02*
X101964098Y-123143476D01*
X101964098Y-123143476D02*
X102059336Y-123333952D01*
X102059336Y-123333952D02*
X102154574Y-123714904D01*
X102154574Y-123714904D02*
X102154574Y-124000619D01*
X102154574Y-124000619D02*
X102059336Y-124381571D01*
X102059336Y-124381571D02*
X101964098Y-124572047D01*
X101964098Y-124572047D02*
X101773622Y-124762523D01*
X101773622Y-124762523D02*
X101487907Y-124857761D01*
X101487907Y-124857761D02*
X101297431Y-124857761D01*
X101297431Y-124857761D02*
X101011717Y-124762523D01*
X101011717Y-124762523D02*
X100916479Y-124667285D01*
X99678384Y-124857761D02*
X99297431Y-124857761D01*
X99297431Y-124857761D02*
X99106955Y-124762523D01*
X99106955Y-124762523D02*
X98916479Y-124572047D01*
X98916479Y-124572047D02*
X98821241Y-124191095D01*
X98821241Y-124191095D02*
X98821241Y-123524428D01*
X98821241Y-123524428D02*
X98916479Y-123143476D01*
X98916479Y-123143476D02*
X99106955Y-122953000D01*
X99106955Y-122953000D02*
X99297431Y-122857761D01*
X99297431Y-122857761D02*
X99678384Y-122857761D01*
X99678384Y-122857761D02*
X99868860Y-122953000D01*
X99868860Y-122953000D02*
X100059336Y-123143476D01*
X100059336Y-123143476D02*
X100154574Y-123524428D01*
X100154574Y-123524428D02*
X100154574Y-124191095D01*
X100154574Y-124191095D02*
X100059336Y-124572047D01*
X100059336Y-124572047D02*
X99868860Y-124762523D01*
X99868860Y-124762523D02*
X99678384Y-124857761D01*
X97964098Y-122857761D02*
X97964098Y-124857761D01*
X96059336Y-122857761D02*
X97011717Y-122857761D01*
X97011717Y-122857761D02*
X97011717Y-124857761D01*
D12*
X122202438Y-143614285D02*
X122154819Y-143709523D01*
X122154819Y-143709523D02*
X122154819Y-143852380D01*
X122154819Y-143852380D02*
X122202438Y-143995237D01*
X122202438Y-143995237D02*
X122297676Y-144090475D01*
X122297676Y-144090475D02*
X122392914Y-144138094D01*
X122392914Y-144138094D02*
X122583390Y-144185713D01*
X122583390Y-144185713D02*
X122726247Y-144185713D01*
X122726247Y-144185713D02*
X122916723Y-144138094D01*
X122916723Y-144138094D02*
X123011961Y-144090475D01*
X123011961Y-144090475D02*
X123107200Y-143995237D01*
X123107200Y-143995237D02*
X123154819Y-143852380D01*
X123154819Y-143852380D02*
X123154819Y-143757142D01*
X123154819Y-143757142D02*
X123107200Y-143614285D01*
X123107200Y-143614285D02*
X123059580Y-143566666D01*
X123059580Y-143566666D02*
X122726247Y-143566666D01*
X122726247Y-143566666D02*
X122726247Y-143757142D01*
X123154819Y-143138094D02*
X122154819Y-143138094D01*
X122154819Y-143138094D02*
X122154819Y-142899999D01*
X122154819Y-142899999D02*
X122202438Y-142757142D01*
X122202438Y-142757142D02*
X122297676Y-142661904D01*
X122297676Y-142661904D02*
X122392914Y-142614285D01*
X122392914Y-142614285D02*
X122583390Y-142566666D01*
X122583390Y-142566666D02*
X122726247Y-142566666D01*
X122726247Y-142566666D02*
X122916723Y-142614285D01*
X122916723Y-142614285D02*
X123011961Y-142661904D01*
X123011961Y-142661904D02*
X123107200Y-142757142D01*
X123107200Y-142757142D02*
X123154819Y-142899999D01*
X123154819Y-142899999D02*
X123154819Y-143138094D01*
X123154819Y-141614285D02*
X123154819Y-142185713D01*
X123154819Y-141899999D02*
X122154819Y-141899999D01*
X122154819Y-141899999D02*
X122297676Y-141995237D01*
X122297676Y-141995237D02*
X122392914Y-142090475D01*
X122392914Y-142090475D02*
X122440533Y-142185713D01*
X109686905Y-120154819D02*
X109686905Y-119154819D01*
X109686905Y-119154819D02*
X109925000Y-119154819D01*
X109925000Y-119154819D02*
X110067857Y-119202438D01*
X110067857Y-119202438D02*
X110163095Y-119297676D01*
X110163095Y-119297676D02*
X110210714Y-119392914D01*
X110210714Y-119392914D02*
X110258333Y-119583390D01*
X110258333Y-119583390D02*
X110258333Y-119726247D01*
X110258333Y-119726247D02*
X110210714Y-119916723D01*
X110210714Y-119916723D02*
X110163095Y-120011961D01*
X110163095Y-120011961D02*
X110067857Y-120107200D01*
X110067857Y-120107200D02*
X109925000Y-120154819D01*
X109925000Y-120154819D02*
X109686905Y-120154819D01*
X110591667Y-119154819D02*
X111210714Y-119154819D01*
X111210714Y-119154819D02*
X110877381Y-119535771D01*
X110877381Y-119535771D02*
X111020238Y-119535771D01*
X111020238Y-119535771D02*
X111115476Y-119583390D01*
X111115476Y-119583390D02*
X111163095Y-119631009D01*
X111163095Y-119631009D02*
X111210714Y-119726247D01*
X111210714Y-119726247D02*
X111210714Y-119964342D01*
X111210714Y-119964342D02*
X111163095Y-120059580D01*
X111163095Y-120059580D02*
X111115476Y-120107200D01*
X111115476Y-120107200D02*
X111020238Y-120154819D01*
X111020238Y-120154819D02*
X110734524Y-120154819D01*
X110734524Y-120154819D02*
X110639286Y-120107200D01*
X110639286Y-120107200D02*
X110591667Y-120059580D01*
X107907200Y-71333332D02*
X107954819Y-71190475D01*
X107954819Y-71190475D02*
X107954819Y-70952380D01*
X107954819Y-70952380D02*
X107907200Y-70857142D01*
X107907200Y-70857142D02*
X107859580Y-70809523D01*
X107859580Y-70809523D02*
X107764342Y-70761904D01*
X107764342Y-70761904D02*
X107669104Y-70761904D01*
X107669104Y-70761904D02*
X107573866Y-70809523D01*
X107573866Y-70809523D02*
X107526247Y-70857142D01*
X107526247Y-70857142D02*
X107478628Y-70952380D01*
X107478628Y-70952380D02*
X107431009Y-71142856D01*
X107431009Y-71142856D02*
X107383390Y-71238094D01*
X107383390Y-71238094D02*
X107335771Y-71285713D01*
X107335771Y-71285713D02*
X107240533Y-71333332D01*
X107240533Y-71333332D02*
X107145295Y-71333332D01*
X107145295Y-71333332D02*
X107050057Y-71285713D01*
X107050057Y-71285713D02*
X107002438Y-71238094D01*
X107002438Y-71238094D02*
X106954819Y-71142856D01*
X106954819Y-71142856D02*
X106954819Y-70904761D01*
X106954819Y-70904761D02*
X107002438Y-70761904D01*
X106954819Y-70428570D02*
X107954819Y-70190475D01*
X107954819Y-70190475D02*
X107240533Y-69999999D01*
X107240533Y-69999999D02*
X107954819Y-69809523D01*
X107954819Y-69809523D02*
X106954819Y-69571428D01*
X107954819Y-68666666D02*
X107954819Y-69238094D01*
X107954819Y-68952380D02*
X106954819Y-68952380D01*
X106954819Y-68952380D02*
X107097676Y-69047618D01*
X107097676Y-69047618D02*
X107192914Y-69142856D01*
X107192914Y-69142856D02*
X107240533Y-69238094D01*
X106699405Y-115654819D02*
X106699405Y-114654819D01*
X106699405Y-114654819D02*
X106937500Y-114654819D01*
X106937500Y-114654819D02*
X107080357Y-114702438D01*
X107080357Y-114702438D02*
X107175595Y-114797676D01*
X107175595Y-114797676D02*
X107223214Y-114892914D01*
X107223214Y-114892914D02*
X107270833Y-115083390D01*
X107270833Y-115083390D02*
X107270833Y-115226247D01*
X107270833Y-115226247D02*
X107223214Y-115416723D01*
X107223214Y-115416723D02*
X107175595Y-115511961D01*
X107175595Y-115511961D02*
X107080357Y-115607200D01*
X107080357Y-115607200D02*
X106937500Y-115654819D01*
X106937500Y-115654819D02*
X106699405Y-115654819D01*
X108127976Y-114988152D02*
X108127976Y-115654819D01*
X107889881Y-114607200D02*
X107651786Y-115321485D01*
X107651786Y-115321485D02*
X108270833Y-115321485D01*
X123109580Y-80666666D02*
X123157200Y-80714285D01*
X123157200Y-80714285D02*
X123204819Y-80857142D01*
X123204819Y-80857142D02*
X123204819Y-80952380D01*
X123204819Y-80952380D02*
X123157200Y-81095237D01*
X123157200Y-81095237D02*
X123061961Y-81190475D01*
X123061961Y-81190475D02*
X122966723Y-81238094D01*
X122966723Y-81238094D02*
X122776247Y-81285713D01*
X122776247Y-81285713D02*
X122633390Y-81285713D01*
X122633390Y-81285713D02*
X122442914Y-81238094D01*
X122442914Y-81238094D02*
X122347676Y-81190475D01*
X122347676Y-81190475D02*
X122252438Y-81095237D01*
X122252438Y-81095237D02*
X122204819Y-80952380D01*
X122204819Y-80952380D02*
X122204819Y-80857142D01*
X122204819Y-80857142D02*
X122252438Y-80714285D01*
X122252438Y-80714285D02*
X122300057Y-80666666D01*
X122204819Y-80333332D02*
X122204819Y-79666666D01*
X122204819Y-79666666D02*
X123204819Y-80095237D01*
X106594642Y-113254819D02*
X106261309Y-112778628D01*
X106023214Y-113254819D02*
X106023214Y-112254819D01*
X106023214Y-112254819D02*
X106404166Y-112254819D01*
X106404166Y-112254819D02*
X106499404Y-112302438D01*
X106499404Y-112302438D02*
X106547023Y-112350057D01*
X106547023Y-112350057D02*
X106594642Y-112445295D01*
X106594642Y-112445295D02*
X106594642Y-112588152D01*
X106594642Y-112588152D02*
X106547023Y-112683390D01*
X106547023Y-112683390D02*
X106499404Y-112731009D01*
X106499404Y-112731009D02*
X106404166Y-112778628D01*
X106404166Y-112778628D02*
X106023214Y-112778628D01*
X107547023Y-113254819D02*
X106975595Y-113254819D01*
X107261309Y-113254819D02*
X107261309Y-112254819D01*
X107261309Y-112254819D02*
X107166071Y-112397676D01*
X107166071Y-112397676D02*
X107070833Y-112492914D01*
X107070833Y-112492914D02*
X106975595Y-112540533D01*
X107880357Y-112254819D02*
X108499404Y-112254819D01*
X108499404Y-112254819D02*
X108166071Y-112635771D01*
X108166071Y-112635771D02*
X108308928Y-112635771D01*
X108308928Y-112635771D02*
X108404166Y-112683390D01*
X108404166Y-112683390D02*
X108451785Y-112731009D01*
X108451785Y-112731009D02*
X108499404Y-112826247D01*
X108499404Y-112826247D02*
X108499404Y-113064342D01*
X108499404Y-113064342D02*
X108451785Y-113159580D01*
X108451785Y-113159580D02*
X108404166Y-113207200D01*
X108404166Y-113207200D02*
X108308928Y-113254819D01*
X108308928Y-113254819D02*
X108023214Y-113254819D01*
X108023214Y-113254819D02*
X107927976Y-113207200D01*
X107927976Y-113207200D02*
X107880357Y-113159580D01*
X72709580Y-94391666D02*
X72757200Y-94439285D01*
X72757200Y-94439285D02*
X72804819Y-94582142D01*
X72804819Y-94582142D02*
X72804819Y-94677380D01*
X72804819Y-94677380D02*
X72757200Y-94820237D01*
X72757200Y-94820237D02*
X72661961Y-94915475D01*
X72661961Y-94915475D02*
X72566723Y-94963094D01*
X72566723Y-94963094D02*
X72376247Y-95010713D01*
X72376247Y-95010713D02*
X72233390Y-95010713D01*
X72233390Y-95010713D02*
X72042914Y-94963094D01*
X72042914Y-94963094D02*
X71947676Y-94915475D01*
X71947676Y-94915475D02*
X71852438Y-94820237D01*
X71852438Y-94820237D02*
X71804819Y-94677380D01*
X71804819Y-94677380D02*
X71804819Y-94582142D01*
X71804819Y-94582142D02*
X71852438Y-94439285D01*
X71852438Y-94439285D02*
X71900057Y-94391666D01*
X72138152Y-93534523D02*
X72804819Y-93534523D01*
X71757200Y-93772618D02*
X72471485Y-94010713D01*
X72471485Y-94010713D02*
X72471485Y-93391666D01*
X85511905Y-136954819D02*
X85511905Y-135954819D01*
X85511905Y-135954819D02*
X85750000Y-135954819D01*
X85750000Y-135954819D02*
X85892857Y-136002438D01*
X85892857Y-136002438D02*
X85988095Y-136097676D01*
X85988095Y-136097676D02*
X86035714Y-136192914D01*
X86035714Y-136192914D02*
X86083333Y-136383390D01*
X86083333Y-136383390D02*
X86083333Y-136526247D01*
X86083333Y-136526247D02*
X86035714Y-136716723D01*
X86035714Y-136716723D02*
X85988095Y-136811961D01*
X85988095Y-136811961D02*
X85892857Y-136907200D01*
X85892857Y-136907200D02*
X85750000Y-136954819D01*
X85750000Y-136954819D02*
X85511905Y-136954819D01*
X86988095Y-135954819D02*
X86511905Y-135954819D01*
X86511905Y-135954819D02*
X86464286Y-136431009D01*
X86464286Y-136431009D02*
X86511905Y-136383390D01*
X86511905Y-136383390D02*
X86607143Y-136335771D01*
X86607143Y-136335771D02*
X86845238Y-136335771D01*
X86845238Y-136335771D02*
X86940476Y-136383390D01*
X86940476Y-136383390D02*
X86988095Y-136431009D01*
X86988095Y-136431009D02*
X87035714Y-136526247D01*
X87035714Y-136526247D02*
X87035714Y-136764342D01*
X87035714Y-136764342D02*
X86988095Y-136859580D01*
X86988095Y-136859580D02*
X86940476Y-136907200D01*
X86940476Y-136907200D02*
X86845238Y-136954819D01*
X86845238Y-136954819D02*
X86607143Y-136954819D01*
X86607143Y-136954819D02*
X86511905Y-136907200D01*
X86511905Y-136907200D02*
X86464286Y-136859580D01*
X88690476Y-140904819D02*
X88690476Y-141619104D01*
X88690476Y-141619104D02*
X88642857Y-141761961D01*
X88642857Y-141761961D02*
X88547619Y-141857200D01*
X88547619Y-141857200D02*
X88404762Y-141904819D01*
X88404762Y-141904819D02*
X88309524Y-141904819D01*
X89690476Y-141904819D02*
X89119048Y-141904819D01*
X89404762Y-141904819D02*
X89404762Y-140904819D01*
X89404762Y-140904819D02*
X89309524Y-141047676D01*
X89309524Y-141047676D02*
X89214286Y-141142914D01*
X89214286Y-141142914D02*
X89119048Y-141190533D01*
X90071429Y-141000057D02*
X90119048Y-140952438D01*
X90119048Y-140952438D02*
X90214286Y-140904819D01*
X90214286Y-140904819D02*
X90452381Y-140904819D01*
X90452381Y-140904819D02*
X90547619Y-140952438D01*
X90547619Y-140952438D02*
X90595238Y-141000057D01*
X90595238Y-141000057D02*
X90642857Y-141095295D01*
X90642857Y-141095295D02*
X90642857Y-141190533D01*
X90642857Y-141190533D02*
X90595238Y-141333390D01*
X90595238Y-141333390D02*
X90023810Y-141904819D01*
X90023810Y-141904819D02*
X90642857Y-141904819D01*
X124954819Y-121666666D02*
X124954819Y-122142856D01*
X124954819Y-122142856D02*
X123954819Y-122142856D01*
X124050057Y-121380951D02*
X124002438Y-121333332D01*
X124002438Y-121333332D02*
X123954819Y-121238094D01*
X123954819Y-121238094D02*
X123954819Y-120999999D01*
X123954819Y-120999999D02*
X124002438Y-120904761D01*
X124002438Y-120904761D02*
X124050057Y-120857142D01*
X124050057Y-120857142D02*
X124145295Y-120809523D01*
X124145295Y-120809523D02*
X124240533Y-120809523D01*
X124240533Y-120809523D02*
X124383390Y-120857142D01*
X124383390Y-120857142D02*
X124954819Y-121428570D01*
X124954819Y-121428570D02*
X124954819Y-120809523D01*
X126038095Y-142354819D02*
X126609523Y-142354819D01*
X126323809Y-143354819D02*
X126323809Y-142354819D01*
X126942857Y-143354819D02*
X126942857Y-142354819D01*
X126942857Y-142354819D02*
X127323809Y-142354819D01*
X127323809Y-142354819D02*
X127419047Y-142402438D01*
X127419047Y-142402438D02*
X127466666Y-142450057D01*
X127466666Y-142450057D02*
X127514285Y-142545295D01*
X127514285Y-142545295D02*
X127514285Y-142688152D01*
X127514285Y-142688152D02*
X127466666Y-142783390D01*
X127466666Y-142783390D02*
X127419047Y-142831009D01*
X127419047Y-142831009D02*
X127323809Y-142878628D01*
X127323809Y-142878628D02*
X126942857Y-142878628D01*
X128466666Y-143354819D02*
X127895238Y-143354819D01*
X128180952Y-143354819D02*
X128180952Y-142354819D01*
X128180952Y-142354819D02*
X128085714Y-142497676D01*
X128085714Y-142497676D02*
X127990476Y-142592914D01*
X127990476Y-142592914D02*
X127895238Y-142640533D01*
X85511905Y-142704819D02*
X85511905Y-141704819D01*
X85511905Y-141704819D02*
X85750000Y-141704819D01*
X85750000Y-141704819D02*
X85892857Y-141752438D01*
X85892857Y-141752438D02*
X85988095Y-141847676D01*
X85988095Y-141847676D02*
X86035714Y-141942914D01*
X86035714Y-141942914D02*
X86083333Y-142133390D01*
X86083333Y-142133390D02*
X86083333Y-142276247D01*
X86083333Y-142276247D02*
X86035714Y-142466723D01*
X86035714Y-142466723D02*
X85988095Y-142561961D01*
X85988095Y-142561961D02*
X85892857Y-142657200D01*
X85892857Y-142657200D02*
X85750000Y-142704819D01*
X85750000Y-142704819D02*
X85511905Y-142704819D01*
X86940476Y-141704819D02*
X86750000Y-141704819D01*
X86750000Y-141704819D02*
X86654762Y-141752438D01*
X86654762Y-141752438D02*
X86607143Y-141800057D01*
X86607143Y-141800057D02*
X86511905Y-141942914D01*
X86511905Y-141942914D02*
X86464286Y-142133390D01*
X86464286Y-142133390D02*
X86464286Y-142514342D01*
X86464286Y-142514342D02*
X86511905Y-142609580D01*
X86511905Y-142609580D02*
X86559524Y-142657200D01*
X86559524Y-142657200D02*
X86654762Y-142704819D01*
X86654762Y-142704819D02*
X86845238Y-142704819D01*
X86845238Y-142704819D02*
X86940476Y-142657200D01*
X86940476Y-142657200D02*
X86988095Y-142609580D01*
X86988095Y-142609580D02*
X87035714Y-142514342D01*
X87035714Y-142514342D02*
X87035714Y-142276247D01*
X87035714Y-142276247D02*
X86988095Y-142181009D01*
X86988095Y-142181009D02*
X86940476Y-142133390D01*
X86940476Y-142133390D02*
X86845238Y-142085771D01*
X86845238Y-142085771D02*
X86654762Y-142085771D01*
X86654762Y-142085771D02*
X86559524Y-142133390D01*
X86559524Y-142133390D02*
X86511905Y-142181009D01*
X86511905Y-142181009D02*
X86464286Y-142276247D01*
X106554819Y-107538094D02*
X105554819Y-107538094D01*
X105554819Y-107538094D02*
X105554819Y-107299999D01*
X105554819Y-107299999D02*
X105602438Y-107157142D01*
X105602438Y-107157142D02*
X105697676Y-107061904D01*
X105697676Y-107061904D02*
X105792914Y-107014285D01*
X105792914Y-107014285D02*
X105983390Y-106966666D01*
X105983390Y-106966666D02*
X106126247Y-106966666D01*
X106126247Y-106966666D02*
X106316723Y-107014285D01*
X106316723Y-107014285D02*
X106411961Y-107061904D01*
X106411961Y-107061904D02*
X106507200Y-107157142D01*
X106507200Y-107157142D02*
X106554819Y-107299999D01*
X106554819Y-107299999D02*
X106554819Y-107538094D01*
X105650057Y-106585713D02*
X105602438Y-106538094D01*
X105602438Y-106538094D02*
X105554819Y-106442856D01*
X105554819Y-106442856D02*
X105554819Y-106204761D01*
X105554819Y-106204761D02*
X105602438Y-106109523D01*
X105602438Y-106109523D02*
X105650057Y-106061904D01*
X105650057Y-106061904D02*
X105745295Y-106014285D01*
X105745295Y-106014285D02*
X105840533Y-106014285D01*
X105840533Y-106014285D02*
X105983390Y-106061904D01*
X105983390Y-106061904D02*
X106554819Y-106633332D01*
X106554819Y-106633332D02*
X106554819Y-106014285D01*
X99238095Y-71954819D02*
X99238095Y-70954819D01*
X99238095Y-71431009D02*
X99809523Y-71431009D01*
X99809523Y-71954819D02*
X99809523Y-70954819D01*
X100238095Y-71050057D02*
X100285714Y-71002438D01*
X100285714Y-71002438D02*
X100380952Y-70954819D01*
X100380952Y-70954819D02*
X100619047Y-70954819D01*
X100619047Y-70954819D02*
X100714285Y-71002438D01*
X100714285Y-71002438D02*
X100761904Y-71050057D01*
X100761904Y-71050057D02*
X100809523Y-71145295D01*
X100809523Y-71145295D02*
X100809523Y-71240533D01*
X100809523Y-71240533D02*
X100761904Y-71383390D01*
X100761904Y-71383390D02*
X100190476Y-71954819D01*
X100190476Y-71954819D02*
X100809523Y-71954819D01*
X130666666Y-63454819D02*
X130666666Y-64169104D01*
X130666666Y-64169104D02*
X130619047Y-64311961D01*
X130619047Y-64311961D02*
X130523809Y-64407200D01*
X130523809Y-64407200D02*
X130380952Y-64454819D01*
X130380952Y-64454819D02*
X130285714Y-64454819D01*
X131666666Y-64454819D02*
X131095238Y-64454819D01*
X131380952Y-64454819D02*
X131380952Y-63454819D01*
X131380952Y-63454819D02*
X131285714Y-63597676D01*
X131285714Y-63597676D02*
X131190476Y-63692914D01*
X131190476Y-63692914D02*
X131095238Y-63740533D01*
X91604819Y-102666666D02*
X91128628Y-102999999D01*
X91604819Y-103238094D02*
X90604819Y-103238094D01*
X90604819Y-103238094D02*
X90604819Y-102857142D01*
X90604819Y-102857142D02*
X90652438Y-102761904D01*
X90652438Y-102761904D02*
X90700057Y-102714285D01*
X90700057Y-102714285D02*
X90795295Y-102666666D01*
X90795295Y-102666666D02*
X90938152Y-102666666D01*
X90938152Y-102666666D02*
X91033390Y-102714285D01*
X91033390Y-102714285D02*
X91081009Y-102761904D01*
X91081009Y-102761904D02*
X91128628Y-102857142D01*
X91128628Y-102857142D02*
X91128628Y-103238094D01*
X90604819Y-101809523D02*
X90604819Y-101999999D01*
X90604819Y-101999999D02*
X90652438Y-102095237D01*
X90652438Y-102095237D02*
X90700057Y-102142856D01*
X90700057Y-102142856D02*
X90842914Y-102238094D01*
X90842914Y-102238094D02*
X91033390Y-102285713D01*
X91033390Y-102285713D02*
X91414342Y-102285713D01*
X91414342Y-102285713D02*
X91509580Y-102238094D01*
X91509580Y-102238094D02*
X91557200Y-102190475D01*
X91557200Y-102190475D02*
X91604819Y-102095237D01*
X91604819Y-102095237D02*
X91604819Y-101904761D01*
X91604819Y-101904761D02*
X91557200Y-101809523D01*
X91557200Y-101809523D02*
X91509580Y-101761904D01*
X91509580Y-101761904D02*
X91414342Y-101714285D01*
X91414342Y-101714285D02*
X91176247Y-101714285D01*
X91176247Y-101714285D02*
X91081009Y-101761904D01*
X91081009Y-101761904D02*
X91033390Y-101809523D01*
X91033390Y-101809523D02*
X90985771Y-101904761D01*
X90985771Y-101904761D02*
X90985771Y-102095237D01*
X90985771Y-102095237D02*
X91033390Y-102190475D01*
X91033390Y-102190475D02*
X91081009Y-102238094D01*
X91081009Y-102238094D02*
X91176247Y-102285713D01*
X65666666Y-74454819D02*
X65666666Y-75169104D01*
X65666666Y-75169104D02*
X65619047Y-75311961D01*
X65619047Y-75311961D02*
X65523809Y-75407200D01*
X65523809Y-75407200D02*
X65380952Y-75454819D01*
X65380952Y-75454819D02*
X65285714Y-75454819D01*
X66619047Y-74454819D02*
X66142857Y-74454819D01*
X66142857Y-74454819D02*
X66095238Y-74931009D01*
X66095238Y-74931009D02*
X66142857Y-74883390D01*
X66142857Y-74883390D02*
X66238095Y-74835771D01*
X66238095Y-74835771D02*
X66476190Y-74835771D01*
X66476190Y-74835771D02*
X66571428Y-74883390D01*
X66571428Y-74883390D02*
X66619047Y-74931009D01*
X66619047Y-74931009D02*
X66666666Y-75026247D01*
X66666666Y-75026247D02*
X66666666Y-75264342D01*
X66666666Y-75264342D02*
X66619047Y-75359580D01*
X66619047Y-75359580D02*
X66571428Y-75407200D01*
X66571428Y-75407200D02*
X66476190Y-75454819D01*
X66476190Y-75454819D02*
X66238095Y-75454819D01*
X66238095Y-75454819D02*
X66142857Y-75407200D01*
X66142857Y-75407200D02*
X66095238Y-75359580D01*
X123109580Y-93892857D02*
X123157200Y-93940476D01*
X123157200Y-93940476D02*
X123204819Y-94083333D01*
X123204819Y-94083333D02*
X123204819Y-94178571D01*
X123204819Y-94178571D02*
X123157200Y-94321428D01*
X123157200Y-94321428D02*
X123061961Y-94416666D01*
X123061961Y-94416666D02*
X122966723Y-94464285D01*
X122966723Y-94464285D02*
X122776247Y-94511904D01*
X122776247Y-94511904D02*
X122633390Y-94511904D01*
X122633390Y-94511904D02*
X122442914Y-94464285D01*
X122442914Y-94464285D02*
X122347676Y-94416666D01*
X122347676Y-94416666D02*
X122252438Y-94321428D01*
X122252438Y-94321428D02*
X122204819Y-94178571D01*
X122204819Y-94178571D02*
X122204819Y-94083333D01*
X122204819Y-94083333D02*
X122252438Y-93940476D01*
X122252438Y-93940476D02*
X122300057Y-93892857D01*
X123204819Y-92940476D02*
X123204819Y-93511904D01*
X123204819Y-93226190D02*
X122204819Y-93226190D01*
X122204819Y-93226190D02*
X122347676Y-93321428D01*
X122347676Y-93321428D02*
X122442914Y-93416666D01*
X122442914Y-93416666D02*
X122490533Y-93511904D01*
X122204819Y-92321428D02*
X122204819Y-92226190D01*
X122204819Y-92226190D02*
X122252438Y-92130952D01*
X122252438Y-92130952D02*
X122300057Y-92083333D01*
X122300057Y-92083333D02*
X122395295Y-92035714D01*
X122395295Y-92035714D02*
X122585771Y-91988095D01*
X122585771Y-91988095D02*
X122823866Y-91988095D01*
X122823866Y-91988095D02*
X123014342Y-92035714D01*
X123014342Y-92035714D02*
X123109580Y-92083333D01*
X123109580Y-92083333D02*
X123157200Y-92130952D01*
X123157200Y-92130952D02*
X123204819Y-92226190D01*
X123204819Y-92226190D02*
X123204819Y-92321428D01*
X123204819Y-92321428D02*
X123157200Y-92416666D01*
X123157200Y-92416666D02*
X123109580Y-92464285D01*
X123109580Y-92464285D02*
X123014342Y-92511904D01*
X123014342Y-92511904D02*
X122823866Y-92559523D01*
X122823866Y-92559523D02*
X122585771Y-92559523D01*
X122585771Y-92559523D02*
X122395295Y-92511904D01*
X122395295Y-92511904D02*
X122300057Y-92464285D01*
X122300057Y-92464285D02*
X122252438Y-92416666D01*
X122252438Y-92416666D02*
X122204819Y-92321428D01*
X70824819Y-103738333D02*
X71539104Y-103738333D01*
X71539104Y-103738333D02*
X71681961Y-103785952D01*
X71681961Y-103785952D02*
X71777200Y-103881190D01*
X71777200Y-103881190D02*
X71824819Y-104024047D01*
X71824819Y-104024047D02*
X71824819Y-104119285D01*
X70824819Y-102833571D02*
X70824819Y-103024047D01*
X70824819Y-103024047D02*
X70872438Y-103119285D01*
X70872438Y-103119285D02*
X70920057Y-103166904D01*
X70920057Y-103166904D02*
X71062914Y-103262142D01*
X71062914Y-103262142D02*
X71253390Y-103309761D01*
X71253390Y-103309761D02*
X71634342Y-103309761D01*
X71634342Y-103309761D02*
X71729580Y-103262142D01*
X71729580Y-103262142D02*
X71777200Y-103214523D01*
X71777200Y-103214523D02*
X71824819Y-103119285D01*
X71824819Y-103119285D02*
X71824819Y-102928809D01*
X71824819Y-102928809D02*
X71777200Y-102833571D01*
X71777200Y-102833571D02*
X71729580Y-102785952D01*
X71729580Y-102785952D02*
X71634342Y-102738333D01*
X71634342Y-102738333D02*
X71396247Y-102738333D01*
X71396247Y-102738333D02*
X71301009Y-102785952D01*
X71301009Y-102785952D02*
X71253390Y-102833571D01*
X71253390Y-102833571D02*
X71205771Y-102928809D01*
X71205771Y-102928809D02*
X71205771Y-103119285D01*
X71205771Y-103119285D02*
X71253390Y-103214523D01*
X71253390Y-103214523D02*
X71301009Y-103262142D01*
X71301009Y-103262142D02*
X71396247Y-103309761D01*
X87833333Y-70954819D02*
X87500000Y-70478628D01*
X87261905Y-70954819D02*
X87261905Y-69954819D01*
X87261905Y-69954819D02*
X87642857Y-69954819D01*
X87642857Y-69954819D02*
X87738095Y-70002438D01*
X87738095Y-70002438D02*
X87785714Y-70050057D01*
X87785714Y-70050057D02*
X87833333Y-70145295D01*
X87833333Y-70145295D02*
X87833333Y-70288152D01*
X87833333Y-70288152D02*
X87785714Y-70383390D01*
X87785714Y-70383390D02*
X87738095Y-70431009D01*
X87738095Y-70431009D02*
X87642857Y-70478628D01*
X87642857Y-70478628D02*
X87261905Y-70478628D01*
X88214286Y-70050057D02*
X88261905Y-70002438D01*
X88261905Y-70002438D02*
X88357143Y-69954819D01*
X88357143Y-69954819D02*
X88595238Y-69954819D01*
X88595238Y-69954819D02*
X88690476Y-70002438D01*
X88690476Y-70002438D02*
X88738095Y-70050057D01*
X88738095Y-70050057D02*
X88785714Y-70145295D01*
X88785714Y-70145295D02*
X88785714Y-70240533D01*
X88785714Y-70240533D02*
X88738095Y-70383390D01*
X88738095Y-70383390D02*
X88166667Y-70954819D01*
X88166667Y-70954819D02*
X88785714Y-70954819D01*
X111671666Y-92084819D02*
X111671666Y-92799104D01*
X111671666Y-92799104D02*
X111624047Y-92941961D01*
X111624047Y-92941961D02*
X111528809Y-93037200D01*
X111528809Y-93037200D02*
X111385952Y-93084819D01*
X111385952Y-93084819D02*
X111290714Y-93084819D01*
X112576428Y-92418152D02*
X112576428Y-93084819D01*
X112338333Y-92037200D02*
X112100238Y-92751485D01*
X112100238Y-92751485D02*
X112719285Y-92751485D01*
X138790476Y-73254819D02*
X138790476Y-72254819D01*
X138790476Y-72254819D02*
X139123809Y-72969104D01*
X139123809Y-72969104D02*
X139457142Y-72254819D01*
X139457142Y-72254819D02*
X139457142Y-73254819D01*
X140457142Y-73254819D02*
X139885714Y-73254819D01*
X140171428Y-73254819D02*
X140171428Y-72254819D01*
X140171428Y-72254819D02*
X140076190Y-72397676D01*
X140076190Y-72397676D02*
X139980952Y-72492914D01*
X139980952Y-72492914D02*
X139885714Y-72540533D01*
X106609580Y-67392857D02*
X106657200Y-67440476D01*
X106657200Y-67440476D02*
X106704819Y-67583333D01*
X106704819Y-67583333D02*
X106704819Y-67678571D01*
X106704819Y-67678571D02*
X106657200Y-67821428D01*
X106657200Y-67821428D02*
X106561961Y-67916666D01*
X106561961Y-67916666D02*
X106466723Y-67964285D01*
X106466723Y-67964285D02*
X106276247Y-68011904D01*
X106276247Y-68011904D02*
X106133390Y-68011904D01*
X106133390Y-68011904D02*
X105942914Y-67964285D01*
X105942914Y-67964285D02*
X105847676Y-67916666D01*
X105847676Y-67916666D02*
X105752438Y-67821428D01*
X105752438Y-67821428D02*
X105704819Y-67678571D01*
X105704819Y-67678571D02*
X105704819Y-67583333D01*
X105704819Y-67583333D02*
X105752438Y-67440476D01*
X105752438Y-67440476D02*
X105800057Y-67392857D01*
X106704819Y-66440476D02*
X106704819Y-67011904D01*
X106704819Y-66726190D02*
X105704819Y-66726190D01*
X105704819Y-66726190D02*
X105847676Y-66821428D01*
X105847676Y-66821428D02*
X105942914Y-66916666D01*
X105942914Y-66916666D02*
X105990533Y-67011904D01*
X106704819Y-65488095D02*
X106704819Y-66059523D01*
X106704819Y-65773809D02*
X105704819Y-65773809D01*
X105704819Y-65773809D02*
X105847676Y-65869047D01*
X105847676Y-65869047D02*
X105942914Y-65964285D01*
X105942914Y-65964285D02*
X105990533Y-66059523D01*
X60359580Y-126842857D02*
X60407200Y-126890476D01*
X60407200Y-126890476D02*
X60454819Y-127033333D01*
X60454819Y-127033333D02*
X60454819Y-127128571D01*
X60454819Y-127128571D02*
X60407200Y-127271428D01*
X60407200Y-127271428D02*
X60311961Y-127366666D01*
X60311961Y-127366666D02*
X60216723Y-127414285D01*
X60216723Y-127414285D02*
X60026247Y-127461904D01*
X60026247Y-127461904D02*
X59883390Y-127461904D01*
X59883390Y-127461904D02*
X59692914Y-127414285D01*
X59692914Y-127414285D02*
X59597676Y-127366666D01*
X59597676Y-127366666D02*
X59502438Y-127271428D01*
X59502438Y-127271428D02*
X59454819Y-127128571D01*
X59454819Y-127128571D02*
X59454819Y-127033333D01*
X59454819Y-127033333D02*
X59502438Y-126890476D01*
X59502438Y-126890476D02*
X59550057Y-126842857D01*
X60454819Y-125890476D02*
X60454819Y-126461904D01*
X60454819Y-126176190D02*
X59454819Y-126176190D01*
X59454819Y-126176190D02*
X59597676Y-126271428D01*
X59597676Y-126271428D02*
X59692914Y-126366666D01*
X59692914Y-126366666D02*
X59740533Y-126461904D01*
X59788152Y-125033333D02*
X60454819Y-125033333D01*
X59407200Y-125271428D02*
X60121485Y-125509523D01*
X60121485Y-125509523D02*
X60121485Y-124890476D01*
X78459580Y-109342857D02*
X78507200Y-109390476D01*
X78507200Y-109390476D02*
X78554819Y-109533333D01*
X78554819Y-109533333D02*
X78554819Y-109628571D01*
X78554819Y-109628571D02*
X78507200Y-109771428D01*
X78507200Y-109771428D02*
X78411961Y-109866666D01*
X78411961Y-109866666D02*
X78316723Y-109914285D01*
X78316723Y-109914285D02*
X78126247Y-109961904D01*
X78126247Y-109961904D02*
X77983390Y-109961904D01*
X77983390Y-109961904D02*
X77792914Y-109914285D01*
X77792914Y-109914285D02*
X77697676Y-109866666D01*
X77697676Y-109866666D02*
X77602438Y-109771428D01*
X77602438Y-109771428D02*
X77554819Y-109628571D01*
X77554819Y-109628571D02*
X77554819Y-109533333D01*
X77554819Y-109533333D02*
X77602438Y-109390476D01*
X77602438Y-109390476D02*
X77650057Y-109342857D01*
X78554819Y-108390476D02*
X78554819Y-108961904D01*
X78554819Y-108676190D02*
X77554819Y-108676190D01*
X77554819Y-108676190D02*
X77697676Y-108771428D01*
X77697676Y-108771428D02*
X77792914Y-108866666D01*
X77792914Y-108866666D02*
X77840533Y-108961904D01*
X77983390Y-107819047D02*
X77935771Y-107914285D01*
X77935771Y-107914285D02*
X77888152Y-107961904D01*
X77888152Y-107961904D02*
X77792914Y-108009523D01*
X77792914Y-108009523D02*
X77745295Y-108009523D01*
X77745295Y-108009523D02*
X77650057Y-107961904D01*
X77650057Y-107961904D02*
X77602438Y-107914285D01*
X77602438Y-107914285D02*
X77554819Y-107819047D01*
X77554819Y-107819047D02*
X77554819Y-107628571D01*
X77554819Y-107628571D02*
X77602438Y-107533333D01*
X77602438Y-107533333D02*
X77650057Y-107485714D01*
X77650057Y-107485714D02*
X77745295Y-107438095D01*
X77745295Y-107438095D02*
X77792914Y-107438095D01*
X77792914Y-107438095D02*
X77888152Y-107485714D01*
X77888152Y-107485714D02*
X77935771Y-107533333D01*
X77935771Y-107533333D02*
X77983390Y-107628571D01*
X77983390Y-107628571D02*
X77983390Y-107819047D01*
X77983390Y-107819047D02*
X78031009Y-107914285D01*
X78031009Y-107914285D02*
X78078628Y-107961904D01*
X78078628Y-107961904D02*
X78173866Y-108009523D01*
X78173866Y-108009523D02*
X78364342Y-108009523D01*
X78364342Y-108009523D02*
X78459580Y-107961904D01*
X78459580Y-107961904D02*
X78507200Y-107914285D01*
X78507200Y-107914285D02*
X78554819Y-107819047D01*
X78554819Y-107819047D02*
X78554819Y-107628571D01*
X78554819Y-107628571D02*
X78507200Y-107533333D01*
X78507200Y-107533333D02*
X78459580Y-107485714D01*
X78459580Y-107485714D02*
X78364342Y-107438095D01*
X78364342Y-107438095D02*
X78173866Y-107438095D01*
X78173866Y-107438095D02*
X78078628Y-107485714D01*
X78078628Y-107485714D02*
X78031009Y-107533333D01*
X78031009Y-107533333D02*
X77983390Y-107628571D01*
X137738095Y-94454819D02*
X138309523Y-94454819D01*
X138023809Y-95454819D02*
X138023809Y-94454819D01*
X138642857Y-95454819D02*
X138642857Y-94454819D01*
X138642857Y-94454819D02*
X139023809Y-94454819D01*
X139023809Y-94454819D02*
X139119047Y-94502438D01*
X139119047Y-94502438D02*
X139166666Y-94550057D01*
X139166666Y-94550057D02*
X139214285Y-94645295D01*
X139214285Y-94645295D02*
X139214285Y-94788152D01*
X139214285Y-94788152D02*
X139166666Y-94883390D01*
X139166666Y-94883390D02*
X139119047Y-94931009D01*
X139119047Y-94931009D02*
X139023809Y-94978628D01*
X139023809Y-94978628D02*
X138642857Y-94978628D01*
X139595238Y-94550057D02*
X139642857Y-94502438D01*
X139642857Y-94502438D02*
X139738095Y-94454819D01*
X139738095Y-94454819D02*
X139976190Y-94454819D01*
X139976190Y-94454819D02*
X140071428Y-94502438D01*
X140071428Y-94502438D02*
X140119047Y-94550057D01*
X140119047Y-94550057D02*
X140166666Y-94645295D01*
X140166666Y-94645295D02*
X140166666Y-94740533D01*
X140166666Y-94740533D02*
X140119047Y-94883390D01*
X140119047Y-94883390D02*
X139547619Y-95454819D01*
X139547619Y-95454819D02*
X140166666Y-95454819D01*
X67209580Y-94391666D02*
X67257200Y-94439285D01*
X67257200Y-94439285D02*
X67304819Y-94582142D01*
X67304819Y-94582142D02*
X67304819Y-94677380D01*
X67304819Y-94677380D02*
X67257200Y-94820237D01*
X67257200Y-94820237D02*
X67161961Y-94915475D01*
X67161961Y-94915475D02*
X67066723Y-94963094D01*
X67066723Y-94963094D02*
X66876247Y-95010713D01*
X66876247Y-95010713D02*
X66733390Y-95010713D01*
X66733390Y-95010713D02*
X66542914Y-94963094D01*
X66542914Y-94963094D02*
X66447676Y-94915475D01*
X66447676Y-94915475D02*
X66352438Y-94820237D01*
X66352438Y-94820237D02*
X66304819Y-94677380D01*
X66304819Y-94677380D02*
X66304819Y-94582142D01*
X66304819Y-94582142D02*
X66352438Y-94439285D01*
X66352438Y-94439285D02*
X66400057Y-94391666D01*
X66304819Y-94058332D02*
X66304819Y-93439285D01*
X66304819Y-93439285D02*
X66685771Y-93772618D01*
X66685771Y-93772618D02*
X66685771Y-93629761D01*
X66685771Y-93629761D02*
X66733390Y-93534523D01*
X66733390Y-93534523D02*
X66781009Y-93486904D01*
X66781009Y-93486904D02*
X66876247Y-93439285D01*
X66876247Y-93439285D02*
X67114342Y-93439285D01*
X67114342Y-93439285D02*
X67209580Y-93486904D01*
X67209580Y-93486904D02*
X67257200Y-93534523D01*
X67257200Y-93534523D02*
X67304819Y-93629761D01*
X67304819Y-93629761D02*
X67304819Y-93915475D01*
X67304819Y-93915475D02*
X67257200Y-94010713D01*
X67257200Y-94010713D02*
X67209580Y-94058332D01*
X131833333Y-71859580D02*
X131785714Y-71907200D01*
X131785714Y-71907200D02*
X131642857Y-71954819D01*
X131642857Y-71954819D02*
X131547619Y-71954819D01*
X131547619Y-71954819D02*
X131404762Y-71907200D01*
X131404762Y-71907200D02*
X131309524Y-71811961D01*
X131309524Y-71811961D02*
X131261905Y-71716723D01*
X131261905Y-71716723D02*
X131214286Y-71526247D01*
X131214286Y-71526247D02*
X131214286Y-71383390D01*
X131214286Y-71383390D02*
X131261905Y-71192914D01*
X131261905Y-71192914D02*
X131309524Y-71097676D01*
X131309524Y-71097676D02*
X131404762Y-71002438D01*
X131404762Y-71002438D02*
X131547619Y-70954819D01*
X131547619Y-70954819D02*
X131642857Y-70954819D01*
X131642857Y-70954819D02*
X131785714Y-71002438D01*
X131785714Y-71002438D02*
X131833333Y-71050057D01*
X132214286Y-71050057D02*
X132261905Y-71002438D01*
X132261905Y-71002438D02*
X132357143Y-70954819D01*
X132357143Y-70954819D02*
X132595238Y-70954819D01*
X132595238Y-70954819D02*
X132690476Y-71002438D01*
X132690476Y-71002438D02*
X132738095Y-71050057D01*
X132738095Y-71050057D02*
X132785714Y-71145295D01*
X132785714Y-71145295D02*
X132785714Y-71240533D01*
X132785714Y-71240533D02*
X132738095Y-71383390D01*
X132738095Y-71383390D02*
X132166667Y-71954819D01*
X132166667Y-71954819D02*
X132785714Y-71954819D01*
X101104819Y-66166666D02*
X100628628Y-66499999D01*
X101104819Y-66738094D02*
X100104819Y-66738094D01*
X100104819Y-66738094D02*
X100104819Y-66357142D01*
X100104819Y-66357142D02*
X100152438Y-66261904D01*
X100152438Y-66261904D02*
X100200057Y-66214285D01*
X100200057Y-66214285D02*
X100295295Y-66166666D01*
X100295295Y-66166666D02*
X100438152Y-66166666D01*
X100438152Y-66166666D02*
X100533390Y-66214285D01*
X100533390Y-66214285D02*
X100581009Y-66261904D01*
X100581009Y-66261904D02*
X100628628Y-66357142D01*
X100628628Y-66357142D02*
X100628628Y-66738094D01*
X100438152Y-65309523D02*
X101104819Y-65309523D01*
X100057200Y-65547618D02*
X100771485Y-65785713D01*
X100771485Y-65785713D02*
X100771485Y-65166666D01*
X75357142Y-78559580D02*
X75309523Y-78607200D01*
X75309523Y-78607200D02*
X75166666Y-78654819D01*
X75166666Y-78654819D02*
X75071428Y-78654819D01*
X75071428Y-78654819D02*
X74928571Y-78607200D01*
X74928571Y-78607200D02*
X74833333Y-78511961D01*
X74833333Y-78511961D02*
X74785714Y-78416723D01*
X74785714Y-78416723D02*
X74738095Y-78226247D01*
X74738095Y-78226247D02*
X74738095Y-78083390D01*
X74738095Y-78083390D02*
X74785714Y-77892914D01*
X74785714Y-77892914D02*
X74833333Y-77797676D01*
X74833333Y-77797676D02*
X74928571Y-77702438D01*
X74928571Y-77702438D02*
X75071428Y-77654819D01*
X75071428Y-77654819D02*
X75166666Y-77654819D01*
X75166666Y-77654819D02*
X75309523Y-77702438D01*
X75309523Y-77702438D02*
X75357142Y-77750057D01*
X75738095Y-77750057D02*
X75785714Y-77702438D01*
X75785714Y-77702438D02*
X75880952Y-77654819D01*
X75880952Y-77654819D02*
X76119047Y-77654819D01*
X76119047Y-77654819D02*
X76214285Y-77702438D01*
X76214285Y-77702438D02*
X76261904Y-77750057D01*
X76261904Y-77750057D02*
X76309523Y-77845295D01*
X76309523Y-77845295D02*
X76309523Y-77940533D01*
X76309523Y-77940533D02*
X76261904Y-78083390D01*
X76261904Y-78083390D02*
X75690476Y-78654819D01*
X75690476Y-78654819D02*
X76309523Y-78654819D01*
X77261904Y-78654819D02*
X76690476Y-78654819D01*
X76976190Y-78654819D02*
X76976190Y-77654819D01*
X76976190Y-77654819D02*
X76880952Y-77797676D01*
X76880952Y-77797676D02*
X76785714Y-77892914D01*
X76785714Y-77892914D02*
X76690476Y-77940533D01*
X89459580Y-109342857D02*
X89507200Y-109390476D01*
X89507200Y-109390476D02*
X89554819Y-109533333D01*
X89554819Y-109533333D02*
X89554819Y-109628571D01*
X89554819Y-109628571D02*
X89507200Y-109771428D01*
X89507200Y-109771428D02*
X89411961Y-109866666D01*
X89411961Y-109866666D02*
X89316723Y-109914285D01*
X89316723Y-109914285D02*
X89126247Y-109961904D01*
X89126247Y-109961904D02*
X88983390Y-109961904D01*
X88983390Y-109961904D02*
X88792914Y-109914285D01*
X88792914Y-109914285D02*
X88697676Y-109866666D01*
X88697676Y-109866666D02*
X88602438Y-109771428D01*
X88602438Y-109771428D02*
X88554819Y-109628571D01*
X88554819Y-109628571D02*
X88554819Y-109533333D01*
X88554819Y-109533333D02*
X88602438Y-109390476D01*
X88602438Y-109390476D02*
X88650057Y-109342857D01*
X89554819Y-108390476D02*
X89554819Y-108961904D01*
X89554819Y-108676190D02*
X88554819Y-108676190D01*
X88554819Y-108676190D02*
X88697676Y-108771428D01*
X88697676Y-108771428D02*
X88792914Y-108866666D01*
X88792914Y-108866666D02*
X88840533Y-108961904D01*
X88554819Y-107533333D02*
X88554819Y-107723809D01*
X88554819Y-107723809D02*
X88602438Y-107819047D01*
X88602438Y-107819047D02*
X88650057Y-107866666D01*
X88650057Y-107866666D02*
X88792914Y-107961904D01*
X88792914Y-107961904D02*
X88983390Y-108009523D01*
X88983390Y-108009523D02*
X89364342Y-108009523D01*
X89364342Y-108009523D02*
X89459580Y-107961904D01*
X89459580Y-107961904D02*
X89507200Y-107914285D01*
X89507200Y-107914285D02*
X89554819Y-107819047D01*
X89554819Y-107819047D02*
X89554819Y-107628571D01*
X89554819Y-107628571D02*
X89507200Y-107533333D01*
X89507200Y-107533333D02*
X89459580Y-107485714D01*
X89459580Y-107485714D02*
X89364342Y-107438095D01*
X89364342Y-107438095D02*
X89126247Y-107438095D01*
X89126247Y-107438095D02*
X89031009Y-107485714D01*
X89031009Y-107485714D02*
X88983390Y-107533333D01*
X88983390Y-107533333D02*
X88935771Y-107628571D01*
X88935771Y-107628571D02*
X88935771Y-107819047D01*
X88935771Y-107819047D02*
X88983390Y-107914285D01*
X88983390Y-107914285D02*
X89031009Y-107961904D01*
X89031009Y-107961904D02*
X89126247Y-108009523D01*
X94559580Y-109166666D02*
X94607200Y-109214285D01*
X94607200Y-109214285D02*
X94654819Y-109357142D01*
X94654819Y-109357142D02*
X94654819Y-109452380D01*
X94654819Y-109452380D02*
X94607200Y-109595237D01*
X94607200Y-109595237D02*
X94511961Y-109690475D01*
X94511961Y-109690475D02*
X94416723Y-109738094D01*
X94416723Y-109738094D02*
X94226247Y-109785713D01*
X94226247Y-109785713D02*
X94083390Y-109785713D01*
X94083390Y-109785713D02*
X93892914Y-109738094D01*
X93892914Y-109738094D02*
X93797676Y-109690475D01*
X93797676Y-109690475D02*
X93702438Y-109595237D01*
X93702438Y-109595237D02*
X93654819Y-109452380D01*
X93654819Y-109452380D02*
X93654819Y-109357142D01*
X93654819Y-109357142D02*
X93702438Y-109214285D01*
X93702438Y-109214285D02*
X93750057Y-109166666D01*
X94654819Y-108214285D02*
X94654819Y-108785713D01*
X94654819Y-108499999D02*
X93654819Y-108499999D01*
X93654819Y-108499999D02*
X93797676Y-108595237D01*
X93797676Y-108595237D02*
X93892914Y-108690475D01*
X93892914Y-108690475D02*
X93940533Y-108785713D01*
X73011905Y-142704819D02*
X73011905Y-141704819D01*
X73011905Y-141704819D02*
X73250000Y-141704819D01*
X73250000Y-141704819D02*
X73392857Y-141752438D01*
X73392857Y-141752438D02*
X73488095Y-141847676D01*
X73488095Y-141847676D02*
X73535714Y-141942914D01*
X73535714Y-141942914D02*
X73583333Y-142133390D01*
X73583333Y-142133390D02*
X73583333Y-142276247D01*
X73583333Y-142276247D02*
X73535714Y-142466723D01*
X73535714Y-142466723D02*
X73488095Y-142561961D01*
X73488095Y-142561961D02*
X73392857Y-142657200D01*
X73392857Y-142657200D02*
X73250000Y-142704819D01*
X73250000Y-142704819D02*
X73011905Y-142704819D01*
X74154762Y-142133390D02*
X74059524Y-142085771D01*
X74059524Y-142085771D02*
X74011905Y-142038152D01*
X74011905Y-142038152D02*
X73964286Y-141942914D01*
X73964286Y-141942914D02*
X73964286Y-141895295D01*
X73964286Y-141895295D02*
X74011905Y-141800057D01*
X74011905Y-141800057D02*
X74059524Y-141752438D01*
X74059524Y-141752438D02*
X74154762Y-141704819D01*
X74154762Y-141704819D02*
X74345238Y-141704819D01*
X74345238Y-141704819D02*
X74440476Y-141752438D01*
X74440476Y-141752438D02*
X74488095Y-141800057D01*
X74488095Y-141800057D02*
X74535714Y-141895295D01*
X74535714Y-141895295D02*
X74535714Y-141942914D01*
X74535714Y-141942914D02*
X74488095Y-142038152D01*
X74488095Y-142038152D02*
X74440476Y-142085771D01*
X74440476Y-142085771D02*
X74345238Y-142133390D01*
X74345238Y-142133390D02*
X74154762Y-142133390D01*
X74154762Y-142133390D02*
X74059524Y-142181009D01*
X74059524Y-142181009D02*
X74011905Y-142228628D01*
X74011905Y-142228628D02*
X73964286Y-142323866D01*
X73964286Y-142323866D02*
X73964286Y-142514342D01*
X73964286Y-142514342D02*
X74011905Y-142609580D01*
X74011905Y-142609580D02*
X74059524Y-142657200D01*
X74059524Y-142657200D02*
X74154762Y-142704819D01*
X74154762Y-142704819D02*
X74345238Y-142704819D01*
X74345238Y-142704819D02*
X74440476Y-142657200D01*
X74440476Y-142657200D02*
X74488095Y-142609580D01*
X74488095Y-142609580D02*
X74535714Y-142514342D01*
X74535714Y-142514342D02*
X74535714Y-142323866D01*
X74535714Y-142323866D02*
X74488095Y-142228628D01*
X74488095Y-142228628D02*
X74440476Y-142181009D01*
X74440476Y-142181009D02*
X74345238Y-142133390D01*
X108690476Y-140904819D02*
X108690476Y-141619104D01*
X108690476Y-141619104D02*
X108642857Y-141761961D01*
X108642857Y-141761961D02*
X108547619Y-141857200D01*
X108547619Y-141857200D02*
X108404762Y-141904819D01*
X108404762Y-141904819D02*
X108309524Y-141904819D01*
X109690476Y-141904819D02*
X109119048Y-141904819D01*
X109404762Y-141904819D02*
X109404762Y-140904819D01*
X109404762Y-140904819D02*
X109309524Y-141047676D01*
X109309524Y-141047676D02*
X109214286Y-141142914D01*
X109214286Y-141142914D02*
X109119048Y-141190533D01*
X110642857Y-141904819D02*
X110071429Y-141904819D01*
X110357143Y-141904819D02*
X110357143Y-140904819D01*
X110357143Y-140904819D02*
X110261905Y-141047676D01*
X110261905Y-141047676D02*
X110166667Y-141142914D01*
X110166667Y-141142914D02*
X110071429Y-141190533D01*
X83959580Y-109442857D02*
X84007200Y-109490476D01*
X84007200Y-109490476D02*
X84054819Y-109633333D01*
X84054819Y-109633333D02*
X84054819Y-109728571D01*
X84054819Y-109728571D02*
X84007200Y-109871428D01*
X84007200Y-109871428D02*
X83911961Y-109966666D01*
X83911961Y-109966666D02*
X83816723Y-110014285D01*
X83816723Y-110014285D02*
X83626247Y-110061904D01*
X83626247Y-110061904D02*
X83483390Y-110061904D01*
X83483390Y-110061904D02*
X83292914Y-110014285D01*
X83292914Y-110014285D02*
X83197676Y-109966666D01*
X83197676Y-109966666D02*
X83102438Y-109871428D01*
X83102438Y-109871428D02*
X83054819Y-109728571D01*
X83054819Y-109728571D02*
X83054819Y-109633333D01*
X83054819Y-109633333D02*
X83102438Y-109490476D01*
X83102438Y-109490476D02*
X83150057Y-109442857D01*
X84054819Y-108490476D02*
X84054819Y-109061904D01*
X84054819Y-108776190D02*
X83054819Y-108776190D01*
X83054819Y-108776190D02*
X83197676Y-108871428D01*
X83197676Y-108871428D02*
X83292914Y-108966666D01*
X83292914Y-108966666D02*
X83340533Y-109061904D01*
X83054819Y-108157142D02*
X83054819Y-107490476D01*
X83054819Y-107490476D02*
X84054819Y-107919047D01*
X136879819Y-78333333D02*
X137594104Y-78333333D01*
X137594104Y-78333333D02*
X137736961Y-78380952D01*
X137736961Y-78380952D02*
X137832200Y-78476190D01*
X137832200Y-78476190D02*
X137879819Y-78619047D01*
X137879819Y-78619047D02*
X137879819Y-78714285D01*
X136975057Y-77904761D02*
X136927438Y-77857142D01*
X136927438Y-77857142D02*
X136879819Y-77761904D01*
X136879819Y-77761904D02*
X136879819Y-77523809D01*
X136879819Y-77523809D02*
X136927438Y-77428571D01*
X136927438Y-77428571D02*
X136975057Y-77380952D01*
X136975057Y-77380952D02*
X137070295Y-77333333D01*
X137070295Y-77333333D02*
X137165533Y-77333333D01*
X137165533Y-77333333D02*
X137308390Y-77380952D01*
X137308390Y-77380952D02*
X137879819Y-77952380D01*
X137879819Y-77952380D02*
X137879819Y-77333333D01*
X83709580Y-94391666D02*
X83757200Y-94439285D01*
X83757200Y-94439285D02*
X83804819Y-94582142D01*
X83804819Y-94582142D02*
X83804819Y-94677380D01*
X83804819Y-94677380D02*
X83757200Y-94820237D01*
X83757200Y-94820237D02*
X83661961Y-94915475D01*
X83661961Y-94915475D02*
X83566723Y-94963094D01*
X83566723Y-94963094D02*
X83376247Y-95010713D01*
X83376247Y-95010713D02*
X83233390Y-95010713D01*
X83233390Y-95010713D02*
X83042914Y-94963094D01*
X83042914Y-94963094D02*
X82947676Y-94915475D01*
X82947676Y-94915475D02*
X82852438Y-94820237D01*
X82852438Y-94820237D02*
X82804819Y-94677380D01*
X82804819Y-94677380D02*
X82804819Y-94582142D01*
X82804819Y-94582142D02*
X82852438Y-94439285D01*
X82852438Y-94439285D02*
X82900057Y-94391666D01*
X82804819Y-93534523D02*
X82804819Y-93724999D01*
X82804819Y-93724999D02*
X82852438Y-93820237D01*
X82852438Y-93820237D02*
X82900057Y-93867856D01*
X82900057Y-93867856D02*
X83042914Y-93963094D01*
X83042914Y-93963094D02*
X83233390Y-94010713D01*
X83233390Y-94010713D02*
X83614342Y-94010713D01*
X83614342Y-94010713D02*
X83709580Y-93963094D01*
X83709580Y-93963094D02*
X83757200Y-93915475D01*
X83757200Y-93915475D02*
X83804819Y-93820237D01*
X83804819Y-93820237D02*
X83804819Y-93629761D01*
X83804819Y-93629761D02*
X83757200Y-93534523D01*
X83757200Y-93534523D02*
X83709580Y-93486904D01*
X83709580Y-93486904D02*
X83614342Y-93439285D01*
X83614342Y-93439285D02*
X83376247Y-93439285D01*
X83376247Y-93439285D02*
X83281009Y-93486904D01*
X83281009Y-93486904D02*
X83233390Y-93534523D01*
X83233390Y-93534523D02*
X83185771Y-93629761D01*
X83185771Y-93629761D02*
X83185771Y-93820237D01*
X83185771Y-93820237D02*
X83233390Y-93915475D01*
X83233390Y-93915475D02*
X83281009Y-93963094D01*
X83281009Y-93963094D02*
X83376247Y-94010713D01*
X112757142Y-144559580D02*
X112709523Y-144607200D01*
X112709523Y-144607200D02*
X112566666Y-144654819D01*
X112566666Y-144654819D02*
X112471428Y-144654819D01*
X112471428Y-144654819D02*
X112328571Y-144607200D01*
X112328571Y-144607200D02*
X112233333Y-144511961D01*
X112233333Y-144511961D02*
X112185714Y-144416723D01*
X112185714Y-144416723D02*
X112138095Y-144226247D01*
X112138095Y-144226247D02*
X112138095Y-144083390D01*
X112138095Y-144083390D02*
X112185714Y-143892914D01*
X112185714Y-143892914D02*
X112233333Y-143797676D01*
X112233333Y-143797676D02*
X112328571Y-143702438D01*
X112328571Y-143702438D02*
X112471428Y-143654819D01*
X112471428Y-143654819D02*
X112566666Y-143654819D01*
X112566666Y-143654819D02*
X112709523Y-143702438D01*
X112709523Y-143702438D02*
X112757142Y-143750057D01*
X113138095Y-143750057D02*
X113185714Y-143702438D01*
X113185714Y-143702438D02*
X113280952Y-143654819D01*
X113280952Y-143654819D02*
X113519047Y-143654819D01*
X113519047Y-143654819D02*
X113614285Y-143702438D01*
X113614285Y-143702438D02*
X113661904Y-143750057D01*
X113661904Y-143750057D02*
X113709523Y-143845295D01*
X113709523Y-143845295D02*
X113709523Y-143940533D01*
X113709523Y-143940533D02*
X113661904Y-144083390D01*
X113661904Y-144083390D02*
X113090476Y-144654819D01*
X113090476Y-144654819D02*
X113709523Y-144654819D01*
X114566666Y-143988152D02*
X114566666Y-144654819D01*
X114328571Y-143607200D02*
X114090476Y-144321485D01*
X114090476Y-144321485D02*
X114709523Y-144321485D01*
X82166666Y-55454819D02*
X82166666Y-56169104D01*
X82166666Y-56169104D02*
X82119047Y-56311961D01*
X82119047Y-56311961D02*
X82023809Y-56407200D01*
X82023809Y-56407200D02*
X81880952Y-56454819D01*
X81880952Y-56454819D02*
X81785714Y-56454819D01*
X82785714Y-55883390D02*
X82690476Y-55835771D01*
X82690476Y-55835771D02*
X82642857Y-55788152D01*
X82642857Y-55788152D02*
X82595238Y-55692914D01*
X82595238Y-55692914D02*
X82595238Y-55645295D01*
X82595238Y-55645295D02*
X82642857Y-55550057D01*
X82642857Y-55550057D02*
X82690476Y-55502438D01*
X82690476Y-55502438D02*
X82785714Y-55454819D01*
X82785714Y-55454819D02*
X82976190Y-55454819D01*
X82976190Y-55454819D02*
X83071428Y-55502438D01*
X83071428Y-55502438D02*
X83119047Y-55550057D01*
X83119047Y-55550057D02*
X83166666Y-55645295D01*
X83166666Y-55645295D02*
X83166666Y-55692914D01*
X83166666Y-55692914D02*
X83119047Y-55788152D01*
X83119047Y-55788152D02*
X83071428Y-55835771D01*
X83071428Y-55835771D02*
X82976190Y-55883390D01*
X82976190Y-55883390D02*
X82785714Y-55883390D01*
X82785714Y-55883390D02*
X82690476Y-55931009D01*
X82690476Y-55931009D02*
X82642857Y-55978628D01*
X82642857Y-55978628D02*
X82595238Y-56073866D01*
X82595238Y-56073866D02*
X82595238Y-56264342D01*
X82595238Y-56264342D02*
X82642857Y-56359580D01*
X82642857Y-56359580D02*
X82690476Y-56407200D01*
X82690476Y-56407200D02*
X82785714Y-56454819D01*
X82785714Y-56454819D02*
X82976190Y-56454819D01*
X82976190Y-56454819D02*
X83071428Y-56407200D01*
X83071428Y-56407200D02*
X83119047Y-56359580D01*
X83119047Y-56359580D02*
X83166666Y-56264342D01*
X83166666Y-56264342D02*
X83166666Y-56073866D01*
X83166666Y-56073866D02*
X83119047Y-55978628D01*
X83119047Y-55978628D02*
X83071428Y-55931009D01*
X83071428Y-55931009D02*
X82976190Y-55883390D01*
X94261905Y-71204819D02*
X94261905Y-70204819D01*
X94261905Y-70204819D02*
X94500000Y-70204819D01*
X94500000Y-70204819D02*
X94642857Y-70252438D01*
X94642857Y-70252438D02*
X94738095Y-70347676D01*
X94738095Y-70347676D02*
X94785714Y-70442914D01*
X94785714Y-70442914D02*
X94833333Y-70633390D01*
X94833333Y-70633390D02*
X94833333Y-70776247D01*
X94833333Y-70776247D02*
X94785714Y-70966723D01*
X94785714Y-70966723D02*
X94738095Y-71061961D01*
X94738095Y-71061961D02*
X94642857Y-71157200D01*
X94642857Y-71157200D02*
X94500000Y-71204819D01*
X94500000Y-71204819D02*
X94261905Y-71204819D01*
X95785714Y-71204819D02*
X95214286Y-71204819D01*
X95500000Y-71204819D02*
X95500000Y-70204819D01*
X95500000Y-70204819D02*
X95404762Y-70347676D01*
X95404762Y-70347676D02*
X95309524Y-70442914D01*
X95309524Y-70442914D02*
X95214286Y-70490533D01*
X89554819Y-66166666D02*
X89078628Y-66499999D01*
X89554819Y-66738094D02*
X88554819Y-66738094D01*
X88554819Y-66738094D02*
X88554819Y-66357142D01*
X88554819Y-66357142D02*
X88602438Y-66261904D01*
X88602438Y-66261904D02*
X88650057Y-66214285D01*
X88650057Y-66214285D02*
X88745295Y-66166666D01*
X88745295Y-66166666D02*
X88888152Y-66166666D01*
X88888152Y-66166666D02*
X88983390Y-66214285D01*
X88983390Y-66214285D02*
X89031009Y-66261904D01*
X89031009Y-66261904D02*
X89078628Y-66357142D01*
X89078628Y-66357142D02*
X89078628Y-66738094D01*
X88554819Y-65833332D02*
X88554819Y-65214285D01*
X88554819Y-65214285D02*
X88935771Y-65547618D01*
X88935771Y-65547618D02*
X88935771Y-65404761D01*
X88935771Y-65404761D02*
X88983390Y-65309523D01*
X88983390Y-65309523D02*
X89031009Y-65261904D01*
X89031009Y-65261904D02*
X89126247Y-65214285D01*
X89126247Y-65214285D02*
X89364342Y-65214285D01*
X89364342Y-65214285D02*
X89459580Y-65261904D01*
X89459580Y-65261904D02*
X89507200Y-65309523D01*
X89507200Y-65309523D02*
X89554819Y-65404761D01*
X89554819Y-65404761D02*
X89554819Y-65690475D01*
X89554819Y-65690475D02*
X89507200Y-65785713D01*
X89507200Y-65785713D02*
X89459580Y-65833332D01*
X107070833Y-117754819D02*
X106594643Y-117754819D01*
X106594643Y-117754819D02*
X106594643Y-116754819D01*
X107927976Y-117754819D02*
X107356548Y-117754819D01*
X107642262Y-117754819D02*
X107642262Y-116754819D01*
X107642262Y-116754819D02*
X107547024Y-116897676D01*
X107547024Y-116897676D02*
X107451786Y-116992914D01*
X107451786Y-116992914D02*
X107356548Y-117040533D01*
X60359580Y-131842857D02*
X60407200Y-131890476D01*
X60407200Y-131890476D02*
X60454819Y-132033333D01*
X60454819Y-132033333D02*
X60454819Y-132128571D01*
X60454819Y-132128571D02*
X60407200Y-132271428D01*
X60407200Y-132271428D02*
X60311961Y-132366666D01*
X60311961Y-132366666D02*
X60216723Y-132414285D01*
X60216723Y-132414285D02*
X60026247Y-132461904D01*
X60026247Y-132461904D02*
X59883390Y-132461904D01*
X59883390Y-132461904D02*
X59692914Y-132414285D01*
X59692914Y-132414285D02*
X59597676Y-132366666D01*
X59597676Y-132366666D02*
X59502438Y-132271428D01*
X59502438Y-132271428D02*
X59454819Y-132128571D01*
X59454819Y-132128571D02*
X59454819Y-132033333D01*
X59454819Y-132033333D02*
X59502438Y-131890476D01*
X59502438Y-131890476D02*
X59550057Y-131842857D01*
X60454819Y-130890476D02*
X60454819Y-131461904D01*
X60454819Y-131176190D02*
X59454819Y-131176190D01*
X59454819Y-131176190D02*
X59597676Y-131271428D01*
X59597676Y-131271428D02*
X59692914Y-131366666D01*
X59692914Y-131366666D02*
X59740533Y-131461904D01*
X59454819Y-129985714D02*
X59454819Y-130461904D01*
X59454819Y-130461904D02*
X59931009Y-130509523D01*
X59931009Y-130509523D02*
X59883390Y-130461904D01*
X59883390Y-130461904D02*
X59835771Y-130366666D01*
X59835771Y-130366666D02*
X59835771Y-130128571D01*
X59835771Y-130128571D02*
X59883390Y-130033333D01*
X59883390Y-130033333D02*
X59931009Y-129985714D01*
X59931009Y-129985714D02*
X60026247Y-129938095D01*
X60026247Y-129938095D02*
X60264342Y-129938095D01*
X60264342Y-129938095D02*
X60359580Y-129985714D01*
X60359580Y-129985714D02*
X60407200Y-130033333D01*
X60407200Y-130033333D02*
X60454819Y-130128571D01*
X60454819Y-130128571D02*
X60454819Y-130366666D01*
X60454819Y-130366666D02*
X60407200Y-130461904D01*
X60407200Y-130461904D02*
X60359580Y-130509523D01*
X123109580Y-88666666D02*
X123157200Y-88714285D01*
X123157200Y-88714285D02*
X123204819Y-88857142D01*
X123204819Y-88857142D02*
X123204819Y-88952380D01*
X123204819Y-88952380D02*
X123157200Y-89095237D01*
X123157200Y-89095237D02*
X123061961Y-89190475D01*
X123061961Y-89190475D02*
X122966723Y-89238094D01*
X122966723Y-89238094D02*
X122776247Y-89285713D01*
X122776247Y-89285713D02*
X122633390Y-89285713D01*
X122633390Y-89285713D02*
X122442914Y-89238094D01*
X122442914Y-89238094D02*
X122347676Y-89190475D01*
X122347676Y-89190475D02*
X122252438Y-89095237D01*
X122252438Y-89095237D02*
X122204819Y-88952380D01*
X122204819Y-88952380D02*
X122204819Y-88857142D01*
X122204819Y-88857142D02*
X122252438Y-88714285D01*
X122252438Y-88714285D02*
X122300057Y-88666666D01*
X123204819Y-88190475D02*
X123204819Y-87999999D01*
X123204819Y-87999999D02*
X123157200Y-87904761D01*
X123157200Y-87904761D02*
X123109580Y-87857142D01*
X123109580Y-87857142D02*
X122966723Y-87761904D01*
X122966723Y-87761904D02*
X122776247Y-87714285D01*
X122776247Y-87714285D02*
X122395295Y-87714285D01*
X122395295Y-87714285D02*
X122300057Y-87761904D01*
X122300057Y-87761904D02*
X122252438Y-87809523D01*
X122252438Y-87809523D02*
X122204819Y-87904761D01*
X122204819Y-87904761D02*
X122204819Y-88095237D01*
X122204819Y-88095237D02*
X122252438Y-88190475D01*
X122252438Y-88190475D02*
X122300057Y-88238094D01*
X122300057Y-88238094D02*
X122395295Y-88285713D01*
X122395295Y-88285713D02*
X122633390Y-88285713D01*
X122633390Y-88285713D02*
X122728628Y-88238094D01*
X122728628Y-88238094D02*
X122776247Y-88190475D01*
X122776247Y-88190475D02*
X122823866Y-88095237D01*
X122823866Y-88095237D02*
X122823866Y-87904761D01*
X122823866Y-87904761D02*
X122776247Y-87809523D01*
X122776247Y-87809523D02*
X122728628Y-87761904D01*
X122728628Y-87761904D02*
X122633390Y-87714285D01*
X72859580Y-109342857D02*
X72907200Y-109390476D01*
X72907200Y-109390476D02*
X72954819Y-109533333D01*
X72954819Y-109533333D02*
X72954819Y-109628571D01*
X72954819Y-109628571D02*
X72907200Y-109771428D01*
X72907200Y-109771428D02*
X72811961Y-109866666D01*
X72811961Y-109866666D02*
X72716723Y-109914285D01*
X72716723Y-109914285D02*
X72526247Y-109961904D01*
X72526247Y-109961904D02*
X72383390Y-109961904D01*
X72383390Y-109961904D02*
X72192914Y-109914285D01*
X72192914Y-109914285D02*
X72097676Y-109866666D01*
X72097676Y-109866666D02*
X72002438Y-109771428D01*
X72002438Y-109771428D02*
X71954819Y-109628571D01*
X71954819Y-109628571D02*
X71954819Y-109533333D01*
X71954819Y-109533333D02*
X72002438Y-109390476D01*
X72002438Y-109390476D02*
X72050057Y-109342857D01*
X72954819Y-108390476D02*
X72954819Y-108961904D01*
X72954819Y-108676190D02*
X71954819Y-108676190D01*
X71954819Y-108676190D02*
X72097676Y-108771428D01*
X72097676Y-108771428D02*
X72192914Y-108866666D01*
X72192914Y-108866666D02*
X72240533Y-108961904D01*
X72954819Y-107914285D02*
X72954819Y-107723809D01*
X72954819Y-107723809D02*
X72907200Y-107628571D01*
X72907200Y-107628571D02*
X72859580Y-107580952D01*
X72859580Y-107580952D02*
X72716723Y-107485714D01*
X72716723Y-107485714D02*
X72526247Y-107438095D01*
X72526247Y-107438095D02*
X72145295Y-107438095D01*
X72145295Y-107438095D02*
X72050057Y-107485714D01*
X72050057Y-107485714D02*
X72002438Y-107533333D01*
X72002438Y-107533333D02*
X71954819Y-107628571D01*
X71954819Y-107628571D02*
X71954819Y-107819047D01*
X71954819Y-107819047D02*
X72002438Y-107914285D01*
X72002438Y-107914285D02*
X72050057Y-107961904D01*
X72050057Y-107961904D02*
X72145295Y-108009523D01*
X72145295Y-108009523D02*
X72383390Y-108009523D01*
X72383390Y-108009523D02*
X72478628Y-107961904D01*
X72478628Y-107961904D02*
X72526247Y-107914285D01*
X72526247Y-107914285D02*
X72573866Y-107819047D01*
X72573866Y-107819047D02*
X72573866Y-107628571D01*
X72573866Y-107628571D02*
X72526247Y-107533333D01*
X72526247Y-107533333D02*
X72478628Y-107485714D01*
X72478628Y-107485714D02*
X72383390Y-107438095D01*
X60238095Y-106104819D02*
X60238095Y-105104819D01*
X60238095Y-105581009D02*
X60809523Y-105581009D01*
X60809523Y-106104819D02*
X60809523Y-105104819D01*
X61809523Y-106104819D02*
X61238095Y-106104819D01*
X61523809Y-106104819D02*
X61523809Y-105104819D01*
X61523809Y-105104819D02*
X61428571Y-105247676D01*
X61428571Y-105247676D02*
X61333333Y-105342914D01*
X61333333Y-105342914D02*
X61238095Y-105390533D01*
X131359580Y-85642857D02*
X131407200Y-85690476D01*
X131407200Y-85690476D02*
X131454819Y-85833333D01*
X131454819Y-85833333D02*
X131454819Y-85928571D01*
X131454819Y-85928571D02*
X131407200Y-86071428D01*
X131407200Y-86071428D02*
X131311961Y-86166666D01*
X131311961Y-86166666D02*
X131216723Y-86214285D01*
X131216723Y-86214285D02*
X131026247Y-86261904D01*
X131026247Y-86261904D02*
X130883390Y-86261904D01*
X130883390Y-86261904D02*
X130692914Y-86214285D01*
X130692914Y-86214285D02*
X130597676Y-86166666D01*
X130597676Y-86166666D02*
X130502438Y-86071428D01*
X130502438Y-86071428D02*
X130454819Y-85928571D01*
X130454819Y-85928571D02*
X130454819Y-85833333D01*
X130454819Y-85833333D02*
X130502438Y-85690476D01*
X130502438Y-85690476D02*
X130550057Y-85642857D01*
X131454819Y-84690476D02*
X131454819Y-85261904D01*
X131454819Y-84976190D02*
X130454819Y-84976190D01*
X130454819Y-84976190D02*
X130597676Y-85071428D01*
X130597676Y-85071428D02*
X130692914Y-85166666D01*
X130692914Y-85166666D02*
X130740533Y-85261904D01*
X130454819Y-84357142D02*
X130454819Y-83738095D01*
X130454819Y-83738095D02*
X130835771Y-84071428D01*
X130835771Y-84071428D02*
X130835771Y-83928571D01*
X130835771Y-83928571D02*
X130883390Y-83833333D01*
X130883390Y-83833333D02*
X130931009Y-83785714D01*
X130931009Y-83785714D02*
X131026247Y-83738095D01*
X131026247Y-83738095D02*
X131264342Y-83738095D01*
X131264342Y-83738095D02*
X131359580Y-83785714D01*
X131359580Y-83785714D02*
X131407200Y-83833333D01*
X131407200Y-83833333D02*
X131454819Y-83928571D01*
X131454819Y-83928571D02*
X131454819Y-84214285D01*
X131454819Y-84214285D02*
X131407200Y-84309523D01*
X131407200Y-84309523D02*
X131359580Y-84357142D01*
X67559580Y-109042857D02*
X67607200Y-109090476D01*
X67607200Y-109090476D02*
X67654819Y-109233333D01*
X67654819Y-109233333D02*
X67654819Y-109328571D01*
X67654819Y-109328571D02*
X67607200Y-109471428D01*
X67607200Y-109471428D02*
X67511961Y-109566666D01*
X67511961Y-109566666D02*
X67416723Y-109614285D01*
X67416723Y-109614285D02*
X67226247Y-109661904D01*
X67226247Y-109661904D02*
X67083390Y-109661904D01*
X67083390Y-109661904D02*
X66892914Y-109614285D01*
X66892914Y-109614285D02*
X66797676Y-109566666D01*
X66797676Y-109566666D02*
X66702438Y-109471428D01*
X66702438Y-109471428D02*
X66654819Y-109328571D01*
X66654819Y-109328571D02*
X66654819Y-109233333D01*
X66654819Y-109233333D02*
X66702438Y-109090476D01*
X66702438Y-109090476D02*
X66750057Y-109042857D01*
X66750057Y-108661904D02*
X66702438Y-108614285D01*
X66702438Y-108614285D02*
X66654819Y-108519047D01*
X66654819Y-108519047D02*
X66654819Y-108280952D01*
X66654819Y-108280952D02*
X66702438Y-108185714D01*
X66702438Y-108185714D02*
X66750057Y-108138095D01*
X66750057Y-108138095D02*
X66845295Y-108090476D01*
X66845295Y-108090476D02*
X66940533Y-108090476D01*
X66940533Y-108090476D02*
X67083390Y-108138095D01*
X67083390Y-108138095D02*
X67654819Y-108709523D01*
X67654819Y-108709523D02*
X67654819Y-108090476D01*
X66654819Y-107471428D02*
X66654819Y-107376190D01*
X66654819Y-107376190D02*
X66702438Y-107280952D01*
X66702438Y-107280952D02*
X66750057Y-107233333D01*
X66750057Y-107233333D02*
X66845295Y-107185714D01*
X66845295Y-107185714D02*
X67035771Y-107138095D01*
X67035771Y-107138095D02*
X67273866Y-107138095D01*
X67273866Y-107138095D02*
X67464342Y-107185714D01*
X67464342Y-107185714D02*
X67559580Y-107233333D01*
X67559580Y-107233333D02*
X67607200Y-107280952D01*
X67607200Y-107280952D02*
X67654819Y-107376190D01*
X67654819Y-107376190D02*
X67654819Y-107471428D01*
X67654819Y-107471428D02*
X67607200Y-107566666D01*
X67607200Y-107566666D02*
X67559580Y-107614285D01*
X67559580Y-107614285D02*
X67464342Y-107661904D01*
X67464342Y-107661904D02*
X67273866Y-107709523D01*
X67273866Y-107709523D02*
X67035771Y-107709523D01*
X67035771Y-107709523D02*
X66845295Y-107661904D01*
X66845295Y-107661904D02*
X66750057Y-107614285D01*
X66750057Y-107614285D02*
X66702438Y-107566666D01*
X66702438Y-107566666D02*
X66654819Y-107471428D01*
X83984819Y-80466666D02*
X83508628Y-80799999D01*
X83984819Y-81038094D02*
X82984819Y-81038094D01*
X82984819Y-81038094D02*
X82984819Y-80657142D01*
X82984819Y-80657142D02*
X83032438Y-80561904D01*
X83032438Y-80561904D02*
X83080057Y-80514285D01*
X83080057Y-80514285D02*
X83175295Y-80466666D01*
X83175295Y-80466666D02*
X83318152Y-80466666D01*
X83318152Y-80466666D02*
X83413390Y-80514285D01*
X83413390Y-80514285D02*
X83461009Y-80561904D01*
X83461009Y-80561904D02*
X83508628Y-80657142D01*
X83508628Y-80657142D02*
X83508628Y-81038094D01*
X83984819Y-79990475D02*
X83984819Y-79799999D01*
X83984819Y-79799999D02*
X83937200Y-79704761D01*
X83937200Y-79704761D02*
X83889580Y-79657142D01*
X83889580Y-79657142D02*
X83746723Y-79561904D01*
X83746723Y-79561904D02*
X83556247Y-79514285D01*
X83556247Y-79514285D02*
X83175295Y-79514285D01*
X83175295Y-79514285D02*
X83080057Y-79561904D01*
X83080057Y-79561904D02*
X83032438Y-79609523D01*
X83032438Y-79609523D02*
X82984819Y-79704761D01*
X82984819Y-79704761D02*
X82984819Y-79895237D01*
X82984819Y-79895237D02*
X83032438Y-79990475D01*
X83032438Y-79990475D02*
X83080057Y-80038094D01*
X83080057Y-80038094D02*
X83175295Y-80085713D01*
X83175295Y-80085713D02*
X83413390Y-80085713D01*
X83413390Y-80085713D02*
X83508628Y-80038094D01*
X83508628Y-80038094D02*
X83556247Y-79990475D01*
X83556247Y-79990475D02*
X83603866Y-79895237D01*
X83603866Y-79895237D02*
X83603866Y-79704761D01*
X83603866Y-79704761D02*
X83556247Y-79609523D01*
X83556247Y-79609523D02*
X83508628Y-79561904D01*
X83508628Y-79561904D02*
X83413390Y-79514285D01*
D14*
X101404761Y-56707419D02*
X101071428Y-56231228D01*
X100833333Y-56707419D02*
X100833333Y-55707419D01*
X100833333Y-55707419D02*
X101214285Y-55707419D01*
X101214285Y-55707419D02*
X101309523Y-55755038D01*
X101309523Y-55755038D02*
X101357142Y-55802657D01*
X101357142Y-55802657D02*
X101404761Y-55897895D01*
X101404761Y-55897895D02*
X101404761Y-56040752D01*
X101404761Y-56040752D02*
X101357142Y-56135990D01*
X101357142Y-56135990D02*
X101309523Y-56183609D01*
X101309523Y-56183609D02*
X101214285Y-56231228D01*
X101214285Y-56231228D02*
X100833333Y-56231228D01*
X101690476Y-55707419D02*
X102023809Y-56707419D01*
X102023809Y-56707419D02*
X102357142Y-55707419D01*
X103214285Y-56707419D02*
X102642857Y-56707419D01*
X102928571Y-56707419D02*
X102928571Y-55707419D01*
X102928571Y-55707419D02*
X102833333Y-55850276D01*
X102833333Y-55850276D02*
X102738095Y-55945514D01*
X102738095Y-55945514D02*
X102642857Y-55993133D01*
D12*
X62261905Y-105454819D02*
X62261905Y-104454819D01*
X62261905Y-104931009D02*
X62833333Y-104931009D01*
X62833333Y-105454819D02*
X62833333Y-104454819D01*
X63261905Y-105407200D02*
X63404762Y-105454819D01*
X63404762Y-105454819D02*
X63642857Y-105454819D01*
X63642857Y-105454819D02*
X63738095Y-105407200D01*
X63738095Y-105407200D02*
X63785714Y-105359580D01*
X63785714Y-105359580D02*
X63833333Y-105264342D01*
X63833333Y-105264342D02*
X63833333Y-105169104D01*
X63833333Y-105169104D02*
X63785714Y-105073866D01*
X63785714Y-105073866D02*
X63738095Y-105026247D01*
X63738095Y-105026247D02*
X63642857Y-104978628D01*
X63642857Y-104978628D02*
X63452381Y-104931009D01*
X63452381Y-104931009D02*
X63357143Y-104883390D01*
X63357143Y-104883390D02*
X63309524Y-104835771D01*
X63309524Y-104835771D02*
X63261905Y-104740533D01*
X63261905Y-104740533D02*
X63261905Y-104645295D01*
X63261905Y-104645295D02*
X63309524Y-104550057D01*
X63309524Y-104550057D02*
X63357143Y-104502438D01*
X63357143Y-104502438D02*
X63452381Y-104454819D01*
X63452381Y-104454819D02*
X63690476Y-104454819D01*
X63690476Y-104454819D02*
X63833333Y-104502438D01*
X64785714Y-105454819D02*
X64214286Y-105454819D01*
X64500000Y-105454819D02*
X64500000Y-104454819D01*
X64500000Y-104454819D02*
X64404762Y-104597676D01*
X64404762Y-104597676D02*
X64309524Y-104692914D01*
X64309524Y-104692914D02*
X64214286Y-104740533D01*
X123109580Y-84666666D02*
X123157200Y-84714285D01*
X123157200Y-84714285D02*
X123204819Y-84857142D01*
X123204819Y-84857142D02*
X123204819Y-84952380D01*
X123204819Y-84952380D02*
X123157200Y-85095237D01*
X123157200Y-85095237D02*
X123061961Y-85190475D01*
X123061961Y-85190475D02*
X122966723Y-85238094D01*
X122966723Y-85238094D02*
X122776247Y-85285713D01*
X122776247Y-85285713D02*
X122633390Y-85285713D01*
X122633390Y-85285713D02*
X122442914Y-85238094D01*
X122442914Y-85238094D02*
X122347676Y-85190475D01*
X122347676Y-85190475D02*
X122252438Y-85095237D01*
X122252438Y-85095237D02*
X122204819Y-84952380D01*
X122204819Y-84952380D02*
X122204819Y-84857142D01*
X122204819Y-84857142D02*
X122252438Y-84714285D01*
X122252438Y-84714285D02*
X122300057Y-84666666D01*
X122633390Y-84095237D02*
X122585771Y-84190475D01*
X122585771Y-84190475D02*
X122538152Y-84238094D01*
X122538152Y-84238094D02*
X122442914Y-84285713D01*
X122442914Y-84285713D02*
X122395295Y-84285713D01*
X122395295Y-84285713D02*
X122300057Y-84238094D01*
X122300057Y-84238094D02*
X122252438Y-84190475D01*
X122252438Y-84190475D02*
X122204819Y-84095237D01*
X122204819Y-84095237D02*
X122204819Y-83904761D01*
X122204819Y-83904761D02*
X122252438Y-83809523D01*
X122252438Y-83809523D02*
X122300057Y-83761904D01*
X122300057Y-83761904D02*
X122395295Y-83714285D01*
X122395295Y-83714285D02*
X122442914Y-83714285D01*
X122442914Y-83714285D02*
X122538152Y-83761904D01*
X122538152Y-83761904D02*
X122585771Y-83809523D01*
X122585771Y-83809523D02*
X122633390Y-83904761D01*
X122633390Y-83904761D02*
X122633390Y-84095237D01*
X122633390Y-84095237D02*
X122681009Y-84190475D01*
X122681009Y-84190475D02*
X122728628Y-84238094D01*
X122728628Y-84238094D02*
X122823866Y-84285713D01*
X122823866Y-84285713D02*
X123014342Y-84285713D01*
X123014342Y-84285713D02*
X123109580Y-84238094D01*
X123109580Y-84238094D02*
X123157200Y-84190475D01*
X123157200Y-84190475D02*
X123204819Y-84095237D01*
X123204819Y-84095237D02*
X123204819Y-83904761D01*
X123204819Y-83904761D02*
X123157200Y-83809523D01*
X123157200Y-83809523D02*
X123109580Y-83761904D01*
X123109580Y-83761904D02*
X123014342Y-83714285D01*
X123014342Y-83714285D02*
X122823866Y-83714285D01*
X122823866Y-83714285D02*
X122728628Y-83761904D01*
X122728628Y-83761904D02*
X122681009Y-83809523D01*
X122681009Y-83809523D02*
X122633390Y-83904761D01*
X137238095Y-132454819D02*
X137809523Y-132454819D01*
X137523809Y-133454819D02*
X137523809Y-132454819D01*
X138142857Y-133454819D02*
X138142857Y-132454819D01*
X138142857Y-132454819D02*
X138523809Y-132454819D01*
X138523809Y-132454819D02*
X138619047Y-132502438D01*
X138619047Y-132502438D02*
X138666666Y-132550057D01*
X138666666Y-132550057D02*
X138714285Y-132645295D01*
X138714285Y-132645295D02*
X138714285Y-132788152D01*
X138714285Y-132788152D02*
X138666666Y-132883390D01*
X138666666Y-132883390D02*
X138619047Y-132931009D01*
X138619047Y-132931009D02*
X138523809Y-132978628D01*
X138523809Y-132978628D02*
X138142857Y-132978628D01*
X139047619Y-132454819D02*
X139666666Y-132454819D01*
X139666666Y-132454819D02*
X139333333Y-132835771D01*
X139333333Y-132835771D02*
X139476190Y-132835771D01*
X139476190Y-132835771D02*
X139571428Y-132883390D01*
X139571428Y-132883390D02*
X139619047Y-132931009D01*
X139619047Y-132931009D02*
X139666666Y-133026247D01*
X139666666Y-133026247D02*
X139666666Y-133264342D01*
X139666666Y-133264342D02*
X139619047Y-133359580D01*
X139619047Y-133359580D02*
X139571428Y-133407200D01*
X139571428Y-133407200D02*
X139476190Y-133454819D01*
X139476190Y-133454819D02*
X139190476Y-133454819D01*
X139190476Y-133454819D02*
X139095238Y-133407200D01*
X139095238Y-133407200D02*
X139047619Y-133359580D01*
X87754819Y-78916666D02*
X87278628Y-79249999D01*
X87754819Y-79488094D02*
X86754819Y-79488094D01*
X86754819Y-79488094D02*
X86754819Y-79107142D01*
X86754819Y-79107142D02*
X86802438Y-79011904D01*
X86802438Y-79011904D02*
X86850057Y-78964285D01*
X86850057Y-78964285D02*
X86945295Y-78916666D01*
X86945295Y-78916666D02*
X87088152Y-78916666D01*
X87088152Y-78916666D02*
X87183390Y-78964285D01*
X87183390Y-78964285D02*
X87231009Y-79011904D01*
X87231009Y-79011904D02*
X87278628Y-79107142D01*
X87278628Y-79107142D02*
X87278628Y-79488094D01*
X86754819Y-78011904D02*
X86754819Y-78488094D01*
X86754819Y-78488094D02*
X87231009Y-78535713D01*
X87231009Y-78535713D02*
X87183390Y-78488094D01*
X87183390Y-78488094D02*
X87135771Y-78392856D01*
X87135771Y-78392856D02*
X87135771Y-78154761D01*
X87135771Y-78154761D02*
X87183390Y-78059523D01*
X87183390Y-78059523D02*
X87231009Y-78011904D01*
X87231009Y-78011904D02*
X87326247Y-77964285D01*
X87326247Y-77964285D02*
X87564342Y-77964285D01*
X87564342Y-77964285D02*
X87659580Y-78011904D01*
X87659580Y-78011904D02*
X87707200Y-78059523D01*
X87707200Y-78059523D02*
X87754819Y-78154761D01*
X87754819Y-78154761D02*
X87754819Y-78392856D01*
X87754819Y-78392856D02*
X87707200Y-78488094D01*
X87707200Y-78488094D02*
X87659580Y-78535713D01*
X78209580Y-94391666D02*
X78257200Y-94439285D01*
X78257200Y-94439285D02*
X78304819Y-94582142D01*
X78304819Y-94582142D02*
X78304819Y-94677380D01*
X78304819Y-94677380D02*
X78257200Y-94820237D01*
X78257200Y-94820237D02*
X78161961Y-94915475D01*
X78161961Y-94915475D02*
X78066723Y-94963094D01*
X78066723Y-94963094D02*
X77876247Y-95010713D01*
X77876247Y-95010713D02*
X77733390Y-95010713D01*
X77733390Y-95010713D02*
X77542914Y-94963094D01*
X77542914Y-94963094D02*
X77447676Y-94915475D01*
X77447676Y-94915475D02*
X77352438Y-94820237D01*
X77352438Y-94820237D02*
X77304819Y-94677380D01*
X77304819Y-94677380D02*
X77304819Y-94582142D01*
X77304819Y-94582142D02*
X77352438Y-94439285D01*
X77352438Y-94439285D02*
X77400057Y-94391666D01*
X77304819Y-93486904D02*
X77304819Y-93963094D01*
X77304819Y-93963094D02*
X77781009Y-94010713D01*
X77781009Y-94010713D02*
X77733390Y-93963094D01*
X77733390Y-93963094D02*
X77685771Y-93867856D01*
X77685771Y-93867856D02*
X77685771Y-93629761D01*
X77685771Y-93629761D02*
X77733390Y-93534523D01*
X77733390Y-93534523D02*
X77781009Y-93486904D01*
X77781009Y-93486904D02*
X77876247Y-93439285D01*
X77876247Y-93439285D02*
X78114342Y-93439285D01*
X78114342Y-93439285D02*
X78209580Y-93486904D01*
X78209580Y-93486904D02*
X78257200Y-93534523D01*
X78257200Y-93534523D02*
X78304819Y-93629761D01*
X78304819Y-93629761D02*
X78304819Y-93867856D01*
X78304819Y-93867856D02*
X78257200Y-93963094D01*
X78257200Y-93963094D02*
X78209580Y-94010713D01*
X67833333Y-80814819D02*
X67500000Y-80338628D01*
X67261905Y-80814819D02*
X67261905Y-79814819D01*
X67261905Y-79814819D02*
X67642857Y-79814819D01*
X67642857Y-79814819D02*
X67738095Y-79862438D01*
X67738095Y-79862438D02*
X67785714Y-79910057D01*
X67785714Y-79910057D02*
X67833333Y-80005295D01*
X67833333Y-80005295D02*
X67833333Y-80148152D01*
X67833333Y-80148152D02*
X67785714Y-80243390D01*
X67785714Y-80243390D02*
X67738095Y-80291009D01*
X67738095Y-80291009D02*
X67642857Y-80338628D01*
X67642857Y-80338628D02*
X67261905Y-80338628D01*
X68404762Y-80243390D02*
X68309524Y-80195771D01*
X68309524Y-80195771D02*
X68261905Y-80148152D01*
X68261905Y-80148152D02*
X68214286Y-80052914D01*
X68214286Y-80052914D02*
X68214286Y-80005295D01*
X68214286Y-80005295D02*
X68261905Y-79910057D01*
X68261905Y-79910057D02*
X68309524Y-79862438D01*
X68309524Y-79862438D02*
X68404762Y-79814819D01*
X68404762Y-79814819D02*
X68595238Y-79814819D01*
X68595238Y-79814819D02*
X68690476Y-79862438D01*
X68690476Y-79862438D02*
X68738095Y-79910057D01*
X68738095Y-79910057D02*
X68785714Y-80005295D01*
X68785714Y-80005295D02*
X68785714Y-80052914D01*
X68785714Y-80052914D02*
X68738095Y-80148152D01*
X68738095Y-80148152D02*
X68690476Y-80195771D01*
X68690476Y-80195771D02*
X68595238Y-80243390D01*
X68595238Y-80243390D02*
X68404762Y-80243390D01*
X68404762Y-80243390D02*
X68309524Y-80291009D01*
X68309524Y-80291009D02*
X68261905Y-80338628D01*
X68261905Y-80338628D02*
X68214286Y-80433866D01*
X68214286Y-80433866D02*
X68214286Y-80624342D01*
X68214286Y-80624342D02*
X68261905Y-80719580D01*
X68261905Y-80719580D02*
X68309524Y-80767200D01*
X68309524Y-80767200D02*
X68404762Y-80814819D01*
X68404762Y-80814819D02*
X68595238Y-80814819D01*
X68595238Y-80814819D02*
X68690476Y-80767200D01*
X68690476Y-80767200D02*
X68738095Y-80719580D01*
X68738095Y-80719580D02*
X68785714Y-80624342D01*
X68785714Y-80624342D02*
X68785714Y-80433866D01*
X68785714Y-80433866D02*
X68738095Y-80338628D01*
X68738095Y-80338628D02*
X68690476Y-80291009D01*
X68690476Y-80291009D02*
X68595238Y-80243390D01*
X63859580Y-139792857D02*
X63907200Y-139840476D01*
X63907200Y-139840476D02*
X63954819Y-139983333D01*
X63954819Y-139983333D02*
X63954819Y-140078571D01*
X63954819Y-140078571D02*
X63907200Y-140221428D01*
X63907200Y-140221428D02*
X63811961Y-140316666D01*
X63811961Y-140316666D02*
X63716723Y-140364285D01*
X63716723Y-140364285D02*
X63526247Y-140411904D01*
X63526247Y-140411904D02*
X63383390Y-140411904D01*
X63383390Y-140411904D02*
X63192914Y-140364285D01*
X63192914Y-140364285D02*
X63097676Y-140316666D01*
X63097676Y-140316666D02*
X63002438Y-140221428D01*
X63002438Y-140221428D02*
X62954819Y-140078571D01*
X62954819Y-140078571D02*
X62954819Y-139983333D01*
X62954819Y-139983333D02*
X63002438Y-139840476D01*
X63002438Y-139840476D02*
X63050057Y-139792857D01*
X63050057Y-139411904D02*
X63002438Y-139364285D01*
X63002438Y-139364285D02*
X62954819Y-139269047D01*
X62954819Y-139269047D02*
X62954819Y-139030952D01*
X62954819Y-139030952D02*
X63002438Y-138935714D01*
X63002438Y-138935714D02*
X63050057Y-138888095D01*
X63050057Y-138888095D02*
X63145295Y-138840476D01*
X63145295Y-138840476D02*
X63240533Y-138840476D01*
X63240533Y-138840476D02*
X63383390Y-138888095D01*
X63383390Y-138888095D02*
X63954819Y-139459523D01*
X63954819Y-139459523D02*
X63954819Y-138840476D01*
X62954819Y-138507142D02*
X62954819Y-137888095D01*
X62954819Y-137888095D02*
X63335771Y-138221428D01*
X63335771Y-138221428D02*
X63335771Y-138078571D01*
X63335771Y-138078571D02*
X63383390Y-137983333D01*
X63383390Y-137983333D02*
X63431009Y-137935714D01*
X63431009Y-137935714D02*
X63526247Y-137888095D01*
X63526247Y-137888095D02*
X63764342Y-137888095D01*
X63764342Y-137888095D02*
X63859580Y-137935714D01*
X63859580Y-137935714D02*
X63907200Y-137983333D01*
X63907200Y-137983333D02*
X63954819Y-138078571D01*
X63954819Y-138078571D02*
X63954819Y-138364285D01*
X63954819Y-138364285D02*
X63907200Y-138459523D01*
X63907200Y-138459523D02*
X63859580Y-138507142D01*
D14*
X126638095Y-133857419D02*
X127209523Y-133857419D01*
X126923809Y-134857419D02*
X126923809Y-133857419D01*
X128066666Y-134857419D02*
X127495238Y-134857419D01*
X127780952Y-134857419D02*
X127780952Y-133857419D01*
X127780952Y-133857419D02*
X127685714Y-134000276D01*
X127685714Y-134000276D02*
X127590476Y-134095514D01*
X127590476Y-134095514D02*
X127495238Y-134143133D01*
D12*
X99904761Y-73690057D02*
X99809523Y-73642438D01*
X99809523Y-73642438D02*
X99714285Y-73547200D01*
X99714285Y-73547200D02*
X99571428Y-73404342D01*
X99571428Y-73404342D02*
X99476190Y-73356723D01*
X99476190Y-73356723D02*
X99380952Y-73356723D01*
X99428571Y-73594819D02*
X99333333Y-73547200D01*
X99333333Y-73547200D02*
X99238095Y-73451961D01*
X99238095Y-73451961D02*
X99190476Y-73261485D01*
X99190476Y-73261485D02*
X99190476Y-72928152D01*
X99190476Y-72928152D02*
X99238095Y-72737676D01*
X99238095Y-72737676D02*
X99333333Y-72642438D01*
X99333333Y-72642438D02*
X99428571Y-72594819D01*
X99428571Y-72594819D02*
X99619047Y-72594819D01*
X99619047Y-72594819D02*
X99714285Y-72642438D01*
X99714285Y-72642438D02*
X99809523Y-72737676D01*
X99809523Y-72737676D02*
X99857142Y-72928152D01*
X99857142Y-72928152D02*
X99857142Y-73261485D01*
X99857142Y-73261485D02*
X99809523Y-73451961D01*
X99809523Y-73451961D02*
X99714285Y-73547200D01*
X99714285Y-73547200D02*
X99619047Y-73594819D01*
X99619047Y-73594819D02*
X99428571Y-73594819D01*
X100809523Y-73594819D02*
X100238095Y-73594819D01*
X100523809Y-73594819D02*
X100523809Y-72594819D01*
X100523809Y-72594819D02*
X100428571Y-72737676D01*
X100428571Y-72737676D02*
X100333333Y-72832914D01*
X100333333Y-72832914D02*
X100238095Y-72880533D01*
X67033333Y-88934819D02*
X66700000Y-88458628D01*
X66461905Y-88934819D02*
X66461905Y-87934819D01*
X66461905Y-87934819D02*
X66842857Y-87934819D01*
X66842857Y-87934819D02*
X66938095Y-87982438D01*
X66938095Y-87982438D02*
X66985714Y-88030057D01*
X66985714Y-88030057D02*
X67033333Y-88125295D01*
X67033333Y-88125295D02*
X67033333Y-88268152D01*
X67033333Y-88268152D02*
X66985714Y-88363390D01*
X66985714Y-88363390D02*
X66938095Y-88411009D01*
X66938095Y-88411009D02*
X66842857Y-88458628D01*
X66842857Y-88458628D02*
X66461905Y-88458628D01*
X67366667Y-87934819D02*
X68033333Y-87934819D01*
X68033333Y-87934819D02*
X67604762Y-88934819D01*
X73011905Y-131204819D02*
X73011905Y-130204819D01*
X73011905Y-130204819D02*
X73250000Y-130204819D01*
X73250000Y-130204819D02*
X73392857Y-130252438D01*
X73392857Y-130252438D02*
X73488095Y-130347676D01*
X73488095Y-130347676D02*
X73535714Y-130442914D01*
X73535714Y-130442914D02*
X73583333Y-130633390D01*
X73583333Y-130633390D02*
X73583333Y-130776247D01*
X73583333Y-130776247D02*
X73535714Y-130966723D01*
X73535714Y-130966723D02*
X73488095Y-131061961D01*
X73488095Y-131061961D02*
X73392857Y-131157200D01*
X73392857Y-131157200D02*
X73250000Y-131204819D01*
X73250000Y-131204819D02*
X73011905Y-131204819D01*
X73916667Y-130204819D02*
X74583333Y-130204819D01*
X74583333Y-130204819D02*
X74154762Y-131204819D01*
X63859580Y-135642857D02*
X63907200Y-135690476D01*
X63907200Y-135690476D02*
X63954819Y-135833333D01*
X63954819Y-135833333D02*
X63954819Y-135928571D01*
X63954819Y-135928571D02*
X63907200Y-136071428D01*
X63907200Y-136071428D02*
X63811961Y-136166666D01*
X63811961Y-136166666D02*
X63716723Y-136214285D01*
X63716723Y-136214285D02*
X63526247Y-136261904D01*
X63526247Y-136261904D02*
X63383390Y-136261904D01*
X63383390Y-136261904D02*
X63192914Y-136214285D01*
X63192914Y-136214285D02*
X63097676Y-136166666D01*
X63097676Y-136166666D02*
X63002438Y-136071428D01*
X63002438Y-136071428D02*
X62954819Y-135928571D01*
X62954819Y-135928571D02*
X62954819Y-135833333D01*
X62954819Y-135833333D02*
X63002438Y-135690476D01*
X63002438Y-135690476D02*
X63050057Y-135642857D01*
X63050057Y-135261904D02*
X63002438Y-135214285D01*
X63002438Y-135214285D02*
X62954819Y-135119047D01*
X62954819Y-135119047D02*
X62954819Y-134880952D01*
X62954819Y-134880952D02*
X63002438Y-134785714D01*
X63002438Y-134785714D02*
X63050057Y-134738095D01*
X63050057Y-134738095D02*
X63145295Y-134690476D01*
X63145295Y-134690476D02*
X63240533Y-134690476D01*
X63240533Y-134690476D02*
X63383390Y-134738095D01*
X63383390Y-134738095D02*
X63954819Y-135309523D01*
X63954819Y-135309523D02*
X63954819Y-134690476D01*
X63050057Y-134309523D02*
X63002438Y-134261904D01*
X63002438Y-134261904D02*
X62954819Y-134166666D01*
X62954819Y-134166666D02*
X62954819Y-133928571D01*
X62954819Y-133928571D02*
X63002438Y-133833333D01*
X63002438Y-133833333D02*
X63050057Y-133785714D01*
X63050057Y-133785714D02*
X63145295Y-133738095D01*
X63145295Y-133738095D02*
X63240533Y-133738095D01*
X63240533Y-133738095D02*
X63383390Y-133785714D01*
X63383390Y-133785714D02*
X63954819Y-134357142D01*
X63954819Y-134357142D02*
X63954819Y-133738095D01*
X131359580Y-90142857D02*
X131407200Y-90190476D01*
X131407200Y-90190476D02*
X131454819Y-90333333D01*
X131454819Y-90333333D02*
X131454819Y-90428571D01*
X131454819Y-90428571D02*
X131407200Y-90571428D01*
X131407200Y-90571428D02*
X131311961Y-90666666D01*
X131311961Y-90666666D02*
X131216723Y-90714285D01*
X131216723Y-90714285D02*
X131026247Y-90761904D01*
X131026247Y-90761904D02*
X130883390Y-90761904D01*
X130883390Y-90761904D02*
X130692914Y-90714285D01*
X130692914Y-90714285D02*
X130597676Y-90666666D01*
X130597676Y-90666666D02*
X130502438Y-90571428D01*
X130502438Y-90571428D02*
X130454819Y-90428571D01*
X130454819Y-90428571D02*
X130454819Y-90333333D01*
X130454819Y-90333333D02*
X130502438Y-90190476D01*
X130502438Y-90190476D02*
X130550057Y-90142857D01*
X131454819Y-89190476D02*
X131454819Y-89761904D01*
X131454819Y-89476190D02*
X130454819Y-89476190D01*
X130454819Y-89476190D02*
X130597676Y-89571428D01*
X130597676Y-89571428D02*
X130692914Y-89666666D01*
X130692914Y-89666666D02*
X130740533Y-89761904D01*
X130550057Y-88809523D02*
X130502438Y-88761904D01*
X130502438Y-88761904D02*
X130454819Y-88666666D01*
X130454819Y-88666666D02*
X130454819Y-88428571D01*
X130454819Y-88428571D02*
X130502438Y-88333333D01*
X130502438Y-88333333D02*
X130550057Y-88285714D01*
X130550057Y-88285714D02*
X130645295Y-88238095D01*
X130645295Y-88238095D02*
X130740533Y-88238095D01*
X130740533Y-88238095D02*
X130883390Y-88285714D01*
X130883390Y-88285714D02*
X131454819Y-88857142D01*
X131454819Y-88857142D02*
X131454819Y-88238095D01*
X64666666Y-88454819D02*
X64666666Y-89169104D01*
X64666666Y-89169104D02*
X64619047Y-89311961D01*
X64619047Y-89311961D02*
X64523809Y-89407200D01*
X64523809Y-89407200D02*
X64380952Y-89454819D01*
X64380952Y-89454819D02*
X64285714Y-89454819D01*
X65047619Y-88454819D02*
X65666666Y-88454819D01*
X65666666Y-88454819D02*
X65333333Y-88835771D01*
X65333333Y-88835771D02*
X65476190Y-88835771D01*
X65476190Y-88835771D02*
X65571428Y-88883390D01*
X65571428Y-88883390D02*
X65619047Y-88931009D01*
X65619047Y-88931009D02*
X65666666Y-89026247D01*
X65666666Y-89026247D02*
X65666666Y-89264342D01*
X65666666Y-89264342D02*
X65619047Y-89359580D01*
X65619047Y-89359580D02*
X65571428Y-89407200D01*
X65571428Y-89407200D02*
X65476190Y-89454819D01*
X65476190Y-89454819D02*
X65190476Y-89454819D01*
X65190476Y-89454819D02*
X65095238Y-89407200D01*
X65095238Y-89407200D02*
X65047619Y-89359580D01*
D15*
%TO.C,GD1*%
X117213748Y-141090000D02*
X119986252Y-141090000D01*
X117213748Y-144510000D02*
X119986252Y-144510000D01*
%TO.C,D3*%
X108825000Y-118735000D02*
X112710000Y-118735000D01*
X112710000Y-116465000D02*
X108825000Y-116465000D01*
X112710000Y-118735000D02*
X112710000Y-116465000D01*
%TO.C,SW1*%
X109100000Y-68290000D02*
X113900000Y-68290000D01*
X109100000Y-79710000D02*
X109100000Y-68290000D01*
X113900000Y-68290000D02*
X113900000Y-79710000D01*
X113900000Y-72095000D02*
X109100000Y-72095000D01*
X113900000Y-79710000D02*
X109100000Y-79710000D01*
%TO.C,D4*%
X108727500Y-114350000D02*
X108727500Y-116050000D01*
X108727500Y-114350000D02*
X111387500Y-114350000D01*
X108727500Y-116050000D02*
X111387500Y-116050000D01*
%TO.C,C7*%
X117588748Y-78540000D02*
X119911252Y-78540000D01*
X117588748Y-81960000D02*
X119911252Y-81960000D01*
%TO.C,R13*%
X110552064Y-112065000D02*
X110097936Y-112065000D01*
X110552064Y-113535000D02*
X110097936Y-113535000D01*
%TO.C,C4*%
X73290000Y-95386252D02*
X73290000Y-93063748D01*
X76710000Y-95386252D02*
X76710000Y-93063748D01*
%TO.C,D5*%
X85160000Y-134350000D02*
X79350000Y-134350000D01*
X85160000Y-138650000D02*
X79350000Y-138650000D01*
X85160000Y-138650000D02*
X85160000Y-134350000D01*
D16*
%TO.C,J12*%
X91199999Y-142350000D02*
X91199999Y-125650001D01*
X97699999Y-125650001D02*
X91199999Y-125650001D01*
X97699999Y-125650001D02*
X97699999Y-142350000D01*
X97699999Y-130050000D02*
X98599999Y-130050000D01*
X97699999Y-135449999D02*
X98599999Y-135449999D01*
X97699999Y-142350000D02*
X91199999Y-142350000D01*
X98599999Y-130050000D02*
X98599999Y-135449999D01*
D17*
X90819000Y-137450000D02*
G75*
G02*
X90057000Y-137450000I-381000J0D01*
G01*
X90057000Y-137450000D02*
G75*
G02*
X90819000Y-137450000I381000J0D01*
G01*
D16*
%TO.C,L2*%
X126618000Y-112724300D02*
X143382000Y-112724300D01*
X126618000Y-113670196D02*
X126618000Y-112724300D01*
X126618000Y-124270124D02*
X126618000Y-118729876D01*
X126618000Y-130275700D02*
X126618000Y-129329804D01*
X143382000Y-112724300D02*
X143382000Y-118970160D01*
X143382000Y-124029840D02*
X143382000Y-130275700D01*
X143382000Y-130275700D02*
X126618000Y-130275700D01*
X125776200Y-112900000D02*
G75*
G02*
X125623800Y-112900000I-76200J0D01*
G01*
X125623800Y-112900000D02*
G75*
G02*
X125776200Y-112900000I76200J0D01*
G01*
D15*
%TO.C,D6*%
X77840000Y-140100000D02*
X77840000Y-144400000D01*
X77840000Y-140100000D02*
X83650000Y-140100000D01*
X77840000Y-144400000D02*
X83650000Y-144400000D01*
%TO.C,D2*%
X95290000Y-103350000D02*
X103800000Y-103350000D01*
X95290000Y-109850000D02*
X95290000Y-103350000D01*
X95290000Y-109850000D02*
X103800000Y-109850000D01*
%TO.C,J1*%
X119390000Y-55390000D02*
X129610000Y-55390000D01*
X119390000Y-58450000D02*
X119390000Y-55390000D01*
X119390000Y-68610000D02*
X119390000Y-62550000D01*
X122200000Y-68610000D02*
X119390000Y-68610000D01*
X125500000Y-68800000D02*
X123500000Y-68800000D01*
X129610000Y-55390000D02*
X129610000Y-58450000D01*
X129610000Y-62550000D02*
X129610000Y-68610000D01*
X129610000Y-68610000D02*
X126800000Y-68610000D01*
%TO.C,R6*%
X86790000Y-101113748D02*
X86790000Y-103886252D01*
X90210000Y-101113748D02*
X90210000Y-103886252D01*
%TO.C,J5*%
X55400000Y-73900000D02*
X63600000Y-73900000D01*
X55400000Y-82100000D02*
X55400000Y-73900000D01*
X55400000Y-82100000D02*
X63600000Y-82100000D01*
X59500000Y-81600000D02*
X59000000Y-82100000D01*
X60000000Y-82100000D02*
X59500000Y-81600000D01*
X63600000Y-82100000D02*
X63600000Y-73900000D01*
%TO.C,C10*%
X117588748Y-91290000D02*
X119911252Y-91290000D01*
X117588748Y-94710000D02*
X119911252Y-94710000D01*
%TO.C,J6*%
X72370000Y-100805000D02*
X82650000Y-100805000D01*
X72370000Y-103405000D02*
X72370000Y-100805000D01*
X72370000Y-106005000D02*
X72370000Y-104675000D01*
X73700000Y-106005000D02*
X72370000Y-106005000D01*
X74970000Y-103405000D02*
X72370000Y-103405000D01*
X74970000Y-106005000D02*
X74970000Y-103405000D01*
X74970000Y-106005000D02*
X82650000Y-106005000D01*
X82650000Y-106005000D02*
X82650000Y-100805000D01*
%TO.C,R2*%
X87772936Y-68015000D02*
X88227064Y-68015000D01*
X87772936Y-69485000D02*
X88227064Y-69485000D01*
%TO.C,J4*%
X109405000Y-91630000D02*
X109405000Y-81350000D01*
X112005000Y-89030000D02*
X112005000Y-91630000D01*
X112005000Y-91630000D02*
X109405000Y-91630000D01*
X114605000Y-81350000D02*
X109405000Y-81350000D01*
X114605000Y-89030000D02*
X112005000Y-89030000D01*
X114605000Y-89030000D02*
X114605000Y-81350000D01*
X114605000Y-90300000D02*
X114605000Y-91630000D01*
X114605000Y-91630000D02*
X113275000Y-91630000D01*
D11*
%TO.C,T2*%
X111800000Y-131800000D02*
X129800000Y-131800000D01*
X111800000Y-132300000D02*
X111800000Y-131800000D01*
X111800000Y-140100000D02*
X111800000Y-140400000D01*
X111800000Y-140400000D02*
X129800000Y-140400000D01*
X129800000Y-134400000D02*
X129800000Y-137800000D01*
D18*
X112080000Y-136100000D02*
G75*
G02*
X111520000Y-136100000I-280000J0D01*
G01*
X111520000Y-136100000D02*
G75*
G02*
X112080000Y-136100000I280000J0D01*
G01*
D15*
%TO.C,C11*%
X101790000Y-67911252D02*
X101790000Y-65588748D01*
X105210000Y-67911252D02*
X105210000Y-65588748D01*
%TO.C,C14*%
X61140000Y-125488748D02*
X61140000Y-126911252D01*
X63860000Y-125488748D02*
X63860000Y-126911252D01*
%TO.C,C18*%
X75380000Y-110830000D02*
X76899000Y-110830000D01*
X75380000Y-122070000D02*
X75380000Y-110830000D01*
X75380000Y-122070000D02*
X76899000Y-122070000D01*
X79101000Y-110830000D02*
X80620000Y-110830000D01*
X79101000Y-122070000D02*
X80620000Y-122070000D01*
X80620000Y-122070000D02*
X80620000Y-110830000D01*
%TO.C,C3*%
X67790000Y-95386252D02*
X67790000Y-93063748D01*
X71210000Y-95386252D02*
X71210000Y-93063748D01*
%TO.C,C2*%
X121152677Y-73125000D02*
X122152677Y-73125000D01*
X121652677Y-72625000D02*
X121652677Y-73625000D01*
X126632323Y-70920000D02*
X126632323Y-81080000D01*
X126672323Y-70920000D02*
X126672323Y-81080000D01*
X126712323Y-70920000D02*
X126712323Y-81080000D01*
X126752323Y-70921000D02*
X126752323Y-81079000D01*
X126792323Y-70922000D02*
X126792323Y-81078000D01*
X126832323Y-70923000D02*
X126832323Y-81077000D01*
X126872323Y-70925000D02*
X126872323Y-81075000D01*
X126912323Y-70927000D02*
X126912323Y-81073000D01*
X126952323Y-70930000D02*
X126952323Y-81070000D01*
X126992323Y-70932000D02*
X126992323Y-81068000D01*
X127032323Y-70935000D02*
X127032323Y-81065000D01*
X127072323Y-70938000D02*
X127072323Y-81062000D01*
X127112323Y-70942000D02*
X127112323Y-81058000D01*
X127152323Y-70946000D02*
X127152323Y-81054000D01*
X127192323Y-70950000D02*
X127192323Y-81050000D01*
X127232323Y-70955000D02*
X127232323Y-81045000D01*
X127272323Y-70960000D02*
X127272323Y-81040000D01*
X127312323Y-70965000D02*
X127312323Y-81035000D01*
X127353323Y-70970000D02*
X127353323Y-81030000D01*
X127393323Y-70976000D02*
X127393323Y-81024000D01*
X127433323Y-70982000D02*
X127433323Y-81018000D01*
X127473323Y-70989000D02*
X127473323Y-81011000D01*
X127513323Y-70996000D02*
X127513323Y-81004000D01*
X127553323Y-71003000D02*
X127553323Y-80997000D01*
X127593323Y-71010000D02*
X127593323Y-80990000D01*
X127633323Y-71018000D02*
X127633323Y-80982000D01*
X127673323Y-71026000D02*
X127673323Y-80974000D01*
X127713323Y-71035000D02*
X127713323Y-80965000D01*
X127753323Y-71044000D02*
X127753323Y-80956000D01*
X127793323Y-71053000D02*
X127793323Y-80947000D01*
X127833323Y-71062000D02*
X127833323Y-80938000D01*
X127873323Y-71072000D02*
X127873323Y-80928000D01*
X127913323Y-71082000D02*
X127913323Y-74759000D01*
X127913323Y-77241000D02*
X127913323Y-80918000D01*
X127953323Y-71093000D02*
X127953323Y-74759000D01*
X127953323Y-77241000D02*
X127953323Y-80907000D01*
X127993323Y-71103000D02*
X127993323Y-74759000D01*
X127993323Y-77241000D02*
X127993323Y-80897000D01*
X128033323Y-71115000D02*
X128033323Y-74759000D01*
X128033323Y-77241000D02*
X128033323Y-80885000D01*
X128073323Y-71126000D02*
X128073323Y-74759000D01*
X128073323Y-77241000D02*
X128073323Y-80874000D01*
X128113323Y-71138000D02*
X128113323Y-74759000D01*
X128113323Y-77241000D02*
X128113323Y-80862000D01*
X128153323Y-71150000D02*
X128153323Y-74759000D01*
X128153323Y-77241000D02*
X128153323Y-80850000D01*
X128193323Y-71163000D02*
X128193323Y-74759000D01*
X128193323Y-77241000D02*
X128193323Y-80837000D01*
X128233323Y-71176000D02*
X128233323Y-74759000D01*
X128233323Y-77241000D02*
X128233323Y-80824000D01*
X128273323Y-71189000D02*
X128273323Y-74759000D01*
X128273323Y-77241000D02*
X128273323Y-80811000D01*
X128313323Y-71203000D02*
X128313323Y-74759000D01*
X128313323Y-77241000D02*
X128313323Y-80797000D01*
X128353323Y-71217000D02*
X128353323Y-74759000D01*
X128353323Y-77241000D02*
X128353323Y-80783000D01*
X128393323Y-71232000D02*
X128393323Y-74759000D01*
X128393323Y-77241000D02*
X128393323Y-80768000D01*
X128433323Y-71246000D02*
X128433323Y-74759000D01*
X128433323Y-77241000D02*
X128433323Y-80754000D01*
X128473323Y-71262000D02*
X128473323Y-74759000D01*
X128473323Y-77241000D02*
X128473323Y-80738000D01*
X128513323Y-71277000D02*
X128513323Y-74759000D01*
X128513323Y-77241000D02*
X128513323Y-80723000D01*
X128553323Y-71293000D02*
X128553323Y-74759000D01*
X128553323Y-77241000D02*
X128553323Y-80707000D01*
X128593323Y-71310000D02*
X128593323Y-74759000D01*
X128593323Y-77241000D02*
X128593323Y-80690000D01*
X128633323Y-71326000D02*
X128633323Y-74759000D01*
X128633323Y-77241000D02*
X128633323Y-80674000D01*
X128673323Y-71343000D02*
X128673323Y-74759000D01*
X128673323Y-77241000D02*
X128673323Y-80657000D01*
X128713323Y-71361000D02*
X128713323Y-74759000D01*
X128713323Y-77241000D02*
X128713323Y-80639000D01*
X128753323Y-71379000D02*
X128753323Y-74759000D01*
X128753323Y-77241000D02*
X128753323Y-80621000D01*
X128793323Y-71397000D02*
X128793323Y-74759000D01*
X128793323Y-77241000D02*
X128793323Y-80603000D01*
X128833323Y-71416000D02*
X128833323Y-74759000D01*
X128833323Y-77241000D02*
X128833323Y-80584000D01*
X128873323Y-71436000D02*
X128873323Y-74759000D01*
X128873323Y-77241000D02*
X128873323Y-80564000D01*
X128913323Y-71455000D02*
X128913323Y-74759000D01*
X128913323Y-77241000D02*
X128913323Y-80545000D01*
X128953323Y-71475000D02*
X128953323Y-74759000D01*
X128953323Y-77241000D02*
X128953323Y-80525000D01*
X128993323Y-71496000D02*
X128993323Y-74759000D01*
X128993323Y-77241000D02*
X128993323Y-80504000D01*
X129033323Y-71517000D02*
X129033323Y-74759000D01*
X129033323Y-77241000D02*
X129033323Y-80483000D01*
X129073323Y-71538000D02*
X129073323Y-74759000D01*
X129073323Y-77241000D02*
X129073323Y-80462000D01*
X129113323Y-71560000D02*
X129113323Y-74759000D01*
X129113323Y-77241000D02*
X129113323Y-80440000D01*
X129153323Y-71583000D02*
X129153323Y-74759000D01*
X129153323Y-77241000D02*
X129153323Y-80417000D01*
X129193323Y-71605000D02*
X129193323Y-74759000D01*
X129193323Y-77241000D02*
X129193323Y-80395000D01*
X129233323Y-71629000D02*
X129233323Y-74759000D01*
X129233323Y-77241000D02*
X129233323Y-80371000D01*
X129273323Y-71653000D02*
X129273323Y-74759000D01*
X129273323Y-77241000D02*
X129273323Y-80347000D01*
X129313323Y-71677000D02*
X129313323Y-74759000D01*
X129313323Y-77241000D02*
X129313323Y-80323000D01*
X129353323Y-71702000D02*
X129353323Y-74759000D01*
X129353323Y-77241000D02*
X129353323Y-80298000D01*
X129393323Y-71727000D02*
X129393323Y-74759000D01*
X129393323Y-77241000D02*
X129393323Y-80273000D01*
X129433323Y-71753000D02*
X129433323Y-74759000D01*
X129433323Y-77241000D02*
X129433323Y-80247000D01*
X129473323Y-71779000D02*
X129473323Y-74759000D01*
X129473323Y-77241000D02*
X129473323Y-80221000D01*
X129513323Y-71806000D02*
X129513323Y-74759000D01*
X129513323Y-77241000D02*
X129513323Y-80194000D01*
X129553323Y-71834000D02*
X129553323Y-74759000D01*
X129553323Y-77241000D02*
X129553323Y-80166000D01*
X129593323Y-71862000D02*
X129593323Y-74759000D01*
X129593323Y-77241000D02*
X129593323Y-80138000D01*
X129633323Y-71890000D02*
X129633323Y-74759000D01*
X129633323Y-77241000D02*
X129633323Y-80110000D01*
X129673323Y-71920000D02*
X129673323Y-74759000D01*
X129673323Y-77241000D02*
X129673323Y-80080000D01*
X129713323Y-71950000D02*
X129713323Y-74759000D01*
X129713323Y-77241000D02*
X129713323Y-80050000D01*
X129753323Y-71980000D02*
X129753323Y-74759000D01*
X129753323Y-77241000D02*
X129753323Y-80020000D01*
X129793323Y-72011000D02*
X129793323Y-74759000D01*
X129793323Y-77241000D02*
X129793323Y-79989000D01*
X129833323Y-72043000D02*
X129833323Y-74759000D01*
X129833323Y-77241000D02*
X129833323Y-79957000D01*
X129873323Y-72075000D02*
X129873323Y-74759000D01*
X129873323Y-77241000D02*
X129873323Y-79925000D01*
X129913323Y-72108000D02*
X129913323Y-74759000D01*
X129913323Y-77241000D02*
X129913323Y-79892000D01*
X129953323Y-72142000D02*
X129953323Y-74759000D01*
X129953323Y-77241000D02*
X129953323Y-79858000D01*
X129993323Y-72176000D02*
X129993323Y-74759000D01*
X129993323Y-77241000D02*
X129993323Y-79824000D01*
X130033323Y-72211000D02*
X130033323Y-74759000D01*
X130033323Y-77241000D02*
X130033323Y-79789000D01*
X130073323Y-72247000D02*
X130073323Y-74759000D01*
X130073323Y-77241000D02*
X130073323Y-79753000D01*
X130113323Y-72284000D02*
X130113323Y-74759000D01*
X130113323Y-77241000D02*
X130113323Y-79716000D01*
X130153323Y-72321000D02*
X130153323Y-74759000D01*
X130153323Y-77241000D02*
X130153323Y-79679000D01*
X130193323Y-72360000D02*
X130193323Y-74759000D01*
X130193323Y-77241000D02*
X130193323Y-79640000D01*
X130233323Y-72399000D02*
X130233323Y-74759000D01*
X130233323Y-77241000D02*
X130233323Y-79601000D01*
X130273323Y-72439000D02*
X130273323Y-74759000D01*
X130273323Y-77241000D02*
X130273323Y-79561000D01*
X130313323Y-72480000D02*
X130313323Y-74759000D01*
X130313323Y-77241000D02*
X130313323Y-79520000D01*
X130353323Y-72522000D02*
X130353323Y-74759000D01*
X130353323Y-77241000D02*
X130353323Y-79478000D01*
X130393323Y-72564000D02*
X130393323Y-79436000D01*
X130433323Y-72608000D02*
X130433323Y-79392000D01*
X130473323Y-72653000D02*
X130473323Y-79347000D01*
X130513323Y-72699000D02*
X130513323Y-79301000D01*
X130553323Y-72746000D02*
X130553323Y-79254000D01*
X130593323Y-72794000D02*
X130593323Y-79206000D01*
X130633323Y-72844000D02*
X130633323Y-79156000D01*
X130673323Y-72894000D02*
X130673323Y-79106000D01*
X130713323Y-72946000D02*
X130713323Y-79054000D01*
X130753323Y-73000000D02*
X130753323Y-79000000D01*
X130793323Y-73055000D02*
X130793323Y-78945000D01*
X130833323Y-73111000D02*
X130833323Y-78889000D01*
X130873323Y-73170000D02*
X130873323Y-78830000D01*
X130913323Y-73230000D02*
X130913323Y-78770000D01*
X130953323Y-73291000D02*
X130953323Y-78709000D01*
X130993323Y-73355000D02*
X130993323Y-78645000D01*
X131033323Y-73421000D02*
X131033323Y-78579000D01*
X131073323Y-73490000D02*
X131073323Y-78510000D01*
X131113323Y-73561000D02*
X131113323Y-78439000D01*
X131153323Y-73635000D02*
X131153323Y-78365000D01*
X131193323Y-73711000D02*
X131193323Y-78289000D01*
X131233323Y-73791000D02*
X131233323Y-78209000D01*
X131273323Y-73875000D02*
X131273323Y-78125000D01*
X131313323Y-73963000D02*
X131313323Y-78037000D01*
X131353323Y-74056000D02*
X131353323Y-77944000D01*
X131393323Y-74154000D02*
X131393323Y-77846000D01*
X131433323Y-74258000D02*
X131433323Y-77742000D01*
X131473323Y-74370000D02*
X131473323Y-77630000D01*
X131513323Y-74490000D02*
X131513323Y-77510000D01*
X131553323Y-74622000D02*
X131553323Y-77378000D01*
X131593323Y-74770000D02*
X131593323Y-77230000D01*
X131633323Y-74938000D02*
X131633323Y-77062000D01*
X131673323Y-75138000D02*
X131673323Y-76862000D01*
X131713323Y-75401000D02*
X131713323Y-76599000D01*
X131752323Y-76000000D02*
G75*
G02*
X121512323Y-76000000I-5120000J0D01*
G01*
X121512323Y-76000000D02*
G75*
G02*
X131752323Y-76000000I5120000J0D01*
G01*
%TO.C,R4*%
X98265000Y-65772936D02*
X98265000Y-66227064D01*
X99735000Y-65772936D02*
X99735000Y-66227064D01*
%TO.C,C21*%
X77111252Y-73690000D02*
X74788748Y-73690000D01*
X77111252Y-77110000D02*
X74788748Y-77110000D01*
%TO.C,C16*%
X86380000Y-110830000D02*
X87899000Y-110830000D01*
X86380000Y-122070000D02*
X86380000Y-110830000D01*
X86380000Y-122070000D02*
X87899000Y-122070000D01*
X90101000Y-110830000D02*
X91620000Y-110830000D01*
X90101000Y-122070000D02*
X91620000Y-122070000D01*
X91620000Y-122070000D02*
X91620000Y-110830000D01*
%TO.C,C1*%
X91880000Y-110830000D02*
X93399000Y-110830000D01*
X91880000Y-122070000D02*
X91880000Y-110830000D01*
X91880000Y-122070000D02*
X93399000Y-122070000D01*
X95601000Y-110830000D02*
X97120000Y-110830000D01*
X95601000Y-122070000D02*
X97120000Y-122070000D01*
X97120000Y-122070000D02*
X97120000Y-110830000D01*
%TO.C,D8*%
X77660000Y-137100000D02*
X71850000Y-137100000D01*
X77660000Y-141400000D02*
X71850000Y-141400000D01*
X77660000Y-141400000D02*
X77660000Y-137100000D01*
D16*
%TO.C,J11*%
X101199999Y-142350000D02*
X101199999Y-125650001D01*
X107699999Y-125650001D02*
X101199999Y-125650001D01*
X107699999Y-125650001D02*
X107699999Y-142350000D01*
X107699999Y-130050000D02*
X108599999Y-130050000D01*
X107699999Y-135449999D02*
X108599999Y-135449999D01*
X107699999Y-142350000D02*
X101199999Y-142350000D01*
X108599999Y-130050000D02*
X108599999Y-135449999D01*
D17*
X100819000Y-137450000D02*
G75*
G02*
X100057000Y-137450000I-381000J0D01*
G01*
X100057000Y-137450000D02*
G75*
G02*
X100819000Y-137450000I381000J0D01*
G01*
D15*
%TO.C,C17*%
X80880000Y-110830000D02*
X82399000Y-110830000D01*
X80880000Y-122070000D02*
X80880000Y-110830000D01*
X80880000Y-122070000D02*
X82399000Y-122070000D01*
X84601000Y-110830000D02*
X86120000Y-110830000D01*
X84601000Y-122070000D02*
X86120000Y-122070000D01*
X86120000Y-122070000D02*
X86120000Y-110830000D01*
%TO.C,J2*%
X138225000Y-80850000D02*
X138225000Y-82100000D01*
X138225000Y-82100000D02*
X139475000Y-82100000D01*
X138515000Y-74190000D02*
X138515000Y-81810000D01*
X138515000Y-81810000D02*
X144485000Y-81810000D01*
X138525000Y-74200000D02*
X138525000Y-76000000D01*
X138525000Y-76000000D02*
X139275000Y-76000000D01*
X138525000Y-77500000D02*
X138525000Y-78500000D01*
X138525000Y-78500000D02*
X139275000Y-78500000D01*
X138525000Y-80000000D02*
X138525000Y-81800000D01*
X138525000Y-81800000D02*
X139275000Y-81800000D01*
X139275000Y-74200000D02*
X138525000Y-74200000D01*
X139275000Y-76000000D02*
X139275000Y-74200000D01*
X139275000Y-77500000D02*
X138525000Y-77500000D01*
X139275000Y-78500000D02*
X139275000Y-77500000D01*
X139275000Y-80000000D02*
X138525000Y-80000000D01*
X139275000Y-81800000D02*
X139275000Y-80000000D01*
X140775000Y-74200000D02*
X140775000Y-74950000D01*
X140775000Y-74950000D02*
X143725000Y-74950000D01*
X140775000Y-81050000D02*
X142115000Y-81050000D01*
X140775000Y-81800000D02*
X140775000Y-81050000D01*
X143725000Y-74950000D02*
X143725000Y-78000000D01*
X143725000Y-78000000D02*
X143725000Y-79990000D01*
X144485000Y-74190000D02*
X138515000Y-74190000D01*
X144485000Y-81810000D02*
X144485000Y-74190000D01*
%TO.C,C6*%
X84290000Y-95386252D02*
X84290000Y-93063748D01*
X87710000Y-95386252D02*
X87710000Y-93063748D01*
%TO.C,C24*%
X113811252Y-141290000D02*
X112388748Y-141290000D01*
X113811252Y-143110000D02*
X112388748Y-143110000D01*
%TO.C,J8*%
X72700000Y-58000000D02*
X73200000Y-58000000D01*
X72700000Y-59200000D02*
X70700000Y-59200000D01*
X72700000Y-59200000D02*
X72700000Y-58000000D01*
X72700000Y-61800000D02*
X70700000Y-61800000D01*
X72700000Y-68300000D02*
X72700000Y-61800000D01*
X72700000Y-72700000D02*
X72700000Y-71500000D01*
X73200000Y-55500000D02*
X78400000Y-55500000D01*
X73200000Y-58000000D02*
X73200000Y-55500000D01*
X78400000Y-55500000D02*
X78400000Y-58000000D01*
X78400000Y-58000000D02*
X78900000Y-58000000D01*
X78900000Y-58000000D02*
X78900000Y-61200000D01*
X78900000Y-63800000D02*
X78900000Y-72700000D01*
X78900000Y-72700000D02*
X72700000Y-72700000D01*
%TO.C,D1*%
X92990000Y-67900000D02*
X92990000Y-69600000D01*
X92990000Y-67900000D02*
X96250000Y-67900000D01*
X92990000Y-69600000D02*
X96250000Y-69600000D01*
%TO.C,R3*%
X90015000Y-66227064D02*
X90015000Y-65772936D01*
X91485000Y-66227064D02*
X91485000Y-65772936D01*
%TO.C,C15*%
X61140000Y-130488748D02*
X61140000Y-131911252D01*
X63860000Y-130488748D02*
X63860000Y-131911252D01*
%TO.C,C9*%
X117588748Y-87040000D02*
X119911252Y-87040000D01*
X117588748Y-90460000D02*
X119911252Y-90460000D01*
%TO.C,C19*%
X69880000Y-110830000D02*
X71399000Y-110830000D01*
X69880000Y-122070000D02*
X69880000Y-110830000D01*
X69880000Y-122070000D02*
X71399000Y-122070000D01*
X73601000Y-110830000D02*
X75120000Y-110830000D01*
X73601000Y-122070000D02*
X75120000Y-122070000D01*
X75120000Y-122070000D02*
X75120000Y-110830000D01*
%TO.C,C13*%
X128161252Y-83290000D02*
X125838748Y-83290000D01*
X128161252Y-86710000D02*
X125838748Y-86710000D01*
%TO.C,C20*%
X64380000Y-110830000D02*
X65899000Y-110830000D01*
X64380000Y-122070000D02*
X64380000Y-110830000D01*
X64380000Y-122070000D02*
X65899000Y-122070000D01*
X68101000Y-110830000D02*
X69620000Y-110830000D01*
X68101000Y-122070000D02*
X69620000Y-122070000D01*
X69620000Y-122070000D02*
X69620000Y-110830000D01*
%TO.C,R9*%
X79890000Y-78772936D02*
X79890000Y-81827064D01*
X82610000Y-78772936D02*
X82610000Y-81827064D01*
D14*
%TO.C,RV1*%
X88250000Y-55250000D02*
X88250000Y-62750000D01*
X88250000Y-62750000D02*
X100250000Y-62750000D01*
X100250000Y-55250000D02*
X88250000Y-55250000D01*
X100250000Y-62750000D02*
X100250000Y-55250000D01*
D15*
%TO.C,C8*%
X117588748Y-82790000D02*
X119911252Y-82790000D01*
X117588748Y-86210000D02*
X119911252Y-86210000D01*
%TO.C,R5*%
X88265000Y-78522936D02*
X88265000Y-78977064D01*
X89735000Y-78522936D02*
X89735000Y-78977064D01*
%TO.C,C5*%
X78790000Y-95386252D02*
X78790000Y-93063748D01*
X82210000Y-95386252D02*
X82210000Y-93063748D01*
%TO.C,R8*%
X69527064Y-76720000D02*
X66472936Y-76720000D01*
X69527064Y-79440000D02*
X66472936Y-79440000D01*
%TO.C,C23*%
X64640000Y-138438748D02*
X64640000Y-139861252D01*
X67360000Y-138438748D02*
X67360000Y-139861252D01*
%TO.C,T1*%
D14*
X124450000Y-135550000D02*
X129950000Y-135550000D01*
X129950000Y-138050000D01*
X124450000Y-138050000D01*
X124450000Y-135550000D01*
D15*
%TO.C,Q1*%
X91930000Y-74140000D02*
X91930000Y-95330000D01*
X91930000Y-74140000D02*
X108070000Y-74140000D01*
X91930000Y-95330000D02*
X108070000Y-95330000D01*
X94550000Y-95330000D02*
X94550000Y-97890000D01*
X100000000Y-95330000D02*
X100000000Y-97890000D01*
X105450000Y-95330000D02*
X105450000Y-97890000D01*
X108070000Y-74140000D02*
X108070000Y-95330000D01*
%TO.C,R7*%
X68727064Y-84840000D02*
X65672936Y-84840000D01*
X68727064Y-87560000D02*
X65672936Y-87560000D01*
%TO.C,D7*%
X70340000Y-131600000D02*
X70340000Y-135900000D01*
X70340000Y-131600000D02*
X76150000Y-131600000D01*
X70340000Y-135900000D02*
X76150000Y-135900000D01*
%TO.C,C22*%
X64640000Y-133438748D02*
X64640000Y-134861252D01*
X67360000Y-133438748D02*
X67360000Y-134861252D01*
%TO.C,C12*%
X128161252Y-87790000D02*
X125838748Y-87790000D01*
X128161252Y-91210000D02*
X125838748Y-91210000D01*
%TO.C,J3*%
X55400000Y-87900000D02*
X63600000Y-87900000D01*
X55400000Y-96100000D02*
X55400000Y-87900000D01*
X55400000Y-96100000D02*
X63600000Y-96100000D01*
X59500000Y-95600000D02*
X59000000Y-96100000D01*
X60000000Y-96100000D02*
X59500000Y-95600000D01*
X63600000Y-96100000D02*
X63600000Y-87900000D01*
%TD*%
M02*
