%TF.GenerationSoftware,KiCad,Pcbnew,9.0.0*%
%TF.CreationDate,2025-07-31T03:03:26-04:00*%
%TF.ProjectId,PlasmaTransformer,506c6173-6d61-4547-9261-6e73666f726d,4*%
%TF.SameCoordinates,Original*%
%TF.FileFunction,Copper,L1,Top*%
%TF.FilePolarity,Positive*%
%FSLAX46Y46*%
G04 Gerber Fmt 4.6, Leading zero omitted, Abs format (unit mm)*
G04 Created by KiCad (PCBNEW 9.0.0) date 2025-07-31 03:03:26*
%MOMM*%
%LPD*%
G01*
G04 APERTURE LIST*
G04 Aperture macros list*
%AMRoundRect*
0 Rectangle with rounded corners*
0 $1 Rounding radius*
0 $2 $3 $4 $5 $6 $7 $8 $9 X,Y pos of 4 corners*
0 Add a 4 corners polygon primitive as box body*
4,1,4,$2,$3,$4,$5,$6,$7,$8,$9,$2,$3,0*
0 Add four circle primitives for the rounded corners*
1,1,$1+$1,$2,$3*
1,1,$1+$1,$4,$5*
1,1,$1+$1,$6,$7*
1,1,$1+$1,$8,$9*
0 Add four rect primitives between the rounded corners*
20,1,$1+$1,$2,$3,$4,$5,0*
20,1,$1+$1,$4,$5,$6,$7,0*
20,1,$1+$1,$6,$7,$8,$9,0*
20,1,$1+$1,$8,$9,$2,$3,0*%
G04 Aperture macros list end*
%TA.AperFunction,EtchedComponent*%
%ADD10C,0.250000*%
%TD*%
%TA.AperFunction,SMDPad,CuDef*%
%ADD11RoundRect,0.250000X-0.312500X-1.450000X0.312500X-1.450000X0.312500X1.450000X-0.312500X1.450000X0*%
%TD*%
%TA.AperFunction,SMDPad,CuDef*%
%ADD12RoundRect,0.250000X0.375000X0.625000X-0.375000X0.625000X-0.375000X-0.625000X0.375000X-0.625000X0*%
%TD*%
%TA.AperFunction,ComponentPad*%
%ADD13O,3.800000X2.800000*%
%TD*%
%TA.AperFunction,ComponentPad*%
%ADD14C,2.700000*%
%TD*%
%TA.AperFunction,SMDPad,CuDef*%
%ADD15RoundRect,0.112500X-0.187500X-0.112500X0.187500X-0.112500X0.187500X0.112500X-0.187500X0.112500X0*%
%TD*%
%TA.AperFunction,SMDPad,CuDef*%
%ADD16RoundRect,0.249999X-0.450001X-1.450001X0.450001X-1.450001X0.450001X1.450001X-0.450001X1.450001X0*%
%TD*%
%TA.AperFunction,SMDPad,CuDef*%
%ADD17RoundRect,0.250000X0.262500X0.450000X-0.262500X0.450000X-0.262500X-0.450000X0.262500X-0.450000X0*%
%TD*%
%TA.AperFunction,SMDPad,CuDef*%
%ADD18RoundRect,0.249999X1.450001X-0.450001X1.450001X0.450001X-1.450001X0.450001X-1.450001X-0.450001X0*%
%TD*%
%TA.AperFunction,SMDPad,CuDef*%
%ADD19RoundRect,0.250000X1.000000X0.900000X-1.000000X0.900000X-1.000000X-0.900000X1.000000X-0.900000X0*%
%TD*%
%TA.AperFunction,ComponentPad*%
%ADD20C,2.000000*%
%TD*%
%TA.AperFunction,SMDPad,CuDef*%
%ADD21R,4.495800X4.394200*%
%TD*%
%TA.AperFunction,ComponentPad*%
%ADD22RoundRect,0.249999X-1.025001X-1.025001X1.025001X-1.025001X1.025001X1.025001X-1.025001X1.025001X0*%
%TD*%
%TA.AperFunction,SMDPad,CuDef*%
%ADD23RoundRect,0.250000X-1.000000X-0.900000X1.000000X-0.900000X1.000000X0.900000X-1.000000X0.900000X0*%
%TD*%
%TA.AperFunction,SMDPad,CuDef*%
%ADD24RoundRect,0.250000X1.000000X-1.400000X1.000000X1.400000X-1.000000X1.400000X-1.000000X-1.400000X0*%
%TD*%
%TA.AperFunction,ComponentPad*%
%ADD25R,4.000000X2.000000*%
%TD*%
%TA.AperFunction,ComponentPad*%
%ADD26O,3.300000X2.000000*%
%TD*%
%TA.AperFunction,ComponentPad*%
%ADD27O,2.000000X3.500000*%
%TD*%
%TA.AperFunction,SMDPad,CuDef*%
%ADD28RoundRect,0.250000X-1.450000X0.312500X-1.450000X-0.312500X1.450000X-0.312500X1.450000X0.312500X0*%
%TD*%
%TA.AperFunction,ComponentPad*%
%ADD29RoundRect,0.200100X0.949900X-0.949900X0.949900X0.949900X-0.949900X0.949900X-0.949900X-0.949900X0*%
%TD*%
%TA.AperFunction,ComponentPad*%
%ADD30C,2.500000*%
%TD*%
%TA.AperFunction,ComponentPad*%
%ADD31R,1.700000X1.700000*%
%TD*%
%TA.AperFunction,ComponentPad*%
%ADD32O,1.700000X1.700000*%
%TD*%
%TA.AperFunction,SMDPad,CuDef*%
%ADD33RoundRect,0.250000X-0.262500X-0.450000X0.262500X-0.450000X0.262500X0.450000X-0.262500X0.450000X0*%
%TD*%
%TA.AperFunction,SMDPad,CuDef*%
%ADD34RoundRect,0.400000X1.100000X0.100000X-1.100000X0.100000X-1.100000X-0.100000X1.100000X-0.100000X0*%
%TD*%
%TA.AperFunction,SMDPad,CuDef*%
%ADD35RoundRect,0.250000X-1.100000X0.325000X-1.100000X-0.325000X1.100000X-0.325000X1.100000X0.325000X0*%
%TD*%
%TA.AperFunction,ComponentPad*%
%ADD36RoundRect,0.250000X-1.125000X-1.125000X1.125000X-1.125000X1.125000X1.125000X-1.125000X1.125000X0*%
%TD*%
%TA.AperFunction,ComponentPad*%
%ADD37R,2.000000X2.000000*%
%TD*%
%TA.AperFunction,SMDPad,CuDef*%
%ADD38RoundRect,0.250000X-0.450000X0.262500X-0.450000X-0.262500X0.450000X-0.262500X0.450000X0.262500X0*%
%TD*%
%TA.AperFunction,SMDPad,CuDef*%
%ADD39RoundRect,0.249999X0.450001X1.450001X-0.450001X1.450001X-0.450001X-1.450001X0.450001X-1.450001X0*%
%TD*%
%TA.AperFunction,ComponentPad*%
%ADD40RoundRect,0.250000X0.750000X-0.600000X0.750000X0.600000X-0.750000X0.600000X-0.750000X-0.600000X0*%
%TD*%
%TA.AperFunction,ComponentPad*%
%ADD41O,2.000000X1.700000*%
%TD*%
%TA.AperFunction,SMDPad,CuDef*%
%ADD42RoundRect,0.250000X0.325000X0.650000X-0.325000X0.650000X-0.325000X-0.650000X0.325000X-0.650000X0*%
%TD*%
%TA.AperFunction,SMDPad,CuDef*%
%ADD43R,2.800000X2.200000*%
%TD*%
%TA.AperFunction,SMDPad,CuDef*%
%ADD44R,2.800000X2.800000*%
%TD*%
%TA.AperFunction,SMDPad,CuDef*%
%ADD45RoundRect,0.250000X-0.250000X-0.250000X0.250000X-0.250000X0.250000X0.250000X-0.250000X0.250000X0*%
%TD*%
%TA.AperFunction,SMDPad,CuDef*%
%ADD46RoundRect,0.250000X0.450000X-0.262500X0.450000X0.262500X-0.450000X0.262500X-0.450000X-0.262500X0*%
%TD*%
%TA.AperFunction,SMDPad,CuDef*%
%ADD47RoundRect,0.062500X-0.937500X-0.062500X0.937500X-0.062500X0.937500X0.062500X-0.937500X0.062500X0*%
%TD*%
%TA.AperFunction,SMDPad,CuDef*%
%ADD48RoundRect,0.075000X-0.925000X-0.175000X0.925000X-0.175000X0.925000X0.175000X-0.925000X0.175000X0*%
%TD*%
%TA.AperFunction,ComponentPad*%
%ADD49C,10.600000*%
%TD*%
%TA.AperFunction,SMDPad,CuDef*%
%ADD50RoundRect,0.250000X-1.075000X0.362500X-1.075000X-0.362500X1.075000X-0.362500X1.075000X0.362500X0*%
%TD*%
%TA.AperFunction,ComponentPad*%
%ADD51C,2.200000*%
%TD*%
%TA.AperFunction,SMDPad,CuDef*%
%ADD52RoundRect,0.250000X0.362500X1.075000X-0.362500X1.075000X-0.362500X-1.075000X0.362500X-1.075000X0*%
%TD*%
%TA.AperFunction,SMDPad,CuDef*%
%ADD53RoundRect,0.150000X-0.450000X-0.350000X0.450000X-0.350000X0.450000X0.350000X-0.450000X0.350000X0*%
%TD*%
%TA.AperFunction,SMDPad,CuDef*%
%ADD54RoundRect,0.165000X-0.385000X-0.685000X0.385000X-0.685000X0.385000X0.685000X-0.385000X0.685000X0*%
%TD*%
%TA.AperFunction,ComponentPad*%
%ADD55R,2.500000X4.500000*%
%TD*%
%TA.AperFunction,ComponentPad*%
%ADD56O,2.500000X4.500000*%
%TD*%
%TA.AperFunction,ViaPad*%
%ADD57C,1.000000*%
%TD*%
%TA.AperFunction,ViaPad*%
%ADD58C,0.600000*%
%TD*%
%TA.AperFunction,ViaPad*%
%ADD59C,0.500000*%
%TD*%
%TA.AperFunction,Conductor*%
%ADD60C,2.000000*%
%TD*%
%TA.AperFunction,Conductor*%
%ADD61C,1.000000*%
%TD*%
%TA.AperFunction,Conductor*%
%ADD62C,3.000000*%
%TD*%
%TA.AperFunction,Conductor*%
%ADD63C,0.250000*%
%TD*%
%TA.AperFunction,Conductor*%
%ADD64C,0.500000*%
%TD*%
%TA.AperFunction,Conductor*%
%ADD65C,0.200000*%
%TD*%
%TA.AperFunction,Conductor*%
%ADD66C,2.500000*%
%TD*%
G04 APERTURE END LIST*
D10*
%TO.C,L1*%
X118050000Y-115100000D02*
X118550000Y-115100000D01*
X118050000Y-115600000D02*
X118050000Y-115100000D01*
X103050000Y-115600000D02*
G75*
G02*
X117550000Y-115600000I7250000J0D01*
G01*
X103550000Y-115600000D02*
G75*
G02*
X117050000Y-115600000I6750000J0D01*
G01*
X104050000Y-115600000D02*
G75*
G02*
X116550000Y-115600000I6250000J0D01*
G01*
X104550000Y-115600000D02*
G75*
G02*
X116050000Y-115600000I5750000J0D01*
G01*
X105050000Y-115600000D02*
G75*
G02*
X115550000Y-115600000I5250000J0D01*
G01*
X105550000Y-115600000D02*
G75*
G02*
X114450000Y-115600000I4450000J10112D01*
G01*
X115550000Y-115600000D02*
G75*
G02*
X105550000Y-115600000I-5000000J-25000D01*
G01*
X116050000Y-115600000D02*
G75*
G02*
X105050000Y-115600000I-5500000J0D01*
G01*
X116550000Y-115600000D02*
G75*
G02*
X104550000Y-115600000I-6000000J0D01*
G01*
X117050000Y-115600000D02*
G75*
G02*
X104050000Y-115600000I-6500000J0D01*
G01*
X117550000Y-115600000D02*
G75*
G02*
X103550000Y-115600000I-7000000J0D01*
G01*
X118050000Y-115600000D02*
G75*
G02*
X103050000Y-115600000I-7500000J0D01*
G01*
%TD*%
D11*
%TO.P,GD1,1*%
%TO.N,Net-(D5-K)*%
X116462500Y-142800000D03*
%TO.P,GD1,2*%
%TO.N,Net-(T1-Primary)*%
X120737500Y-142800000D03*
%TD*%
D12*
%TO.P,D3,1,K*%
%TO.N,Net-(D3-K)*%
X111825000Y-117600000D03*
%TO.P,D3,2,A*%
%TO.N,Net-(D3-A)*%
X109025000Y-117600000D03*
%TD*%
D13*
%TO.P,SW1,1,A*%
%TO.N,Net-(SW1-A)*%
X111500000Y-70190000D03*
%TO.P,SW1,2,B*%
%TO.N,Net-(J2-Pin_1)*%
X111500000Y-74000000D03*
%TO.P,SW1,3,C*%
%TO.N,unconnected-(SW1-C-Pad3)*%
X111500000Y-77810000D03*
D14*
%TO.P,SW1,M1*%
%TO.N,N/C*%
X114040000Y-57490000D03*
%TO.P,SW1,M2*%
X108960000Y-57490000D03*
%TD*%
D15*
%TO.P,D4,1,K*%
%TO.N,Net-(D3-A)*%
X109287500Y-115200000D03*
%TO.P,D4,2,A*%
%TO.N,Net-(D3-K)*%
X111387500Y-115200000D03*
%TD*%
D16*
%TO.P,C7,1*%
%TO.N,Net-(J4-Pin_7)*%
X116700000Y-80250000D03*
%TO.P,C7,2*%
%TO.N,/DRAIN*%
X120800000Y-80250000D03*
%TD*%
D17*
%TO.P,R13,1*%
%TO.N,Net-(L1-Pad2)*%
X111237500Y-112800000D03*
%TO.P,R13,2*%
%TO.N,Net-(D3-A)*%
X109412500Y-112800000D03*
%TD*%
D18*
%TO.P,C4,1*%
%TO.N,Net-(J6-Pin_4)*%
X75000000Y-96275000D03*
%TO.P,C4,2*%
%TO.N,GND*%
X75000000Y-92175000D03*
%TD*%
D19*
%TO.P,D5,1,K*%
%TO.N,Net-(D5-K)*%
X83650000Y-136500000D03*
%TO.P,D5,2,A*%
%TO.N,Net-(D5-A)*%
X79350000Y-136500000D03*
%TD*%
D20*
%TO.P,J12,1,Pin_1*%
%TO.N,Net-(J12-Pin_1)*%
X95000000Y-137450000D03*
X95000000Y-129250001D03*
%TD*%
D21*
%TO.P,L2,1,1*%
%TO.N,Net-(J2-Pin_1)*%
X128149998Y-116200036D03*
%TO.P,L2,2,2*%
%TO.N,/DRAIN*%
X128149998Y-126799964D03*
%TO.P,L2,3*%
%TO.N,N/C*%
X141850002Y-121500000D03*
%TD*%
D22*
%TO.P,TP1,1,1*%
%TO.N,Net-(T1-Secondary)*%
X130900000Y-142900000D03*
%TD*%
D23*
%TO.P,D6,1,K*%
%TO.N,Net-(D6-K)*%
X79350000Y-142250000D03*
%TO.P,D6,2,A*%
%TO.N,Net-(D6-A)*%
X83650000Y-142250000D03*
%TD*%
D24*
%TO.P,D2,1,A1*%
%TO.N,/GATE*%
X96800000Y-106600000D03*
%TO.P,D2,2,A2*%
%TO.N,GND*%
X103600000Y-106600000D03*
%TD*%
D25*
%TO.P,J1,1*%
%TO.N,Net-(SW1-A)*%
X124500000Y-67500000D03*
D26*
%TO.P,J1,2*%
%TO.N,GND*%
X124500000Y-61500000D03*
D27*
%TO.P,J1,MP1*%
%TO.N,N/C*%
X120000000Y-60500000D03*
%TO.P,J1,MP2*%
X129000000Y-60500000D03*
%TD*%
D28*
%TO.P,R6,1*%
%TO.N,/GATE*%
X88500000Y-100362500D03*
%TO.P,R6,2*%
%TO.N,Net-(D6-K)*%
X88500000Y-104637500D03*
%TD*%
D29*
%TO.P,J5,1,In*%
%TO.N,Net-(J5-In)*%
X59500000Y-78000000D03*
D30*
%TO.P,J5,2,Ext*%
%TO.N,GND*%
X56960000Y-80540000D03*
X62040000Y-80540000D03*
X56960000Y-75460000D03*
X62040000Y-75460000D03*
%TD*%
D16*
%TO.P,C10,1*%
%TO.N,Net-(J4-Pin_1)*%
X116700000Y-93000000D03*
%TO.P,C10,2*%
%TO.N,/DRAIN*%
X120800000Y-93000000D03*
%TD*%
D31*
%TO.P,J6,1,Pin_1*%
%TO.N,Net-(D6-K)*%
X73700000Y-104675000D03*
D32*
%TO.P,J6,2,Pin_2*%
%TO.N,Net-(J6-Pin_2)*%
X73700000Y-102135000D03*
%TO.P,J6,3,Pin_3*%
%TO.N,Net-(D6-K)*%
X76240000Y-104675000D03*
%TO.P,J6,4,Pin_4*%
%TO.N,Net-(J6-Pin_4)*%
X76240000Y-102135000D03*
%TO.P,J6,5,Pin_5*%
%TO.N,Net-(D6-K)*%
X78780000Y-104675000D03*
%TO.P,J6,6,Pin_6*%
%TO.N,Net-(J6-Pin_6)*%
X78780000Y-102135000D03*
%TO.P,J6,7,Pin_7*%
%TO.N,Net-(D6-K)*%
X81320000Y-104675000D03*
%TO.P,J6,8,Pin_8*%
%TO.N,Net-(J6-Pin_8)*%
X81320000Y-102135000D03*
%TD*%
D33*
%TO.P,R2,1*%
%TO.N,Net-(J2-Pin_1)*%
X87087500Y-68750000D03*
%TO.P,R2,2*%
%TO.N,Net-(D1-K)*%
X88912500Y-68750000D03*
%TD*%
D31*
%TO.P,J4,1,Pin_1*%
%TO.N,Net-(J4-Pin_1)*%
X113275000Y-90300000D03*
D32*
%TO.P,J4,2,Pin_2*%
%TO.N,/GATE*%
X110735000Y-90300000D03*
%TO.P,J4,3,Pin_3*%
%TO.N,Net-(J4-Pin_3)*%
X113275000Y-87760000D03*
%TO.P,J4,4,Pin_4*%
%TO.N,/GATE*%
X110735000Y-87760000D03*
%TO.P,J4,5,Pin_5*%
%TO.N,Net-(J4-Pin_5)*%
X113275000Y-85220000D03*
%TO.P,J4,6,Pin_6*%
%TO.N,/GATE*%
X110735000Y-85220000D03*
%TO.P,J4,7,Pin_7*%
%TO.N,Net-(J4-Pin_7)*%
X113275000Y-82680000D03*
%TO.P,J4,8,Pin_8*%
%TO.N,/GATE*%
X110735000Y-82680000D03*
%TD*%
D34*
%TO.P,T2,1,AB*%
%TO.N,Net-(D6-A)*%
X110800000Y-138600000D03*
%TO.P,T2,2,AA*%
%TO.N,Net-(T1-Primary)*%
X110800000Y-133600000D03*
%TO.P,T2,3,nc*%
%TO.N,unconnected-(T2-nc-Pad3)*%
X130800000Y-133050000D03*
%TO.P,T2,4,SB*%
%TO.N,Net-(T1-Secondary)*%
X130800000Y-139150000D03*
%TD*%
D18*
%TO.P,C11,1*%
%TO.N,GND*%
X103500000Y-68800000D03*
%TO.P,C11,2*%
%TO.N,Net-(C11-Pad2)*%
X103500000Y-64700000D03*
%TD*%
D35*
%TO.P,C14,1*%
%TO.N,Net-(J12-Pin_1)*%
X62500000Y-124725000D03*
%TO.P,C14,2*%
%TO.N,Net-(C14-Pad2)*%
X62500000Y-127675000D03*
%TD*%
D20*
%TO.P,C18,1*%
%TO.N,Net-(J12-Pin_1)*%
X78000000Y-121450000D03*
%TO.P,C18,2*%
%TO.N,Net-(D6-K)*%
X78000000Y-111450000D03*
%TD*%
D36*
%TO.P,TP2,1,1*%
%TO.N,Net-(J2-Pin_1)*%
X142500000Y-95000000D03*
%TD*%
D18*
%TO.P,C3,1*%
%TO.N,Net-(J6-Pin_2)*%
X69500000Y-96275000D03*
%TO.P,C3,2*%
%TO.N,GND*%
X69500000Y-92175000D03*
%TD*%
D37*
%TO.P,C2,1*%
%TO.N,Net-(J2-Pin_1)*%
X124132323Y-76000000D03*
D20*
%TO.P,C2,2*%
%TO.N,GND*%
X129132323Y-76000000D03*
%TD*%
D38*
%TO.P,R4,1*%
%TO.N,Net-(R4-Pad1)*%
X99000000Y-65087500D03*
%TO.P,R4,2*%
%TO.N,GND*%
X99000000Y-66912500D03*
%TD*%
D39*
%TO.P,C21,1*%
%TO.N,Net-(C21-Pad1)*%
X78000000Y-75400000D03*
%TO.P,C21,2*%
%TO.N,Net-(C21-Pad2)*%
X73900000Y-75400000D03*
%TD*%
D20*
%TO.P,C16,1*%
%TO.N,Net-(J12-Pin_1)*%
X89000000Y-121450000D03*
%TO.P,C16,2*%
%TO.N,Net-(D6-K)*%
X89000000Y-111450000D03*
%TD*%
%TO.P,C1,1*%
%TO.N,Net-(J12-Pin_1)*%
X94500000Y-121450000D03*
%TO.P,C1,2*%
%TO.N,Net-(D6-K)*%
X94500000Y-111450000D03*
%TD*%
D19*
%TO.P,D8,1,K*%
%TO.N,Net-(D5-K)*%
X76150000Y-139250000D03*
%TO.P,D8,2,A*%
%TO.N,Net-(D6-K)*%
X71850000Y-139250000D03*
%TD*%
D20*
%TO.P,J11,1,Pin_1*%
%TO.N,/DRAIN*%
X105000000Y-137450000D03*
X105000000Y-129250001D03*
%TD*%
%TO.P,C17,1*%
%TO.N,Net-(J12-Pin_1)*%
X83500000Y-121450000D03*
%TO.P,C17,2*%
%TO.N,Net-(D6-K)*%
X83500000Y-111450000D03*
%TD*%
D40*
%TO.P,J2,1,Pin_1*%
%TO.N,Net-(J2-Pin_1)*%
X140975000Y-79250000D03*
D41*
%TO.P,J2,2,Pin_2*%
%TO.N,GND*%
X140975000Y-76750000D03*
%TD*%
D18*
%TO.P,C6,1*%
%TO.N,Net-(J6-Pin_8)*%
X86000000Y-96275000D03*
%TO.P,C6,2*%
%TO.N,GND*%
X86000000Y-92175000D03*
%TD*%
D42*
%TO.P,C24,1*%
%TO.N,Net-(D5-K)*%
X114575000Y-142200000D03*
%TO.P,C24,2*%
%TO.N,Net-(D6-A)*%
X111625000Y-142200000D03*
%TD*%
D43*
%TO.P,J8,R*%
%TO.N,unconnected-(J8-PadR)*%
X79500000Y-62500000D03*
%TO.P,J8,S*%
%TO.N,GND*%
X72100000Y-60500000D03*
D44*
%TO.P,J8,T*%
%TO.N,Net-(C21-Pad2)*%
X72100000Y-69900000D03*
%TD*%
D45*
%TO.P,D1,1,K*%
%TO.N,Net-(D1-K)*%
X93750000Y-68750000D03*
%TO.P,D1,2,A*%
%TO.N,GND*%
X96250000Y-68750000D03*
%TD*%
D46*
%TO.P,R3,1*%
%TO.N,Net-(D1-K)*%
X90750000Y-66912500D03*
%TO.P,R3,2*%
%TO.N,Net-(R3-Pad2)*%
X90750000Y-65087500D03*
%TD*%
D47*
%TO.P,L1,1,1*%
%TO.N,Net-(D3-K)*%
X118900000Y-115100000D03*
D48*
%TO.P,L1,2,2*%
%TO.N,Net-(L1-Pad2)*%
X113550000Y-115600000D03*
%TD*%
D35*
%TO.P,C15,1*%
%TO.N,Net-(C14-Pad2)*%
X62500000Y-129725000D03*
%TO.P,C15,2*%
%TO.N,Net-(C15-Pad2)*%
X62500000Y-132675000D03*
%TD*%
D16*
%TO.P,C9,1*%
%TO.N,Net-(J4-Pin_3)*%
X116700000Y-88750000D03*
%TO.P,C9,2*%
%TO.N,/DRAIN*%
X120800000Y-88750000D03*
%TD*%
D20*
%TO.P,C19,1*%
%TO.N,Net-(J12-Pin_1)*%
X72500000Y-121450000D03*
%TO.P,C19,2*%
%TO.N,Net-(D6-K)*%
X72500000Y-111450000D03*
%TD*%
D49*
%TO.P,H1,1,1*%
%TO.N,Net-(D6-K)*%
X61000000Y-111950000D03*
%TD*%
D39*
%TO.P,C13,1*%
%TO.N,GND*%
X129050000Y-85000000D03*
%TO.P,C13,2*%
%TO.N,Net-(J2-Pin_1)*%
X124950000Y-85000000D03*
%TD*%
D20*
%TO.P,C20,1*%
%TO.N,Net-(J12-Pin_1)*%
X67000000Y-121450000D03*
%TO.P,C20,2*%
%TO.N,Net-(D6-K)*%
X67000000Y-111450000D03*
%TD*%
D50*
%TO.P,R9,1*%
%TO.N,Net-(C21-Pad1)*%
X81250000Y-77987500D03*
%TO.P,R9,2*%
%TO.N,/GATE*%
X81250000Y-82612500D03*
%TD*%
D51*
%TO.P,RV1,1,1*%
%TO.N,Net-(R3-Pad2)*%
X91750000Y-59000000D03*
%TO.P,RV1,2,2*%
%TO.N,Net-(C11-Pad2)*%
X94250000Y-61500000D03*
%TO.P,RV1,3,3*%
%TO.N,Net-(R4-Pad1)*%
X96750000Y-59000000D03*
%TD*%
D16*
%TO.P,C8,1*%
%TO.N,Net-(J4-Pin_5)*%
X116700000Y-84500000D03*
%TO.P,C8,2*%
%TO.N,/DRAIN*%
X120800000Y-84500000D03*
%TD*%
D36*
%TO.P,TP3,1,1*%
%TO.N,/DRAIN*%
X142500000Y-133000000D03*
%TD*%
D38*
%TO.P,R5,1*%
%TO.N,Net-(C11-Pad2)*%
X89000000Y-77837500D03*
%TO.P,R5,2*%
%TO.N,/GATE*%
X89000000Y-79662500D03*
%TD*%
D18*
%TO.P,C5,1*%
%TO.N,Net-(J6-Pin_6)*%
X80500000Y-96275000D03*
%TO.P,C5,2*%
%TO.N,GND*%
X80500000Y-92175000D03*
%TD*%
D52*
%TO.P,R8,1*%
%TO.N,/GATE*%
X70312500Y-78080000D03*
%TO.P,R8,2*%
%TO.N,Net-(J5-In)*%
X65687500Y-78080000D03*
%TD*%
D35*
%TO.P,C23,1*%
%TO.N,Net-(D5-A)*%
X66000000Y-137675000D03*
%TO.P,C23,2*%
%TO.N,Net-(D6-K)*%
X66000000Y-140625000D03*
%TD*%
D53*
%TO.P,T1,1,Primary*%
%TO.N,Net-(T1-Primary)*%
X123525000Y-137750000D03*
%TO.P,T1,2,AB*%
%TO.N,Net-(D6-A)*%
X123525000Y-135850000D03*
D54*
%TO.P,T1,3,Secondary*%
%TO.N,Net-(T1-Secondary)*%
X130875000Y-136800000D03*
%TD*%
D55*
%TO.P,Q1,1,G*%
%TO.N,/GATE*%
X94550000Y-100290000D03*
D56*
%TO.P,Q1,2,D*%
%TO.N,/DRAIN*%
X100000000Y-100290000D03*
%TO.P,Q1,3,S*%
%TO.N,GND*%
X105450000Y-100290000D03*
%TD*%
D52*
%TO.P,R7,1*%
%TO.N,/DRAIN*%
X69512500Y-86200000D03*
%TO.P,R7,2*%
%TO.N,Net-(J3-In)*%
X64887500Y-86200000D03*
%TD*%
D23*
%TO.P,D7,1,K*%
%TO.N,Net-(D5-A)*%
X71850000Y-133750000D03*
%TO.P,D7,2,A*%
%TO.N,Net-(D6-A)*%
X76150000Y-133750000D03*
%TD*%
D35*
%TO.P,C22,1*%
%TO.N,Net-(C15-Pad2)*%
X66000000Y-132675000D03*
%TO.P,C22,2*%
%TO.N,Net-(D5-A)*%
X66000000Y-135625000D03*
%TD*%
D39*
%TO.P,C12,1*%
%TO.N,GND*%
X129050000Y-89500000D03*
%TO.P,C12,2*%
%TO.N,Net-(J2-Pin_1)*%
X124950000Y-89500000D03*
%TD*%
D29*
%TO.P,J3,1,In*%
%TO.N,Net-(J3-In)*%
X59500000Y-92000000D03*
D30*
%TO.P,J3,2,Ext*%
%TO.N,GND*%
X56960000Y-94540000D03*
X62040000Y-94540000D03*
X56960000Y-89460000D03*
X62040000Y-89460000D03*
%TD*%
D57*
%TO.N,GND*%
X68500000Y-60500000D03*
D58*
X131000000Y-85000000D03*
D57*
X86000000Y-89500000D03*
X75000000Y-89500000D03*
X100250000Y-68750000D03*
X69500000Y-89500000D03*
D58*
X131000000Y-89500000D03*
D57*
X80500000Y-89500000D03*
D59*
%TO.N,Net-(D6-K)*%
X65900000Y-143100000D03*
D58*
%TO.N,Net-(D3-K)*%
X113425000Y-117600000D03*
X118900000Y-115100000D03*
D57*
%TO.N,Net-(C11-Pad2)*%
X103500000Y-61750000D03*
D58*
%TO.N,Net-(D5-K)*%
X114500000Y-144200000D03*
X86050000Y-136500000D03*
%TO.N,Net-(D6-A)*%
X120200000Y-135900000D03*
X110600000Y-140300000D03*
D57*
%TO.N,/DRAIN*%
X66700000Y-92000000D03*
%TD*%
D60*
%TO.N,GND*%
X75000000Y-92175000D02*
X75000000Y-89500000D01*
X69500000Y-92175000D02*
X69500000Y-89500000D01*
D61*
X99000000Y-68750000D02*
X100250000Y-68750000D01*
D60*
X129050000Y-89500000D02*
X131000000Y-89500000D01*
D61*
X100300000Y-68800000D02*
X100250000Y-68750000D01*
X96250000Y-68750000D02*
X99000000Y-68750000D01*
D60*
X86000000Y-92175000D02*
X86000000Y-89500000D01*
D62*
X105450000Y-104350000D02*
X103550000Y-106250000D01*
D60*
X129050000Y-85000000D02*
X131000000Y-85000000D01*
D61*
X72100000Y-60500000D02*
X68500000Y-60500000D01*
X103500000Y-68800000D02*
X100300000Y-68800000D01*
X99000000Y-66912500D02*
X99000000Y-68750000D01*
D62*
X105450000Y-100290000D02*
X105450000Y-104350000D01*
D60*
X80500000Y-92175000D02*
X80500000Y-89500000D01*
D62*
%TO.N,Net-(J2-Pin_1)*%
X124132323Y-76000000D02*
X124132323Y-79500000D01*
X127600000Y-95000000D02*
X129700000Y-95000000D01*
D63*
X93087500Y-70587500D02*
X96500000Y-74000000D01*
D61*
X127000000Y-95600000D02*
X127600000Y-95000000D01*
X124382323Y-79250000D02*
X124132323Y-79500000D01*
D62*
X142500000Y-95000000D02*
X142500000Y-101000000D01*
X129700000Y-95000000D02*
X135500000Y-95000000D01*
X135500000Y-95000000D02*
X142500000Y-95000000D01*
X124132323Y-93132323D02*
X126000000Y-95000000D01*
X126000000Y-95000000D02*
X127600000Y-95000000D01*
X124132323Y-79500000D02*
X124132323Y-93132323D01*
X135500000Y-95000000D02*
X139500000Y-95000000D01*
D63*
X87087500Y-70087500D02*
X87587500Y-70587500D01*
D62*
X142500000Y-114150000D02*
X135500000Y-114150000D01*
X124132323Y-76000000D02*
X122132323Y-74000000D01*
D63*
X96500000Y-74000000D02*
X111500000Y-74000000D01*
D61*
X140975000Y-79250000D02*
X124382323Y-79250000D01*
D63*
X87587500Y-70587500D02*
X93087500Y-70587500D01*
D62*
X142500000Y-98000000D02*
X142500000Y-101000000D01*
D63*
X87087500Y-68750000D02*
X87087500Y-70087500D01*
D62*
X142500000Y-101000000D02*
X142500000Y-114150000D01*
X122132323Y-74000000D02*
X111500000Y-74000000D01*
D60*
%TO.N,Net-(J6-Pin_8)*%
X86000000Y-97455000D02*
X81320000Y-102135000D01*
X86000000Y-96275000D02*
X86000000Y-97455000D01*
%TO.N,Net-(J6-Pin_6)*%
X80500000Y-96275000D02*
X80500000Y-98200000D01*
X78780000Y-99920000D02*
X78780000Y-102135000D01*
X80500000Y-98200000D02*
X78780000Y-99920000D01*
%TO.N,Net-(J6-Pin_4)*%
X76240000Y-100040000D02*
X76240000Y-102135000D01*
X75000000Y-98800000D02*
X76240000Y-100040000D01*
X75000000Y-96275000D02*
X75000000Y-98800000D01*
%TO.N,Net-(J6-Pin_2)*%
X69500000Y-97935000D02*
X73700000Y-102135000D01*
X69500000Y-96275000D02*
X69500000Y-97935000D01*
D61*
%TO.N,Net-(D1-K)*%
X90750000Y-68750000D02*
X88912500Y-68750000D01*
D63*
X90750000Y-66912500D02*
X90750000Y-68750000D01*
D61*
X93750000Y-68750000D02*
X90750000Y-68750000D01*
D64*
%TO.N,Net-(D6-K)*%
X70475000Y-140625000D02*
X71850000Y-139250000D01*
X71850000Y-139250000D02*
X72000000Y-139400000D01*
X66000000Y-140625000D02*
X70475000Y-140625000D01*
X65900000Y-140725000D02*
X66000000Y-140625000D01*
D60*
X80000000Y-111850000D02*
X79900000Y-111950000D01*
D62*
X61000000Y-111950000D02*
X61500000Y-111450000D01*
D60*
X78000000Y-111450000D02*
X78000000Y-104775000D01*
D64*
X72000000Y-141750000D02*
X72500000Y-142250000D01*
X65900000Y-143100000D02*
X65900000Y-140725000D01*
D60*
X77900000Y-104675000D02*
X88462500Y-104675000D01*
D64*
X72000000Y-139400000D02*
X72000000Y-141750000D01*
D62*
X61500000Y-111450000D02*
X90500000Y-111450000D01*
D60*
X88462500Y-104675000D02*
X88500000Y-104637500D01*
X73700000Y-104675000D02*
X77900000Y-104675000D01*
X78000000Y-104775000D02*
X77900000Y-104675000D01*
X88500000Y-110950000D02*
X89000000Y-111450000D01*
D62*
X90500000Y-111450000D02*
X94750000Y-111450000D01*
D64*
X72500000Y-142250000D02*
X79350000Y-142250000D01*
D61*
%TO.N,Net-(J3-In)*%
X63600000Y-92100000D02*
X63500000Y-92000000D01*
X64887500Y-86200000D02*
X64887500Y-90812500D01*
X64887500Y-90812500D02*
X63600000Y-92100000D01*
X63500000Y-92000000D02*
X59500000Y-92000000D01*
%TO.N,Net-(J5-In)*%
X59500000Y-78000000D02*
X65607500Y-78000000D01*
X65607500Y-78000000D02*
X65687500Y-78080000D01*
D63*
%TO.N,Net-(R3-Pad2)*%
X91750000Y-59000000D02*
X91750000Y-62750000D01*
X91750000Y-62750000D02*
X90750000Y-63750000D01*
X90750000Y-63750000D02*
X90750000Y-65087500D01*
%TO.N,Net-(R4-Pad1)*%
X96750000Y-59000000D02*
X99000000Y-61250000D01*
X99000000Y-61250000D02*
X99000000Y-65087500D01*
D62*
%TO.N,Net-(SW1-A)*%
X120500000Y-67500000D02*
X124500000Y-67500000D01*
X111500000Y-70190000D02*
X117810000Y-70190000D01*
X117810000Y-70190000D02*
X120500000Y-67500000D01*
%TO.N,Net-(J12-Pin_1)*%
X95000000Y-137450000D02*
X95000000Y-121950000D01*
D64*
X63950000Y-121450000D02*
X67000000Y-121450000D01*
X63000000Y-124725000D02*
X63000000Y-122400000D01*
D62*
X95000000Y-121950000D02*
X94500000Y-121450000D01*
D64*
X66775000Y-121225000D02*
X67000000Y-121450000D01*
X63000000Y-122400000D02*
X63950000Y-121450000D01*
D62*
X67000000Y-121450000D02*
X94750000Y-121450000D01*
D64*
%TO.N,Net-(C14-Pad2)*%
X62500000Y-127675000D02*
X62500000Y-129725000D01*
%TO.N,Net-(D5-A)*%
X66275000Y-136775000D02*
X66000000Y-136500000D01*
X71325000Y-133225000D02*
X71850000Y-133750000D01*
X79075000Y-136775000D02*
X79350000Y-136500000D01*
X66000000Y-135625000D02*
X66000000Y-136500000D01*
X71850000Y-133750000D02*
X71850000Y-136625000D01*
X72000000Y-136775000D02*
X79075000Y-136775000D01*
X71850000Y-136625000D02*
X72000000Y-136775000D01*
X72000000Y-136775000D02*
X66275000Y-136775000D01*
X66000000Y-136500000D02*
X66000000Y-137675000D01*
D63*
%TO.N,Net-(D3-A)*%
X109025000Y-115462500D02*
X109287500Y-115200000D01*
X109412500Y-115075000D02*
X109287500Y-115200000D01*
X109412500Y-112800000D02*
X109412500Y-115075000D01*
X109025000Y-117600000D02*
X109025000Y-115462500D01*
D65*
%TO.N,Net-(D3-K)*%
X111825000Y-117600000D02*
X113425000Y-117600000D01*
D63*
X111387500Y-115200000D02*
X111387500Y-117162500D01*
X111387500Y-117162500D02*
X111825000Y-117600000D01*
%TO.N,Net-(L1-Pad2)*%
X113550000Y-114812500D02*
X113550000Y-115600000D01*
X112037500Y-112800000D02*
X113037500Y-113800000D01*
X113037500Y-114300000D02*
X113550000Y-114812500D01*
X113037500Y-113800000D02*
X113037500Y-114300000D01*
X111237500Y-112800000D02*
X112037500Y-112800000D01*
D61*
%TO.N,Net-(J4-Pin_7)*%
X115705000Y-80250000D02*
X116700000Y-80250000D01*
X113275000Y-82680000D02*
X115705000Y-80250000D01*
%TO.N,Net-(J4-Pin_5)*%
X113275000Y-85220000D02*
X115980000Y-85220000D01*
%TO.N,Net-(J4-Pin_3)*%
X116700000Y-87800000D02*
X116740000Y-87760000D01*
X116740000Y-87760000D02*
X113275000Y-87760000D01*
X116700000Y-88750000D02*
X116700000Y-87800000D01*
%TO.N,Net-(J4-Pin_1)*%
X116700000Y-93000000D02*
X114000000Y-93000000D01*
X113275000Y-92275000D02*
X113275000Y-90300000D01*
X114000000Y-93000000D02*
X113275000Y-92275000D01*
%TO.N,Net-(C11-Pad2)*%
X88000000Y-56250000D02*
X83750000Y-60500000D01*
X85500000Y-74750000D02*
X87500000Y-74750000D01*
X103500000Y-64700000D02*
X103500000Y-61750000D01*
X94250000Y-61500000D02*
X94250000Y-57000000D01*
X83750000Y-60500000D02*
X83750000Y-73000000D01*
X93500000Y-56250000D02*
X88000000Y-56250000D01*
X83750000Y-73000000D02*
X85500000Y-74750000D01*
X87500000Y-74750000D02*
X89000000Y-76250000D01*
X89000000Y-76250000D02*
X89000000Y-77837500D01*
X94250000Y-57000000D02*
X93500000Y-56250000D01*
D64*
%TO.N,Net-(D5-K)*%
X76150000Y-139250000D02*
X82750000Y-139250000D01*
D60*
X115862500Y-142200000D02*
X116462500Y-142800000D01*
D64*
X83650000Y-136500000D02*
X86050000Y-136500000D01*
X114500000Y-144200000D02*
X114500000Y-142275000D01*
X114500000Y-142275000D02*
X114575000Y-142200000D01*
X82750000Y-139250000D02*
X83650000Y-138350000D01*
D60*
X114575000Y-142200000D02*
X115862500Y-142200000D01*
D64*
X83650000Y-138350000D02*
X83650000Y-136500000D01*
%TO.N,Net-(C15-Pad2)*%
X62500000Y-132675000D02*
X66000000Y-132675000D01*
%TO.N,Net-(D6-A)*%
X86500000Y-144249000D02*
X111300000Y-144249000D01*
D61*
X123525000Y-135850000D02*
X120250000Y-135850000D01*
D64*
X76150000Y-133750000D02*
X86000000Y-133750000D01*
X87750000Y-135500000D02*
X87750000Y-138150000D01*
X87750000Y-138150000D02*
X83650000Y-142250000D01*
D60*
X110800000Y-141375000D02*
X111625000Y-142200000D01*
D64*
X85649000Y-144249000D02*
X86500000Y-144249000D01*
X111625000Y-143875000D02*
X111625000Y-142200000D01*
D60*
X110800000Y-138600000D02*
X110800000Y-141375000D01*
D64*
X83650000Y-142250000D02*
X83650000Y-142300000D01*
D61*
X120250000Y-135850000D02*
X120200000Y-135900000D01*
D64*
X111300000Y-144200000D02*
X111625000Y-143875000D01*
X111300000Y-144249000D02*
X111300000Y-144200000D01*
X83650000Y-142250000D02*
X85649000Y-144249000D01*
X86000000Y-133750000D02*
X87750000Y-135500000D01*
D61*
%TO.N,Net-(T1-Primary)*%
X121725000Y-137750000D02*
X123525000Y-137750000D01*
D60*
X112300000Y-133600000D02*
X110800000Y-133600000D01*
X119100000Y-139200000D02*
X117900000Y-139200000D01*
X120737500Y-142800000D02*
X120737500Y-140837500D01*
X120737500Y-140837500D02*
X119100000Y-139200000D01*
D61*
X119100000Y-139200000D02*
X120275000Y-139200000D01*
D60*
X117900000Y-139200000D02*
X112300000Y-133600000D01*
D61*
X120275000Y-139200000D02*
X121725000Y-137750000D01*
D60*
%TO.N,Net-(T1-Secondary)*%
X130875000Y-138925000D02*
X130850000Y-138950000D01*
X130850000Y-138950000D02*
X130850000Y-142850000D01*
D61*
X130875000Y-136800000D02*
X130875000Y-138925000D01*
D62*
%TO.N,/DRAIN*%
X105000000Y-137450000D02*
X105000000Y-129250001D01*
X142500000Y-133000000D02*
X142500000Y-129000000D01*
D61*
X69512500Y-86687500D02*
X69512500Y-86200000D01*
D62*
X142500000Y-129000000D02*
X135650000Y-129000000D01*
D61*
X120800000Y-80250000D02*
X120800000Y-95450000D01*
X100000000Y-97000000D02*
X100000000Y-100290000D01*
D62*
X105000000Y-128500000D02*
X105000000Y-129250001D01*
X107000000Y-126500000D02*
X105000000Y-128500000D01*
D61*
X120000000Y-96250000D02*
X100750000Y-96250000D01*
X66700000Y-92000000D02*
X66700000Y-89500000D01*
D62*
X135500000Y-128850000D02*
X123850000Y-128850000D01*
X135650000Y-129000000D02*
X135500000Y-128850000D01*
D61*
X66700000Y-89500000D02*
X69512500Y-86687500D01*
D62*
X121500000Y-126500000D02*
X107000000Y-126500000D01*
D61*
X100750000Y-96250000D02*
X100000000Y-97000000D01*
D62*
X123850000Y-128850000D02*
X121500000Y-126500000D01*
D61*
X120800000Y-95450000D02*
X120000000Y-96250000D01*
%TO.N,/GATE*%
X72712500Y-82612500D02*
X85250000Y-82612500D01*
X89000000Y-82612500D02*
X89000000Y-85750000D01*
X95750000Y-92500000D02*
X94550000Y-93700000D01*
X85250000Y-82612500D02*
X89000000Y-82612500D01*
X89000000Y-85750000D02*
X95750000Y-92500000D01*
D60*
X94477500Y-100362500D02*
X94550000Y-100290000D01*
X88500000Y-100362500D02*
X94477500Y-100362500D01*
D61*
X108535000Y-92500000D02*
X97500000Y-92500000D01*
X70312500Y-78080000D02*
X70312500Y-80212500D01*
X94550000Y-93700000D02*
X94550000Y-100290000D01*
X89000000Y-79662500D02*
X89000000Y-82612500D01*
D66*
X94550000Y-104050000D02*
X96750000Y-106250000D01*
D61*
X97500000Y-92500000D02*
X95750000Y-92500000D01*
X110735000Y-90300000D02*
X108535000Y-92500000D01*
D66*
X94550000Y-100290000D02*
X94550000Y-104050000D01*
D61*
X110735000Y-82680000D02*
X110735000Y-90300000D01*
X70312500Y-80212500D02*
X72712500Y-82612500D01*
%TO.N,Net-(C21-Pad1)*%
X81250000Y-76350000D02*
X81250000Y-77987500D01*
X80300000Y-75400000D02*
X81250000Y-76350000D01*
X78000000Y-75400000D02*
X80300000Y-75400000D01*
D63*
%TO.N,Net-(C21-Pad2)*%
X72100000Y-69900000D02*
X72100000Y-74500000D01*
X72100000Y-74500000D02*
X73000000Y-75400000D01*
X73000000Y-75400000D02*
X73900000Y-75400000D01*
%TD*%
%TA.AperFunction,Conductor*%
%TO.N,Net-(J2-Pin_1)*%
G36*
X141943039Y-112769685D02*
G01*
X141988794Y-112822489D01*
X142000000Y-112874000D01*
X142000000Y-116626000D01*
X141980315Y-116693039D01*
X141927511Y-116738794D01*
X141876000Y-116750000D01*
X122624000Y-116750000D01*
X122556961Y-116730315D01*
X122511206Y-116677511D01*
X122500000Y-116626000D01*
X122500000Y-112874000D01*
X122519685Y-112806961D01*
X122572489Y-112761206D01*
X122624000Y-112750000D01*
X141876000Y-112750000D01*
X141943039Y-112769685D01*
G37*
%TD.AperFunction*%
%TD*%
%TA.AperFunction,Conductor*%
%TO.N,/DRAIN*%
G36*
X141943039Y-126519685D02*
G01*
X141988794Y-126572489D01*
X142000000Y-126624000D01*
X142000000Y-130376000D01*
X141980315Y-130443039D01*
X141927511Y-130488794D01*
X141876000Y-130500000D01*
X122624000Y-130500000D01*
X122556961Y-130480315D01*
X122511206Y-130427511D01*
X122500000Y-130376000D01*
X122500000Y-126624000D01*
X122519685Y-126556961D01*
X122572489Y-126511206D01*
X122624000Y-126500000D01*
X141876000Y-126500000D01*
X141943039Y-126519685D01*
G37*
%TD.AperFunction*%
%TD*%
%TA.AperFunction,Conductor*%
%TO.N,GND*%
G36*
X143943039Y-56019685D02*
G01*
X143988794Y-56072489D01*
X144000000Y-56124000D01*
X144000000Y-64876000D01*
X143980315Y-64943039D01*
X143927511Y-64988794D01*
X143876000Y-65000000D01*
X118624000Y-65000000D01*
X118556961Y-64980315D01*
X118511206Y-64927511D01*
X118500000Y-64876000D01*
X118500000Y-62119863D01*
X118519685Y-62052824D01*
X118572489Y-62007069D01*
X118641647Y-61997125D01*
X118705203Y-62026150D01*
X118724316Y-62046975D01*
X118855483Y-62227510D01*
X119022490Y-62394517D01*
X119213567Y-62533343D01*
X119312991Y-62584002D01*
X119424003Y-62640566D01*
X119424005Y-62640566D01*
X119424008Y-62640568D01*
X119544412Y-62679689D01*
X119648631Y-62713553D01*
X119881903Y-62750500D01*
X119881908Y-62750500D01*
X120118097Y-62750500D01*
X120351368Y-62713553D01*
X120575992Y-62640568D01*
X120786433Y-62533343D01*
X120977510Y-62394517D01*
X121144517Y-62227510D01*
X121283343Y-62036433D01*
X121390568Y-61825992D01*
X121463553Y-61601368D01*
X121500500Y-61368097D01*
X121500500Y-59631902D01*
X127499500Y-59631902D01*
X127499500Y-61368097D01*
X127536446Y-61601368D01*
X127609433Y-61825996D01*
X127701695Y-62007069D01*
X127716657Y-62036433D01*
X127855483Y-62227510D01*
X128022490Y-62394517D01*
X128213567Y-62533343D01*
X128312991Y-62584002D01*
X128424003Y-62640566D01*
X128424005Y-62640566D01*
X128424008Y-62640568D01*
X128544412Y-62679689D01*
X128648631Y-62713553D01*
X128881903Y-62750500D01*
X128881908Y-62750500D01*
X129118097Y-62750500D01*
X129351368Y-62713553D01*
X129575992Y-62640568D01*
X129786433Y-62533343D01*
X129977510Y-62394517D01*
X130144517Y-62227510D01*
X130283343Y-62036433D01*
X130390568Y-61825992D01*
X130463553Y-61601368D01*
X130500500Y-61368097D01*
X130500500Y-59631902D01*
X130463553Y-59398631D01*
X130390566Y-59174003D01*
X130302755Y-59001666D01*
X130283343Y-58963567D01*
X130144517Y-58772490D01*
X129981595Y-58609568D01*
X138749500Y-58609568D01*
X138749500Y-58890431D01*
X138780942Y-59169494D01*
X138780943Y-59169499D01*
X138780944Y-59169506D01*
X138780945Y-59169509D01*
X138780979Y-59169657D01*
X138843439Y-59443317D01*
X138843443Y-59443329D01*
X138936200Y-59708411D01*
X139058053Y-59961442D01*
X139058055Y-59961445D01*
X139207477Y-60199248D01*
X139382584Y-60418825D01*
X139581175Y-60617416D01*
X139800752Y-60792523D01*
X140038555Y-60941945D01*
X140291592Y-61063801D01*
X140490680Y-61133465D01*
X140556670Y-61156556D01*
X140556682Y-61156560D01*
X140830491Y-61219055D01*
X140830497Y-61219055D01*
X140830505Y-61219057D01*
X141016547Y-61240018D01*
X141109569Y-61250499D01*
X141109572Y-61250500D01*
X141109575Y-61250500D01*
X141390428Y-61250500D01*
X141390429Y-61250499D01*
X141533055Y-61234429D01*
X141669494Y-61219057D01*
X141669499Y-61219056D01*
X141669509Y-61219055D01*
X141943318Y-61156560D01*
X142208408Y-61063801D01*
X142461445Y-60941945D01*
X142699248Y-60792523D01*
X142918825Y-60617416D01*
X143117416Y-60418825D01*
X143292523Y-60199248D01*
X143441945Y-59961445D01*
X143563801Y-59708408D01*
X143656560Y-59443318D01*
X143719055Y-59169509D01*
X143719055Y-59169506D01*
X143719057Y-59169499D01*
X143719057Y-59169494D01*
X143750499Y-58890431D01*
X143750500Y-58890427D01*
X143750500Y-58609572D01*
X143750499Y-58609568D01*
X143749811Y-58603466D01*
X143734397Y-58466657D01*
X143719057Y-58330505D01*
X143719054Y-58330487D01*
X143656560Y-58056682D01*
X143656556Y-58056670D01*
X143577360Y-57830342D01*
X143563801Y-57791592D01*
X143441945Y-57538555D01*
X143292523Y-57300752D01*
X143117416Y-57081175D01*
X142918825Y-56882584D01*
X142699248Y-56707477D01*
X142461445Y-56558055D01*
X142461442Y-56558053D01*
X142208411Y-56436200D01*
X141943329Y-56343443D01*
X141943317Y-56343439D01*
X141669512Y-56280945D01*
X141669494Y-56280942D01*
X141390431Y-56249500D01*
X141390425Y-56249500D01*
X141109575Y-56249500D01*
X141109568Y-56249500D01*
X140830505Y-56280942D01*
X140830487Y-56280945D01*
X140556682Y-56343439D01*
X140556670Y-56343443D01*
X140291588Y-56436200D01*
X140038557Y-56558053D01*
X139800753Y-56707476D01*
X139581175Y-56882583D01*
X139382583Y-57081175D01*
X139207476Y-57300753D01*
X139058053Y-57538557D01*
X138936200Y-57791588D01*
X138843443Y-58056670D01*
X138843439Y-58056682D01*
X138780945Y-58330487D01*
X138780942Y-58330505D01*
X138749500Y-58609568D01*
X129981595Y-58609568D01*
X129977510Y-58605483D01*
X129786433Y-58466657D01*
X129575996Y-58359433D01*
X129351368Y-58286446D01*
X129118097Y-58249500D01*
X129118092Y-58249500D01*
X128881908Y-58249500D01*
X128881903Y-58249500D01*
X128648631Y-58286446D01*
X128424003Y-58359433D01*
X128213566Y-58466657D01*
X128104550Y-58545862D01*
X128022490Y-58605483D01*
X128022488Y-58605485D01*
X128022487Y-58605485D01*
X127855485Y-58772487D01*
X127855485Y-58772488D01*
X127855483Y-58772490D01*
X127795862Y-58854550D01*
X127716657Y-58963566D01*
X127609433Y-59174003D01*
X127536446Y-59398631D01*
X127499500Y-59631902D01*
X121500500Y-59631902D01*
X121463553Y-59398631D01*
X121390566Y-59174003D01*
X121302755Y-59001666D01*
X121283343Y-58963567D01*
X121144517Y-58772490D01*
X120977510Y-58605483D01*
X120786433Y-58466657D01*
X120648802Y-58396530D01*
X123449500Y-58396530D01*
X123449500Y-58603469D01*
X123489868Y-58806412D01*
X123489870Y-58806420D01*
X123569058Y-58997596D01*
X123684024Y-59169657D01*
X123830342Y-59315975D01*
X123830345Y-59315977D01*
X124002402Y-59430941D01*
X124193580Y-59510130D01*
X124396530Y-59550499D01*
X124396534Y-59550500D01*
X124396535Y-59550500D01*
X124603466Y-59550500D01*
X124603467Y-59550499D01*
X124806420Y-59510130D01*
X124997598Y-59430941D01*
X125169655Y-59315977D01*
X125315977Y-59169655D01*
X125430941Y-58997598D01*
X125510130Y-58806420D01*
X125550500Y-58603465D01*
X125550500Y-58396535D01*
X125510130Y-58193580D01*
X125430941Y-58002402D01*
X125315977Y-57830345D01*
X125315975Y-57830342D01*
X125169657Y-57684024D01*
X125083626Y-57626541D01*
X124997598Y-57569059D01*
X124923955Y-57538555D01*
X124806420Y-57489870D01*
X124806412Y-57489868D01*
X124603469Y-57449500D01*
X124603465Y-57449500D01*
X124396535Y-57449500D01*
X124396530Y-57449500D01*
X124193587Y-57489868D01*
X124193579Y-57489870D01*
X124002403Y-57569058D01*
X123830342Y-57684024D01*
X123684024Y-57830342D01*
X123569058Y-58002403D01*
X123489870Y-58193579D01*
X123489868Y-58193587D01*
X123449500Y-58396530D01*
X120648802Y-58396530D01*
X120575996Y-58359433D01*
X120351368Y-58286446D01*
X120118097Y-58249500D01*
X120118092Y-58249500D01*
X119881908Y-58249500D01*
X119881903Y-58249500D01*
X119648631Y-58286446D01*
X119424003Y-58359433D01*
X119213566Y-58466657D01*
X119104550Y-58545862D01*
X119022490Y-58605483D01*
X119022488Y-58605485D01*
X119022487Y-58605485D01*
X118855485Y-58772487D01*
X118855485Y-58772488D01*
X118855483Y-58772490D01*
X118780898Y-58875147D01*
X118724318Y-58953022D01*
X118668988Y-58995687D01*
X118599374Y-59001666D01*
X118537579Y-58969060D01*
X118503222Y-58908221D01*
X118500000Y-58880136D01*
X118500000Y-56124000D01*
X118519685Y-56056961D01*
X118572489Y-56011206D01*
X118624000Y-56000000D01*
X143876000Y-56000000D01*
X143943039Y-56019685D01*
G37*
%TD.AperFunction*%
%TD*%
M02*
