M48
; DRILL file {KiCad 9.0.0} date 2025-05-27T01:05:00-0400
; FORMAT={-:-/ absolute / metric / decimal}
; #@! TF.CreationDate,2025-05-27T01:05:00-04:00
; #@! TF.GenerationSoftware,Kicad,Pcbnew,9.0.0
; #@! TF.FileFunction,Plated,1,2,PTH
FMAT,2
METRIC
; #@! TA.AperFunction,Plated,PTH,ViaDrill
T1C0.300
; #@! TA.AperFunction,Plated,PTH,ViaDrill
T2C0.600
; #@! TA.AperFunction,Plated,PTH,ComponentDrill
T3C1.000
; #@! TA.AperFunction,Plated,PTH,ComponentDrill
T4C1.300
; #@! TA.AperFunction,Plated,PTH,ComponentDrill
T5C1.500
; #@! TA.AperFunction,Plated,PTH,ComponentDrill
T6C1.700
; #@! TA.AperFunction,Plated,PTH,ComponentDrill
T7C1.850
%
G90
G05
T1
X65.987Y-75.188
X71.462Y-72.688
T2
X57.0Y-88.5
X57.0Y-111.0
X57.0Y-118.0
X57.0Y-126.0
X57.001Y-92.0
X68.5Y-60.5
X100.15Y-74.7
X100.25Y-68.75
X143.0Y-111.0
X143.0Y-118.0
X143.0Y-126.0
T3
X66.5Y-130.5
X66.5Y-138.0
X73.5Y-116.0
X73.5Y-126.0
X76.5Y-130.5
X76.5Y-138.0
X79.5Y-130.5
X79.5Y-138.0
X81.0Y-116.0
X81.0Y-126.0
X89.5Y-130.5
X89.5Y-138.0
X110.5Y-130.5
X110.5Y-138.0
X118.5Y-116.0
X118.5Y-126.0
X120.5Y-130.5
X120.5Y-138.0
X123.5Y-130.5
X123.5Y-138.0
X126.0Y-116.0
X126.0Y-126.0
X126.132Y-75.0
X131.132Y-75.0
X133.5Y-130.5
X133.5Y-138.0
X140.975Y-76.75
X140.975Y-79.25
T4
X91.75Y-59.0
X94.25Y-61.5
X95.0Y-131.8
X95.0Y-140.0
X96.75Y-59.0
X105.0Y-131.8
X105.0Y-140.0
T5
X77.5Y-85.04
X78.46Y-109.46
X84.55Y-109.86
X90.0Y-109.86
X95.45Y-109.86
X104.55Y-109.79
X110.0Y-109.79
X115.45Y-109.79
X121.5Y-110.0
X122.54Y-85.0
T6
X74.96Y-82.5
X74.96Y-87.58
X75.92Y-106.92
X75.92Y-112.0
X80.04Y-82.5
X80.04Y-87.58
X81.0Y-106.92
X81.0Y-112.0
X118.96Y-107.46
X118.96Y-112.54
X120.0Y-82.46
X120.0Y-87.54
X124.04Y-107.46
X124.04Y-112.54
X125.08Y-82.46
X125.08Y-87.54
T7
X108.96Y-57.49
X111.5Y-70.19
X111.5Y-74.0
X111.5Y-77.81
X114.04Y-57.49
T3
G00X120.0Y-61.25
M15
G01X120.0Y-59.75
M16
G05
G00X125.15Y-61.5
M15
G01X123.85Y-61.5
M16
G05
G00X125.5Y-67.5
M15
G01X123.5Y-67.5
M16
G05
G00X129.0Y-61.25
M15
G01X129.0Y-59.75
M16
G05
M30
