%TF.GenerationSoftware,KiCad,Pcbnew,9.0.0*%
%TF.CreationDate,2025-05-27T01:04:57-04:00*%
%TF.ProjectId,PlasmaTransformer-DualFET,506c6173-6d61-4547-9261-6e73666f726d,rev?*%
%TF.SameCoordinates,Original*%
%TF.FileFunction,Copper,L1,Top*%
%TF.FilePolarity,Positive*%
%FSLAX46Y46*%
G04 Gerber Fmt 4.6, Leading zero omitted, Abs format (unit mm)*
G04 Created by KiCad (PCBNEW 9.0.0) date 2025-05-27 01:04:57*
%MOMM*%
%LPD*%
G01*
G04 APERTURE LIST*
G04 Aperture macros list*
%AMRoundRect*
0 Rectangle with rounded corners*
0 $1 Rounding radius*
0 $2 $3 $4 $5 $6 $7 $8 $9 X,Y pos of 4 corners*
0 Add a 4 corners polygon primitive as box body*
4,1,4,$2,$3,$4,$5,$6,$7,$8,$9,$2,$3,0*
0 Add four circle primitives for the rounded corners*
1,1,$1+$1,$2,$3*
1,1,$1+$1,$4,$5*
1,1,$1+$1,$6,$7*
1,1,$1+$1,$8,$9*
0 Add four rect primitives between the rounded corners*
20,1,$1+$1,$2,$3,$4,$5,0*
20,1,$1+$1,$4,$5,$6,$7,0*
20,1,$1+$1,$6,$7,$8,$9,0*
20,1,$1+$1,$8,$9,$2,$3,0*%
G04 Aperture macros list end*
%TA.AperFunction,EtchedComponent*%
%ADD10C,0.250000*%
%TD*%
%TA.AperFunction,ComponentPad*%
%ADD11O,2.500000X4.500000*%
%TD*%
%TA.AperFunction,ComponentPad*%
%ADD12R,2.500000X4.500000*%
%TD*%
%TA.AperFunction,ComponentPad*%
%ADD13C,2.050000*%
%TD*%
%TA.AperFunction,ComponentPad*%
%ADD14C,2.250000*%
%TD*%
%TA.AperFunction,ComponentPad*%
%ADD15R,2.000000X2.000000*%
%TD*%
%TA.AperFunction,ComponentPad*%
%ADD16C,2.000000*%
%TD*%
%TA.AperFunction,SMDPad,CuDef*%
%ADD17RoundRect,0.250000X-0.262500X-0.450000X0.262500X-0.450000X0.262500X0.450000X-0.262500X0.450000X0*%
%TD*%
%TA.AperFunction,SMDPad,CuDef*%
%ADD18RoundRect,0.250000X0.262500X0.450000X-0.262500X0.450000X-0.262500X-0.450000X0.262500X-0.450000X0*%
%TD*%
%TA.AperFunction,SMDPad,CuDef*%
%ADD19RoundRect,0.250000X-0.450000X0.262500X-0.450000X-0.262500X0.450000X-0.262500X0.450000X0.262500X0*%
%TD*%
%TA.AperFunction,SMDPad,CuDef*%
%ADD20RoundRect,0.250002X6.149998X-1.499998X6.149998X1.499998X-6.149998X1.499998X-6.149998X-1.499998X0*%
%TD*%
%TA.AperFunction,SMDPad,CuDef*%
%ADD21RoundRect,0.250000X1.000000X-1.400000X1.000000X1.400000X-1.000000X1.400000X-1.000000X-1.400000X0*%
%TD*%
%TA.AperFunction,SMDPad,CuDef*%
%ADD22RoundRect,0.249999X0.450001X1.450001X-0.450001X1.450001X-0.450001X-1.450001X0.450001X-1.450001X0*%
%TD*%
%TA.AperFunction,SMDPad,CuDef*%
%ADD23RoundRect,0.249999X-0.450001X-1.450001X0.450001X-1.450001X0.450001X1.450001X-0.450001X1.450001X0*%
%TD*%
%TA.AperFunction,SMDPad,CuDef*%
%ADD24RoundRect,0.250000X0.375000X0.625000X-0.375000X0.625000X-0.375000X-0.625000X0.375000X-0.625000X0*%
%TD*%
%TA.AperFunction,ComponentPad*%
%ADD25O,3.800000X2.800000*%
%TD*%
%TA.AperFunction,ComponentPad*%
%ADD26C,2.700000*%
%TD*%
%TA.AperFunction,SMDPad,CuDef*%
%ADD27RoundRect,0.250002X-6.149998X1.499998X-6.149998X-1.499998X6.149998X-1.499998X6.149998X1.499998X0*%
%TD*%
%TA.AperFunction,ComponentPad*%
%ADD28R,4.000000X2.000000*%
%TD*%
%TA.AperFunction,ComponentPad*%
%ADD29O,3.300000X2.000000*%
%TD*%
%TA.AperFunction,ComponentPad*%
%ADD30O,2.000000X3.500000*%
%TD*%
%TA.AperFunction,ComponentPad*%
%ADD31RoundRect,0.250000X0.750000X-0.600000X0.750000X0.600000X-0.750000X0.600000X-0.750000X-0.600000X0*%
%TD*%
%TA.AperFunction,ComponentPad*%
%ADD32O,2.000000X1.700000*%
%TD*%
%TA.AperFunction,SMDPad,CuDef*%
%ADD33R,2.800000X2.200000*%
%TD*%
%TA.AperFunction,SMDPad,CuDef*%
%ADD34R,2.800000X2.800000*%
%TD*%
%TA.AperFunction,SMDPad,CuDef*%
%ADD35RoundRect,0.250000X-0.250000X-0.250000X0.250000X-0.250000X0.250000X0.250000X-0.250000X0.250000X0*%
%TD*%
%TA.AperFunction,SMDPad,CuDef*%
%ADD36RoundRect,0.250000X0.450000X-0.262500X0.450000X0.262500X-0.450000X0.262500X-0.450000X-0.262500X0*%
%TD*%
%TA.AperFunction,SMDPad,CuDef*%
%ADD37RoundRect,0.062500X-0.937500X-0.062500X0.937500X-0.062500X0.937500X0.062500X-0.937500X0.062500X0*%
%TD*%
%TA.AperFunction,SMDPad,CuDef*%
%ADD38RoundRect,0.075000X-0.925000X-0.175000X0.925000X-0.175000X0.925000X0.175000X-0.925000X0.175000X0*%
%TD*%
%TA.AperFunction,ComponentPad*%
%ADD39C,2.200000*%
%TD*%
%TA.AperFunction,ViaPad*%
%ADD40C,1.000000*%
%TD*%
%TA.AperFunction,ViaPad*%
%ADD41C,0.600000*%
%TD*%
%TA.AperFunction,Conductor*%
%ADD42C,1.000000*%
%TD*%
%TA.AperFunction,Conductor*%
%ADD43C,3.000000*%
%TD*%
%TA.AperFunction,Conductor*%
%ADD44C,2.000000*%
%TD*%
%TA.AperFunction,Conductor*%
%ADD45C,2.500000*%
%TD*%
%TA.AperFunction,Conductor*%
%ADD46C,0.250000*%
%TD*%
%TA.AperFunction,Conductor*%
%ADD47C,0.200000*%
%TD*%
G04 APERTURE END LIST*
D10*
%TO.C,L1*%
X70612500Y-72687500D02*
X71112500Y-72687500D01*
X70612500Y-73187500D02*
X70612500Y-72687500D01*
X55612500Y-73187500D02*
G75*
G02*
X70112500Y-73187500I7250000J0D01*
G01*
X56112500Y-73187500D02*
G75*
G02*
X69612500Y-73187500I6750000J0D01*
G01*
X56612500Y-73187500D02*
G75*
G02*
X69112500Y-73187500I6250000J0D01*
G01*
X57112500Y-73187500D02*
G75*
G02*
X68612500Y-73187500I5750000J0D01*
G01*
X57612500Y-73187500D02*
G75*
G02*
X68112500Y-73187500I5250000J0D01*
G01*
X58112500Y-73187500D02*
G75*
G02*
X67012500Y-73187500I4450000J10112D01*
G01*
X68112500Y-73187500D02*
G75*
G02*
X58112500Y-73187500I-5000000J-25000D01*
G01*
X68612500Y-73187500D02*
G75*
G02*
X57612500Y-73187500I-5500000J0D01*
G01*
X69112500Y-73187500D02*
G75*
G02*
X57112500Y-73187500I-6000000J0D01*
G01*
X69612500Y-73187500D02*
G75*
G02*
X56612500Y-73187500I-6500000J0D01*
G01*
X70112500Y-73187500D02*
G75*
G02*
X56112500Y-73187500I-7000000J0D01*
G01*
X70612500Y-73187500D02*
G75*
G02*
X55612500Y-73187500I-7500000J0D01*
G01*
%TD*%
D11*
%TO.P,Q2,3,S*%
%TO.N,GND*%
X95450000Y-109860000D03*
%TO.P,Q2,2,D*%
%TO.N,/DRAIN2*%
X90000000Y-109860000D03*
D12*
%TO.P,Q2,1,G*%
%TO.N,/GATE2*%
X84550000Y-109860000D03*
%TD*%
D13*
%TO.P,J10,1,In*%
%TO.N,/GATE1-C*%
X122540000Y-85000000D03*
D14*
%TO.P,J10,2,Ext*%
%TO.N,GND*%
X120000000Y-82460000D03*
X120000000Y-87540000D03*
X125080000Y-82460000D03*
X125080000Y-87540000D03*
%TD*%
D13*
%TO.P,J9,1,In*%
%TO.N,/GATE2-C*%
X77500000Y-85040000D03*
D14*
%TO.P,J9,2,Ext*%
%TO.N,GND*%
X74960000Y-82500000D03*
X74960000Y-87580000D03*
X80040000Y-82500000D03*
X80040000Y-87580000D03*
%TD*%
D13*
%TO.P,J4,1,In*%
%TO.N,/DRAIN2-C*%
X78460000Y-109460000D03*
D14*
%TO.P,J4,2,Ext*%
%TO.N,GND*%
X75920000Y-106920000D03*
X75920000Y-112000000D03*
X81000000Y-106920000D03*
X81000000Y-112000000D03*
%TD*%
D13*
%TO.P,J3,1,In*%
%TO.N,/DRAIN1-C*%
X121500000Y-110000000D03*
D14*
%TO.P,J3,2,Ext*%
%TO.N,GND*%
X118960000Y-112540000D03*
X124040000Y-112540000D03*
X118960000Y-107460000D03*
X124040000Y-107460000D03*
%TD*%
D15*
%TO.P,C2,1*%
%TO.N,/VPWR*%
X126132323Y-75000000D03*
D16*
%TO.P,C2,2*%
%TO.N,GND*%
X131132323Y-75000000D03*
%TD*%
%TO.P,C23,1*%
%TO.N,Net-(C15-Pad2)*%
X73500000Y-126000000D03*
%TO.P,C23,2*%
%TO.N,/GATE1*%
X73500000Y-116000000D03*
%TD*%
%TO.P,C22,1*%
%TO.N,Net-(C1-Pad1)*%
X126000000Y-126000000D03*
%TO.P,C22,2*%
%TO.N,/GATE2*%
X126000000Y-116000000D03*
%TD*%
%TO.P,C14,2*%
%TO.N,Net-(C1-Pad1)*%
X123500000Y-138000000D03*
%TO.P,C14,1*%
%TO.N,/DRAIN1*%
X133500000Y-138000000D03*
%TD*%
D17*
%TO.P,R15,1*%
%TO.N,/GATE1*%
X120587500Y-94000000D03*
%TO.P,R15,2*%
%TO.N,/GATE1-C*%
X122412500Y-94000000D03*
%TD*%
D18*
%TO.P,R14,1*%
%TO.N,/GATE2*%
X79412500Y-94000000D03*
%TO.P,R14,2*%
%TO.N,/GATE2-C*%
X77587500Y-94000000D03*
%TD*%
D17*
%TO.P,R12,1*%
%TO.N,/DRAIN2*%
X76587500Y-102000000D03*
%TO.P,R12,2*%
%TO.N,/DRAIN2-C*%
X78412500Y-102000000D03*
%TD*%
%TO.P,R11,1*%
%TO.N,/GATE2*%
X89087500Y-96000000D03*
%TO.P,R11,2*%
%TO.N,GND*%
X90912500Y-96000000D03*
%TD*%
%TO.P,R10,1*%
%TO.N,/GATE1*%
X109087500Y-96000000D03*
%TO.P,R10,2*%
%TO.N,GND*%
X110912500Y-96000000D03*
%TD*%
D19*
%TO.P,R8,1*%
%TO.N,Net-(C11-Pad2)*%
X102500000Y-80487500D03*
%TO.P,R8,2*%
%TO.N,/GATE1*%
X102500000Y-82312500D03*
%TD*%
D20*
%TO.P,L3,2,2*%
%TO.N,/VPWR*%
X65000000Y-91650000D03*
%TO.P,L3,1,1*%
%TO.N,/DRAIN2*%
X65000000Y-106350000D03*
%TD*%
D21*
%TO.P,D4,2,A*%
%TO.N,GND*%
X93300000Y-115900000D03*
%TO.P,D4,1,K*%
%TO.N,/GATE2*%
X86500000Y-115900000D03*
%TD*%
D16*
%TO.P,C21,1*%
%TO.N,Net-(C15-Pad2)*%
X81000000Y-126000000D03*
%TO.P,C21,2*%
%TO.N,/GATE1*%
X81000000Y-116000000D03*
%TD*%
%TO.P,C20,1*%
%TO.N,Net-(C1-Pad1)*%
X118500000Y-126000000D03*
%TO.P,C20,2*%
%TO.N,/GATE2*%
X118500000Y-116000000D03*
%TD*%
D22*
%TO.P,C19,1*%
%TO.N,GND*%
X121350000Y-77800000D03*
%TO.P,C19,2*%
%TO.N,/VPWR*%
X117250000Y-77800000D03*
%TD*%
D16*
%TO.P,C18,1*%
%TO.N,Net-(C15-Pad2)*%
X79500000Y-138000000D03*
%TO.P,C18,2*%
%TO.N,Net-(J12-Pin_1)*%
X89500000Y-138000000D03*
%TD*%
%TO.P,C17,1*%
%TO.N,/DRAIN2*%
X66500000Y-138000000D03*
%TO.P,C17,2*%
%TO.N,Net-(C15-Pad2)*%
X76500000Y-138000000D03*
%TD*%
%TO.P,C16,1*%
%TO.N,Net-(C15-Pad2)*%
X79500000Y-130500000D03*
%TO.P,C16,2*%
%TO.N,Net-(J12-Pin_1)*%
X89500000Y-130500000D03*
%TD*%
%TO.P,C15,1*%
%TO.N,/DRAIN2*%
X66500000Y-130500000D03*
%TO.P,C15,2*%
%TO.N,Net-(C15-Pad2)*%
X76500000Y-130500000D03*
%TD*%
%TO.P,C13,1*%
%TO.N,/DRAIN1*%
X133500000Y-130500000D03*
%TO.P,C13,2*%
%TO.N,Net-(C1-Pad1)*%
X123500000Y-130500000D03*
%TD*%
%TO.P,C12,1*%
%TO.N,Net-(C1-Pad1)*%
X120500000Y-130500000D03*
%TO.P,C12,2*%
%TO.N,Net-(J11-Pin_1)*%
X110500000Y-130500000D03*
%TD*%
D23*
%TO.P,C10,1*%
%TO.N,/GATE2*%
X87950000Y-103000000D03*
%TO.P,C10,2*%
%TO.N,GND*%
X92050000Y-103000000D03*
%TD*%
%TO.P,C9,1*%
%TO.N,/GATE2*%
X87950000Y-99000000D03*
%TO.P,C9,2*%
%TO.N,GND*%
X92050000Y-99000000D03*
%TD*%
%TO.P,C8,1*%
%TO.N,/GATE1*%
X107950000Y-99000000D03*
%TO.P,C8,2*%
%TO.N,GND*%
X112050000Y-99000000D03*
%TD*%
%TO.P,C7,1*%
%TO.N,/GATE1*%
X107950000Y-103000000D03*
%TO.P,C7,2*%
%TO.N,GND*%
X112050000Y-103000000D03*
%TD*%
D16*
%TO.P,C1,1*%
%TO.N,Net-(C1-Pad1)*%
X120500000Y-138000000D03*
%TO.P,C1,2*%
%TO.N,Net-(J11-Pin_1)*%
X110500000Y-138000000D03*
%TD*%
D24*
%TO.P,D3,1,K*%
%TO.N,Net-(D3-K)*%
X64387500Y-75187500D03*
%TO.P,D3,2,A*%
%TO.N,Net-(D3-A)*%
X61587500Y-75187500D03*
%TD*%
D25*
%TO.P,SW1,1,A*%
%TO.N,/VIN*%
X111500000Y-70190000D03*
%TO.P,SW1,2,B*%
%TO.N,/VPWR*%
X111500000Y-74000000D03*
%TO.P,SW1,3,C*%
%TO.N,unconnected-(SW1-C-Pad3)*%
X111500000Y-77810000D03*
D26*
%TO.P,SW1,M1*%
%TO.N,N/C*%
X114040000Y-57490000D03*
%TO.P,SW1,M2*%
X108960000Y-57490000D03*
%TD*%
D18*
%TO.P,R13,1*%
%TO.N,Net-(L1-Pad2)*%
X63800000Y-71387500D03*
%TO.P,R13,2*%
%TO.N,Net-(D3-A)*%
X61975000Y-71387500D03*
%TD*%
D16*
%TO.P,J12,1,Pin_1*%
%TO.N,Net-(J12-Pin_1)*%
X95000000Y-140000000D03*
X95000000Y-131800001D03*
%TD*%
D27*
%TO.P,L2,2,2*%
%TO.N,/DRAIN1*%
X135000000Y-106350000D03*
%TO.P,L2,1,1*%
%TO.N,/VPWR*%
X135000000Y-91650000D03*
%TD*%
D21*
%TO.P,D2,1,K*%
%TO.N,/GATE1*%
X106750000Y-115750000D03*
%TO.P,D2,2,A*%
%TO.N,GND*%
X113550000Y-115750000D03*
%TD*%
D28*
%TO.P,J1,1*%
%TO.N,/VIN*%
X124500000Y-67500000D03*
D29*
%TO.P,J1,2*%
%TO.N,GND*%
X124500000Y-61500000D03*
D30*
%TO.P,J1,MP1*%
%TO.N,N/C*%
X120000000Y-60500000D03*
%TO.P,J1,MP2*%
X129000000Y-60500000D03*
%TD*%
D17*
%TO.P,R2,1*%
%TO.N,/VPWR*%
X87087500Y-68750000D03*
%TO.P,R2,2*%
%TO.N,Net-(D1-K)*%
X88912500Y-68750000D03*
%TD*%
D23*
%TO.P,C11,1*%
%TO.N,GND*%
X96050000Y-72200000D03*
%TO.P,C11,2*%
%TO.N,Net-(C11-Pad2)*%
X100150000Y-72200000D03*
%TD*%
D19*
%TO.P,R4,1*%
%TO.N,Net-(R4-Pad1)*%
X99000000Y-65087500D03*
%TO.P,R4,2*%
%TO.N,GND*%
X99000000Y-66912500D03*
%TD*%
D16*
%TO.P,J11,1,Pin_1*%
%TO.N,Net-(J11-Pin_1)*%
X105000000Y-140000000D03*
X105000000Y-131800001D03*
%TD*%
D31*
%TO.P,J2,1,Pin_1*%
%TO.N,/VPWR*%
X140975000Y-79250000D03*
D32*
%TO.P,J2,2,Pin_2*%
%TO.N,GND*%
X140975000Y-76750000D03*
%TD*%
D33*
%TO.P,J8,R*%
%TO.N,unconnected-(J8-PadR)*%
X79500000Y-62500000D03*
%TO.P,J8,S*%
%TO.N,GND*%
X72100000Y-60500000D03*
D34*
%TO.P,J8,T*%
%TO.N,Net-(J8-PadT)*%
X72100000Y-69900000D03*
%TD*%
D35*
%TO.P,D1,1,K*%
%TO.N,Net-(D1-K)*%
X93750000Y-68750000D03*
%TO.P,D1,2,A*%
%TO.N,GND*%
X96250000Y-68750000D03*
%TD*%
D36*
%TO.P,R3,1*%
%TO.N,Net-(D1-K)*%
X90750000Y-66912500D03*
%TO.P,R3,2*%
%TO.N,Net-(R3-Pad2)*%
X90750000Y-65087500D03*
%TD*%
D37*
%TO.P,L1,1,1*%
%TO.N,Net-(D3-K)*%
X71462500Y-72687500D03*
D38*
%TO.P,L1,2,2*%
%TO.N,Net-(L1-Pad2)*%
X66112500Y-73187500D03*
%TD*%
D17*
%TO.P,R9,1*%
%TO.N,Net-(J8-PadT)*%
X82787500Y-72200000D03*
%TO.P,R9,2*%
%TO.N,Net-(C11-Pad2)*%
X84612500Y-72200000D03*
%TD*%
D39*
%TO.P,RV1,1,1*%
%TO.N,Net-(R3-Pad2)*%
X91750000Y-59000000D03*
%TO.P,RV1,2,2*%
%TO.N,Net-(C11-Pad2)*%
X94250000Y-61500000D03*
%TO.P,RV1,3,3*%
%TO.N,Net-(R4-Pad1)*%
X96750000Y-59000000D03*
%TD*%
D19*
%TO.P,R5,1*%
%TO.N,Net-(C11-Pad2)*%
X97500000Y-80587500D03*
%TO.P,R5,2*%
%TO.N,/GATE2*%
X97500000Y-82412500D03*
%TD*%
D11*
%TO.P,Q1,3,S*%
%TO.N,GND*%
X115450000Y-109790000D03*
%TO.P,Q1,2,D*%
%TO.N,/DRAIN1*%
X110000000Y-109790000D03*
D12*
%TO.P,Q1,1,G*%
%TO.N,/GATE1*%
X104550000Y-109790000D03*
%TD*%
D18*
%TO.P,R7,2*%
%TO.N,/DRAIN1-C*%
X121587500Y-102500000D03*
%TO.P,R7,1*%
%TO.N,/DRAIN1*%
X123412500Y-102500000D03*
%TD*%
D40*
%TO.N,/VPWR*%
X57001000Y-92000000D03*
X57000000Y-88500000D03*
%TO.N,Net-(C11-Pad2)*%
X100150000Y-74700000D03*
%TO.N,/DRAIN1*%
X143000000Y-126000000D03*
X143000000Y-118000000D03*
X143000000Y-111000000D03*
%TO.N,/DRAIN2*%
X57000000Y-126000000D03*
X57000000Y-118000000D03*
X57000000Y-111000000D03*
%TO.N,GND*%
X68500000Y-60500000D03*
X100250000Y-68750000D03*
D41*
%TO.N,Net-(D3-K)*%
X65987500Y-75187500D03*
X71462500Y-72687500D03*
%TD*%
D42*
%TO.N,Net-(C11-Pad2)*%
X92600000Y-76100000D02*
X88700000Y-72200000D01*
X98750000Y-76100000D02*
X92600000Y-76100000D01*
X88700000Y-72200000D02*
X84612500Y-72200000D01*
X100150000Y-74700000D02*
X98750000Y-76100000D01*
%TO.N,Net-(J8-PadT)*%
X72100000Y-70100000D02*
X74200000Y-72200000D01*
X72100000Y-69900000D02*
X72100000Y-70100000D01*
X74200000Y-72200000D02*
X82787500Y-72200000D01*
D43*
%TO.N,GND*%
X74960000Y-95960000D02*
X76500000Y-97500000D01*
X76500000Y-97500000D02*
X78500000Y-97500000D01*
X78500000Y-97500000D02*
X81000000Y-100000000D01*
X74960000Y-87580000D02*
X74960000Y-95960000D01*
X81000000Y-100000000D02*
X81000000Y-106920000D01*
%TO.N,/VPWR*%
X57000000Y-91500000D02*
X57000000Y-88500000D01*
X57150000Y-91650000D02*
X57000000Y-91500000D01*
X65000000Y-91650000D02*
X57150000Y-91650000D01*
X136500000Y-77500000D02*
X140500000Y-81500000D01*
X140500000Y-81500000D02*
X140500000Y-91650000D01*
X136500000Y-73000000D02*
X136500000Y-77500000D01*
X129500000Y-70500000D02*
X134000000Y-70500000D01*
X134000000Y-70500000D02*
X136500000Y-73000000D01*
X126132323Y-73867677D02*
X129500000Y-70500000D01*
X140500000Y-91650000D02*
X135000000Y-91650000D01*
X126132323Y-75000000D02*
X126132323Y-73867677D01*
X117200000Y-74000000D02*
X125132323Y-74000000D01*
D42*
X87087500Y-58600000D02*
X87087500Y-68750000D01*
X106600000Y-57800000D02*
X104801000Y-56001000D01*
X104801000Y-56001000D02*
X89686500Y-56001000D01*
X89686500Y-56001000D02*
X87087500Y-58600000D01*
X108800000Y-74000000D02*
X106600000Y-71800000D01*
X111500000Y-74000000D02*
X108800000Y-74000000D01*
X106600000Y-71800000D02*
X106600000Y-57800000D01*
%TO.N,GND*%
X96250000Y-72000000D02*
X96050000Y-72200000D01*
X96250000Y-68750000D02*
X96250000Y-72000000D01*
%TO.N,Net-(C11-Pad2)*%
X100150000Y-75950000D02*
X100150000Y-72200000D01*
X99700000Y-76400000D02*
X100150000Y-75950000D01*
X99700000Y-80587500D02*
X99700000Y-76400000D01*
X99700000Y-80587500D02*
X102400000Y-80587500D01*
%TO.N,GND*%
X131132323Y-77367677D02*
X131132323Y-75000000D01*
X121350000Y-77800000D02*
X130700000Y-77800000D01*
X130700000Y-77800000D02*
X131132323Y-77367677D01*
%TO.N,/VPWR*%
X117250000Y-74050000D02*
X117200000Y-74000000D01*
X117250000Y-77800000D02*
X117250000Y-74050000D01*
%TO.N,GND*%
X97000000Y-68750000D02*
X96950000Y-68800000D01*
X97000000Y-68750000D02*
X99000000Y-68750000D01*
%TO.N,Net-(C11-Pad2)*%
X102400000Y-80587500D02*
X102500000Y-80487500D01*
X97500000Y-80587500D02*
X99700000Y-80587500D01*
%TO.N,/GATE1*%
X116500000Y-86500000D02*
X116500000Y-92000000D01*
X116500000Y-92000000D02*
X118500000Y-94000000D01*
X114500000Y-84500000D02*
X116500000Y-86500000D01*
X118500000Y-94000000D02*
X120587500Y-94000000D01*
X102500000Y-84500000D02*
X114500000Y-84500000D01*
X102500000Y-84500000D02*
X102500000Y-93500000D01*
%TO.N,/GATE2*%
X84000000Y-94000000D02*
X87000000Y-97000000D01*
X84000000Y-88000000D02*
X84000000Y-94000000D01*
X89587500Y-82412500D02*
X84000000Y-88000000D01*
D43*
X87000000Y-103000000D02*
X84550000Y-105450000D01*
X84550000Y-105450000D02*
X84550000Y-109860000D01*
D42*
X97500000Y-82412500D02*
X89587500Y-82412500D01*
D43*
X87000000Y-97000000D02*
X87000000Y-103000000D01*
D42*
%TO.N,/GATE1*%
X102500000Y-93500000D02*
X107000000Y-98000000D01*
X102500000Y-82312500D02*
X102500000Y-84500000D01*
%TO.N,/GATE2*%
X80000000Y-94000000D02*
X85000000Y-99000000D01*
X79412500Y-94000000D02*
X80000000Y-94000000D01*
X85000000Y-99000000D02*
X87950000Y-99000000D01*
%TO.N,/GATE2-C*%
X77500000Y-93912500D02*
X77587500Y-94000000D01*
X77500000Y-85040000D02*
X77500000Y-93912500D01*
%TO.N,/GATE1-C*%
X122540000Y-93872500D02*
X122412500Y-94000000D01*
X122540000Y-85000000D02*
X122540000Y-93872500D01*
%TO.N,/DRAIN1*%
X127000000Y-106000000D02*
X127350000Y-106350000D01*
X127000000Y-103500000D02*
X127000000Y-106000000D01*
X127350000Y-106350000D02*
X135000000Y-106350000D01*
X126000000Y-102500000D02*
X127000000Y-103500000D01*
X123412500Y-102500000D02*
X126000000Y-102500000D01*
%TO.N,/DRAIN1-C*%
X121500000Y-110000000D02*
X121500000Y-102712500D01*
%TO.N,/DRAIN2*%
X72500000Y-106000000D02*
X72150000Y-106350000D01*
X72500000Y-103500000D02*
X72500000Y-106000000D01*
X74000000Y-102000000D02*
X72500000Y-103500000D01*
X76587500Y-102000000D02*
X74000000Y-102000000D01*
X72150000Y-106350000D02*
X65000000Y-106350000D01*
D43*
X57000000Y-126000000D02*
X57000000Y-127000000D01*
X57000000Y-118000000D02*
X57000000Y-126000000D01*
X57000000Y-111000000D02*
X57000000Y-118000000D01*
D42*
%TO.N,/DRAIN2-C*%
X78460000Y-102047500D02*
X78412500Y-102000000D01*
X78460000Y-109460000D02*
X78460000Y-102047500D01*
D43*
%TO.N,/GATE2*%
X86500000Y-119500000D02*
X86500000Y-115900000D01*
D44*
X87000000Y-120000000D02*
X86500000Y-119500000D01*
D43*
X118500000Y-116500000D02*
X115000000Y-120000000D01*
X115000000Y-120000000D02*
X87000000Y-120000000D01*
D44*
X118500000Y-116000000D02*
X118500000Y-116500000D01*
D43*
%TO.N,/DRAIN1*%
X140500000Y-130500000D02*
X133500000Y-130500000D01*
X142999000Y-128001000D02*
X140500000Y-130500000D01*
X142999000Y-108999000D02*
X142999000Y-128001000D01*
X140350000Y-106350000D02*
X142999000Y-108999000D01*
X135000000Y-106350000D02*
X140350000Y-106350000D01*
%TO.N,/DRAIN2*%
X57000000Y-127000000D02*
X60500000Y-130500000D01*
X59650000Y-106350000D02*
X57000000Y-109000000D01*
X65000000Y-106350000D02*
X59650000Y-106350000D01*
X57000000Y-109000000D02*
X57000000Y-111000000D01*
X60500000Y-130500000D02*
X66500000Y-130500000D01*
D42*
%TO.N,/GATE2*%
X87950000Y-97137500D02*
X87950000Y-99000000D01*
X89087500Y-96000000D02*
X87950000Y-97137500D01*
%TO.N,GND*%
X92050000Y-97137500D02*
X90912500Y-96000000D01*
X92050000Y-99000000D02*
X92050000Y-97137500D01*
%TO.N,/GATE1*%
X107950000Y-97137500D02*
X109087500Y-96000000D01*
X107950000Y-99000000D02*
X107950000Y-97137500D01*
%TO.N,GND*%
X112050000Y-97137500D02*
X110912500Y-96000000D01*
X112050000Y-99000000D02*
X112050000Y-97137500D01*
D45*
%TO.N,/GATE1*%
X107000000Y-104000000D02*
X107000000Y-98000000D01*
X104550000Y-106450000D02*
X107000000Y-104000000D01*
X104550000Y-109790000D02*
X104550000Y-106450000D01*
D43*
%TO.N,GND*%
X114000000Y-104000000D02*
X113000000Y-103000000D01*
X115450000Y-105450000D02*
X114000000Y-104000000D01*
X113000000Y-103000000D02*
X113000000Y-99000000D01*
X115450000Y-109790000D02*
X115450000Y-105450000D01*
X93000000Y-103000000D02*
X93000000Y-99000000D01*
X94000000Y-104000000D02*
X93000000Y-103000000D01*
X95450000Y-105450000D02*
X94000000Y-104000000D01*
X95450000Y-109860000D02*
X95450000Y-105450000D01*
%TO.N,/GATE2*%
X118500000Y-116000000D02*
X126000000Y-116000000D01*
%TO.N,/GATE1*%
X73500000Y-116000000D02*
X81000000Y-116000000D01*
%TO.N,/GATE2*%
X84550000Y-113950000D02*
X86500000Y-115900000D01*
X84550000Y-109860000D02*
X84550000Y-113950000D01*
%TO.N,GND*%
X94100000Y-115900000D02*
X95450000Y-114550000D01*
X95450000Y-114550000D02*
X95450000Y-109860000D01*
X93300000Y-115900000D02*
X94100000Y-115900000D01*
%TO.N,/DRAIN1*%
X133500000Y-135000000D02*
X133500000Y-138000000D01*
X133500000Y-130500000D02*
X133500000Y-135000000D01*
%TO.N,/DRAIN2*%
X66500000Y-134000000D02*
X66500000Y-138000000D01*
X66500000Y-130500000D02*
X66500000Y-134000000D01*
%TO.N,/VPWR*%
X125132323Y-74000000D02*
X126132323Y-75000000D01*
X111500000Y-74000000D02*
X117200000Y-74000000D01*
D42*
%TO.N,GND*%
X99000000Y-68750000D02*
X100250000Y-68750000D01*
X100300000Y-68800000D02*
X100250000Y-68750000D01*
X96250000Y-68750000D02*
X97000000Y-68750000D01*
D43*
X115450000Y-113850000D02*
X113550000Y-115750000D01*
D42*
X72100000Y-60500000D02*
X68500000Y-60500000D01*
X99000000Y-66912500D02*
X99000000Y-68750000D01*
D43*
X115450000Y-109790000D02*
X115450000Y-113850000D01*
D42*
%TO.N,Net-(D1-K)*%
X90750000Y-68750000D02*
X88912500Y-68750000D01*
D46*
X90750000Y-66912500D02*
X90750000Y-68750000D01*
D42*
X93750000Y-68750000D02*
X90750000Y-68750000D01*
D46*
%TO.N,Net-(R3-Pad2)*%
X91750000Y-59000000D02*
X91750000Y-62750000D01*
X91750000Y-62750000D02*
X90750000Y-63750000D01*
X90750000Y-63750000D02*
X90750000Y-65087500D01*
%TO.N,Net-(R4-Pad1)*%
X96750000Y-59000000D02*
X99000000Y-61250000D01*
X99000000Y-61250000D02*
X99000000Y-65087500D01*
D43*
%TO.N,/VIN*%
X120500000Y-67500000D02*
X124500000Y-67500000D01*
X111500000Y-70190000D02*
X117810000Y-70190000D01*
X117810000Y-70190000D02*
X120500000Y-67500000D01*
D47*
%TO.N,Net-(D3-A)*%
X61587500Y-72787500D02*
X61587500Y-75187500D01*
X61975000Y-72400000D02*
X61587500Y-72787500D01*
X61975000Y-71387500D02*
X61975000Y-72400000D01*
%TO.N,Net-(D3-K)*%
X64387500Y-75187500D02*
X65987500Y-75187500D01*
%TO.N,Net-(L1-Pad2)*%
X64887500Y-71387500D02*
X66112500Y-72612500D01*
X66112500Y-72612500D02*
X66112500Y-73187500D01*
X63800000Y-71387500D02*
X64887500Y-71387500D01*
D45*
%TO.N,/GATE1*%
X104550000Y-113550000D02*
X106750000Y-115750000D01*
X104550000Y-109790000D02*
X104550000Y-113550000D01*
%TD*%
%TA.AperFunction,Conductor*%
%TO.N,Net-(J11-Pin_1)*%
G36*
X112443039Y-127019685D02*
G01*
X112488794Y-127072489D01*
X112500000Y-127124000D01*
X112500000Y-143876000D01*
X112480315Y-143943039D01*
X112427511Y-143988794D01*
X112376000Y-144000000D01*
X102124000Y-144000000D01*
X102056961Y-143980315D01*
X102011206Y-143927511D01*
X102000000Y-143876000D01*
X102000000Y-139881947D01*
X103500000Y-139881947D01*
X103500000Y-140118052D01*
X103536934Y-140351247D01*
X103609897Y-140575802D01*
X103705748Y-140763920D01*
X104359232Y-140110436D01*
X104374979Y-140189598D01*
X104423978Y-140307890D01*
X104495112Y-140414351D01*
X104585649Y-140504888D01*
X104692110Y-140576022D01*
X104810402Y-140625021D01*
X104889562Y-140640766D01*
X104236078Y-141294250D01*
X104424197Y-141390102D01*
X104648752Y-141463065D01*
X104648751Y-141463065D01*
X104881948Y-141500000D01*
X105118052Y-141500000D01*
X105351247Y-141463065D01*
X105575802Y-141390102D01*
X105763920Y-141294250D01*
X105110436Y-140640766D01*
X105189598Y-140625021D01*
X105307890Y-140576022D01*
X105414351Y-140504888D01*
X105504888Y-140414351D01*
X105576022Y-140307890D01*
X105625021Y-140189598D01*
X105640766Y-140110436D01*
X106294250Y-140763920D01*
X106390102Y-140575802D01*
X106463065Y-140351247D01*
X106500000Y-140118052D01*
X106500000Y-139881947D01*
X106463065Y-139648752D01*
X106390102Y-139424197D01*
X106330663Y-139307541D01*
X106323891Y-139294250D01*
X109736078Y-139294250D01*
X109924197Y-139390102D01*
X110148752Y-139463065D01*
X110148751Y-139463065D01*
X110381948Y-139500000D01*
X110618052Y-139500000D01*
X110851247Y-139463065D01*
X111075802Y-139390102D01*
X111263920Y-139294250D01*
X110500000Y-138530330D01*
X109736078Y-139294250D01*
X106323891Y-139294250D01*
X106294250Y-139236078D01*
X105640766Y-139889562D01*
X105625021Y-139810402D01*
X105576022Y-139692110D01*
X105504888Y-139585649D01*
X105414351Y-139495112D01*
X105307890Y-139423978D01*
X105189598Y-139374979D01*
X105110437Y-139359233D01*
X105763920Y-138705748D01*
X105575802Y-138609897D01*
X105351247Y-138536934D01*
X105351248Y-138536934D01*
X105118052Y-138500000D01*
X104881948Y-138500000D01*
X104648752Y-138536934D01*
X104424194Y-138609898D01*
X104236078Y-138705747D01*
X104236077Y-138705747D01*
X104889563Y-139359233D01*
X104810402Y-139374979D01*
X104692110Y-139423978D01*
X104585649Y-139495112D01*
X104495112Y-139585649D01*
X104423978Y-139692110D01*
X104374979Y-139810402D01*
X104359233Y-139889563D01*
X103705747Y-139236077D01*
X103705747Y-139236078D01*
X103609898Y-139424194D01*
X103536934Y-139648752D01*
X103500000Y-139881947D01*
X102000000Y-139881947D01*
X102000000Y-137881947D01*
X109000000Y-137881947D01*
X109000000Y-138118052D01*
X109036934Y-138351247D01*
X109109897Y-138575802D01*
X109205748Y-138763920D01*
X109969670Y-138000000D01*
X109903844Y-137934174D01*
X110000000Y-137934174D01*
X110000000Y-138065826D01*
X110034075Y-138192993D01*
X110099901Y-138307007D01*
X110192993Y-138400099D01*
X110307007Y-138465925D01*
X110434174Y-138500000D01*
X110565826Y-138500000D01*
X110692993Y-138465925D01*
X110807007Y-138400099D01*
X110900099Y-138307007D01*
X110965925Y-138192993D01*
X111000000Y-138065826D01*
X111000000Y-137999999D01*
X111030330Y-137999999D01*
X111030330Y-138000000D01*
X111794250Y-138763920D01*
X111890102Y-138575802D01*
X111963065Y-138351247D01*
X112000000Y-138118052D01*
X112000000Y-137881947D01*
X111963065Y-137648752D01*
X111890102Y-137424197D01*
X111794250Y-137236078D01*
X111030330Y-137999999D01*
X111000000Y-137999999D01*
X111000000Y-137934174D01*
X110965925Y-137807007D01*
X110900099Y-137692993D01*
X110807007Y-137599901D01*
X110692993Y-137534075D01*
X110565826Y-137500000D01*
X110434174Y-137500000D01*
X110307007Y-137534075D01*
X110192993Y-137599901D01*
X110099901Y-137692993D01*
X110034075Y-137807007D01*
X110000000Y-137934174D01*
X109903844Y-137934174D01*
X109205747Y-137236077D01*
X109205747Y-137236078D01*
X109109898Y-137424194D01*
X109036934Y-137648752D01*
X109000000Y-137881947D01*
X102000000Y-137881947D01*
X102000000Y-136705747D01*
X109736077Y-136705747D01*
X110500000Y-137469670D01*
X110500001Y-137469670D01*
X111263920Y-136705748D01*
X111075802Y-136609897D01*
X110851247Y-136536934D01*
X110851248Y-136536934D01*
X110618052Y-136500000D01*
X110381948Y-136500000D01*
X110148752Y-136536934D01*
X109924194Y-136609898D01*
X109736078Y-136705747D01*
X109736077Y-136705747D01*
X102000000Y-136705747D01*
X102000000Y-131681948D01*
X103500000Y-131681948D01*
X103500000Y-131918053D01*
X103536934Y-132151248D01*
X103609897Y-132375803D01*
X103705748Y-132563921D01*
X104359232Y-131910437D01*
X104374979Y-131989599D01*
X104423978Y-132107891D01*
X104495112Y-132214352D01*
X104585649Y-132304889D01*
X104692110Y-132376023D01*
X104810402Y-132425022D01*
X104889562Y-132440767D01*
X104236078Y-133094251D01*
X104424197Y-133190103D01*
X104648752Y-133263066D01*
X104648751Y-133263066D01*
X104881948Y-133300001D01*
X105118052Y-133300001D01*
X105351247Y-133263066D01*
X105575802Y-133190103D01*
X105763920Y-133094251D01*
X105110436Y-132440767D01*
X105189598Y-132425022D01*
X105307890Y-132376023D01*
X105414351Y-132304889D01*
X105504888Y-132214352D01*
X105576022Y-132107891D01*
X105625021Y-131989599D01*
X105640766Y-131910437D01*
X106294250Y-132563921D01*
X106390102Y-132375803D01*
X106463065Y-132151248D01*
X106500000Y-131918053D01*
X106500000Y-131794250D01*
X109736078Y-131794250D01*
X109924197Y-131890102D01*
X110148752Y-131963065D01*
X110148751Y-131963065D01*
X110381948Y-132000000D01*
X110618052Y-132000000D01*
X110851247Y-131963065D01*
X111075802Y-131890102D01*
X111263920Y-131794250D01*
X110500000Y-131030330D01*
X109736078Y-131794250D01*
X106500000Y-131794250D01*
X106500000Y-131681948D01*
X106463065Y-131448753D01*
X106390102Y-131224198D01*
X106294250Y-131036079D01*
X105640766Y-131689563D01*
X105625021Y-131610403D01*
X105576022Y-131492111D01*
X105504888Y-131385650D01*
X105414351Y-131295113D01*
X105307890Y-131223979D01*
X105189598Y-131174980D01*
X105110437Y-131159234D01*
X105763920Y-130505749D01*
X105728223Y-130487560D01*
X105575802Y-130409898D01*
X105489778Y-130381947D01*
X109000000Y-130381947D01*
X109000000Y-130618052D01*
X109036934Y-130851247D01*
X109109897Y-131075802D01*
X109205748Y-131263920D01*
X109969670Y-130500000D01*
X109903844Y-130434174D01*
X110000000Y-130434174D01*
X110000000Y-130565826D01*
X110034075Y-130692993D01*
X110099901Y-130807007D01*
X110192993Y-130900099D01*
X110307007Y-130965925D01*
X110434174Y-131000000D01*
X110565826Y-131000000D01*
X110692993Y-130965925D01*
X110807007Y-130900099D01*
X110900099Y-130807007D01*
X110965925Y-130692993D01*
X111000000Y-130565826D01*
X111000000Y-130499999D01*
X111030330Y-130499999D01*
X111030330Y-130500000D01*
X111794250Y-131263920D01*
X111890102Y-131075802D01*
X111963065Y-130851247D01*
X112000000Y-130618052D01*
X112000000Y-130381947D01*
X111963065Y-130148752D01*
X111890102Y-129924197D01*
X111794250Y-129736078D01*
X111030330Y-130499999D01*
X111000000Y-130499999D01*
X111000000Y-130434174D01*
X110965925Y-130307007D01*
X110900099Y-130192993D01*
X110807007Y-130099901D01*
X110692993Y-130034075D01*
X110565826Y-130000000D01*
X110434174Y-130000000D01*
X110307007Y-130034075D01*
X110192993Y-130099901D01*
X110099901Y-130192993D01*
X110034075Y-130307007D01*
X110000000Y-130434174D01*
X109903844Y-130434174D01*
X109205747Y-129736077D01*
X109205747Y-129736078D01*
X109109898Y-129924194D01*
X109036934Y-130148752D01*
X109000000Y-130381947D01*
X105489778Y-130381947D01*
X105351247Y-130336935D01*
X105351248Y-130336935D01*
X105118052Y-130300001D01*
X104881948Y-130300001D01*
X104648752Y-130336935D01*
X104424194Y-130409899D01*
X104236078Y-130505748D01*
X104236077Y-130505748D01*
X104889563Y-131159234D01*
X104810402Y-131174980D01*
X104692110Y-131223979D01*
X104585649Y-131295113D01*
X104495112Y-131385650D01*
X104423978Y-131492111D01*
X104374979Y-131610403D01*
X104359233Y-131689564D01*
X103705747Y-131036078D01*
X103705747Y-131036079D01*
X103609898Y-131224195D01*
X103536934Y-131448753D01*
X103500000Y-131681948D01*
X102000000Y-131681948D01*
X102000000Y-129205747D01*
X109736077Y-129205747D01*
X110500000Y-129969670D01*
X110500001Y-129969670D01*
X111263920Y-129205748D01*
X111075802Y-129109897D01*
X110851247Y-129036934D01*
X110851248Y-129036934D01*
X110618052Y-129000000D01*
X110381948Y-129000000D01*
X110148752Y-129036934D01*
X109924194Y-129109898D01*
X109736078Y-129205747D01*
X109736077Y-129205747D01*
X102000000Y-129205747D01*
X102000000Y-127124000D01*
X102019685Y-127056961D01*
X102072489Y-127011206D01*
X102124000Y-127000000D01*
X112376000Y-127000000D01*
X112443039Y-127019685D01*
G37*
%TD.AperFunction*%
%TD*%
%TA.AperFunction,Conductor*%
%TO.N,Net-(C1-Pad1)*%
G36*
X127443039Y-124019685D02*
G01*
X127488794Y-124072489D01*
X127500000Y-124124000D01*
X127500000Y-125123479D01*
X127480315Y-125190518D01*
X127427511Y-125236273D01*
X127358353Y-125246217D01*
X127356603Y-125245953D01*
X127294251Y-125236077D01*
X126530330Y-125999999D01*
X126530330Y-126000000D01*
X127294251Y-126763921D01*
X127356602Y-126754046D01*
X127425896Y-126763001D01*
X127479348Y-126807997D01*
X127499987Y-126874748D01*
X127500000Y-126876519D01*
X127500000Y-143876000D01*
X127480315Y-143943039D01*
X127427511Y-143988794D01*
X127376000Y-144000000D01*
X116624000Y-144000000D01*
X116556961Y-143980315D01*
X116511206Y-143927511D01*
X116500000Y-143876000D01*
X116500000Y-139294250D01*
X119736078Y-139294250D01*
X119924197Y-139390102D01*
X120148752Y-139463065D01*
X120148751Y-139463065D01*
X120381948Y-139500000D01*
X120618052Y-139500000D01*
X120851247Y-139463065D01*
X121075802Y-139390102D01*
X121263920Y-139294250D01*
X122736078Y-139294250D01*
X122924197Y-139390102D01*
X123148752Y-139463065D01*
X123148751Y-139463065D01*
X123381948Y-139500000D01*
X123618052Y-139500000D01*
X123851247Y-139463065D01*
X124075802Y-139390102D01*
X124263920Y-139294250D01*
X123500000Y-138530330D01*
X122736078Y-139294250D01*
X121263920Y-139294250D01*
X120500000Y-138530330D01*
X119736078Y-139294250D01*
X116500000Y-139294250D01*
X116500000Y-137881947D01*
X119000000Y-137881947D01*
X119000000Y-138118052D01*
X119036934Y-138351247D01*
X119109897Y-138575802D01*
X119205748Y-138763920D01*
X119969670Y-138000000D01*
X119903844Y-137934174D01*
X120000000Y-137934174D01*
X120000000Y-138065826D01*
X120034075Y-138192993D01*
X120099901Y-138307007D01*
X120192993Y-138400099D01*
X120307007Y-138465925D01*
X120434174Y-138500000D01*
X120565826Y-138500000D01*
X120692993Y-138465925D01*
X120807007Y-138400099D01*
X120900099Y-138307007D01*
X120965925Y-138192993D01*
X121000000Y-138065826D01*
X121000000Y-137999999D01*
X121030330Y-137999999D01*
X121030330Y-138000000D01*
X121794250Y-138763920D01*
X121889514Y-138576956D01*
X121937488Y-138526160D01*
X122005309Y-138509365D01*
X122071444Y-138531902D01*
X122110484Y-138576956D01*
X122205747Y-138763920D01*
X122969670Y-138000000D01*
X122903844Y-137934174D01*
X123000000Y-137934174D01*
X123000000Y-138065826D01*
X123034075Y-138192993D01*
X123099901Y-138307007D01*
X123192993Y-138400099D01*
X123307007Y-138465925D01*
X123434174Y-138500000D01*
X123565826Y-138500000D01*
X123692993Y-138465925D01*
X123807007Y-138400099D01*
X123900099Y-138307007D01*
X123965925Y-138192993D01*
X124000000Y-138065826D01*
X124000000Y-137999999D01*
X124030330Y-137999999D01*
X124030330Y-138000000D01*
X124794250Y-138763920D01*
X124890102Y-138575802D01*
X124963065Y-138351247D01*
X125000000Y-138118052D01*
X125000000Y-137881947D01*
X124963065Y-137648752D01*
X124890102Y-137424197D01*
X124794250Y-137236078D01*
X124030330Y-137999999D01*
X124000000Y-137999999D01*
X124000000Y-137934174D01*
X123965925Y-137807007D01*
X123900099Y-137692993D01*
X123807007Y-137599901D01*
X123692993Y-137534075D01*
X123565826Y-137500000D01*
X123434174Y-137500000D01*
X123307007Y-137534075D01*
X123192993Y-137599901D01*
X123099901Y-137692993D01*
X123034075Y-137807007D01*
X123000000Y-137934174D01*
X122903844Y-137934174D01*
X122205747Y-137236077D01*
X122110484Y-137423043D01*
X122062509Y-137473839D01*
X121994688Y-137490634D01*
X121928553Y-137468097D01*
X121889514Y-137423043D01*
X121794250Y-137236078D01*
X121030330Y-137999999D01*
X121000000Y-137999999D01*
X121000000Y-137934174D01*
X120965925Y-137807007D01*
X120900099Y-137692993D01*
X120807007Y-137599901D01*
X120692993Y-137534075D01*
X120565826Y-137500000D01*
X120434174Y-137500000D01*
X120307007Y-137534075D01*
X120192993Y-137599901D01*
X120099901Y-137692993D01*
X120034075Y-137807007D01*
X120000000Y-137934174D01*
X119903844Y-137934174D01*
X119205747Y-137236077D01*
X119205747Y-137236078D01*
X119109898Y-137424194D01*
X119036934Y-137648752D01*
X119000000Y-137881947D01*
X116500000Y-137881947D01*
X116500000Y-136705747D01*
X119736077Y-136705747D01*
X120500000Y-137469670D01*
X120500001Y-137469670D01*
X121263920Y-136705748D01*
X121263918Y-136705747D01*
X122736077Y-136705747D01*
X123500000Y-137469670D01*
X123500001Y-137469670D01*
X124263920Y-136705748D01*
X124075802Y-136609897D01*
X123851247Y-136536934D01*
X123851248Y-136536934D01*
X123618052Y-136500000D01*
X123381948Y-136500000D01*
X123148752Y-136536934D01*
X122924194Y-136609898D01*
X122736078Y-136705747D01*
X122736077Y-136705747D01*
X121263918Y-136705747D01*
X121075802Y-136609897D01*
X120851247Y-136536934D01*
X120851248Y-136536934D01*
X120618052Y-136500000D01*
X120381948Y-136500000D01*
X120148752Y-136536934D01*
X119924194Y-136609898D01*
X119736078Y-136705747D01*
X119736077Y-136705747D01*
X116500000Y-136705747D01*
X116500000Y-131794250D01*
X119736078Y-131794250D01*
X119924197Y-131890102D01*
X120148752Y-131963065D01*
X120148751Y-131963065D01*
X120381948Y-132000000D01*
X120618052Y-132000000D01*
X120851247Y-131963065D01*
X121075802Y-131890102D01*
X121263920Y-131794250D01*
X122736078Y-131794250D01*
X122924197Y-131890102D01*
X123148752Y-131963065D01*
X123148751Y-131963065D01*
X123381948Y-132000000D01*
X123618052Y-132000000D01*
X123851247Y-131963065D01*
X124075802Y-131890102D01*
X124263920Y-131794250D01*
X123500000Y-131030330D01*
X122736078Y-131794250D01*
X121263920Y-131794250D01*
X120500000Y-131030330D01*
X119736078Y-131794250D01*
X116500000Y-131794250D01*
X116500000Y-130381947D01*
X119000000Y-130381947D01*
X119000000Y-130618052D01*
X119036934Y-130851247D01*
X119109897Y-131075802D01*
X119205748Y-131263920D01*
X119969670Y-130500000D01*
X119903844Y-130434174D01*
X120000000Y-130434174D01*
X120000000Y-130565826D01*
X120034075Y-130692993D01*
X120099901Y-130807007D01*
X120192993Y-130900099D01*
X120307007Y-130965925D01*
X120434174Y-131000000D01*
X120565826Y-131000000D01*
X120692993Y-130965925D01*
X120807007Y-130900099D01*
X120900099Y-130807007D01*
X120965925Y-130692993D01*
X121000000Y-130565826D01*
X121000000Y-130499999D01*
X121030330Y-130499999D01*
X121030330Y-130500000D01*
X121794250Y-131263920D01*
X121889514Y-131076956D01*
X121937488Y-131026160D01*
X122005309Y-131009365D01*
X122071444Y-131031902D01*
X122110484Y-131076956D01*
X122205747Y-131263920D01*
X122969670Y-130500000D01*
X122903844Y-130434174D01*
X123000000Y-130434174D01*
X123000000Y-130565826D01*
X123034075Y-130692993D01*
X123099901Y-130807007D01*
X123192993Y-130900099D01*
X123307007Y-130965925D01*
X123434174Y-131000000D01*
X123565826Y-131000000D01*
X123692993Y-130965925D01*
X123807007Y-130900099D01*
X123900099Y-130807007D01*
X123965925Y-130692993D01*
X124000000Y-130565826D01*
X124000000Y-130499999D01*
X124030330Y-130499999D01*
X124030330Y-130500000D01*
X124794250Y-131263920D01*
X124890102Y-131075802D01*
X124963065Y-130851247D01*
X125000000Y-130618052D01*
X125000000Y-130381947D01*
X124963065Y-130148752D01*
X124890102Y-129924197D01*
X124794250Y-129736078D01*
X124030330Y-130499999D01*
X124000000Y-130499999D01*
X124000000Y-130434174D01*
X123965925Y-130307007D01*
X123900099Y-130192993D01*
X123807007Y-130099901D01*
X123692993Y-130034075D01*
X123565826Y-130000000D01*
X123434174Y-130000000D01*
X123307007Y-130034075D01*
X123192993Y-130099901D01*
X123099901Y-130192993D01*
X123034075Y-130307007D01*
X123000000Y-130434174D01*
X122903844Y-130434174D01*
X122205747Y-129736077D01*
X122110484Y-129923043D01*
X122062509Y-129973839D01*
X121994688Y-129990634D01*
X121928553Y-129968097D01*
X121889514Y-129923043D01*
X121794250Y-129736078D01*
X121030330Y-130499999D01*
X121000000Y-130499999D01*
X121000000Y-130434174D01*
X120965925Y-130307007D01*
X120900099Y-130192993D01*
X120807007Y-130099901D01*
X120692993Y-130034075D01*
X120565826Y-130000000D01*
X120434174Y-130000000D01*
X120307007Y-130034075D01*
X120192993Y-130099901D01*
X120099901Y-130192993D01*
X120034075Y-130307007D01*
X120000000Y-130434174D01*
X119903844Y-130434174D01*
X119205747Y-129736077D01*
X119205747Y-129736078D01*
X119109898Y-129924194D01*
X119036934Y-130148752D01*
X119000000Y-130381947D01*
X116500000Y-130381947D01*
X116500000Y-129205747D01*
X119736077Y-129205747D01*
X120500000Y-129969670D01*
X120500001Y-129969670D01*
X121263920Y-129205748D01*
X121263918Y-129205747D01*
X122736077Y-129205747D01*
X123500000Y-129969670D01*
X123500001Y-129969670D01*
X124263920Y-129205748D01*
X124075802Y-129109897D01*
X123851247Y-129036934D01*
X123851248Y-129036934D01*
X123618052Y-129000000D01*
X123381948Y-129000000D01*
X123148752Y-129036934D01*
X122924194Y-129109898D01*
X122736078Y-129205747D01*
X122736077Y-129205747D01*
X121263918Y-129205747D01*
X121075802Y-129109897D01*
X120851247Y-129036934D01*
X120851248Y-129036934D01*
X120618052Y-129000000D01*
X120381948Y-129000000D01*
X120148752Y-129036934D01*
X119924194Y-129109898D01*
X119736078Y-129205747D01*
X119736077Y-129205747D01*
X116500000Y-129205747D01*
X116500000Y-127294250D01*
X117736078Y-127294250D01*
X117924197Y-127390102D01*
X118148752Y-127463065D01*
X118148751Y-127463065D01*
X118381948Y-127500000D01*
X118618052Y-127500000D01*
X118851247Y-127463065D01*
X119075802Y-127390102D01*
X119263920Y-127294250D01*
X125236078Y-127294250D01*
X125424197Y-127390102D01*
X125648752Y-127463065D01*
X125648751Y-127463065D01*
X125881948Y-127500000D01*
X126118052Y-127500000D01*
X126351247Y-127463065D01*
X126575802Y-127390102D01*
X126763920Y-127294250D01*
X126000000Y-126530330D01*
X125236078Y-127294250D01*
X119263920Y-127294250D01*
X118500000Y-126530330D01*
X117736078Y-127294250D01*
X116500000Y-127294250D01*
X116500000Y-125881947D01*
X117000000Y-125881947D01*
X117000000Y-126118052D01*
X117036934Y-126351247D01*
X117109897Y-126575802D01*
X117205748Y-126763920D01*
X117969670Y-126000000D01*
X117903844Y-125934174D01*
X118000000Y-125934174D01*
X118000000Y-126065826D01*
X118034075Y-126192993D01*
X118099901Y-126307007D01*
X118192993Y-126400099D01*
X118307007Y-126465925D01*
X118434174Y-126500000D01*
X118565826Y-126500000D01*
X118692993Y-126465925D01*
X118807007Y-126400099D01*
X118900099Y-126307007D01*
X118965925Y-126192993D01*
X119000000Y-126065826D01*
X119000000Y-125999999D01*
X119030330Y-125999999D01*
X119030330Y-126000000D01*
X119794250Y-126763920D01*
X119890102Y-126575802D01*
X119963065Y-126351247D01*
X120000000Y-126118052D01*
X120000000Y-125881947D01*
X124500000Y-125881947D01*
X124500000Y-126118052D01*
X124536934Y-126351247D01*
X124609897Y-126575802D01*
X124705748Y-126763920D01*
X125469670Y-126000000D01*
X125403844Y-125934174D01*
X125500000Y-125934174D01*
X125500000Y-126065826D01*
X125534075Y-126192993D01*
X125599901Y-126307007D01*
X125692993Y-126400099D01*
X125807007Y-126465925D01*
X125934174Y-126500000D01*
X126065826Y-126500000D01*
X126192993Y-126465925D01*
X126307007Y-126400099D01*
X126400099Y-126307007D01*
X126465925Y-126192993D01*
X126500000Y-126065826D01*
X126500000Y-125934174D01*
X126465925Y-125807007D01*
X126400099Y-125692993D01*
X126307007Y-125599901D01*
X126192993Y-125534075D01*
X126065826Y-125500000D01*
X125934174Y-125500000D01*
X125807007Y-125534075D01*
X125692993Y-125599901D01*
X125599901Y-125692993D01*
X125534075Y-125807007D01*
X125500000Y-125934174D01*
X125403844Y-125934174D01*
X124705747Y-125236077D01*
X124705747Y-125236078D01*
X124609898Y-125424194D01*
X124536934Y-125648752D01*
X124500000Y-125881947D01*
X120000000Y-125881947D01*
X119963065Y-125648752D01*
X119890102Y-125424197D01*
X119794250Y-125236078D01*
X119030330Y-125999999D01*
X119000000Y-125999999D01*
X119000000Y-125934174D01*
X118965925Y-125807007D01*
X118900099Y-125692993D01*
X118807007Y-125599901D01*
X118692993Y-125534075D01*
X118565826Y-125500000D01*
X118434174Y-125500000D01*
X118307007Y-125534075D01*
X118192993Y-125599901D01*
X118099901Y-125692993D01*
X118034075Y-125807007D01*
X118000000Y-125934174D01*
X117903844Y-125934174D01*
X117205747Y-125236077D01*
X117205747Y-125236078D01*
X117109898Y-125424194D01*
X117036934Y-125648752D01*
X117000000Y-125881947D01*
X116500000Y-125881947D01*
X116500000Y-124705747D01*
X117736077Y-124705747D01*
X118500000Y-125469670D01*
X118500001Y-125469670D01*
X119263920Y-124705748D01*
X119263918Y-124705747D01*
X125236077Y-124705747D01*
X126000000Y-125469670D01*
X126000001Y-125469670D01*
X126763920Y-124705748D01*
X126575802Y-124609897D01*
X126351247Y-124536934D01*
X126351248Y-124536934D01*
X126118052Y-124500000D01*
X125881948Y-124500000D01*
X125648752Y-124536934D01*
X125424194Y-124609898D01*
X125236078Y-124705747D01*
X125236077Y-124705747D01*
X119263918Y-124705747D01*
X119075802Y-124609897D01*
X118851247Y-124536934D01*
X118851248Y-124536934D01*
X118618052Y-124500000D01*
X118381948Y-124500000D01*
X118148752Y-124536934D01*
X117924194Y-124609898D01*
X117736078Y-124705747D01*
X117736077Y-124705747D01*
X116500000Y-124705747D01*
X116500000Y-124124000D01*
X116519685Y-124056961D01*
X116572489Y-124011206D01*
X116624000Y-124000000D01*
X127376000Y-124000000D01*
X127443039Y-124019685D01*
G37*
%TD.AperFunction*%
%TD*%
%TA.AperFunction,Conductor*%
%TO.N,Net-(J12-Pin_1)*%
G36*
X97943039Y-127019685D02*
G01*
X97988794Y-127072489D01*
X98000000Y-127124000D01*
X98000000Y-143876000D01*
X97980315Y-143943039D01*
X97927511Y-143988794D01*
X97876000Y-144000000D01*
X87624000Y-144000000D01*
X87556961Y-143980315D01*
X87511206Y-143927511D01*
X87500000Y-143876000D01*
X87500000Y-139881947D01*
X93500000Y-139881947D01*
X93500000Y-140118052D01*
X93536934Y-140351247D01*
X93609897Y-140575802D01*
X93705748Y-140763920D01*
X94359232Y-140110436D01*
X94374979Y-140189598D01*
X94423978Y-140307890D01*
X94495112Y-140414351D01*
X94585649Y-140504888D01*
X94692110Y-140576022D01*
X94810402Y-140625021D01*
X94889562Y-140640766D01*
X94236078Y-141294250D01*
X94424197Y-141390102D01*
X94648752Y-141463065D01*
X94648751Y-141463065D01*
X94881948Y-141500000D01*
X95118052Y-141500000D01*
X95351247Y-141463065D01*
X95575802Y-141390102D01*
X95763920Y-141294250D01*
X95110436Y-140640766D01*
X95189598Y-140625021D01*
X95307890Y-140576022D01*
X95414351Y-140504888D01*
X95504888Y-140414351D01*
X95576022Y-140307890D01*
X95625021Y-140189598D01*
X95640766Y-140110436D01*
X96294250Y-140763920D01*
X96390102Y-140575802D01*
X96463065Y-140351247D01*
X96500000Y-140118052D01*
X96500000Y-139881947D01*
X96463065Y-139648752D01*
X96390102Y-139424197D01*
X96294250Y-139236078D01*
X95640766Y-139889562D01*
X95625021Y-139810402D01*
X95576022Y-139692110D01*
X95504888Y-139585649D01*
X95414351Y-139495112D01*
X95307890Y-139423978D01*
X95189598Y-139374979D01*
X95110437Y-139359233D01*
X95763920Y-138705748D01*
X95575802Y-138609897D01*
X95351247Y-138536934D01*
X95351248Y-138536934D01*
X95118052Y-138500000D01*
X94881948Y-138500000D01*
X94648752Y-138536934D01*
X94424194Y-138609898D01*
X94236078Y-138705747D01*
X94236077Y-138705747D01*
X94889563Y-139359233D01*
X94810402Y-139374979D01*
X94692110Y-139423978D01*
X94585649Y-139495112D01*
X94495112Y-139585649D01*
X94423978Y-139692110D01*
X94374979Y-139810402D01*
X94359233Y-139889563D01*
X93705747Y-139236077D01*
X93705747Y-139236078D01*
X93609898Y-139424194D01*
X93536934Y-139648752D01*
X93500000Y-139881947D01*
X87500000Y-139881947D01*
X87500000Y-139294250D01*
X88736078Y-139294250D01*
X88924197Y-139390102D01*
X89148752Y-139463065D01*
X89148751Y-139463065D01*
X89381948Y-139500000D01*
X89618052Y-139500000D01*
X89851247Y-139463065D01*
X90075802Y-139390102D01*
X90263920Y-139294250D01*
X89500000Y-138530330D01*
X88736078Y-139294250D01*
X87500000Y-139294250D01*
X87500000Y-137881947D01*
X88000000Y-137881947D01*
X88000000Y-138118052D01*
X88036934Y-138351247D01*
X88109897Y-138575802D01*
X88205748Y-138763920D01*
X88969670Y-138000000D01*
X88903844Y-137934174D01*
X89000000Y-137934174D01*
X89000000Y-138065826D01*
X89034075Y-138192993D01*
X89099901Y-138307007D01*
X89192993Y-138400099D01*
X89307007Y-138465925D01*
X89434174Y-138500000D01*
X89565826Y-138500000D01*
X89692993Y-138465925D01*
X89807007Y-138400099D01*
X89900099Y-138307007D01*
X89965925Y-138192993D01*
X90000000Y-138065826D01*
X90000000Y-137999999D01*
X90030330Y-137999999D01*
X90030330Y-138000000D01*
X90794250Y-138763920D01*
X90830663Y-138692458D01*
X90830665Y-138692455D01*
X90890100Y-138575808D01*
X90890101Y-138575806D01*
X90963065Y-138351247D01*
X91000000Y-138118052D01*
X91000000Y-137881947D01*
X90963065Y-137648752D01*
X90890102Y-137424197D01*
X90794250Y-137236078D01*
X90030330Y-137999999D01*
X90000000Y-137999999D01*
X90000000Y-137934174D01*
X89965925Y-137807007D01*
X89900099Y-137692993D01*
X89807007Y-137599901D01*
X89692993Y-137534075D01*
X89565826Y-137500000D01*
X89434174Y-137500000D01*
X89307007Y-137534075D01*
X89192993Y-137599901D01*
X89099901Y-137692993D01*
X89034075Y-137807007D01*
X89000000Y-137934174D01*
X88903844Y-137934174D01*
X88205747Y-137236077D01*
X88205747Y-137236078D01*
X88109898Y-137424194D01*
X88036934Y-137648752D01*
X88000000Y-137881947D01*
X87500000Y-137881947D01*
X87500000Y-136705747D01*
X88736077Y-136705747D01*
X89500000Y-137469670D01*
X89500001Y-137469670D01*
X90263920Y-136705748D01*
X90075802Y-136609897D01*
X89851247Y-136536934D01*
X89851248Y-136536934D01*
X89618052Y-136500000D01*
X89381948Y-136500000D01*
X89148752Y-136536934D01*
X88924194Y-136609898D01*
X88736078Y-136705747D01*
X88736077Y-136705747D01*
X87500000Y-136705747D01*
X87500000Y-131794250D01*
X88736078Y-131794250D01*
X88924197Y-131890102D01*
X89148752Y-131963065D01*
X89148751Y-131963065D01*
X89381948Y-132000000D01*
X89618052Y-132000000D01*
X89851247Y-131963065D01*
X90075802Y-131890102D01*
X90263920Y-131794250D01*
X90151618Y-131681948D01*
X93500000Y-131681948D01*
X93500000Y-131918053D01*
X93536934Y-132151248D01*
X93609897Y-132375803D01*
X93705748Y-132563921D01*
X94359232Y-131910437D01*
X94374979Y-131989599D01*
X94423978Y-132107891D01*
X94495112Y-132214352D01*
X94585649Y-132304889D01*
X94692110Y-132376023D01*
X94810402Y-132425022D01*
X94889562Y-132440767D01*
X94236078Y-133094251D01*
X94424197Y-133190103D01*
X94648752Y-133263066D01*
X94648751Y-133263066D01*
X94881948Y-133300001D01*
X95118052Y-133300001D01*
X95351247Y-133263066D01*
X95575802Y-133190103D01*
X95763920Y-133094251D01*
X95110436Y-132440767D01*
X95189598Y-132425022D01*
X95307890Y-132376023D01*
X95414351Y-132304889D01*
X95504888Y-132214352D01*
X95576022Y-132107891D01*
X95625021Y-131989599D01*
X95640766Y-131910437D01*
X96294250Y-132563921D01*
X96390102Y-132375803D01*
X96463065Y-132151248D01*
X96500000Y-131918053D01*
X96500000Y-131681948D01*
X96463065Y-131448753D01*
X96390102Y-131224198D01*
X96294250Y-131036079D01*
X95640766Y-131689563D01*
X95625021Y-131610403D01*
X95576022Y-131492111D01*
X95504888Y-131385650D01*
X95414351Y-131295113D01*
X95307890Y-131223979D01*
X95189598Y-131174980D01*
X95110437Y-131159234D01*
X95763920Y-130505749D01*
X95575802Y-130409898D01*
X95351247Y-130336935D01*
X95351248Y-130336935D01*
X95118052Y-130300001D01*
X94881948Y-130300001D01*
X94648752Y-130336935D01*
X94424194Y-130409899D01*
X94236078Y-130505748D01*
X94236077Y-130505748D01*
X94889563Y-131159234D01*
X94810402Y-131174980D01*
X94692110Y-131223979D01*
X94585649Y-131295113D01*
X94495112Y-131385650D01*
X94423978Y-131492111D01*
X94374979Y-131610403D01*
X94359233Y-131689564D01*
X93705747Y-131036078D01*
X93705747Y-131036079D01*
X93609898Y-131224195D01*
X93536934Y-131448753D01*
X93500000Y-131681948D01*
X90151618Y-131681948D01*
X89500000Y-131030330D01*
X88736078Y-131794250D01*
X87500000Y-131794250D01*
X87500000Y-130381947D01*
X88000000Y-130381947D01*
X88000000Y-130618052D01*
X88036934Y-130851247D01*
X88109897Y-131075802D01*
X88205748Y-131263920D01*
X88969670Y-130500000D01*
X88903844Y-130434174D01*
X89000000Y-130434174D01*
X89000000Y-130565826D01*
X89034075Y-130692993D01*
X89099901Y-130807007D01*
X89192993Y-130900099D01*
X89307007Y-130965925D01*
X89434174Y-131000000D01*
X89565826Y-131000000D01*
X89692993Y-130965925D01*
X89807007Y-130900099D01*
X89900099Y-130807007D01*
X89965925Y-130692993D01*
X90000000Y-130565826D01*
X90000000Y-130499999D01*
X90030330Y-130499999D01*
X90030330Y-130500000D01*
X90794250Y-131263920D01*
X90890102Y-131075802D01*
X90963065Y-130851247D01*
X91000000Y-130618052D01*
X91000000Y-130381947D01*
X90963065Y-130148752D01*
X90890102Y-129924197D01*
X90794250Y-129736078D01*
X90030330Y-130499999D01*
X90000000Y-130499999D01*
X90000000Y-130434174D01*
X89965925Y-130307007D01*
X89900099Y-130192993D01*
X89807007Y-130099901D01*
X89692993Y-130034075D01*
X89565826Y-130000000D01*
X89434174Y-130000000D01*
X89307007Y-130034075D01*
X89192993Y-130099901D01*
X89099901Y-130192993D01*
X89034075Y-130307007D01*
X89000000Y-130434174D01*
X88903844Y-130434174D01*
X88205747Y-129736077D01*
X88205747Y-129736078D01*
X88109898Y-129924194D01*
X88036934Y-130148752D01*
X88000000Y-130381947D01*
X87500000Y-130381947D01*
X87500000Y-129205747D01*
X88736077Y-129205747D01*
X89500000Y-129969670D01*
X89500001Y-129969670D01*
X90263920Y-129205748D01*
X90075802Y-129109897D01*
X89851247Y-129036934D01*
X89851248Y-129036934D01*
X89618052Y-129000000D01*
X89381948Y-129000000D01*
X89148752Y-129036934D01*
X88924194Y-129109898D01*
X88736078Y-129205747D01*
X88736077Y-129205747D01*
X87500000Y-129205747D01*
X87500000Y-127124000D01*
X87519685Y-127056961D01*
X87572489Y-127011206D01*
X87624000Y-127000000D01*
X97876000Y-127000000D01*
X97943039Y-127019685D01*
G37*
%TD.AperFunction*%
%TD*%
%TA.AperFunction,Conductor*%
%TO.N,Net-(C15-Pad2)*%
G36*
X82943039Y-124019685D02*
G01*
X82988794Y-124072489D01*
X83000000Y-124124000D01*
X83000000Y-143876000D01*
X82980315Y-143943039D01*
X82927511Y-143988794D01*
X82876000Y-144000000D01*
X72124000Y-144000000D01*
X72056961Y-143980315D01*
X72011206Y-143927511D01*
X72000000Y-143876000D01*
X72000000Y-139294250D01*
X75736078Y-139294250D01*
X75924197Y-139390102D01*
X76148752Y-139463065D01*
X76148751Y-139463065D01*
X76381948Y-139500000D01*
X76618052Y-139500000D01*
X76851247Y-139463065D01*
X77075802Y-139390102D01*
X77263920Y-139294250D01*
X78736078Y-139294250D01*
X78924197Y-139390102D01*
X79148752Y-139463065D01*
X79148751Y-139463065D01*
X79381948Y-139500000D01*
X79618052Y-139500000D01*
X79851247Y-139463065D01*
X80075802Y-139390102D01*
X80263920Y-139294250D01*
X79500000Y-138530330D01*
X78736078Y-139294250D01*
X77263920Y-139294250D01*
X76500000Y-138530330D01*
X75736078Y-139294250D01*
X72000000Y-139294250D01*
X72000000Y-137881947D01*
X75000000Y-137881947D01*
X75000000Y-138118052D01*
X75036934Y-138351247D01*
X75109897Y-138575802D01*
X75205748Y-138763920D01*
X75969670Y-138000000D01*
X75903844Y-137934174D01*
X76000000Y-137934174D01*
X76000000Y-138065826D01*
X76034075Y-138192993D01*
X76099901Y-138307007D01*
X76192993Y-138400099D01*
X76307007Y-138465925D01*
X76434174Y-138500000D01*
X76565826Y-138500000D01*
X76692993Y-138465925D01*
X76807007Y-138400099D01*
X76900099Y-138307007D01*
X76965925Y-138192993D01*
X77000000Y-138065826D01*
X77000000Y-137999999D01*
X77030330Y-137999999D01*
X77030330Y-138000000D01*
X77794250Y-138763920D01*
X77889514Y-138576956D01*
X77937488Y-138526160D01*
X78005309Y-138509365D01*
X78071444Y-138531902D01*
X78110484Y-138576956D01*
X78205747Y-138763920D01*
X78969670Y-138000000D01*
X78903844Y-137934174D01*
X79000000Y-137934174D01*
X79000000Y-138065826D01*
X79034075Y-138192993D01*
X79099901Y-138307007D01*
X79192993Y-138400099D01*
X79307007Y-138465925D01*
X79434174Y-138500000D01*
X79565826Y-138500000D01*
X79692993Y-138465925D01*
X79807007Y-138400099D01*
X79900099Y-138307007D01*
X79965925Y-138192993D01*
X80000000Y-138065826D01*
X80000000Y-137999999D01*
X80030330Y-137999999D01*
X80030330Y-138000000D01*
X80794250Y-138763920D01*
X80890102Y-138575802D01*
X80963065Y-138351247D01*
X81000000Y-138118052D01*
X81000000Y-137881947D01*
X80963065Y-137648752D01*
X80890102Y-137424197D01*
X80794250Y-137236078D01*
X80030330Y-137999999D01*
X80000000Y-137999999D01*
X80000000Y-137934174D01*
X79965925Y-137807007D01*
X79900099Y-137692993D01*
X79807007Y-137599901D01*
X79692993Y-137534075D01*
X79565826Y-137500000D01*
X79434174Y-137500000D01*
X79307007Y-137534075D01*
X79192993Y-137599901D01*
X79099901Y-137692993D01*
X79034075Y-137807007D01*
X79000000Y-137934174D01*
X78903844Y-137934174D01*
X78205747Y-137236077D01*
X78110484Y-137423043D01*
X78062509Y-137473839D01*
X77994688Y-137490634D01*
X77928553Y-137468097D01*
X77889514Y-137423043D01*
X77794250Y-137236078D01*
X77030330Y-137999999D01*
X77000000Y-137999999D01*
X77000000Y-137934174D01*
X76965925Y-137807007D01*
X76900099Y-137692993D01*
X76807007Y-137599901D01*
X76692993Y-137534075D01*
X76565826Y-137500000D01*
X76434174Y-137500000D01*
X76307007Y-137534075D01*
X76192993Y-137599901D01*
X76099901Y-137692993D01*
X76034075Y-137807007D01*
X76000000Y-137934174D01*
X75903844Y-137934174D01*
X75205747Y-137236077D01*
X75205747Y-137236078D01*
X75109898Y-137424194D01*
X75036934Y-137648752D01*
X75000000Y-137881947D01*
X72000000Y-137881947D01*
X72000000Y-136705747D01*
X75736077Y-136705747D01*
X76500000Y-137469670D01*
X76500001Y-137469670D01*
X77263920Y-136705748D01*
X77263918Y-136705747D01*
X78736077Y-136705747D01*
X79500000Y-137469670D01*
X79500001Y-137469670D01*
X80263920Y-136705748D01*
X80075802Y-136609897D01*
X79851247Y-136536934D01*
X79851248Y-136536934D01*
X79618052Y-136500000D01*
X79381948Y-136500000D01*
X79148752Y-136536934D01*
X78924194Y-136609898D01*
X78736078Y-136705747D01*
X78736077Y-136705747D01*
X77263918Y-136705747D01*
X77075802Y-136609897D01*
X76851247Y-136536934D01*
X76851248Y-136536934D01*
X76618052Y-136500000D01*
X76381948Y-136500000D01*
X76148752Y-136536934D01*
X75924194Y-136609898D01*
X75736078Y-136705747D01*
X75736077Y-136705747D01*
X72000000Y-136705747D01*
X72000000Y-131794250D01*
X75736078Y-131794250D01*
X75924197Y-131890102D01*
X76148752Y-131963065D01*
X76148751Y-131963065D01*
X76381948Y-132000000D01*
X76618052Y-132000000D01*
X76851247Y-131963065D01*
X77075802Y-131890102D01*
X77263920Y-131794250D01*
X78736078Y-131794250D01*
X78924197Y-131890102D01*
X79148752Y-131963065D01*
X79148751Y-131963065D01*
X79381948Y-132000000D01*
X79618052Y-132000000D01*
X79851247Y-131963065D01*
X80075802Y-131890102D01*
X80263920Y-131794250D01*
X79500000Y-131030330D01*
X78736078Y-131794250D01*
X77263920Y-131794250D01*
X76500000Y-131030330D01*
X75736078Y-131794250D01*
X72000000Y-131794250D01*
X72000000Y-130381947D01*
X75000000Y-130381947D01*
X75000000Y-130618052D01*
X75036934Y-130851247D01*
X75109897Y-131075802D01*
X75205748Y-131263920D01*
X75969670Y-130500000D01*
X75903844Y-130434174D01*
X76000000Y-130434174D01*
X76000000Y-130565826D01*
X76034075Y-130692993D01*
X76099901Y-130807007D01*
X76192993Y-130900099D01*
X76307007Y-130965925D01*
X76434174Y-131000000D01*
X76565826Y-131000000D01*
X76692993Y-130965925D01*
X76807007Y-130900099D01*
X76900099Y-130807007D01*
X76965925Y-130692993D01*
X77000000Y-130565826D01*
X77000000Y-130499999D01*
X77030330Y-130499999D01*
X77030330Y-130500000D01*
X77794250Y-131263920D01*
X77889514Y-131076956D01*
X77937488Y-131026160D01*
X78005309Y-131009365D01*
X78071444Y-131031902D01*
X78110484Y-131076956D01*
X78205747Y-131263920D01*
X78969670Y-130500000D01*
X78903844Y-130434174D01*
X79000000Y-130434174D01*
X79000000Y-130565826D01*
X79034075Y-130692993D01*
X79099901Y-130807007D01*
X79192993Y-130900099D01*
X79307007Y-130965925D01*
X79434174Y-131000000D01*
X79565826Y-131000000D01*
X79692993Y-130965925D01*
X79807007Y-130900099D01*
X79900099Y-130807007D01*
X79965925Y-130692993D01*
X80000000Y-130565826D01*
X80000000Y-130499999D01*
X80030330Y-130499999D01*
X80030330Y-130500000D01*
X80794250Y-131263920D01*
X80890102Y-131075802D01*
X80963065Y-130851247D01*
X81000000Y-130618052D01*
X81000000Y-130381947D01*
X80963065Y-130148752D01*
X80890102Y-129924197D01*
X80794250Y-129736078D01*
X80030330Y-130499999D01*
X80000000Y-130499999D01*
X80000000Y-130434174D01*
X79965925Y-130307007D01*
X79900099Y-130192993D01*
X79807007Y-130099901D01*
X79692993Y-130034075D01*
X79565826Y-130000000D01*
X79434174Y-130000000D01*
X79307007Y-130034075D01*
X79192993Y-130099901D01*
X79099901Y-130192993D01*
X79034075Y-130307007D01*
X79000000Y-130434174D01*
X78903844Y-130434174D01*
X78205747Y-129736077D01*
X78110484Y-129923043D01*
X78062509Y-129973839D01*
X77994688Y-129990634D01*
X77928553Y-129968097D01*
X77889514Y-129923043D01*
X77794250Y-129736078D01*
X77030330Y-130499999D01*
X77000000Y-130499999D01*
X77000000Y-130434174D01*
X76965925Y-130307007D01*
X76900099Y-130192993D01*
X76807007Y-130099901D01*
X76692993Y-130034075D01*
X76565826Y-130000000D01*
X76434174Y-130000000D01*
X76307007Y-130034075D01*
X76192993Y-130099901D01*
X76099901Y-130192993D01*
X76034075Y-130307007D01*
X76000000Y-130434174D01*
X75903844Y-130434174D01*
X75205747Y-129736077D01*
X75205747Y-129736078D01*
X75109898Y-129924194D01*
X75036934Y-130148752D01*
X75000000Y-130381947D01*
X72000000Y-130381947D01*
X72000000Y-129205747D01*
X75736077Y-129205747D01*
X76500000Y-129969670D01*
X76500001Y-129969670D01*
X77263920Y-129205748D01*
X77263918Y-129205747D01*
X78736077Y-129205747D01*
X79500000Y-129969670D01*
X79500001Y-129969670D01*
X80263920Y-129205748D01*
X80075802Y-129109897D01*
X79851247Y-129036934D01*
X79851248Y-129036934D01*
X79618052Y-129000000D01*
X79381948Y-129000000D01*
X79148752Y-129036934D01*
X78924194Y-129109898D01*
X78736078Y-129205747D01*
X78736077Y-129205747D01*
X77263918Y-129205747D01*
X77075802Y-129109897D01*
X76851247Y-129036934D01*
X76851248Y-129036934D01*
X76618052Y-129000000D01*
X76381948Y-129000000D01*
X76148752Y-129036934D01*
X75924194Y-129109898D01*
X75736078Y-129205747D01*
X75736077Y-129205747D01*
X72000000Y-129205747D01*
X72000000Y-127294250D01*
X72736078Y-127294250D01*
X72924197Y-127390102D01*
X73148752Y-127463065D01*
X73148751Y-127463065D01*
X73381948Y-127500000D01*
X73618052Y-127500000D01*
X73851247Y-127463065D01*
X74075802Y-127390102D01*
X74263920Y-127294250D01*
X80236078Y-127294250D01*
X80424197Y-127390102D01*
X80648752Y-127463065D01*
X80648751Y-127463065D01*
X80881948Y-127500000D01*
X81118052Y-127500000D01*
X81351247Y-127463065D01*
X81575802Y-127390102D01*
X81763920Y-127294250D01*
X81000000Y-126530330D01*
X80236078Y-127294250D01*
X74263920Y-127294250D01*
X73500000Y-126530330D01*
X72736078Y-127294250D01*
X72000000Y-127294250D01*
X72000000Y-126876519D01*
X72019685Y-126809480D01*
X72072489Y-126763725D01*
X72141647Y-126753781D01*
X72143398Y-126754046D01*
X72205747Y-126763921D01*
X72969670Y-126000000D01*
X72903844Y-125934174D01*
X73000000Y-125934174D01*
X73000000Y-126065826D01*
X73034075Y-126192993D01*
X73099901Y-126307007D01*
X73192993Y-126400099D01*
X73307007Y-126465925D01*
X73434174Y-126500000D01*
X73565826Y-126500000D01*
X73692993Y-126465925D01*
X73807007Y-126400099D01*
X73900099Y-126307007D01*
X73965925Y-126192993D01*
X74000000Y-126065826D01*
X74000000Y-125999999D01*
X74030330Y-125999999D01*
X74030330Y-126000000D01*
X74794250Y-126763920D01*
X74890102Y-126575802D01*
X74963065Y-126351247D01*
X75000000Y-126118052D01*
X75000000Y-125881947D01*
X79500000Y-125881947D01*
X79500000Y-126118052D01*
X79536934Y-126351247D01*
X79609897Y-126575802D01*
X79705748Y-126763920D01*
X80469670Y-126000000D01*
X80403844Y-125934174D01*
X80500000Y-125934174D01*
X80500000Y-126065826D01*
X80534075Y-126192993D01*
X80599901Y-126307007D01*
X80692993Y-126400099D01*
X80807007Y-126465925D01*
X80934174Y-126500000D01*
X81065826Y-126500000D01*
X81192993Y-126465925D01*
X81307007Y-126400099D01*
X81400099Y-126307007D01*
X81465925Y-126192993D01*
X81500000Y-126065826D01*
X81500000Y-125999999D01*
X81530330Y-125999999D01*
X81530330Y-126000000D01*
X82294250Y-126763920D01*
X82390102Y-126575802D01*
X82463065Y-126351247D01*
X82500000Y-126118052D01*
X82500000Y-125881947D01*
X82463065Y-125648752D01*
X82390102Y-125424197D01*
X82294250Y-125236078D01*
X81530330Y-125999999D01*
X81500000Y-125999999D01*
X81500000Y-125934174D01*
X81465925Y-125807007D01*
X81400099Y-125692993D01*
X81307007Y-125599901D01*
X81192993Y-125534075D01*
X81065826Y-125500000D01*
X80934174Y-125500000D01*
X80807007Y-125534075D01*
X80692993Y-125599901D01*
X80599901Y-125692993D01*
X80534075Y-125807007D01*
X80500000Y-125934174D01*
X80403844Y-125934174D01*
X79705747Y-125236077D01*
X79705747Y-125236078D01*
X79609898Y-125424194D01*
X79536934Y-125648752D01*
X79500000Y-125881947D01*
X75000000Y-125881947D01*
X74963065Y-125648752D01*
X74890102Y-125424197D01*
X74794250Y-125236078D01*
X74030330Y-125999999D01*
X74000000Y-125999999D01*
X74000000Y-125934174D01*
X73965925Y-125807007D01*
X73900099Y-125692993D01*
X73807007Y-125599901D01*
X73692993Y-125534075D01*
X73565826Y-125500000D01*
X73434174Y-125500000D01*
X73307007Y-125534075D01*
X73192993Y-125599901D01*
X73099901Y-125692993D01*
X73034075Y-125807007D01*
X73000000Y-125934174D01*
X72903844Y-125934174D01*
X72205747Y-125236077D01*
X72143398Y-125245953D01*
X72074104Y-125236998D01*
X72020653Y-125192002D01*
X72000013Y-125125251D01*
X72000000Y-125123480D01*
X72000000Y-124705747D01*
X72736077Y-124705747D01*
X73500000Y-125469670D01*
X73500001Y-125469670D01*
X74263920Y-124705748D01*
X74263918Y-124705747D01*
X80236077Y-124705747D01*
X81000000Y-125469670D01*
X81000001Y-125469670D01*
X81763920Y-124705748D01*
X81575802Y-124609897D01*
X81351247Y-124536934D01*
X81351248Y-124536934D01*
X81118052Y-124500000D01*
X80881948Y-124500000D01*
X80648752Y-124536934D01*
X80424194Y-124609898D01*
X80236078Y-124705747D01*
X80236077Y-124705747D01*
X74263918Y-124705747D01*
X74075802Y-124609897D01*
X73851247Y-124536934D01*
X73851248Y-124536934D01*
X73618052Y-124500000D01*
X73381948Y-124500000D01*
X73148752Y-124536934D01*
X72924194Y-124609898D01*
X72736078Y-124705747D01*
X72736077Y-124705747D01*
X72000000Y-124705747D01*
X72000000Y-124124000D01*
X72019685Y-124056961D01*
X72072489Y-124011206D01*
X72124000Y-124000000D01*
X82876000Y-124000000D01*
X82943039Y-124019685D01*
G37*
%TD.AperFunction*%
%TD*%
M02*
