%TF.GenerationSoftware,KiCad,Pcbnew,9.0.0*%
%TF.CreationDate,2025-05-27T01:04:57-04:00*%
%TF.ProjectId,PlasmaTransformer-DualFET,506c6173-6d61-4547-9261-6e73666f726d,rev?*%
%TF.SameCoordinates,Original*%
%TF.FileFunction,Legend,Top*%
%TF.FilePolarity,Positive*%
%FSLAX46Y46*%
G04 Gerber Fmt 4.6, Leading zero omitted, Abs format (unit mm)*
G04 Created by KiCad (PCBNEW 9.0.0) date 2025-05-27 01:04:57*
%MOMM*%
%LPD*%
G01*
G04 APERTURE LIST*
%ADD10C,0.300000*%
%ADD11C,0.200000*%
%ADD12C,0.250000*%
%ADD13C,0.150000*%
%ADD14C,0.100000*%
%ADD15C,0.120000*%
%ADD16C,0.152400*%
%ADD17C,0.508000*%
G04 APERTURE END LIST*
D10*
X94595237Y-120799862D02*
X94595237Y-118799862D01*
X94595237Y-118799862D02*
X95357142Y-118799862D01*
X95357142Y-118799862D02*
X95547618Y-118895100D01*
X95547618Y-118895100D02*
X95642856Y-118990338D01*
X95642856Y-118990338D02*
X95738094Y-119180814D01*
X95738094Y-119180814D02*
X95738094Y-119466528D01*
X95738094Y-119466528D02*
X95642856Y-119657004D01*
X95642856Y-119657004D02*
X95547618Y-119752243D01*
X95547618Y-119752243D02*
X95357142Y-119847481D01*
X95357142Y-119847481D02*
X94595237Y-119847481D01*
X97547618Y-120799862D02*
X96595237Y-120799862D01*
X96595237Y-120799862D02*
X96595237Y-118799862D01*
X98119047Y-120228433D02*
X99071428Y-120228433D01*
X97928571Y-120799862D02*
X98595237Y-118799862D01*
X98595237Y-118799862D02*
X99261904Y-120799862D01*
X99833333Y-120704624D02*
X100119047Y-120799862D01*
X100119047Y-120799862D02*
X100595238Y-120799862D01*
X100595238Y-120799862D02*
X100785714Y-120704624D01*
X100785714Y-120704624D02*
X100880952Y-120609385D01*
X100880952Y-120609385D02*
X100976190Y-120418909D01*
X100976190Y-120418909D02*
X100976190Y-120228433D01*
X100976190Y-120228433D02*
X100880952Y-120037957D01*
X100880952Y-120037957D02*
X100785714Y-119942719D01*
X100785714Y-119942719D02*
X100595238Y-119847481D01*
X100595238Y-119847481D02*
X100214285Y-119752243D01*
X100214285Y-119752243D02*
X100023809Y-119657004D01*
X100023809Y-119657004D02*
X99928571Y-119561766D01*
X99928571Y-119561766D02*
X99833333Y-119371290D01*
X99833333Y-119371290D02*
X99833333Y-119180814D01*
X99833333Y-119180814D02*
X99928571Y-118990338D01*
X99928571Y-118990338D02*
X100023809Y-118895100D01*
X100023809Y-118895100D02*
X100214285Y-118799862D01*
X100214285Y-118799862D02*
X100690476Y-118799862D01*
X100690476Y-118799862D02*
X100976190Y-118895100D01*
X101833333Y-120799862D02*
X101833333Y-118799862D01*
X101833333Y-118799862D02*
X102500000Y-120228433D01*
X102500000Y-120228433D02*
X103166666Y-118799862D01*
X103166666Y-118799862D02*
X103166666Y-120799862D01*
X104023809Y-120228433D02*
X104976190Y-120228433D01*
X103833333Y-120799862D02*
X104499999Y-118799862D01*
X104499999Y-118799862D02*
X105166666Y-120799862D01*
X90119047Y-122019750D02*
X91261904Y-122019750D01*
X90690475Y-124019750D02*
X90690475Y-122019750D01*
X93071428Y-124019750D02*
X92404761Y-123067369D01*
X91928571Y-124019750D02*
X91928571Y-122019750D01*
X91928571Y-122019750D02*
X92690476Y-122019750D01*
X92690476Y-122019750D02*
X92880952Y-122114988D01*
X92880952Y-122114988D02*
X92976190Y-122210226D01*
X92976190Y-122210226D02*
X93071428Y-122400702D01*
X93071428Y-122400702D02*
X93071428Y-122686416D01*
X93071428Y-122686416D02*
X92976190Y-122876892D01*
X92976190Y-122876892D02*
X92880952Y-122972131D01*
X92880952Y-122972131D02*
X92690476Y-123067369D01*
X92690476Y-123067369D02*
X91928571Y-123067369D01*
X93833333Y-123448321D02*
X94785714Y-123448321D01*
X93642857Y-124019750D02*
X94309523Y-122019750D01*
X94309523Y-122019750D02*
X94976190Y-124019750D01*
X95642857Y-124019750D02*
X95642857Y-122019750D01*
X95642857Y-122019750D02*
X96785714Y-124019750D01*
X96785714Y-124019750D02*
X96785714Y-122019750D01*
X97642857Y-123924512D02*
X97928571Y-124019750D01*
X97928571Y-124019750D02*
X98404762Y-124019750D01*
X98404762Y-124019750D02*
X98595238Y-123924512D01*
X98595238Y-123924512D02*
X98690476Y-123829273D01*
X98690476Y-123829273D02*
X98785714Y-123638797D01*
X98785714Y-123638797D02*
X98785714Y-123448321D01*
X98785714Y-123448321D02*
X98690476Y-123257845D01*
X98690476Y-123257845D02*
X98595238Y-123162607D01*
X98595238Y-123162607D02*
X98404762Y-123067369D01*
X98404762Y-123067369D02*
X98023809Y-122972131D01*
X98023809Y-122972131D02*
X97833333Y-122876892D01*
X97833333Y-122876892D02*
X97738095Y-122781654D01*
X97738095Y-122781654D02*
X97642857Y-122591178D01*
X97642857Y-122591178D02*
X97642857Y-122400702D01*
X97642857Y-122400702D02*
X97738095Y-122210226D01*
X97738095Y-122210226D02*
X97833333Y-122114988D01*
X97833333Y-122114988D02*
X98023809Y-122019750D01*
X98023809Y-122019750D02*
X98500000Y-122019750D01*
X98500000Y-122019750D02*
X98785714Y-122114988D01*
X100309524Y-122972131D02*
X99642857Y-122972131D01*
X99642857Y-124019750D02*
X99642857Y-122019750D01*
X99642857Y-122019750D02*
X100595238Y-122019750D01*
X101738095Y-122019750D02*
X102119048Y-122019750D01*
X102119048Y-122019750D02*
X102309524Y-122114988D01*
X102309524Y-122114988D02*
X102500000Y-122305464D01*
X102500000Y-122305464D02*
X102595238Y-122686416D01*
X102595238Y-122686416D02*
X102595238Y-123353083D01*
X102595238Y-123353083D02*
X102500000Y-123734035D01*
X102500000Y-123734035D02*
X102309524Y-123924512D01*
X102309524Y-123924512D02*
X102119048Y-124019750D01*
X102119048Y-124019750D02*
X101738095Y-124019750D01*
X101738095Y-124019750D02*
X101547619Y-123924512D01*
X101547619Y-123924512D02*
X101357143Y-123734035D01*
X101357143Y-123734035D02*
X101261905Y-123353083D01*
X101261905Y-123353083D02*
X101261905Y-122686416D01*
X101261905Y-122686416D02*
X101357143Y-122305464D01*
X101357143Y-122305464D02*
X101547619Y-122114988D01*
X101547619Y-122114988D02*
X101738095Y-122019750D01*
X104595238Y-124019750D02*
X103928571Y-123067369D01*
X103452381Y-124019750D02*
X103452381Y-122019750D01*
X103452381Y-122019750D02*
X104214286Y-122019750D01*
X104214286Y-122019750D02*
X104404762Y-122114988D01*
X104404762Y-122114988D02*
X104500000Y-122210226D01*
X104500000Y-122210226D02*
X104595238Y-122400702D01*
X104595238Y-122400702D02*
X104595238Y-122686416D01*
X104595238Y-122686416D02*
X104500000Y-122876892D01*
X104500000Y-122876892D02*
X104404762Y-122972131D01*
X104404762Y-122972131D02*
X104214286Y-123067369D01*
X104214286Y-123067369D02*
X103452381Y-123067369D01*
X105452381Y-124019750D02*
X105452381Y-122019750D01*
X105452381Y-122019750D02*
X106119048Y-123448321D01*
X106119048Y-123448321D02*
X106785714Y-122019750D01*
X106785714Y-122019750D02*
X106785714Y-124019750D01*
X107738095Y-122972131D02*
X108404762Y-122972131D01*
X108690476Y-124019750D02*
X107738095Y-124019750D01*
X107738095Y-124019750D02*
X107738095Y-122019750D01*
X107738095Y-122019750D02*
X108690476Y-122019750D01*
X110690476Y-124019750D02*
X110023809Y-123067369D01*
X109547619Y-124019750D02*
X109547619Y-122019750D01*
X109547619Y-122019750D02*
X110309524Y-122019750D01*
X110309524Y-122019750D02*
X110500000Y-122114988D01*
X110500000Y-122114988D02*
X110595238Y-122210226D01*
X110595238Y-122210226D02*
X110690476Y-122400702D01*
X110690476Y-122400702D02*
X110690476Y-122686416D01*
X110690476Y-122686416D02*
X110595238Y-122876892D01*
X110595238Y-122876892D02*
X110500000Y-122972131D01*
X110500000Y-122972131D02*
X110309524Y-123067369D01*
X110309524Y-123067369D02*
X109547619Y-123067369D01*
X93976189Y-127239638D02*
X93976189Y-125239638D01*
X93976189Y-125239638D02*
X94452379Y-125239638D01*
X94452379Y-125239638D02*
X94738094Y-125334876D01*
X94738094Y-125334876D02*
X94928570Y-125525352D01*
X94928570Y-125525352D02*
X95023808Y-125715828D01*
X95023808Y-125715828D02*
X95119046Y-126096780D01*
X95119046Y-126096780D02*
X95119046Y-126382495D01*
X95119046Y-126382495D02*
X95023808Y-126763447D01*
X95023808Y-126763447D02*
X94928570Y-126953923D01*
X94928570Y-126953923D02*
X94738094Y-127144400D01*
X94738094Y-127144400D02*
X94452379Y-127239638D01*
X94452379Y-127239638D02*
X93976189Y-127239638D01*
X95976189Y-125239638D02*
X95976189Y-126858685D01*
X95976189Y-126858685D02*
X96071427Y-127049161D01*
X96071427Y-127049161D02*
X96166665Y-127144400D01*
X96166665Y-127144400D02*
X96357141Y-127239638D01*
X96357141Y-127239638D02*
X96738094Y-127239638D01*
X96738094Y-127239638D02*
X96928570Y-127144400D01*
X96928570Y-127144400D02*
X97023808Y-127049161D01*
X97023808Y-127049161D02*
X97119046Y-126858685D01*
X97119046Y-126858685D02*
X97119046Y-125239638D01*
X97976189Y-126668209D02*
X98928570Y-126668209D01*
X97785713Y-127239638D02*
X98452379Y-125239638D01*
X98452379Y-125239638D02*
X99119046Y-127239638D01*
X100738094Y-127239638D02*
X99785713Y-127239638D01*
X99785713Y-127239638D02*
X99785713Y-125239638D01*
X103595238Y-126192019D02*
X102928571Y-126192019D01*
X102928571Y-127239638D02*
X102928571Y-125239638D01*
X102928571Y-125239638D02*
X103880952Y-125239638D01*
X104642857Y-126192019D02*
X105309524Y-126192019D01*
X105595238Y-127239638D02*
X104642857Y-127239638D01*
X104642857Y-127239638D02*
X104642857Y-125239638D01*
X104642857Y-125239638D02*
X105595238Y-125239638D01*
X106166667Y-125239638D02*
X107309524Y-125239638D01*
X106738095Y-127239638D02*
X106738095Y-125239638D01*
X74254510Y-105000828D02*
X74254510Y-103500828D01*
X74254510Y-103500828D02*
X74611653Y-103500828D01*
X74611653Y-103500828D02*
X74825939Y-103572257D01*
X74825939Y-103572257D02*
X74968796Y-103715114D01*
X74968796Y-103715114D02*
X75040225Y-103857971D01*
X75040225Y-103857971D02*
X75111653Y-104143685D01*
X75111653Y-104143685D02*
X75111653Y-104357971D01*
X75111653Y-104357971D02*
X75040225Y-104643685D01*
X75040225Y-104643685D02*
X74968796Y-104786542D01*
X74968796Y-104786542D02*
X74825939Y-104929400D01*
X74825939Y-104929400D02*
X74611653Y-105000828D01*
X74611653Y-105000828D02*
X74254510Y-105000828D01*
X76611653Y-105000828D02*
X76111653Y-104286542D01*
X75754510Y-105000828D02*
X75754510Y-103500828D01*
X75754510Y-103500828D02*
X76325939Y-103500828D01*
X76325939Y-103500828D02*
X76468796Y-103572257D01*
X76468796Y-103572257D02*
X76540225Y-103643685D01*
X76540225Y-103643685D02*
X76611653Y-103786542D01*
X76611653Y-103786542D02*
X76611653Y-104000828D01*
X76611653Y-104000828D02*
X76540225Y-104143685D01*
X76540225Y-104143685D02*
X76468796Y-104215114D01*
X76468796Y-104215114D02*
X76325939Y-104286542D01*
X76325939Y-104286542D02*
X75754510Y-104286542D01*
X77183082Y-104572257D02*
X77897368Y-104572257D01*
X77040225Y-105000828D02*
X77540225Y-103500828D01*
X77540225Y-103500828D02*
X78040225Y-105000828D01*
X78540224Y-105000828D02*
X78540224Y-103500828D01*
X79254510Y-105000828D02*
X79254510Y-103500828D01*
X79254510Y-103500828D02*
X80111653Y-105000828D01*
X80111653Y-105000828D02*
X80111653Y-103500828D01*
X80754511Y-103643685D02*
X80825939Y-103572257D01*
X80825939Y-103572257D02*
X80968797Y-103500828D01*
X80968797Y-103500828D02*
X81325939Y-103500828D01*
X81325939Y-103500828D02*
X81468797Y-103572257D01*
X81468797Y-103572257D02*
X81540225Y-103643685D01*
X81540225Y-103643685D02*
X81611654Y-103786542D01*
X81611654Y-103786542D02*
X81611654Y-103929400D01*
X81611654Y-103929400D02*
X81540225Y-104143685D01*
X81540225Y-104143685D02*
X80683082Y-105000828D01*
X80683082Y-105000828D02*
X81611654Y-105000828D01*
X75340225Y-90872257D02*
X75197368Y-90800828D01*
X75197368Y-90800828D02*
X74983082Y-90800828D01*
X74983082Y-90800828D02*
X74768796Y-90872257D01*
X74768796Y-90872257D02*
X74625939Y-91015114D01*
X74625939Y-91015114D02*
X74554510Y-91157971D01*
X74554510Y-91157971D02*
X74483082Y-91443685D01*
X74483082Y-91443685D02*
X74483082Y-91657971D01*
X74483082Y-91657971D02*
X74554510Y-91943685D01*
X74554510Y-91943685D02*
X74625939Y-92086542D01*
X74625939Y-92086542D02*
X74768796Y-92229400D01*
X74768796Y-92229400D02*
X74983082Y-92300828D01*
X74983082Y-92300828D02*
X75125939Y-92300828D01*
X75125939Y-92300828D02*
X75340225Y-92229400D01*
X75340225Y-92229400D02*
X75411653Y-92157971D01*
X75411653Y-92157971D02*
X75411653Y-91657971D01*
X75411653Y-91657971D02*
X75125939Y-91657971D01*
X75983082Y-91872257D02*
X76697368Y-91872257D01*
X75840225Y-92300828D02*
X76340225Y-90800828D01*
X76340225Y-90800828D02*
X76840225Y-92300828D01*
X77125939Y-90800828D02*
X77983082Y-90800828D01*
X77554510Y-92300828D02*
X77554510Y-90800828D01*
X78483081Y-91515114D02*
X78983081Y-91515114D01*
X79197367Y-92300828D02*
X78483081Y-92300828D01*
X78483081Y-92300828D02*
X78483081Y-90800828D01*
X78483081Y-90800828D02*
X79197367Y-90800828D01*
X79768796Y-90943685D02*
X79840224Y-90872257D01*
X79840224Y-90872257D02*
X79983082Y-90800828D01*
X79983082Y-90800828D02*
X80340224Y-90800828D01*
X80340224Y-90800828D02*
X80483082Y-90872257D01*
X80483082Y-90872257D02*
X80554510Y-90943685D01*
X80554510Y-90943685D02*
X80625939Y-91086542D01*
X80625939Y-91086542D02*
X80625939Y-91229400D01*
X80625939Y-91229400D02*
X80554510Y-91443685D01*
X80554510Y-91443685D02*
X79697367Y-92300828D01*
X79697367Y-92300828D02*
X80625939Y-92300828D01*
X119840225Y-91372257D02*
X119697368Y-91300828D01*
X119697368Y-91300828D02*
X119483082Y-91300828D01*
X119483082Y-91300828D02*
X119268796Y-91372257D01*
X119268796Y-91372257D02*
X119125939Y-91515114D01*
X119125939Y-91515114D02*
X119054510Y-91657971D01*
X119054510Y-91657971D02*
X118983082Y-91943685D01*
X118983082Y-91943685D02*
X118983082Y-92157971D01*
X118983082Y-92157971D02*
X119054510Y-92443685D01*
X119054510Y-92443685D02*
X119125939Y-92586542D01*
X119125939Y-92586542D02*
X119268796Y-92729400D01*
X119268796Y-92729400D02*
X119483082Y-92800828D01*
X119483082Y-92800828D02*
X119625939Y-92800828D01*
X119625939Y-92800828D02*
X119840225Y-92729400D01*
X119840225Y-92729400D02*
X119911653Y-92657971D01*
X119911653Y-92657971D02*
X119911653Y-92157971D01*
X119911653Y-92157971D02*
X119625939Y-92157971D01*
X120483082Y-92372257D02*
X121197368Y-92372257D01*
X120340225Y-92800828D02*
X120840225Y-91300828D01*
X120840225Y-91300828D02*
X121340225Y-92800828D01*
X121625939Y-91300828D02*
X122483082Y-91300828D01*
X122054510Y-92800828D02*
X122054510Y-91300828D01*
X122983081Y-92015114D02*
X123483081Y-92015114D01*
X123697367Y-92800828D02*
X122983081Y-92800828D01*
X122983081Y-92800828D02*
X122983081Y-91300828D01*
X122983081Y-91300828D02*
X123697367Y-91300828D01*
X125125939Y-92800828D02*
X124268796Y-92800828D01*
X124697367Y-92800828D02*
X124697367Y-91300828D01*
X124697367Y-91300828D02*
X124554510Y-91515114D01*
X124554510Y-91515114D02*
X124411653Y-91657971D01*
X124411653Y-91657971D02*
X124268796Y-91729400D01*
X118554510Y-105400828D02*
X118554510Y-103900828D01*
X118554510Y-103900828D02*
X118911653Y-103900828D01*
X118911653Y-103900828D02*
X119125939Y-103972257D01*
X119125939Y-103972257D02*
X119268796Y-104115114D01*
X119268796Y-104115114D02*
X119340225Y-104257971D01*
X119340225Y-104257971D02*
X119411653Y-104543685D01*
X119411653Y-104543685D02*
X119411653Y-104757971D01*
X119411653Y-104757971D02*
X119340225Y-105043685D01*
X119340225Y-105043685D02*
X119268796Y-105186542D01*
X119268796Y-105186542D02*
X119125939Y-105329400D01*
X119125939Y-105329400D02*
X118911653Y-105400828D01*
X118911653Y-105400828D02*
X118554510Y-105400828D01*
X120911653Y-105400828D02*
X120411653Y-104686542D01*
X120054510Y-105400828D02*
X120054510Y-103900828D01*
X120054510Y-103900828D02*
X120625939Y-103900828D01*
X120625939Y-103900828D02*
X120768796Y-103972257D01*
X120768796Y-103972257D02*
X120840225Y-104043685D01*
X120840225Y-104043685D02*
X120911653Y-104186542D01*
X120911653Y-104186542D02*
X120911653Y-104400828D01*
X120911653Y-104400828D02*
X120840225Y-104543685D01*
X120840225Y-104543685D02*
X120768796Y-104615114D01*
X120768796Y-104615114D02*
X120625939Y-104686542D01*
X120625939Y-104686542D02*
X120054510Y-104686542D01*
X121483082Y-104972257D02*
X122197368Y-104972257D01*
X121340225Y-105400828D02*
X121840225Y-103900828D01*
X121840225Y-103900828D02*
X122340225Y-105400828D01*
X122840224Y-105400828D02*
X122840224Y-103900828D01*
X123554510Y-105400828D02*
X123554510Y-103900828D01*
X123554510Y-103900828D02*
X124411653Y-105400828D01*
X124411653Y-105400828D02*
X124411653Y-103900828D01*
X125911654Y-105400828D02*
X125054511Y-105400828D01*
X125483082Y-105400828D02*
X125483082Y-103900828D01*
X125483082Y-103900828D02*
X125340225Y-104115114D01*
X125340225Y-104115114D02*
X125197368Y-104257971D01*
X125197368Y-104257971D02*
X125054511Y-104329400D01*
D11*
X65502085Y-64789996D02*
G75*
G02*
X64000000Y-61000000I497915J2389996D01*
G01*
X66055437Y-63118492D02*
G75*
G02*
X62599981Y-62900030I-1528137J3266192D01*
G01*
D12*
X143092669Y-72105380D02*
X143759336Y-72105380D01*
X143759336Y-71057761D02*
X143759336Y-73057761D01*
X143759336Y-73057761D02*
X142806955Y-73057761D01*
X142140288Y-71629190D02*
X141187907Y-71629190D01*
X142330764Y-71057761D02*
X141664098Y-73057761D01*
X141664098Y-73057761D02*
X140997431Y-71057761D01*
X140330764Y-71057761D02*
X140330764Y-73057761D01*
X140330764Y-73057761D02*
X139187907Y-71057761D01*
X139187907Y-71057761D02*
X139187907Y-73057761D01*
D13*
X71670112Y-75126121D02*
X71336779Y-75126121D01*
X71336779Y-75649931D02*
X71336779Y-74649931D01*
X71336779Y-74649931D02*
X71812969Y-74649931D01*
X72193922Y-75126121D02*
X72527255Y-75126121D01*
X72670112Y-75649931D02*
X72193922Y-75649931D01*
X72193922Y-75649931D02*
X72193922Y-74649931D01*
X72193922Y-74649931D02*
X72670112Y-74649931D01*
X73098684Y-75126121D02*
X73432017Y-75126121D01*
X73574874Y-75649931D02*
X73098684Y-75649931D01*
X73098684Y-75649931D02*
X73098684Y-74649931D01*
X73098684Y-74649931D02*
X73574874Y-74649931D01*
X74003446Y-75649931D02*
X74003446Y-74649931D01*
X74003446Y-74649931D02*
X74241541Y-74649931D01*
X74241541Y-74649931D02*
X74384398Y-74697550D01*
X74384398Y-74697550D02*
X74479636Y-74792788D01*
X74479636Y-74792788D02*
X74527255Y-74888026D01*
X74527255Y-74888026D02*
X74574874Y-75078502D01*
X74574874Y-75078502D02*
X74574874Y-75221359D01*
X74574874Y-75221359D02*
X74527255Y-75411835D01*
X74527255Y-75411835D02*
X74479636Y-75507073D01*
X74479636Y-75507073D02*
X74384398Y-75602312D01*
X74384398Y-75602312D02*
X74241541Y-75649931D01*
X74241541Y-75649931D02*
X74003446Y-75649931D01*
X75336779Y-75126121D02*
X75479636Y-75173740D01*
X75479636Y-75173740D02*
X75527255Y-75221359D01*
X75527255Y-75221359D02*
X75574874Y-75316597D01*
X75574874Y-75316597D02*
X75574874Y-75459454D01*
X75574874Y-75459454D02*
X75527255Y-75554692D01*
X75527255Y-75554692D02*
X75479636Y-75602312D01*
X75479636Y-75602312D02*
X75384398Y-75649931D01*
X75384398Y-75649931D02*
X75003446Y-75649931D01*
X75003446Y-75649931D02*
X75003446Y-74649931D01*
X75003446Y-74649931D02*
X75336779Y-74649931D01*
X75336779Y-74649931D02*
X75432017Y-74697550D01*
X75432017Y-74697550D02*
X75479636Y-74745169D01*
X75479636Y-74745169D02*
X75527255Y-74840407D01*
X75527255Y-74840407D02*
X75527255Y-74935645D01*
X75527255Y-74935645D02*
X75479636Y-75030883D01*
X75479636Y-75030883D02*
X75432017Y-75078502D01*
X75432017Y-75078502D02*
X75336779Y-75126121D01*
X75336779Y-75126121D02*
X75003446Y-75126121D01*
X75955827Y-75364216D02*
X76432017Y-75364216D01*
X75860589Y-75649931D02*
X76193922Y-74649931D01*
X76193922Y-74649931D02*
X76527255Y-75649931D01*
X77432017Y-75554692D02*
X77384398Y-75602312D01*
X77384398Y-75602312D02*
X77241541Y-75649931D01*
X77241541Y-75649931D02*
X77146303Y-75649931D01*
X77146303Y-75649931D02*
X77003446Y-75602312D01*
X77003446Y-75602312D02*
X76908208Y-75507073D01*
X76908208Y-75507073D02*
X76860589Y-75411835D01*
X76860589Y-75411835D02*
X76812970Y-75221359D01*
X76812970Y-75221359D02*
X76812970Y-75078502D01*
X76812970Y-75078502D02*
X76860589Y-74888026D01*
X76860589Y-74888026D02*
X76908208Y-74792788D01*
X76908208Y-74792788D02*
X77003446Y-74697550D01*
X77003446Y-74697550D02*
X77146303Y-74649931D01*
X77146303Y-74649931D02*
X77241541Y-74649931D01*
X77241541Y-74649931D02*
X77384398Y-74697550D01*
X77384398Y-74697550D02*
X77432017Y-74745169D01*
X77860589Y-75649931D02*
X77860589Y-74649931D01*
X78432017Y-75649931D02*
X78003446Y-75078502D01*
X78432017Y-74649931D02*
X77860589Y-75221359D01*
X79574875Y-75602312D02*
X79717732Y-75649931D01*
X79717732Y-75649931D02*
X79955827Y-75649931D01*
X79955827Y-75649931D02*
X80051065Y-75602312D01*
X80051065Y-75602312D02*
X80098684Y-75554692D01*
X80098684Y-75554692D02*
X80146303Y-75459454D01*
X80146303Y-75459454D02*
X80146303Y-75364216D01*
X80146303Y-75364216D02*
X80098684Y-75268978D01*
X80098684Y-75268978D02*
X80051065Y-75221359D01*
X80051065Y-75221359D02*
X79955827Y-75173740D01*
X79955827Y-75173740D02*
X79765351Y-75126121D01*
X79765351Y-75126121D02*
X79670113Y-75078502D01*
X79670113Y-75078502D02*
X79622494Y-75030883D01*
X79622494Y-75030883D02*
X79574875Y-74935645D01*
X79574875Y-74935645D02*
X79574875Y-74840407D01*
X79574875Y-74840407D02*
X79622494Y-74745169D01*
X79622494Y-74745169D02*
X79670113Y-74697550D01*
X79670113Y-74697550D02*
X79765351Y-74649931D01*
X79765351Y-74649931D02*
X80003446Y-74649931D01*
X80003446Y-74649931D02*
X80146303Y-74697550D01*
X80574875Y-75126121D02*
X80908208Y-75126121D01*
X81051065Y-75649931D02*
X80574875Y-75649931D01*
X80574875Y-75649931D02*
X80574875Y-74649931D01*
X80574875Y-74649931D02*
X81051065Y-74649931D01*
X81479637Y-75649931D02*
X81479637Y-74649931D01*
X81479637Y-74649931D02*
X82051065Y-75649931D01*
X82051065Y-75649931D02*
X82051065Y-74649931D01*
X82479637Y-75602312D02*
X82622494Y-75649931D01*
X82622494Y-75649931D02*
X82860589Y-75649931D01*
X82860589Y-75649931D02*
X82955827Y-75602312D01*
X82955827Y-75602312D02*
X83003446Y-75554692D01*
X83003446Y-75554692D02*
X83051065Y-75459454D01*
X83051065Y-75459454D02*
X83051065Y-75364216D01*
X83051065Y-75364216D02*
X83003446Y-75268978D01*
X83003446Y-75268978D02*
X82955827Y-75221359D01*
X82955827Y-75221359D02*
X82860589Y-75173740D01*
X82860589Y-75173740D02*
X82670113Y-75126121D01*
X82670113Y-75126121D02*
X82574875Y-75078502D01*
X82574875Y-75078502D02*
X82527256Y-75030883D01*
X82527256Y-75030883D02*
X82479637Y-74935645D01*
X82479637Y-74935645D02*
X82479637Y-74840407D01*
X82479637Y-74840407D02*
X82527256Y-74745169D01*
X82527256Y-74745169D02*
X82574875Y-74697550D01*
X82574875Y-74697550D02*
X82670113Y-74649931D01*
X82670113Y-74649931D02*
X82908208Y-74649931D01*
X82908208Y-74649931D02*
X83051065Y-74697550D01*
X83670113Y-74649931D02*
X83860589Y-74649931D01*
X83860589Y-74649931D02*
X83955827Y-74697550D01*
X83955827Y-74697550D02*
X84051065Y-74792788D01*
X84051065Y-74792788D02*
X84098684Y-74983264D01*
X84098684Y-74983264D02*
X84098684Y-75316597D01*
X84098684Y-75316597D02*
X84051065Y-75507073D01*
X84051065Y-75507073D02*
X83955827Y-75602312D01*
X83955827Y-75602312D02*
X83860589Y-75649931D01*
X83860589Y-75649931D02*
X83670113Y-75649931D01*
X83670113Y-75649931D02*
X83574875Y-75602312D01*
X83574875Y-75602312D02*
X83479637Y-75507073D01*
X83479637Y-75507073D02*
X83432018Y-75316597D01*
X83432018Y-75316597D02*
X83432018Y-74983264D01*
X83432018Y-74983264D02*
X83479637Y-74792788D01*
X83479637Y-74792788D02*
X83574875Y-74697550D01*
X83574875Y-74697550D02*
X83670113Y-74649931D01*
X85098684Y-75649931D02*
X84765351Y-75173740D01*
X84527256Y-75649931D02*
X84527256Y-74649931D01*
X84527256Y-74649931D02*
X84908208Y-74649931D01*
X84908208Y-74649931D02*
X85003446Y-74697550D01*
X85003446Y-74697550D02*
X85051065Y-74745169D01*
X85051065Y-74745169D02*
X85098684Y-74840407D01*
X85098684Y-74840407D02*
X85098684Y-74983264D01*
X85098684Y-74983264D02*
X85051065Y-75078502D01*
X85051065Y-75078502D02*
X85003446Y-75126121D01*
X85003446Y-75126121D02*
X84908208Y-75173740D01*
X84908208Y-75173740D02*
X84527256Y-75173740D01*
X71336779Y-77259875D02*
X71336779Y-76259875D01*
X71336779Y-76259875D02*
X71574874Y-76259875D01*
X71574874Y-76259875D02*
X71717731Y-76307494D01*
X71717731Y-76307494D02*
X71812969Y-76402732D01*
X71812969Y-76402732D02*
X71860588Y-76497970D01*
X71860588Y-76497970D02*
X71908207Y-76688446D01*
X71908207Y-76688446D02*
X71908207Y-76831303D01*
X71908207Y-76831303D02*
X71860588Y-77021779D01*
X71860588Y-77021779D02*
X71812969Y-77117017D01*
X71812969Y-77117017D02*
X71717731Y-77212256D01*
X71717731Y-77212256D02*
X71574874Y-77259875D01*
X71574874Y-77259875D02*
X71336779Y-77259875D01*
X72336779Y-76736065D02*
X72670112Y-76736065D01*
X72812969Y-77259875D02*
X72336779Y-77259875D01*
X72336779Y-77259875D02*
X72336779Y-76259875D01*
X72336779Y-76259875D02*
X72812969Y-76259875D01*
X73193922Y-77212256D02*
X73336779Y-77259875D01*
X73336779Y-77259875D02*
X73574874Y-77259875D01*
X73574874Y-77259875D02*
X73670112Y-77212256D01*
X73670112Y-77212256D02*
X73717731Y-77164636D01*
X73717731Y-77164636D02*
X73765350Y-77069398D01*
X73765350Y-77069398D02*
X73765350Y-76974160D01*
X73765350Y-76974160D02*
X73717731Y-76878922D01*
X73717731Y-76878922D02*
X73670112Y-76831303D01*
X73670112Y-76831303D02*
X73574874Y-76783684D01*
X73574874Y-76783684D02*
X73384398Y-76736065D01*
X73384398Y-76736065D02*
X73289160Y-76688446D01*
X73289160Y-76688446D02*
X73241541Y-76640827D01*
X73241541Y-76640827D02*
X73193922Y-76545589D01*
X73193922Y-76545589D02*
X73193922Y-76450351D01*
X73193922Y-76450351D02*
X73241541Y-76355113D01*
X73241541Y-76355113D02*
X73289160Y-76307494D01*
X73289160Y-76307494D02*
X73384398Y-76259875D01*
X73384398Y-76259875D02*
X73622493Y-76259875D01*
X73622493Y-76259875D02*
X73765350Y-76307494D01*
X74193922Y-77259875D02*
X74193922Y-76259875D01*
X75193921Y-76307494D02*
X75098683Y-76259875D01*
X75098683Y-76259875D02*
X74955826Y-76259875D01*
X74955826Y-76259875D02*
X74812969Y-76307494D01*
X74812969Y-76307494D02*
X74717731Y-76402732D01*
X74717731Y-76402732D02*
X74670112Y-76497970D01*
X74670112Y-76497970D02*
X74622493Y-76688446D01*
X74622493Y-76688446D02*
X74622493Y-76831303D01*
X74622493Y-76831303D02*
X74670112Y-77021779D01*
X74670112Y-77021779D02*
X74717731Y-77117017D01*
X74717731Y-77117017D02*
X74812969Y-77212256D01*
X74812969Y-77212256D02*
X74955826Y-77259875D01*
X74955826Y-77259875D02*
X75051064Y-77259875D01*
X75051064Y-77259875D02*
X75193921Y-77212256D01*
X75193921Y-77212256D02*
X75241540Y-77164636D01*
X75241540Y-77164636D02*
X75241540Y-76831303D01*
X75241540Y-76831303D02*
X75051064Y-76831303D01*
X75670112Y-77259875D02*
X75670112Y-76259875D01*
X75670112Y-76259875D02*
X76241540Y-77259875D01*
X76241540Y-77259875D02*
X76241540Y-76259875D01*
X77812969Y-76736065D02*
X77955826Y-76783684D01*
X77955826Y-76783684D02*
X78003445Y-76831303D01*
X78003445Y-76831303D02*
X78051064Y-76926541D01*
X78051064Y-76926541D02*
X78051064Y-77069398D01*
X78051064Y-77069398D02*
X78003445Y-77164636D01*
X78003445Y-77164636D02*
X77955826Y-77212256D01*
X77955826Y-77212256D02*
X77860588Y-77259875D01*
X77860588Y-77259875D02*
X77479636Y-77259875D01*
X77479636Y-77259875D02*
X77479636Y-76259875D01*
X77479636Y-76259875D02*
X77812969Y-76259875D01*
X77812969Y-76259875D02*
X77908207Y-76307494D01*
X77908207Y-76307494D02*
X77955826Y-76355113D01*
X77955826Y-76355113D02*
X78003445Y-76450351D01*
X78003445Y-76450351D02*
X78003445Y-76545589D01*
X78003445Y-76545589D02*
X77955826Y-76640827D01*
X77955826Y-76640827D02*
X77908207Y-76688446D01*
X77908207Y-76688446D02*
X77812969Y-76736065D01*
X77812969Y-76736065D02*
X77479636Y-76736065D01*
X78670112Y-76783684D02*
X78670112Y-77259875D01*
X78336779Y-76259875D02*
X78670112Y-76783684D01*
X78670112Y-76783684D02*
X79003445Y-76259875D01*
X71289160Y-78822200D02*
X71432017Y-78869819D01*
X71432017Y-78869819D02*
X71670112Y-78869819D01*
X71670112Y-78869819D02*
X71765350Y-78822200D01*
X71765350Y-78822200D02*
X71812969Y-78774580D01*
X71812969Y-78774580D02*
X71860588Y-78679342D01*
X71860588Y-78679342D02*
X71860588Y-78584104D01*
X71860588Y-78584104D02*
X71812969Y-78488866D01*
X71812969Y-78488866D02*
X71765350Y-78441247D01*
X71765350Y-78441247D02*
X71670112Y-78393628D01*
X71670112Y-78393628D02*
X71479636Y-78346009D01*
X71479636Y-78346009D02*
X71384398Y-78298390D01*
X71384398Y-78298390D02*
X71336779Y-78250771D01*
X71336779Y-78250771D02*
X71289160Y-78155533D01*
X71289160Y-78155533D02*
X71289160Y-78060295D01*
X71289160Y-78060295D02*
X71336779Y-77965057D01*
X71336779Y-77965057D02*
X71384398Y-77917438D01*
X71384398Y-77917438D02*
X71479636Y-77869819D01*
X71479636Y-77869819D02*
X71717731Y-77869819D01*
X71717731Y-77869819D02*
X71860588Y-77917438D01*
X72289160Y-78869819D02*
X72289160Y-77869819D01*
X72860588Y-78869819D02*
X72432017Y-78298390D01*
X72860588Y-77869819D02*
X72289160Y-78441247D01*
X73479636Y-78393628D02*
X73479636Y-78869819D01*
X73146303Y-77869819D02*
X73479636Y-78393628D01*
X73479636Y-78393628D02*
X73812969Y-77869819D01*
X74146303Y-78488866D02*
X74908208Y-78488866D01*
X75908207Y-77917438D02*
X75812969Y-77869819D01*
X75812969Y-77869819D02*
X75670112Y-77869819D01*
X75670112Y-77869819D02*
X75527255Y-77917438D01*
X75527255Y-77917438D02*
X75432017Y-78012676D01*
X75432017Y-78012676D02*
X75384398Y-78107914D01*
X75384398Y-78107914D02*
X75336779Y-78298390D01*
X75336779Y-78298390D02*
X75336779Y-78441247D01*
X75336779Y-78441247D02*
X75384398Y-78631723D01*
X75384398Y-78631723D02*
X75432017Y-78726961D01*
X75432017Y-78726961D02*
X75527255Y-78822200D01*
X75527255Y-78822200D02*
X75670112Y-78869819D01*
X75670112Y-78869819D02*
X75765350Y-78869819D01*
X75765350Y-78869819D02*
X75908207Y-78822200D01*
X75908207Y-78822200D02*
X75955826Y-78774580D01*
X75955826Y-78774580D02*
X75955826Y-78441247D01*
X75955826Y-78441247D02*
X75765350Y-78441247D01*
X76384398Y-77869819D02*
X76384398Y-78679342D01*
X76384398Y-78679342D02*
X76432017Y-78774580D01*
X76432017Y-78774580D02*
X76479636Y-78822200D01*
X76479636Y-78822200D02*
X76574874Y-78869819D01*
X76574874Y-78869819D02*
X76765350Y-78869819D01*
X76765350Y-78869819D02*
X76860588Y-78822200D01*
X76860588Y-78822200D02*
X76908207Y-78774580D01*
X76908207Y-78774580D02*
X76955826Y-78679342D01*
X76955826Y-78679342D02*
X76955826Y-77869819D01*
X77432017Y-78869819D02*
X77432017Y-77869819D01*
X77908207Y-78869819D02*
X77908207Y-77869819D01*
X77908207Y-77869819D02*
X78146302Y-77869819D01*
X78146302Y-77869819D02*
X78289159Y-77917438D01*
X78289159Y-77917438D02*
X78384397Y-78012676D01*
X78384397Y-78012676D02*
X78432016Y-78107914D01*
X78432016Y-78107914D02*
X78479635Y-78298390D01*
X78479635Y-78298390D02*
X78479635Y-78441247D01*
X78479635Y-78441247D02*
X78432016Y-78631723D01*
X78432016Y-78631723D02*
X78384397Y-78726961D01*
X78384397Y-78726961D02*
X78289159Y-78822200D01*
X78289159Y-78822200D02*
X78146302Y-78869819D01*
X78146302Y-78869819D02*
X77908207Y-78869819D01*
X78908207Y-78346009D02*
X79241540Y-78346009D01*
X79384397Y-78869819D02*
X78908207Y-78869819D01*
X78908207Y-78869819D02*
X78908207Y-77869819D01*
X78908207Y-77869819D02*
X79384397Y-77869819D01*
X79812969Y-78869819D02*
X79812969Y-77869819D01*
X79812969Y-77869819D02*
X80051064Y-77869819D01*
X80051064Y-77869819D02*
X80193921Y-77917438D01*
X80193921Y-77917438D02*
X80289159Y-78012676D01*
X80289159Y-78012676D02*
X80336778Y-78107914D01*
X80336778Y-78107914D02*
X80384397Y-78298390D01*
X80384397Y-78298390D02*
X80384397Y-78441247D01*
X80384397Y-78441247D02*
X80336778Y-78631723D01*
X80336778Y-78631723D02*
X80289159Y-78726961D01*
X80289159Y-78726961D02*
X80193921Y-78822200D01*
X80193921Y-78822200D02*
X80051064Y-78869819D01*
X80051064Y-78869819D02*
X79812969Y-78869819D01*
D12*
X141011717Y-62757761D02*
X142154574Y-62757761D01*
X141583146Y-62757761D02*
X141583146Y-64757761D01*
X141583146Y-64757761D02*
X141773622Y-64472047D01*
X141773622Y-64472047D02*
X141964098Y-64281571D01*
X141964098Y-64281571D02*
X142154574Y-64186333D01*
X139202193Y-64757761D02*
X140154574Y-64757761D01*
X140154574Y-64757761D02*
X140249812Y-63805380D01*
X140249812Y-63805380D02*
X140154574Y-63900619D01*
X140154574Y-63900619D02*
X139964098Y-63995857D01*
X139964098Y-63995857D02*
X139487907Y-63995857D01*
X139487907Y-63995857D02*
X139297431Y-63900619D01*
X139297431Y-63900619D02*
X139202193Y-63805380D01*
X139202193Y-63805380D02*
X139106955Y-63614904D01*
X139106955Y-63614904D02*
X139106955Y-63138714D01*
X139106955Y-63138714D02*
X139202193Y-62948238D01*
X139202193Y-62948238D02*
X139297431Y-62853000D01*
X139297431Y-62853000D02*
X139487907Y-62757761D01*
X139487907Y-62757761D02*
X139964098Y-62757761D01*
X139964098Y-62757761D02*
X140154574Y-62853000D01*
X140154574Y-62853000D02*
X140249812Y-62948238D01*
X138249812Y-63519666D02*
X136726003Y-63519666D01*
X135868860Y-64567285D02*
X135773622Y-64662523D01*
X135773622Y-64662523D02*
X135583146Y-64757761D01*
X135583146Y-64757761D02*
X135106955Y-64757761D01*
X135106955Y-64757761D02*
X134916479Y-64662523D01*
X134916479Y-64662523D02*
X134821241Y-64567285D01*
X134821241Y-64567285D02*
X134726003Y-64376809D01*
X134726003Y-64376809D02*
X134726003Y-64186333D01*
X134726003Y-64186333D02*
X134821241Y-63900619D01*
X134821241Y-63900619D02*
X135964098Y-62757761D01*
X135964098Y-62757761D02*
X134726003Y-62757761D01*
X133011717Y-64091095D02*
X133011717Y-62757761D01*
X133487908Y-64853000D02*
X133964098Y-63424428D01*
X133964098Y-63424428D02*
X132726003Y-63424428D01*
X132249812Y-64757761D02*
X131583146Y-62757761D01*
X131583146Y-62757761D02*
X130916479Y-64757761D01*
D10*
X139885912Y-134071426D02*
X139171626Y-134571426D01*
X139885912Y-134928569D02*
X138385912Y-134928569D01*
X138385912Y-134928569D02*
X138385912Y-134357140D01*
X138385912Y-134357140D02*
X138457341Y-134214283D01*
X138457341Y-134214283D02*
X138528769Y-134142854D01*
X138528769Y-134142854D02*
X138671626Y-134071426D01*
X138671626Y-134071426D02*
X138885912Y-134071426D01*
X138885912Y-134071426D02*
X139028769Y-134142854D01*
X139028769Y-134142854D02*
X139100198Y-134214283D01*
X139100198Y-134214283D02*
X139171626Y-134357140D01*
X139171626Y-134357140D02*
X139171626Y-134928569D01*
X139100198Y-133428569D02*
X139100198Y-132928569D01*
X139885912Y-132714283D02*
X139885912Y-133428569D01*
X139885912Y-133428569D02*
X138385912Y-133428569D01*
X138385912Y-133428569D02*
X138385912Y-132714283D01*
X138385912Y-132285711D02*
X139885912Y-131785711D01*
X139885912Y-131785711D02*
X138385912Y-131285711D01*
X139885912Y-128857140D02*
X139885912Y-129714283D01*
X139885912Y-129285712D02*
X138385912Y-129285712D01*
X138385912Y-129285712D02*
X138600198Y-129428569D01*
X138600198Y-129428569D02*
X138743055Y-129571426D01*
X138743055Y-129571426D02*
X138814484Y-129714283D01*
X140385912Y-126714284D02*
X138243055Y-126714284D01*
X139885912Y-124499999D02*
X138385912Y-124499999D01*
X138385912Y-124499999D02*
X139457341Y-123999999D01*
X139457341Y-123999999D02*
X138385912Y-123499999D01*
X138385912Y-123499999D02*
X139885912Y-123499999D01*
X139457341Y-122857141D02*
X139457341Y-122142856D01*
X139885912Y-122999998D02*
X138385912Y-122499998D01*
X138385912Y-122499998D02*
X139885912Y-121999998D01*
X139171626Y-121214284D02*
X139885912Y-121214284D01*
X138385912Y-121714284D02*
X139171626Y-121214284D01*
X139171626Y-121214284D02*
X138385912Y-120714284D01*
X138528769Y-119142856D02*
X138457341Y-119071428D01*
X138457341Y-119071428D02*
X138385912Y-118928571D01*
X138385912Y-118928571D02*
X138385912Y-118571428D01*
X138385912Y-118571428D02*
X138457341Y-118428571D01*
X138457341Y-118428571D02*
X138528769Y-118357142D01*
X138528769Y-118357142D02*
X138671626Y-118285713D01*
X138671626Y-118285713D02*
X138814484Y-118285713D01*
X138814484Y-118285713D02*
X139028769Y-118357142D01*
X139028769Y-118357142D02*
X139885912Y-119214285D01*
X139885912Y-119214285D02*
X139885912Y-118285713D01*
X138385912Y-117357142D02*
X138385912Y-117214285D01*
X138385912Y-117214285D02*
X138457341Y-117071428D01*
X138457341Y-117071428D02*
X138528769Y-117000000D01*
X138528769Y-117000000D02*
X138671626Y-116928571D01*
X138671626Y-116928571D02*
X138957341Y-116857142D01*
X138957341Y-116857142D02*
X139314484Y-116857142D01*
X139314484Y-116857142D02*
X139600198Y-116928571D01*
X139600198Y-116928571D02*
X139743055Y-117000000D01*
X139743055Y-117000000D02*
X139814484Y-117071428D01*
X139814484Y-117071428D02*
X139885912Y-117214285D01*
X139885912Y-117214285D02*
X139885912Y-117357142D01*
X139885912Y-117357142D02*
X139814484Y-117500000D01*
X139814484Y-117500000D02*
X139743055Y-117571428D01*
X139743055Y-117571428D02*
X139600198Y-117642857D01*
X139600198Y-117642857D02*
X139314484Y-117714285D01*
X139314484Y-117714285D02*
X138957341Y-117714285D01*
X138957341Y-117714285D02*
X138671626Y-117642857D01*
X138671626Y-117642857D02*
X138528769Y-117571428D01*
X138528769Y-117571428D02*
X138457341Y-117500000D01*
X138457341Y-117500000D02*
X138385912Y-117357142D01*
X138528769Y-116285714D02*
X138457341Y-116214286D01*
X138457341Y-116214286D02*
X138385912Y-116071429D01*
X138385912Y-116071429D02*
X138385912Y-115714286D01*
X138385912Y-115714286D02*
X138457341Y-115571429D01*
X138457341Y-115571429D02*
X138528769Y-115500000D01*
X138528769Y-115500000D02*
X138671626Y-115428571D01*
X138671626Y-115428571D02*
X138814484Y-115428571D01*
X138814484Y-115428571D02*
X139028769Y-115500000D01*
X139028769Y-115500000D02*
X139885912Y-116357143D01*
X139885912Y-116357143D02*
X139885912Y-115428571D01*
X138385912Y-114071429D02*
X138385912Y-114785715D01*
X138385912Y-114785715D02*
X139100198Y-114857143D01*
X139100198Y-114857143D02*
X139028769Y-114785715D01*
X139028769Y-114785715D02*
X138957341Y-114642858D01*
X138957341Y-114642858D02*
X138957341Y-114285715D01*
X138957341Y-114285715D02*
X139028769Y-114142858D01*
X139028769Y-114142858D02*
X139100198Y-114071429D01*
X139100198Y-114071429D02*
X139243055Y-114000000D01*
X139243055Y-114000000D02*
X139600198Y-114000000D01*
X139600198Y-114000000D02*
X139743055Y-114071429D01*
X139743055Y-114071429D02*
X139814484Y-114142858D01*
X139814484Y-114142858D02*
X139885912Y-114285715D01*
X139885912Y-114285715D02*
X139885912Y-114642858D01*
X139885912Y-114642858D02*
X139814484Y-114785715D01*
X139814484Y-114785715D02*
X139743055Y-114857143D01*
X141515114Y-128428572D02*
X141515114Y-127928572D01*
X142300828Y-127714286D02*
X142300828Y-128428572D01*
X142300828Y-128428572D02*
X140800828Y-128428572D01*
X140800828Y-128428572D02*
X140800828Y-127714286D01*
X142157971Y-127071429D02*
X142229400Y-127000000D01*
X142229400Y-127000000D02*
X142300828Y-127071429D01*
X142300828Y-127071429D02*
X142229400Y-127142857D01*
X142229400Y-127142857D02*
X142157971Y-127071429D01*
X142157971Y-127071429D02*
X142300828Y-127071429D01*
X142157971Y-124357143D02*
X142229400Y-124428571D01*
X142229400Y-124428571D02*
X142300828Y-124642857D01*
X142300828Y-124642857D02*
X142300828Y-124785714D01*
X142300828Y-124785714D02*
X142229400Y-125000000D01*
X142229400Y-125000000D02*
X142086542Y-125142857D01*
X142086542Y-125142857D02*
X141943685Y-125214286D01*
X141943685Y-125214286D02*
X141657971Y-125285714D01*
X141657971Y-125285714D02*
X141443685Y-125285714D01*
X141443685Y-125285714D02*
X141157971Y-125214286D01*
X141157971Y-125214286D02*
X141015114Y-125142857D01*
X141015114Y-125142857D02*
X140872257Y-125000000D01*
X140872257Y-125000000D02*
X140800828Y-124785714D01*
X140800828Y-124785714D02*
X140800828Y-124642857D01*
X140800828Y-124642857D02*
X140872257Y-124428571D01*
X140872257Y-124428571D02*
X140943685Y-124357143D01*
X142300828Y-123714286D02*
X140800828Y-123714286D01*
X141515114Y-123714286D02*
X141515114Y-122857143D01*
X142300828Y-122857143D02*
X140800828Y-122857143D01*
X142300828Y-122142857D02*
X140800828Y-122142857D01*
X140800828Y-121428571D02*
X142015114Y-121428571D01*
X142015114Y-121428571D02*
X142157971Y-121357142D01*
X142157971Y-121357142D02*
X142229400Y-121285714D01*
X142229400Y-121285714D02*
X142300828Y-121142856D01*
X142300828Y-121142856D02*
X142300828Y-120857142D01*
X142300828Y-120857142D02*
X142229400Y-120714285D01*
X142229400Y-120714285D02*
X142157971Y-120642856D01*
X142157971Y-120642856D02*
X142015114Y-120571428D01*
X142015114Y-120571428D02*
X140800828Y-120571428D01*
D13*
X89904761Y-83260057D02*
X89809523Y-83212438D01*
X89809523Y-83212438D02*
X89714285Y-83117200D01*
X89714285Y-83117200D02*
X89571428Y-82974342D01*
X89571428Y-82974342D02*
X89476190Y-82926723D01*
X89476190Y-82926723D02*
X89380952Y-82926723D01*
X89428571Y-83164819D02*
X89333333Y-83117200D01*
X89333333Y-83117200D02*
X89238095Y-83021961D01*
X89238095Y-83021961D02*
X89190476Y-82831485D01*
X89190476Y-82831485D02*
X89190476Y-82498152D01*
X89190476Y-82498152D02*
X89238095Y-82307676D01*
X89238095Y-82307676D02*
X89333333Y-82212438D01*
X89333333Y-82212438D02*
X89428571Y-82164819D01*
X89428571Y-82164819D02*
X89619047Y-82164819D01*
X89619047Y-82164819D02*
X89714285Y-82212438D01*
X89714285Y-82212438D02*
X89809523Y-82307676D01*
X89809523Y-82307676D02*
X89857142Y-82498152D01*
X89857142Y-82498152D02*
X89857142Y-82831485D01*
X89857142Y-82831485D02*
X89809523Y-83021961D01*
X89809523Y-83021961D02*
X89714285Y-83117200D01*
X89714285Y-83117200D02*
X89619047Y-83164819D01*
X89619047Y-83164819D02*
X89428571Y-83164819D01*
X90238095Y-82260057D02*
X90285714Y-82212438D01*
X90285714Y-82212438D02*
X90380952Y-82164819D01*
X90380952Y-82164819D02*
X90619047Y-82164819D01*
X90619047Y-82164819D02*
X90714285Y-82212438D01*
X90714285Y-82212438D02*
X90761904Y-82260057D01*
X90761904Y-82260057D02*
X90809523Y-82355295D01*
X90809523Y-82355295D02*
X90809523Y-82450533D01*
X90809523Y-82450533D02*
X90761904Y-82593390D01*
X90761904Y-82593390D02*
X90190476Y-83164819D01*
X90190476Y-83164819D02*
X90809523Y-83164819D01*
X127690476Y-84494819D02*
X127690476Y-85209104D01*
X127690476Y-85209104D02*
X127642857Y-85351961D01*
X127642857Y-85351961D02*
X127547619Y-85447200D01*
X127547619Y-85447200D02*
X127404762Y-85494819D01*
X127404762Y-85494819D02*
X127309524Y-85494819D01*
X128690476Y-85494819D02*
X128119048Y-85494819D01*
X128404762Y-85494819D02*
X128404762Y-84494819D01*
X128404762Y-84494819D02*
X128309524Y-84637676D01*
X128309524Y-84637676D02*
X128214286Y-84732914D01*
X128214286Y-84732914D02*
X128119048Y-84780533D01*
X129309524Y-84494819D02*
X129404762Y-84494819D01*
X129404762Y-84494819D02*
X129500000Y-84542438D01*
X129500000Y-84542438D02*
X129547619Y-84590057D01*
X129547619Y-84590057D02*
X129595238Y-84685295D01*
X129595238Y-84685295D02*
X129642857Y-84875771D01*
X129642857Y-84875771D02*
X129642857Y-85113866D01*
X129642857Y-85113866D02*
X129595238Y-85304342D01*
X129595238Y-85304342D02*
X129547619Y-85399580D01*
X129547619Y-85399580D02*
X129500000Y-85447200D01*
X129500000Y-85447200D02*
X129404762Y-85494819D01*
X129404762Y-85494819D02*
X129309524Y-85494819D01*
X129309524Y-85494819D02*
X129214286Y-85447200D01*
X129214286Y-85447200D02*
X129166667Y-85399580D01*
X129166667Y-85399580D02*
X129119048Y-85304342D01*
X129119048Y-85304342D02*
X129071429Y-85113866D01*
X129071429Y-85113866D02*
X129071429Y-84875771D01*
X129071429Y-84875771D02*
X129119048Y-84685295D01*
X129119048Y-84685295D02*
X129166667Y-84590057D01*
X129166667Y-84590057D02*
X129214286Y-84542438D01*
X129214286Y-84542438D02*
X129309524Y-84494819D01*
X71666666Y-84494819D02*
X71666666Y-85209104D01*
X71666666Y-85209104D02*
X71619047Y-85351961D01*
X71619047Y-85351961D02*
X71523809Y-85447200D01*
X71523809Y-85447200D02*
X71380952Y-85494819D01*
X71380952Y-85494819D02*
X71285714Y-85494819D01*
X72190476Y-85494819D02*
X72380952Y-85494819D01*
X72380952Y-85494819D02*
X72476190Y-85447200D01*
X72476190Y-85447200D02*
X72523809Y-85399580D01*
X72523809Y-85399580D02*
X72619047Y-85256723D01*
X72619047Y-85256723D02*
X72666666Y-85066247D01*
X72666666Y-85066247D02*
X72666666Y-84685295D01*
X72666666Y-84685295D02*
X72619047Y-84590057D01*
X72619047Y-84590057D02*
X72571428Y-84542438D01*
X72571428Y-84542438D02*
X72476190Y-84494819D01*
X72476190Y-84494819D02*
X72285714Y-84494819D01*
X72285714Y-84494819D02*
X72190476Y-84542438D01*
X72190476Y-84542438D02*
X72142857Y-84590057D01*
X72142857Y-84590057D02*
X72095238Y-84685295D01*
X72095238Y-84685295D02*
X72095238Y-84923390D01*
X72095238Y-84923390D02*
X72142857Y-85018628D01*
X72142857Y-85018628D02*
X72190476Y-85066247D01*
X72190476Y-85066247D02*
X72285714Y-85113866D01*
X72285714Y-85113866D02*
X72476190Y-85113866D01*
X72476190Y-85113866D02*
X72571428Y-85066247D01*
X72571428Y-85066247D02*
X72619047Y-85018628D01*
X72619047Y-85018628D02*
X72666666Y-84923390D01*
X72866666Y-110054819D02*
X72866666Y-110769104D01*
X72866666Y-110769104D02*
X72819047Y-110911961D01*
X72819047Y-110911961D02*
X72723809Y-111007200D01*
X72723809Y-111007200D02*
X72580952Y-111054819D01*
X72580952Y-111054819D02*
X72485714Y-111054819D01*
X73771428Y-110388152D02*
X73771428Y-111054819D01*
X73533333Y-110007200D02*
X73295238Y-110721485D01*
X73295238Y-110721485D02*
X73914285Y-110721485D01*
X126666666Y-111454819D02*
X126666666Y-112169104D01*
X126666666Y-112169104D02*
X126619047Y-112311961D01*
X126619047Y-112311961D02*
X126523809Y-112407200D01*
X126523809Y-112407200D02*
X126380952Y-112454819D01*
X126380952Y-112454819D02*
X126285714Y-112454819D01*
X127047619Y-111454819D02*
X127666666Y-111454819D01*
X127666666Y-111454819D02*
X127333333Y-111835771D01*
X127333333Y-111835771D02*
X127476190Y-111835771D01*
X127476190Y-111835771D02*
X127571428Y-111883390D01*
X127571428Y-111883390D02*
X127619047Y-111931009D01*
X127619047Y-111931009D02*
X127666666Y-112026247D01*
X127666666Y-112026247D02*
X127666666Y-112264342D01*
X127666666Y-112264342D02*
X127619047Y-112359580D01*
X127619047Y-112359580D02*
X127571428Y-112407200D01*
X127571428Y-112407200D02*
X127476190Y-112454819D01*
X127476190Y-112454819D02*
X127190476Y-112454819D01*
X127190476Y-112454819D02*
X127095238Y-112407200D01*
X127095238Y-112407200D02*
X127047619Y-112359580D01*
X133833333Y-71359580D02*
X133785714Y-71407200D01*
X133785714Y-71407200D02*
X133642857Y-71454819D01*
X133642857Y-71454819D02*
X133547619Y-71454819D01*
X133547619Y-71454819D02*
X133404762Y-71407200D01*
X133404762Y-71407200D02*
X133309524Y-71311961D01*
X133309524Y-71311961D02*
X133261905Y-71216723D01*
X133261905Y-71216723D02*
X133214286Y-71026247D01*
X133214286Y-71026247D02*
X133214286Y-70883390D01*
X133214286Y-70883390D02*
X133261905Y-70692914D01*
X133261905Y-70692914D02*
X133309524Y-70597676D01*
X133309524Y-70597676D02*
X133404762Y-70502438D01*
X133404762Y-70502438D02*
X133547619Y-70454819D01*
X133547619Y-70454819D02*
X133642857Y-70454819D01*
X133642857Y-70454819D02*
X133785714Y-70502438D01*
X133785714Y-70502438D02*
X133833333Y-70550057D01*
X134214286Y-70550057D02*
X134261905Y-70502438D01*
X134261905Y-70502438D02*
X134357143Y-70454819D01*
X134357143Y-70454819D02*
X134595238Y-70454819D01*
X134595238Y-70454819D02*
X134690476Y-70502438D01*
X134690476Y-70502438D02*
X134738095Y-70550057D01*
X134738095Y-70550057D02*
X134785714Y-70645295D01*
X134785714Y-70645295D02*
X134785714Y-70740533D01*
X134785714Y-70740533D02*
X134738095Y-70883390D01*
X134738095Y-70883390D02*
X134166667Y-71454819D01*
X134166667Y-71454819D02*
X134785714Y-71454819D01*
X89238095Y-81054819D02*
X89238095Y-80054819D01*
X89238095Y-80531009D02*
X89809523Y-80531009D01*
X89809523Y-81054819D02*
X89809523Y-80054819D01*
X90190476Y-80054819D02*
X90809523Y-80054819D01*
X90809523Y-80054819D02*
X90476190Y-80435771D01*
X90476190Y-80435771D02*
X90619047Y-80435771D01*
X90619047Y-80435771D02*
X90714285Y-80483390D01*
X90714285Y-80483390D02*
X90761904Y-80531009D01*
X90761904Y-80531009D02*
X90809523Y-80626247D01*
X90809523Y-80626247D02*
X90809523Y-80864342D01*
X90809523Y-80864342D02*
X90761904Y-80959580D01*
X90761904Y-80959580D02*
X90714285Y-81007200D01*
X90714285Y-81007200D02*
X90619047Y-81054819D01*
X90619047Y-81054819D02*
X90333333Y-81054819D01*
X90333333Y-81054819D02*
X90238095Y-81007200D01*
X90238095Y-81007200D02*
X90190476Y-80959580D01*
X70109580Y-121642857D02*
X70157200Y-121690476D01*
X70157200Y-121690476D02*
X70204819Y-121833333D01*
X70204819Y-121833333D02*
X70204819Y-121928571D01*
X70204819Y-121928571D02*
X70157200Y-122071428D01*
X70157200Y-122071428D02*
X70061961Y-122166666D01*
X70061961Y-122166666D02*
X69966723Y-122214285D01*
X69966723Y-122214285D02*
X69776247Y-122261904D01*
X69776247Y-122261904D02*
X69633390Y-122261904D01*
X69633390Y-122261904D02*
X69442914Y-122214285D01*
X69442914Y-122214285D02*
X69347676Y-122166666D01*
X69347676Y-122166666D02*
X69252438Y-122071428D01*
X69252438Y-122071428D02*
X69204819Y-121928571D01*
X69204819Y-121928571D02*
X69204819Y-121833333D01*
X69204819Y-121833333D02*
X69252438Y-121690476D01*
X69252438Y-121690476D02*
X69300057Y-121642857D01*
X69300057Y-121261904D02*
X69252438Y-121214285D01*
X69252438Y-121214285D02*
X69204819Y-121119047D01*
X69204819Y-121119047D02*
X69204819Y-120880952D01*
X69204819Y-120880952D02*
X69252438Y-120785714D01*
X69252438Y-120785714D02*
X69300057Y-120738095D01*
X69300057Y-120738095D02*
X69395295Y-120690476D01*
X69395295Y-120690476D02*
X69490533Y-120690476D01*
X69490533Y-120690476D02*
X69633390Y-120738095D01*
X69633390Y-120738095D02*
X70204819Y-121309523D01*
X70204819Y-121309523D02*
X70204819Y-120690476D01*
X69204819Y-120357142D02*
X69204819Y-119738095D01*
X69204819Y-119738095D02*
X69585771Y-120071428D01*
X69585771Y-120071428D02*
X69585771Y-119928571D01*
X69585771Y-119928571D02*
X69633390Y-119833333D01*
X69633390Y-119833333D02*
X69681009Y-119785714D01*
X69681009Y-119785714D02*
X69776247Y-119738095D01*
X69776247Y-119738095D02*
X70014342Y-119738095D01*
X70014342Y-119738095D02*
X70109580Y-119785714D01*
X70109580Y-119785714D02*
X70157200Y-119833333D01*
X70157200Y-119833333D02*
X70204819Y-119928571D01*
X70204819Y-119928571D02*
X70204819Y-120214285D01*
X70204819Y-120214285D02*
X70157200Y-120309523D01*
X70157200Y-120309523D02*
X70109580Y-120357142D01*
X122609580Y-121642857D02*
X122657200Y-121690476D01*
X122657200Y-121690476D02*
X122704819Y-121833333D01*
X122704819Y-121833333D02*
X122704819Y-121928571D01*
X122704819Y-121928571D02*
X122657200Y-122071428D01*
X122657200Y-122071428D02*
X122561961Y-122166666D01*
X122561961Y-122166666D02*
X122466723Y-122214285D01*
X122466723Y-122214285D02*
X122276247Y-122261904D01*
X122276247Y-122261904D02*
X122133390Y-122261904D01*
X122133390Y-122261904D02*
X121942914Y-122214285D01*
X121942914Y-122214285D02*
X121847676Y-122166666D01*
X121847676Y-122166666D02*
X121752438Y-122071428D01*
X121752438Y-122071428D02*
X121704819Y-121928571D01*
X121704819Y-121928571D02*
X121704819Y-121833333D01*
X121704819Y-121833333D02*
X121752438Y-121690476D01*
X121752438Y-121690476D02*
X121800057Y-121642857D01*
X121800057Y-121261904D02*
X121752438Y-121214285D01*
X121752438Y-121214285D02*
X121704819Y-121119047D01*
X121704819Y-121119047D02*
X121704819Y-120880952D01*
X121704819Y-120880952D02*
X121752438Y-120785714D01*
X121752438Y-120785714D02*
X121800057Y-120738095D01*
X121800057Y-120738095D02*
X121895295Y-120690476D01*
X121895295Y-120690476D02*
X121990533Y-120690476D01*
X121990533Y-120690476D02*
X122133390Y-120738095D01*
X122133390Y-120738095D02*
X122704819Y-121309523D01*
X122704819Y-121309523D02*
X122704819Y-120690476D01*
X121800057Y-120309523D02*
X121752438Y-120261904D01*
X121752438Y-120261904D02*
X121704819Y-120166666D01*
X121704819Y-120166666D02*
X121704819Y-119928571D01*
X121704819Y-119928571D02*
X121752438Y-119833333D01*
X121752438Y-119833333D02*
X121800057Y-119785714D01*
X121800057Y-119785714D02*
X121895295Y-119738095D01*
X121895295Y-119738095D02*
X121990533Y-119738095D01*
X121990533Y-119738095D02*
X122133390Y-119785714D01*
X122133390Y-119785714D02*
X122704819Y-120357142D01*
X122704819Y-120357142D02*
X122704819Y-119738095D01*
X127857142Y-142109580D02*
X127809523Y-142157200D01*
X127809523Y-142157200D02*
X127666666Y-142204819D01*
X127666666Y-142204819D02*
X127571428Y-142204819D01*
X127571428Y-142204819D02*
X127428571Y-142157200D01*
X127428571Y-142157200D02*
X127333333Y-142061961D01*
X127333333Y-142061961D02*
X127285714Y-141966723D01*
X127285714Y-141966723D02*
X127238095Y-141776247D01*
X127238095Y-141776247D02*
X127238095Y-141633390D01*
X127238095Y-141633390D02*
X127285714Y-141442914D01*
X127285714Y-141442914D02*
X127333333Y-141347676D01*
X127333333Y-141347676D02*
X127428571Y-141252438D01*
X127428571Y-141252438D02*
X127571428Y-141204819D01*
X127571428Y-141204819D02*
X127666666Y-141204819D01*
X127666666Y-141204819D02*
X127809523Y-141252438D01*
X127809523Y-141252438D02*
X127857142Y-141300057D01*
X128809523Y-142204819D02*
X128238095Y-142204819D01*
X128523809Y-142204819D02*
X128523809Y-141204819D01*
X128523809Y-141204819D02*
X128428571Y-141347676D01*
X128428571Y-141347676D02*
X128333333Y-141442914D01*
X128333333Y-141442914D02*
X128238095Y-141490533D01*
X129666666Y-141538152D02*
X129666666Y-142204819D01*
X129428571Y-141157200D02*
X129190476Y-141871485D01*
X129190476Y-141871485D02*
X129809523Y-141871485D01*
X120857142Y-96454819D02*
X120523809Y-95978628D01*
X120285714Y-96454819D02*
X120285714Y-95454819D01*
X120285714Y-95454819D02*
X120666666Y-95454819D01*
X120666666Y-95454819D02*
X120761904Y-95502438D01*
X120761904Y-95502438D02*
X120809523Y-95550057D01*
X120809523Y-95550057D02*
X120857142Y-95645295D01*
X120857142Y-95645295D02*
X120857142Y-95788152D01*
X120857142Y-95788152D02*
X120809523Y-95883390D01*
X120809523Y-95883390D02*
X120761904Y-95931009D01*
X120761904Y-95931009D02*
X120666666Y-95978628D01*
X120666666Y-95978628D02*
X120285714Y-95978628D01*
X121809523Y-96454819D02*
X121238095Y-96454819D01*
X121523809Y-96454819D02*
X121523809Y-95454819D01*
X121523809Y-95454819D02*
X121428571Y-95597676D01*
X121428571Y-95597676D02*
X121333333Y-95692914D01*
X121333333Y-95692914D02*
X121238095Y-95740533D01*
X122714285Y-95454819D02*
X122238095Y-95454819D01*
X122238095Y-95454819D02*
X122190476Y-95931009D01*
X122190476Y-95931009D02*
X122238095Y-95883390D01*
X122238095Y-95883390D02*
X122333333Y-95835771D01*
X122333333Y-95835771D02*
X122571428Y-95835771D01*
X122571428Y-95835771D02*
X122666666Y-95883390D01*
X122666666Y-95883390D02*
X122714285Y-95931009D01*
X122714285Y-95931009D02*
X122761904Y-96026247D01*
X122761904Y-96026247D02*
X122761904Y-96264342D01*
X122761904Y-96264342D02*
X122714285Y-96359580D01*
X122714285Y-96359580D02*
X122666666Y-96407200D01*
X122666666Y-96407200D02*
X122571428Y-96454819D01*
X122571428Y-96454819D02*
X122333333Y-96454819D01*
X122333333Y-96454819D02*
X122238095Y-96407200D01*
X122238095Y-96407200D02*
X122190476Y-96359580D01*
X77857142Y-96104819D02*
X77523809Y-95628628D01*
X77285714Y-96104819D02*
X77285714Y-95104819D01*
X77285714Y-95104819D02*
X77666666Y-95104819D01*
X77666666Y-95104819D02*
X77761904Y-95152438D01*
X77761904Y-95152438D02*
X77809523Y-95200057D01*
X77809523Y-95200057D02*
X77857142Y-95295295D01*
X77857142Y-95295295D02*
X77857142Y-95438152D01*
X77857142Y-95438152D02*
X77809523Y-95533390D01*
X77809523Y-95533390D02*
X77761904Y-95581009D01*
X77761904Y-95581009D02*
X77666666Y-95628628D01*
X77666666Y-95628628D02*
X77285714Y-95628628D01*
X78809523Y-96104819D02*
X78238095Y-96104819D01*
X78523809Y-96104819D02*
X78523809Y-95104819D01*
X78523809Y-95104819D02*
X78428571Y-95247676D01*
X78428571Y-95247676D02*
X78333333Y-95342914D01*
X78333333Y-95342914D02*
X78238095Y-95390533D01*
X79666666Y-95438152D02*
X79666666Y-96104819D01*
X79428571Y-95057200D02*
X79190476Y-95771485D01*
X79190476Y-95771485D02*
X79809523Y-95771485D01*
X76857142Y-100804819D02*
X76523809Y-100328628D01*
X76285714Y-100804819D02*
X76285714Y-99804819D01*
X76285714Y-99804819D02*
X76666666Y-99804819D01*
X76666666Y-99804819D02*
X76761904Y-99852438D01*
X76761904Y-99852438D02*
X76809523Y-99900057D01*
X76809523Y-99900057D02*
X76857142Y-99995295D01*
X76857142Y-99995295D02*
X76857142Y-100138152D01*
X76857142Y-100138152D02*
X76809523Y-100233390D01*
X76809523Y-100233390D02*
X76761904Y-100281009D01*
X76761904Y-100281009D02*
X76666666Y-100328628D01*
X76666666Y-100328628D02*
X76285714Y-100328628D01*
X77809523Y-100804819D02*
X77238095Y-100804819D01*
X77523809Y-100804819D02*
X77523809Y-99804819D01*
X77523809Y-99804819D02*
X77428571Y-99947676D01*
X77428571Y-99947676D02*
X77333333Y-100042914D01*
X77333333Y-100042914D02*
X77238095Y-100090533D01*
X78190476Y-99900057D02*
X78238095Y-99852438D01*
X78238095Y-99852438D02*
X78333333Y-99804819D01*
X78333333Y-99804819D02*
X78571428Y-99804819D01*
X78571428Y-99804819D02*
X78666666Y-99852438D01*
X78666666Y-99852438D02*
X78714285Y-99900057D01*
X78714285Y-99900057D02*
X78761904Y-99995295D01*
X78761904Y-99995295D02*
X78761904Y-100090533D01*
X78761904Y-100090533D02*
X78714285Y-100233390D01*
X78714285Y-100233390D02*
X78142857Y-100804819D01*
X78142857Y-100804819D02*
X78761904Y-100804819D01*
X87954819Y-96142857D02*
X87478628Y-96476190D01*
X87954819Y-96714285D02*
X86954819Y-96714285D01*
X86954819Y-96714285D02*
X86954819Y-96333333D01*
X86954819Y-96333333D02*
X87002438Y-96238095D01*
X87002438Y-96238095D02*
X87050057Y-96190476D01*
X87050057Y-96190476D02*
X87145295Y-96142857D01*
X87145295Y-96142857D02*
X87288152Y-96142857D01*
X87288152Y-96142857D02*
X87383390Y-96190476D01*
X87383390Y-96190476D02*
X87431009Y-96238095D01*
X87431009Y-96238095D02*
X87478628Y-96333333D01*
X87478628Y-96333333D02*
X87478628Y-96714285D01*
X87954819Y-95190476D02*
X87954819Y-95761904D01*
X87954819Y-95476190D02*
X86954819Y-95476190D01*
X86954819Y-95476190D02*
X87097676Y-95571428D01*
X87097676Y-95571428D02*
X87192914Y-95666666D01*
X87192914Y-95666666D02*
X87240533Y-95761904D01*
X87954819Y-94238095D02*
X87954819Y-94809523D01*
X87954819Y-94523809D02*
X86954819Y-94523809D01*
X86954819Y-94523809D02*
X87097676Y-94619047D01*
X87097676Y-94619047D02*
X87192914Y-94714285D01*
X87192914Y-94714285D02*
X87240533Y-94809523D01*
X107954819Y-96142857D02*
X107478628Y-96476190D01*
X107954819Y-96714285D02*
X106954819Y-96714285D01*
X106954819Y-96714285D02*
X106954819Y-96333333D01*
X106954819Y-96333333D02*
X107002438Y-96238095D01*
X107002438Y-96238095D02*
X107050057Y-96190476D01*
X107050057Y-96190476D02*
X107145295Y-96142857D01*
X107145295Y-96142857D02*
X107288152Y-96142857D01*
X107288152Y-96142857D02*
X107383390Y-96190476D01*
X107383390Y-96190476D02*
X107431009Y-96238095D01*
X107431009Y-96238095D02*
X107478628Y-96333333D01*
X107478628Y-96333333D02*
X107478628Y-96714285D01*
X107954819Y-95190476D02*
X107954819Y-95761904D01*
X107954819Y-95476190D02*
X106954819Y-95476190D01*
X106954819Y-95476190D02*
X107097676Y-95571428D01*
X107097676Y-95571428D02*
X107192914Y-95666666D01*
X107192914Y-95666666D02*
X107240533Y-95761904D01*
X106954819Y-94571428D02*
X106954819Y-94476190D01*
X106954819Y-94476190D02*
X107002438Y-94380952D01*
X107002438Y-94380952D02*
X107050057Y-94333333D01*
X107050057Y-94333333D02*
X107145295Y-94285714D01*
X107145295Y-94285714D02*
X107335771Y-94238095D01*
X107335771Y-94238095D02*
X107573866Y-94238095D01*
X107573866Y-94238095D02*
X107764342Y-94285714D01*
X107764342Y-94285714D02*
X107859580Y-94333333D01*
X107859580Y-94333333D02*
X107907200Y-94380952D01*
X107907200Y-94380952D02*
X107954819Y-94476190D01*
X107954819Y-94476190D02*
X107954819Y-94571428D01*
X107954819Y-94571428D02*
X107907200Y-94666666D01*
X107907200Y-94666666D02*
X107859580Y-94714285D01*
X107859580Y-94714285D02*
X107764342Y-94761904D01*
X107764342Y-94761904D02*
X107573866Y-94809523D01*
X107573866Y-94809523D02*
X107335771Y-94809523D01*
X107335771Y-94809523D02*
X107145295Y-94761904D01*
X107145295Y-94761904D02*
X107050057Y-94714285D01*
X107050057Y-94714285D02*
X107002438Y-94666666D01*
X107002438Y-94666666D02*
X106954819Y-94571428D01*
X104604819Y-81566666D02*
X104128628Y-81899999D01*
X104604819Y-82138094D02*
X103604819Y-82138094D01*
X103604819Y-82138094D02*
X103604819Y-81757142D01*
X103604819Y-81757142D02*
X103652438Y-81661904D01*
X103652438Y-81661904D02*
X103700057Y-81614285D01*
X103700057Y-81614285D02*
X103795295Y-81566666D01*
X103795295Y-81566666D02*
X103938152Y-81566666D01*
X103938152Y-81566666D02*
X104033390Y-81614285D01*
X104033390Y-81614285D02*
X104081009Y-81661904D01*
X104081009Y-81661904D02*
X104128628Y-81757142D01*
X104128628Y-81757142D02*
X104128628Y-82138094D01*
X104033390Y-80995237D02*
X103985771Y-81090475D01*
X103985771Y-81090475D02*
X103938152Y-81138094D01*
X103938152Y-81138094D02*
X103842914Y-81185713D01*
X103842914Y-81185713D02*
X103795295Y-81185713D01*
X103795295Y-81185713D02*
X103700057Y-81138094D01*
X103700057Y-81138094D02*
X103652438Y-81090475D01*
X103652438Y-81090475D02*
X103604819Y-80995237D01*
X103604819Y-80995237D02*
X103604819Y-80804761D01*
X103604819Y-80804761D02*
X103652438Y-80709523D01*
X103652438Y-80709523D02*
X103700057Y-80661904D01*
X103700057Y-80661904D02*
X103795295Y-80614285D01*
X103795295Y-80614285D02*
X103842914Y-80614285D01*
X103842914Y-80614285D02*
X103938152Y-80661904D01*
X103938152Y-80661904D02*
X103985771Y-80709523D01*
X103985771Y-80709523D02*
X104033390Y-80804761D01*
X104033390Y-80804761D02*
X104033390Y-80995237D01*
X104033390Y-80995237D02*
X104081009Y-81090475D01*
X104081009Y-81090475D02*
X104128628Y-81138094D01*
X104128628Y-81138094D02*
X104223866Y-81185713D01*
X104223866Y-81185713D02*
X104414342Y-81185713D01*
X104414342Y-81185713D02*
X104509580Y-81138094D01*
X104509580Y-81138094D02*
X104557200Y-81090475D01*
X104557200Y-81090475D02*
X104604819Y-80995237D01*
X104604819Y-80995237D02*
X104604819Y-80804761D01*
X104604819Y-80804761D02*
X104557200Y-80709523D01*
X104557200Y-80709523D02*
X104509580Y-80661904D01*
X104509580Y-80661904D02*
X104414342Y-80614285D01*
X104414342Y-80614285D02*
X104223866Y-80614285D01*
X104223866Y-80614285D02*
X104128628Y-80661904D01*
X104128628Y-80661904D02*
X104081009Y-80709523D01*
X104081009Y-80709523D02*
X104033390Y-80804761D01*
X75454819Y-99166666D02*
X75454819Y-99642856D01*
X75454819Y-99642856D02*
X74454819Y-99642856D01*
X74454819Y-98928570D02*
X74454819Y-98309523D01*
X74454819Y-98309523D02*
X74835771Y-98642856D01*
X74835771Y-98642856D02*
X74835771Y-98499999D01*
X74835771Y-98499999D02*
X74883390Y-98404761D01*
X74883390Y-98404761D02*
X74931009Y-98357142D01*
X74931009Y-98357142D02*
X75026247Y-98309523D01*
X75026247Y-98309523D02*
X75264342Y-98309523D01*
X75264342Y-98309523D02*
X75359580Y-98357142D01*
X75359580Y-98357142D02*
X75407200Y-98404761D01*
X75407200Y-98404761D02*
X75454819Y-98499999D01*
X75454819Y-98499999D02*
X75454819Y-98785713D01*
X75454819Y-98785713D02*
X75407200Y-98880951D01*
X75407200Y-98880951D02*
X75359580Y-98928570D01*
X89161905Y-120854819D02*
X89161905Y-119854819D01*
X89161905Y-119854819D02*
X89400000Y-119854819D01*
X89400000Y-119854819D02*
X89542857Y-119902438D01*
X89542857Y-119902438D02*
X89638095Y-119997676D01*
X89638095Y-119997676D02*
X89685714Y-120092914D01*
X89685714Y-120092914D02*
X89733333Y-120283390D01*
X89733333Y-120283390D02*
X89733333Y-120426247D01*
X89733333Y-120426247D02*
X89685714Y-120616723D01*
X89685714Y-120616723D02*
X89638095Y-120711961D01*
X89638095Y-120711961D02*
X89542857Y-120807200D01*
X89542857Y-120807200D02*
X89400000Y-120854819D01*
X89400000Y-120854819D02*
X89161905Y-120854819D01*
X90590476Y-120188152D02*
X90590476Y-120854819D01*
X90352381Y-119807200D02*
X90114286Y-120521485D01*
X90114286Y-120521485D02*
X90733333Y-120521485D01*
X77609580Y-121642857D02*
X77657200Y-121690476D01*
X77657200Y-121690476D02*
X77704819Y-121833333D01*
X77704819Y-121833333D02*
X77704819Y-121928571D01*
X77704819Y-121928571D02*
X77657200Y-122071428D01*
X77657200Y-122071428D02*
X77561961Y-122166666D01*
X77561961Y-122166666D02*
X77466723Y-122214285D01*
X77466723Y-122214285D02*
X77276247Y-122261904D01*
X77276247Y-122261904D02*
X77133390Y-122261904D01*
X77133390Y-122261904D02*
X76942914Y-122214285D01*
X76942914Y-122214285D02*
X76847676Y-122166666D01*
X76847676Y-122166666D02*
X76752438Y-122071428D01*
X76752438Y-122071428D02*
X76704819Y-121928571D01*
X76704819Y-121928571D02*
X76704819Y-121833333D01*
X76704819Y-121833333D02*
X76752438Y-121690476D01*
X76752438Y-121690476D02*
X76800057Y-121642857D01*
X76800057Y-121261904D02*
X76752438Y-121214285D01*
X76752438Y-121214285D02*
X76704819Y-121119047D01*
X76704819Y-121119047D02*
X76704819Y-120880952D01*
X76704819Y-120880952D02*
X76752438Y-120785714D01*
X76752438Y-120785714D02*
X76800057Y-120738095D01*
X76800057Y-120738095D02*
X76895295Y-120690476D01*
X76895295Y-120690476D02*
X76990533Y-120690476D01*
X76990533Y-120690476D02*
X77133390Y-120738095D01*
X77133390Y-120738095D02*
X77704819Y-121309523D01*
X77704819Y-121309523D02*
X77704819Y-120690476D01*
X77704819Y-119738095D02*
X77704819Y-120309523D01*
X77704819Y-120023809D02*
X76704819Y-120023809D01*
X76704819Y-120023809D02*
X76847676Y-120119047D01*
X76847676Y-120119047D02*
X76942914Y-120214285D01*
X76942914Y-120214285D02*
X76990533Y-120309523D01*
X115109580Y-121642857D02*
X115157200Y-121690476D01*
X115157200Y-121690476D02*
X115204819Y-121833333D01*
X115204819Y-121833333D02*
X115204819Y-121928571D01*
X115204819Y-121928571D02*
X115157200Y-122071428D01*
X115157200Y-122071428D02*
X115061961Y-122166666D01*
X115061961Y-122166666D02*
X114966723Y-122214285D01*
X114966723Y-122214285D02*
X114776247Y-122261904D01*
X114776247Y-122261904D02*
X114633390Y-122261904D01*
X114633390Y-122261904D02*
X114442914Y-122214285D01*
X114442914Y-122214285D02*
X114347676Y-122166666D01*
X114347676Y-122166666D02*
X114252438Y-122071428D01*
X114252438Y-122071428D02*
X114204819Y-121928571D01*
X114204819Y-121928571D02*
X114204819Y-121833333D01*
X114204819Y-121833333D02*
X114252438Y-121690476D01*
X114252438Y-121690476D02*
X114300057Y-121642857D01*
X114300057Y-121261904D02*
X114252438Y-121214285D01*
X114252438Y-121214285D02*
X114204819Y-121119047D01*
X114204819Y-121119047D02*
X114204819Y-120880952D01*
X114204819Y-120880952D02*
X114252438Y-120785714D01*
X114252438Y-120785714D02*
X114300057Y-120738095D01*
X114300057Y-120738095D02*
X114395295Y-120690476D01*
X114395295Y-120690476D02*
X114490533Y-120690476D01*
X114490533Y-120690476D02*
X114633390Y-120738095D01*
X114633390Y-120738095D02*
X115204819Y-121309523D01*
X115204819Y-121309523D02*
X115204819Y-120690476D01*
X114204819Y-120071428D02*
X114204819Y-119976190D01*
X114204819Y-119976190D02*
X114252438Y-119880952D01*
X114252438Y-119880952D02*
X114300057Y-119833333D01*
X114300057Y-119833333D02*
X114395295Y-119785714D01*
X114395295Y-119785714D02*
X114585771Y-119738095D01*
X114585771Y-119738095D02*
X114823866Y-119738095D01*
X114823866Y-119738095D02*
X115014342Y-119785714D01*
X115014342Y-119785714D02*
X115109580Y-119833333D01*
X115109580Y-119833333D02*
X115157200Y-119880952D01*
X115157200Y-119880952D02*
X115204819Y-119976190D01*
X115204819Y-119976190D02*
X115204819Y-120071428D01*
X115204819Y-120071428D02*
X115157200Y-120166666D01*
X115157200Y-120166666D02*
X115109580Y-120214285D01*
X115109580Y-120214285D02*
X115014342Y-120261904D01*
X115014342Y-120261904D02*
X114823866Y-120309523D01*
X114823866Y-120309523D02*
X114585771Y-120309523D01*
X114585771Y-120309523D02*
X114395295Y-120261904D01*
X114395295Y-120261904D02*
X114300057Y-120214285D01*
X114300057Y-120214285D02*
X114252438Y-120166666D01*
X114252438Y-120166666D02*
X114204819Y-120071428D01*
X118657142Y-80809580D02*
X118609523Y-80857200D01*
X118609523Y-80857200D02*
X118466666Y-80904819D01*
X118466666Y-80904819D02*
X118371428Y-80904819D01*
X118371428Y-80904819D02*
X118228571Y-80857200D01*
X118228571Y-80857200D02*
X118133333Y-80761961D01*
X118133333Y-80761961D02*
X118085714Y-80666723D01*
X118085714Y-80666723D02*
X118038095Y-80476247D01*
X118038095Y-80476247D02*
X118038095Y-80333390D01*
X118038095Y-80333390D02*
X118085714Y-80142914D01*
X118085714Y-80142914D02*
X118133333Y-80047676D01*
X118133333Y-80047676D02*
X118228571Y-79952438D01*
X118228571Y-79952438D02*
X118371428Y-79904819D01*
X118371428Y-79904819D02*
X118466666Y-79904819D01*
X118466666Y-79904819D02*
X118609523Y-79952438D01*
X118609523Y-79952438D02*
X118657142Y-80000057D01*
X119609523Y-80904819D02*
X119038095Y-80904819D01*
X119323809Y-80904819D02*
X119323809Y-79904819D01*
X119323809Y-79904819D02*
X119228571Y-80047676D01*
X119228571Y-80047676D02*
X119133333Y-80142914D01*
X119133333Y-80142914D02*
X119038095Y-80190533D01*
X120085714Y-80904819D02*
X120276190Y-80904819D01*
X120276190Y-80904819D02*
X120371428Y-80857200D01*
X120371428Y-80857200D02*
X120419047Y-80809580D01*
X120419047Y-80809580D02*
X120514285Y-80666723D01*
X120514285Y-80666723D02*
X120561904Y-80476247D01*
X120561904Y-80476247D02*
X120561904Y-80095295D01*
X120561904Y-80095295D02*
X120514285Y-80000057D01*
X120514285Y-80000057D02*
X120466666Y-79952438D01*
X120466666Y-79952438D02*
X120371428Y-79904819D01*
X120371428Y-79904819D02*
X120180952Y-79904819D01*
X120180952Y-79904819D02*
X120085714Y-79952438D01*
X120085714Y-79952438D02*
X120038095Y-80000057D01*
X120038095Y-80000057D02*
X119990476Y-80095295D01*
X119990476Y-80095295D02*
X119990476Y-80333390D01*
X119990476Y-80333390D02*
X120038095Y-80428628D01*
X120038095Y-80428628D02*
X120085714Y-80476247D01*
X120085714Y-80476247D02*
X120180952Y-80523866D01*
X120180952Y-80523866D02*
X120371428Y-80523866D01*
X120371428Y-80523866D02*
X120466666Y-80476247D01*
X120466666Y-80476247D02*
X120514285Y-80428628D01*
X120514285Y-80428628D02*
X120561904Y-80333390D01*
X83857142Y-142359580D02*
X83809523Y-142407200D01*
X83809523Y-142407200D02*
X83666666Y-142454819D01*
X83666666Y-142454819D02*
X83571428Y-142454819D01*
X83571428Y-142454819D02*
X83428571Y-142407200D01*
X83428571Y-142407200D02*
X83333333Y-142311961D01*
X83333333Y-142311961D02*
X83285714Y-142216723D01*
X83285714Y-142216723D02*
X83238095Y-142026247D01*
X83238095Y-142026247D02*
X83238095Y-141883390D01*
X83238095Y-141883390D02*
X83285714Y-141692914D01*
X83285714Y-141692914D02*
X83333333Y-141597676D01*
X83333333Y-141597676D02*
X83428571Y-141502438D01*
X83428571Y-141502438D02*
X83571428Y-141454819D01*
X83571428Y-141454819D02*
X83666666Y-141454819D01*
X83666666Y-141454819D02*
X83809523Y-141502438D01*
X83809523Y-141502438D02*
X83857142Y-141550057D01*
X84809523Y-142454819D02*
X84238095Y-142454819D01*
X84523809Y-142454819D02*
X84523809Y-141454819D01*
X84523809Y-141454819D02*
X84428571Y-141597676D01*
X84428571Y-141597676D02*
X84333333Y-141692914D01*
X84333333Y-141692914D02*
X84238095Y-141740533D01*
X85380952Y-141883390D02*
X85285714Y-141835771D01*
X85285714Y-141835771D02*
X85238095Y-141788152D01*
X85238095Y-141788152D02*
X85190476Y-141692914D01*
X85190476Y-141692914D02*
X85190476Y-141645295D01*
X85190476Y-141645295D02*
X85238095Y-141550057D01*
X85238095Y-141550057D02*
X85285714Y-141502438D01*
X85285714Y-141502438D02*
X85380952Y-141454819D01*
X85380952Y-141454819D02*
X85571428Y-141454819D01*
X85571428Y-141454819D02*
X85666666Y-141502438D01*
X85666666Y-141502438D02*
X85714285Y-141550057D01*
X85714285Y-141550057D02*
X85761904Y-141645295D01*
X85761904Y-141645295D02*
X85761904Y-141692914D01*
X85761904Y-141692914D02*
X85714285Y-141788152D01*
X85714285Y-141788152D02*
X85666666Y-141835771D01*
X85666666Y-141835771D02*
X85571428Y-141883390D01*
X85571428Y-141883390D02*
X85380952Y-141883390D01*
X85380952Y-141883390D02*
X85285714Y-141931009D01*
X85285714Y-141931009D02*
X85238095Y-141978628D01*
X85238095Y-141978628D02*
X85190476Y-142073866D01*
X85190476Y-142073866D02*
X85190476Y-142264342D01*
X85190476Y-142264342D02*
X85238095Y-142359580D01*
X85238095Y-142359580D02*
X85285714Y-142407200D01*
X85285714Y-142407200D02*
X85380952Y-142454819D01*
X85380952Y-142454819D02*
X85571428Y-142454819D01*
X85571428Y-142454819D02*
X85666666Y-142407200D01*
X85666666Y-142407200D02*
X85714285Y-142359580D01*
X85714285Y-142359580D02*
X85761904Y-142264342D01*
X85761904Y-142264342D02*
X85761904Y-142073866D01*
X85761904Y-142073866D02*
X85714285Y-141978628D01*
X85714285Y-141978628D02*
X85666666Y-141931009D01*
X85666666Y-141931009D02*
X85571428Y-141883390D01*
X70857142Y-142359580D02*
X70809523Y-142407200D01*
X70809523Y-142407200D02*
X70666666Y-142454819D01*
X70666666Y-142454819D02*
X70571428Y-142454819D01*
X70571428Y-142454819D02*
X70428571Y-142407200D01*
X70428571Y-142407200D02*
X70333333Y-142311961D01*
X70333333Y-142311961D02*
X70285714Y-142216723D01*
X70285714Y-142216723D02*
X70238095Y-142026247D01*
X70238095Y-142026247D02*
X70238095Y-141883390D01*
X70238095Y-141883390D02*
X70285714Y-141692914D01*
X70285714Y-141692914D02*
X70333333Y-141597676D01*
X70333333Y-141597676D02*
X70428571Y-141502438D01*
X70428571Y-141502438D02*
X70571428Y-141454819D01*
X70571428Y-141454819D02*
X70666666Y-141454819D01*
X70666666Y-141454819D02*
X70809523Y-141502438D01*
X70809523Y-141502438D02*
X70857142Y-141550057D01*
X71809523Y-142454819D02*
X71238095Y-142454819D01*
X71523809Y-142454819D02*
X71523809Y-141454819D01*
X71523809Y-141454819D02*
X71428571Y-141597676D01*
X71428571Y-141597676D02*
X71333333Y-141692914D01*
X71333333Y-141692914D02*
X71238095Y-141740533D01*
X72142857Y-141454819D02*
X72809523Y-141454819D01*
X72809523Y-141454819D02*
X72380952Y-142454819D01*
X83857142Y-134359580D02*
X83809523Y-134407200D01*
X83809523Y-134407200D02*
X83666666Y-134454819D01*
X83666666Y-134454819D02*
X83571428Y-134454819D01*
X83571428Y-134454819D02*
X83428571Y-134407200D01*
X83428571Y-134407200D02*
X83333333Y-134311961D01*
X83333333Y-134311961D02*
X83285714Y-134216723D01*
X83285714Y-134216723D02*
X83238095Y-134026247D01*
X83238095Y-134026247D02*
X83238095Y-133883390D01*
X83238095Y-133883390D02*
X83285714Y-133692914D01*
X83285714Y-133692914D02*
X83333333Y-133597676D01*
X83333333Y-133597676D02*
X83428571Y-133502438D01*
X83428571Y-133502438D02*
X83571428Y-133454819D01*
X83571428Y-133454819D02*
X83666666Y-133454819D01*
X83666666Y-133454819D02*
X83809523Y-133502438D01*
X83809523Y-133502438D02*
X83857142Y-133550057D01*
X84809523Y-134454819D02*
X84238095Y-134454819D01*
X84523809Y-134454819D02*
X84523809Y-133454819D01*
X84523809Y-133454819D02*
X84428571Y-133597676D01*
X84428571Y-133597676D02*
X84333333Y-133692914D01*
X84333333Y-133692914D02*
X84238095Y-133740533D01*
X85666666Y-133454819D02*
X85476190Y-133454819D01*
X85476190Y-133454819D02*
X85380952Y-133502438D01*
X85380952Y-133502438D02*
X85333333Y-133550057D01*
X85333333Y-133550057D02*
X85238095Y-133692914D01*
X85238095Y-133692914D02*
X85190476Y-133883390D01*
X85190476Y-133883390D02*
X85190476Y-134264342D01*
X85190476Y-134264342D02*
X85238095Y-134359580D01*
X85238095Y-134359580D02*
X85285714Y-134407200D01*
X85285714Y-134407200D02*
X85380952Y-134454819D01*
X85380952Y-134454819D02*
X85571428Y-134454819D01*
X85571428Y-134454819D02*
X85666666Y-134407200D01*
X85666666Y-134407200D02*
X85714285Y-134359580D01*
X85714285Y-134359580D02*
X85761904Y-134264342D01*
X85761904Y-134264342D02*
X85761904Y-134026247D01*
X85761904Y-134026247D02*
X85714285Y-133931009D01*
X85714285Y-133931009D02*
X85666666Y-133883390D01*
X85666666Y-133883390D02*
X85571428Y-133835771D01*
X85571428Y-133835771D02*
X85380952Y-133835771D01*
X85380952Y-133835771D02*
X85285714Y-133883390D01*
X85285714Y-133883390D02*
X85238095Y-133931009D01*
X85238095Y-133931009D02*
X85190476Y-134026247D01*
X70857142Y-134359580D02*
X70809523Y-134407200D01*
X70809523Y-134407200D02*
X70666666Y-134454819D01*
X70666666Y-134454819D02*
X70571428Y-134454819D01*
X70571428Y-134454819D02*
X70428571Y-134407200D01*
X70428571Y-134407200D02*
X70333333Y-134311961D01*
X70333333Y-134311961D02*
X70285714Y-134216723D01*
X70285714Y-134216723D02*
X70238095Y-134026247D01*
X70238095Y-134026247D02*
X70238095Y-133883390D01*
X70238095Y-133883390D02*
X70285714Y-133692914D01*
X70285714Y-133692914D02*
X70333333Y-133597676D01*
X70333333Y-133597676D02*
X70428571Y-133502438D01*
X70428571Y-133502438D02*
X70571428Y-133454819D01*
X70571428Y-133454819D02*
X70666666Y-133454819D01*
X70666666Y-133454819D02*
X70809523Y-133502438D01*
X70809523Y-133502438D02*
X70857142Y-133550057D01*
X71809523Y-134454819D02*
X71238095Y-134454819D01*
X71523809Y-134454819D02*
X71523809Y-133454819D01*
X71523809Y-133454819D02*
X71428571Y-133597676D01*
X71428571Y-133597676D02*
X71333333Y-133692914D01*
X71333333Y-133692914D02*
X71238095Y-133740533D01*
X72714285Y-133454819D02*
X72238095Y-133454819D01*
X72238095Y-133454819D02*
X72190476Y-133931009D01*
X72190476Y-133931009D02*
X72238095Y-133883390D01*
X72238095Y-133883390D02*
X72333333Y-133835771D01*
X72333333Y-133835771D02*
X72571428Y-133835771D01*
X72571428Y-133835771D02*
X72666666Y-133883390D01*
X72666666Y-133883390D02*
X72714285Y-133931009D01*
X72714285Y-133931009D02*
X72761904Y-134026247D01*
X72761904Y-134026247D02*
X72761904Y-134264342D01*
X72761904Y-134264342D02*
X72714285Y-134359580D01*
X72714285Y-134359580D02*
X72666666Y-134407200D01*
X72666666Y-134407200D02*
X72571428Y-134454819D01*
X72571428Y-134454819D02*
X72333333Y-134454819D01*
X72333333Y-134454819D02*
X72238095Y-134407200D01*
X72238095Y-134407200D02*
X72190476Y-134359580D01*
X127857142Y-134609580D02*
X127809523Y-134657200D01*
X127809523Y-134657200D02*
X127666666Y-134704819D01*
X127666666Y-134704819D02*
X127571428Y-134704819D01*
X127571428Y-134704819D02*
X127428571Y-134657200D01*
X127428571Y-134657200D02*
X127333333Y-134561961D01*
X127333333Y-134561961D02*
X127285714Y-134466723D01*
X127285714Y-134466723D02*
X127238095Y-134276247D01*
X127238095Y-134276247D02*
X127238095Y-134133390D01*
X127238095Y-134133390D02*
X127285714Y-133942914D01*
X127285714Y-133942914D02*
X127333333Y-133847676D01*
X127333333Y-133847676D02*
X127428571Y-133752438D01*
X127428571Y-133752438D02*
X127571428Y-133704819D01*
X127571428Y-133704819D02*
X127666666Y-133704819D01*
X127666666Y-133704819D02*
X127809523Y-133752438D01*
X127809523Y-133752438D02*
X127857142Y-133800057D01*
X128809523Y-134704819D02*
X128238095Y-134704819D01*
X128523809Y-134704819D02*
X128523809Y-133704819D01*
X128523809Y-133704819D02*
X128428571Y-133847676D01*
X128428571Y-133847676D02*
X128333333Y-133942914D01*
X128333333Y-133942914D02*
X128238095Y-133990533D01*
X129142857Y-133704819D02*
X129761904Y-133704819D01*
X129761904Y-133704819D02*
X129428571Y-134085771D01*
X129428571Y-134085771D02*
X129571428Y-134085771D01*
X129571428Y-134085771D02*
X129666666Y-134133390D01*
X129666666Y-134133390D02*
X129714285Y-134181009D01*
X129714285Y-134181009D02*
X129761904Y-134276247D01*
X129761904Y-134276247D02*
X129761904Y-134514342D01*
X129761904Y-134514342D02*
X129714285Y-134609580D01*
X129714285Y-134609580D02*
X129666666Y-134657200D01*
X129666666Y-134657200D02*
X129571428Y-134704819D01*
X129571428Y-134704819D02*
X129285714Y-134704819D01*
X129285714Y-134704819D02*
X129190476Y-134657200D01*
X129190476Y-134657200D02*
X129142857Y-134609580D01*
X114857142Y-134609580D02*
X114809523Y-134657200D01*
X114809523Y-134657200D02*
X114666666Y-134704819D01*
X114666666Y-134704819D02*
X114571428Y-134704819D01*
X114571428Y-134704819D02*
X114428571Y-134657200D01*
X114428571Y-134657200D02*
X114333333Y-134561961D01*
X114333333Y-134561961D02*
X114285714Y-134466723D01*
X114285714Y-134466723D02*
X114238095Y-134276247D01*
X114238095Y-134276247D02*
X114238095Y-134133390D01*
X114238095Y-134133390D02*
X114285714Y-133942914D01*
X114285714Y-133942914D02*
X114333333Y-133847676D01*
X114333333Y-133847676D02*
X114428571Y-133752438D01*
X114428571Y-133752438D02*
X114571428Y-133704819D01*
X114571428Y-133704819D02*
X114666666Y-133704819D01*
X114666666Y-133704819D02*
X114809523Y-133752438D01*
X114809523Y-133752438D02*
X114857142Y-133800057D01*
X115809523Y-134704819D02*
X115238095Y-134704819D01*
X115523809Y-134704819D02*
X115523809Y-133704819D01*
X115523809Y-133704819D02*
X115428571Y-133847676D01*
X115428571Y-133847676D02*
X115333333Y-133942914D01*
X115333333Y-133942914D02*
X115238095Y-133990533D01*
X116190476Y-133800057D02*
X116238095Y-133752438D01*
X116238095Y-133752438D02*
X116333333Y-133704819D01*
X116333333Y-133704819D02*
X116571428Y-133704819D01*
X116571428Y-133704819D02*
X116666666Y-133752438D01*
X116666666Y-133752438D02*
X116714285Y-133800057D01*
X116714285Y-133800057D02*
X116761904Y-133895295D01*
X116761904Y-133895295D02*
X116761904Y-133990533D01*
X116761904Y-133990533D02*
X116714285Y-134133390D01*
X116714285Y-134133390D02*
X116142857Y-134704819D01*
X116142857Y-134704819D02*
X116761904Y-134704819D01*
X86359580Y-103642857D02*
X86407200Y-103690476D01*
X86407200Y-103690476D02*
X86454819Y-103833333D01*
X86454819Y-103833333D02*
X86454819Y-103928571D01*
X86454819Y-103928571D02*
X86407200Y-104071428D01*
X86407200Y-104071428D02*
X86311961Y-104166666D01*
X86311961Y-104166666D02*
X86216723Y-104214285D01*
X86216723Y-104214285D02*
X86026247Y-104261904D01*
X86026247Y-104261904D02*
X85883390Y-104261904D01*
X85883390Y-104261904D02*
X85692914Y-104214285D01*
X85692914Y-104214285D02*
X85597676Y-104166666D01*
X85597676Y-104166666D02*
X85502438Y-104071428D01*
X85502438Y-104071428D02*
X85454819Y-103928571D01*
X85454819Y-103928571D02*
X85454819Y-103833333D01*
X85454819Y-103833333D02*
X85502438Y-103690476D01*
X85502438Y-103690476D02*
X85550057Y-103642857D01*
X86454819Y-102690476D02*
X86454819Y-103261904D01*
X86454819Y-102976190D02*
X85454819Y-102976190D01*
X85454819Y-102976190D02*
X85597676Y-103071428D01*
X85597676Y-103071428D02*
X85692914Y-103166666D01*
X85692914Y-103166666D02*
X85740533Y-103261904D01*
X85454819Y-102071428D02*
X85454819Y-101976190D01*
X85454819Y-101976190D02*
X85502438Y-101880952D01*
X85502438Y-101880952D02*
X85550057Y-101833333D01*
X85550057Y-101833333D02*
X85645295Y-101785714D01*
X85645295Y-101785714D02*
X85835771Y-101738095D01*
X85835771Y-101738095D02*
X86073866Y-101738095D01*
X86073866Y-101738095D02*
X86264342Y-101785714D01*
X86264342Y-101785714D02*
X86359580Y-101833333D01*
X86359580Y-101833333D02*
X86407200Y-101880952D01*
X86407200Y-101880952D02*
X86454819Y-101976190D01*
X86454819Y-101976190D02*
X86454819Y-102071428D01*
X86454819Y-102071428D02*
X86407200Y-102166666D01*
X86407200Y-102166666D02*
X86359580Y-102214285D01*
X86359580Y-102214285D02*
X86264342Y-102261904D01*
X86264342Y-102261904D02*
X86073866Y-102309523D01*
X86073866Y-102309523D02*
X85835771Y-102309523D01*
X85835771Y-102309523D02*
X85645295Y-102261904D01*
X85645295Y-102261904D02*
X85550057Y-102214285D01*
X85550057Y-102214285D02*
X85502438Y-102166666D01*
X85502438Y-102166666D02*
X85454819Y-102071428D01*
X86359580Y-99166666D02*
X86407200Y-99214285D01*
X86407200Y-99214285D02*
X86454819Y-99357142D01*
X86454819Y-99357142D02*
X86454819Y-99452380D01*
X86454819Y-99452380D02*
X86407200Y-99595237D01*
X86407200Y-99595237D02*
X86311961Y-99690475D01*
X86311961Y-99690475D02*
X86216723Y-99738094D01*
X86216723Y-99738094D02*
X86026247Y-99785713D01*
X86026247Y-99785713D02*
X85883390Y-99785713D01*
X85883390Y-99785713D02*
X85692914Y-99738094D01*
X85692914Y-99738094D02*
X85597676Y-99690475D01*
X85597676Y-99690475D02*
X85502438Y-99595237D01*
X85502438Y-99595237D02*
X85454819Y-99452380D01*
X85454819Y-99452380D02*
X85454819Y-99357142D01*
X85454819Y-99357142D02*
X85502438Y-99214285D01*
X85502438Y-99214285D02*
X85550057Y-99166666D01*
X86454819Y-98690475D02*
X86454819Y-98499999D01*
X86454819Y-98499999D02*
X86407200Y-98404761D01*
X86407200Y-98404761D02*
X86359580Y-98357142D01*
X86359580Y-98357142D02*
X86216723Y-98261904D01*
X86216723Y-98261904D02*
X86026247Y-98214285D01*
X86026247Y-98214285D02*
X85645295Y-98214285D01*
X85645295Y-98214285D02*
X85550057Y-98261904D01*
X85550057Y-98261904D02*
X85502438Y-98309523D01*
X85502438Y-98309523D02*
X85454819Y-98404761D01*
X85454819Y-98404761D02*
X85454819Y-98595237D01*
X85454819Y-98595237D02*
X85502438Y-98690475D01*
X85502438Y-98690475D02*
X85550057Y-98738094D01*
X85550057Y-98738094D02*
X85645295Y-98785713D01*
X85645295Y-98785713D02*
X85883390Y-98785713D01*
X85883390Y-98785713D02*
X85978628Y-98738094D01*
X85978628Y-98738094D02*
X86026247Y-98690475D01*
X86026247Y-98690475D02*
X86073866Y-98595237D01*
X86073866Y-98595237D02*
X86073866Y-98404761D01*
X86073866Y-98404761D02*
X86026247Y-98309523D01*
X86026247Y-98309523D02*
X85978628Y-98261904D01*
X85978628Y-98261904D02*
X85883390Y-98214285D01*
X106359580Y-99166666D02*
X106407200Y-99214285D01*
X106407200Y-99214285D02*
X106454819Y-99357142D01*
X106454819Y-99357142D02*
X106454819Y-99452380D01*
X106454819Y-99452380D02*
X106407200Y-99595237D01*
X106407200Y-99595237D02*
X106311961Y-99690475D01*
X106311961Y-99690475D02*
X106216723Y-99738094D01*
X106216723Y-99738094D02*
X106026247Y-99785713D01*
X106026247Y-99785713D02*
X105883390Y-99785713D01*
X105883390Y-99785713D02*
X105692914Y-99738094D01*
X105692914Y-99738094D02*
X105597676Y-99690475D01*
X105597676Y-99690475D02*
X105502438Y-99595237D01*
X105502438Y-99595237D02*
X105454819Y-99452380D01*
X105454819Y-99452380D02*
X105454819Y-99357142D01*
X105454819Y-99357142D02*
X105502438Y-99214285D01*
X105502438Y-99214285D02*
X105550057Y-99166666D01*
X105883390Y-98595237D02*
X105835771Y-98690475D01*
X105835771Y-98690475D02*
X105788152Y-98738094D01*
X105788152Y-98738094D02*
X105692914Y-98785713D01*
X105692914Y-98785713D02*
X105645295Y-98785713D01*
X105645295Y-98785713D02*
X105550057Y-98738094D01*
X105550057Y-98738094D02*
X105502438Y-98690475D01*
X105502438Y-98690475D02*
X105454819Y-98595237D01*
X105454819Y-98595237D02*
X105454819Y-98404761D01*
X105454819Y-98404761D02*
X105502438Y-98309523D01*
X105502438Y-98309523D02*
X105550057Y-98261904D01*
X105550057Y-98261904D02*
X105645295Y-98214285D01*
X105645295Y-98214285D02*
X105692914Y-98214285D01*
X105692914Y-98214285D02*
X105788152Y-98261904D01*
X105788152Y-98261904D02*
X105835771Y-98309523D01*
X105835771Y-98309523D02*
X105883390Y-98404761D01*
X105883390Y-98404761D02*
X105883390Y-98595237D01*
X105883390Y-98595237D02*
X105931009Y-98690475D01*
X105931009Y-98690475D02*
X105978628Y-98738094D01*
X105978628Y-98738094D02*
X106073866Y-98785713D01*
X106073866Y-98785713D02*
X106264342Y-98785713D01*
X106264342Y-98785713D02*
X106359580Y-98738094D01*
X106359580Y-98738094D02*
X106407200Y-98690475D01*
X106407200Y-98690475D02*
X106454819Y-98595237D01*
X106454819Y-98595237D02*
X106454819Y-98404761D01*
X106454819Y-98404761D02*
X106407200Y-98309523D01*
X106407200Y-98309523D02*
X106359580Y-98261904D01*
X106359580Y-98261904D02*
X106264342Y-98214285D01*
X106264342Y-98214285D02*
X106073866Y-98214285D01*
X106073866Y-98214285D02*
X105978628Y-98261904D01*
X105978628Y-98261904D02*
X105931009Y-98309523D01*
X105931009Y-98309523D02*
X105883390Y-98404761D01*
X106359580Y-103166666D02*
X106407200Y-103214285D01*
X106407200Y-103214285D02*
X106454819Y-103357142D01*
X106454819Y-103357142D02*
X106454819Y-103452380D01*
X106454819Y-103452380D02*
X106407200Y-103595237D01*
X106407200Y-103595237D02*
X106311961Y-103690475D01*
X106311961Y-103690475D02*
X106216723Y-103738094D01*
X106216723Y-103738094D02*
X106026247Y-103785713D01*
X106026247Y-103785713D02*
X105883390Y-103785713D01*
X105883390Y-103785713D02*
X105692914Y-103738094D01*
X105692914Y-103738094D02*
X105597676Y-103690475D01*
X105597676Y-103690475D02*
X105502438Y-103595237D01*
X105502438Y-103595237D02*
X105454819Y-103452380D01*
X105454819Y-103452380D02*
X105454819Y-103357142D01*
X105454819Y-103357142D02*
X105502438Y-103214285D01*
X105502438Y-103214285D02*
X105550057Y-103166666D01*
X105454819Y-102833332D02*
X105454819Y-102166666D01*
X105454819Y-102166666D02*
X106454819Y-102595237D01*
X115333333Y-142109580D02*
X115285714Y-142157200D01*
X115285714Y-142157200D02*
X115142857Y-142204819D01*
X115142857Y-142204819D02*
X115047619Y-142204819D01*
X115047619Y-142204819D02*
X114904762Y-142157200D01*
X114904762Y-142157200D02*
X114809524Y-142061961D01*
X114809524Y-142061961D02*
X114761905Y-141966723D01*
X114761905Y-141966723D02*
X114714286Y-141776247D01*
X114714286Y-141776247D02*
X114714286Y-141633390D01*
X114714286Y-141633390D02*
X114761905Y-141442914D01*
X114761905Y-141442914D02*
X114809524Y-141347676D01*
X114809524Y-141347676D02*
X114904762Y-141252438D01*
X114904762Y-141252438D02*
X115047619Y-141204819D01*
X115047619Y-141204819D02*
X115142857Y-141204819D01*
X115142857Y-141204819D02*
X115285714Y-141252438D01*
X115285714Y-141252438D02*
X115333333Y-141300057D01*
X116285714Y-142204819D02*
X115714286Y-142204819D01*
X116000000Y-142204819D02*
X116000000Y-141204819D01*
X116000000Y-141204819D02*
X115904762Y-141347676D01*
X115904762Y-141347676D02*
X115809524Y-141442914D01*
X115809524Y-141442914D02*
X115714286Y-141490533D01*
X62249405Y-77742319D02*
X62249405Y-76742319D01*
X62249405Y-76742319D02*
X62487500Y-76742319D01*
X62487500Y-76742319D02*
X62630357Y-76789938D01*
X62630357Y-76789938D02*
X62725595Y-76885176D01*
X62725595Y-76885176D02*
X62773214Y-76980414D01*
X62773214Y-76980414D02*
X62820833Y-77170890D01*
X62820833Y-77170890D02*
X62820833Y-77313747D01*
X62820833Y-77313747D02*
X62773214Y-77504223D01*
X62773214Y-77504223D02*
X62725595Y-77599461D01*
X62725595Y-77599461D02*
X62630357Y-77694700D01*
X62630357Y-77694700D02*
X62487500Y-77742319D01*
X62487500Y-77742319D02*
X62249405Y-77742319D01*
X63154167Y-76742319D02*
X63773214Y-76742319D01*
X63773214Y-76742319D02*
X63439881Y-77123271D01*
X63439881Y-77123271D02*
X63582738Y-77123271D01*
X63582738Y-77123271D02*
X63677976Y-77170890D01*
X63677976Y-77170890D02*
X63725595Y-77218509D01*
X63725595Y-77218509D02*
X63773214Y-77313747D01*
X63773214Y-77313747D02*
X63773214Y-77551842D01*
X63773214Y-77551842D02*
X63725595Y-77647080D01*
X63725595Y-77647080D02*
X63677976Y-77694700D01*
X63677976Y-77694700D02*
X63582738Y-77742319D01*
X63582738Y-77742319D02*
X63297024Y-77742319D01*
X63297024Y-77742319D02*
X63201786Y-77694700D01*
X63201786Y-77694700D02*
X63154167Y-77647080D01*
X107907200Y-71333332D02*
X107954819Y-71190475D01*
X107954819Y-71190475D02*
X107954819Y-70952380D01*
X107954819Y-70952380D02*
X107907200Y-70857142D01*
X107907200Y-70857142D02*
X107859580Y-70809523D01*
X107859580Y-70809523D02*
X107764342Y-70761904D01*
X107764342Y-70761904D02*
X107669104Y-70761904D01*
X107669104Y-70761904D02*
X107573866Y-70809523D01*
X107573866Y-70809523D02*
X107526247Y-70857142D01*
X107526247Y-70857142D02*
X107478628Y-70952380D01*
X107478628Y-70952380D02*
X107431009Y-71142856D01*
X107431009Y-71142856D02*
X107383390Y-71238094D01*
X107383390Y-71238094D02*
X107335771Y-71285713D01*
X107335771Y-71285713D02*
X107240533Y-71333332D01*
X107240533Y-71333332D02*
X107145295Y-71333332D01*
X107145295Y-71333332D02*
X107050057Y-71285713D01*
X107050057Y-71285713D02*
X107002438Y-71238094D01*
X107002438Y-71238094D02*
X106954819Y-71142856D01*
X106954819Y-71142856D02*
X106954819Y-70904761D01*
X106954819Y-70904761D02*
X107002438Y-70761904D01*
X106954819Y-70428570D02*
X107954819Y-70190475D01*
X107954819Y-70190475D02*
X107240533Y-69999999D01*
X107240533Y-69999999D02*
X107954819Y-69809523D01*
X107954819Y-69809523D02*
X106954819Y-69571428D01*
X107954819Y-68666666D02*
X107954819Y-69238094D01*
X107954819Y-68952380D02*
X106954819Y-68952380D01*
X106954819Y-68952380D02*
X107097676Y-69047618D01*
X107097676Y-69047618D02*
X107192914Y-69142856D01*
X107192914Y-69142856D02*
X107240533Y-69238094D01*
X62469642Y-70342319D02*
X62136309Y-69866128D01*
X61898214Y-70342319D02*
X61898214Y-69342319D01*
X61898214Y-69342319D02*
X62279166Y-69342319D01*
X62279166Y-69342319D02*
X62374404Y-69389938D01*
X62374404Y-69389938D02*
X62422023Y-69437557D01*
X62422023Y-69437557D02*
X62469642Y-69532795D01*
X62469642Y-69532795D02*
X62469642Y-69675652D01*
X62469642Y-69675652D02*
X62422023Y-69770890D01*
X62422023Y-69770890D02*
X62374404Y-69818509D01*
X62374404Y-69818509D02*
X62279166Y-69866128D01*
X62279166Y-69866128D02*
X61898214Y-69866128D01*
X63422023Y-70342319D02*
X62850595Y-70342319D01*
X63136309Y-70342319D02*
X63136309Y-69342319D01*
X63136309Y-69342319D02*
X63041071Y-69485176D01*
X63041071Y-69485176D02*
X62945833Y-69580414D01*
X62945833Y-69580414D02*
X62850595Y-69628033D01*
X63755357Y-69342319D02*
X64374404Y-69342319D01*
X64374404Y-69342319D02*
X64041071Y-69723271D01*
X64041071Y-69723271D02*
X64183928Y-69723271D01*
X64183928Y-69723271D02*
X64279166Y-69770890D01*
X64279166Y-69770890D02*
X64326785Y-69818509D01*
X64326785Y-69818509D02*
X64374404Y-69913747D01*
X64374404Y-69913747D02*
X64374404Y-70151842D01*
X64374404Y-70151842D02*
X64326785Y-70247080D01*
X64326785Y-70247080D02*
X64279166Y-70294700D01*
X64279166Y-70294700D02*
X64183928Y-70342319D01*
X64183928Y-70342319D02*
X63898214Y-70342319D01*
X63898214Y-70342319D02*
X63802976Y-70294700D01*
X63802976Y-70294700D02*
X63755357Y-70247080D01*
X88490476Y-143454819D02*
X88490476Y-144169104D01*
X88490476Y-144169104D02*
X88442857Y-144311961D01*
X88442857Y-144311961D02*
X88347619Y-144407200D01*
X88347619Y-144407200D02*
X88204762Y-144454819D01*
X88204762Y-144454819D02*
X88109524Y-144454819D01*
X89490476Y-144454819D02*
X88919048Y-144454819D01*
X89204762Y-144454819D02*
X89204762Y-143454819D01*
X89204762Y-143454819D02*
X89109524Y-143597676D01*
X89109524Y-143597676D02*
X89014286Y-143692914D01*
X89014286Y-143692914D02*
X88919048Y-143740533D01*
X89871429Y-143550057D02*
X89919048Y-143502438D01*
X89919048Y-143502438D02*
X90014286Y-143454819D01*
X90014286Y-143454819D02*
X90252381Y-143454819D01*
X90252381Y-143454819D02*
X90347619Y-143502438D01*
X90347619Y-143502438D02*
X90395238Y-143550057D01*
X90395238Y-143550057D02*
X90442857Y-143645295D01*
X90442857Y-143645295D02*
X90442857Y-143740533D01*
X90442857Y-143740533D02*
X90395238Y-143883390D01*
X90395238Y-143883390D02*
X89823810Y-144454819D01*
X89823810Y-144454819D02*
X90442857Y-144454819D01*
X125704819Y-99166666D02*
X125704819Y-99642856D01*
X125704819Y-99642856D02*
X124704819Y-99642856D01*
X124800057Y-98880951D02*
X124752438Y-98833332D01*
X124752438Y-98833332D02*
X124704819Y-98738094D01*
X124704819Y-98738094D02*
X124704819Y-98499999D01*
X124704819Y-98499999D02*
X124752438Y-98404761D01*
X124752438Y-98404761D02*
X124800057Y-98357142D01*
X124800057Y-98357142D02*
X124895295Y-98309523D01*
X124895295Y-98309523D02*
X124990533Y-98309523D01*
X124990533Y-98309523D02*
X125133390Y-98357142D01*
X125133390Y-98357142D02*
X125704819Y-98928570D01*
X125704819Y-98928570D02*
X125704819Y-98309523D01*
X109511905Y-120454819D02*
X109511905Y-119454819D01*
X109511905Y-119454819D02*
X109750000Y-119454819D01*
X109750000Y-119454819D02*
X109892857Y-119502438D01*
X109892857Y-119502438D02*
X109988095Y-119597676D01*
X109988095Y-119597676D02*
X110035714Y-119692914D01*
X110035714Y-119692914D02*
X110083333Y-119883390D01*
X110083333Y-119883390D02*
X110083333Y-120026247D01*
X110083333Y-120026247D02*
X110035714Y-120216723D01*
X110035714Y-120216723D02*
X109988095Y-120311961D01*
X109988095Y-120311961D02*
X109892857Y-120407200D01*
X109892857Y-120407200D02*
X109750000Y-120454819D01*
X109750000Y-120454819D02*
X109511905Y-120454819D01*
X110464286Y-119550057D02*
X110511905Y-119502438D01*
X110511905Y-119502438D02*
X110607143Y-119454819D01*
X110607143Y-119454819D02*
X110845238Y-119454819D01*
X110845238Y-119454819D02*
X110940476Y-119502438D01*
X110940476Y-119502438D02*
X110988095Y-119550057D01*
X110988095Y-119550057D02*
X111035714Y-119645295D01*
X111035714Y-119645295D02*
X111035714Y-119740533D01*
X111035714Y-119740533D02*
X110988095Y-119883390D01*
X110988095Y-119883390D02*
X110416667Y-120454819D01*
X110416667Y-120454819D02*
X111035714Y-120454819D01*
X109238095Y-81454819D02*
X109238095Y-80454819D01*
X109238095Y-80931009D02*
X109809523Y-80931009D01*
X109809523Y-81454819D02*
X109809523Y-80454819D01*
X110238095Y-80550057D02*
X110285714Y-80502438D01*
X110285714Y-80502438D02*
X110380952Y-80454819D01*
X110380952Y-80454819D02*
X110619047Y-80454819D01*
X110619047Y-80454819D02*
X110714285Y-80502438D01*
X110714285Y-80502438D02*
X110761904Y-80550057D01*
X110761904Y-80550057D02*
X110809523Y-80645295D01*
X110809523Y-80645295D02*
X110809523Y-80740533D01*
X110809523Y-80740533D02*
X110761904Y-80883390D01*
X110761904Y-80883390D02*
X110190476Y-81454819D01*
X110190476Y-81454819D02*
X110809523Y-81454819D01*
X124166666Y-69254819D02*
X124166666Y-69969104D01*
X124166666Y-69969104D02*
X124119047Y-70111961D01*
X124119047Y-70111961D02*
X124023809Y-70207200D01*
X124023809Y-70207200D02*
X123880952Y-70254819D01*
X123880952Y-70254819D02*
X123785714Y-70254819D01*
X125166666Y-70254819D02*
X124595238Y-70254819D01*
X124880952Y-70254819D02*
X124880952Y-69254819D01*
X124880952Y-69254819D02*
X124785714Y-69397676D01*
X124785714Y-69397676D02*
X124690476Y-69492914D01*
X124690476Y-69492914D02*
X124595238Y-69540533D01*
X87833333Y-70954819D02*
X87500000Y-70478628D01*
X87261905Y-70954819D02*
X87261905Y-69954819D01*
X87261905Y-69954819D02*
X87642857Y-69954819D01*
X87642857Y-69954819D02*
X87738095Y-70002438D01*
X87738095Y-70002438D02*
X87785714Y-70050057D01*
X87785714Y-70050057D02*
X87833333Y-70145295D01*
X87833333Y-70145295D02*
X87833333Y-70288152D01*
X87833333Y-70288152D02*
X87785714Y-70383390D01*
X87785714Y-70383390D02*
X87738095Y-70431009D01*
X87738095Y-70431009D02*
X87642857Y-70478628D01*
X87642857Y-70478628D02*
X87261905Y-70478628D01*
X88214286Y-70050057D02*
X88261905Y-70002438D01*
X88261905Y-70002438D02*
X88357143Y-69954819D01*
X88357143Y-69954819D02*
X88595238Y-69954819D01*
X88595238Y-69954819D02*
X88690476Y-70002438D01*
X88690476Y-70002438D02*
X88738095Y-70050057D01*
X88738095Y-70050057D02*
X88785714Y-70145295D01*
X88785714Y-70145295D02*
X88785714Y-70240533D01*
X88785714Y-70240533D02*
X88738095Y-70383390D01*
X88738095Y-70383390D02*
X88166667Y-70954819D01*
X88166667Y-70954819D02*
X88785714Y-70954819D01*
X140690476Y-70454819D02*
X140690476Y-69454819D01*
X140690476Y-69454819D02*
X141023809Y-70169104D01*
X141023809Y-70169104D02*
X141357142Y-69454819D01*
X141357142Y-69454819D02*
X141357142Y-70454819D01*
X142357142Y-70454819D02*
X141785714Y-70454819D01*
X142071428Y-70454819D02*
X142071428Y-69454819D01*
X142071428Y-69454819D02*
X141976190Y-69597676D01*
X141976190Y-69597676D02*
X141880952Y-69692914D01*
X141880952Y-69692914D02*
X141785714Y-69740533D01*
X97457142Y-75309580D02*
X97409523Y-75357200D01*
X97409523Y-75357200D02*
X97266666Y-75404819D01*
X97266666Y-75404819D02*
X97171428Y-75404819D01*
X97171428Y-75404819D02*
X97028571Y-75357200D01*
X97028571Y-75357200D02*
X96933333Y-75261961D01*
X96933333Y-75261961D02*
X96885714Y-75166723D01*
X96885714Y-75166723D02*
X96838095Y-74976247D01*
X96838095Y-74976247D02*
X96838095Y-74833390D01*
X96838095Y-74833390D02*
X96885714Y-74642914D01*
X96885714Y-74642914D02*
X96933333Y-74547676D01*
X96933333Y-74547676D02*
X97028571Y-74452438D01*
X97028571Y-74452438D02*
X97171428Y-74404819D01*
X97171428Y-74404819D02*
X97266666Y-74404819D01*
X97266666Y-74404819D02*
X97409523Y-74452438D01*
X97409523Y-74452438D02*
X97457142Y-74500057D01*
X98409523Y-75404819D02*
X97838095Y-75404819D01*
X98123809Y-75404819D02*
X98123809Y-74404819D01*
X98123809Y-74404819D02*
X98028571Y-74547676D01*
X98028571Y-74547676D02*
X97933333Y-74642914D01*
X97933333Y-74642914D02*
X97838095Y-74690533D01*
X99361904Y-75404819D02*
X98790476Y-75404819D01*
X99076190Y-75404819D02*
X99076190Y-74404819D01*
X99076190Y-74404819D02*
X98980952Y-74547676D01*
X98980952Y-74547676D02*
X98885714Y-74642914D01*
X98885714Y-74642914D02*
X98790476Y-74690533D01*
X101104819Y-66166666D02*
X100628628Y-66499999D01*
X101104819Y-66738094D02*
X100104819Y-66738094D01*
X100104819Y-66738094D02*
X100104819Y-66357142D01*
X100104819Y-66357142D02*
X100152438Y-66261904D01*
X100152438Y-66261904D02*
X100200057Y-66214285D01*
X100200057Y-66214285D02*
X100295295Y-66166666D01*
X100295295Y-66166666D02*
X100438152Y-66166666D01*
X100438152Y-66166666D02*
X100533390Y-66214285D01*
X100533390Y-66214285D02*
X100581009Y-66261904D01*
X100581009Y-66261904D02*
X100628628Y-66357142D01*
X100628628Y-66357142D02*
X100628628Y-66738094D01*
X100438152Y-65309523D02*
X101104819Y-65309523D01*
X100057200Y-65547618D02*
X100771485Y-65785713D01*
X100771485Y-65785713D02*
X100771485Y-65166666D01*
X110190476Y-143454819D02*
X110190476Y-144169104D01*
X110190476Y-144169104D02*
X110142857Y-144311961D01*
X110142857Y-144311961D02*
X110047619Y-144407200D01*
X110047619Y-144407200D02*
X109904762Y-144454819D01*
X109904762Y-144454819D02*
X109809524Y-144454819D01*
X111190476Y-144454819D02*
X110619048Y-144454819D01*
X110904762Y-144454819D02*
X110904762Y-143454819D01*
X110904762Y-143454819D02*
X110809524Y-143597676D01*
X110809524Y-143597676D02*
X110714286Y-143692914D01*
X110714286Y-143692914D02*
X110619048Y-143740533D01*
X112142857Y-144454819D02*
X111571429Y-144454819D01*
X111857143Y-144454819D02*
X111857143Y-143454819D01*
X111857143Y-143454819D02*
X111761905Y-143597676D01*
X111761905Y-143597676D02*
X111666667Y-143692914D01*
X111666667Y-143692914D02*
X111571429Y-143740533D01*
X136879819Y-78333333D02*
X137594104Y-78333333D01*
X137594104Y-78333333D02*
X137736961Y-78380952D01*
X137736961Y-78380952D02*
X137832200Y-78476190D01*
X137832200Y-78476190D02*
X137879819Y-78619047D01*
X137879819Y-78619047D02*
X137879819Y-78714285D01*
X136975057Y-77904761D02*
X136927438Y-77857142D01*
X136927438Y-77857142D02*
X136879819Y-77761904D01*
X136879819Y-77761904D02*
X136879819Y-77523809D01*
X136879819Y-77523809D02*
X136927438Y-77428571D01*
X136927438Y-77428571D02*
X136975057Y-77380952D01*
X136975057Y-77380952D02*
X137070295Y-77333333D01*
X137070295Y-77333333D02*
X137165533Y-77333333D01*
X137165533Y-77333333D02*
X137308390Y-77380952D01*
X137308390Y-77380952D02*
X137879819Y-77952380D01*
X137879819Y-77952380D02*
X137879819Y-77333333D01*
X82166666Y-55454819D02*
X82166666Y-56169104D01*
X82166666Y-56169104D02*
X82119047Y-56311961D01*
X82119047Y-56311961D02*
X82023809Y-56407200D01*
X82023809Y-56407200D02*
X81880952Y-56454819D01*
X81880952Y-56454819D02*
X81785714Y-56454819D01*
X82785714Y-55883390D02*
X82690476Y-55835771D01*
X82690476Y-55835771D02*
X82642857Y-55788152D01*
X82642857Y-55788152D02*
X82595238Y-55692914D01*
X82595238Y-55692914D02*
X82595238Y-55645295D01*
X82595238Y-55645295D02*
X82642857Y-55550057D01*
X82642857Y-55550057D02*
X82690476Y-55502438D01*
X82690476Y-55502438D02*
X82785714Y-55454819D01*
X82785714Y-55454819D02*
X82976190Y-55454819D01*
X82976190Y-55454819D02*
X83071428Y-55502438D01*
X83071428Y-55502438D02*
X83119047Y-55550057D01*
X83119047Y-55550057D02*
X83166666Y-55645295D01*
X83166666Y-55645295D02*
X83166666Y-55692914D01*
X83166666Y-55692914D02*
X83119047Y-55788152D01*
X83119047Y-55788152D02*
X83071428Y-55835771D01*
X83071428Y-55835771D02*
X82976190Y-55883390D01*
X82976190Y-55883390D02*
X82785714Y-55883390D01*
X82785714Y-55883390D02*
X82690476Y-55931009D01*
X82690476Y-55931009D02*
X82642857Y-55978628D01*
X82642857Y-55978628D02*
X82595238Y-56073866D01*
X82595238Y-56073866D02*
X82595238Y-56264342D01*
X82595238Y-56264342D02*
X82642857Y-56359580D01*
X82642857Y-56359580D02*
X82690476Y-56407200D01*
X82690476Y-56407200D02*
X82785714Y-56454819D01*
X82785714Y-56454819D02*
X82976190Y-56454819D01*
X82976190Y-56454819D02*
X83071428Y-56407200D01*
X83071428Y-56407200D02*
X83119047Y-56359580D01*
X83119047Y-56359580D02*
X83166666Y-56264342D01*
X83166666Y-56264342D02*
X83166666Y-56073866D01*
X83166666Y-56073866D02*
X83119047Y-55978628D01*
X83119047Y-55978628D02*
X83071428Y-55931009D01*
X83071428Y-55931009D02*
X82976190Y-55883390D01*
X94261905Y-67454819D02*
X94261905Y-66454819D01*
X94261905Y-66454819D02*
X94500000Y-66454819D01*
X94500000Y-66454819D02*
X94642857Y-66502438D01*
X94642857Y-66502438D02*
X94738095Y-66597676D01*
X94738095Y-66597676D02*
X94785714Y-66692914D01*
X94785714Y-66692914D02*
X94833333Y-66883390D01*
X94833333Y-66883390D02*
X94833333Y-67026247D01*
X94833333Y-67026247D02*
X94785714Y-67216723D01*
X94785714Y-67216723D02*
X94738095Y-67311961D01*
X94738095Y-67311961D02*
X94642857Y-67407200D01*
X94642857Y-67407200D02*
X94500000Y-67454819D01*
X94500000Y-67454819D02*
X94261905Y-67454819D01*
X95785714Y-67454819D02*
X95214286Y-67454819D01*
X95500000Y-67454819D02*
X95500000Y-66454819D01*
X95500000Y-66454819D02*
X95404762Y-66597676D01*
X95404762Y-66597676D02*
X95309524Y-66692914D01*
X95309524Y-66692914D02*
X95214286Y-66740533D01*
X89554819Y-66166666D02*
X89078628Y-66499999D01*
X89554819Y-66738094D02*
X88554819Y-66738094D01*
X88554819Y-66738094D02*
X88554819Y-66357142D01*
X88554819Y-66357142D02*
X88602438Y-66261904D01*
X88602438Y-66261904D02*
X88650057Y-66214285D01*
X88650057Y-66214285D02*
X88745295Y-66166666D01*
X88745295Y-66166666D02*
X88888152Y-66166666D01*
X88888152Y-66166666D02*
X88983390Y-66214285D01*
X88983390Y-66214285D02*
X89031009Y-66261904D01*
X89031009Y-66261904D02*
X89078628Y-66357142D01*
X89078628Y-66357142D02*
X89078628Y-66738094D01*
X88554819Y-65833332D02*
X88554819Y-65214285D01*
X88554819Y-65214285D02*
X88935771Y-65547618D01*
X88935771Y-65547618D02*
X88935771Y-65404761D01*
X88935771Y-65404761D02*
X88983390Y-65309523D01*
X88983390Y-65309523D02*
X89031009Y-65261904D01*
X89031009Y-65261904D02*
X89126247Y-65214285D01*
X89126247Y-65214285D02*
X89364342Y-65214285D01*
X89364342Y-65214285D02*
X89459580Y-65261904D01*
X89459580Y-65261904D02*
X89507200Y-65309523D01*
X89507200Y-65309523D02*
X89554819Y-65404761D01*
X89554819Y-65404761D02*
X89554819Y-65690475D01*
X89554819Y-65690475D02*
X89507200Y-65785713D01*
X89507200Y-65785713D02*
X89459580Y-65833332D01*
X62695833Y-73642319D02*
X62219643Y-73642319D01*
X62219643Y-73642319D02*
X62219643Y-72642319D01*
X63552976Y-73642319D02*
X62981548Y-73642319D01*
X63267262Y-73642319D02*
X63267262Y-72642319D01*
X63267262Y-72642319D02*
X63172024Y-72785176D01*
X63172024Y-72785176D02*
X63076786Y-72880414D01*
X63076786Y-72880414D02*
X62981548Y-72928033D01*
X83533333Y-70154819D02*
X83200000Y-69678628D01*
X82961905Y-70154819D02*
X82961905Y-69154819D01*
X82961905Y-69154819D02*
X83342857Y-69154819D01*
X83342857Y-69154819D02*
X83438095Y-69202438D01*
X83438095Y-69202438D02*
X83485714Y-69250057D01*
X83485714Y-69250057D02*
X83533333Y-69345295D01*
X83533333Y-69345295D02*
X83533333Y-69488152D01*
X83533333Y-69488152D02*
X83485714Y-69583390D01*
X83485714Y-69583390D02*
X83438095Y-69631009D01*
X83438095Y-69631009D02*
X83342857Y-69678628D01*
X83342857Y-69678628D02*
X82961905Y-69678628D01*
X84009524Y-70154819D02*
X84200000Y-70154819D01*
X84200000Y-70154819D02*
X84295238Y-70107200D01*
X84295238Y-70107200D02*
X84342857Y-70059580D01*
X84342857Y-70059580D02*
X84438095Y-69916723D01*
X84438095Y-69916723D02*
X84485714Y-69726247D01*
X84485714Y-69726247D02*
X84485714Y-69345295D01*
X84485714Y-69345295D02*
X84438095Y-69250057D01*
X84438095Y-69250057D02*
X84390476Y-69202438D01*
X84390476Y-69202438D02*
X84295238Y-69154819D01*
X84295238Y-69154819D02*
X84104762Y-69154819D01*
X84104762Y-69154819D02*
X84009524Y-69202438D01*
X84009524Y-69202438D02*
X83961905Y-69250057D01*
X83961905Y-69250057D02*
X83914286Y-69345295D01*
X83914286Y-69345295D02*
X83914286Y-69583390D01*
X83914286Y-69583390D02*
X83961905Y-69678628D01*
X83961905Y-69678628D02*
X84009524Y-69726247D01*
X84009524Y-69726247D02*
X84104762Y-69773866D01*
X84104762Y-69773866D02*
X84295238Y-69773866D01*
X84295238Y-69773866D02*
X84390476Y-69726247D01*
X84390476Y-69726247D02*
X84438095Y-69678628D01*
X84438095Y-69678628D02*
X84485714Y-69583390D01*
D14*
X101404761Y-56707419D02*
X101071428Y-56231228D01*
X100833333Y-56707419D02*
X100833333Y-55707419D01*
X100833333Y-55707419D02*
X101214285Y-55707419D01*
X101214285Y-55707419D02*
X101309523Y-55755038D01*
X101309523Y-55755038D02*
X101357142Y-55802657D01*
X101357142Y-55802657D02*
X101404761Y-55897895D01*
X101404761Y-55897895D02*
X101404761Y-56040752D01*
X101404761Y-56040752D02*
X101357142Y-56135990D01*
X101357142Y-56135990D02*
X101309523Y-56183609D01*
X101309523Y-56183609D02*
X101214285Y-56231228D01*
X101214285Y-56231228D02*
X100833333Y-56231228D01*
X101690476Y-55707419D02*
X102023809Y-56707419D01*
X102023809Y-56707419D02*
X102357142Y-55707419D01*
X103214285Y-56707419D02*
X102642857Y-56707419D01*
X102928571Y-56707419D02*
X102928571Y-55707419D01*
X102928571Y-55707419D02*
X102833333Y-55850276D01*
X102833333Y-55850276D02*
X102738095Y-55945514D01*
X102738095Y-55945514D02*
X102642857Y-55993133D01*
D13*
X63261905Y-112454819D02*
X63261905Y-111454819D01*
X63261905Y-111931009D02*
X63833333Y-111931009D01*
X63833333Y-112454819D02*
X63833333Y-111454819D01*
X64261905Y-112407200D02*
X64404762Y-112454819D01*
X64404762Y-112454819D02*
X64642857Y-112454819D01*
X64642857Y-112454819D02*
X64738095Y-112407200D01*
X64738095Y-112407200D02*
X64785714Y-112359580D01*
X64785714Y-112359580D02*
X64833333Y-112264342D01*
X64833333Y-112264342D02*
X64833333Y-112169104D01*
X64833333Y-112169104D02*
X64785714Y-112073866D01*
X64785714Y-112073866D02*
X64738095Y-112026247D01*
X64738095Y-112026247D02*
X64642857Y-111978628D01*
X64642857Y-111978628D02*
X64452381Y-111931009D01*
X64452381Y-111931009D02*
X64357143Y-111883390D01*
X64357143Y-111883390D02*
X64309524Y-111835771D01*
X64309524Y-111835771D02*
X64261905Y-111740533D01*
X64261905Y-111740533D02*
X64261905Y-111645295D01*
X64261905Y-111645295D02*
X64309524Y-111550057D01*
X64309524Y-111550057D02*
X64357143Y-111502438D01*
X64357143Y-111502438D02*
X64452381Y-111454819D01*
X64452381Y-111454819D02*
X64690476Y-111454819D01*
X64690476Y-111454819D02*
X64833333Y-111502438D01*
X65785714Y-112454819D02*
X65214286Y-112454819D01*
X65500000Y-112454819D02*
X65500000Y-111454819D01*
X65500000Y-111454819D02*
X65404762Y-111597676D01*
X65404762Y-111597676D02*
X65309524Y-111692914D01*
X65309524Y-111692914D02*
X65214286Y-111740533D01*
X96454819Y-81666666D02*
X95978628Y-81999999D01*
X96454819Y-82238094D02*
X95454819Y-82238094D01*
X95454819Y-82238094D02*
X95454819Y-81857142D01*
X95454819Y-81857142D02*
X95502438Y-81761904D01*
X95502438Y-81761904D02*
X95550057Y-81714285D01*
X95550057Y-81714285D02*
X95645295Y-81666666D01*
X95645295Y-81666666D02*
X95788152Y-81666666D01*
X95788152Y-81666666D02*
X95883390Y-81714285D01*
X95883390Y-81714285D02*
X95931009Y-81761904D01*
X95931009Y-81761904D02*
X95978628Y-81857142D01*
X95978628Y-81857142D02*
X95978628Y-82238094D01*
X95454819Y-80761904D02*
X95454819Y-81238094D01*
X95454819Y-81238094D02*
X95931009Y-81285713D01*
X95931009Y-81285713D02*
X95883390Y-81238094D01*
X95883390Y-81238094D02*
X95835771Y-81142856D01*
X95835771Y-81142856D02*
X95835771Y-80904761D01*
X95835771Y-80904761D02*
X95883390Y-80809523D01*
X95883390Y-80809523D02*
X95931009Y-80761904D01*
X95931009Y-80761904D02*
X96026247Y-80714285D01*
X96026247Y-80714285D02*
X96264342Y-80714285D01*
X96264342Y-80714285D02*
X96359580Y-80761904D01*
X96359580Y-80761904D02*
X96407200Y-80809523D01*
X96407200Y-80809523D02*
X96454819Y-80904761D01*
X96454819Y-80904761D02*
X96454819Y-81142856D01*
X96454819Y-81142856D02*
X96407200Y-81238094D01*
X96407200Y-81238094D02*
X96359580Y-81285713D01*
X109904761Y-83190057D02*
X109809523Y-83142438D01*
X109809523Y-83142438D02*
X109714285Y-83047200D01*
X109714285Y-83047200D02*
X109571428Y-82904342D01*
X109571428Y-82904342D02*
X109476190Y-82856723D01*
X109476190Y-82856723D02*
X109380952Y-82856723D01*
X109428571Y-83094819D02*
X109333333Y-83047200D01*
X109333333Y-83047200D02*
X109238095Y-82951961D01*
X109238095Y-82951961D02*
X109190476Y-82761485D01*
X109190476Y-82761485D02*
X109190476Y-82428152D01*
X109190476Y-82428152D02*
X109238095Y-82237676D01*
X109238095Y-82237676D02*
X109333333Y-82142438D01*
X109333333Y-82142438D02*
X109428571Y-82094819D01*
X109428571Y-82094819D02*
X109619047Y-82094819D01*
X109619047Y-82094819D02*
X109714285Y-82142438D01*
X109714285Y-82142438D02*
X109809523Y-82237676D01*
X109809523Y-82237676D02*
X109857142Y-82428152D01*
X109857142Y-82428152D02*
X109857142Y-82761485D01*
X109857142Y-82761485D02*
X109809523Y-82951961D01*
X109809523Y-82951961D02*
X109714285Y-83047200D01*
X109714285Y-83047200D02*
X109619047Y-83094819D01*
X109619047Y-83094819D02*
X109428571Y-83094819D01*
X110809523Y-83094819D02*
X110238095Y-83094819D01*
X110523809Y-83094819D02*
X110523809Y-82094819D01*
X110523809Y-82094819D02*
X110428571Y-82237676D01*
X110428571Y-82237676D02*
X110333333Y-82332914D01*
X110333333Y-82332914D02*
X110238095Y-82380533D01*
X122333333Y-101454819D02*
X122000000Y-100978628D01*
X121761905Y-101454819D02*
X121761905Y-100454819D01*
X121761905Y-100454819D02*
X122142857Y-100454819D01*
X122142857Y-100454819D02*
X122238095Y-100502438D01*
X122238095Y-100502438D02*
X122285714Y-100550057D01*
X122285714Y-100550057D02*
X122333333Y-100645295D01*
X122333333Y-100645295D02*
X122333333Y-100788152D01*
X122333333Y-100788152D02*
X122285714Y-100883390D01*
X122285714Y-100883390D02*
X122238095Y-100931009D01*
X122238095Y-100931009D02*
X122142857Y-100978628D01*
X122142857Y-100978628D02*
X121761905Y-100978628D01*
X122666667Y-100454819D02*
X123333333Y-100454819D01*
X123333333Y-100454819D02*
X122904762Y-101454819D01*
D15*
%TO.C,Q2*%
X98070000Y-83710000D02*
X98070000Y-104900000D01*
X95450000Y-104900000D02*
X95450000Y-107460000D01*
X90000000Y-104900000D02*
X90000000Y-107460000D01*
X84550000Y-104900000D02*
X84550000Y-107460000D01*
X81930000Y-104900000D02*
X98070000Y-104900000D01*
X81930000Y-83710000D02*
X98070000Y-83710000D01*
X81930000Y-83710000D02*
X81930000Y-104900000D01*
%TO.C,J10*%
X119185000Y-83550000D02*
X119185000Y-86450000D01*
X121090000Y-81645000D02*
X123990000Y-81645000D01*
X121090000Y-88355000D02*
X123990000Y-88355000D01*
X125895000Y-83550000D02*
X125895000Y-86450000D01*
%TO.C,J9*%
X74145000Y-83590000D02*
X74145000Y-86490000D01*
X76050000Y-81685000D02*
X78950000Y-81685000D01*
X76050000Y-88395000D02*
X78950000Y-88395000D01*
X80855000Y-83590000D02*
X80855000Y-86490000D01*
%TO.C,J4*%
X75105000Y-108010000D02*
X75105000Y-110910000D01*
X77010000Y-106105000D02*
X79910000Y-106105000D01*
X77010000Y-112815000D02*
X79910000Y-112815000D01*
X81815000Y-108010000D02*
X81815000Y-110910000D01*
%TO.C,J3*%
X120050000Y-113355000D02*
X122950000Y-113355000D01*
X118145000Y-111450000D02*
X118145000Y-108550000D01*
X124855000Y-111450000D02*
X124855000Y-108550000D01*
X120050000Y-106645000D02*
X122950000Y-106645000D01*
%TO.C,C2*%
X123152677Y-72125000D02*
X124152677Y-72125000D01*
X123652677Y-71625000D02*
X123652677Y-72625000D01*
X128632323Y-69920000D02*
X128632323Y-80080000D01*
X128672323Y-69920000D02*
X128672323Y-80080000D01*
X128712323Y-69920000D02*
X128712323Y-80080000D01*
X128752323Y-69921000D02*
X128752323Y-80079000D01*
X128792323Y-69922000D02*
X128792323Y-80078000D01*
X128832323Y-69923000D02*
X128832323Y-80077000D01*
X128872323Y-69925000D02*
X128872323Y-80075000D01*
X128912323Y-69927000D02*
X128912323Y-80073000D01*
X128952323Y-69930000D02*
X128952323Y-80070000D01*
X128992323Y-69932000D02*
X128992323Y-80068000D01*
X129032323Y-69935000D02*
X129032323Y-80065000D01*
X129072323Y-69938000D02*
X129072323Y-80062000D01*
X129112323Y-69942000D02*
X129112323Y-80058000D01*
X129152323Y-69946000D02*
X129152323Y-80054000D01*
X129192323Y-69950000D02*
X129192323Y-80050000D01*
X129232323Y-69955000D02*
X129232323Y-80045000D01*
X129272323Y-69960000D02*
X129272323Y-80040000D01*
X129312323Y-69965000D02*
X129312323Y-80035000D01*
X129353323Y-69970000D02*
X129353323Y-80030000D01*
X129393323Y-69976000D02*
X129393323Y-80024000D01*
X129433323Y-69982000D02*
X129433323Y-80018000D01*
X129473323Y-69989000D02*
X129473323Y-80011000D01*
X129513323Y-69996000D02*
X129513323Y-80004000D01*
X129553323Y-70003000D02*
X129553323Y-79997000D01*
X129593323Y-70010000D02*
X129593323Y-79990000D01*
X129633323Y-70018000D02*
X129633323Y-79982000D01*
X129673323Y-70026000D02*
X129673323Y-79974000D01*
X129713323Y-70035000D02*
X129713323Y-79965000D01*
X129753323Y-70044000D02*
X129753323Y-79956000D01*
X129793323Y-70053000D02*
X129793323Y-79947000D01*
X129833323Y-70062000D02*
X129833323Y-79938000D01*
X129873323Y-70072000D02*
X129873323Y-79928000D01*
X129913323Y-70082000D02*
X129913323Y-73759000D01*
X129913323Y-76241000D02*
X129913323Y-79918000D01*
X129953323Y-70093000D02*
X129953323Y-73759000D01*
X129953323Y-76241000D02*
X129953323Y-79907000D01*
X129993323Y-70103000D02*
X129993323Y-73759000D01*
X129993323Y-76241000D02*
X129993323Y-79897000D01*
X130033323Y-70115000D02*
X130033323Y-73759000D01*
X130033323Y-76241000D02*
X130033323Y-79885000D01*
X130073323Y-70126000D02*
X130073323Y-73759000D01*
X130073323Y-76241000D02*
X130073323Y-79874000D01*
X130113323Y-70138000D02*
X130113323Y-73759000D01*
X130113323Y-76241000D02*
X130113323Y-79862000D01*
X130153323Y-70150000D02*
X130153323Y-73759000D01*
X130153323Y-76241000D02*
X130153323Y-79850000D01*
X130193323Y-70163000D02*
X130193323Y-73759000D01*
X130193323Y-76241000D02*
X130193323Y-79837000D01*
X130233323Y-70176000D02*
X130233323Y-73759000D01*
X130233323Y-76241000D02*
X130233323Y-79824000D01*
X130273323Y-70189000D02*
X130273323Y-73759000D01*
X130273323Y-76241000D02*
X130273323Y-79811000D01*
X130313323Y-70203000D02*
X130313323Y-73759000D01*
X130313323Y-76241000D02*
X130313323Y-79797000D01*
X130353323Y-70217000D02*
X130353323Y-73759000D01*
X130353323Y-76241000D02*
X130353323Y-79783000D01*
X130393323Y-70232000D02*
X130393323Y-73759000D01*
X130393323Y-76241000D02*
X130393323Y-79768000D01*
X130433323Y-70246000D02*
X130433323Y-73759000D01*
X130433323Y-76241000D02*
X130433323Y-79754000D01*
X130473323Y-70262000D02*
X130473323Y-73759000D01*
X130473323Y-76241000D02*
X130473323Y-79738000D01*
X130513323Y-70277000D02*
X130513323Y-73759000D01*
X130513323Y-76241000D02*
X130513323Y-79723000D01*
X130553323Y-70293000D02*
X130553323Y-73759000D01*
X130553323Y-76241000D02*
X130553323Y-79707000D01*
X130593323Y-70310000D02*
X130593323Y-73759000D01*
X130593323Y-76241000D02*
X130593323Y-79690000D01*
X130633323Y-70326000D02*
X130633323Y-73759000D01*
X130633323Y-76241000D02*
X130633323Y-79674000D01*
X130673323Y-70343000D02*
X130673323Y-73759000D01*
X130673323Y-76241000D02*
X130673323Y-79657000D01*
X130713323Y-70361000D02*
X130713323Y-73759000D01*
X130713323Y-76241000D02*
X130713323Y-79639000D01*
X130753323Y-70379000D02*
X130753323Y-73759000D01*
X130753323Y-76241000D02*
X130753323Y-79621000D01*
X130793323Y-70397000D02*
X130793323Y-73759000D01*
X130793323Y-76241000D02*
X130793323Y-79603000D01*
X130833323Y-70416000D02*
X130833323Y-73759000D01*
X130833323Y-76241000D02*
X130833323Y-79584000D01*
X130873323Y-70436000D02*
X130873323Y-73759000D01*
X130873323Y-76241000D02*
X130873323Y-79564000D01*
X130913323Y-70455000D02*
X130913323Y-73759000D01*
X130913323Y-76241000D02*
X130913323Y-79545000D01*
X130953323Y-70475000D02*
X130953323Y-73759000D01*
X130953323Y-76241000D02*
X130953323Y-79525000D01*
X130993323Y-70496000D02*
X130993323Y-73759000D01*
X130993323Y-76241000D02*
X130993323Y-79504000D01*
X131033323Y-70517000D02*
X131033323Y-73759000D01*
X131033323Y-76241000D02*
X131033323Y-79483000D01*
X131073323Y-70538000D02*
X131073323Y-73759000D01*
X131073323Y-76241000D02*
X131073323Y-79462000D01*
X131113323Y-70560000D02*
X131113323Y-73759000D01*
X131113323Y-76241000D02*
X131113323Y-79440000D01*
X131153323Y-70583000D02*
X131153323Y-73759000D01*
X131153323Y-76241000D02*
X131153323Y-79417000D01*
X131193323Y-70605000D02*
X131193323Y-73759000D01*
X131193323Y-76241000D02*
X131193323Y-79395000D01*
X131233323Y-70629000D02*
X131233323Y-73759000D01*
X131233323Y-76241000D02*
X131233323Y-79371000D01*
X131273323Y-70653000D02*
X131273323Y-73759000D01*
X131273323Y-76241000D02*
X131273323Y-79347000D01*
X131313323Y-70677000D02*
X131313323Y-73759000D01*
X131313323Y-76241000D02*
X131313323Y-79323000D01*
X131353323Y-70702000D02*
X131353323Y-73759000D01*
X131353323Y-76241000D02*
X131353323Y-79298000D01*
X131393323Y-70727000D02*
X131393323Y-73759000D01*
X131393323Y-76241000D02*
X131393323Y-79273000D01*
X131433323Y-70753000D02*
X131433323Y-73759000D01*
X131433323Y-76241000D02*
X131433323Y-79247000D01*
X131473323Y-70779000D02*
X131473323Y-73759000D01*
X131473323Y-76241000D02*
X131473323Y-79221000D01*
X131513323Y-70806000D02*
X131513323Y-73759000D01*
X131513323Y-76241000D02*
X131513323Y-79194000D01*
X131553323Y-70834000D02*
X131553323Y-73759000D01*
X131553323Y-76241000D02*
X131553323Y-79166000D01*
X131593323Y-70862000D02*
X131593323Y-73759000D01*
X131593323Y-76241000D02*
X131593323Y-79138000D01*
X131633323Y-70890000D02*
X131633323Y-73759000D01*
X131633323Y-76241000D02*
X131633323Y-79110000D01*
X131673323Y-70920000D02*
X131673323Y-73759000D01*
X131673323Y-76241000D02*
X131673323Y-79080000D01*
X131713323Y-70950000D02*
X131713323Y-73759000D01*
X131713323Y-76241000D02*
X131713323Y-79050000D01*
X131753323Y-70980000D02*
X131753323Y-73759000D01*
X131753323Y-76241000D02*
X131753323Y-79020000D01*
X131793323Y-71011000D02*
X131793323Y-73759000D01*
X131793323Y-76241000D02*
X131793323Y-78989000D01*
X131833323Y-71043000D02*
X131833323Y-73759000D01*
X131833323Y-76241000D02*
X131833323Y-78957000D01*
X131873323Y-71075000D02*
X131873323Y-73759000D01*
X131873323Y-76241000D02*
X131873323Y-78925000D01*
X131913323Y-71108000D02*
X131913323Y-73759000D01*
X131913323Y-76241000D02*
X131913323Y-78892000D01*
X131953323Y-71142000D02*
X131953323Y-73759000D01*
X131953323Y-76241000D02*
X131953323Y-78858000D01*
X131993323Y-71176000D02*
X131993323Y-73759000D01*
X131993323Y-76241000D02*
X131993323Y-78824000D01*
X132033323Y-71211000D02*
X132033323Y-73759000D01*
X132033323Y-76241000D02*
X132033323Y-78789000D01*
X132073323Y-71247000D02*
X132073323Y-73759000D01*
X132073323Y-76241000D02*
X132073323Y-78753000D01*
X132113323Y-71284000D02*
X132113323Y-73759000D01*
X132113323Y-76241000D02*
X132113323Y-78716000D01*
X132153323Y-71321000D02*
X132153323Y-73759000D01*
X132153323Y-76241000D02*
X132153323Y-78679000D01*
X132193323Y-71360000D02*
X132193323Y-73759000D01*
X132193323Y-76241000D02*
X132193323Y-78640000D01*
X132233323Y-71399000D02*
X132233323Y-73759000D01*
X132233323Y-76241000D02*
X132233323Y-78601000D01*
X132273323Y-71439000D02*
X132273323Y-73759000D01*
X132273323Y-76241000D02*
X132273323Y-78561000D01*
X132313323Y-71480000D02*
X132313323Y-73759000D01*
X132313323Y-76241000D02*
X132313323Y-78520000D01*
X132353323Y-71522000D02*
X132353323Y-73759000D01*
X132353323Y-76241000D02*
X132353323Y-78478000D01*
X132393323Y-71564000D02*
X132393323Y-78436000D01*
X132433323Y-71608000D02*
X132433323Y-78392000D01*
X132473323Y-71653000D02*
X132473323Y-78347000D01*
X132513323Y-71699000D02*
X132513323Y-78301000D01*
X132553323Y-71746000D02*
X132553323Y-78254000D01*
X132593323Y-71794000D02*
X132593323Y-78206000D01*
X132633323Y-71844000D02*
X132633323Y-78156000D01*
X132673323Y-71894000D02*
X132673323Y-78106000D01*
X132713323Y-71946000D02*
X132713323Y-78054000D01*
X132753323Y-72000000D02*
X132753323Y-78000000D01*
X132793323Y-72055000D02*
X132793323Y-77945000D01*
X132833323Y-72111000D02*
X132833323Y-77889000D01*
X132873323Y-72170000D02*
X132873323Y-77830000D01*
X132913323Y-72230000D02*
X132913323Y-77770000D01*
X132953323Y-72291000D02*
X132953323Y-77709000D01*
X132993323Y-72355000D02*
X132993323Y-77645000D01*
X133033323Y-72421000D02*
X133033323Y-77579000D01*
X133073323Y-72490000D02*
X133073323Y-77510000D01*
X133113323Y-72561000D02*
X133113323Y-77439000D01*
X133153323Y-72635000D02*
X133153323Y-77365000D01*
X133193323Y-72711000D02*
X133193323Y-77289000D01*
X133233323Y-72791000D02*
X133233323Y-77209000D01*
X133273323Y-72875000D02*
X133273323Y-77125000D01*
X133313323Y-72963000D02*
X133313323Y-77037000D01*
X133353323Y-73056000D02*
X133353323Y-76944000D01*
X133393323Y-73154000D02*
X133393323Y-76846000D01*
X133433323Y-73258000D02*
X133433323Y-76742000D01*
X133473323Y-73370000D02*
X133473323Y-76630000D01*
X133513323Y-73490000D02*
X133513323Y-76510000D01*
X133553323Y-73622000D02*
X133553323Y-76378000D01*
X133593323Y-73770000D02*
X133593323Y-76230000D01*
X133633323Y-73938000D02*
X133633323Y-76062000D01*
X133673323Y-74138000D02*
X133673323Y-75862000D01*
X133713323Y-74401000D02*
X133713323Y-75599000D01*
X133752323Y-75000000D02*
G75*
G02*
X123512323Y-75000000I-5120000J0D01*
G01*
X123512323Y-75000000D02*
G75*
G02*
X133752323Y-75000000I5120000J0D01*
G01*
%TO.C,C23*%
X70880000Y-126370000D02*
X72244000Y-126370000D01*
X70880000Y-126370000D02*
X70880000Y-115630000D01*
X74756000Y-126370000D02*
X76120000Y-126370000D01*
X76120000Y-126370000D02*
X76120000Y-115630000D01*
X70880000Y-115630000D02*
X72244000Y-115630000D01*
X74756000Y-115630000D02*
X76120000Y-115630000D01*
%TO.C,C22*%
X123380000Y-126370000D02*
X124744000Y-126370000D01*
X123380000Y-126370000D02*
X123380000Y-115630000D01*
X127256000Y-126370000D02*
X128620000Y-126370000D01*
X128620000Y-126370000D02*
X128620000Y-115630000D01*
X123380000Y-115630000D02*
X124744000Y-115630000D01*
X127256000Y-115630000D02*
X128620000Y-115630000D01*
%TO.C,C14*%
X123130000Y-136744000D02*
X123130000Y-135380000D01*
X123130000Y-140620000D02*
X123130000Y-139256000D01*
X133870000Y-135380000D02*
X123130000Y-135380000D01*
X133870000Y-136744000D02*
X133870000Y-135380000D01*
X133870000Y-140620000D02*
X123130000Y-140620000D01*
X133870000Y-140620000D02*
X133870000Y-139256000D01*
%TO.C,R15*%
X121272936Y-93265000D02*
X121727064Y-93265000D01*
X121272936Y-94735000D02*
X121727064Y-94735000D01*
%TO.C,R14*%
X78727064Y-94735000D02*
X78272936Y-94735000D01*
X78727064Y-93265000D02*
X78272936Y-93265000D01*
%TO.C,R12*%
X77272936Y-101265000D02*
X77727064Y-101265000D01*
X77272936Y-102735000D02*
X77727064Y-102735000D01*
%TO.C,R11*%
X89772936Y-95265000D02*
X90227064Y-95265000D01*
X89772936Y-96735000D02*
X90227064Y-96735000D01*
%TO.C,R10*%
X109772936Y-95265000D02*
X110227064Y-95265000D01*
X109772936Y-96735000D02*
X110227064Y-96735000D01*
%TO.C,R8*%
X103235000Y-81172936D02*
X103235000Y-81627064D01*
X101765000Y-81172936D02*
X101765000Y-81627064D01*
%TO.C,L3*%
X73835000Y-90015000D02*
X71660000Y-90015000D01*
X56165000Y-90015000D02*
X58340000Y-90015000D01*
X73835000Y-107985000D02*
X73835000Y-90015000D01*
X73835000Y-107985000D02*
X71660000Y-107985000D01*
X56165000Y-107985000D02*
X56165000Y-90015000D01*
X56165000Y-107985000D02*
X58340000Y-107985000D01*
%TO.C,D4*%
X84990000Y-119150000D02*
X93500000Y-119150000D01*
X84990000Y-119150000D02*
X84990000Y-112650000D01*
X84990000Y-112650000D02*
X93500000Y-112650000D01*
%TO.C,C21*%
X78380000Y-126370000D02*
X79744000Y-126370000D01*
X78380000Y-126370000D02*
X78380000Y-115630000D01*
X82256000Y-126370000D02*
X83620000Y-126370000D01*
X83620000Y-126370000D02*
X83620000Y-115630000D01*
X78380000Y-115630000D02*
X79744000Y-115630000D01*
X82256000Y-115630000D02*
X83620000Y-115630000D01*
%TO.C,C20*%
X115880000Y-126370000D02*
X117244000Y-126370000D01*
X115880000Y-126370000D02*
X115880000Y-115630000D01*
X119756000Y-126370000D02*
X121120000Y-126370000D01*
X121120000Y-126370000D02*
X121120000Y-115630000D01*
X115880000Y-115630000D02*
X117244000Y-115630000D01*
X119756000Y-115630000D02*
X121120000Y-115630000D01*
%TO.C,C19*%
X120461252Y-79510000D02*
X118138748Y-79510000D01*
X120461252Y-76090000D02*
X118138748Y-76090000D01*
%TO.C,C18*%
X79130000Y-135380000D02*
X79130000Y-136744000D01*
X79130000Y-135380000D02*
X89870000Y-135380000D01*
X79130000Y-139256000D02*
X79130000Y-140620000D01*
X79130000Y-140620000D02*
X89870000Y-140620000D01*
X89870000Y-135380000D02*
X89870000Y-136744000D01*
X89870000Y-139256000D02*
X89870000Y-140620000D01*
%TO.C,C17*%
X66130000Y-135380000D02*
X66130000Y-136744000D01*
X66130000Y-135380000D02*
X76870000Y-135380000D01*
X66130000Y-139256000D02*
X66130000Y-140620000D01*
X66130000Y-140620000D02*
X76870000Y-140620000D01*
X76870000Y-135380000D02*
X76870000Y-136744000D01*
X76870000Y-139256000D02*
X76870000Y-140620000D01*
%TO.C,C16*%
X79130000Y-127880000D02*
X79130000Y-129244000D01*
X79130000Y-127880000D02*
X89870000Y-127880000D01*
X79130000Y-131756000D02*
X79130000Y-133120000D01*
X79130000Y-133120000D02*
X89870000Y-133120000D01*
X89870000Y-127880000D02*
X89870000Y-129244000D01*
X89870000Y-131756000D02*
X89870000Y-133120000D01*
%TO.C,C15*%
X66130000Y-127880000D02*
X66130000Y-129244000D01*
X66130000Y-127880000D02*
X76870000Y-127880000D01*
X66130000Y-131756000D02*
X66130000Y-133120000D01*
X66130000Y-133120000D02*
X76870000Y-133120000D01*
X76870000Y-127880000D02*
X76870000Y-129244000D01*
X76870000Y-131756000D02*
X76870000Y-133120000D01*
%TO.C,C13*%
X133870000Y-133120000D02*
X133870000Y-131756000D01*
X133870000Y-133120000D02*
X123130000Y-133120000D01*
X133870000Y-129244000D02*
X133870000Y-127880000D01*
X133870000Y-127880000D02*
X123130000Y-127880000D01*
X123130000Y-133120000D02*
X123130000Y-131756000D01*
X123130000Y-129244000D02*
X123130000Y-127880000D01*
%TO.C,C12*%
X120870000Y-133120000D02*
X120870000Y-131756000D01*
X120870000Y-133120000D02*
X110130000Y-133120000D01*
X120870000Y-129244000D02*
X120870000Y-127880000D01*
X120870000Y-127880000D02*
X110130000Y-127880000D01*
X110130000Y-133120000D02*
X110130000Y-131756000D01*
X110130000Y-129244000D02*
X110130000Y-127880000D01*
%TO.C,C10*%
X88838748Y-101290000D02*
X91161252Y-101290000D01*
X88838748Y-104710000D02*
X91161252Y-104710000D01*
%TO.C,C9*%
X88838748Y-97290000D02*
X91161252Y-97290000D01*
X88838748Y-100710000D02*
X91161252Y-100710000D01*
%TO.C,C8*%
X108838748Y-97290000D02*
X111161252Y-97290000D01*
X108838748Y-100710000D02*
X111161252Y-100710000D01*
%TO.C,C7*%
X108838748Y-101290000D02*
X111161252Y-101290000D01*
X108838748Y-104710000D02*
X111161252Y-104710000D01*
%TO.C,C1*%
X120870000Y-140620000D02*
X120870000Y-139256000D01*
X120870000Y-140620000D02*
X110130000Y-140620000D01*
X120870000Y-136744000D02*
X120870000Y-135380000D01*
X120870000Y-135380000D02*
X110130000Y-135380000D01*
X110130000Y-140620000D02*
X110130000Y-139256000D01*
X110130000Y-136744000D02*
X110130000Y-135380000D01*
%TO.C,D3*%
X61387500Y-76322500D02*
X65272500Y-76322500D01*
X65272500Y-74052500D02*
X61387500Y-74052500D01*
X65272500Y-76322500D02*
X65272500Y-74052500D01*
%TO.C,SW1*%
X109100000Y-68290000D02*
X113900000Y-68290000D01*
X109100000Y-79710000D02*
X109100000Y-68290000D01*
X113900000Y-68290000D02*
X113900000Y-79710000D01*
X113900000Y-72095000D02*
X109100000Y-72095000D01*
X113900000Y-79710000D02*
X109100000Y-79710000D01*
%TO.C,R13*%
X63114564Y-70652500D02*
X62660436Y-70652500D01*
X63114564Y-72122500D02*
X62660436Y-72122500D01*
D16*
%TO.C,J12*%
X91199999Y-144900000D02*
X91199999Y-128200001D01*
X97699999Y-128200001D02*
X91199999Y-128200001D01*
X97699999Y-128200001D02*
X97699999Y-144900000D01*
X97699999Y-132600000D02*
X98599999Y-132600000D01*
X97699999Y-137999999D02*
X98599999Y-137999999D01*
X97699999Y-144900000D02*
X91199999Y-144900000D01*
X98599999Y-132600000D02*
X98599999Y-137999999D01*
D17*
X90819000Y-140000000D02*
G75*
G02*
X90057000Y-140000000I-381000J0D01*
G01*
X90057000Y-140000000D02*
G75*
G02*
X90819000Y-140000000I381000J0D01*
G01*
D15*
%TO.C,L2*%
X143835000Y-107985000D02*
X141660000Y-107985000D01*
X143835000Y-90015000D02*
X143835000Y-107985000D01*
X143835000Y-90015000D02*
X141660000Y-90015000D01*
X126165000Y-107985000D02*
X128340000Y-107985000D01*
X126165000Y-90015000D02*
X128340000Y-90015000D01*
X126165000Y-90015000D02*
X126165000Y-107985000D01*
%TO.C,D2*%
X105240000Y-112500000D02*
X113750000Y-112500000D01*
X105240000Y-119000000D02*
X105240000Y-112500000D01*
X105240000Y-119000000D02*
X113750000Y-119000000D01*
%TO.C,J1*%
X119390000Y-55390000D02*
X129610000Y-55390000D01*
X119390000Y-58450000D02*
X119390000Y-55390000D01*
X119390000Y-68610000D02*
X119390000Y-62550000D01*
X122200000Y-68610000D02*
X119390000Y-68610000D01*
X125500000Y-68800000D02*
X123500000Y-68800000D01*
X129610000Y-55390000D02*
X129610000Y-58450000D01*
X129610000Y-62550000D02*
X129610000Y-68610000D01*
X129610000Y-68610000D02*
X126800000Y-68610000D01*
%TO.C,R2*%
X87772936Y-68015000D02*
X88227064Y-68015000D01*
X87772936Y-69485000D02*
X88227064Y-69485000D01*
%TO.C,C11*%
X96938748Y-70490000D02*
X99261252Y-70490000D01*
X96938748Y-73910000D02*
X99261252Y-73910000D01*
%TO.C,R4*%
X98265000Y-65772936D02*
X98265000Y-66227064D01*
X99735000Y-65772936D02*
X99735000Y-66227064D01*
D16*
%TO.C,J11*%
X101199999Y-144900000D02*
X101199999Y-128200001D01*
X107699999Y-128200001D02*
X101199999Y-128200001D01*
X107699999Y-128200001D02*
X107699999Y-144900000D01*
X107699999Y-132600000D02*
X108599999Y-132600000D01*
X107699999Y-137999999D02*
X108599999Y-137999999D01*
X107699999Y-144900000D02*
X101199999Y-144900000D01*
X108599999Y-132600000D02*
X108599999Y-137999999D01*
D17*
X100819000Y-140000000D02*
G75*
G02*
X100057000Y-140000000I-381000J0D01*
G01*
X100057000Y-140000000D02*
G75*
G02*
X100819000Y-140000000I381000J0D01*
G01*
D15*
%TO.C,J2*%
X138225000Y-80850000D02*
X138225000Y-82100000D01*
X138225000Y-82100000D02*
X139475000Y-82100000D01*
X138515000Y-74190000D02*
X138515000Y-81810000D01*
X138515000Y-81810000D02*
X144485000Y-81810000D01*
X138525000Y-74200000D02*
X138525000Y-76000000D01*
X138525000Y-76000000D02*
X139275000Y-76000000D01*
X138525000Y-77500000D02*
X138525000Y-78500000D01*
X138525000Y-78500000D02*
X139275000Y-78500000D01*
X138525000Y-80000000D02*
X138525000Y-81800000D01*
X138525000Y-81800000D02*
X139275000Y-81800000D01*
X139275000Y-74200000D02*
X138525000Y-74200000D01*
X139275000Y-76000000D02*
X139275000Y-74200000D01*
X139275000Y-77500000D02*
X138525000Y-77500000D01*
X139275000Y-78500000D02*
X139275000Y-77500000D01*
X139275000Y-80000000D02*
X138525000Y-80000000D01*
X139275000Y-81800000D02*
X139275000Y-80000000D01*
X140775000Y-74200000D02*
X140775000Y-74950000D01*
X140775000Y-74950000D02*
X143725000Y-74950000D01*
X140775000Y-81050000D02*
X142115000Y-81050000D01*
X140775000Y-81800000D02*
X140775000Y-81050000D01*
X143725000Y-74950000D02*
X143725000Y-78000000D01*
X143725000Y-78000000D02*
X143725000Y-79990000D01*
X144485000Y-74190000D02*
X138515000Y-74190000D01*
X144485000Y-81810000D02*
X144485000Y-74190000D01*
%TO.C,J8*%
X72700000Y-58000000D02*
X73200000Y-58000000D01*
X72700000Y-59200000D02*
X70700000Y-59200000D01*
X72700000Y-59200000D02*
X72700000Y-58000000D01*
X72700000Y-61800000D02*
X70700000Y-61800000D01*
X72700000Y-68300000D02*
X72700000Y-61800000D01*
X72700000Y-72700000D02*
X72700000Y-71500000D01*
X73200000Y-55500000D02*
X78400000Y-55500000D01*
X73200000Y-58000000D02*
X73200000Y-55500000D01*
X78400000Y-55500000D02*
X78400000Y-58000000D01*
X78400000Y-58000000D02*
X78900000Y-58000000D01*
X78900000Y-58000000D02*
X78900000Y-61200000D01*
X78900000Y-63800000D02*
X78900000Y-72700000D01*
X78900000Y-72700000D02*
X72700000Y-72700000D01*
%TO.C,D1*%
X92990000Y-67900000D02*
X92990000Y-69600000D01*
X92990000Y-67900000D02*
X96250000Y-67900000D01*
X92990000Y-69600000D02*
X96250000Y-69600000D01*
%TO.C,R3*%
X90015000Y-66227064D02*
X90015000Y-65772936D01*
X91485000Y-66227064D02*
X91485000Y-65772936D01*
%TO.C,R9*%
X83472936Y-72935000D02*
X83927064Y-72935000D01*
X83472936Y-71465000D02*
X83927064Y-71465000D01*
D14*
%TO.C,RV1*%
X88250000Y-55250000D02*
X88250000Y-62750000D01*
X88250000Y-62750000D02*
X100250000Y-62750000D01*
X100250000Y-55250000D02*
X88250000Y-55250000D01*
X100250000Y-62750000D02*
X100250000Y-55250000D01*
D15*
%TO.C,R5*%
X96765000Y-81272936D02*
X96765000Y-81727064D01*
X98235000Y-81272936D02*
X98235000Y-81727064D01*
%TO.C,Q1*%
X118070000Y-83640000D02*
X118070000Y-104830000D01*
X115450000Y-104830000D02*
X115450000Y-107390000D01*
X110000000Y-104830000D02*
X110000000Y-107390000D01*
X104550000Y-104830000D02*
X104550000Y-107390000D01*
X101930000Y-104830000D02*
X118070000Y-104830000D01*
X101930000Y-83640000D02*
X118070000Y-83640000D01*
X101930000Y-83640000D02*
X101930000Y-104830000D01*
%TO.C,R7*%
X122727064Y-103235000D02*
X122272936Y-103235000D01*
X122727064Y-101765000D02*
X122272936Y-101765000D01*
%TD*%
M02*
