%TF.GenerationSoftware,KiCad,Pcbnew,9.0.0*%
%TF.CreationDate,2025-05-27T01:04:57-04:00*%
%TF.ProjectId,PlasmaTransformer-DualFET,506c6173-6d61-4547-9261-6e73666f726d,rev?*%
%TF.SameCoordinates,Original*%
%TF.FileFunction,Copper,L2,Bot*%
%TF.FilePolarity,Positive*%
%FSLAX46Y46*%
G04 Gerber Fmt 4.6, Leading zero omitted, Abs format (unit mm)*
G04 Created by KiCad (PCBNEW 9.0.0) date 2025-05-27 01:04:57*
%MOMM*%
%LPD*%
G01*
G04 APERTURE LIST*
G04 Aperture macros list*
%AMRoundRect*
0 Rectangle with rounded corners*
0 $1 Rounding radius*
0 $2 $3 $4 $5 $6 $7 $8 $9 X,Y pos of 4 corners*
0 Add a 4 corners polygon primitive as box body*
4,1,4,$2,$3,$4,$5,$6,$7,$8,$9,$2,$3,0*
0 Add four circle primitives for the rounded corners*
1,1,$1+$1,$2,$3*
1,1,$1+$1,$4,$5*
1,1,$1+$1,$6,$7*
1,1,$1+$1,$8,$9*
0 Add four rect primitives between the rounded corners*
20,1,$1+$1,$2,$3,$4,$5,0*
20,1,$1+$1,$4,$5,$6,$7,0*
20,1,$1+$1,$6,$7,$8,$9,0*
20,1,$1+$1,$8,$9,$2,$3,0*%
G04 Aperture macros list end*
%TA.AperFunction,ComponentPad*%
%ADD10O,2.500000X4.500000*%
%TD*%
%TA.AperFunction,ComponentPad*%
%ADD11R,2.500000X4.500000*%
%TD*%
%TA.AperFunction,ComponentPad*%
%ADD12C,2.050000*%
%TD*%
%TA.AperFunction,ComponentPad*%
%ADD13C,2.250000*%
%TD*%
%TA.AperFunction,ComponentPad*%
%ADD14R,2.000000X2.000000*%
%TD*%
%TA.AperFunction,ComponentPad*%
%ADD15C,2.000000*%
%TD*%
%TA.AperFunction,ComponentPad*%
%ADD16O,3.800000X2.800000*%
%TD*%
%TA.AperFunction,ComponentPad*%
%ADD17C,2.700000*%
%TD*%
%TA.AperFunction,ComponentPad*%
%ADD18R,4.000000X2.000000*%
%TD*%
%TA.AperFunction,ComponentPad*%
%ADD19O,3.300000X2.000000*%
%TD*%
%TA.AperFunction,ComponentPad*%
%ADD20O,2.000000X3.500000*%
%TD*%
%TA.AperFunction,ComponentPad*%
%ADD21RoundRect,0.250000X0.750000X-0.600000X0.750000X0.600000X-0.750000X0.600000X-0.750000X-0.600000X0*%
%TD*%
%TA.AperFunction,ComponentPad*%
%ADD22O,2.000000X1.700000*%
%TD*%
%TA.AperFunction,ComponentPad*%
%ADD23C,2.200000*%
%TD*%
%TA.AperFunction,ViaPad*%
%ADD24C,1.000000*%
%TD*%
%TA.AperFunction,ViaPad*%
%ADD25C,0.600000*%
%TD*%
%TA.AperFunction,Conductor*%
%ADD26C,3.000000*%
%TD*%
%TA.AperFunction,Conductor*%
%ADD27C,1.000000*%
%TD*%
%TA.AperFunction,Conductor*%
%ADD28C,0.200000*%
%TD*%
G04 APERTURE END LIST*
D10*
%TO.P,Q2,3,S*%
%TO.N,GND*%
X95450000Y-109860000D03*
%TO.P,Q2,2,D*%
%TO.N,/DRAIN2*%
X90000000Y-109860000D03*
D11*
%TO.P,Q2,1,G*%
%TO.N,/GATE2*%
X84550000Y-109860000D03*
%TD*%
D12*
%TO.P,J10,1,In*%
%TO.N,/GATE1-C*%
X122540000Y-85000000D03*
D13*
%TO.P,J10,2,Ext*%
%TO.N,GND*%
X120000000Y-82460000D03*
X120000000Y-87540000D03*
X125080000Y-82460000D03*
X125080000Y-87540000D03*
%TD*%
D12*
%TO.P,J9,1,In*%
%TO.N,/GATE2-C*%
X77500000Y-85040000D03*
D13*
%TO.P,J9,2,Ext*%
%TO.N,GND*%
X74960000Y-82500000D03*
X74960000Y-87580000D03*
X80040000Y-82500000D03*
X80040000Y-87580000D03*
%TD*%
D12*
%TO.P,J4,1,In*%
%TO.N,/DRAIN2-C*%
X78460000Y-109460000D03*
D13*
%TO.P,J4,2,Ext*%
%TO.N,GND*%
X75920000Y-106920000D03*
X75920000Y-112000000D03*
X81000000Y-106920000D03*
X81000000Y-112000000D03*
%TD*%
D12*
%TO.P,J3,1,In*%
%TO.N,/DRAIN1-C*%
X121500000Y-110000000D03*
D13*
%TO.P,J3,2,Ext*%
%TO.N,GND*%
X118960000Y-112540000D03*
X124040000Y-112540000D03*
X118960000Y-107460000D03*
X124040000Y-107460000D03*
%TD*%
D14*
%TO.P,C2,1*%
%TO.N,/VPWR*%
X126132323Y-75000000D03*
D15*
%TO.P,C2,2*%
%TO.N,GND*%
X131132323Y-75000000D03*
%TD*%
%TO.P,C23,1*%
%TO.N,Net-(C15-Pad2)*%
X73500000Y-126000000D03*
%TO.P,C23,2*%
%TO.N,/GATE1*%
X73500000Y-116000000D03*
%TD*%
%TO.P,C22,1*%
%TO.N,Net-(C1-Pad1)*%
X126000000Y-126000000D03*
%TO.P,C22,2*%
%TO.N,/GATE2*%
X126000000Y-116000000D03*
%TD*%
%TO.P,C14,2*%
%TO.N,Net-(C1-Pad1)*%
X123500000Y-138000000D03*
%TO.P,C14,1*%
%TO.N,/DRAIN1*%
X133500000Y-138000000D03*
%TD*%
%TO.P,C21,1*%
%TO.N,Net-(C15-Pad2)*%
X81000000Y-126000000D03*
%TO.P,C21,2*%
%TO.N,/GATE1*%
X81000000Y-116000000D03*
%TD*%
%TO.P,C20,1*%
%TO.N,Net-(C1-Pad1)*%
X118500000Y-126000000D03*
%TO.P,C20,2*%
%TO.N,/GATE2*%
X118500000Y-116000000D03*
%TD*%
%TO.P,C18,1*%
%TO.N,Net-(C15-Pad2)*%
X79500000Y-138000000D03*
%TO.P,C18,2*%
%TO.N,Net-(J12-Pin_1)*%
X89500000Y-138000000D03*
%TD*%
%TO.P,C17,1*%
%TO.N,/DRAIN2*%
X66500000Y-138000000D03*
%TO.P,C17,2*%
%TO.N,Net-(C15-Pad2)*%
X76500000Y-138000000D03*
%TD*%
%TO.P,C16,1*%
%TO.N,Net-(C15-Pad2)*%
X79500000Y-130500000D03*
%TO.P,C16,2*%
%TO.N,Net-(J12-Pin_1)*%
X89500000Y-130500000D03*
%TD*%
%TO.P,C15,1*%
%TO.N,/DRAIN2*%
X66500000Y-130500000D03*
%TO.P,C15,2*%
%TO.N,Net-(C15-Pad2)*%
X76500000Y-130500000D03*
%TD*%
%TO.P,C13,1*%
%TO.N,/DRAIN1*%
X133500000Y-130500000D03*
%TO.P,C13,2*%
%TO.N,Net-(C1-Pad1)*%
X123500000Y-130500000D03*
%TD*%
%TO.P,C12,1*%
%TO.N,Net-(C1-Pad1)*%
X120500000Y-130500000D03*
%TO.P,C12,2*%
%TO.N,Net-(J11-Pin_1)*%
X110500000Y-130500000D03*
%TD*%
%TO.P,C1,1*%
%TO.N,Net-(C1-Pad1)*%
X120500000Y-138000000D03*
%TO.P,C1,2*%
%TO.N,Net-(J11-Pin_1)*%
X110500000Y-138000000D03*
%TD*%
D16*
%TO.P,SW1,1,A*%
%TO.N,/VIN*%
X111500000Y-70190000D03*
%TO.P,SW1,2,B*%
%TO.N,/VPWR*%
X111500000Y-74000000D03*
%TO.P,SW1,3,C*%
%TO.N,unconnected-(SW1-C-Pad3)*%
X111500000Y-77810000D03*
D17*
%TO.P,SW1,M1*%
%TO.N,N/C*%
X114040000Y-57490000D03*
%TO.P,SW1,M2*%
X108960000Y-57490000D03*
%TD*%
D15*
%TO.P,J12,1,Pin_1*%
%TO.N,Net-(J12-Pin_1)*%
X95000000Y-140000000D03*
X95000000Y-131800001D03*
%TD*%
D18*
%TO.P,J1,1*%
%TO.N,/VIN*%
X124500000Y-67500000D03*
D19*
%TO.P,J1,2*%
%TO.N,GND*%
X124500000Y-61500000D03*
D20*
%TO.P,J1,MP1*%
%TO.N,N/C*%
X120000000Y-60500000D03*
%TO.P,J1,MP2*%
X129000000Y-60500000D03*
%TD*%
D15*
%TO.P,J11,1,Pin_1*%
%TO.N,Net-(J11-Pin_1)*%
X105000000Y-140000000D03*
X105000000Y-131800001D03*
%TD*%
D21*
%TO.P,J2,1,Pin_1*%
%TO.N,/VPWR*%
X140975000Y-79250000D03*
D22*
%TO.P,J2,2,Pin_2*%
%TO.N,GND*%
X140975000Y-76750000D03*
%TD*%
D23*
%TO.P,RV1,1,1*%
%TO.N,Net-(R3-Pad2)*%
X91750000Y-59000000D03*
%TO.P,RV1,2,2*%
%TO.N,Net-(C11-Pad2)*%
X94250000Y-61500000D03*
%TO.P,RV1,3,3*%
%TO.N,Net-(R4-Pad1)*%
X96750000Y-59000000D03*
%TD*%
D10*
%TO.P,Q1,3,S*%
%TO.N,GND*%
X115450000Y-109790000D03*
%TO.P,Q1,2,D*%
%TO.N,/DRAIN1*%
X110000000Y-109790000D03*
D11*
%TO.P,Q1,1,G*%
%TO.N,/GATE1*%
X104550000Y-109790000D03*
%TD*%
D24*
%TO.N,/VPWR*%
X57001000Y-92000000D03*
X57000000Y-88500000D03*
%TO.N,Net-(C11-Pad2)*%
X100150000Y-74700000D03*
%TO.N,/DRAIN1*%
X143000000Y-126000000D03*
X143000000Y-118000000D03*
X143000000Y-111000000D03*
%TO.N,/DRAIN2*%
X57000000Y-126000000D03*
X57000000Y-118000000D03*
X57000000Y-111000000D03*
%TO.N,GND*%
X68500000Y-60500000D03*
X100250000Y-68750000D03*
D25*
%TO.N,Net-(D3-K)*%
X65987500Y-75187500D03*
X71462500Y-72687500D03*
%TD*%
D26*
%TO.N,/VPWR*%
X71000000Y-89000000D02*
X68000000Y-92000000D01*
X72500000Y-77000000D02*
X71000000Y-78500000D01*
X106500000Y-77000000D02*
X72500000Y-77000000D01*
X109500000Y-74000000D02*
X106500000Y-77000000D01*
X111500000Y-74000000D02*
X109500000Y-74000000D01*
X71000000Y-78500000D02*
X71000000Y-89000000D01*
X68000000Y-92000000D02*
X57001000Y-92000000D01*
%TO.N,GND*%
X119940000Y-82400000D02*
X120000000Y-82460000D01*
X80140000Y-82400000D02*
X119940000Y-82400000D01*
X80040000Y-82500000D02*
X80140000Y-82400000D01*
D27*
%TO.N,Net-(C11-Pad2)*%
X94250000Y-70550000D02*
X94250000Y-61500000D01*
X100150000Y-74700000D02*
X98400000Y-74700000D01*
X98400000Y-74700000D02*
X94250000Y-70550000D01*
D26*
%TO.N,GND*%
X126205000Y-86415000D02*
X125080000Y-87540000D01*
X126205000Y-83585000D02*
X126205000Y-86415000D01*
X125080000Y-82460000D02*
X126205000Y-83585000D01*
X130790000Y-76750000D02*
X125080000Y-82460000D01*
X131299000Y-76750000D02*
X130790000Y-76750000D01*
D27*
X71000000Y-56000000D02*
X100000000Y-56000000D01*
X100000000Y-56000000D02*
X103000000Y-59000000D01*
X68500000Y-58500000D02*
X71000000Y-56000000D01*
X103000000Y-59000000D02*
X103000000Y-66000000D01*
X68500000Y-60500000D02*
X68500000Y-58500000D01*
X120201000Y-70701000D02*
X129250000Y-70701000D01*
X115500000Y-66000000D02*
X120201000Y-70701000D01*
X100250000Y-68750000D02*
X103000000Y-66000000D01*
X103000000Y-66000000D02*
X115500000Y-66000000D01*
D26*
%TO.N,/VPWR*%
X57001000Y-92000000D02*
X57001000Y-88500000D01*
%TO.N,GND*%
X80040000Y-95540000D02*
X80040000Y-87580000D01*
X83000000Y-98500000D02*
X80040000Y-95540000D01*
X91000000Y-98500000D02*
X83000000Y-98500000D01*
X95450000Y-109860000D02*
X95450000Y-102950000D01*
X95450000Y-102950000D02*
X91000000Y-98500000D01*
%TO.N,/DRAIN1*%
X130000000Y-119500000D02*
X132000000Y-121500000D01*
X112000000Y-119500000D02*
X130000000Y-119500000D01*
X110000000Y-117500000D02*
X112000000Y-119500000D01*
X110000000Y-109790000D02*
X110000000Y-117500000D01*
X132000000Y-121500000D02*
X143000000Y-121500000D01*
X143000000Y-121500000D02*
X143000000Y-118000000D01*
X143000000Y-118000000D02*
X143000000Y-126000000D01*
X143000000Y-126000000D02*
X143000000Y-127000000D01*
X143000000Y-111000000D02*
X143000000Y-118000000D01*
%TO.N,/DRAIN2*%
X75000000Y-103000000D02*
X60000000Y-103000000D01*
X60000000Y-103000000D02*
X57000000Y-106000000D01*
X88000000Y-103000000D02*
X75000000Y-103000000D01*
X57000000Y-106000000D02*
X57000000Y-127000000D01*
X90000000Y-105000000D02*
X88000000Y-103000000D01*
X90000000Y-109860000D02*
X90000000Y-105000000D01*
%TO.N,/GATE1*%
X104550000Y-114450000D02*
X104550000Y-109790000D01*
X103000000Y-116000000D02*
X104550000Y-114450000D01*
X81000000Y-116000000D02*
X103000000Y-116000000D01*
%TO.N,GND*%
X131299000Y-72750000D02*
X131299000Y-76750000D01*
X129250000Y-66250000D02*
X129250000Y-70701000D01*
X129250000Y-70701000D02*
X131299000Y-72750000D01*
X124500000Y-61500000D02*
X129250000Y-66250000D01*
D27*
X140975000Y-76750000D02*
X131299000Y-76750000D01*
D28*
%TO.N,Net-(D3-K)*%
X65987500Y-75187500D02*
X70687500Y-75187500D01*
X70687500Y-75187500D02*
X71462500Y-74412500D01*
X71462500Y-74412500D02*
X71462500Y-72687500D01*
D27*
%TO.N,Net-(C11-Pad2)*%
X94500000Y-61750000D02*
X94250000Y-61500000D01*
%TD*%
%TA.AperFunction,Conductor*%
%TO.N,Net-(J11-Pin_1)*%
G36*
X112443039Y-127019685D02*
G01*
X112488794Y-127072489D01*
X112500000Y-127124000D01*
X112500000Y-143876000D01*
X112480315Y-143943039D01*
X112427511Y-143988794D01*
X112376000Y-144000000D01*
X102124000Y-144000000D01*
X102056961Y-143980315D01*
X102011206Y-143927511D01*
X102000000Y-143876000D01*
X102000000Y-139881947D01*
X103500000Y-139881947D01*
X103500000Y-140118052D01*
X103536934Y-140351247D01*
X103609897Y-140575802D01*
X103705748Y-140763920D01*
X104359232Y-140110436D01*
X104374979Y-140189598D01*
X104423978Y-140307890D01*
X104495112Y-140414351D01*
X104585649Y-140504888D01*
X104692110Y-140576022D01*
X104810402Y-140625021D01*
X104889562Y-140640766D01*
X104236078Y-141294250D01*
X104424197Y-141390102D01*
X104648752Y-141463065D01*
X104648751Y-141463065D01*
X104881948Y-141500000D01*
X105118052Y-141500000D01*
X105351247Y-141463065D01*
X105575802Y-141390102D01*
X105763920Y-141294250D01*
X105110436Y-140640766D01*
X105189598Y-140625021D01*
X105307890Y-140576022D01*
X105414351Y-140504888D01*
X105504888Y-140414351D01*
X105576022Y-140307890D01*
X105625021Y-140189598D01*
X105640766Y-140110436D01*
X106294250Y-140763920D01*
X106390102Y-140575802D01*
X106463065Y-140351247D01*
X106500000Y-140118052D01*
X106500000Y-139881947D01*
X106463065Y-139648752D01*
X106390102Y-139424197D01*
X106330663Y-139307541D01*
X106323891Y-139294250D01*
X109736078Y-139294250D01*
X109924197Y-139390102D01*
X110148752Y-139463065D01*
X110148751Y-139463065D01*
X110381948Y-139500000D01*
X110618052Y-139500000D01*
X110851247Y-139463065D01*
X111075802Y-139390102D01*
X111263920Y-139294250D01*
X110500000Y-138530330D01*
X109736078Y-139294250D01*
X106323891Y-139294250D01*
X106294250Y-139236078D01*
X105640766Y-139889562D01*
X105625021Y-139810402D01*
X105576022Y-139692110D01*
X105504888Y-139585649D01*
X105414351Y-139495112D01*
X105307890Y-139423978D01*
X105189598Y-139374979D01*
X105110437Y-139359233D01*
X105763920Y-138705748D01*
X105575802Y-138609897D01*
X105351247Y-138536934D01*
X105351248Y-138536934D01*
X105118052Y-138500000D01*
X104881948Y-138500000D01*
X104648752Y-138536934D01*
X104424194Y-138609898D01*
X104236078Y-138705747D01*
X104236077Y-138705747D01*
X104889563Y-139359233D01*
X104810402Y-139374979D01*
X104692110Y-139423978D01*
X104585649Y-139495112D01*
X104495112Y-139585649D01*
X104423978Y-139692110D01*
X104374979Y-139810402D01*
X104359233Y-139889563D01*
X103705747Y-139236077D01*
X103705747Y-139236078D01*
X103609898Y-139424194D01*
X103536934Y-139648752D01*
X103500000Y-139881947D01*
X102000000Y-139881947D01*
X102000000Y-137881947D01*
X109000000Y-137881947D01*
X109000000Y-138118052D01*
X109036934Y-138351247D01*
X109109897Y-138575802D01*
X109205748Y-138763920D01*
X109969670Y-138000000D01*
X109903844Y-137934174D01*
X110000000Y-137934174D01*
X110000000Y-138065826D01*
X110034075Y-138192993D01*
X110099901Y-138307007D01*
X110192993Y-138400099D01*
X110307007Y-138465925D01*
X110434174Y-138500000D01*
X110565826Y-138500000D01*
X110692993Y-138465925D01*
X110807007Y-138400099D01*
X110900099Y-138307007D01*
X110965925Y-138192993D01*
X111000000Y-138065826D01*
X111000000Y-137999999D01*
X111030330Y-137999999D01*
X111030330Y-138000000D01*
X111794250Y-138763920D01*
X111890102Y-138575802D01*
X111963065Y-138351247D01*
X112000000Y-138118052D01*
X112000000Y-137881947D01*
X111963065Y-137648752D01*
X111890102Y-137424197D01*
X111794250Y-137236078D01*
X111030330Y-137999999D01*
X111000000Y-137999999D01*
X111000000Y-137934174D01*
X110965925Y-137807007D01*
X110900099Y-137692993D01*
X110807007Y-137599901D01*
X110692993Y-137534075D01*
X110565826Y-137500000D01*
X110434174Y-137500000D01*
X110307007Y-137534075D01*
X110192993Y-137599901D01*
X110099901Y-137692993D01*
X110034075Y-137807007D01*
X110000000Y-137934174D01*
X109903844Y-137934174D01*
X109205747Y-137236077D01*
X109205747Y-137236078D01*
X109109898Y-137424194D01*
X109036934Y-137648752D01*
X109000000Y-137881947D01*
X102000000Y-137881947D01*
X102000000Y-136705747D01*
X109736077Y-136705747D01*
X110500000Y-137469670D01*
X110500001Y-137469670D01*
X111263920Y-136705748D01*
X111075802Y-136609897D01*
X110851247Y-136536934D01*
X110851248Y-136536934D01*
X110618052Y-136500000D01*
X110381948Y-136500000D01*
X110148752Y-136536934D01*
X109924194Y-136609898D01*
X109736078Y-136705747D01*
X109736077Y-136705747D01*
X102000000Y-136705747D01*
X102000000Y-131681948D01*
X103500000Y-131681948D01*
X103500000Y-131918053D01*
X103536934Y-132151248D01*
X103609897Y-132375803D01*
X103705748Y-132563921D01*
X104359232Y-131910437D01*
X104374979Y-131989599D01*
X104423978Y-132107891D01*
X104495112Y-132214352D01*
X104585649Y-132304889D01*
X104692110Y-132376023D01*
X104810402Y-132425022D01*
X104889562Y-132440767D01*
X104236078Y-133094251D01*
X104424197Y-133190103D01*
X104648752Y-133263066D01*
X104648751Y-133263066D01*
X104881948Y-133300001D01*
X105118052Y-133300001D01*
X105351247Y-133263066D01*
X105575802Y-133190103D01*
X105763920Y-133094251D01*
X105110436Y-132440767D01*
X105189598Y-132425022D01*
X105307890Y-132376023D01*
X105414351Y-132304889D01*
X105504888Y-132214352D01*
X105576022Y-132107891D01*
X105625021Y-131989599D01*
X105640766Y-131910437D01*
X106294250Y-132563921D01*
X106390102Y-132375803D01*
X106463065Y-132151248D01*
X106500000Y-131918053D01*
X106500000Y-131794250D01*
X109736078Y-131794250D01*
X109924197Y-131890102D01*
X110148752Y-131963065D01*
X110148751Y-131963065D01*
X110381948Y-132000000D01*
X110618052Y-132000000D01*
X110851247Y-131963065D01*
X111075802Y-131890102D01*
X111263920Y-131794250D01*
X110500000Y-131030330D01*
X109736078Y-131794250D01*
X106500000Y-131794250D01*
X106500000Y-131681948D01*
X106463065Y-131448753D01*
X106390102Y-131224198D01*
X106294250Y-131036079D01*
X105640766Y-131689563D01*
X105625021Y-131610403D01*
X105576022Y-131492111D01*
X105504888Y-131385650D01*
X105414351Y-131295113D01*
X105307890Y-131223979D01*
X105189598Y-131174980D01*
X105110437Y-131159234D01*
X105763920Y-130505749D01*
X105728223Y-130487560D01*
X105575802Y-130409898D01*
X105489778Y-130381947D01*
X109000000Y-130381947D01*
X109000000Y-130618052D01*
X109036934Y-130851247D01*
X109109897Y-131075802D01*
X109205748Y-131263920D01*
X109969670Y-130500000D01*
X109903844Y-130434174D01*
X110000000Y-130434174D01*
X110000000Y-130565826D01*
X110034075Y-130692993D01*
X110099901Y-130807007D01*
X110192993Y-130900099D01*
X110307007Y-130965925D01*
X110434174Y-131000000D01*
X110565826Y-131000000D01*
X110692993Y-130965925D01*
X110807007Y-130900099D01*
X110900099Y-130807007D01*
X110965925Y-130692993D01*
X111000000Y-130565826D01*
X111000000Y-130499999D01*
X111030330Y-130499999D01*
X111030330Y-130500000D01*
X111794250Y-131263920D01*
X111890102Y-131075802D01*
X111963065Y-130851247D01*
X112000000Y-130618052D01*
X112000000Y-130381947D01*
X111963065Y-130148752D01*
X111890102Y-129924197D01*
X111794250Y-129736078D01*
X111030330Y-130499999D01*
X111000000Y-130499999D01*
X111000000Y-130434174D01*
X110965925Y-130307007D01*
X110900099Y-130192993D01*
X110807007Y-130099901D01*
X110692993Y-130034075D01*
X110565826Y-130000000D01*
X110434174Y-130000000D01*
X110307007Y-130034075D01*
X110192993Y-130099901D01*
X110099901Y-130192993D01*
X110034075Y-130307007D01*
X110000000Y-130434174D01*
X109903844Y-130434174D01*
X109205747Y-129736077D01*
X109205747Y-129736078D01*
X109109898Y-129924194D01*
X109036934Y-130148752D01*
X109000000Y-130381947D01*
X105489778Y-130381947D01*
X105351247Y-130336935D01*
X105351248Y-130336935D01*
X105118052Y-130300001D01*
X104881948Y-130300001D01*
X104648752Y-130336935D01*
X104424194Y-130409899D01*
X104236078Y-130505748D01*
X104236077Y-130505748D01*
X104889563Y-131159234D01*
X104810402Y-131174980D01*
X104692110Y-131223979D01*
X104585649Y-131295113D01*
X104495112Y-131385650D01*
X104423978Y-131492111D01*
X104374979Y-131610403D01*
X104359233Y-131689564D01*
X103705747Y-131036078D01*
X103705747Y-131036079D01*
X103609898Y-131224195D01*
X103536934Y-131448753D01*
X103500000Y-131681948D01*
X102000000Y-131681948D01*
X102000000Y-129205747D01*
X109736077Y-129205747D01*
X110500000Y-129969670D01*
X110500001Y-129969670D01*
X111263920Y-129205748D01*
X111075802Y-129109897D01*
X110851247Y-129036934D01*
X110851248Y-129036934D01*
X110618052Y-129000000D01*
X110381948Y-129000000D01*
X110148752Y-129036934D01*
X109924194Y-129109898D01*
X109736078Y-129205747D01*
X109736077Y-129205747D01*
X102000000Y-129205747D01*
X102000000Y-127124000D01*
X102019685Y-127056961D01*
X102072489Y-127011206D01*
X102124000Y-127000000D01*
X112376000Y-127000000D01*
X112443039Y-127019685D01*
G37*
%TD.AperFunction*%
%TD*%
%TA.AperFunction,Conductor*%
%TO.N,Net-(C1-Pad1)*%
G36*
X127443039Y-124019685D02*
G01*
X127488794Y-124072489D01*
X127500000Y-124124000D01*
X127500000Y-125123479D01*
X127480315Y-125190518D01*
X127427511Y-125236273D01*
X127358353Y-125246217D01*
X127356603Y-125245953D01*
X127294251Y-125236077D01*
X126530330Y-125999999D01*
X126530330Y-126000000D01*
X127294251Y-126763921D01*
X127356602Y-126754046D01*
X127425896Y-126763001D01*
X127479348Y-126807997D01*
X127499987Y-126874748D01*
X127500000Y-126876519D01*
X127500000Y-143876000D01*
X127480315Y-143943039D01*
X127427511Y-143988794D01*
X127376000Y-144000000D01*
X116624000Y-144000000D01*
X116556961Y-143980315D01*
X116511206Y-143927511D01*
X116500000Y-143876000D01*
X116500000Y-139294250D01*
X119736078Y-139294250D01*
X119924197Y-139390102D01*
X120148752Y-139463065D01*
X120148751Y-139463065D01*
X120381948Y-139500000D01*
X120618052Y-139500000D01*
X120851247Y-139463065D01*
X121075802Y-139390102D01*
X121263920Y-139294250D01*
X122736078Y-139294250D01*
X122924197Y-139390102D01*
X123148752Y-139463065D01*
X123148751Y-139463065D01*
X123381948Y-139500000D01*
X123618052Y-139500000D01*
X123851247Y-139463065D01*
X124075802Y-139390102D01*
X124263920Y-139294250D01*
X123500000Y-138530330D01*
X122736078Y-139294250D01*
X121263920Y-139294250D01*
X120500000Y-138530330D01*
X119736078Y-139294250D01*
X116500000Y-139294250D01*
X116500000Y-137881947D01*
X119000000Y-137881947D01*
X119000000Y-138118052D01*
X119036934Y-138351247D01*
X119109897Y-138575802D01*
X119205748Y-138763920D01*
X119969670Y-138000000D01*
X119903844Y-137934174D01*
X120000000Y-137934174D01*
X120000000Y-138065826D01*
X120034075Y-138192993D01*
X120099901Y-138307007D01*
X120192993Y-138400099D01*
X120307007Y-138465925D01*
X120434174Y-138500000D01*
X120565826Y-138500000D01*
X120692993Y-138465925D01*
X120807007Y-138400099D01*
X120900099Y-138307007D01*
X120965925Y-138192993D01*
X121000000Y-138065826D01*
X121000000Y-137999999D01*
X121030330Y-137999999D01*
X121030330Y-138000000D01*
X121794250Y-138763920D01*
X121889514Y-138576956D01*
X121937488Y-138526160D01*
X122005309Y-138509365D01*
X122071444Y-138531902D01*
X122110484Y-138576956D01*
X122205747Y-138763920D01*
X122969670Y-138000000D01*
X122903844Y-137934174D01*
X123000000Y-137934174D01*
X123000000Y-138065826D01*
X123034075Y-138192993D01*
X123099901Y-138307007D01*
X123192993Y-138400099D01*
X123307007Y-138465925D01*
X123434174Y-138500000D01*
X123565826Y-138500000D01*
X123692993Y-138465925D01*
X123807007Y-138400099D01*
X123900099Y-138307007D01*
X123965925Y-138192993D01*
X124000000Y-138065826D01*
X124000000Y-137999999D01*
X124030330Y-137999999D01*
X124030330Y-138000000D01*
X124794250Y-138763920D01*
X124890102Y-138575802D01*
X124963065Y-138351247D01*
X125000000Y-138118052D01*
X125000000Y-137881947D01*
X124963065Y-137648752D01*
X124890102Y-137424197D01*
X124794250Y-137236078D01*
X124030330Y-137999999D01*
X124000000Y-137999999D01*
X124000000Y-137934174D01*
X123965925Y-137807007D01*
X123900099Y-137692993D01*
X123807007Y-137599901D01*
X123692993Y-137534075D01*
X123565826Y-137500000D01*
X123434174Y-137500000D01*
X123307007Y-137534075D01*
X123192993Y-137599901D01*
X123099901Y-137692993D01*
X123034075Y-137807007D01*
X123000000Y-137934174D01*
X122903844Y-137934174D01*
X122205747Y-137236077D01*
X122110484Y-137423043D01*
X122062509Y-137473839D01*
X121994688Y-137490634D01*
X121928553Y-137468097D01*
X121889514Y-137423043D01*
X121794250Y-137236078D01*
X121030330Y-137999999D01*
X121000000Y-137999999D01*
X121000000Y-137934174D01*
X120965925Y-137807007D01*
X120900099Y-137692993D01*
X120807007Y-137599901D01*
X120692993Y-137534075D01*
X120565826Y-137500000D01*
X120434174Y-137500000D01*
X120307007Y-137534075D01*
X120192993Y-137599901D01*
X120099901Y-137692993D01*
X120034075Y-137807007D01*
X120000000Y-137934174D01*
X119903844Y-137934174D01*
X119205747Y-137236077D01*
X119205747Y-137236078D01*
X119109898Y-137424194D01*
X119036934Y-137648752D01*
X119000000Y-137881947D01*
X116500000Y-137881947D01*
X116500000Y-136705747D01*
X119736077Y-136705747D01*
X120500000Y-137469670D01*
X120500001Y-137469670D01*
X121263920Y-136705748D01*
X121263918Y-136705747D01*
X122736077Y-136705747D01*
X123500000Y-137469670D01*
X123500001Y-137469670D01*
X124263920Y-136705748D01*
X124075802Y-136609897D01*
X123851247Y-136536934D01*
X123851248Y-136536934D01*
X123618052Y-136500000D01*
X123381948Y-136500000D01*
X123148752Y-136536934D01*
X122924194Y-136609898D01*
X122736078Y-136705747D01*
X122736077Y-136705747D01*
X121263918Y-136705747D01*
X121075802Y-136609897D01*
X120851247Y-136536934D01*
X120851248Y-136536934D01*
X120618052Y-136500000D01*
X120381948Y-136500000D01*
X120148752Y-136536934D01*
X119924194Y-136609898D01*
X119736078Y-136705747D01*
X119736077Y-136705747D01*
X116500000Y-136705747D01*
X116500000Y-131794250D01*
X119736078Y-131794250D01*
X119924197Y-131890102D01*
X120148752Y-131963065D01*
X120148751Y-131963065D01*
X120381948Y-132000000D01*
X120618052Y-132000000D01*
X120851247Y-131963065D01*
X121075802Y-131890102D01*
X121263920Y-131794250D01*
X122736078Y-131794250D01*
X122924197Y-131890102D01*
X123148752Y-131963065D01*
X123148751Y-131963065D01*
X123381948Y-132000000D01*
X123618052Y-132000000D01*
X123851247Y-131963065D01*
X124075802Y-131890102D01*
X124263920Y-131794250D01*
X123500000Y-131030330D01*
X122736078Y-131794250D01*
X121263920Y-131794250D01*
X120500000Y-131030330D01*
X119736078Y-131794250D01*
X116500000Y-131794250D01*
X116500000Y-130381947D01*
X119000000Y-130381947D01*
X119000000Y-130618052D01*
X119036934Y-130851247D01*
X119109897Y-131075802D01*
X119205748Y-131263920D01*
X119969670Y-130500000D01*
X119903844Y-130434174D01*
X120000000Y-130434174D01*
X120000000Y-130565826D01*
X120034075Y-130692993D01*
X120099901Y-130807007D01*
X120192993Y-130900099D01*
X120307007Y-130965925D01*
X120434174Y-131000000D01*
X120565826Y-131000000D01*
X120692993Y-130965925D01*
X120807007Y-130900099D01*
X120900099Y-130807007D01*
X120965925Y-130692993D01*
X121000000Y-130565826D01*
X121000000Y-130499999D01*
X121030330Y-130499999D01*
X121030330Y-130500000D01*
X121794250Y-131263920D01*
X121889514Y-131076956D01*
X121937488Y-131026160D01*
X122005309Y-131009365D01*
X122071444Y-131031902D01*
X122110484Y-131076956D01*
X122205747Y-131263920D01*
X122969670Y-130500000D01*
X122903844Y-130434174D01*
X123000000Y-130434174D01*
X123000000Y-130565826D01*
X123034075Y-130692993D01*
X123099901Y-130807007D01*
X123192993Y-130900099D01*
X123307007Y-130965925D01*
X123434174Y-131000000D01*
X123565826Y-131000000D01*
X123692993Y-130965925D01*
X123807007Y-130900099D01*
X123900099Y-130807007D01*
X123965925Y-130692993D01*
X124000000Y-130565826D01*
X124000000Y-130499999D01*
X124030330Y-130499999D01*
X124030330Y-130500000D01*
X124794250Y-131263920D01*
X124890102Y-131075802D01*
X124963065Y-130851247D01*
X125000000Y-130618052D01*
X125000000Y-130381947D01*
X124963065Y-130148752D01*
X124890102Y-129924197D01*
X124794250Y-129736078D01*
X124030330Y-130499999D01*
X124000000Y-130499999D01*
X124000000Y-130434174D01*
X123965925Y-130307007D01*
X123900099Y-130192993D01*
X123807007Y-130099901D01*
X123692993Y-130034075D01*
X123565826Y-130000000D01*
X123434174Y-130000000D01*
X123307007Y-130034075D01*
X123192993Y-130099901D01*
X123099901Y-130192993D01*
X123034075Y-130307007D01*
X123000000Y-130434174D01*
X122903844Y-130434174D01*
X122205747Y-129736077D01*
X122110484Y-129923043D01*
X122062509Y-129973839D01*
X121994688Y-129990634D01*
X121928553Y-129968097D01*
X121889514Y-129923043D01*
X121794250Y-129736078D01*
X121030330Y-130499999D01*
X121000000Y-130499999D01*
X121000000Y-130434174D01*
X120965925Y-130307007D01*
X120900099Y-130192993D01*
X120807007Y-130099901D01*
X120692993Y-130034075D01*
X120565826Y-130000000D01*
X120434174Y-130000000D01*
X120307007Y-130034075D01*
X120192993Y-130099901D01*
X120099901Y-130192993D01*
X120034075Y-130307007D01*
X120000000Y-130434174D01*
X119903844Y-130434174D01*
X119205747Y-129736077D01*
X119205747Y-129736078D01*
X119109898Y-129924194D01*
X119036934Y-130148752D01*
X119000000Y-130381947D01*
X116500000Y-130381947D01*
X116500000Y-129205747D01*
X119736077Y-129205747D01*
X120500000Y-129969670D01*
X120500001Y-129969670D01*
X121263920Y-129205748D01*
X121263918Y-129205747D01*
X122736077Y-129205747D01*
X123500000Y-129969670D01*
X123500001Y-129969670D01*
X124263920Y-129205748D01*
X124075802Y-129109897D01*
X123851247Y-129036934D01*
X123851248Y-129036934D01*
X123618052Y-129000000D01*
X123381948Y-129000000D01*
X123148752Y-129036934D01*
X122924194Y-129109898D01*
X122736078Y-129205747D01*
X122736077Y-129205747D01*
X121263918Y-129205747D01*
X121075802Y-129109897D01*
X120851247Y-129036934D01*
X120851248Y-129036934D01*
X120618052Y-129000000D01*
X120381948Y-129000000D01*
X120148752Y-129036934D01*
X119924194Y-129109898D01*
X119736078Y-129205747D01*
X119736077Y-129205747D01*
X116500000Y-129205747D01*
X116500000Y-127294250D01*
X117736078Y-127294250D01*
X117924197Y-127390102D01*
X118148752Y-127463065D01*
X118148751Y-127463065D01*
X118381948Y-127500000D01*
X118618052Y-127500000D01*
X118851247Y-127463065D01*
X119075802Y-127390102D01*
X119263920Y-127294250D01*
X125236078Y-127294250D01*
X125424197Y-127390102D01*
X125648752Y-127463065D01*
X125648751Y-127463065D01*
X125881948Y-127500000D01*
X126118052Y-127500000D01*
X126351247Y-127463065D01*
X126575802Y-127390102D01*
X126763920Y-127294250D01*
X126000000Y-126530330D01*
X125236078Y-127294250D01*
X119263920Y-127294250D01*
X118500000Y-126530330D01*
X117736078Y-127294250D01*
X116500000Y-127294250D01*
X116500000Y-125881947D01*
X117000000Y-125881947D01*
X117000000Y-126118052D01*
X117036934Y-126351247D01*
X117109897Y-126575802D01*
X117205748Y-126763920D01*
X117969670Y-126000000D01*
X117903844Y-125934174D01*
X118000000Y-125934174D01*
X118000000Y-126065826D01*
X118034075Y-126192993D01*
X118099901Y-126307007D01*
X118192993Y-126400099D01*
X118307007Y-126465925D01*
X118434174Y-126500000D01*
X118565826Y-126500000D01*
X118692993Y-126465925D01*
X118807007Y-126400099D01*
X118900099Y-126307007D01*
X118965925Y-126192993D01*
X119000000Y-126065826D01*
X119000000Y-125999999D01*
X119030330Y-125999999D01*
X119030330Y-126000000D01*
X119794250Y-126763920D01*
X119890102Y-126575802D01*
X119963065Y-126351247D01*
X120000000Y-126118052D01*
X120000000Y-125881947D01*
X124500000Y-125881947D01*
X124500000Y-126118052D01*
X124536934Y-126351247D01*
X124609897Y-126575802D01*
X124705748Y-126763920D01*
X125469670Y-126000000D01*
X125403844Y-125934174D01*
X125500000Y-125934174D01*
X125500000Y-126065826D01*
X125534075Y-126192993D01*
X125599901Y-126307007D01*
X125692993Y-126400099D01*
X125807007Y-126465925D01*
X125934174Y-126500000D01*
X126065826Y-126500000D01*
X126192993Y-126465925D01*
X126307007Y-126400099D01*
X126400099Y-126307007D01*
X126465925Y-126192993D01*
X126500000Y-126065826D01*
X126500000Y-125934174D01*
X126465925Y-125807007D01*
X126400099Y-125692993D01*
X126307007Y-125599901D01*
X126192993Y-125534075D01*
X126065826Y-125500000D01*
X125934174Y-125500000D01*
X125807007Y-125534075D01*
X125692993Y-125599901D01*
X125599901Y-125692993D01*
X125534075Y-125807007D01*
X125500000Y-125934174D01*
X125403844Y-125934174D01*
X124705747Y-125236077D01*
X124705747Y-125236078D01*
X124609898Y-125424194D01*
X124536934Y-125648752D01*
X124500000Y-125881947D01*
X120000000Y-125881947D01*
X119963065Y-125648752D01*
X119890102Y-125424197D01*
X119794250Y-125236078D01*
X119030330Y-125999999D01*
X119000000Y-125999999D01*
X119000000Y-125934174D01*
X118965925Y-125807007D01*
X118900099Y-125692993D01*
X118807007Y-125599901D01*
X118692993Y-125534075D01*
X118565826Y-125500000D01*
X118434174Y-125500000D01*
X118307007Y-125534075D01*
X118192993Y-125599901D01*
X118099901Y-125692993D01*
X118034075Y-125807007D01*
X118000000Y-125934174D01*
X117903844Y-125934174D01*
X117205747Y-125236077D01*
X117205747Y-125236078D01*
X117109898Y-125424194D01*
X117036934Y-125648752D01*
X117000000Y-125881947D01*
X116500000Y-125881947D01*
X116500000Y-124705747D01*
X117736077Y-124705747D01*
X118500000Y-125469670D01*
X118500001Y-125469670D01*
X119263920Y-124705748D01*
X119263918Y-124705747D01*
X125236077Y-124705747D01*
X126000000Y-125469670D01*
X126000001Y-125469670D01*
X126763920Y-124705748D01*
X126575802Y-124609897D01*
X126351247Y-124536934D01*
X126351248Y-124536934D01*
X126118052Y-124500000D01*
X125881948Y-124500000D01*
X125648752Y-124536934D01*
X125424194Y-124609898D01*
X125236078Y-124705747D01*
X125236077Y-124705747D01*
X119263918Y-124705747D01*
X119075802Y-124609897D01*
X118851247Y-124536934D01*
X118851248Y-124536934D01*
X118618052Y-124500000D01*
X118381948Y-124500000D01*
X118148752Y-124536934D01*
X117924194Y-124609898D01*
X117736078Y-124705747D01*
X117736077Y-124705747D01*
X116500000Y-124705747D01*
X116500000Y-124124000D01*
X116519685Y-124056961D01*
X116572489Y-124011206D01*
X116624000Y-124000000D01*
X127376000Y-124000000D01*
X127443039Y-124019685D01*
G37*
%TD.AperFunction*%
%TD*%
%TA.AperFunction,Conductor*%
%TO.N,Net-(J12-Pin_1)*%
G36*
X97943039Y-127019685D02*
G01*
X97988794Y-127072489D01*
X98000000Y-127124000D01*
X98000000Y-143876000D01*
X97980315Y-143943039D01*
X97927511Y-143988794D01*
X97876000Y-144000000D01*
X87624000Y-144000000D01*
X87556961Y-143980315D01*
X87511206Y-143927511D01*
X87500000Y-143876000D01*
X87500000Y-139881947D01*
X93500000Y-139881947D01*
X93500000Y-140118052D01*
X93536934Y-140351247D01*
X93609897Y-140575802D01*
X93705748Y-140763920D01*
X94359232Y-140110436D01*
X94374979Y-140189598D01*
X94423978Y-140307890D01*
X94495112Y-140414351D01*
X94585649Y-140504888D01*
X94692110Y-140576022D01*
X94810402Y-140625021D01*
X94889562Y-140640766D01*
X94236078Y-141294250D01*
X94424197Y-141390102D01*
X94648752Y-141463065D01*
X94648751Y-141463065D01*
X94881948Y-141500000D01*
X95118052Y-141500000D01*
X95351247Y-141463065D01*
X95575802Y-141390102D01*
X95763920Y-141294250D01*
X95110436Y-140640766D01*
X95189598Y-140625021D01*
X95307890Y-140576022D01*
X95414351Y-140504888D01*
X95504888Y-140414351D01*
X95576022Y-140307890D01*
X95625021Y-140189598D01*
X95640766Y-140110436D01*
X96294250Y-140763920D01*
X96390102Y-140575802D01*
X96463065Y-140351247D01*
X96500000Y-140118052D01*
X96500000Y-139881947D01*
X96463065Y-139648752D01*
X96390102Y-139424197D01*
X96294250Y-139236078D01*
X95640766Y-139889562D01*
X95625021Y-139810402D01*
X95576022Y-139692110D01*
X95504888Y-139585649D01*
X95414351Y-139495112D01*
X95307890Y-139423978D01*
X95189598Y-139374979D01*
X95110437Y-139359233D01*
X95763920Y-138705748D01*
X95575802Y-138609897D01*
X95351247Y-138536934D01*
X95351248Y-138536934D01*
X95118052Y-138500000D01*
X94881948Y-138500000D01*
X94648752Y-138536934D01*
X94424194Y-138609898D01*
X94236078Y-138705747D01*
X94236077Y-138705747D01*
X94889563Y-139359233D01*
X94810402Y-139374979D01*
X94692110Y-139423978D01*
X94585649Y-139495112D01*
X94495112Y-139585649D01*
X94423978Y-139692110D01*
X94374979Y-139810402D01*
X94359233Y-139889563D01*
X93705747Y-139236077D01*
X93705747Y-139236078D01*
X93609898Y-139424194D01*
X93536934Y-139648752D01*
X93500000Y-139881947D01*
X87500000Y-139881947D01*
X87500000Y-139294250D01*
X88736078Y-139294250D01*
X88924197Y-139390102D01*
X89148752Y-139463065D01*
X89148751Y-139463065D01*
X89381948Y-139500000D01*
X89618052Y-139500000D01*
X89851247Y-139463065D01*
X90075802Y-139390102D01*
X90263920Y-139294250D01*
X89500000Y-138530330D01*
X88736078Y-139294250D01*
X87500000Y-139294250D01*
X87500000Y-137881947D01*
X88000000Y-137881947D01*
X88000000Y-138118052D01*
X88036934Y-138351247D01*
X88109897Y-138575802D01*
X88205748Y-138763920D01*
X88969670Y-138000000D01*
X88903844Y-137934174D01*
X89000000Y-137934174D01*
X89000000Y-138065826D01*
X89034075Y-138192993D01*
X89099901Y-138307007D01*
X89192993Y-138400099D01*
X89307007Y-138465925D01*
X89434174Y-138500000D01*
X89565826Y-138500000D01*
X89692993Y-138465925D01*
X89807007Y-138400099D01*
X89900099Y-138307007D01*
X89965925Y-138192993D01*
X90000000Y-138065826D01*
X90000000Y-137999999D01*
X90030330Y-137999999D01*
X90030330Y-138000000D01*
X90794250Y-138763920D01*
X90830663Y-138692458D01*
X90830665Y-138692455D01*
X90890100Y-138575808D01*
X90890101Y-138575806D01*
X90963065Y-138351247D01*
X91000000Y-138118052D01*
X91000000Y-137881947D01*
X90963065Y-137648752D01*
X90890102Y-137424197D01*
X90794250Y-137236078D01*
X90030330Y-137999999D01*
X90000000Y-137999999D01*
X90000000Y-137934174D01*
X89965925Y-137807007D01*
X89900099Y-137692993D01*
X89807007Y-137599901D01*
X89692993Y-137534075D01*
X89565826Y-137500000D01*
X89434174Y-137500000D01*
X89307007Y-137534075D01*
X89192993Y-137599901D01*
X89099901Y-137692993D01*
X89034075Y-137807007D01*
X89000000Y-137934174D01*
X88903844Y-137934174D01*
X88205747Y-137236077D01*
X88205747Y-137236078D01*
X88109898Y-137424194D01*
X88036934Y-137648752D01*
X88000000Y-137881947D01*
X87500000Y-137881947D01*
X87500000Y-136705747D01*
X88736077Y-136705747D01*
X89500000Y-137469670D01*
X89500001Y-137469670D01*
X90263920Y-136705748D01*
X90075802Y-136609897D01*
X89851247Y-136536934D01*
X89851248Y-136536934D01*
X89618052Y-136500000D01*
X89381948Y-136500000D01*
X89148752Y-136536934D01*
X88924194Y-136609898D01*
X88736078Y-136705747D01*
X88736077Y-136705747D01*
X87500000Y-136705747D01*
X87500000Y-131794250D01*
X88736078Y-131794250D01*
X88924197Y-131890102D01*
X89148752Y-131963065D01*
X89148751Y-131963065D01*
X89381948Y-132000000D01*
X89618052Y-132000000D01*
X89851247Y-131963065D01*
X90075802Y-131890102D01*
X90263920Y-131794250D01*
X90151618Y-131681948D01*
X93500000Y-131681948D01*
X93500000Y-131918053D01*
X93536934Y-132151248D01*
X93609897Y-132375803D01*
X93705748Y-132563921D01*
X94359232Y-131910437D01*
X94374979Y-131989599D01*
X94423978Y-132107891D01*
X94495112Y-132214352D01*
X94585649Y-132304889D01*
X94692110Y-132376023D01*
X94810402Y-132425022D01*
X94889562Y-132440767D01*
X94236078Y-133094251D01*
X94424197Y-133190103D01*
X94648752Y-133263066D01*
X94648751Y-133263066D01*
X94881948Y-133300001D01*
X95118052Y-133300001D01*
X95351247Y-133263066D01*
X95575802Y-133190103D01*
X95763920Y-133094251D01*
X95110436Y-132440767D01*
X95189598Y-132425022D01*
X95307890Y-132376023D01*
X95414351Y-132304889D01*
X95504888Y-132214352D01*
X95576022Y-132107891D01*
X95625021Y-131989599D01*
X95640766Y-131910437D01*
X96294250Y-132563921D01*
X96390102Y-132375803D01*
X96463065Y-132151248D01*
X96500000Y-131918053D01*
X96500000Y-131681948D01*
X96463065Y-131448753D01*
X96390102Y-131224198D01*
X96294250Y-131036079D01*
X95640766Y-131689563D01*
X95625021Y-131610403D01*
X95576022Y-131492111D01*
X95504888Y-131385650D01*
X95414351Y-131295113D01*
X95307890Y-131223979D01*
X95189598Y-131174980D01*
X95110437Y-131159234D01*
X95763920Y-130505749D01*
X95575802Y-130409898D01*
X95351247Y-130336935D01*
X95351248Y-130336935D01*
X95118052Y-130300001D01*
X94881948Y-130300001D01*
X94648752Y-130336935D01*
X94424194Y-130409899D01*
X94236078Y-130505748D01*
X94236077Y-130505748D01*
X94889563Y-131159234D01*
X94810402Y-131174980D01*
X94692110Y-131223979D01*
X94585649Y-131295113D01*
X94495112Y-131385650D01*
X94423978Y-131492111D01*
X94374979Y-131610403D01*
X94359233Y-131689564D01*
X93705747Y-131036078D01*
X93705747Y-131036079D01*
X93609898Y-131224195D01*
X93536934Y-131448753D01*
X93500000Y-131681948D01*
X90151618Y-131681948D01*
X89500000Y-131030330D01*
X88736078Y-131794250D01*
X87500000Y-131794250D01*
X87500000Y-130381947D01*
X88000000Y-130381947D01*
X88000000Y-130618052D01*
X88036934Y-130851247D01*
X88109897Y-131075802D01*
X88205748Y-131263920D01*
X88969670Y-130500000D01*
X88903844Y-130434174D01*
X89000000Y-130434174D01*
X89000000Y-130565826D01*
X89034075Y-130692993D01*
X89099901Y-130807007D01*
X89192993Y-130900099D01*
X89307007Y-130965925D01*
X89434174Y-131000000D01*
X89565826Y-131000000D01*
X89692993Y-130965925D01*
X89807007Y-130900099D01*
X89900099Y-130807007D01*
X89965925Y-130692993D01*
X90000000Y-130565826D01*
X90000000Y-130499999D01*
X90030330Y-130499999D01*
X90030330Y-130500000D01*
X90794250Y-131263920D01*
X90890102Y-131075802D01*
X90963065Y-130851247D01*
X91000000Y-130618052D01*
X91000000Y-130381947D01*
X90963065Y-130148752D01*
X90890102Y-129924197D01*
X90794250Y-129736078D01*
X90030330Y-130499999D01*
X90000000Y-130499999D01*
X90000000Y-130434174D01*
X89965925Y-130307007D01*
X89900099Y-130192993D01*
X89807007Y-130099901D01*
X89692993Y-130034075D01*
X89565826Y-130000000D01*
X89434174Y-130000000D01*
X89307007Y-130034075D01*
X89192993Y-130099901D01*
X89099901Y-130192993D01*
X89034075Y-130307007D01*
X89000000Y-130434174D01*
X88903844Y-130434174D01*
X88205747Y-129736077D01*
X88205747Y-129736078D01*
X88109898Y-129924194D01*
X88036934Y-130148752D01*
X88000000Y-130381947D01*
X87500000Y-130381947D01*
X87500000Y-129205747D01*
X88736077Y-129205747D01*
X89500000Y-129969670D01*
X89500001Y-129969670D01*
X90263920Y-129205748D01*
X90075802Y-129109897D01*
X89851247Y-129036934D01*
X89851248Y-129036934D01*
X89618052Y-129000000D01*
X89381948Y-129000000D01*
X89148752Y-129036934D01*
X88924194Y-129109898D01*
X88736078Y-129205747D01*
X88736077Y-129205747D01*
X87500000Y-129205747D01*
X87500000Y-127124000D01*
X87519685Y-127056961D01*
X87572489Y-127011206D01*
X87624000Y-127000000D01*
X97876000Y-127000000D01*
X97943039Y-127019685D01*
G37*
%TD.AperFunction*%
%TD*%
%TA.AperFunction,Conductor*%
%TO.N,Net-(C15-Pad2)*%
G36*
X82943039Y-124019685D02*
G01*
X82988794Y-124072489D01*
X83000000Y-124124000D01*
X83000000Y-143876000D01*
X82980315Y-143943039D01*
X82927511Y-143988794D01*
X82876000Y-144000000D01*
X72124000Y-144000000D01*
X72056961Y-143980315D01*
X72011206Y-143927511D01*
X72000000Y-143876000D01*
X72000000Y-139294250D01*
X75736078Y-139294250D01*
X75924197Y-139390102D01*
X76148752Y-139463065D01*
X76148751Y-139463065D01*
X76381948Y-139500000D01*
X76618052Y-139500000D01*
X76851247Y-139463065D01*
X77075802Y-139390102D01*
X77263920Y-139294250D01*
X78736078Y-139294250D01*
X78924197Y-139390102D01*
X79148752Y-139463065D01*
X79148751Y-139463065D01*
X79381948Y-139500000D01*
X79618052Y-139500000D01*
X79851247Y-139463065D01*
X80075802Y-139390102D01*
X80263920Y-139294250D01*
X79500000Y-138530330D01*
X78736078Y-139294250D01*
X77263920Y-139294250D01*
X76500000Y-138530330D01*
X75736078Y-139294250D01*
X72000000Y-139294250D01*
X72000000Y-137881947D01*
X75000000Y-137881947D01*
X75000000Y-138118052D01*
X75036934Y-138351247D01*
X75109897Y-138575802D01*
X75205748Y-138763920D01*
X75969670Y-138000000D01*
X75903844Y-137934174D01*
X76000000Y-137934174D01*
X76000000Y-138065826D01*
X76034075Y-138192993D01*
X76099901Y-138307007D01*
X76192993Y-138400099D01*
X76307007Y-138465925D01*
X76434174Y-138500000D01*
X76565826Y-138500000D01*
X76692993Y-138465925D01*
X76807007Y-138400099D01*
X76900099Y-138307007D01*
X76965925Y-138192993D01*
X77000000Y-138065826D01*
X77000000Y-137999999D01*
X77030330Y-137999999D01*
X77030330Y-138000000D01*
X77794250Y-138763920D01*
X77889514Y-138576956D01*
X77937488Y-138526160D01*
X78005309Y-138509365D01*
X78071444Y-138531902D01*
X78110484Y-138576956D01*
X78205747Y-138763920D01*
X78969670Y-138000000D01*
X78903844Y-137934174D01*
X79000000Y-137934174D01*
X79000000Y-138065826D01*
X79034075Y-138192993D01*
X79099901Y-138307007D01*
X79192993Y-138400099D01*
X79307007Y-138465925D01*
X79434174Y-138500000D01*
X79565826Y-138500000D01*
X79692993Y-138465925D01*
X79807007Y-138400099D01*
X79900099Y-138307007D01*
X79965925Y-138192993D01*
X80000000Y-138065826D01*
X80000000Y-137999999D01*
X80030330Y-137999999D01*
X80030330Y-138000000D01*
X80794250Y-138763920D01*
X80890102Y-138575802D01*
X80963065Y-138351247D01*
X81000000Y-138118052D01*
X81000000Y-137881947D01*
X80963065Y-137648752D01*
X80890102Y-137424197D01*
X80794250Y-137236078D01*
X80030330Y-137999999D01*
X80000000Y-137999999D01*
X80000000Y-137934174D01*
X79965925Y-137807007D01*
X79900099Y-137692993D01*
X79807007Y-137599901D01*
X79692993Y-137534075D01*
X79565826Y-137500000D01*
X79434174Y-137500000D01*
X79307007Y-137534075D01*
X79192993Y-137599901D01*
X79099901Y-137692993D01*
X79034075Y-137807007D01*
X79000000Y-137934174D01*
X78903844Y-137934174D01*
X78205747Y-137236077D01*
X78110484Y-137423043D01*
X78062509Y-137473839D01*
X77994688Y-137490634D01*
X77928553Y-137468097D01*
X77889514Y-137423043D01*
X77794250Y-137236078D01*
X77030330Y-137999999D01*
X77000000Y-137999999D01*
X77000000Y-137934174D01*
X76965925Y-137807007D01*
X76900099Y-137692993D01*
X76807007Y-137599901D01*
X76692993Y-137534075D01*
X76565826Y-137500000D01*
X76434174Y-137500000D01*
X76307007Y-137534075D01*
X76192993Y-137599901D01*
X76099901Y-137692993D01*
X76034075Y-137807007D01*
X76000000Y-137934174D01*
X75903844Y-137934174D01*
X75205747Y-137236077D01*
X75205747Y-137236078D01*
X75109898Y-137424194D01*
X75036934Y-137648752D01*
X75000000Y-137881947D01*
X72000000Y-137881947D01*
X72000000Y-136705747D01*
X75736077Y-136705747D01*
X76500000Y-137469670D01*
X76500001Y-137469670D01*
X77263920Y-136705748D01*
X77263918Y-136705747D01*
X78736077Y-136705747D01*
X79500000Y-137469670D01*
X79500001Y-137469670D01*
X80263920Y-136705748D01*
X80075802Y-136609897D01*
X79851247Y-136536934D01*
X79851248Y-136536934D01*
X79618052Y-136500000D01*
X79381948Y-136500000D01*
X79148752Y-136536934D01*
X78924194Y-136609898D01*
X78736078Y-136705747D01*
X78736077Y-136705747D01*
X77263918Y-136705747D01*
X77075802Y-136609897D01*
X76851247Y-136536934D01*
X76851248Y-136536934D01*
X76618052Y-136500000D01*
X76381948Y-136500000D01*
X76148752Y-136536934D01*
X75924194Y-136609898D01*
X75736078Y-136705747D01*
X75736077Y-136705747D01*
X72000000Y-136705747D01*
X72000000Y-131794250D01*
X75736078Y-131794250D01*
X75924197Y-131890102D01*
X76148752Y-131963065D01*
X76148751Y-131963065D01*
X76381948Y-132000000D01*
X76618052Y-132000000D01*
X76851247Y-131963065D01*
X77075802Y-131890102D01*
X77263920Y-131794250D01*
X78736078Y-131794250D01*
X78924197Y-131890102D01*
X79148752Y-131963065D01*
X79148751Y-131963065D01*
X79381948Y-132000000D01*
X79618052Y-132000000D01*
X79851247Y-131963065D01*
X80075802Y-131890102D01*
X80263920Y-131794250D01*
X79500000Y-131030330D01*
X78736078Y-131794250D01*
X77263920Y-131794250D01*
X76500000Y-131030330D01*
X75736078Y-131794250D01*
X72000000Y-131794250D01*
X72000000Y-130381947D01*
X75000000Y-130381947D01*
X75000000Y-130618052D01*
X75036934Y-130851247D01*
X75109897Y-131075802D01*
X75205748Y-131263920D01*
X75969670Y-130500000D01*
X75903844Y-130434174D01*
X76000000Y-130434174D01*
X76000000Y-130565826D01*
X76034075Y-130692993D01*
X76099901Y-130807007D01*
X76192993Y-130900099D01*
X76307007Y-130965925D01*
X76434174Y-131000000D01*
X76565826Y-131000000D01*
X76692993Y-130965925D01*
X76807007Y-130900099D01*
X76900099Y-130807007D01*
X76965925Y-130692993D01*
X77000000Y-130565826D01*
X77000000Y-130499999D01*
X77030330Y-130499999D01*
X77030330Y-130500000D01*
X77794250Y-131263920D01*
X77889514Y-131076956D01*
X77937488Y-131026160D01*
X78005309Y-131009365D01*
X78071444Y-131031902D01*
X78110484Y-131076956D01*
X78205747Y-131263920D01*
X78969670Y-130500000D01*
X78903844Y-130434174D01*
X79000000Y-130434174D01*
X79000000Y-130565826D01*
X79034075Y-130692993D01*
X79099901Y-130807007D01*
X79192993Y-130900099D01*
X79307007Y-130965925D01*
X79434174Y-131000000D01*
X79565826Y-131000000D01*
X79692993Y-130965925D01*
X79807007Y-130900099D01*
X79900099Y-130807007D01*
X79965925Y-130692993D01*
X80000000Y-130565826D01*
X80000000Y-130499999D01*
X80030330Y-130499999D01*
X80030330Y-130500000D01*
X80794250Y-131263920D01*
X80890102Y-131075802D01*
X80963065Y-130851247D01*
X81000000Y-130618052D01*
X81000000Y-130381947D01*
X80963065Y-130148752D01*
X80890102Y-129924197D01*
X80794250Y-129736078D01*
X80030330Y-130499999D01*
X80000000Y-130499999D01*
X80000000Y-130434174D01*
X79965925Y-130307007D01*
X79900099Y-130192993D01*
X79807007Y-130099901D01*
X79692993Y-130034075D01*
X79565826Y-130000000D01*
X79434174Y-130000000D01*
X79307007Y-130034075D01*
X79192993Y-130099901D01*
X79099901Y-130192993D01*
X79034075Y-130307007D01*
X79000000Y-130434174D01*
X78903844Y-130434174D01*
X78205747Y-129736077D01*
X78110484Y-129923043D01*
X78062509Y-129973839D01*
X77994688Y-129990634D01*
X77928553Y-129968097D01*
X77889514Y-129923043D01*
X77794250Y-129736078D01*
X77030330Y-130499999D01*
X77000000Y-130499999D01*
X77000000Y-130434174D01*
X76965925Y-130307007D01*
X76900099Y-130192993D01*
X76807007Y-130099901D01*
X76692993Y-130034075D01*
X76565826Y-130000000D01*
X76434174Y-130000000D01*
X76307007Y-130034075D01*
X76192993Y-130099901D01*
X76099901Y-130192993D01*
X76034075Y-130307007D01*
X76000000Y-130434174D01*
X75903844Y-130434174D01*
X75205747Y-129736077D01*
X75205747Y-129736078D01*
X75109898Y-129924194D01*
X75036934Y-130148752D01*
X75000000Y-130381947D01*
X72000000Y-130381947D01*
X72000000Y-129205747D01*
X75736077Y-129205747D01*
X76500000Y-129969670D01*
X76500001Y-129969670D01*
X77263920Y-129205748D01*
X77263918Y-129205747D01*
X78736077Y-129205747D01*
X79500000Y-129969670D01*
X79500001Y-129969670D01*
X80263920Y-129205748D01*
X80075802Y-129109897D01*
X79851247Y-129036934D01*
X79851248Y-129036934D01*
X79618052Y-129000000D01*
X79381948Y-129000000D01*
X79148752Y-129036934D01*
X78924194Y-129109898D01*
X78736078Y-129205747D01*
X78736077Y-129205747D01*
X77263918Y-129205747D01*
X77075802Y-129109897D01*
X76851247Y-129036934D01*
X76851248Y-129036934D01*
X76618052Y-129000000D01*
X76381948Y-129000000D01*
X76148752Y-129036934D01*
X75924194Y-129109898D01*
X75736078Y-129205747D01*
X75736077Y-129205747D01*
X72000000Y-129205747D01*
X72000000Y-127294250D01*
X72736078Y-127294250D01*
X72924197Y-127390102D01*
X73148752Y-127463065D01*
X73148751Y-127463065D01*
X73381948Y-127500000D01*
X73618052Y-127500000D01*
X73851247Y-127463065D01*
X74075802Y-127390102D01*
X74263920Y-127294250D01*
X80236078Y-127294250D01*
X80424197Y-127390102D01*
X80648752Y-127463065D01*
X80648751Y-127463065D01*
X80881948Y-127500000D01*
X81118052Y-127500000D01*
X81351247Y-127463065D01*
X81575802Y-127390102D01*
X81763920Y-127294250D01*
X81000000Y-126530330D01*
X80236078Y-127294250D01*
X74263920Y-127294250D01*
X73500000Y-126530330D01*
X72736078Y-127294250D01*
X72000000Y-127294250D01*
X72000000Y-126876519D01*
X72019685Y-126809480D01*
X72072489Y-126763725D01*
X72141647Y-126753781D01*
X72143398Y-126754046D01*
X72205747Y-126763921D01*
X72969670Y-126000000D01*
X72903844Y-125934174D01*
X73000000Y-125934174D01*
X73000000Y-126065826D01*
X73034075Y-126192993D01*
X73099901Y-126307007D01*
X73192993Y-126400099D01*
X73307007Y-126465925D01*
X73434174Y-126500000D01*
X73565826Y-126500000D01*
X73692993Y-126465925D01*
X73807007Y-126400099D01*
X73900099Y-126307007D01*
X73965925Y-126192993D01*
X74000000Y-126065826D01*
X74000000Y-125999999D01*
X74030330Y-125999999D01*
X74030330Y-126000000D01*
X74794250Y-126763920D01*
X74890102Y-126575802D01*
X74963065Y-126351247D01*
X75000000Y-126118052D01*
X75000000Y-125881947D01*
X79500000Y-125881947D01*
X79500000Y-126118052D01*
X79536934Y-126351247D01*
X79609897Y-126575802D01*
X79705748Y-126763920D01*
X80469670Y-126000000D01*
X80403844Y-125934174D01*
X80500000Y-125934174D01*
X80500000Y-126065826D01*
X80534075Y-126192993D01*
X80599901Y-126307007D01*
X80692993Y-126400099D01*
X80807007Y-126465925D01*
X80934174Y-126500000D01*
X81065826Y-126500000D01*
X81192993Y-126465925D01*
X81307007Y-126400099D01*
X81400099Y-126307007D01*
X81465925Y-126192993D01*
X81500000Y-126065826D01*
X81500000Y-125999999D01*
X81530330Y-125999999D01*
X81530330Y-126000000D01*
X82294250Y-126763920D01*
X82390102Y-126575802D01*
X82463065Y-126351247D01*
X82500000Y-126118052D01*
X82500000Y-125881947D01*
X82463065Y-125648752D01*
X82390102Y-125424197D01*
X82294250Y-125236078D01*
X81530330Y-125999999D01*
X81500000Y-125999999D01*
X81500000Y-125934174D01*
X81465925Y-125807007D01*
X81400099Y-125692993D01*
X81307007Y-125599901D01*
X81192993Y-125534075D01*
X81065826Y-125500000D01*
X80934174Y-125500000D01*
X80807007Y-125534075D01*
X80692993Y-125599901D01*
X80599901Y-125692993D01*
X80534075Y-125807007D01*
X80500000Y-125934174D01*
X80403844Y-125934174D01*
X79705747Y-125236077D01*
X79705747Y-125236078D01*
X79609898Y-125424194D01*
X79536934Y-125648752D01*
X79500000Y-125881947D01*
X75000000Y-125881947D01*
X74963065Y-125648752D01*
X74890102Y-125424197D01*
X74794250Y-125236078D01*
X74030330Y-125999999D01*
X74000000Y-125999999D01*
X74000000Y-125934174D01*
X73965925Y-125807007D01*
X73900099Y-125692993D01*
X73807007Y-125599901D01*
X73692993Y-125534075D01*
X73565826Y-125500000D01*
X73434174Y-125500000D01*
X73307007Y-125534075D01*
X73192993Y-125599901D01*
X73099901Y-125692993D01*
X73034075Y-125807007D01*
X73000000Y-125934174D01*
X72903844Y-125934174D01*
X72205747Y-125236077D01*
X72143398Y-125245953D01*
X72074104Y-125236998D01*
X72020653Y-125192002D01*
X72000013Y-125125251D01*
X72000000Y-125123480D01*
X72000000Y-124705747D01*
X72736077Y-124705747D01*
X73500000Y-125469670D01*
X73500001Y-125469670D01*
X74263920Y-124705748D01*
X74263918Y-124705747D01*
X80236077Y-124705747D01*
X81000000Y-125469670D01*
X81000001Y-125469670D01*
X81763920Y-124705748D01*
X81575802Y-124609897D01*
X81351247Y-124536934D01*
X81351248Y-124536934D01*
X81118052Y-124500000D01*
X80881948Y-124500000D01*
X80648752Y-124536934D01*
X80424194Y-124609898D01*
X80236078Y-124705747D01*
X80236077Y-124705747D01*
X74263918Y-124705747D01*
X74075802Y-124609897D01*
X73851247Y-124536934D01*
X73851248Y-124536934D01*
X73618052Y-124500000D01*
X73381948Y-124500000D01*
X73148752Y-124536934D01*
X72924194Y-124609898D01*
X72736078Y-124705747D01*
X72736077Y-124705747D01*
X72000000Y-124705747D01*
X72000000Y-124124000D01*
X72019685Y-124056961D01*
X72072489Y-124011206D01*
X72124000Y-124000000D01*
X82876000Y-124000000D01*
X82943039Y-124019685D01*
G37*
%TD.AperFunction*%
%TD*%
%TA.AperFunction,Conductor*%
%TO.N,GND*%
G36*
X126943039Y-80019685D02*
G01*
X126988794Y-80072489D01*
X127000000Y-80124000D01*
X127000000Y-113876000D01*
X126980315Y-113943039D01*
X126927511Y-113988794D01*
X126876000Y-114000000D01*
X125037279Y-114000000D01*
X125037279Y-113999693D01*
X125034423Y-114000000D01*
X124995174Y-114000000D01*
X124939633Y-113972194D01*
X124936377Y-113966706D01*
X124315562Y-113345891D01*
X124442626Y-113293260D01*
X124581844Y-113200238D01*
X124700238Y-113081844D01*
X124793260Y-112942626D01*
X124845891Y-112815562D01*
X125426537Y-113396208D01*
X125426537Y-113396207D01*
X125429823Y-113391687D01*
X125429825Y-113391684D01*
X125545947Y-113163784D01*
X125545948Y-113163781D01*
X125624986Y-112920523D01*
X125665000Y-112667889D01*
X125665000Y-112412110D01*
X125624986Y-112159476D01*
X125545948Y-111916218D01*
X125545947Y-111916215D01*
X125429821Y-111688307D01*
X125426538Y-111683790D01*
X125426537Y-111683790D01*
X124845891Y-112264436D01*
X124793260Y-112137374D01*
X124700238Y-111998156D01*
X124581844Y-111879762D01*
X124442626Y-111786740D01*
X124315562Y-111734108D01*
X124896208Y-111153461D01*
X124891686Y-111150175D01*
X124663784Y-111034052D01*
X124663781Y-111034051D01*
X124420523Y-110955013D01*
X124167889Y-110915000D01*
X123912111Y-110915000D01*
X123659476Y-110955013D01*
X123416218Y-111034051D01*
X123416215Y-111034052D01*
X123188311Y-111150176D01*
X123183791Y-111153460D01*
X123183791Y-111153461D01*
X123764438Y-111734108D01*
X123637374Y-111786740D01*
X123498156Y-111879762D01*
X123379762Y-111998156D01*
X123286740Y-112137374D01*
X123234108Y-112264438D01*
X122653461Y-111683791D01*
X122653460Y-111683791D01*
X122650176Y-111688311D01*
X122534052Y-111916215D01*
X122534051Y-111916218D01*
X122455013Y-112159476D01*
X122415000Y-112412110D01*
X122415000Y-112667889D01*
X122455013Y-112920523D01*
X122534051Y-113163781D01*
X122534052Y-113163784D01*
X122650175Y-113391686D01*
X122653461Y-113396208D01*
X123234107Y-112815561D01*
X123286740Y-112942626D01*
X123379762Y-113081844D01*
X123498156Y-113200238D01*
X123637374Y-113293260D01*
X123764437Y-113345891D01*
X123143372Y-113966956D01*
X123140984Y-113964568D01*
X123116032Y-113989865D01*
X123070935Y-114000000D01*
X119957279Y-114000000D01*
X119957279Y-113999693D01*
X119954423Y-114000000D01*
X119915174Y-114000000D01*
X119859633Y-113972194D01*
X119856377Y-113966706D01*
X119235562Y-113345891D01*
X119362626Y-113293260D01*
X119501844Y-113200238D01*
X119620238Y-113081844D01*
X119713260Y-112942626D01*
X119765891Y-112815562D01*
X120346537Y-113396208D01*
X120346537Y-113396207D01*
X120349823Y-113391687D01*
X120349825Y-113391684D01*
X120465947Y-113163784D01*
X120465948Y-113163781D01*
X120544986Y-112920523D01*
X120585000Y-112667889D01*
X120585000Y-112412110D01*
X120544986Y-112159476D01*
X120465948Y-111916218D01*
X120465947Y-111916215D01*
X120349821Y-111688307D01*
X120346538Y-111683790D01*
X119765891Y-112264437D01*
X119713260Y-112137374D01*
X119620238Y-111998156D01*
X119501844Y-111879762D01*
X119362626Y-111786740D01*
X119235562Y-111734108D01*
X119816208Y-111153461D01*
X119811686Y-111150175D01*
X119583784Y-111034052D01*
X119583781Y-111034051D01*
X119340523Y-110955013D01*
X119087889Y-110915000D01*
X118832111Y-110915000D01*
X118579476Y-110955013D01*
X118336218Y-111034051D01*
X118336215Y-111034052D01*
X118108311Y-111150176D01*
X118103791Y-111153460D01*
X118103791Y-111153461D01*
X118684438Y-111734108D01*
X118557374Y-111786740D01*
X118418156Y-111879762D01*
X118299762Y-111998156D01*
X118206740Y-112137374D01*
X118154108Y-112264438D01*
X117573461Y-111683791D01*
X117573460Y-111683791D01*
X117570176Y-111688311D01*
X117454052Y-111916215D01*
X117454051Y-111916218D01*
X117375013Y-112159476D01*
X117335000Y-112412110D01*
X117335000Y-112667889D01*
X117375013Y-112920523D01*
X117454051Y-113163781D01*
X117454052Y-113163784D01*
X117570175Y-113391686D01*
X117573461Y-113396208D01*
X118154107Y-112815561D01*
X118206740Y-112942626D01*
X118299762Y-113081844D01*
X118418156Y-113200238D01*
X118557374Y-113293260D01*
X118684437Y-113345891D01*
X118063372Y-113966956D01*
X118060984Y-113964568D01*
X118036032Y-113989865D01*
X117990935Y-114000000D01*
X114124000Y-114000000D01*
X114056961Y-113980315D01*
X114011206Y-113927511D01*
X114000000Y-113876000D01*
X114000000Y-112114237D01*
X114019685Y-112047198D01*
X114072489Y-112001443D01*
X114141647Y-111991499D01*
X114205203Y-112020524D01*
X114211681Y-112026556D01*
X114293663Y-112108538D01*
X114293670Y-112108544D01*
X114475661Y-112248190D01*
X114674331Y-112362893D01*
X114674340Y-112362897D01*
X114886269Y-112450681D01*
X115074999Y-112501251D01*
X115075000Y-112501251D01*
X115075000Y-110441449D01*
X115094742Y-110454641D01*
X115231233Y-110511178D01*
X115376131Y-110540000D01*
X115523869Y-110540000D01*
X115668767Y-110511178D01*
X115805258Y-110454641D01*
X115825000Y-110441449D01*
X115825000Y-112501251D01*
X116013730Y-112450681D01*
X116225659Y-112362897D01*
X116225668Y-112362893D01*
X116334861Y-112299851D01*
X116424338Y-112248190D01*
X116606329Y-112108544D01*
X116606336Y-112108538D01*
X116768538Y-111946336D01*
X116768544Y-111946329D01*
X116908190Y-111764338D01*
X117022893Y-111565668D01*
X117022897Y-111565659D01*
X117110681Y-111353730D01*
X117160280Y-111168626D01*
X117170057Y-111132136D01*
X117199998Y-110904710D01*
X117200000Y-110904694D01*
X117200000Y-110165000D01*
X116101450Y-110165000D01*
X116114641Y-110145258D01*
X116171178Y-110008767D01*
X116196803Y-109879941D01*
X119974500Y-109879941D01*
X119974500Y-110120058D01*
X120012063Y-110357222D01*
X120086265Y-110585593D01*
X120195276Y-110799536D01*
X120336414Y-110993796D01*
X120506204Y-111163586D01*
X120700464Y-111304724D01*
X120796643Y-111353730D01*
X120914406Y-111413734D01*
X120914408Y-111413734D01*
X120914411Y-111413736D01*
X121142778Y-111487937D01*
X121379941Y-111525500D01*
X121379942Y-111525500D01*
X121620058Y-111525500D01*
X121620059Y-111525500D01*
X121857222Y-111487937D01*
X122085589Y-111413736D01*
X122299536Y-111304724D01*
X122493796Y-111163586D01*
X122663586Y-110993796D01*
X122804724Y-110799536D01*
X122913736Y-110585589D01*
X122987937Y-110357222D01*
X123025500Y-110120059D01*
X123025500Y-109879941D01*
X122987937Y-109642778D01*
X122913736Y-109414411D01*
X122913734Y-109414408D01*
X122913734Y-109414406D01*
X122856226Y-109301543D01*
X122804724Y-109200464D01*
X122663586Y-109006204D01*
X122493796Y-108836414D01*
X122299536Y-108695276D01*
X122260310Y-108675289D01*
X122085593Y-108586265D01*
X121857222Y-108512063D01*
X121620059Y-108474500D01*
X121379941Y-108474500D01*
X121261359Y-108493281D01*
X121142777Y-108512063D01*
X120914406Y-108586265D01*
X120700463Y-108695276D01*
X120506201Y-108836416D01*
X120336416Y-109006201D01*
X120195276Y-109200463D01*
X120086265Y-109414406D01*
X120012063Y-109642777D01*
X119974500Y-109879941D01*
X116196803Y-109879941D01*
X116200000Y-109863869D01*
X116200000Y-109716131D01*
X116171178Y-109571233D01*
X116114641Y-109434742D01*
X116101450Y-109415000D01*
X117200000Y-109415000D01*
X117200000Y-108675305D01*
X117199998Y-108675289D01*
X117170057Y-108447862D01*
X117110681Y-108226269D01*
X117022897Y-108014340D01*
X117022893Y-108014331D01*
X116908190Y-107815661D01*
X116768544Y-107633670D01*
X116768538Y-107633663D01*
X116606336Y-107471461D01*
X116606329Y-107471455D01*
X116546588Y-107425614D01*
X116424730Y-107332110D01*
X117335000Y-107332110D01*
X117335000Y-107587889D01*
X117375013Y-107840523D01*
X117454051Y-108083781D01*
X117454052Y-108083784D01*
X117570175Y-108311686D01*
X117573461Y-108316208D01*
X118154107Y-107735561D01*
X118206740Y-107862626D01*
X118299762Y-108001844D01*
X118418156Y-108120238D01*
X118557374Y-108213260D01*
X118684437Y-108265891D01*
X118103790Y-108846537D01*
X118103790Y-108846538D01*
X118108307Y-108849821D01*
X118336215Y-108965947D01*
X118336218Y-108965948D01*
X118579476Y-109044986D01*
X118832111Y-109085000D01*
X119087889Y-109085000D01*
X119340523Y-109044986D01*
X119583781Y-108965948D01*
X119583784Y-108965947D01*
X119811684Y-108849825D01*
X119811687Y-108849823D01*
X119816207Y-108846537D01*
X119816208Y-108846537D01*
X119235562Y-108265891D01*
X119362626Y-108213260D01*
X119501844Y-108120238D01*
X119620238Y-108001844D01*
X119713260Y-107862626D01*
X119765891Y-107735562D01*
X120346537Y-108316208D01*
X120346537Y-108316207D01*
X120349823Y-108311687D01*
X120349825Y-108311684D01*
X120465947Y-108083784D01*
X120465948Y-108083781D01*
X120544986Y-107840523D01*
X120585000Y-107587889D01*
X120585000Y-107332110D01*
X122415000Y-107332110D01*
X122415000Y-107587889D01*
X122455013Y-107840523D01*
X122534051Y-108083781D01*
X122534052Y-108083784D01*
X122650175Y-108311686D01*
X122653461Y-108316208D01*
X123234107Y-107735561D01*
X123286740Y-107862626D01*
X123379762Y-108001844D01*
X123498156Y-108120238D01*
X123637374Y-108213260D01*
X123764437Y-108265891D01*
X123183790Y-108846537D01*
X123183790Y-108846538D01*
X123188307Y-108849821D01*
X123416215Y-108965947D01*
X123416218Y-108965948D01*
X123659476Y-109044986D01*
X123912111Y-109085000D01*
X124167889Y-109085000D01*
X124420523Y-109044986D01*
X124663781Y-108965948D01*
X124663784Y-108965947D01*
X124891684Y-108849825D01*
X124891687Y-108849823D01*
X124896207Y-108846537D01*
X124896208Y-108846537D01*
X124315562Y-108265891D01*
X124442626Y-108213260D01*
X124581844Y-108120238D01*
X124700238Y-108001844D01*
X124793260Y-107862626D01*
X124845891Y-107735562D01*
X125426537Y-108316208D01*
X125426537Y-108316207D01*
X125429823Y-108311687D01*
X125429825Y-108311684D01*
X125545947Y-108083784D01*
X125545948Y-108083781D01*
X125624986Y-107840523D01*
X125665000Y-107587889D01*
X125665000Y-107332110D01*
X125624986Y-107079476D01*
X125545948Y-106836218D01*
X125545947Y-106836215D01*
X125429821Y-106608307D01*
X125426538Y-106603790D01*
X124845891Y-107184437D01*
X124793260Y-107057374D01*
X124700238Y-106918156D01*
X124581844Y-106799762D01*
X124442626Y-106706740D01*
X124315562Y-106654108D01*
X124896208Y-106073461D01*
X124891686Y-106070175D01*
X124663784Y-105954052D01*
X124663781Y-105954051D01*
X124420523Y-105875013D01*
X124167889Y-105835000D01*
X123912111Y-105835000D01*
X123659476Y-105875013D01*
X123416218Y-105954051D01*
X123416215Y-105954052D01*
X123188311Y-106070176D01*
X123183791Y-106073460D01*
X123183791Y-106073461D01*
X123764438Y-106654108D01*
X123637374Y-106706740D01*
X123498156Y-106799762D01*
X123379762Y-106918156D01*
X123286740Y-107057374D01*
X123234108Y-107184438D01*
X122653461Y-106603791D01*
X122653460Y-106603791D01*
X122650176Y-106608311D01*
X122534052Y-106836215D01*
X122534051Y-106836218D01*
X122455013Y-107079476D01*
X122415000Y-107332110D01*
X120585000Y-107332110D01*
X120544986Y-107079476D01*
X120465948Y-106836218D01*
X120465947Y-106836215D01*
X120349821Y-106608307D01*
X120346538Y-106603790D01*
X120346537Y-106603790D01*
X119765891Y-107184436D01*
X119713260Y-107057374D01*
X119620238Y-106918156D01*
X119501844Y-106799762D01*
X119362626Y-106706740D01*
X119235562Y-106654108D01*
X119816208Y-106073461D01*
X119811686Y-106070175D01*
X119583784Y-105954052D01*
X119583781Y-105954051D01*
X119340523Y-105875013D01*
X119087889Y-105835000D01*
X118832111Y-105835000D01*
X118579476Y-105875013D01*
X118336218Y-105954051D01*
X118336215Y-105954052D01*
X118108311Y-106070176D01*
X118103791Y-106073460D01*
X118103791Y-106073461D01*
X118684438Y-106654108D01*
X118557374Y-106706740D01*
X118418156Y-106799762D01*
X118299762Y-106918156D01*
X118206740Y-107057374D01*
X118154108Y-107184438D01*
X117573461Y-106603791D01*
X117573460Y-106603791D01*
X117570176Y-106608311D01*
X117454052Y-106836215D01*
X117454051Y-106836218D01*
X117375013Y-107079476D01*
X117335000Y-107332110D01*
X116424730Y-107332110D01*
X116424338Y-107331809D01*
X116225668Y-107217106D01*
X116225654Y-107217099D01*
X116013726Y-107129317D01*
X115825000Y-107078747D01*
X115825000Y-109138550D01*
X115805258Y-109125359D01*
X115668767Y-109068822D01*
X115523869Y-109040000D01*
X115376131Y-109040000D01*
X115231233Y-109068822D01*
X115094742Y-109125359D01*
X115075000Y-109138550D01*
X115075000Y-107078747D01*
X114886273Y-107129317D01*
X114674345Y-107217099D01*
X114674331Y-107217106D01*
X114475661Y-107331809D01*
X114293670Y-107471455D01*
X114293663Y-107471461D01*
X114211681Y-107553444D01*
X114150358Y-107586929D01*
X114080666Y-107581945D01*
X114024733Y-107540073D01*
X114000316Y-107474609D01*
X114000000Y-107465763D01*
X114000000Y-91980243D01*
X114011618Y-91927838D01*
X114115643Y-91704755D01*
X114248561Y-91339566D01*
X114349145Y-90964182D01*
X114416629Y-90581460D01*
X114450500Y-90194313D01*
X114450500Y-89805687D01*
X114416629Y-89418540D01*
X114349145Y-89035818D01*
X114320743Y-88929821D01*
X114315799Y-88911368D01*
X114248562Y-88660437D01*
X114152391Y-88396208D01*
X114115643Y-88295245D01*
X114115641Y-88295240D01*
X114011618Y-88072160D01*
X114000000Y-88019756D01*
X114000000Y-87412110D01*
X118375000Y-87412110D01*
X118375000Y-87667889D01*
X118415013Y-87920523D01*
X118494051Y-88163781D01*
X118494052Y-88163784D01*
X118610175Y-88391686D01*
X118613461Y-88396208D01*
X119194107Y-87815561D01*
X119246740Y-87942626D01*
X119339762Y-88081844D01*
X119458156Y-88200238D01*
X119597374Y-88293260D01*
X119724437Y-88345891D01*
X119143790Y-88926537D01*
X119143790Y-88926538D01*
X119148307Y-88929821D01*
X119376215Y-89045947D01*
X119376218Y-89045948D01*
X119619476Y-89124986D01*
X119872111Y-89165000D01*
X120127889Y-89165000D01*
X120380523Y-89124986D01*
X120623781Y-89045948D01*
X120623784Y-89045947D01*
X120851684Y-88929825D01*
X120851687Y-88929823D01*
X120856208Y-88926537D01*
X120275562Y-88345891D01*
X120402626Y-88293260D01*
X120541844Y-88200238D01*
X120660238Y-88081844D01*
X120753260Y-87942626D01*
X120805891Y-87815562D01*
X121386537Y-88396208D01*
X121386537Y-88396207D01*
X121389823Y-88391687D01*
X121389825Y-88391684D01*
X121505947Y-88163784D01*
X121505948Y-88163781D01*
X121584986Y-87920523D01*
X121625000Y-87667889D01*
X121625000Y-87412110D01*
X123455000Y-87412110D01*
X123455000Y-87667889D01*
X123495013Y-87920523D01*
X123574051Y-88163781D01*
X123574052Y-88163784D01*
X123690175Y-88391686D01*
X123693461Y-88396208D01*
X124274107Y-87815561D01*
X124326740Y-87942626D01*
X124419762Y-88081844D01*
X124538156Y-88200238D01*
X124677374Y-88293260D01*
X124804437Y-88345891D01*
X124223790Y-88926537D01*
X124223790Y-88926538D01*
X124228307Y-88929821D01*
X124456215Y-89045947D01*
X124456218Y-89045948D01*
X124699476Y-89124986D01*
X124952111Y-89165000D01*
X125207889Y-89165000D01*
X125460523Y-89124986D01*
X125703781Y-89045948D01*
X125703784Y-89045947D01*
X125931684Y-88929825D01*
X125931687Y-88929823D01*
X125936207Y-88926537D01*
X125936208Y-88926537D01*
X125355562Y-88345891D01*
X125482626Y-88293260D01*
X125621844Y-88200238D01*
X125740238Y-88081844D01*
X125833260Y-87942626D01*
X125885891Y-87815562D01*
X126466537Y-88396208D01*
X126466537Y-88396207D01*
X126469823Y-88391687D01*
X126469825Y-88391684D01*
X126585947Y-88163784D01*
X126585948Y-88163781D01*
X126664986Y-87920523D01*
X126705000Y-87667889D01*
X126705000Y-87412110D01*
X126664986Y-87159476D01*
X126585948Y-86916218D01*
X126585947Y-86916215D01*
X126469821Y-86688307D01*
X126466538Y-86683790D01*
X125885891Y-87264437D01*
X125833260Y-87137374D01*
X125740238Y-86998156D01*
X125621844Y-86879762D01*
X125482626Y-86786740D01*
X125355562Y-86734108D01*
X125936208Y-86153461D01*
X125931686Y-86150175D01*
X125703784Y-86034052D01*
X125703781Y-86034051D01*
X125460523Y-85955013D01*
X125207889Y-85915000D01*
X124952111Y-85915000D01*
X124699476Y-85955013D01*
X124456218Y-86034051D01*
X124456215Y-86034052D01*
X124228311Y-86150176D01*
X124223791Y-86153460D01*
X124223791Y-86153461D01*
X124804438Y-86734108D01*
X124677374Y-86786740D01*
X124538156Y-86879762D01*
X124419762Y-86998156D01*
X124326740Y-87137374D01*
X124274108Y-87264438D01*
X123693461Y-86683791D01*
X123693460Y-86683791D01*
X123690176Y-86688311D01*
X123574052Y-86916215D01*
X123574051Y-86916218D01*
X123495013Y-87159476D01*
X123455000Y-87412110D01*
X121625000Y-87412110D01*
X121584986Y-87159476D01*
X121505948Y-86916218D01*
X121505947Y-86916215D01*
X121389821Y-86688307D01*
X121386538Y-86683790D01*
X121386537Y-86683790D01*
X120805891Y-87264436D01*
X120753260Y-87137374D01*
X120660238Y-86998156D01*
X120541844Y-86879762D01*
X120402626Y-86786740D01*
X120275562Y-86734108D01*
X120856208Y-86153461D01*
X120851686Y-86150175D01*
X120623784Y-86034052D01*
X120623781Y-86034051D01*
X120380523Y-85955013D01*
X120127889Y-85915000D01*
X119872111Y-85915000D01*
X119619476Y-85955013D01*
X119376218Y-86034051D01*
X119376215Y-86034052D01*
X119148311Y-86150176D01*
X119143791Y-86153460D01*
X119143791Y-86153461D01*
X119724438Y-86734108D01*
X119597374Y-86786740D01*
X119458156Y-86879762D01*
X119339762Y-86998156D01*
X119246740Y-87137374D01*
X119194108Y-87264438D01*
X118613461Y-86683791D01*
X118613460Y-86683791D01*
X118610176Y-86688311D01*
X118494052Y-86916215D01*
X118494051Y-86916218D01*
X118415013Y-87159476D01*
X118375000Y-87412110D01*
X114000000Y-87412110D01*
X114000000Y-84879941D01*
X121014500Y-84879941D01*
X121014500Y-85120058D01*
X121052063Y-85357222D01*
X121126265Y-85585593D01*
X121210769Y-85751439D01*
X121235276Y-85799536D01*
X121376414Y-85993796D01*
X121546204Y-86163586D01*
X121740464Y-86304724D01*
X121841543Y-86356226D01*
X121954406Y-86413734D01*
X121954408Y-86413734D01*
X121954411Y-86413736D01*
X122182778Y-86487937D01*
X122419941Y-86525500D01*
X122419942Y-86525500D01*
X122660058Y-86525500D01*
X122660059Y-86525500D01*
X122897222Y-86487937D01*
X123125589Y-86413736D01*
X123339536Y-86304724D01*
X123533796Y-86163586D01*
X123703586Y-85993796D01*
X123844724Y-85799536D01*
X123953736Y-85585589D01*
X124027937Y-85357222D01*
X124065500Y-85120059D01*
X124065500Y-84879941D01*
X124027937Y-84642778D01*
X123953736Y-84414411D01*
X123953734Y-84414408D01*
X123953734Y-84414406D01*
X123844723Y-84200463D01*
X123703586Y-84006204D01*
X123533796Y-83836414D01*
X123339536Y-83695276D01*
X123125593Y-83586265D01*
X122897222Y-83512063D01*
X122660059Y-83474500D01*
X122419941Y-83474500D01*
X122301359Y-83493281D01*
X122182777Y-83512063D01*
X121954406Y-83586265D01*
X121740463Y-83695276D01*
X121546201Y-83836416D01*
X121376416Y-84006201D01*
X121235276Y-84200463D01*
X121126265Y-84414406D01*
X121052063Y-84642777D01*
X121014500Y-84879941D01*
X114000000Y-84879941D01*
X114000000Y-82332110D01*
X118375000Y-82332110D01*
X118375000Y-82587889D01*
X118415013Y-82840523D01*
X118494051Y-83083781D01*
X118494052Y-83083784D01*
X118610175Y-83311686D01*
X118613461Y-83316208D01*
X119194107Y-82735561D01*
X119246740Y-82862626D01*
X119339762Y-83001844D01*
X119458156Y-83120238D01*
X119597374Y-83213260D01*
X119724437Y-83265891D01*
X119143790Y-83846537D01*
X119143790Y-83846538D01*
X119148307Y-83849821D01*
X119376215Y-83965947D01*
X119376218Y-83965948D01*
X119619476Y-84044986D01*
X119872111Y-84085000D01*
X120127889Y-84085000D01*
X120380523Y-84044986D01*
X120623781Y-83965948D01*
X120623784Y-83965947D01*
X120851684Y-83849825D01*
X120851687Y-83849823D01*
X120856207Y-83846537D01*
X120856208Y-83846537D01*
X120275562Y-83265891D01*
X120402626Y-83213260D01*
X120541844Y-83120238D01*
X120660238Y-83001844D01*
X120753260Y-82862626D01*
X120805891Y-82735562D01*
X121386537Y-83316208D01*
X121386537Y-83316207D01*
X121389823Y-83311687D01*
X121389825Y-83311684D01*
X121505947Y-83083784D01*
X121505948Y-83083781D01*
X121584986Y-82840523D01*
X121625000Y-82587889D01*
X121625000Y-82332110D01*
X123455000Y-82332110D01*
X123455000Y-82587889D01*
X123495013Y-82840523D01*
X123574051Y-83083781D01*
X123574052Y-83083784D01*
X123690175Y-83311686D01*
X123693461Y-83316208D01*
X124274107Y-82735561D01*
X124326740Y-82862626D01*
X124419762Y-83001844D01*
X124538156Y-83120238D01*
X124677374Y-83213260D01*
X124804437Y-83265891D01*
X124223790Y-83846537D01*
X124223790Y-83846538D01*
X124228307Y-83849821D01*
X124456215Y-83965947D01*
X124456218Y-83965948D01*
X124699476Y-84044986D01*
X124952111Y-84085000D01*
X125207889Y-84085000D01*
X125460523Y-84044986D01*
X125703781Y-83965948D01*
X125703784Y-83965947D01*
X125931684Y-83849825D01*
X125931687Y-83849823D01*
X125936207Y-83846537D01*
X125936208Y-83846537D01*
X125355562Y-83265891D01*
X125482626Y-83213260D01*
X125621844Y-83120238D01*
X125740238Y-83001844D01*
X125833260Y-82862626D01*
X125885891Y-82735562D01*
X126466537Y-83316208D01*
X126466537Y-83316207D01*
X126469823Y-83311687D01*
X126469825Y-83311684D01*
X126585947Y-83083784D01*
X126585948Y-83083781D01*
X126664986Y-82840523D01*
X126705000Y-82587889D01*
X126705000Y-82332110D01*
X126664986Y-82079476D01*
X126585948Y-81836218D01*
X126585947Y-81836215D01*
X126469821Y-81608307D01*
X126466538Y-81603790D01*
X125885891Y-82184437D01*
X125833260Y-82057374D01*
X125740238Y-81918156D01*
X125621844Y-81799762D01*
X125482626Y-81706740D01*
X125355562Y-81654108D01*
X125936208Y-81073461D01*
X125931686Y-81070175D01*
X125703784Y-80954052D01*
X125703781Y-80954051D01*
X125460523Y-80875013D01*
X125207889Y-80835000D01*
X124952111Y-80835000D01*
X124699476Y-80875013D01*
X124456218Y-80954051D01*
X124456215Y-80954052D01*
X124228311Y-81070176D01*
X124223791Y-81073460D01*
X124223791Y-81073461D01*
X124804438Y-81654108D01*
X124677374Y-81706740D01*
X124538156Y-81799762D01*
X124419762Y-81918156D01*
X124326740Y-82057374D01*
X124274108Y-82184438D01*
X123693461Y-81603791D01*
X123693460Y-81603791D01*
X123690176Y-81608311D01*
X123574052Y-81836215D01*
X123574051Y-81836218D01*
X123495013Y-82079476D01*
X123455000Y-82332110D01*
X121625000Y-82332110D01*
X121584986Y-82079476D01*
X121505948Y-81836218D01*
X121505947Y-81836215D01*
X121389821Y-81608307D01*
X121386538Y-81603790D01*
X121386537Y-81603790D01*
X120805891Y-82184436D01*
X120753260Y-82057374D01*
X120660238Y-81918156D01*
X120541844Y-81799762D01*
X120402626Y-81706740D01*
X120275562Y-81654108D01*
X120856208Y-81073461D01*
X120851686Y-81070175D01*
X120623784Y-80954052D01*
X120623781Y-80954051D01*
X120380523Y-80875013D01*
X120127889Y-80835000D01*
X119872111Y-80835000D01*
X119619476Y-80875013D01*
X119376218Y-80954051D01*
X119376215Y-80954052D01*
X119148311Y-81070176D01*
X119143791Y-81073460D01*
X119143791Y-81073461D01*
X119724438Y-81654108D01*
X119597374Y-81706740D01*
X119458156Y-81799762D01*
X119339762Y-81918156D01*
X119246740Y-82057374D01*
X119194108Y-82184438D01*
X118613461Y-81603791D01*
X118613460Y-81603791D01*
X118610176Y-81608311D01*
X118494052Y-81836215D01*
X118494051Y-81836218D01*
X118415013Y-82079476D01*
X118375000Y-82332110D01*
X114000000Y-82332110D01*
X114000000Y-80124000D01*
X114019685Y-80056961D01*
X114072489Y-80011206D01*
X114124000Y-80000000D01*
X126876000Y-80000000D01*
X126943039Y-80019685D01*
G37*
%TD.AperFunction*%
%TD*%
%TA.AperFunction,Conductor*%
%TO.N,GND*%
G36*
X85943039Y-80519685D02*
G01*
X85988794Y-80572489D01*
X86000000Y-80624000D01*
X86000000Y-88019756D01*
X85988382Y-88072160D01*
X85884358Y-88295240D01*
X85884355Y-88295248D01*
X85751436Y-88660440D01*
X85650857Y-89035810D01*
X85650853Y-89035827D01*
X85583371Y-89418533D01*
X85583371Y-89418537D01*
X85549500Y-89805683D01*
X85549500Y-90194316D01*
X85583371Y-90581462D01*
X85583371Y-90581466D01*
X85650853Y-90964172D01*
X85650857Y-90964189D01*
X85751435Y-91339555D01*
X85751438Y-91339565D01*
X85751439Y-91339566D01*
X85884357Y-91704755D01*
X85884360Y-91704762D01*
X85884361Y-91704764D01*
X85988382Y-91927838D01*
X86000000Y-91980243D01*
X86000000Y-99876000D01*
X85980315Y-99943039D01*
X85927511Y-99988794D01*
X85876000Y-100000000D01*
X73124000Y-100000000D01*
X73056961Y-99980315D01*
X73011206Y-99927511D01*
X73000000Y-99876000D01*
X73000000Y-89142532D01*
X73000017Y-89134786D01*
X73000500Y-89131120D01*
X73000500Y-87452110D01*
X73335000Y-87452110D01*
X73335000Y-87707889D01*
X73375013Y-87960523D01*
X73454051Y-88203781D01*
X73454052Y-88203784D01*
X73570175Y-88431686D01*
X73573461Y-88436208D01*
X74154107Y-87855561D01*
X74206740Y-87982626D01*
X74299762Y-88121844D01*
X74418156Y-88240238D01*
X74557374Y-88333260D01*
X74684437Y-88385891D01*
X74103790Y-88966537D01*
X74103790Y-88966538D01*
X74108307Y-88969821D01*
X74336215Y-89085947D01*
X74336218Y-89085948D01*
X74579476Y-89164986D01*
X74832111Y-89205000D01*
X75087889Y-89205000D01*
X75340523Y-89164986D01*
X75583781Y-89085948D01*
X75583784Y-89085947D01*
X75811684Y-88969825D01*
X75811687Y-88969823D01*
X75816208Y-88966537D01*
X75235562Y-88385891D01*
X75362626Y-88333260D01*
X75501844Y-88240238D01*
X75620238Y-88121844D01*
X75713260Y-87982626D01*
X75765891Y-87855562D01*
X76346537Y-88436208D01*
X76346537Y-88436207D01*
X76349823Y-88431687D01*
X76349825Y-88431684D01*
X76465947Y-88203784D01*
X76465948Y-88203781D01*
X76544986Y-87960523D01*
X76585000Y-87707889D01*
X76585000Y-87452110D01*
X78415000Y-87452110D01*
X78415000Y-87707889D01*
X78455013Y-87960523D01*
X78534051Y-88203781D01*
X78534052Y-88203784D01*
X78650175Y-88431686D01*
X78653461Y-88436208D01*
X79234107Y-87855561D01*
X79286740Y-87982626D01*
X79379762Y-88121844D01*
X79498156Y-88240238D01*
X79637374Y-88333260D01*
X79764437Y-88385891D01*
X79183790Y-88966537D01*
X79183790Y-88966538D01*
X79188307Y-88969821D01*
X79416215Y-89085947D01*
X79416218Y-89085948D01*
X79659476Y-89164986D01*
X79912111Y-89205000D01*
X80167889Y-89205000D01*
X80420523Y-89164986D01*
X80663781Y-89085948D01*
X80663784Y-89085947D01*
X80891684Y-88969825D01*
X80891687Y-88969823D01*
X80896207Y-88966537D01*
X80896208Y-88966537D01*
X80315562Y-88385891D01*
X80442626Y-88333260D01*
X80581844Y-88240238D01*
X80700238Y-88121844D01*
X80793260Y-87982626D01*
X80845891Y-87855562D01*
X81426537Y-88436208D01*
X81426537Y-88436207D01*
X81429823Y-88431687D01*
X81429825Y-88431684D01*
X81545947Y-88203784D01*
X81545948Y-88203781D01*
X81624986Y-87960523D01*
X81665000Y-87707889D01*
X81665000Y-87452110D01*
X81624986Y-87199476D01*
X81545948Y-86956218D01*
X81545947Y-86956215D01*
X81429821Y-86728307D01*
X81426538Y-86723790D01*
X80845891Y-87304437D01*
X80793260Y-87177374D01*
X80700238Y-87038156D01*
X80581844Y-86919762D01*
X80442626Y-86826740D01*
X80315562Y-86774108D01*
X80896208Y-86193461D01*
X80891686Y-86190175D01*
X80663784Y-86074052D01*
X80663781Y-86074051D01*
X80420523Y-85995013D01*
X80167889Y-85955000D01*
X79912111Y-85955000D01*
X79659476Y-85995013D01*
X79416218Y-86074051D01*
X79416215Y-86074052D01*
X79188311Y-86190176D01*
X79183791Y-86193460D01*
X79183791Y-86193461D01*
X79764438Y-86774108D01*
X79637374Y-86826740D01*
X79498156Y-86919762D01*
X79379762Y-87038156D01*
X79286740Y-87177374D01*
X79234108Y-87304438D01*
X78653461Y-86723791D01*
X78653460Y-86723791D01*
X78650176Y-86728311D01*
X78534052Y-86956215D01*
X78534051Y-86956218D01*
X78455013Y-87199476D01*
X78415000Y-87452110D01*
X76585000Y-87452110D01*
X76544986Y-87199476D01*
X76465948Y-86956218D01*
X76465947Y-86956215D01*
X76349821Y-86728307D01*
X76346538Y-86723790D01*
X76346537Y-86723790D01*
X75765891Y-87304436D01*
X75713260Y-87177374D01*
X75620238Y-87038156D01*
X75501844Y-86919762D01*
X75362626Y-86826740D01*
X75235562Y-86774108D01*
X75816208Y-86193461D01*
X75811686Y-86190175D01*
X75583784Y-86074052D01*
X75583781Y-86074051D01*
X75340523Y-85995013D01*
X75087889Y-85955000D01*
X74832111Y-85955000D01*
X74579476Y-85995013D01*
X74336218Y-86074051D01*
X74336215Y-86074052D01*
X74108311Y-86190176D01*
X74103791Y-86193460D01*
X74103791Y-86193461D01*
X74684438Y-86774108D01*
X74557374Y-86826740D01*
X74418156Y-86919762D01*
X74299762Y-87038156D01*
X74206740Y-87177374D01*
X74154108Y-87304438D01*
X73573461Y-86723791D01*
X73573460Y-86723791D01*
X73570176Y-86728311D01*
X73454052Y-86956215D01*
X73454051Y-86956218D01*
X73375013Y-87199476D01*
X73335000Y-87452110D01*
X73000500Y-87452110D01*
X73000500Y-84919941D01*
X75974500Y-84919941D01*
X75974500Y-85160058D01*
X76012063Y-85397222D01*
X76086265Y-85625593D01*
X76150388Y-85751439D01*
X76195276Y-85839536D01*
X76336414Y-86033796D01*
X76506204Y-86203586D01*
X76700464Y-86344724D01*
X76801543Y-86396226D01*
X76914406Y-86453734D01*
X76914408Y-86453734D01*
X76914411Y-86453736D01*
X77142778Y-86527937D01*
X77379941Y-86565500D01*
X77379942Y-86565500D01*
X77620058Y-86565500D01*
X77620059Y-86565500D01*
X77857222Y-86527937D01*
X78085589Y-86453736D01*
X78299536Y-86344724D01*
X78493796Y-86203586D01*
X78663586Y-86033796D01*
X78804724Y-85839536D01*
X78913736Y-85625589D01*
X78987937Y-85397222D01*
X79025500Y-85160059D01*
X79025500Y-84919941D01*
X78987937Y-84682778D01*
X78913736Y-84454411D01*
X78913734Y-84454408D01*
X78913734Y-84454406D01*
X78804723Y-84240463D01*
X78663586Y-84046204D01*
X78493796Y-83876414D01*
X78299536Y-83735276D01*
X78085593Y-83626265D01*
X77857222Y-83552063D01*
X77620059Y-83514500D01*
X77379941Y-83514500D01*
X77261359Y-83533281D01*
X77142777Y-83552063D01*
X76914406Y-83626265D01*
X76700463Y-83735276D01*
X76506201Y-83876416D01*
X76336416Y-84046201D01*
X76195276Y-84240463D01*
X76086265Y-84454406D01*
X76012063Y-84682777D01*
X75974500Y-84919941D01*
X73000500Y-84919941D01*
X73000500Y-82372110D01*
X73335000Y-82372110D01*
X73335000Y-82627889D01*
X73375013Y-82880523D01*
X73454051Y-83123781D01*
X73454052Y-83123784D01*
X73570175Y-83351686D01*
X73573461Y-83356208D01*
X74154107Y-82775561D01*
X74206740Y-82902626D01*
X74299762Y-83041844D01*
X74418156Y-83160238D01*
X74557374Y-83253260D01*
X74684437Y-83305891D01*
X74103790Y-83886537D01*
X74103790Y-83886538D01*
X74108307Y-83889821D01*
X74336215Y-84005947D01*
X74336218Y-84005948D01*
X74579476Y-84084986D01*
X74832111Y-84125000D01*
X75087889Y-84125000D01*
X75340523Y-84084986D01*
X75583781Y-84005948D01*
X75583784Y-84005947D01*
X75811684Y-83889825D01*
X75811687Y-83889823D01*
X75816207Y-83886537D01*
X75816208Y-83886537D01*
X75235562Y-83305891D01*
X75362626Y-83253260D01*
X75501844Y-83160238D01*
X75620238Y-83041844D01*
X75713260Y-82902626D01*
X75765891Y-82775562D01*
X76346537Y-83356208D01*
X76346537Y-83356207D01*
X76349823Y-83351687D01*
X76349825Y-83351684D01*
X76465947Y-83123784D01*
X76465948Y-83123781D01*
X76544986Y-82880523D01*
X76585000Y-82627889D01*
X76585000Y-82372110D01*
X78415000Y-82372110D01*
X78415000Y-82627889D01*
X78455013Y-82880523D01*
X78534051Y-83123781D01*
X78534052Y-83123784D01*
X78650175Y-83351686D01*
X78653461Y-83356208D01*
X79234107Y-82775561D01*
X79286740Y-82902626D01*
X79379762Y-83041844D01*
X79498156Y-83160238D01*
X79637374Y-83253260D01*
X79764437Y-83305891D01*
X79183790Y-83886537D01*
X79183790Y-83886538D01*
X79188307Y-83889821D01*
X79416215Y-84005947D01*
X79416218Y-84005948D01*
X79659476Y-84084986D01*
X79912111Y-84125000D01*
X80167889Y-84125000D01*
X80420523Y-84084986D01*
X80663781Y-84005948D01*
X80663784Y-84005947D01*
X80891684Y-83889825D01*
X80891687Y-83889823D01*
X80896207Y-83886537D01*
X80896208Y-83886537D01*
X80315562Y-83305891D01*
X80442626Y-83253260D01*
X80581844Y-83160238D01*
X80700238Y-83041844D01*
X80793260Y-82902626D01*
X80845891Y-82775562D01*
X81426537Y-83356208D01*
X81426537Y-83356207D01*
X81429823Y-83351687D01*
X81429825Y-83351684D01*
X81545947Y-83123784D01*
X81545948Y-83123781D01*
X81624986Y-82880523D01*
X81665000Y-82627889D01*
X81665000Y-82372110D01*
X81624986Y-82119476D01*
X81545948Y-81876218D01*
X81545947Y-81876215D01*
X81429821Y-81648307D01*
X81426538Y-81643790D01*
X80845891Y-82224437D01*
X80793260Y-82097374D01*
X80700238Y-81958156D01*
X80581844Y-81839762D01*
X80442626Y-81746740D01*
X80315562Y-81694108D01*
X80896208Y-81113461D01*
X80891686Y-81110175D01*
X80663784Y-80994052D01*
X80663781Y-80994051D01*
X80420523Y-80915013D01*
X80167889Y-80875000D01*
X79912111Y-80875000D01*
X79659476Y-80915013D01*
X79416218Y-80994051D01*
X79416215Y-80994052D01*
X79188311Y-81110176D01*
X79183791Y-81113460D01*
X79183791Y-81113461D01*
X79764438Y-81694108D01*
X79637374Y-81746740D01*
X79498156Y-81839762D01*
X79379762Y-81958156D01*
X79286740Y-82097374D01*
X79234108Y-82224438D01*
X78653461Y-81643791D01*
X78653460Y-81643791D01*
X78650176Y-81648311D01*
X78534052Y-81876215D01*
X78534051Y-81876218D01*
X78455013Y-82119476D01*
X78415000Y-82372110D01*
X76585000Y-82372110D01*
X76544986Y-82119476D01*
X76465948Y-81876218D01*
X76465947Y-81876215D01*
X76349821Y-81648307D01*
X76346538Y-81643790D01*
X76346537Y-81643790D01*
X75765891Y-82224436D01*
X75713260Y-82097374D01*
X75620238Y-81958156D01*
X75501844Y-81839762D01*
X75362626Y-81746740D01*
X75235562Y-81694108D01*
X75816208Y-81113461D01*
X75811686Y-81110175D01*
X75583784Y-80994052D01*
X75583781Y-80994051D01*
X75340523Y-80915013D01*
X75087889Y-80875000D01*
X74832111Y-80875000D01*
X74579476Y-80915013D01*
X74336218Y-80994051D01*
X74336215Y-80994052D01*
X74108311Y-81110176D01*
X74103791Y-81113460D01*
X74103791Y-81113461D01*
X74684438Y-81694108D01*
X74557374Y-81746740D01*
X74418156Y-81839762D01*
X74299762Y-81958156D01*
X74206740Y-82097374D01*
X74154108Y-82224438D01*
X73573461Y-81643791D01*
X73573460Y-81643791D01*
X73570176Y-81648311D01*
X73454052Y-81876215D01*
X73454051Y-81876218D01*
X73375013Y-82119476D01*
X73335000Y-82372110D01*
X73000500Y-82372110D01*
X73000500Y-80624000D01*
X73020185Y-80556961D01*
X73072989Y-80511206D01*
X73124500Y-80500000D01*
X85876000Y-80500000D01*
X85943039Y-80519685D01*
G37*
%TD.AperFunction*%
%TD*%
%TA.AperFunction,Conductor*%
%TO.N,GND*%
G36*
X82443039Y-105020185D02*
G01*
X82488794Y-105072989D01*
X82500000Y-105124500D01*
X82500000Y-105938579D01*
X82480315Y-106005618D01*
X82427511Y-106051373D01*
X82392823Y-106057504D01*
X81805891Y-106644436D01*
X81753260Y-106517374D01*
X81660238Y-106378156D01*
X81541844Y-106259762D01*
X81402626Y-106166740D01*
X81275562Y-106114108D01*
X81856208Y-105533461D01*
X81851686Y-105530175D01*
X81623784Y-105414052D01*
X81623781Y-105414051D01*
X81380523Y-105335013D01*
X81127889Y-105295000D01*
X80872111Y-105295000D01*
X80619476Y-105335013D01*
X80376218Y-105414051D01*
X80376215Y-105414052D01*
X80148311Y-105530176D01*
X80143791Y-105533460D01*
X80143791Y-105533461D01*
X80724438Y-106114108D01*
X80597374Y-106166740D01*
X80458156Y-106259762D01*
X80339762Y-106378156D01*
X80246740Y-106517374D01*
X80194108Y-106644438D01*
X79613461Y-106063791D01*
X79613460Y-106063791D01*
X79610176Y-106068311D01*
X79494052Y-106296215D01*
X79494051Y-106296218D01*
X79415013Y-106539476D01*
X79375000Y-106792110D01*
X79375000Y-107047889D01*
X79415013Y-107300523D01*
X79494051Y-107543781D01*
X79494052Y-107543784D01*
X79610175Y-107771686D01*
X79613461Y-107776208D01*
X80194107Y-107195561D01*
X80246740Y-107322626D01*
X80339762Y-107461844D01*
X80458156Y-107580238D01*
X80597374Y-107673260D01*
X80724437Y-107725891D01*
X80143790Y-108306537D01*
X80143790Y-108306538D01*
X80148307Y-108309821D01*
X80376215Y-108425947D01*
X80376218Y-108425948D01*
X80619476Y-108504986D01*
X80872111Y-108545000D01*
X81127889Y-108545000D01*
X81380523Y-108504986D01*
X81623781Y-108425948D01*
X81623784Y-108425947D01*
X81851684Y-108309825D01*
X81851687Y-108309823D01*
X81856207Y-108306537D01*
X81856208Y-108306537D01*
X81275562Y-107725891D01*
X81402626Y-107673260D01*
X81541844Y-107580238D01*
X81660238Y-107461844D01*
X81753260Y-107322626D01*
X81805891Y-107195562D01*
X82393941Y-107783612D01*
X82434659Y-107792170D01*
X82484411Y-107841226D01*
X82500000Y-107901418D01*
X82500000Y-111018579D01*
X82480315Y-111085618D01*
X82427511Y-111131373D01*
X82392823Y-111137504D01*
X81805891Y-111724436D01*
X81753260Y-111597374D01*
X81660238Y-111458156D01*
X81541844Y-111339762D01*
X81402626Y-111246740D01*
X81275562Y-111194108D01*
X81856208Y-110613461D01*
X81851686Y-110610175D01*
X81623784Y-110494052D01*
X81623781Y-110494051D01*
X81380523Y-110415013D01*
X81127889Y-110375000D01*
X80872111Y-110375000D01*
X80619476Y-110415013D01*
X80376218Y-110494051D01*
X80376215Y-110494052D01*
X80148311Y-110610176D01*
X80143791Y-110613460D01*
X80143791Y-110613461D01*
X80724438Y-111194108D01*
X80597374Y-111246740D01*
X80458156Y-111339762D01*
X80339762Y-111458156D01*
X80246740Y-111597374D01*
X80194108Y-111724438D01*
X79613461Y-111143791D01*
X79613460Y-111143791D01*
X79610176Y-111148311D01*
X79494052Y-111376215D01*
X79494051Y-111376218D01*
X79415013Y-111619476D01*
X79375000Y-111872110D01*
X79375000Y-112127889D01*
X79415013Y-112380523D01*
X79494051Y-112623781D01*
X79494052Y-112623784D01*
X79610175Y-112851686D01*
X79613461Y-112856208D01*
X80194107Y-112275561D01*
X80246740Y-112402626D01*
X80339762Y-112541844D01*
X80458156Y-112660238D01*
X80597374Y-112753260D01*
X80724437Y-112805891D01*
X80136383Y-113393944D01*
X80127829Y-113434655D01*
X80078775Y-113484409D01*
X80018579Y-113500000D01*
X76901419Y-113500000D01*
X76834380Y-113480315D01*
X76788625Y-113427511D01*
X76782491Y-113392820D01*
X76195562Y-112805891D01*
X76322626Y-112753260D01*
X76461844Y-112660238D01*
X76580238Y-112541844D01*
X76673260Y-112402626D01*
X76725891Y-112275562D01*
X77306537Y-112856208D01*
X77306537Y-112856207D01*
X77309823Y-112851687D01*
X77309825Y-112851684D01*
X77425947Y-112623784D01*
X77425948Y-112623781D01*
X77504986Y-112380523D01*
X77545000Y-112127889D01*
X77545000Y-111872110D01*
X77504986Y-111619476D01*
X77425948Y-111376218D01*
X77425947Y-111376215D01*
X77309821Y-111148307D01*
X77306538Y-111143790D01*
X77306537Y-111143790D01*
X76725891Y-111724436D01*
X76673260Y-111597374D01*
X76580238Y-111458156D01*
X76461844Y-111339762D01*
X76322626Y-111246740D01*
X76195562Y-111194108D01*
X76776208Y-110613461D01*
X76771686Y-110610175D01*
X76543784Y-110494052D01*
X76543781Y-110494051D01*
X76300523Y-110415013D01*
X76047889Y-110375000D01*
X75792111Y-110375000D01*
X75539476Y-110415013D01*
X75296218Y-110494051D01*
X75296215Y-110494052D01*
X75068311Y-110610176D01*
X75063791Y-110613460D01*
X75063791Y-110613461D01*
X75644438Y-111194108D01*
X75517374Y-111246740D01*
X75378156Y-111339762D01*
X75259762Y-111458156D01*
X75166740Y-111597374D01*
X75114108Y-111724438D01*
X74533461Y-111143791D01*
X74533460Y-111143791D01*
X74530176Y-111148311D01*
X74414052Y-111376215D01*
X74414051Y-111376218D01*
X74335013Y-111619476D01*
X74295000Y-111872110D01*
X74295000Y-112127889D01*
X74335013Y-112380523D01*
X74414051Y-112623781D01*
X74414052Y-112623784D01*
X74530175Y-112851686D01*
X74533461Y-112856208D01*
X75114107Y-112275561D01*
X75166740Y-112402626D01*
X75259762Y-112541844D01*
X75378156Y-112660238D01*
X75517374Y-112753260D01*
X75644437Y-112805891D01*
X75056383Y-113393944D01*
X75047829Y-113434655D01*
X74998775Y-113484409D01*
X74938579Y-113500000D01*
X73124000Y-113500000D01*
X73056961Y-113480315D01*
X73011206Y-113427511D01*
X73000000Y-113376000D01*
X73000000Y-109339941D01*
X76934500Y-109339941D01*
X76934500Y-109580058D01*
X76972063Y-109817222D01*
X77046265Y-110045593D01*
X77155276Y-110259536D01*
X77296414Y-110453796D01*
X77466204Y-110623586D01*
X77660464Y-110764724D01*
X77761543Y-110816226D01*
X77874406Y-110873734D01*
X77874408Y-110873734D01*
X77874411Y-110873736D01*
X78102778Y-110947937D01*
X78339941Y-110985500D01*
X78339942Y-110985500D01*
X78580058Y-110985500D01*
X78580059Y-110985500D01*
X78817222Y-110947937D01*
X79045589Y-110873736D01*
X79259536Y-110764724D01*
X79453796Y-110623586D01*
X79623586Y-110453796D01*
X79764724Y-110259536D01*
X79873736Y-110045589D01*
X79947937Y-109817222D01*
X79985500Y-109580059D01*
X79985500Y-109339941D01*
X79947937Y-109102778D01*
X79873736Y-108874411D01*
X79873734Y-108874408D01*
X79873734Y-108874406D01*
X79764723Y-108660463D01*
X79623586Y-108466204D01*
X79453796Y-108296414D01*
X79259536Y-108155276D01*
X79045593Y-108046265D01*
X78817222Y-107972063D01*
X78580059Y-107934500D01*
X78339941Y-107934500D01*
X78221359Y-107953281D01*
X78102777Y-107972063D01*
X77874406Y-108046265D01*
X77660463Y-108155276D01*
X77466201Y-108296416D01*
X77296416Y-108466201D01*
X77155276Y-108660463D01*
X77046265Y-108874406D01*
X76972063Y-109102777D01*
X76934500Y-109339941D01*
X73000000Y-109339941D01*
X73000000Y-106792110D01*
X74295000Y-106792110D01*
X74295000Y-107047889D01*
X74335013Y-107300523D01*
X74414051Y-107543781D01*
X74414052Y-107543784D01*
X74530175Y-107771686D01*
X74533461Y-107776208D01*
X75114107Y-107195561D01*
X75166740Y-107322626D01*
X75259762Y-107461844D01*
X75378156Y-107580238D01*
X75517374Y-107673260D01*
X75644437Y-107725891D01*
X75063790Y-108306537D01*
X75063790Y-108306538D01*
X75068307Y-108309821D01*
X75296215Y-108425947D01*
X75296218Y-108425948D01*
X75539476Y-108504986D01*
X75792111Y-108545000D01*
X76047889Y-108545000D01*
X76300523Y-108504986D01*
X76543781Y-108425948D01*
X76543784Y-108425947D01*
X76771684Y-108309825D01*
X76771687Y-108309823D01*
X76776207Y-108306537D01*
X76776208Y-108306537D01*
X76195562Y-107725891D01*
X76322626Y-107673260D01*
X76461844Y-107580238D01*
X76580238Y-107461844D01*
X76673260Y-107322626D01*
X76725891Y-107195562D01*
X77306537Y-107776208D01*
X77306537Y-107776207D01*
X77309823Y-107771687D01*
X77309825Y-107771684D01*
X77425947Y-107543784D01*
X77425948Y-107543781D01*
X77504986Y-107300523D01*
X77545000Y-107047889D01*
X77545000Y-106792110D01*
X77504986Y-106539476D01*
X77425948Y-106296218D01*
X77425947Y-106296215D01*
X77309821Y-106068307D01*
X77306538Y-106063790D01*
X77306537Y-106063790D01*
X76725891Y-106644436D01*
X76673260Y-106517374D01*
X76580238Y-106378156D01*
X76461844Y-106259762D01*
X76322626Y-106166740D01*
X76195562Y-106114108D01*
X76776208Y-105533461D01*
X76771686Y-105530175D01*
X76543784Y-105414052D01*
X76543781Y-105414051D01*
X76300523Y-105335013D01*
X76047889Y-105295000D01*
X75792111Y-105295000D01*
X75539476Y-105335013D01*
X75296218Y-105414051D01*
X75296215Y-105414052D01*
X75068311Y-105530176D01*
X75063791Y-105533460D01*
X75063791Y-105533461D01*
X75644438Y-106114108D01*
X75517374Y-106166740D01*
X75378156Y-106259762D01*
X75259762Y-106378156D01*
X75166740Y-106517374D01*
X75114108Y-106644438D01*
X74533461Y-106063791D01*
X74533460Y-106063791D01*
X74530176Y-106068311D01*
X74414052Y-106296215D01*
X74414051Y-106296218D01*
X74335013Y-106539476D01*
X74295000Y-106792110D01*
X73000000Y-106792110D01*
X73000000Y-105124500D01*
X73019685Y-105057461D01*
X73072489Y-105011706D01*
X73124000Y-105000500D01*
X82376000Y-105000500D01*
X82443039Y-105020185D01*
G37*
%TD.AperFunction*%
%TA.AperFunction,Conductor*%
G36*
X82393941Y-112863612D02*
G01*
X82434659Y-112872170D01*
X82484411Y-112921226D01*
X82500000Y-112981418D01*
X82500000Y-113376000D01*
X82480315Y-113443039D01*
X82427511Y-113488794D01*
X82376000Y-113500000D01*
X81981419Y-113500000D01*
X81914380Y-113480315D01*
X81868625Y-113427511D01*
X81862491Y-113392820D01*
X81275562Y-112805891D01*
X81402626Y-112753260D01*
X81541844Y-112660238D01*
X81660238Y-112541844D01*
X81753260Y-112402626D01*
X81805891Y-112275562D01*
X82393941Y-112863612D01*
G37*
%TD.AperFunction*%
%TD*%
M02*
